<?xml version="1.0" encoding="UTF-8" standalone="no"?>
<!DOCTYPE svg PUBLIC "-//W3C//DTD SVG 1.1//EN"
 "http://www.w3.org/Graphics/SVG/1.1/DTD/svg11.dtd">
<!-- Generated by graphviz version 8.1.0 (20230707.0739)
 -->
<!-- Title: Prism Pages: 1 -->
<svg width="328pt" height="366pt"
 viewBox="0.00 0.00 328.00 366.00" xmlns="http://www.w3.org/2000/svg" xmlns:xlink="http://www.w3.org/1999/xlink">
<g id="graph0" class="graph" transform="scale(1 1) rotate(0) translate(4 362)">
<title>Prism</title>
<polygon fill="white" stroke="none" points="-4,4 -4,-362 324,-362 324,4 -4,4"/>
<!-- Node_60 -->
<g id="node1" class="node">
<title>Node_60</title>
<polygon fill="#f2f2f2" stroke="none" points="229,-358 104,-358 104,-202 229,-202 229,-358"/>
<polygon fill="none" stroke="black" points="104,-332 104,-358 229,-358 229,-332 104,-332"/>
<text text-anchor="start" x="108.75" y="-340.7" font-family="Courier New" font-weight="bold" font-size="14.00">ParametersNode</text>
<polygon fill="none" stroke="black" points="104,-306 104,-332 195,-332 195,-306 104,-306"/>
<text text-anchor="start" x="109" y="-313.7" font-family="Courier New" font-size="14.00">requireds</text>
<polygon fill="none" stroke="black" points="195,-306 195,-332 229,-332 229,-306 195,-306"/>
<text text-anchor="start" x="203.75" y="-313.7" font-family="Courier New" font-size="14.00">[]</text>
<polygon fill="none" stroke="black" points="104,-280 104,-306 195,-306 195,-280 104,-280"/>
<text text-anchor="start" x="109" y="-287.7" font-family="Courier New" font-size="14.00">optionals</text>
<polygon fill="none" stroke="black" points="195,-280 195,-306 229,-306 229,-280 195,-280"/>
<text text-anchor="start" x="203.75" y="-287.7" font-family="Courier New" font-size="14.00">[]</text>
<polygon fill="none" stroke="black" points="104,-254 104,-280 229,-280 229,-254 104,-254"/>
<text text-anchor="start" x="109" y="-261.7" font-family="Courier New" font-size="14.00">rest</text>
<polygon fill="none" stroke="black" points="104,-228 104,-254 229,-254 229,-228 104,-228"/>
<text text-anchor="start" x="109" y="-235.7" font-family="Courier New" font-size="14.00">posts</text>
<polygon fill="none" stroke="black" points="104,-202 104,-228 195,-228 195,-202 104,-202"/>
<text text-anchor="start" x="109" y="-209.7" font-family="Courier New" font-size="14.00">keywords</text>
<polygon fill="none" stroke="black" points="195,-202 195,-228 229,-228 229,-202 195,-202"/>
<text text-anchor="start" x="203.75" y="-209.7" font-family="Courier New" font-size="14.00">[]</text>
</g>
<!-- Node_80 -->
<g id="node2" class="node">
<title>Node_80</title>
<polygon fill="#f2f2f2" stroke="none" points="209,-166 0,-166 0,-88 209,-88 209,-166"/>
<polygon fill="none" stroke="black" points="0,-140 0,-166 209,-166 209,-140 0,-140"/>
<text text-anchor="start" x="34.38" y="-148.7" font-family="Courier New" font-weight="bold" font-size="14.00">RestParameterNode</text>
<polygon fill="none" stroke="black" points="0,-114 0,-140 109,-140 109,-114 0,-114"/>
<text text-anchor="start" x="5" y="-121.7" font-family="Courier New" font-size="14.00">name</text>
<polygon fill="none" stroke="black" points="109,-114 109,-140 209,-140 209,-114 109,-114"/>
<text text-anchor="start" x="146.62" y="-121.7" font-family="Courier New" font-size="14.00">nil</text>
<polygon fill="none" stroke="black" points="0,-88 0,-114 109,-114 109,-88 0,-88"/>
<text text-anchor="start" x="5" y="-95.7" font-family="Courier New" font-size="14.00">operator_loc</text>
<polygon fill="none" stroke="black" points="109,-88 109,-114 209,-114 209,-88 109,-88"/>
<text text-anchor="start" x="113.62" y="-95.7" font-family="Courier New" font-size="14.00">(1,8)&#45;(1,9)</text>
</g>
<!-- Node_60&#45;&gt;Node_80 -->
<g id="edge1" class="edge">
<title>Node_60:rest&#45;&gt;Node_80</title>
<path fill="none" stroke="black" d="M102.5,-267C65.2,-267 73.67,-216.34 86.23,-176.19"/>
<polygon fill="black" stroke="black" points="89.79,-177.58 89.58,-166.98 83.14,-175.39 89.79,-177.58"/>
</g>
<!-- Node_60_posts -->
<g id="node4" class="node">
<title>Node_60_posts</title>
<ellipse fill="#f2f2f2" stroke="black" cx="228.5" cy="-127" rx="1.8" ry="1.8"/>
</g>
<!-- Node_60&#45;&gt;Node_60_posts -->
<g id="edge2" class="edge">
<title>Node_60:posts&#45;&gt;Node_60_posts</title>
<path fill="none" stroke="black" d="M230.5,-241C271.27,-241 244.54,-166.56 233.03,-138.52"/>
<polygon fill="black" stroke="black" points="235.98,-137.53 228.83,-129.72 229.55,-140.29 235.98,-137.53"/>
</g>
<!-- Node_100 -->
<g id="node3" class="node">
<title>Node_100</title>
<polygon fill="#f2f2f2" stroke="none" points="320,-52 137,-52 137,0 320,0 320,-52"/>
<polygon fill="none" stroke="black" points="137,-26 137,-52 320,-52 320,-26 137,-26"/>
<text text-anchor="start" x="141.88" y="-34.7" font-family="Courier New" font-weight="bold" font-size="14.00">RequiredParameterNode</text>
<polygon fill="none" stroke="black" points="137,0 137,-26 228,-26 228,0 137,0"/>
<text text-anchor="start" x="142" y="-7.7" font-family="Courier New" font-size="14.00">name</text>
<polygon fill="none" stroke="black" points="228,0 228,-26 320,-26 320,0 228,0"/>
<text text-anchor="start" x="257.5" y="-7.7" font-family="Courier New" font-size="14.00">:bar</text>
</g>
<!-- Node_60_posts&#45;&gt;Node_100 -->
<g id="edge3" class="edge">
<title>Node_60_posts&#45;&gt;Node_100</title>
<path fill="none" stroke="black" d="M228.5,-124.89C228.5,-118.71 228.5,-87.94 228.5,-62.53"/>
<polygon fill="black" stroke="black" points="232,-62.69 228.5,-52.69 225,-62.69 232,-62.69"/>
</g>
</g>
</svg>
