<?xml version="1.0" encoding="UTF-8" standalone="no"?>
<!DOCTYPE svg PUBLIC "-//W3C//DTD SVG 1.1//EN"
 "http://www.w3.org/Graphics/SVG/1.1/DTD/svg11.dtd">
<!-- Generated by graphviz version 8.1.0 (20230707.0739)
 -->
<!-- Title: Prism Pages: 1 -->
<svg width="381pt" height="865pt"
 viewBox="0.00 0.00 381.00 865.20" xmlns="http://www.w3.org/2000/svg" xmlns:xlink="http://www.w3.org/1999/xlink">
<g id="graph0" class="graph" transform="scale(1 1) rotate(0) translate(4 861.2)">
<title>Prism</title>
<polygon fill="white" stroke="none" points="-4,4 -4,-861.2 377,-861.2 377,4 -4,4"/>
<!-- Node_60 -->
<g id="node1" class="node">
<title>Node_60</title>
<polygon fill="#f2f2f2" stroke="none" points="286,-857.2 86,-857.2 86,-675.2 286,-675.2 286,-857.2"/>
<polygon fill="none" stroke="black" points="86,-831.2 86,-857.2 286,-857.2 286,-831.2 86,-831.2"/>
<text text-anchor="start" x="153" y="-839.9" font-family="Courier New" font-weight="bold" font-size="14.00">CallNode</text>
<polygon fill="none" stroke="black" points="86,-805.2 86,-831.2 186,-831.2 186,-805.2 86,-805.2"/>
<text text-anchor="start" x="91" y="-812.9" font-family="Courier New" font-size="14.00">flags</text>
<polygon fill="none" stroke="black" points="186,-805.2 186,-831.2 286,-831.2 286,-805.2 186,-805.2"/>
<polygon fill="none" stroke="black" points="86,-779.2 86,-805.2 186,-805.2 186,-779.2 86,-779.2"/>
<text text-anchor="start" x="91" y="-786.9" font-family="Courier New" font-size="14.00">name</text>
<polygon fill="none" stroke="black" points="186,-779.2 186,-805.2 286,-805.2 286,-779.2 186,-779.2"/>
<text text-anchor="start" x="219.5" y="-786.9" font-family="Courier New" font-size="14.00">:foo</text>
<polygon fill="none" stroke="black" points="86,-753.2 86,-779.2 186,-779.2 186,-753.2 86,-753.2"/>
<text text-anchor="start" x="90.62" y="-760.9" font-family="Courier New" font-size="14.00">message_loc</text>
<polygon fill="none" stroke="black" points="186,-753.2 186,-779.2 286,-779.2 286,-753.2 186,-753.2"/>
<text text-anchor="start" x="190.62" y="-760.9" font-family="Courier New" font-size="14.00">(1,0)&#45;(1,3)</text>
<polygon fill="none" stroke="black" points="86,-727.2 86,-753.2 186,-753.2 186,-727.2 86,-727.2"/>
<text text-anchor="start" x="90.62" y="-734.9" font-family="Courier New" font-size="14.00">opening_loc</text>
<polygon fill="none" stroke="black" points="186,-727.2 186,-753.2 286,-753.2 286,-727.2 186,-727.2"/>
<text text-anchor="start" x="190.62" y="-734.9" font-family="Courier New" font-size="14.00">(1,3)&#45;(1,4)</text>
<polygon fill="none" stroke="black" points="86,-701.2 86,-727.2 286,-727.2 286,-701.2 86,-701.2"/>
<text text-anchor="start" x="91" y="-708.9" font-family="Courier New" font-size="14.00">arguments</text>
<polygon fill="none" stroke="black" points="86,-675.2 86,-701.2 186,-701.2 186,-675.2 86,-675.2"/>
<text text-anchor="start" x="90.62" y="-682.9" font-family="Courier New" font-size="14.00">closing_loc</text>
<polygon fill="none" stroke="black" points="186,-675.2 186,-701.2 286,-701.2 286,-675.2 186,-675.2"/>
<text text-anchor="start" x="190.62" y="-682.9" font-family="Courier New" font-size="14.00">(1,8)&#45;(1,9)</text>
</g>
<!-- Node_80 -->
<g id="node2" class="node">
<title>Node_80</title>
<polygon fill="#f2f2f2" stroke="none" points="244.5,-639.2 127.5,-639.2 127.5,-561.2 244.5,-561.2 244.5,-639.2"/>
<polygon fill="none" stroke="black" points="127.5,-613.2 127.5,-639.2 244.5,-639.2 244.5,-613.2 127.5,-613.2"/>
<text text-anchor="start" x="132.38" y="-621.9" font-family="Courier New" font-weight="bold" font-size="14.00">ArgumentsNode</text>
<polygon fill="none" stroke="black" points="127.5,-587.2 127.5,-613.2 206.5,-613.2 206.5,-587.2 127.5,-587.2"/>
<text text-anchor="start" x="132.5" y="-594.9" font-family="Courier New" font-size="14.00">flags</text>
<polygon fill="none" stroke="black" points="206.5,-587.2 206.5,-613.2 244.5,-613.2 244.5,-587.2 206.5,-587.2"/>
<polygon fill="none" stroke="black" points="127.5,-561.2 127.5,-587.2 244.5,-587.2 244.5,-561.2 127.5,-561.2"/>
<text text-anchor="start" x="132.5" y="-568.9" font-family="Courier New" font-size="14.00">arguments</text>
</g>
<!-- Node_60&#45;&gt;Node_80 -->
<g id="edge1" class="edge">
<title>Node_60:arguments&#45;&gt;Node_80</title>
<path fill="none" stroke="black" d="M287,-714.2C304.34,-714.2 294,-690.58 286,-675.2 278.36,-660.5 266.31,-647.97 253.2,-637.63"/>
<polygon fill="black" stroke="black" points="255.58,-634.29 245.46,-631.14 251.41,-639.91 255.58,-634.29"/>
</g>
<!-- Node_80_arguments -->
<g id="node8" class="node">
<title>Node_80_arguments</title>
<ellipse fill="#f2f2f2" stroke="black" cx="186" cy="-523.4" rx="1.8" ry="1.8"/>
</g>
<!-- Node_80&#45;&gt;Node_80_arguments -->
<g id="edge2" class="edge">
<title>Node_80:arguments&#45;&gt;Node_80_arguments</title>
<path fill="none" stroke="black" d="M186,-561.2C186,-552.96 186,-543.69 186,-536.51"/>
<polygon fill="black" stroke="black" points="189.5,-536.54 186,-526.54 182.5,-536.54 189.5,-536.54"/>
</g>
<!-- Node_100 -->
<g id="node3" class="node">
<title>Node_100</title>
<polygon fill="#f2f2f2" stroke="none" points="252.5,-485.6 119.5,-485.6 119.5,-433.6 252.5,-433.6 252.5,-485.6"/>
<polygon fill="none" stroke="black" points="119.5,-459.6 119.5,-485.6 252.5,-485.6 252.5,-459.6 119.5,-459.6"/>
<text text-anchor="start" x="124.12" y="-468.3" font-family="Courier New" font-weight="bold" font-size="14.00">KeywordHashNode</text>
<polygon fill="none" stroke="black" points="119.5,-433.6 119.5,-459.6 252.5,-459.6 252.5,-433.6 119.5,-433.6"/>
<text text-anchor="start" x="124.5" y="-441.3" font-family="Courier New" font-size="14.00">elements</text>
</g>
<!-- Node_100_elements -->
<g id="node9" class="node">
<title>Node_100_elements</title>
<ellipse fill="#f2f2f2" stroke="black" cx="186" cy="-395.8" rx="1.8" ry="1.8"/>
</g>
<!-- Node_100&#45;&gt;Node_100_elements -->
<g id="edge4" class="edge">
<title>Node_100:elements&#45;&gt;Node_100_elements</title>
<path fill="none" stroke="black" d="M186,-433.6C186,-425.36 186,-416.09 186,-408.91"/>
<polygon fill="black" stroke="black" points="189.5,-408.94 186,-398.94 182.5,-408.94 189.5,-408.94"/>
</g>
<!-- Node_120 -->
<g id="node4" class="node">
<title>Node_120</title>
<polygon fill="#f2f2f2" stroke="none" points="228,-358 144,-358 144,-280 228,-280 228,-358"/>
<polygon fill="none" stroke="black" points="144,-332 144,-358 228,-358 228,-332 144,-332"/>
<text text-anchor="start" x="148.88" y="-340.7" font-family="Courier New" font-weight="bold" font-size="14.00">AssocNode</text>
<polygon fill="none" stroke="black" points="144,-306 144,-332 228,-332 228,-306 144,-306"/>
<text text-anchor="start" x="149" y="-313.7" font-family="Courier New" font-size="14.00">key</text>
<polygon fill="none" stroke="black" points="144,-280 144,-306 228,-306 228,-280 144,-280"/>
<text text-anchor="start" x="149" y="-287.7" font-family="Courier New" font-size="14.00">value</text>
</g>
<!-- Node_140 -->
<g id="node5" class="node">
<title>Node_140</title>
<polygon fill="#f2f2f2" stroke="none" points="200,-244 0,-244 0,-140 200,-140 200,-244"/>
<polygon fill="none" stroke="black" points="0,-218 0,-244 200,-244 200,-218 0,-218"/>
<text text-anchor="start" x="58.75" y="-226.7" font-family="Courier New" font-weight="bold" font-size="14.00">SymbolNode</text>
<polygon fill="none" stroke="black" points="0,-192 0,-218 100,-218 100,-192 0,-192"/>
<text text-anchor="start" x="5" y="-199.7" font-family="Courier New" font-size="14.00">value_loc</text>
<polygon fill="none" stroke="black" points="100,-192 100,-218 200,-218 200,-192 100,-192"/>
<text text-anchor="start" x="104.62" y="-199.7" font-family="Courier New" font-size="14.00">(1,4)&#45;(1,7)</text>
<polygon fill="none" stroke="black" points="0,-166 0,-192 100,-192 100,-166 0,-166"/>
<text text-anchor="start" x="4.62" y="-173.7" font-family="Courier New" font-size="14.00">closing_loc</text>
<polygon fill="none" stroke="black" points="100,-166 100,-192 200,-192 200,-166 100,-166"/>
<text text-anchor="start" x="104.62" y="-173.7" font-family="Courier New" font-size="14.00">(1,7)&#45;(1,8)</text>
<polygon fill="none" stroke="black" points="0,-140 0,-166 100,-166 100,-140 0,-140"/>
<text text-anchor="start" x="5" y="-147.7" font-family="Courier New" font-size="14.00">unescaped</text>
<polygon fill="none" stroke="black" points="100,-140 100,-166 200,-166 200,-140 100,-140"/>
<text text-anchor="start" x="129.38" y="-147.7" font-family="Courier New" font-size="14.00">&quot;bar&quot;</text>
</g>
<!-- Node_120&#45;&gt;Node_140 -->
<g id="edge6" class="edge">
<title>Node_120:key&#45;&gt;Node_140</title>
<path fill="none" stroke="black" d="M143,-319C112.99,-319 102.36,-286.6 99.17,-254.65"/>
<polygon fill="black" stroke="black" points="102.6,-254.59 98.36,-244.89 95.62,-255.12 102.6,-254.59"/>
</g>
<!-- Node_160 -->
<g id="node6" class="node">
<title>Node_160</title>
<polygon fill="#f2f2f2" stroke="none" points="327.5,-218 218.5,-218 218.5,-166 327.5,-166 327.5,-218"/>
<polygon fill="none" stroke="black" points="218.5,-192 218.5,-218 327.5,-218 327.5,-192 218.5,-192"/>
<text text-anchor="start" x="223.5" y="-200.7" font-family="Courier New" font-weight="bold" font-size="14.00">ImplicitNode</text>
<polygon fill="none" stroke="black" points="218.5,-166 218.5,-192 327.5,-192 327.5,-166 218.5,-166"/>
<text text-anchor="start" x="223.5" y="-173.7" font-family="Courier New" font-size="14.00">value</text>
</g>
<!-- Node_120&#45;&gt;Node_160 -->
<g id="edge7" class="edge">
<title>Node_120:value&#45;&gt;Node_160</title>
<path fill="none" stroke="black" d="M229,-293C258.01,-293 268.06,-257.3 271.45,-228.56"/>
<polygon fill="black" stroke="black" points="275,-229.26 272.45,-218.98 268.03,-228.6 275,-229.26"/>
</g>
<!-- Node_180 -->
<g id="node7" class="node">
<title>Node_180</title>
<polygon fill="#f2f2f2" stroke="none" points="373,-104 173,-104 173,0 373,0 373,-104"/>
<polygon fill="none" stroke="black" points="173,-78 173,-104 373,-104 373,-78 173,-78"/>
<text text-anchor="start" x="240" y="-86.7" font-family="Courier New" font-weight="bold" font-size="14.00">CallNode</text>
<polygon fill="none" stroke="black" points="173,-52 173,-78 273,-78 273,-52 173,-52"/>
<text text-anchor="start" x="178" y="-59.7" font-family="Courier New" font-size="14.00">flags</text>
<polygon fill="none" stroke="black" points="273,-52 273,-78 373,-78 373,-52 273,-52"/>
<polygon fill="none" stroke="black" points="173,-26 173,-52 273,-52 273,-26 173,-26"/>
<text text-anchor="start" x="178" y="-33.7" font-family="Courier New" font-size="14.00">name</text>
<polygon fill="none" stroke="black" points="273,-26 273,-52 373,-52 373,-26 273,-26"/>
<text text-anchor="start" x="306.5" y="-33.7" font-family="Courier New" font-size="14.00">:bar</text>
<polygon fill="none" stroke="black" points="173,0 173,-26 273,-26 273,0 173,0"/>
<text text-anchor="start" x="177.62" y="-7.7" font-family="Courier New" font-size="14.00">message_loc</text>
<polygon fill="none" stroke="black" points="273,0 273,-26 373,-26 373,0 273,0"/>
<text text-anchor="start" x="277.62" y="-7.7" font-family="Courier New" font-size="14.00">(1,4)&#45;(1,7)</text>
</g>
<!-- Node_160&#45;&gt;Node_180 -->
<g id="edge8" class="edge">
<title>Node_160:value&#45;&gt;Node_180</title>
<path fill="none" stroke="black" d="M273,-165C273,-148.57 273,-130.79 273,-114.33"/>
<polygon fill="black" stroke="black" points="276.5,-114.74 273,-104.74 269.5,-114.74 276.5,-114.74"/>
</g>
<!-- Node_80_arguments&#45;&gt;Node_100 -->
<g id="edge3" class="edge">
<title>Node_80_arguments&#45;&gt;Node_100</title>
<path fill="none" stroke="black" d="M186,-521.33C186,-518.05 186,-507.69 186,-496.44"/>
<polygon fill="black" stroke="black" points="189.5,-496.57 186,-486.57 182.5,-496.58 189.5,-496.57"/>
</g>
<!-- Node_100_elements&#45;&gt;Node_120 -->
<g id="edge5" class="edge">
<title>Node_100_elements&#45;&gt;Node_120</title>
<path fill="none" stroke="black" d="M186,-393.5C186,-390.06 186,-380.15 186,-368.69"/>
<polygon fill="black" stroke="black" points="189.5,-368.87 186,-358.87 182.5,-368.87 189.5,-368.87"/>
</g>
</g>
</svg>
