<?xml version="1.0" encoding="UTF-8" standalone="no"?>
<!DOCTYPE svg PUBLIC "-//W3C//DTD SVG 1.1//EN"
 "http://www.w3.org/Graphics/SVG/1.1/DTD/svg11.dtd">
<!-- Generated by graphviz version 8.1.0 (20230707.0739)
 -->
<!-- Title: Prism Pages: 1 -->
<svg width="223pt" height="432pt"
 viewBox="0.00 0.00 223.21 431.60" xmlns="http://www.w3.org/2000/svg" xmlns:xlink="http://www.w3.org/1999/xlink">
<g id="graph0" class="graph" transform="scale(1 1) rotate(0) translate(4 427.6)">
<title>Prism</title>
<polygon fill="white" stroke="none" points="-4,4 -4,-427.6 219.21,-427.6 219.21,4 -4,4"/>
<!-- Node_60 -->
<g id="node1" class="node">
<title>Node_60</title>
<polygon fill="#f2f2f2" stroke="none" points="204.5,-423.6 4.5,-423.6 4.5,-241.6 204.5,-241.6 204.5,-423.6"/>
<polygon fill="none" stroke="black" points="4.5,-397.6 4.5,-423.6 204.5,-423.6 204.5,-397.6 4.5,-397.6"/>
<text text-anchor="start" x="71.5" y="-406.3" font-family="Courier New" font-weight="bold" font-size="14.00">CallNode</text>
<polygon fill="none" stroke="black" points="4.5,-371.6 4.5,-397.6 104.5,-397.6 104.5,-371.6 4.5,-371.6"/>
<text text-anchor="start" x="9.5" y="-379.3" font-family="Courier New" font-size="14.00">flags</text>
<polygon fill="none" stroke="black" points="104.5,-371.6 104.5,-397.6 204.5,-397.6 204.5,-371.6 104.5,-371.6"/>
<polygon fill="none" stroke="black" points="4.5,-345.6 4.5,-371.6 104.5,-371.6 104.5,-345.6 4.5,-345.6"/>
<text text-anchor="start" x="9.5" y="-353.3" font-family="Courier New" font-size="14.00">name</text>
<polygon fill="none" stroke="black" points="104.5,-345.6 104.5,-371.6 204.5,-371.6 204.5,-345.6 104.5,-345.6"/>
<text text-anchor="start" x="138" y="-353.3" font-family="Courier New" font-size="14.00">:bar</text>
<polygon fill="none" stroke="black" points="4.5,-319.6 4.5,-345.6 104.5,-345.6 104.5,-319.6 4.5,-319.6"/>
<text text-anchor="start" x="9.12" y="-327.3" font-family="Courier New" font-size="14.00">message_loc</text>
<polygon fill="none" stroke="black" points="104.5,-319.6 104.5,-345.6 204.5,-345.6 204.5,-319.6 104.5,-319.6"/>
<text text-anchor="start" x="109.12" y="-327.3" font-family="Courier New" font-size="14.00">(2,2)&#45;(2,5)</text>
<polygon fill="none" stroke="black" points="4.5,-293.6 4.5,-319.6 104.5,-319.6 104.5,-293.6 4.5,-293.6"/>
<text text-anchor="start" x="9.12" y="-301.3" font-family="Courier New" font-size="14.00">opening_loc</text>
<polygon fill="none" stroke="black" points="104.5,-293.6 104.5,-319.6 204.5,-319.6 204.5,-293.6 104.5,-293.6"/>
<text text-anchor="start" x="109.12" y="-301.3" font-family="Courier New" font-size="14.00">(2,5)&#45;(2,6)</text>
<polygon fill="none" stroke="black" points="4.5,-267.6 4.5,-293.6 204.5,-293.6 204.5,-267.6 4.5,-267.6"/>
<text text-anchor="start" x="9.5" y="-275.3" font-family="Courier New" font-size="14.00">arguments</text>
<polygon fill="none" stroke="black" points="4.5,-241.6 4.5,-267.6 104.5,-267.6 104.5,-241.6 4.5,-241.6"/>
<text text-anchor="start" x="9.12" y="-249.3" font-family="Courier New" font-size="14.00">closing_loc</text>
<polygon fill="none" stroke="black" points="104.5,-241.6 104.5,-267.6 204.5,-267.6 204.5,-241.6 104.5,-241.6"/>
<text text-anchor="start" x="109.12" y="-249.3" font-family="Courier New" font-size="14.00">(2,7)&#45;(2,8)</text>
</g>
<!-- Node_80 -->
<g id="node2" class="node">
<title>Node_80</title>
<polygon fill="#f2f2f2" stroke="none" points="163,-205.6 46,-205.6 46,-127.6 163,-127.6 163,-205.6"/>
<polygon fill="none" stroke="black" points="46,-179.6 46,-205.6 163,-205.6 163,-179.6 46,-179.6"/>
<text text-anchor="start" x="50.88" y="-188.3" font-family="Courier New" font-weight="bold" font-size="14.00">ArgumentsNode</text>
<polygon fill="none" stroke="black" points="46,-153.6 46,-179.6 125,-179.6 125,-153.6 46,-153.6"/>
<text text-anchor="start" x="51" y="-161.3" font-family="Courier New" font-size="14.00">flags</text>
<polygon fill="none" stroke="black" points="125,-153.6 125,-179.6 163,-179.6 163,-153.6 125,-153.6"/>
<polygon fill="none" stroke="black" points="46,-127.6 46,-153.6 163,-153.6 163,-127.6 46,-127.6"/>
<text text-anchor="start" x="51" y="-135.3" font-family="Courier New" font-size="14.00">arguments</text>
</g>
<!-- Node_60&#45;&gt;Node_80 -->
<g id="edge1" class="edge">
<title>Node_60:arguments&#45;&gt;Node_80</title>
<path fill="none" stroke="black" d="M205.5,-280.6C222.84,-280.6 212.5,-256.98 204.5,-241.6 196.86,-226.9 184.81,-214.37 171.7,-204.03"/>
<polygon fill="black" stroke="black" points="174.08,-200.69 163.96,-197.54 169.91,-206.31 174.08,-200.69"/>
</g>
<!-- Node_80_arguments -->
<g id="node4" class="node">
<title>Node_80_arguments</title>
<ellipse fill="#f2f2f2" stroke="black" cx="104.5" cy="-89.8" rx="1.8" ry="1.8"/>
</g>
<!-- Node_80&#45;&gt;Node_80_arguments -->
<g id="edge2" class="edge">
<title>Node_80:arguments&#45;&gt;Node_80_arguments</title>
<path fill="none" stroke="black" d="M104.5,-127.6C104.5,-119.36 104.5,-110.09 104.5,-102.91"/>
<polygon fill="black" stroke="black" points="108,-102.94 104.5,-92.94 101,-102.94 108,-102.94"/>
</g>
<!-- Node_100 -->
<g id="node3" class="node">
<title>Node_100</title>
<polygon fill="#f2f2f2" stroke="none" points="209,-52 0,-52 0,0 209,0 209,-52"/>
<polygon fill="none" stroke="black" points="0,-26 0,-52 209,-52 209,-26 0,-26"/>
<text text-anchor="start" x="67.38" y="-34.7" font-family="Courier New" font-weight="bold" font-size="14.00">SplatNode</text>
<polygon fill="none" stroke="black" points="0,0 0,-26 109,-26 109,0 0,0"/>
<text text-anchor="start" x="5" y="-7.7" font-family="Courier New" font-size="14.00">operator_loc</text>
<polygon fill="none" stroke="black" points="109,0 109,-26 209,-26 209,0 109,0"/>
<text text-anchor="start" x="113.62" y="-7.7" font-family="Courier New" font-size="14.00">(2,6)&#45;(2,7)</text>
</g>
<!-- Node_80_arguments&#45;&gt;Node_100 -->
<g id="edge3" class="edge">
<title>Node_80_arguments&#45;&gt;Node_100</title>
<path fill="none" stroke="black" d="M104.5,-87.73C104.5,-84.45 104.5,-74.09 104.5,-62.84"/>
<polygon fill="black" stroke="black" points="108,-62.97 104.5,-52.97 101,-62.98 108,-62.97"/>
</g>
</g>
</svg>
