<?xml version="1.0" encoding="UTF-8" standalone="no"?>
<!DOCTYPE svg PUBLIC "-//W3C//DTD SVG 1.1//EN"
 "http://www.w3.org/Graphics/SVG/1.1/DTD/svg11.dtd">
<!-- Generated by graphviz version 8.1.0 (20230707.0739)
 -->
<!-- Title: Prism Pages: 1 -->
<svg width="235pt" height="226pt"
 viewBox="0.00 0.00 235.00 226.00" xmlns="http://www.w3.org/2000/svg" xmlns:xlink="http://www.w3.org/1999/xlink">
<g id="graph0" class="graph" transform="scale(1 1) rotate(0) translate(4 222)">
<title>Prism</title>
<polygon fill="white" stroke="none" points="-4,4 -4,-222 231,-222 231,4 -4,4"/>
<!-- Node_60 -->
<g id="node1" class="node">
<title>Node_60</title>
<polygon fill="#f2f2f2" stroke="none" points="216,-218 0,-218 0,-88 216,-88 216,-218"/>
<polygon fill="none" stroke="black" points="0,-192 0,-218 216,-218 216,-192 0,-192"/>
<text text-anchor="start" x="4.88" y="-200.7" font-family="Courier New" font-weight="bold" font-size="14.00">InstanceVariableWriteNode</text>
<polygon fill="none" stroke="black" points="0,-166 0,-192 112,-192 112,-166 0,-166"/>
<text text-anchor="start" x="5" y="-173.7" font-family="Courier New" font-size="14.00">name</text>
<polygon fill="none" stroke="black" points="112,-166 112,-192 216,-192 216,-166 112,-166"/>
<text text-anchor="start" x="143.38" y="-173.7" font-family="Courier New" font-size="14.00">:@foo</text>
<polygon fill="none" stroke="black" points="0,-140 0,-166 112,-166 112,-140 0,-140"/>
<text text-anchor="start" x="5" y="-147.7" font-family="Courier New" font-size="14.00">name_loc</text>
<polygon fill="none" stroke="black" points="112,-140 112,-166 216,-166 216,-140 112,-140"/>
<text text-anchor="start" x="118.62" y="-147.7" font-family="Courier New" font-size="14.00">(1,0)&#45;(1,4)</text>
<polygon fill="none" stroke="black" points="0,-114 0,-140 216,-140 216,-114 0,-114"/>
<text text-anchor="start" x="5" y="-121.7" font-family="Courier New" font-size="14.00">value</text>
<polygon fill="none" stroke="black" points="0,-88 0,-114 112,-114 112,-88 0,-88"/>
<text text-anchor="start" x="5" y="-95.7" font-family="Courier New" font-size="14.00">operator_loc</text>
<polygon fill="none" stroke="black" points="112,-88 112,-114 216,-114 216,-88 112,-88"/>
<text text-anchor="start" x="118.62" y="-95.7" font-family="Courier New" font-size="14.00">(1,5)&#45;(1,6)</text>
</g>
<!-- Node_80 -->
<g id="node2" class="node">
<title>Node_80</title>
<polygon fill="#f2f2f2" stroke="none" points="167,-52 49,-52 49,0 167,0 167,-52"/>
<polygon fill="none" stroke="black" points="49,-26 49,-52 167,-52 167,-26 49,-26"/>
<text text-anchor="start" x="62.62" y="-34.7" font-family="Courier New" font-weight="bold" font-size="14.00">IntegerNode</text>
<polygon fill="none" stroke="black" points="49,0 49,-26 100,-26 100,0 49,0"/>
<text text-anchor="start" x="53.88" y="-7.7" font-family="Courier New" font-size="14.00">flags</text>
<polygon fill="none" stroke="black" points="100,0 100,-26 167,-26 167,0 100,0"/>
<text text-anchor="start" x="104.62" y="-7.7" font-family="Courier New" font-size="14.00">decimal</text>
</g>
<!-- Node_60&#45;&gt;Node_80 -->
<g id="edge1" class="edge">
<title>Node_60:value&#45;&gt;Node_80</title>
<path fill="none" stroke="black" d="M217,-127C234.34,-127 224.93,-102.86 216,-88 206.68,-72.49 191.85,-60.6 176.12,-51.61"/>
<polygon fill="black" stroke="black" points="178.27,-48.25 167.8,-46.65 174.98,-54.43 178.27,-48.25"/>
</g>
</g>
</svg>
