<?xml version="1.0" encoding="UTF-8" standalone="no"?>
<!DOCTYPE svg PUBLIC "-//W3C//DTD SVG 1.1//EN"
 "http://www.w3.org/Graphics/SVG/1.1/DTD/svg11.dtd">
<!-- Generated by graphviz version 8.1.0 (20230707.0739)
 -->
<!-- Title: Prism Pages: 1 -->
<svg width="289pt" height="699pt"
 viewBox="0.00 0.00 289.42 699.20" xmlns="http://www.w3.org/2000/svg" xmlns:xlink="http://www.w3.org/1999/xlink">
<g id="graph0" class="graph" transform="scale(1 1) rotate(0) translate(4 695.2)">
<title>Prism</title>
<polygon fill="white" stroke="none" points="-4,4 -4,-695.2 285.42,-695.2 285.42,4 -4,4"/>
<!-- Node_60 -->
<g id="node1" class="node">
<title>Node_60</title>
<polygon fill="#f2f2f2" stroke="none" points="250,-691.2 0,-691.2 0,-483.2 250,-483.2 250,-691.2"/>
<polygon fill="none" stroke="black" points="0,-665.2 0,-691.2 250,-691.2 250,-665.2 0,-665.2"/>
<text text-anchor="start" x="96.12" y="-673.9" font-family="Courier New" font-weight="bold" font-size="14.00">DefNode</text>
<polygon fill="none" stroke="black" points="0,-639.2 0,-665.2 150,-665.2 150,-639.2 0,-639.2"/>
<text text-anchor="start" x="5" y="-646.9" font-family="Courier New" font-size="14.00">name</text>
<polygon fill="none" stroke="black" points="150,-639.2 150,-665.2 250,-665.2 250,-639.2 150,-639.2"/>
<text text-anchor="start" x="183.5" y="-646.9" font-family="Courier New" font-size="14.00">:foo</text>
<polygon fill="none" stroke="black" points="0,-613.2 0,-639.2 150,-639.2 150,-613.2 0,-613.2"/>
<text text-anchor="start" x="5" y="-620.9" font-family="Courier New" font-size="14.00">name_loc</text>
<polygon fill="none" stroke="black" points="150,-613.2 150,-639.2 250,-639.2 250,-613.2 150,-613.2"/>
<text text-anchor="start" x="154.62" y="-620.9" font-family="Courier New" font-size="14.00">(1,4)&#45;(1,7)</text>
<polygon fill="none" stroke="black" points="0,-587.2 0,-613.2 250,-613.2 250,-587.2 0,-587.2"/>
<text text-anchor="start" x="5" y="-594.9" font-family="Courier New" font-size="14.00">body</text>
<polygon fill="none" stroke="black" points="0,-561.2 0,-587.2 150,-587.2 150,-561.2 0,-561.2"/>
<text text-anchor="start" x="5" y="-568.9" font-family="Courier New" font-size="14.00">locals</text>
<polygon fill="none" stroke="black" points="150,-561.2 150,-587.2 250,-587.2 250,-561.2 150,-561.2"/>
<text text-anchor="start" x="191.75" y="-568.9" font-family="Courier New" font-size="14.00">[]</text>
<polygon fill="none" stroke="black" points="0,-535.2 0,-561.2 150,-561.2 150,-535.2 0,-535.2"/>
<text text-anchor="start" x="4.88" y="-542.9" font-family="Courier New" font-size="14.00">locals_body_index</text>
<polygon fill="none" stroke="black" points="150,-535.2 150,-561.2 250,-561.2 250,-535.2 150,-535.2"/>
<text text-anchor="start" x="195.88" y="-542.9" font-family="Courier New" font-size="14.00">0</text>
<polygon fill="none" stroke="black" points="0,-509.2 0,-535.2 150,-535.2 150,-509.2 0,-509.2"/>
<text text-anchor="start" x="5" y="-516.9" font-family="Courier New" font-size="14.00">def_keyword_loc</text>
<polygon fill="none" stroke="black" points="150,-509.2 150,-535.2 250,-535.2 250,-509.2 150,-509.2"/>
<text text-anchor="start" x="154.62" y="-516.9" font-family="Courier New" font-size="14.00">(1,0)&#45;(1,3)</text>
<polygon fill="none" stroke="black" points="0,-483.2 0,-509.2 150,-509.2 150,-483.2 0,-483.2"/>
<text text-anchor="start" x="5" y="-490.9" font-family="Courier New" font-size="14.00">end_keyword_loc</text>
<polygon fill="none" stroke="black" points="150,-483.2 150,-509.2 250,-509.2 250,-483.2 150,-483.2"/>
<text text-anchor="start" x="154.62" y="-490.9" font-family="Courier New" font-size="14.00">(3,0)&#45;(3,3)</text>
</g>
<!-- Node_80 -->
<g id="node2" class="node">
<title>Node_80</title>
<polygon fill="#f2f2f2" stroke="none" points="187.5,-447.2 62.5,-447.2 62.5,-395.2 187.5,-395.2 187.5,-447.2"/>
<polygon fill="none" stroke="black" points="62.5,-421.2 62.5,-447.2 187.5,-447.2 187.5,-421.2 62.5,-421.2"/>
<text text-anchor="start" x="67.25" y="-429.9" font-family="Courier New" font-weight="bold" font-size="14.00">StatementsNode</text>
<polygon fill="none" stroke="black" points="62.5,-395.2 62.5,-421.2 187.5,-421.2 187.5,-395.2 62.5,-395.2"/>
<text text-anchor="start" x="67.5" y="-402.9" font-family="Courier New" font-size="14.00">body</text>
</g>
<!-- Node_60&#45;&gt;Node_80 -->
<g id="edge1" class="edge">
<title>Node_60:body&#45;&gt;Node_80</title>
<path fill="none" stroke="black" d="M251,-600.2C303,-600.2 277.74,-527.18 250,-483.2 237.93,-464.07 217.96,-450.77 197.49,-441.6"/>
<polygon fill="black" stroke="black" points="199,-438.02 188.42,-437.42 196.32,-444.49 199,-438.02"/>
</g>
<!-- Node_80_body -->
<g id="node6" class="node">
<title>Node_80_body</title>
<ellipse fill="#f2f2f2" stroke="black" cx="125" cy="-357.4" rx="1.8" ry="1.8"/>
</g>
<!-- Node_80&#45;&gt;Node_80_body -->
<g id="edge2" class="edge">
<title>Node_80:body&#45;&gt;Node_80_body</title>
<path fill="none" stroke="black" d="M125,-395.2C125,-386.96 125,-377.69 125,-370.51"/>
<polygon fill="black" stroke="black" points="128.5,-370.54 125,-360.54 121.5,-370.54 128.5,-370.54"/>
</g>
<!-- Node_100 -->
<g id="node3" class="node">
<title>Node_100</title>
<polygon fill="#f2f2f2" stroke="none" points="225,-319.6 25,-319.6 25,-241.6 225,-241.6 225,-319.6"/>
<polygon fill="none" stroke="black" points="25,-293.6 25,-319.6 225,-319.6 225,-293.6 25,-293.6"/>
<text text-anchor="start" x="87.88" y="-302.3" font-family="Courier New" font-weight="bold" font-size="14.00">YieldNode</text>
<polygon fill="none" stroke="black" points="25,-267.6 25,-293.6 125,-293.6 125,-267.6 25,-267.6"/>
<text text-anchor="start" x="29.62" y="-275.3" font-family="Courier New" font-size="14.00">keyword_loc</text>
<polygon fill="none" stroke="black" points="125,-267.6 125,-293.6 225,-293.6 225,-267.6 125,-267.6"/>
<text text-anchor="start" x="129.62" y="-275.3" font-family="Courier New" font-size="14.00">(2,2)&#45;(2,7)</text>
<polygon fill="none" stroke="black" points="25,-241.6 25,-267.6 225,-267.6 225,-241.6 25,-241.6"/>
<text text-anchor="start" x="30" y="-249.3" font-family="Courier New" font-size="14.00">arguments</text>
</g>
<!-- Node_120 -->
<g id="node4" class="node">
<title>Node_120</title>
<polygon fill="#f2f2f2" stroke="none" points="183.5,-205.6 66.5,-205.6 66.5,-127.6 183.5,-127.6 183.5,-205.6"/>
<polygon fill="none" stroke="black" points="66.5,-179.6 66.5,-205.6 183.5,-205.6 183.5,-179.6 66.5,-179.6"/>
<text text-anchor="start" x="71.38" y="-188.3" font-family="Courier New" font-weight="bold" font-size="14.00">ArgumentsNode</text>
<polygon fill="none" stroke="black" points="66.5,-153.6 66.5,-179.6 145.5,-179.6 145.5,-153.6 66.5,-153.6"/>
<text text-anchor="start" x="71.5" y="-161.3" font-family="Courier New" font-size="14.00">flags</text>
<polygon fill="none" stroke="black" points="145.5,-153.6 145.5,-179.6 183.5,-179.6 183.5,-153.6 145.5,-153.6"/>
<polygon fill="none" stroke="black" points="66.5,-127.6 66.5,-153.6 183.5,-153.6 183.5,-127.6 66.5,-127.6"/>
<text text-anchor="start" x="71.5" y="-135.3" font-family="Courier New" font-size="14.00">arguments</text>
</g>
<!-- Node_100&#45;&gt;Node_120 -->
<g id="edge4" class="edge">
<title>Node_100:arguments&#45;&gt;Node_120</title>
<path fill="none" stroke="black" d="M125,-241.6C125,-233.38 125,-224.65 125,-216.17"/>
<polygon fill="black" stroke="black" points="128.5,-216.25 125,-206.25 121.5,-216.25 128.5,-216.25"/>
</g>
<!-- Node_120_arguments -->
<g id="node7" class="node">
<title>Node_120_arguments</title>
<ellipse fill="#f2f2f2" stroke="black" cx="125" cy="-89.8" rx="1.8" ry="1.8"/>
</g>
<!-- Node_120&#45;&gt;Node_120_arguments -->
<g id="edge5" class="edge">
<title>Node_120:arguments&#45;&gt;Node_120_arguments</title>
<path fill="none" stroke="black" d="M125,-127.6C125,-119.36 125,-110.09 125,-102.91"/>
<polygon fill="black" stroke="black" points="128.5,-102.94 125,-92.94 121.5,-102.94 128.5,-102.94"/>
</g>
<!-- Node_140 -->
<g id="node5" class="node">
<title>Node_140</title>
<polygon fill="#f2f2f2" stroke="none" points="184,-52 66,-52 66,0 184,0 184,-52"/>
<polygon fill="none" stroke="black" points="66,-26 66,-52 184,-52 184,-26 66,-26"/>
<text text-anchor="start" x="79.62" y="-34.7" font-family="Courier New" font-weight="bold" font-size="14.00">IntegerNode</text>
<polygon fill="none" stroke="black" points="66,0 66,-26 117,-26 117,0 66,0"/>
<text text-anchor="start" x="70.88" y="-7.7" font-family="Courier New" font-size="14.00">flags</text>
<polygon fill="none" stroke="black" points="117,0 117,-26 184,-26 184,0 117,0"/>
<text text-anchor="start" x="121.62" y="-7.7" font-family="Courier New" font-size="14.00">decimal</text>
</g>
<!-- Node_80_body&#45;&gt;Node_100 -->
<g id="edge3" class="edge">
<title>Node_80_body&#45;&gt;Node_100</title>
<path fill="none" stroke="black" d="M125,-355.1C125,-351.66 125,-341.75 125,-330.29"/>
<polygon fill="black" stroke="black" points="128.5,-330.47 125,-320.47 121.5,-330.47 128.5,-330.47"/>
</g>
<!-- Node_120_arguments&#45;&gt;Node_140 -->
<g id="edge6" class="edge">
<title>Node_120_arguments&#45;&gt;Node_140</title>
<path fill="none" stroke="black" d="M125,-87.73C125,-84.45 125,-74.09 125,-62.84"/>
<polygon fill="black" stroke="black" points="128.5,-62.97 125,-52.97 121.5,-62.98 128.5,-62.97"/>
</g>
</g>
</svg>
