<?xml version="1.0" encoding="UTF-8" standalone="no"?>
<!DOCTYPE svg PUBLIC "-//W3C//DTD SVG 1.1//EN"
 "http://www.w3.org/Graphics/SVG/1.1/DTD/svg11.dtd">
<!-- Generated by graphviz version 8.1.0 (20230707.0739)
 -->
<!-- Title: Prism Pages: 1 -->
<svg width="362pt" height="408pt"
 viewBox="0.00 0.00 361.50 408.00" xmlns="http://www.w3.org/2000/svg" xmlns:xlink="http://www.w3.org/1999/xlink">
<g id="graph0" class="graph" transform="scale(1 1) rotate(0) translate(4 404)">
<title>Prism</title>
<polygon fill="white" stroke="none" points="-4,4 -4,-404 357.5,-404 357.5,4 -4,4"/>
<!-- Node_60 -->
<g id="node1" class="node">
<title>Node_60</title>
<polygon fill="#f2f2f2" stroke="none" points="331,-400 72,-400 72,-140 331,-140 331,-400"/>
<polygon fill="none" stroke="black" points="72,-374 72,-400 331,-400 331,-374 72,-374"/>
<text text-anchor="start" x="114.88" y="-382.7" font-family="Courier New" font-weight="bold" font-size="14.00">CallOperatorWriteNode</text>
<polygon fill="none" stroke="black" points="72,-348 72,-374 222,-374 222,-348 72,-348"/>
<text text-anchor="start" x="77" y="-355.7" font-family="Courier New" font-size="14.00">flags</text>
<polygon fill="none" stroke="black" points="222,-348 222,-374 331,-374 331,-348 222,-348"/>
<polygon fill="none" stroke="black" points="72,-322 72,-348 331,-348 331,-322 72,-322"/>
<text text-anchor="start" x="77" y="-329.7" font-family="Courier New" font-size="14.00">receiver</text>
<polygon fill="none" stroke="black" points="72,-296 72,-322 222,-322 222,-296 72,-296"/>
<text text-anchor="start" x="76.88" y="-303.7" font-family="Courier New" font-size="14.00">call_operator_loc</text>
<polygon fill="none" stroke="black" points="222,-296 222,-322 331,-322 331,-296 222,-296"/>
<text text-anchor="start" x="231.12" y="-303.7" font-family="Courier New" font-size="14.00">(1,3)&#45;(1,4)</text>
<polygon fill="none" stroke="black" points="72,-270 72,-296 222,-296 222,-270 72,-270"/>
<text text-anchor="start" x="77" y="-277.7" font-family="Courier New" font-size="14.00">message_loc</text>
<polygon fill="none" stroke="black" points="222,-270 222,-296 331,-296 331,-270 222,-270"/>
<text text-anchor="start" x="231.12" y="-277.7" font-family="Courier New" font-size="14.00">(1,4)&#45;(1,7)</text>
<polygon fill="none" stroke="black" points="72,-244 72,-270 222,-270 222,-244 72,-244"/>
<text text-anchor="start" x="77" y="-251.7" font-family="Courier New" font-size="14.00">read_name</text>
<polygon fill="none" stroke="black" points="222,-244 222,-270 331,-270 331,-244 222,-244"/>
<text text-anchor="start" x="260" y="-251.7" font-family="Courier New" font-size="14.00">:bar</text>
<polygon fill="none" stroke="black" points="72,-218 72,-244 222,-244 222,-218 72,-218"/>
<text text-anchor="start" x="77" y="-225.7" font-family="Courier New" font-size="14.00">write_name</text>
<polygon fill="none" stroke="black" points="222,-218 222,-244 331,-244 331,-218 222,-218"/>
<text text-anchor="start" x="255.88" y="-225.7" font-family="Courier New" font-size="14.00">:bar=</text>
<polygon fill="none" stroke="black" points="72,-192 72,-218 222,-218 222,-192 72,-192"/>
<text text-anchor="start" x="77" y="-199.7" font-family="Courier New" font-size="14.00">operator</text>
<polygon fill="none" stroke="black" points="222,-192 222,-218 331,-218 331,-192 222,-192"/>
<text text-anchor="start" x="268.25" y="-199.7" font-family="Courier New" font-size="14.00">:+</text>
<polygon fill="none" stroke="black" points="72,-166 72,-192 222,-192 222,-166 72,-166"/>
<text text-anchor="start" x="77" y="-173.7" font-family="Courier New" font-size="14.00">operator_loc</text>
<polygon fill="none" stroke="black" points="222,-166 222,-192 331,-192 331,-166 222,-166"/>
<text text-anchor="start" x="227" y="-173.7" font-family="Courier New" font-size="14.00">(1,8)&#45;(1,10)</text>
<polygon fill="none" stroke="black" points="72,-140 72,-166 331,-166 331,-140 72,-140"/>
<text text-anchor="start" x="77" y="-147.7" font-family="Courier New" font-size="14.00">value</text>
</g>
<!-- Node_80 -->
<g id="node2" class="node">
<title>Node_80</title>
<polygon fill="#f2f2f2" stroke="none" points="217,-104 0,-104 0,0 217,0 217,-104"/>
<polygon fill="none" stroke="black" points="0,-78 0,-104 217,-104 217,-78 0,-78"/>
<text text-anchor="start" x="75.5" y="-86.7" font-family="Courier New" font-weight="bold" font-size="14.00">CallNode</text>
<polygon fill="none" stroke="black" points="0,-52 0,-78 100,-78 100,-52 0,-52"/>
<text text-anchor="start" x="5" y="-59.7" font-family="Courier New" font-size="14.00">flags</text>
<polygon fill="none" stroke="black" points="100,-52 100,-78 217,-78 217,-52 100,-52"/>
<text text-anchor="start" x="104.88" y="-59.7" font-family="Courier New" font-size="14.00">variable_call</text>
<polygon fill="none" stroke="black" points="0,-26 0,-52 100,-52 100,-26 0,-26"/>
<text text-anchor="start" x="5" y="-33.7" font-family="Courier New" font-size="14.00">name</text>
<polygon fill="none" stroke="black" points="100,-26 100,-52 217,-52 217,-26 100,-26"/>
<text text-anchor="start" x="142" y="-33.7" font-family="Courier New" font-size="14.00">:foo</text>
<polygon fill="none" stroke="black" points="0,0 0,-26 100,-26 100,0 0,0"/>
<text text-anchor="start" x="4.62" y="-7.7" font-family="Courier New" font-size="14.00">message_loc</text>
<polygon fill="none" stroke="black" points="100,0 100,-26 217,-26 217,0 100,0"/>
<text text-anchor="start" x="113.12" y="-7.7" font-family="Courier New" font-size="14.00">(1,0)&#45;(1,3)</text>
</g>
<!-- Node_60&#45;&gt;Node_80 -->
<g id="edge1" class="edge">
<title>Node_60:receiver&#45;&gt;Node_80</title>
<path fill="none" stroke="black" d="M70.5,-335C-18.15,-335 36.16,-196.43 76.56,-113.56"/>
<polygon fill="black" stroke="black" points="80.12,-115.26 81.41,-104.74 73.84,-112.16 80.12,-115.26"/>
</g>
<!-- Node_100 -->
<g id="node3" class="node">
<title>Node_100</title>
<polygon fill="#f2f2f2" stroke="none" points="353.5,-78 235.5,-78 235.5,-26 353.5,-26 353.5,-78"/>
<polygon fill="none" stroke="black" points="235.5,-52 235.5,-78 353.5,-78 353.5,-52 235.5,-52"/>
<text text-anchor="start" x="249.12" y="-60.7" font-family="Courier New" font-weight="bold" font-size="14.00">IntegerNode</text>
<polygon fill="none" stroke="black" points="235.5,-26 235.5,-52 286.5,-52 286.5,-26 235.5,-26"/>
<text text-anchor="start" x="240.38" y="-33.7" font-family="Courier New" font-size="14.00">flags</text>
<polygon fill="none" stroke="black" points="286.5,-26 286.5,-52 353.5,-52 353.5,-26 286.5,-26"/>
<text text-anchor="start" x="291.12" y="-33.7" font-family="Courier New" font-size="14.00">decimal</text>
</g>
<!-- Node_60&#45;&gt;Node_100 -->
<g id="edge2" class="edge">
<title>Node_60:value&#45;&gt;Node_100</title>
<path fill="none" stroke="black" d="M332.5,-153C361.53,-153 340.94,-115.71 320.5,-86.67"/>
<polygon fill="black" stroke="black" points="322.91,-85.03 314.22,-78.98 317.24,-89.13 322.91,-85.03"/>
</g>
</g>
</svg>
