<?xml version="1.0" encoding="UTF-8" standalone="no"?>
<!DOCTYPE svg PUBLIC "-//W3C//DTD SVG 1.1//EN"
 "http://www.w3.org/Graphics/SVG/1.1/DTD/svg11.dtd">
<!-- Generated by graphviz version 8.1.0 (20230707.0739)
 -->
<!-- Title: Prism Pages: 1 -->
<svg width="208pt" height="164pt"
 viewBox="0.00 0.00 208.00 164.00" xmlns="http://www.w3.org/2000/svg" xmlns:xlink="http://www.w3.org/1999/xlink">
<g id="graph0" class="graph" transform="scale(1 1) rotate(0) translate(4 160)">
<title>Prism</title>
<polygon fill="white" stroke="none" points="-4,4 -4,-160 204,-160 204,4 -4,4"/>
<!-- Node_60 -->
<g id="node1" class="node">
<title>Node_60</title>
<polygon fill="#f2f2f2" stroke="none" points="200,-156 0,-156 0,0 200,0 200,-156"/>
<polygon fill="none" stroke="black" points="0,-130 0,-156 200,-156 200,-130 0,-130"/>
<text text-anchor="start" x="13.38" y="-138.7" font-family="Courier New" font-weight="bold" font-size="14.00">RegularExpressionNode</text>
<polygon fill="none" stroke="black" points="0,-104 0,-130 100,-130 100,-104 0,-104"/>
<text text-anchor="start" x="5" y="-111.7" font-family="Courier New" font-size="14.00">flags</text>
<polygon fill="none" stroke="black" points="100,-104 100,-130 200,-130 200,-104 100,-104"/>
<polygon fill="none" stroke="black" points="0,-78 0,-104 100,-104 100,-78 0,-78"/>
<text text-anchor="start" x="4.62" y="-85.7" font-family="Courier New" font-size="14.00">opening_loc</text>
<polygon fill="none" stroke="black" points="100,-78 100,-104 200,-104 200,-78 100,-78"/>
<text text-anchor="start" x="104.62" y="-85.7" font-family="Courier New" font-size="14.00">(1,0)&#45;(1,1)</text>
<polygon fill="none" stroke="black" points="0,-52 0,-78 100,-78 100,-52 0,-52"/>
<text text-anchor="start" x="4.62" y="-59.7" font-family="Courier New" font-size="14.00">content_loc</text>
<polygon fill="none" stroke="black" points="100,-52 100,-78 200,-78 200,-52 100,-52"/>
<text text-anchor="start" x="104.62" y="-59.7" font-family="Courier New" font-size="14.00">(1,1)&#45;(1,4)</text>
<polygon fill="none" stroke="black" points="0,-26 0,-52 100,-52 100,-26 0,-26"/>
<text text-anchor="start" x="4.62" y="-33.7" font-family="Courier New" font-size="14.00">closing_loc</text>
<polygon fill="none" stroke="black" points="100,-26 100,-52 200,-52 200,-26 100,-26"/>
<text text-anchor="start" x="104.62" y="-33.7" font-family="Courier New" font-size="14.00">(1,4)&#45;(1,5)</text>
<polygon fill="none" stroke="black" points="0,0 0,-26 100,-26 100,0 0,0"/>
<text text-anchor="start" x="5" y="-7.7" font-family="Courier New" font-size="14.00">unescaped</text>
<polygon fill="none" stroke="black" points="100,0 100,-26 200,-26 200,0 100,0"/>
<text text-anchor="start" x="129.38" y="-7.7" font-family="Courier New" font-size="14.00">&quot;foo&quot;</text>
</g>
</g>
</svg>
