<?xml version="1.0" encoding="UTF-8" standalone="no"?>
<!DOCTYPE svg PUBLIC "-//W3C//DTD SVG 1.1//EN"
 "http://www.w3.org/Graphics/SVG/1.1/DTD/svg11.dtd">
<!-- Generated by graphviz version 8.1.0 (20230707.0739)
 -->
<!-- Title: Prism Pages: 1 -->
<svg width="232pt" height="354pt"
 viewBox="0.00 0.00 232.10 353.60" xmlns="http://www.w3.org/2000/svg" xmlns:xlink="http://www.w3.org/1999/xlink">
<g id="graph0" class="graph" transform="scale(1 1) rotate(0) translate(4 349.6)">
<title>Prism</title>
<polygon fill="white" stroke="none" points="-4,4 -4,-349.6 228.1,-349.6 228.1,4 -4,4"/>
<!-- Node_60 -->
<g id="node1" class="node">
<title>Node_60</title>
<polygon fill="#f2f2f2" stroke="none" points="200,-345.6 0,-345.6 0,-215.6 200,-215.6 200,-345.6"/>
<polygon fill="none" stroke="black" points="0,-319.6 0,-345.6 200,-345.6 200,-319.6 0,-319.6"/>
<text text-anchor="start" x="29.88" y="-328.3" font-family="Courier New" font-weight="bold" font-size="14.00">PostExecutionNode</text>
<polygon fill="none" stroke="black" points="0,-293.6 0,-319.6 200,-319.6 200,-293.6 0,-293.6"/>
<text text-anchor="start" x="5" y="-301.3" font-family="Courier New" font-size="14.00">statements</text>
<polygon fill="none" stroke="black" points="0,-267.6 0,-293.6 100,-293.6 100,-267.6 0,-267.6"/>
<text text-anchor="start" x="4.62" y="-275.3" font-family="Courier New" font-size="14.00">keyword_loc</text>
<polygon fill="none" stroke="black" points="100,-267.6 100,-293.6 200,-293.6 200,-267.6 100,-267.6"/>
<text text-anchor="start" x="104.62" y="-275.3" font-family="Courier New" font-size="14.00">(1,0)&#45;(1,3)</text>
<polygon fill="none" stroke="black" points="0,-241.6 0,-267.6 100,-267.6 100,-241.6 0,-241.6"/>
<text text-anchor="start" x="4.62" y="-249.3" font-family="Courier New" font-size="14.00">opening_loc</text>
<polygon fill="none" stroke="black" points="100,-241.6 100,-267.6 200,-267.6 200,-241.6 100,-241.6"/>
<text text-anchor="start" x="104.62" y="-249.3" font-family="Courier New" font-size="14.00">(1,4)&#45;(1,5)</text>
<polygon fill="none" stroke="black" points="0,-215.6 0,-241.6 100,-241.6 100,-215.6 0,-215.6"/>
<text text-anchor="start" x="4.62" y="-223.3" font-family="Courier New" font-size="14.00">closing_loc</text>
<polygon fill="none" stroke="black" points="100,-215.6 100,-241.6 200,-241.6 200,-215.6 100,-215.6"/>
<text text-anchor="start" x="104.62" y="-223.3" font-family="Courier New" font-size="14.00">(1,8)&#45;(1,9)</text>
</g>
<!-- Node_80 -->
<g id="node2" class="node">
<title>Node_80</title>
<polygon fill="#f2f2f2" stroke="none" points="162.5,-179.6 37.5,-179.6 37.5,-127.6 162.5,-127.6 162.5,-179.6"/>
<polygon fill="none" stroke="black" points="37.5,-153.6 37.5,-179.6 162.5,-179.6 162.5,-153.6 37.5,-153.6"/>
<text text-anchor="start" x="42.25" y="-162.3" font-family="Courier New" font-weight="bold" font-size="14.00">StatementsNode</text>
<polygon fill="none" stroke="black" points="37.5,-127.6 37.5,-153.6 162.5,-153.6 162.5,-127.6 37.5,-127.6"/>
<text text-anchor="start" x="42.5" y="-135.3" font-family="Courier New" font-size="14.00">body</text>
</g>
<!-- Node_60&#45;&gt;Node_80 -->
<g id="edge1" class="edge">
<title>Node_60:statements&#45;&gt;Node_80</title>
<path fill="none" stroke="black" d="M201,-306.6C241.45,-306.6 219.99,-250.76 200,-215.6 193.11,-203.48 182.74,-193.48 171.26,-185.34"/>
<polygon fill="black" stroke="black" points="173.57,-182.01 163.29,-179.46 169.74,-187.87 173.57,-182.01"/>
</g>
<!-- Node_80_body -->
<g id="node4" class="node">
<title>Node_80_body</title>
<ellipse fill="#f2f2f2" stroke="black" cx="100" cy="-89.8" rx="1.8" ry="1.8"/>
</g>
<!-- Node_80&#45;&gt;Node_80_body -->
<g id="edge2" class="edge">
<title>Node_80:body&#45;&gt;Node_80_body</title>
<path fill="none" stroke="black" d="M100,-127.6C100,-119.36 100,-110.09 100,-102.91"/>
<polygon fill="black" stroke="black" points="103.5,-102.94 100,-92.94 96.5,-102.94 103.5,-102.94"/>
</g>
<!-- Node_100 -->
<g id="node3" class="node">
<title>Node_100</title>
<polygon fill="#f2f2f2" stroke="none" points="159,-52 41,-52 41,0 159,0 159,-52"/>
<polygon fill="none" stroke="black" points="41,-26 41,-52 159,-52 159,-26 41,-26"/>
<text text-anchor="start" x="54.62" y="-34.7" font-family="Courier New" font-weight="bold" font-size="14.00">IntegerNode</text>
<polygon fill="none" stroke="black" points="41,0 41,-26 92,-26 92,0 41,0"/>
<text text-anchor="start" x="45.88" y="-7.7" font-family="Courier New" font-size="14.00">flags</text>
<polygon fill="none" stroke="black" points="92,0 92,-26 159,-26 159,0 92,0"/>
<text text-anchor="start" x="96.62" y="-7.7" font-family="Courier New" font-size="14.00">decimal</text>
</g>
<!-- Node_80_body&#45;&gt;Node_100 -->
<g id="edge3" class="edge">
<title>Node_80_body&#45;&gt;Node_100</title>
<path fill="none" stroke="black" d="M100,-87.73C100,-84.45 100,-74.09 100,-62.84"/>
<polygon fill="black" stroke="black" points="103.5,-62.97 100,-52.97 96.5,-62.98 103.5,-62.97"/>
</g>
</g>
</svg>
