<?xml version="1.0" encoding="UTF-8" standalone="no"?>
<!DOCTYPE svg PUBLIC "-//W3C//DTD SVG 1.1//EN"
 "http://www.w3.org/Graphics/SVG/1.1/DTD/svg11.dtd">
<!-- Generated by graphviz version 8.1.0 (20230707.0739)
 -->
<!-- Title: Prism Pages: 1 -->
<svg width="641pt" height="904pt"
 viewBox="0.00 0.00 641.00 903.60" xmlns="http://www.w3.org/2000/svg" xmlns:xlink="http://www.w3.org/1999/xlink">
<g id="graph0" class="graph" transform="scale(1 1) rotate(0) translate(4 899.6)">
<title>Prism</title>
<polygon fill="white" stroke="none" points="-4,4 -4,-899.6 637,-899.6 637,4 -4,4"/>
<!-- Node_60 -->
<g id="node1" class="node">
<title>Node_60</title>
<polygon fill="#f2f2f2" stroke="none" points="455.5,-895.6 205.5,-895.6 205.5,-687.6 455.5,-687.6 455.5,-895.6"/>
<polygon fill="none" stroke="black" points="205.5,-869.6 205.5,-895.6 455.5,-895.6 455.5,-869.6 205.5,-869.6"/>
<text text-anchor="start" x="301.62" y="-878.3" font-family="Courier New" font-weight="bold" font-size="14.00">ForNode</text>
<polygon fill="none" stroke="black" points="205.5,-843.6 205.5,-869.6 455.5,-869.6 455.5,-843.6 205.5,-843.6"/>
<text text-anchor="start" x="210.5" y="-851.3" font-family="Courier New" font-size="14.00">index</text>
<polygon fill="none" stroke="black" points="205.5,-817.6 205.5,-843.6 455.5,-843.6 455.5,-817.6 205.5,-817.6"/>
<text text-anchor="start" x="210.5" y="-825.3" font-family="Courier New" font-size="14.00">collection</text>
<polygon fill="none" stroke="black" points="205.5,-791.6 205.5,-817.6 455.5,-817.6 455.5,-791.6 205.5,-791.6"/>
<text text-anchor="start" x="210.5" y="-799.3" font-family="Courier New" font-size="14.00">statements</text>
<polygon fill="none" stroke="black" points="205.5,-765.6 205.5,-791.6 338.5,-791.6 338.5,-765.6 205.5,-765.6"/>
<text text-anchor="start" x="210.12" y="-773.3" font-family="Courier New" font-size="14.00">for_keyword_loc</text>
<polygon fill="none" stroke="black" points="338.5,-765.6 338.5,-791.6 455.5,-791.6 455.5,-765.6 338.5,-765.6"/>
<text text-anchor="start" x="351.62" y="-773.3" font-family="Courier New" font-size="14.00">(1,0)&#45;(1,3)</text>
<polygon fill="none" stroke="black" points="205.5,-739.6 205.5,-765.6 338.5,-765.6 338.5,-739.6 205.5,-739.6"/>
<text text-anchor="start" x="210.5" y="-747.3" font-family="Courier New" font-size="14.00">in_keyword_loc</text>
<polygon fill="none" stroke="black" points="338.5,-739.6 338.5,-765.6 455.5,-765.6 455.5,-739.6 338.5,-739.6"/>
<text text-anchor="start" x="351.62" y="-747.3" font-family="Courier New" font-size="14.00">(1,6)&#45;(1,8)</text>
<polygon fill="none" stroke="black" points="205.5,-713.6 205.5,-739.6 338.5,-739.6 338.5,-713.6 205.5,-713.6"/>
<text text-anchor="start" x="210.5" y="-721.3" font-family="Courier New" font-size="14.00">do_keyword_loc</text>
<polygon fill="none" stroke="black" points="338.5,-713.6 338.5,-739.6 455.5,-739.6 455.5,-713.6 338.5,-713.6"/>
<text text-anchor="start" x="343.38" y="-721.3" font-family="Courier New" font-size="14.00">(1,15)&#45;(1,17)</text>
<polygon fill="none" stroke="black" points="205.5,-687.6 205.5,-713.6 338.5,-713.6 338.5,-687.6 205.5,-687.6"/>
<text text-anchor="start" x="210.12" y="-695.3" font-family="Courier New" font-size="14.00">end_keyword_loc</text>
<polygon fill="none" stroke="black" points="338.5,-687.6 338.5,-713.6 455.5,-713.6 455.5,-687.6 338.5,-687.6"/>
<text text-anchor="start" x="343.38" y="-695.3" font-family="Courier New" font-size="14.00">(1,25)&#45;(1,28)</text>
</g>
<!-- Node_80 -->
<g id="node2" class="node">
<title>Node_80</title>
<polygon fill="#f2f2f2" stroke="none" points="199,-625.6 0,-625.6 0,-547.6 199,-547.6 199,-625.6"/>
<polygon fill="none" stroke="black" points="0,-599.6 0,-625.6 199,-625.6 199,-599.6 0,-599.6"/>
<text text-anchor="start" x="4.62" y="-608.3" font-family="Courier New" font-weight="bold" font-size="14.00">LocalVariableTargetNode</text>
<polygon fill="none" stroke="black" points="0,-573.6 0,-599.6 112,-599.6 112,-573.6 0,-573.6"/>
<text text-anchor="start" x="5" y="-581.3" font-family="Courier New" font-size="14.00">name</text>
<polygon fill="none" stroke="black" points="112,-573.6 112,-599.6 199,-599.6 199,-573.6 112,-573.6"/>
<text text-anchor="start" x="147.25" y="-581.3" font-family="Courier New" font-size="14.00">:i</text>
<polygon fill="none" stroke="black" points="0,-547.6 0,-573.6 112,-573.6 112,-547.6 0,-547.6"/>
<text text-anchor="start" x="5" y="-555.3" font-family="Courier New" font-size="14.00">depth</text>
<polygon fill="none" stroke="black" points="112,-547.6 112,-573.6 199,-573.6 199,-547.6 112,-547.6"/>
<text text-anchor="start" x="151.38" y="-555.3" font-family="Courier New" font-size="14.00">0</text>
</g>
<!-- Node_60&#45;&gt;Node_80 -->
<g id="edge1" class="edge">
<title>Node_60:index&#45;&gt;Node_80</title>
<path fill="none" stroke="black" d="M204.5,-856.6C111.08,-856.6 98.03,-714.08 97.84,-636.52"/>
<polygon fill="black" stroke="black" points="101.35,-636.59 97.9,-626.57 94.35,-636.55 101.35,-636.59"/>
</g>
<!-- Node_100 -->
<g id="node3" class="node">
<title>Node_100</title>
<polygon fill="#f2f2f2" stroke="none" points="443.5,-651.6 217.5,-651.6 217.5,-521.6 443.5,-521.6 443.5,-651.6"/>
<polygon fill="none" stroke="black" points="217.5,-625.6 217.5,-651.6 443.5,-651.6 443.5,-625.6 217.5,-625.6"/>
<text text-anchor="start" x="293.38" y="-634.3" font-family="Courier New" font-weight="bold" font-size="14.00">RangeNode</text>
<polygon fill="none" stroke="black" points="217.5,-599.6 217.5,-625.6 326.5,-625.6 326.5,-599.6 217.5,-599.6"/>
<text text-anchor="start" x="222.5" y="-607.3" font-family="Courier New" font-size="14.00">flags</text>
<polygon fill="none" stroke="black" points="326.5,-599.6 326.5,-625.6 443.5,-625.6 443.5,-599.6 326.5,-599.6"/>
<polygon fill="none" stroke="black" points="217.5,-573.6 217.5,-599.6 443.5,-599.6 443.5,-573.6 217.5,-573.6"/>
<text text-anchor="start" x="222.5" y="-581.3" font-family="Courier New" font-size="14.00">left</text>
<polygon fill="none" stroke="black" points="217.5,-547.6 217.5,-573.6 443.5,-573.6 443.5,-547.6 217.5,-547.6"/>
<text text-anchor="start" x="222.5" y="-555.3" font-family="Courier New" font-size="14.00">right</text>
<polygon fill="none" stroke="black" points="217.5,-521.6 217.5,-547.6 326.5,-547.6 326.5,-521.6 217.5,-521.6"/>
<text text-anchor="start" x="222.5" y="-529.3" font-family="Courier New" font-size="14.00">operator_loc</text>
<polygon fill="none" stroke="black" points="326.5,-521.6 326.5,-547.6 443.5,-547.6 443.5,-521.6 326.5,-521.6"/>
<text text-anchor="start" x="331.38" y="-529.3" font-family="Courier New" font-size="14.00">(1,10)&#45;(1,12)</text>
</g>
<!-- Node_60&#45;&gt;Node_100 -->
<g id="edge2" class="edge">
<title>Node_60:collection&#45;&gt;Node_100</title>
<path fill="none" stroke="black" d="M456.5,-830.6C520.06,-830.6 483.23,-744.79 455.5,-687.6 450.63,-677.56 444.21,-668.2 436.85,-659.57"/>
<polygon fill="black" stroke="black" points="439.84,-657.56 430.52,-652.52 434.66,-662.27 439.84,-657.56"/>
</g>
<!-- Node_120 -->
<g id="node6" class="node">
<title>Node_120</title>
<polygon fill="#f2f2f2" stroke="none" points="587,-612.6 462,-612.6 462,-560.6 587,-560.6 587,-612.6"/>
<polygon fill="none" stroke="black" points="462,-586.6 462,-612.6 587,-612.6 587,-586.6 462,-586.6"/>
<text text-anchor="start" x="466.75" y="-595.3" font-family="Courier New" font-weight="bold" font-size="14.00">StatementsNode</text>
<polygon fill="none" stroke="black" points="462,-560.6 462,-586.6 587,-586.6 587,-560.6 462,-560.6"/>
<text text-anchor="start" x="467" y="-568.3" font-family="Courier New" font-size="14.00">body</text>
</g>
<!-- Node_60&#45;&gt;Node_120 -->
<g id="edge3" class="edge">
<title>Node_60:statements&#45;&gt;Node_120</title>
<path fill="none" stroke="black" d="M456.5,-804.6C531.58,-804.6 532.64,-684.86 528.22,-623.27"/>
<polygon fill="black" stroke="black" points="531.64,-623.18 527.34,-613.49 524.66,-623.74 531.64,-623.18"/>
</g>
<!-- Node_140 -->
<g id="node4" class="node">
<title>Node_140</title>
<polygon fill="#f2f2f2" stroke="none" points="311.5,-485.6 193.5,-485.6 193.5,-433.6 311.5,-433.6 311.5,-485.6"/>
<polygon fill="none" stroke="black" points="193.5,-459.6 193.5,-485.6 311.5,-485.6 311.5,-459.6 193.5,-459.6"/>
<text text-anchor="start" x="207.12" y="-468.3" font-family="Courier New" font-weight="bold" font-size="14.00">IntegerNode</text>
<polygon fill="none" stroke="black" points="193.5,-433.6 193.5,-459.6 244.5,-459.6 244.5,-433.6 193.5,-433.6"/>
<text text-anchor="start" x="198.38" y="-441.3" font-family="Courier New" font-size="14.00">flags</text>
<polygon fill="none" stroke="black" points="244.5,-433.6 244.5,-459.6 311.5,-459.6 311.5,-433.6 244.5,-433.6"/>
<text text-anchor="start" x="249.12" y="-441.3" font-family="Courier New" font-size="14.00">decimal</text>
</g>
<!-- Node_100&#45;&gt;Node_140 -->
<g id="edge4" class="edge">
<title>Node_100:left&#45;&gt;Node_140</title>
<path fill="none" stroke="black" d="M216.5,-586.6C202.05,-586.6 213.67,-535.53 217.5,-521.6 220.01,-512.46 224.22,-503.26 228.86,-494.86"/>
<polygon fill="black" stroke="black" points="232.36,-496.83 234.43,-486.44 226.33,-493.27 232.36,-496.83"/>
</g>
<!-- Node_160 -->
<g id="node5" class="node">
<title>Node_160</title>
<polygon fill="#f2f2f2" stroke="none" points="447.5,-485.6 329.5,-485.6 329.5,-433.6 447.5,-433.6 447.5,-485.6"/>
<polygon fill="none" stroke="black" points="329.5,-459.6 329.5,-485.6 447.5,-485.6 447.5,-459.6 329.5,-459.6"/>
<text text-anchor="start" x="343.12" y="-468.3" font-family="Courier New" font-weight="bold" font-size="14.00">IntegerNode</text>
<polygon fill="none" stroke="black" points="329.5,-433.6 329.5,-459.6 380.5,-459.6 380.5,-433.6 329.5,-433.6"/>
<text text-anchor="start" x="334.38" y="-441.3" font-family="Courier New" font-size="14.00">flags</text>
<polygon fill="none" stroke="black" points="380.5,-433.6 380.5,-459.6 447.5,-459.6 447.5,-433.6 380.5,-433.6"/>
<text text-anchor="start" x="385.12" y="-441.3" font-family="Courier New" font-size="14.00">decimal</text>
</g>
<!-- Node_100&#45;&gt;Node_160 -->
<g id="edge5" class="edge">
<title>Node_100:right&#45;&gt;Node_160</title>
<path fill="none" stroke="black" d="M444.5,-560.6C453.17,-560.6 446.71,-529.65 443.5,-521.6 439.46,-511.47 432.92,-501.94 425.74,-493.57"/>
<polygon fill="black" stroke="black" points="428.76,-491.59 419.41,-486.6 423.6,-496.33 428.76,-491.59"/>
</g>
<!-- Node_120_body -->
<g id="node10" class="node">
<title>Node_120_body</title>
<ellipse fill="#f2f2f2" stroke="black" cx="524.5" cy="-459.6" rx="1.8" ry="1.8"/>
</g>
<!-- Node_120&#45;&gt;Node_120_body -->
<g id="edge6" class="edge">
<title>Node_120:body&#45;&gt;Node_120_body</title>
<path fill="none" stroke="black" d="M524.5,-559.6C524.5,-528.07 524.5,-490.89 524.5,-472.35"/>
<polygon fill="black" stroke="black" points="528,-472.58 524.5,-462.58 521,-472.58 528,-472.58"/>
</g>
<!-- Node_180 -->
<g id="node7" class="node">
<title>Node_180</title>
<polygon fill="#f2f2f2" stroke="none" points="633,-397.6 416,-397.6 416,-267.6 633,-267.6 633,-397.6"/>
<polygon fill="none" stroke="black" points="416,-371.6 416,-397.6 633,-397.6 633,-371.6 416,-371.6"/>
<text text-anchor="start" x="491.5" y="-380.3" font-family="Courier New" font-weight="bold" font-size="14.00">CallNode</text>
<polygon fill="none" stroke="black" points="416,-345.6 416,-371.6 516,-371.6 516,-345.6 416,-345.6"/>
<text text-anchor="start" x="421" y="-353.3" font-family="Courier New" font-size="14.00">flags</text>
<polygon fill="none" stroke="black" points="516,-345.6 516,-371.6 633,-371.6 633,-345.6 516,-345.6"/>
<polygon fill="none" stroke="black" points="416,-319.6 416,-345.6 516,-345.6 516,-319.6 416,-319.6"/>
<text text-anchor="start" x="421" y="-327.3" font-family="Courier New" font-size="14.00">name</text>
<polygon fill="none" stroke="black" points="516,-319.6 516,-345.6 633,-345.6 633,-319.6 516,-319.6"/>
<text text-anchor="start" x="553.88" y="-327.3" font-family="Courier New" font-size="14.00">:puts</text>
<polygon fill="none" stroke="black" points="416,-293.6 416,-319.6 516,-319.6 516,-293.6 416,-293.6"/>
<text text-anchor="start" x="420.62" y="-301.3" font-family="Courier New" font-size="14.00">message_loc</text>
<polygon fill="none" stroke="black" points="516,-293.6 516,-319.6 633,-319.6 633,-293.6 516,-293.6"/>
<text text-anchor="start" x="520.88" y="-301.3" font-family="Courier New" font-size="14.00">(1,18)&#45;(1,22)</text>
<polygon fill="none" stroke="black" points="416,-267.6 416,-293.6 633,-293.6 633,-267.6 416,-267.6"/>
<text text-anchor="start" x="421" y="-275.3" font-family="Courier New" font-size="14.00">arguments</text>
</g>
<!-- Node_200 -->
<g id="node8" class="node">
<title>Node_200</title>
<polygon fill="#f2f2f2" stroke="none" points="583,-231.6 466,-231.6 466,-153.6 583,-153.6 583,-231.6"/>
<polygon fill="none" stroke="black" points="466,-205.6 466,-231.6 583,-231.6 583,-205.6 466,-205.6"/>
<text text-anchor="start" x="470.88" y="-214.3" font-family="Courier New" font-weight="bold" font-size="14.00">ArgumentsNode</text>
<polygon fill="none" stroke="black" points="466,-179.6 466,-205.6 545,-205.6 545,-179.6 466,-179.6"/>
<text text-anchor="start" x="471" y="-187.3" font-family="Courier New" font-size="14.00">flags</text>
<polygon fill="none" stroke="black" points="545,-179.6 545,-205.6 583,-205.6 583,-179.6 545,-179.6"/>
<polygon fill="none" stroke="black" points="466,-153.6 466,-179.6 583,-179.6 583,-153.6 466,-153.6"/>
<text text-anchor="start" x="471" y="-161.3" font-family="Courier New" font-size="14.00">arguments</text>
</g>
<!-- Node_180&#45;&gt;Node_200 -->
<g id="edge8" class="edge">
<title>Node_180:arguments&#45;&gt;Node_200</title>
<path fill="none" stroke="black" d="M524.5,-267.6C524.5,-259.38 524.5,-250.65 524.5,-242.17"/>
<polygon fill="black" stroke="black" points="528,-242.25 524.5,-232.25 521,-242.25 528,-242.25"/>
</g>
<!-- Node_200_arguments -->
<g id="node11" class="node">
<title>Node_200_arguments</title>
<ellipse fill="#f2f2f2" stroke="black" cx="524.5" cy="-115.8" rx="1.8" ry="1.8"/>
</g>
<!-- Node_200&#45;&gt;Node_200_arguments -->
<g id="edge9" class="edge">
<title>Node_200:arguments&#45;&gt;Node_200_arguments</title>
<path fill="none" stroke="black" d="M524.5,-153.6C524.5,-145.36 524.5,-136.09 524.5,-128.91"/>
<polygon fill="black" stroke="black" points="528,-128.94 524.5,-118.94 521,-128.94 528,-128.94"/>
</g>
<!-- Node_220 -->
<g id="node9" class="node">
<title>Node_220</title>
<polygon fill="#f2f2f2" stroke="none" points="616,-78 433,-78 433,0 616,0 616,-78"/>
<polygon fill="none" stroke="black" points="433,-52 433,-78 616,-78 616,-52 433,-52"/>
<text text-anchor="start" x="437.88" y="-60.7" font-family="Courier New" font-weight="bold" font-size="14.00">LocalVariableReadNode</text>
<polygon fill="none" stroke="black" points="433,-26 433,-52 537,-52 537,-26 433,-26"/>
<text text-anchor="start" x="438" y="-33.7" font-family="Courier New" font-size="14.00">name</text>
<polygon fill="none" stroke="black" points="537,-26 537,-52 616,-52 616,-26 537,-26"/>
<text text-anchor="start" x="568.25" y="-33.7" font-family="Courier New" font-size="14.00">:i</text>
<polygon fill="none" stroke="black" points="433,0 433,-26 537,-26 537,0 433,0"/>
<text text-anchor="start" x="438" y="-7.7" font-family="Courier New" font-size="14.00">depth</text>
<polygon fill="none" stroke="black" points="537,0 537,-26 616,-26 616,0 537,0"/>
<text text-anchor="start" x="572.38" y="-7.7" font-family="Courier New" font-size="14.00">0</text>
</g>
<!-- Node_120_body&#45;&gt;Node_180 -->
<g id="edge7" class="edge">
<title>Node_120_body&#45;&gt;Node_180</title>
<path fill="none" stroke="black" d="M524.5,-457.8C524.5,-453.45 524.5,-431.95 524.5,-408.02"/>
<polygon fill="black" stroke="black" points="528,-408.29 524.5,-398.29 521,-408.29 528,-408.29"/>
</g>
<!-- Node_200_arguments&#45;&gt;Node_220 -->
<g id="edge10" class="edge">
<title>Node_200_arguments&#45;&gt;Node_220</title>
<path fill="none" stroke="black" d="M524.5,-113.5C524.5,-110.06 524.5,-100.15 524.5,-88.69"/>
<polygon fill="black" stroke="black" points="528,-88.87 524.5,-78.87 521,-88.87 528,-88.87"/>
</g>
</g>
</svg>
