<?xml version="1.0" encoding="UTF-8" standalone="no"?>
<!DOCTYPE svg PUBLIC "-//W3C//DTD SVG 1.1//EN"
 "http://www.w3.org/Graphics/SVG/1.1/DTD/svg11.dtd">
<!-- Generated by graphviz version 8.1.0 (20230707.0739)
 -->
<!-- Title: Prism Pages: 1 -->
<svg width="792pt" height="708pt"
 viewBox="0.00 0.00 791.75 708.00" xmlns="http://www.w3.org/2000/svg" xmlns:xlink="http://www.w3.org/1999/xlink">
<g id="graph0" class="graph" transform="scale(1 1) rotate(0) translate(4 704)">
<title>Prism</title>
<polygon fill="white" stroke="none" points="-4,4 -4,-704 787.75,-704 787.75,4 -4,4"/>
<!-- Node_60 -->
<g id="node1" class="node">
<title>Node_60</title>
<polygon fill="#f2f2f2" stroke="none" points="395.5,-700 136.5,-700 136.5,-544 395.5,-544 395.5,-700"/>
<polygon fill="none" stroke="black" points="136.5,-674 136.5,-700 395.5,-700 395.5,-674 136.5,-674"/>
<text text-anchor="start" x="233" y="-682.7" font-family="Courier New" font-weight="bold" font-size="14.00">CaseNode</text>
<polygon fill="none" stroke="black" points="136.5,-648 136.5,-674 395.5,-674 395.5,-648 136.5,-648"/>
<text text-anchor="start" x="141.5" y="-655.7" font-family="Courier New" font-size="14.00">predicate</text>
<polygon fill="none" stroke="black" points="136.5,-622 136.5,-648 395.5,-648 395.5,-622 136.5,-622"/>
<text text-anchor="start" x="141.5" y="-629.7" font-family="Courier New" font-size="14.00">conditions</text>
<polygon fill="none" stroke="black" points="136.5,-596 136.5,-622 395.5,-622 395.5,-596 136.5,-596"/>
<text text-anchor="start" x="141.5" y="-603.7" font-family="Courier New" font-size="14.00">consequent</text>
<polygon fill="none" stroke="black" points="136.5,-570 136.5,-596 278.5,-596 278.5,-570 136.5,-570"/>
<text text-anchor="start" x="141.5" y="-577.7" font-family="Courier New" font-size="14.00">case_keyword_loc</text>
<polygon fill="none" stroke="black" points="278.5,-570 278.5,-596 395.5,-596 395.5,-570 278.5,-570"/>
<text text-anchor="start" x="291.62" y="-577.7" font-family="Courier New" font-size="14.00">(1,0)&#45;(1,4)</text>
<polygon fill="none" stroke="black" points="136.5,-544 136.5,-570 278.5,-570 278.5,-544 136.5,-544"/>
<text text-anchor="start" x="141.5" y="-551.7" font-family="Courier New" font-size="14.00">end_keyword_loc</text>
<polygon fill="none" stroke="black" points="278.5,-544 278.5,-570 395.5,-570 395.5,-544 278.5,-544"/>
<text text-anchor="start" x="283.38" y="-551.7" font-family="Courier New" font-size="14.00">(1,42)&#45;(1,45)</text>
</g>
<!-- Node_80 -->
<g id="node2" class="node">
<title>Node_80</title>
<polygon fill="#f2f2f2" stroke="none" points="118,-482 0,-482 0,-430 118,-430 118,-482"/>
<polygon fill="none" stroke="black" points="0,-456 0,-482 118,-482 118,-456 0,-456"/>
<text text-anchor="start" x="13.62" y="-464.7" font-family="Courier New" font-weight="bold" font-size="14.00">IntegerNode</text>
<polygon fill="none" stroke="black" points="0,-430 0,-456 51,-456 51,-430 0,-430"/>
<text text-anchor="start" x="4.88" y="-437.7" font-family="Courier New" font-size="14.00">flags</text>
<polygon fill="none" stroke="black" points="51,-430 51,-456 118,-456 118,-430 51,-430"/>
<text text-anchor="start" x="55.62" y="-437.7" font-family="Courier New" font-size="14.00">decimal</text>
</g>
<!-- Node_60&#45;&gt;Node_80 -->
<g id="edge1" class="edge">
<title>Node_60:predicate&#45;&gt;Node_80</title>
<path fill="none" stroke="black" d="M135,-661C63.96,-661 56.27,-551.02 57.2,-492.56"/>
<polygon fill="black" stroke="black" points="60.72,-492.69 57.48,-482.61 53.72,-492.51 60.72,-492.69"/>
</g>
<!-- Node_140 -->
<g id="node11" class="node">
<title>Node_140</title>
<polygon fill="#f2f2f2" stroke="none" points="395.5,-508 136.5,-508 136.5,-404 395.5,-404 395.5,-508"/>
<polygon fill="none" stroke="black" points="136.5,-482 136.5,-508 395.5,-508 395.5,-482 136.5,-482"/>
<text text-anchor="start" x="233" y="-490.7" font-family="Courier New" font-weight="bold" font-size="14.00">ElseNode</text>
<polygon fill="none" stroke="black" points="136.5,-456 136.5,-482 278.5,-482 278.5,-456 136.5,-456"/>
<text text-anchor="start" x="141.5" y="-463.7" font-family="Courier New" font-size="14.00">else_keyword_loc</text>
<polygon fill="none" stroke="black" points="278.5,-456 278.5,-482 395.5,-482 395.5,-456 278.5,-456"/>
<text text-anchor="start" x="283.38" y="-463.7" font-family="Courier New" font-size="14.00">(1,35)&#45;(1,39)</text>
<polygon fill="none" stroke="black" points="136.5,-430 136.5,-456 395.5,-456 395.5,-430 136.5,-430"/>
<text text-anchor="start" x="141.5" y="-437.7" font-family="Courier New" font-size="14.00">statements</text>
<polygon fill="none" stroke="black" points="136.5,-404 136.5,-430 278.5,-430 278.5,-404 136.5,-404"/>
<text text-anchor="start" x="141.5" y="-411.7" font-family="Courier New" font-size="14.00">end_keyword_loc</text>
<polygon fill="none" stroke="black" points="278.5,-404 278.5,-430 395.5,-430 395.5,-404 278.5,-404"/>
<text text-anchor="start" x="283.38" y="-411.7" font-family="Courier New" font-size="14.00">(1,42)&#45;(1,45)</text>
</g>
<!-- Node_60&#45;&gt;Node_140 -->
<g id="edge5" class="edge">
<title>Node_60:consequent&#45;&gt;Node_140</title>
<path fill="none" stroke="black" d="M397,-609C425.89,-609 409.81,-569.38 396,-544 390.18,-533.3 382.41,-523.68 373.54,-515.08"/>
<polygon fill="black" stroke="black" points="376.26,-512.91 366.5,-508.79 371.56,-518.1 376.26,-512.91"/>
</g>
<!-- Node_60_conditions -->
<g id="node14" class="node">
<title>Node_60_conditions</title>
<ellipse fill="#f2f2f2" stroke="black" cx="433" cy="-456" rx="1.8" ry="1.8"/>
</g>
<!-- Node_60&#45;&gt;Node_60_conditions -->
<g id="edge2" class="edge">
<title>Node_60:conditions&#45;&gt;Node_60_conditions</title>
<path fill="none" stroke="black" d="M397,-635C465.06,-635 443.93,-508.42 435.64,-468.74"/>
<polygon fill="black" stroke="black" points="438.87,-468.14 433.28,-459.14 432.03,-469.66 438.87,-468.14"/>
</g>
<!-- Node_100 -->
<g id="node3" class="node">
<title>Node_100</title>
<polygon fill="#f2f2f2" stroke="none" points="537.5,-368 328.5,-368 328.5,-264 537.5,-264 537.5,-368"/>
<polygon fill="none" stroke="black" points="328.5,-342 328.5,-368 537.5,-368 537.5,-342 328.5,-342"/>
<text text-anchor="start" x="400" y="-350.7" font-family="Courier New" font-weight="bold" font-size="14.00">WhenNode</text>
<polygon fill="none" stroke="black" points="328.5,-316 328.5,-342 428.5,-342 428.5,-316 328.5,-316"/>
<text text-anchor="start" x="333.12" y="-323.7" font-family="Courier New" font-size="14.00">keyword_loc</text>
<polygon fill="none" stroke="black" points="428.5,-316 428.5,-342 537.5,-342 537.5,-316 428.5,-316"/>
<text text-anchor="start" x="433.5" y="-323.7" font-family="Courier New" font-size="14.00">(1,7)&#45;(1,11)</text>
<polygon fill="none" stroke="black" points="328.5,-290 328.5,-316 537.5,-316 537.5,-290 328.5,-290"/>
<text text-anchor="start" x="333.5" y="-297.7" font-family="Courier New" font-size="14.00">conditions</text>
<polygon fill="none" stroke="black" points="328.5,-264 328.5,-290 537.5,-290 537.5,-264 328.5,-264"/>
<text text-anchor="start" x="333.5" y="-271.7" font-family="Courier New" font-size="14.00">statements</text>
</g>
<!-- Node_180 -->
<g id="node5" class="node">
<title>Node_180</title>
<polygon fill="#f2f2f2" stroke="none" points="471.5,-228 346.5,-228 346.5,-176 471.5,-176 471.5,-228"/>
<polygon fill="none" stroke="black" points="346.5,-202 346.5,-228 471.5,-228 471.5,-202 346.5,-202"/>
<text text-anchor="start" x="351.25" y="-210.7" font-family="Courier New" font-weight="bold" font-size="14.00">StatementsNode</text>
<polygon fill="none" stroke="black" points="346.5,-176 346.5,-202 471.5,-202 471.5,-176 346.5,-176"/>
<text text-anchor="start" x="351.5" y="-183.7" font-family="Courier New" font-size="14.00">body</text>
</g>
<!-- Node_100&#45;&gt;Node_180 -->
<g id="edge8" class="edge">
<title>Node_100:statements&#45;&gt;Node_180</title>
<path fill="none" stroke="black" d="M433,-264C433,-255.28 430.85,-246.31 427.83,-238.03"/>
<polygon fill="black" stroke="black" points="430.72,-236.86 423.65,-228.97 424.26,-239.55 430.72,-236.86"/>
</g>
<!-- Node_100_conditions -->
<g id="node15" class="node">
<title>Node_100_conditions</title>
<ellipse fill="#f2f2f2" stroke="black" cx="491" cy="-202" rx="1.8" ry="1.8"/>
</g>
<!-- Node_100&#45;&gt;Node_100_conditions -->
<g id="edge6" class="edge">
<title>Node_100:conditions&#45;&gt;Node_100_conditions</title>
<path fill="none" stroke="black" d="M539,-303C547.67,-303 540.9,-272.17 538,-264 530.22,-242.08 511.3,-221.78 499.98,-211.02"/>
<polygon fill="black" stroke="black" points="502.66,-208.82 492.89,-204.74 497.98,-214.03 502.66,-208.82"/>
</g>
<!-- Node_160 -->
<g id="node4" class="node">
<title>Node_160</title>
<polygon fill="#f2f2f2" stroke="none" points="550,-140 432,-140 432,-88 550,-88 550,-140"/>
<polygon fill="none" stroke="black" points="432,-114 432,-140 550,-140 550,-114 432,-114"/>
<text text-anchor="start" x="445.62" y="-122.7" font-family="Courier New" font-weight="bold" font-size="14.00">IntegerNode</text>
<polygon fill="none" stroke="black" points="432,-88 432,-114 483,-114 483,-88 432,-88"/>
<text text-anchor="start" x="436.88" y="-95.7" font-family="Courier New" font-size="14.00">flags</text>
<polygon fill="none" stroke="black" points="483,-88 483,-114 550,-114 550,-88 483,-88"/>
<text text-anchor="start" x="487.62" y="-95.7" font-family="Courier New" font-size="14.00">decimal</text>
</g>
<!-- Node_180_body -->
<g id="node16" class="node">
<title>Node_180_body</title>
<ellipse fill="#f2f2f2" stroke="black" cx="409" cy="-114" rx="1.8" ry="1.8"/>
</g>
<!-- Node_180&#45;&gt;Node_180_body -->
<g id="edge9" class="edge">
<title>Node_180:body&#45;&gt;Node_180_body</title>
<path fill="none" stroke="black" d="M409,-176C409,-158.92 409,-139.14 409,-126.85"/>
<polygon fill="black" stroke="black" points="412.5,-126.86 409,-116.86 405.5,-126.86 412.5,-126.86"/>
</g>
<!-- Node_200 -->
<g id="node6" class="node">
<title>Node_200</title>
<polygon fill="#f2f2f2" stroke="none" points="468,-52 350,-52 350,0 468,0 468,-52"/>
<polygon fill="none" stroke="black" points="350,-26 350,-52 468,-52 468,-26 350,-26"/>
<text text-anchor="start" x="363.62" y="-34.7" font-family="Courier New" font-weight="bold" font-size="14.00">IntegerNode</text>
<polygon fill="none" stroke="black" points="350,0 350,-26 401,-26 401,0 350,0"/>
<text text-anchor="start" x="354.88" y="-7.7" font-family="Courier New" font-size="14.00">flags</text>
<polygon fill="none" stroke="black" points="401,0 401,-26 468,-26 468,0 401,0"/>
<text text-anchor="start" x="405.62" y="-7.7" font-family="Courier New" font-size="14.00">decimal</text>
</g>
<!-- Node_120 -->
<g id="node7" class="node">
<title>Node_120</title>
<polygon fill="#f2f2f2" stroke="none" points="772.5,-368 555.5,-368 555.5,-264 772.5,-264 772.5,-368"/>
<polygon fill="none" stroke="black" points="555.5,-342 555.5,-368 772.5,-368 772.5,-342 555.5,-342"/>
<text text-anchor="start" x="631" y="-350.7" font-family="Courier New" font-weight="bold" font-size="14.00">WhenNode</text>
<polygon fill="none" stroke="black" points="555.5,-316 555.5,-342 655.5,-342 655.5,-316 555.5,-316"/>
<text text-anchor="start" x="560.12" y="-323.7" font-family="Courier New" font-size="14.00">keyword_loc</text>
<polygon fill="none" stroke="black" points="655.5,-316 655.5,-342 772.5,-342 772.5,-316 655.5,-316"/>
<text text-anchor="start" x="660.38" y="-323.7" font-family="Courier New" font-size="14.00">(1,21)&#45;(1,25)</text>
<polygon fill="none" stroke="black" points="555.5,-290 555.5,-316 772.5,-316 772.5,-290 555.5,-290"/>
<text text-anchor="start" x="560.5" y="-297.7" font-family="Courier New" font-size="14.00">conditions</text>
<polygon fill="none" stroke="black" points="555.5,-264 555.5,-290 772.5,-290 772.5,-264 555.5,-264"/>
<text text-anchor="start" x="560.5" y="-271.7" font-family="Courier New" font-size="14.00">statements</text>
</g>
<!-- Node_240 -->
<g id="node9" class="node">
<title>Node_240</title>
<polygon fill="#f2f2f2" stroke="none" points="668.5,-228 543.5,-228 543.5,-176 668.5,-176 668.5,-228"/>
<polygon fill="none" stroke="black" points="543.5,-202 543.5,-228 668.5,-228 668.5,-202 543.5,-202"/>
<text text-anchor="start" x="548.25" y="-210.7" font-family="Courier New" font-weight="bold" font-size="14.00">StatementsNode</text>
<polygon fill="none" stroke="black" points="543.5,-176 543.5,-202 668.5,-202 668.5,-176 543.5,-176"/>
<text text-anchor="start" x="548.5" y="-183.7" font-family="Courier New" font-size="14.00">body</text>
</g>
<!-- Node_120&#45;&gt;Node_240 -->
<g id="edge13" class="edge">
<title>Node_120:statements&#45;&gt;Node_240</title>
<path fill="none" stroke="black" d="M664,-264C664,-253.48 659.41,-244.05 652.82,-235.93"/>
<polygon fill="black" stroke="black" points="655.73,-233.85 646.33,-228.96 650.62,-238.64 655.73,-233.85"/>
</g>
<!-- Node_120_conditions -->
<g id="node17" class="node">
<title>Node_120_conditions</title>
<ellipse fill="#f2f2f2" stroke="black" cx="688" cy="-202" rx="1.8" ry="1.8"/>
</g>
<!-- Node_120&#45;&gt;Node_120_conditions -->
<g id="edge11" class="edge">
<title>Node_120:conditions&#45;&gt;Node_120_conditions</title>
<path fill="none" stroke="black" d="M774,-303C791.34,-303 781.11,-279.32 773,-264 757.13,-234.03 719.2,-215.33 699.83,-207.4"/>
<polygon fill="black" stroke="black" points="701.17,-203.79 690.58,-203.53 698.7,-210.34 701.17,-203.79"/>
</g>
<!-- Node_220 -->
<g id="node8" class="node">
<title>Node_220</title>
<polygon fill="#f2f2f2" stroke="none" points="747,-140 629,-140 629,-88 747,-88 747,-140"/>
<polygon fill="none" stroke="black" points="629,-114 629,-140 747,-140 747,-114 629,-114"/>
<text text-anchor="start" x="642.62" y="-122.7" font-family="Courier New" font-weight="bold" font-size="14.00">IntegerNode</text>
<polygon fill="none" stroke="black" points="629,-88 629,-114 680,-114 680,-88 629,-88"/>
<text text-anchor="start" x="633.88" y="-95.7" font-family="Courier New" font-size="14.00">flags</text>
<polygon fill="none" stroke="black" points="680,-88 680,-114 747,-114 747,-88 680,-88"/>
<text text-anchor="start" x="684.62" y="-95.7" font-family="Courier New" font-size="14.00">decimal</text>
</g>
<!-- Node_240_body -->
<g id="node18" class="node">
<title>Node_240_body</title>
<ellipse fill="#f2f2f2" stroke="black" cx="606" cy="-114" rx="1.8" ry="1.8"/>
</g>
<!-- Node_240&#45;&gt;Node_240_body -->
<g id="edge14" class="edge">
<title>Node_240:body&#45;&gt;Node_240_body</title>
<path fill="none" stroke="black" d="M606,-176C606,-158.92 606,-139.14 606,-126.85"/>
<polygon fill="black" stroke="black" points="609.5,-126.86 606,-116.86 602.5,-126.86 609.5,-126.86"/>
</g>
<!-- Node_260 -->
<g id="node10" class="node">
<title>Node_260</title>
<polygon fill="#f2f2f2" stroke="none" points="665,-52 547,-52 547,0 665,0 665,-52"/>
<polygon fill="none" stroke="black" points="547,-26 547,-52 665,-52 665,-26 547,-26"/>
<text text-anchor="start" x="560.62" y="-34.7" font-family="Courier New" font-weight="bold" font-size="14.00">IntegerNode</text>
<polygon fill="none" stroke="black" points="547,0 547,-26 598,-26 598,0 547,0"/>
<text text-anchor="start" x="551.88" y="-7.7" font-family="Courier New" font-size="14.00">flags</text>
<polygon fill="none" stroke="black" points="598,0 598,-26 665,-26 665,0 598,0"/>
<text text-anchor="start" x="602.62" y="-7.7" font-family="Courier New" font-size="14.00">decimal</text>
</g>
<!-- Node_280 -->
<g id="node12" class="node">
<title>Node_280</title>
<polygon fill="#f2f2f2" stroke="none" points="310.5,-342 185.5,-342 185.5,-290 310.5,-290 310.5,-342"/>
<polygon fill="none" stroke="black" points="185.5,-316 185.5,-342 310.5,-342 310.5,-316 185.5,-316"/>
<text text-anchor="start" x="190.25" y="-324.7" font-family="Courier New" font-weight="bold" font-size="14.00">StatementsNode</text>
<polygon fill="none" stroke="black" points="185.5,-290 185.5,-316 310.5,-316 310.5,-290 185.5,-290"/>
<text text-anchor="start" x="190.5" y="-297.7" font-family="Courier New" font-size="14.00">body</text>
</g>
<!-- Node_140&#45;&gt;Node_280 -->
<g id="edge16" class="edge">
<title>Node_140:statements&#45;&gt;Node_280</title>
<path fill="none" stroke="black" d="M135,-443C126.33,-443 132.09,-411.74 136,-404 147.71,-380.84 168.76,-362 189.48,-347.85"/>
<polygon fill="black" stroke="black" points="191.16,-350.28 197.62,-341.88 187.34,-344.42 191.16,-350.28"/>
</g>
<!-- Node_280_body -->
<g id="node19" class="node">
<title>Node_280_body</title>
<ellipse fill="#f2f2f2" stroke="black" cx="248" cy="-202" rx="1.8" ry="1.8"/>
</g>
<!-- Node_280&#45;&gt;Node_280_body -->
<g id="edge17" class="edge">
<title>Node_280:body&#45;&gt;Node_280_body</title>
<path fill="none" stroke="black" d="M248,-289C248,-262.61 248,-231.68 248,-215.04"/>
<polygon fill="black" stroke="black" points="251.5,-215.21 248,-205.21 244.5,-215.21 251.5,-215.21"/>
</g>
<!-- Node_300 -->
<g id="node13" class="node">
<title>Node_300</title>
<polygon fill="#f2f2f2" stroke="none" points="307,-140 189,-140 189,-88 307,-88 307,-140"/>
<polygon fill="none" stroke="black" points="189,-114 189,-140 307,-140 307,-114 189,-114"/>
<text text-anchor="start" x="202.62" y="-122.7" font-family="Courier New" font-weight="bold" font-size="14.00">IntegerNode</text>
<polygon fill="none" stroke="black" points="189,-88 189,-114 240,-114 240,-88 189,-88"/>
<text text-anchor="start" x="193.88" y="-95.7" font-family="Courier New" font-size="14.00">flags</text>
<polygon fill="none" stroke="black" points="240,-88 240,-114 307,-114 307,-88 240,-88"/>
<text text-anchor="start" x="244.62" y="-95.7" font-family="Courier New" font-size="14.00">decimal</text>
</g>
<!-- Node_60_conditions&#45;&gt;Node_100 -->
<g id="edge3" class="edge">
<title>Node_60_conditions&#45;&gt;Node_100</title>
<path fill="none" stroke="black" d="M433,-454.12C433,-448.09 433,-412.18 433,-378.62"/>
<polygon fill="black" stroke="black" points="436.5,-378.85 433,-368.85 429.5,-378.85 436.5,-378.85"/>
</g>
<!-- Node_60_conditions&#45;&gt;Node_120 -->
<g id="edge4" class="edge">
<title>Node_60_conditions&#45;&gt;Node_120</title>
<path fill="none" stroke="black" d="M434.03,-454.38C443.09,-448.98 510.2,-408.88 569.61,-373.39"/>
<polygon fill="black" stroke="black" points="570.9,-376.1 577.69,-367.96 567.31,-370.09 570.9,-376.1"/>
</g>
<!-- Node_100_conditions&#45;&gt;Node_160 -->
<g id="edge7" class="edge">
<title>Node_100_conditions&#45;&gt;Node_160</title>
<path fill="none" stroke="black" d="M491,-199.78C491,-194.32 491,-171.36 491,-150.72"/>
<polygon fill="black" stroke="black" points="494.5,-150.93 491,-140.93 487.5,-150.93 494.5,-150.93"/>
</g>
<!-- Node_180_body&#45;&gt;Node_200 -->
<g id="edge10" class="edge">
<title>Node_180_body&#45;&gt;Node_200</title>
<path fill="none" stroke="black" d="M409,-111.78C409,-106.32 409,-83.36 409,-62.72"/>
<polygon fill="black" stroke="black" points="412.5,-62.93 409,-52.93 405.5,-62.93 412.5,-62.93"/>
</g>
<!-- Node_120_conditions&#45;&gt;Node_220 -->
<g id="edge12" class="edge">
<title>Node_120_conditions&#45;&gt;Node_220</title>
<path fill="none" stroke="black" d="M688,-199.78C688,-194.32 688,-171.36 688,-150.72"/>
<polygon fill="black" stroke="black" points="691.5,-150.93 688,-140.93 684.5,-150.93 691.5,-150.93"/>
</g>
<!-- Node_240_body&#45;&gt;Node_260 -->
<g id="edge15" class="edge">
<title>Node_240_body&#45;&gt;Node_260</title>
<path fill="none" stroke="black" d="M606,-111.78C606,-106.32 606,-83.36 606,-62.72"/>
<polygon fill="black" stroke="black" points="609.5,-62.93 606,-52.93 602.5,-62.93 609.5,-62.93"/>
</g>
<!-- Node_280_body&#45;&gt;Node_300 -->
<g id="edge18" class="edge">
<title>Node_280_body&#45;&gt;Node_300</title>
<path fill="none" stroke="black" d="M248,-199.78C248,-194.32 248,-171.36 248,-150.72"/>
<polygon fill="black" stroke="black" points="251.5,-150.93 248,-140.93 244.5,-150.93 251.5,-150.93"/>
</g>
</g>
</svg>
