<?xml version="1.0" encoding="UTF-8" standalone="no"?>
<!DOCTYPE svg PUBLIC "-//W3C//DTD SVG 1.1//EN"
 "http://www.w3.org/Graphics/SVG/1.1/DTD/svg11.dtd">
<!-- Generated by graphviz version 8.1.0 (20230707.0739)
 -->
<!-- Title: Prism Pages: 1 -->
<svg width="294pt" height="647pt"
 viewBox="0.00 0.00 294.14 647.20" xmlns="http://www.w3.org/2000/svg" xmlns:xlink="http://www.w3.org/1999/xlink">
<g id="graph0" class="graph" transform="scale(1 1) rotate(0) translate(4 643.2)">
<title>Prism</title>
<polygon fill="white" stroke="none" points="-4,4 -4,-643.2 290.14,-643.2 290.14,4 -4,4"/>
<!-- Node_60 -->
<g id="node1" class="node">
<title>Node_60</title>
<polygon fill="#f2f2f2" stroke="none" points="215.42,-639.2 15.42,-639.2 15.42,-483.2 215.42,-483.2 215.42,-639.2"/>
<polygon fill="none" stroke="black" points="15.42,-613.2 15.42,-639.2 215.42,-639.2 215.42,-613.2 15.42,-613.2"/>
<text text-anchor="start" x="78.3" y="-621.9" font-family="Courier New" font-weight="bold" font-size="14.00">WhileNode</text>
<polygon fill="none" stroke="black" points="15.42,-587.2 15.42,-613.2 115.42,-613.2 115.42,-587.2 15.42,-587.2"/>
<text text-anchor="start" x="20.42" y="-594.9" font-family="Courier New" font-size="14.00">flags</text>
<polygon fill="none" stroke="black" points="115.42,-587.2 115.42,-613.2 215.42,-613.2 215.42,-587.2 115.42,-587.2"/>
<polygon fill="none" stroke="black" points="15.42,-561.2 15.42,-587.2 115.42,-587.2 115.42,-561.2 15.42,-561.2"/>
<text text-anchor="start" x="20.05" y="-568.9" font-family="Courier New" font-size="14.00">keyword_loc</text>
<polygon fill="none" stroke="black" points="115.42,-561.2 115.42,-587.2 215.42,-587.2 215.42,-561.2 115.42,-561.2"/>
<text text-anchor="start" x="120.05" y="-568.9" font-family="Courier New" font-size="14.00">(1,0)&#45;(1,5)</text>
<polygon fill="none" stroke="black" points="15.42,-535.2 15.42,-561.2 115.42,-561.2 115.42,-535.2 15.42,-535.2"/>
<text text-anchor="start" x="20.05" y="-542.9" font-family="Courier New" font-size="14.00">closing_loc</text>
<polygon fill="none" stroke="black" points="115.42,-535.2 115.42,-561.2 215.42,-561.2 215.42,-535.2 115.42,-535.2"/>
<text text-anchor="start" x="120.05" y="-542.9" font-family="Courier New" font-size="14.00">(3,0)&#45;(3,3)</text>
<polygon fill="none" stroke="black" points="15.42,-509.2 15.42,-535.2 215.42,-535.2 215.42,-509.2 15.42,-509.2"/>
<text text-anchor="start" x="20.42" y="-516.9" font-family="Courier New" font-size="14.00">predicate</text>
<polygon fill="none" stroke="black" points="15.42,-483.2 15.42,-509.2 215.42,-509.2 215.42,-483.2 15.42,-483.2"/>
<text text-anchor="start" x="20.42" y="-490.9" font-family="Courier New" font-size="14.00">statements</text>
</g>
<!-- Node_80 -->
<g id="node2" class="node">
<title>Node_80</title>
<polygon fill="#f2f2f2" stroke="none" points="94.92,-434.45 17.92,-434.45 17.92,-407.95 94.92,-407.95 94.92,-434.45"/>
<polygon fill="none" stroke="black" points="17.92,-407.95 17.92,-434.45 94.92,-434.45 94.92,-407.95 17.92,-407.95"/>
<text text-anchor="start" x="23.42" y="-417.15" font-family="Courier New" font-weight="bold" font-size="14.00">TrueNode</text>
</g>
<!-- Node_60&#45;&gt;Node_80 -->
<g id="edge1" class="edge">
<title>Node_60:predicate&#45;&gt;Node_80</title>
<path fill="none" stroke="black" d="M14.42,-522.2C-19.88,-522.2 15.9,-471.57 39.39,-442.36"/>
<polygon fill="black" stroke="black" points="42.56,-445.02 46.2,-435.06 37.15,-440.58 42.56,-445.02"/>
</g>
<!-- Node_100 -->
<g id="node3" class="node">
<title>Node_100</title>
<polygon fill="#f2f2f2" stroke="none" points="237.92,-447.2 112.92,-447.2 112.92,-395.2 237.92,-395.2 237.92,-447.2"/>
<polygon fill="none" stroke="black" points="112.92,-421.2 112.92,-447.2 237.92,-447.2 237.92,-421.2 112.92,-421.2"/>
<text text-anchor="start" x="117.67" y="-429.9" font-family="Courier New" font-weight="bold" font-size="14.00">StatementsNode</text>
<polygon fill="none" stroke="black" points="112.92,-395.2 112.92,-421.2 237.92,-421.2 237.92,-395.2 112.92,-395.2"/>
<text text-anchor="start" x="117.92" y="-402.9" font-family="Courier New" font-size="14.00">body</text>
</g>
<!-- Node_60&#45;&gt;Node_100 -->
<g id="edge2" class="edge">
<title>Node_60:statements&#45;&gt;Node_100</title>
<path fill="none" stroke="black" d="M216.42,-496.2C236.69,-496.2 223.2,-474.7 206.45,-454.88"/>
<polygon fill="black" stroke="black" points="208.64,-453.06 199.42,-447.84 203.37,-457.67 208.64,-453.06"/>
</g>
<!-- Node_100_body -->
<g id="node7" class="node">
<title>Node_100_body</title>
<ellipse fill="#f2f2f2" stroke="black" cx="175.42" cy="-357.4" rx="1.8" ry="1.8"/>
</g>
<!-- Node_100&#45;&gt;Node_100_body -->
<g id="edge3" class="edge">
<title>Node_100:body&#45;&gt;Node_100_body</title>
<path fill="none" stroke="black" d="M175.42,-395.2C175.42,-386.96 175.42,-377.69 175.42,-370.51"/>
<polygon fill="black" stroke="black" points="178.92,-370.54 175.42,-360.54 171.92,-370.54 178.92,-370.54"/>
</g>
<!-- Node_120 -->
<g id="node4" class="node">
<title>Node_120</title>
<polygon fill="#f2f2f2" stroke="none" points="275.42,-319.6 75.42,-319.6 75.42,-241.6 275.42,-241.6 275.42,-319.6"/>
<polygon fill="none" stroke="black" points="75.42,-293.6 75.42,-319.6 275.42,-319.6 275.42,-293.6 75.42,-293.6"/>
<text text-anchor="start" x="138.3" y="-302.3" font-family="Courier New" font-weight="bold" font-size="14.00">BreakNode</text>
<polygon fill="none" stroke="black" points="75.42,-267.6 75.42,-293.6 275.42,-293.6 275.42,-267.6 75.42,-267.6"/>
<text text-anchor="start" x="80.42" y="-275.3" font-family="Courier New" font-size="14.00">arguments</text>
<polygon fill="none" stroke="black" points="75.42,-241.6 75.42,-267.6 175.42,-267.6 175.42,-241.6 75.42,-241.6"/>
<text text-anchor="start" x="80.05" y="-249.3" font-family="Courier New" font-size="14.00">keyword_loc</text>
<polygon fill="none" stroke="black" points="175.42,-241.6 175.42,-267.6 275.42,-267.6 275.42,-241.6 175.42,-241.6"/>
<text text-anchor="start" x="180.05" y="-249.3" font-family="Courier New" font-size="14.00">(2,2)&#45;(2,7)</text>
</g>
<!-- Node_140 -->
<g id="node5" class="node">
<title>Node_140</title>
<polygon fill="#f2f2f2" stroke="none" points="233.92,-205.6 116.92,-205.6 116.92,-127.6 233.92,-127.6 233.92,-205.6"/>
<polygon fill="none" stroke="black" points="116.92,-179.6 116.92,-205.6 233.92,-205.6 233.92,-179.6 116.92,-179.6"/>
<text text-anchor="start" x="121.8" y="-188.3" font-family="Courier New" font-weight="bold" font-size="14.00">ArgumentsNode</text>
<polygon fill="none" stroke="black" points="116.92,-153.6 116.92,-179.6 195.92,-179.6 195.92,-153.6 116.92,-153.6"/>
<text text-anchor="start" x="121.92" y="-161.3" font-family="Courier New" font-size="14.00">flags</text>
<polygon fill="none" stroke="black" points="195.92,-153.6 195.92,-179.6 233.92,-179.6 233.92,-153.6 195.92,-153.6"/>
<polygon fill="none" stroke="black" points="116.92,-127.6 116.92,-153.6 233.92,-153.6 233.92,-127.6 116.92,-127.6"/>
<text text-anchor="start" x="121.92" y="-135.3" font-family="Courier New" font-size="14.00">arguments</text>
</g>
<!-- Node_120&#45;&gt;Node_140 -->
<g id="edge5" class="edge">
<title>Node_120:arguments&#45;&gt;Node_140</title>
<path fill="none" stroke="black" d="M276.42,-280.6C293.76,-280.6 283.43,-256.98 275.42,-241.6 267.78,-226.9 255.74,-214.37 242.62,-204.03"/>
<polygon fill="black" stroke="black" points="245,-200.69 234.88,-197.54 240.83,-206.31 245,-200.69"/>
</g>
<!-- Node_140_arguments -->
<g id="node8" class="node">
<title>Node_140_arguments</title>
<ellipse fill="#f2f2f2" stroke="black" cx="175.42" cy="-89.8" rx="1.8" ry="1.8"/>
</g>
<!-- Node_140&#45;&gt;Node_140_arguments -->
<g id="edge6" class="edge">
<title>Node_140:arguments&#45;&gt;Node_140_arguments</title>
<path fill="none" stroke="black" d="M175.42,-127.6C175.42,-119.36 175.42,-110.09 175.42,-102.91"/>
<polygon fill="black" stroke="black" points="178.92,-102.94 175.42,-92.94 171.92,-102.94 178.92,-102.94"/>
</g>
<!-- Node_160 -->
<g id="node6" class="node">
<title>Node_160</title>
<polygon fill="#f2f2f2" stroke="none" points="234.42,-52 116.42,-52 116.42,0 234.42,0 234.42,-52"/>
<polygon fill="none" stroke="black" points="116.42,-26 116.42,-52 234.42,-52 234.42,-26 116.42,-26"/>
<text text-anchor="start" x="130.05" y="-34.7" font-family="Courier New" font-weight="bold" font-size="14.00">IntegerNode</text>
<polygon fill="none" stroke="black" points="116.42,0 116.42,-26 167.42,-26 167.42,0 116.42,0"/>
<text text-anchor="start" x="121.3" y="-7.7" font-family="Courier New" font-size="14.00">flags</text>
<polygon fill="none" stroke="black" points="167.42,0 167.42,-26 234.42,-26 234.42,0 167.42,0"/>
<text text-anchor="start" x="172.05" y="-7.7" font-family="Courier New" font-size="14.00">decimal</text>
</g>
<!-- Node_100_body&#45;&gt;Node_120 -->
<g id="edge4" class="edge">
<title>Node_100_body&#45;&gt;Node_120</title>
<path fill="none" stroke="black" d="M175.42,-355.1C175.42,-351.66 175.42,-341.75 175.42,-330.29"/>
<polygon fill="black" stroke="black" points="178.92,-330.47 175.42,-320.47 171.92,-330.47 178.92,-330.47"/>
</g>
<!-- Node_140_arguments&#45;&gt;Node_160 -->
<g id="edge7" class="edge">
<title>Node_140_arguments&#45;&gt;Node_160</title>
<path fill="none" stroke="black" d="M175.42,-87.73C175.42,-84.45 175.42,-74.09 175.42,-62.84"/>
<polygon fill="black" stroke="black" points="178.92,-62.97 175.42,-52.97 171.92,-62.98 178.92,-62.97"/>
</g>
</g>
</svg>
