<?xml version="1.0" encoding="UTF-8" standalone="no"?>
<!DOCTYPE svg PUBLIC "-//W3C//DTD SVG 1.1//EN"
 "http://www.w3.org/Graphics/SVG/1.1/DTD/svg11.dtd">
<!-- Generated by graphviz version 8.1.0 (20230707.0739)
 -->
<!-- Title: Prism Pages: 1 -->
<svg width="398pt" height="812pt"
 viewBox="0.00 0.00 397.50 812.00" xmlns="http://www.w3.org/2000/svg" xmlns:xlink="http://www.w3.org/1999/xlink">
<g id="graph0" class="graph" transform="scale(1 1) rotate(0) translate(4 808)">
<title>Prism</title>
<polygon fill="white" stroke="none" points="-4,4 -4,-808 393.5,-808 393.5,4 -4,4"/>
<!-- Node_60 -->
<g id="node1" class="node">
<title>Node_60</title>
<polygon fill="#f2f2f2" stroke="none" points="323.5,-804 73.5,-804 73.5,-596 323.5,-596 323.5,-804"/>
<polygon fill="none" stroke="black" points="73.5,-778 73.5,-804 323.5,-804 323.5,-778 73.5,-778"/>
<text text-anchor="start" x="169.62" y="-786.7" font-family="Courier New" font-weight="bold" font-size="14.00">DefNode</text>
<polygon fill="none" stroke="black" points="73.5,-752 73.5,-778 223.5,-778 223.5,-752 73.5,-752"/>
<text text-anchor="start" x="78.5" y="-759.7" font-family="Courier New" font-size="14.00">name</text>
<polygon fill="none" stroke="black" points="223.5,-752 223.5,-778 323.5,-778 323.5,-752 223.5,-752"/>
<text text-anchor="start" x="257" y="-759.7" font-family="Courier New" font-size="14.00">:foo</text>
<polygon fill="none" stroke="black" points="73.5,-726 73.5,-752 223.5,-752 223.5,-726 73.5,-726"/>
<text text-anchor="start" x="78.5" y="-733.7" font-family="Courier New" font-size="14.00">name_loc</text>
<polygon fill="none" stroke="black" points="223.5,-726 223.5,-752 323.5,-752 323.5,-726 223.5,-726"/>
<text text-anchor="start" x="228.12" y="-733.7" font-family="Courier New" font-size="14.00">(1,4)&#45;(1,7)</text>
<polygon fill="none" stroke="black" points="73.5,-700 73.5,-726 323.5,-726 323.5,-700 73.5,-700"/>
<text text-anchor="start" x="78.5" y="-707.7" font-family="Courier New" font-size="14.00">body</text>
<polygon fill="none" stroke="black" points="73.5,-674 73.5,-700 223.5,-700 223.5,-674 73.5,-674"/>
<text text-anchor="start" x="78.5" y="-681.7" font-family="Courier New" font-size="14.00">locals</text>
<polygon fill="none" stroke="black" points="223.5,-674 223.5,-700 323.5,-700 323.5,-674 223.5,-674"/>
<text text-anchor="start" x="265.25" y="-681.7" font-family="Courier New" font-size="14.00">[]</text>
<polygon fill="none" stroke="black" points="73.5,-648 73.5,-674 223.5,-674 223.5,-648 73.5,-648"/>
<text text-anchor="start" x="78.38" y="-655.7" font-family="Courier New" font-size="14.00">locals_body_index</text>
<polygon fill="none" stroke="black" points="223.5,-648 223.5,-674 323.5,-674 323.5,-648 223.5,-648"/>
<text text-anchor="start" x="269.38" y="-655.7" font-family="Courier New" font-size="14.00">0</text>
<polygon fill="none" stroke="black" points="73.5,-622 73.5,-648 223.5,-648 223.5,-622 73.5,-622"/>
<text text-anchor="start" x="78.5" y="-629.7" font-family="Courier New" font-size="14.00">def_keyword_loc</text>
<polygon fill="none" stroke="black" points="223.5,-622 223.5,-648 323.5,-648 323.5,-622 223.5,-622"/>
<text text-anchor="start" x="228.12" y="-629.7" font-family="Courier New" font-size="14.00">(1,0)&#45;(1,3)</text>
<polygon fill="none" stroke="black" points="73.5,-596 73.5,-622 223.5,-622 223.5,-596 73.5,-596"/>
<text text-anchor="start" x="78.5" y="-603.7" font-family="Courier New" font-size="14.00">end_keyword_loc</text>
<polygon fill="none" stroke="black" points="223.5,-596 223.5,-622 323.5,-622 323.5,-596 223.5,-596"/>
<text text-anchor="start" x="228.12" y="-603.7" font-family="Courier New" font-size="14.00">(5,0)&#45;(5,3)</text>
</g>
<!-- Node_80 -->
<g id="node2" class="node">
<title>Node_80</title>
<polygon fill="#f2f2f2" stroke="none" points="315,-560 82,-560 82,-456 315,-456 315,-560"/>
<polygon fill="none" stroke="black" points="82,-534 82,-560 315,-560 315,-534 82,-534"/>
<text text-anchor="start" x="161.38" y="-542.7" font-family="Courier New" font-weight="bold" font-size="14.00">BeginNode</text>
<polygon fill="none" stroke="black" points="82,-508 82,-534 315,-534 315,-508 82,-508"/>
<text text-anchor="start" x="87" y="-515.7" font-family="Courier New" font-size="14.00">statements</text>
<polygon fill="none" stroke="black" points="82,-482 82,-508 315,-508 315,-482 82,-482"/>
<text text-anchor="start" x="87" y="-489.7" font-family="Courier New" font-size="14.00">rescue_clause</text>
<polygon fill="none" stroke="black" points="82,-456 82,-482 215,-482 215,-456 82,-456"/>
<text text-anchor="start" x="86.62" y="-463.7" font-family="Courier New" font-size="14.00">end_keyword_loc</text>
<polygon fill="none" stroke="black" points="215,-456 215,-482 315,-482 315,-456 215,-456"/>
<text text-anchor="start" x="219.62" y="-463.7" font-family="Courier New" font-size="14.00">(5,0)&#45;(5,3)</text>
</g>
<!-- Node_60&#45;&gt;Node_80 -->
<g id="edge1" class="edge">
<title>Node_60:body&#45;&gt;Node_80</title>
<path fill="none" stroke="black" d="M324.5,-713C376.5,-713 347.77,-641.99 323.5,-596 317.87,-585.33 310.27,-575.7 301.59,-567.08"/>
<polygon fill="black" stroke="black" points="304.42,-565 294.71,-560.76 299.65,-570.13 304.42,-565"/>
</g>
<!-- Node_100 -->
<g id="node3" class="node">
<title>Node_100</title>
<polygon fill="#f2f2f2" stroke="none" points="171,-394 46,-394 46,-342 171,-342 171,-394"/>
<polygon fill="none" stroke="black" points="46,-368 46,-394 171,-394 171,-368 46,-368"/>
<text text-anchor="start" x="50.75" y="-376.7" font-family="Courier New" font-weight="bold" font-size="14.00">StatementsNode</text>
<polygon fill="none" stroke="black" points="46,-342 46,-368 171,-368 171,-342 46,-342"/>
<text text-anchor="start" x="51" y="-349.7" font-family="Courier New" font-size="14.00">body</text>
</g>
<!-- Node_80&#45;&gt;Node_100 -->
<g id="edge2" class="edge">
<title>Node_80:statements&#45;&gt;Node_100</title>
<path fill="none" stroke="black" d="M80.5,-521C32.88,-521 64.74,-447.94 88.77,-403.13"/>
<polygon fill="black" stroke="black" points="92.17,-405.21 93.9,-394.76 86.03,-401.85 92.17,-405.21"/>
</g>
<!-- Node_120 -->
<g id="node5" class="node">
<title>Node_120</title>
<polygon fill="#f2f2f2" stroke="none" points="389.5,-420 189.5,-420 189.5,-316 389.5,-316 389.5,-420"/>
<polygon fill="none" stroke="black" points="189.5,-394 189.5,-420 389.5,-420 389.5,-394 189.5,-394"/>
<text text-anchor="start" x="248.25" y="-402.7" font-family="Courier New" font-weight="bold" font-size="14.00">RescueNode</text>
<polygon fill="none" stroke="black" points="189.5,-368 189.5,-394 289.5,-394 289.5,-368 189.5,-368"/>
<text text-anchor="start" x="194.12" y="-375.7" font-family="Courier New" font-size="14.00">keyword_loc</text>
<polygon fill="none" stroke="black" points="289.5,-368 289.5,-394 389.5,-394 389.5,-368 289.5,-368"/>
<text text-anchor="start" x="294.12" y="-375.7" font-family="Courier New" font-size="14.00">(3,0)&#45;(3,6)</text>
<polygon fill="none" stroke="black" points="189.5,-342 189.5,-368 289.5,-368 289.5,-342 189.5,-342"/>
<text text-anchor="start" x="194.5" y="-349.7" font-family="Courier New" font-size="14.00">exceptions</text>
<polygon fill="none" stroke="black" points="289.5,-342 289.5,-368 389.5,-368 389.5,-342 289.5,-342"/>
<text text-anchor="start" x="331.25" y="-349.7" font-family="Courier New" font-size="14.00">[]</text>
<polygon fill="none" stroke="black" points="189.5,-316 189.5,-342 389.5,-342 389.5,-316 189.5,-316"/>
<text text-anchor="start" x="194.5" y="-323.7" font-family="Courier New" font-size="14.00">statements</text>
</g>
<!-- Node_80&#45;&gt;Node_120 -->
<g id="edge3" class="edge">
<title>Node_80:rescue_clause&#45;&gt;Node_120</title>
<path fill="none" stroke="black" d="M316.5,-495C345.8,-495 338.06,-462.03 323.5,-429.82"/>
<polygon fill="black" stroke="black" points="326.24,-428.43 318.8,-420.89 319.92,-431.42 326.24,-428.43"/>
</g>
<!-- Node_100_body -->
<g id="node8" class="node">
<title>Node_100_body</title>
<ellipse fill="#f2f2f2" stroke="black" cx="108.5" cy="-254" rx="1.8" ry="1.8"/>
</g>
<!-- Node_100&#45;&gt;Node_100_body -->
<g id="edge4" class="edge">
<title>Node_100:body&#45;&gt;Node_100_body</title>
<path fill="none" stroke="black" d="M108.5,-341C108.5,-314.61 108.5,-283.68 108.5,-267.04"/>
<polygon fill="black" stroke="black" points="112,-267.21 108.5,-257.21 105,-267.21 112,-267.21"/>
</g>
<!-- Node_140 -->
<g id="node4" class="node">
<title>Node_140</title>
<polygon fill="#f2f2f2" stroke="none" points="217,-192 0,-192 0,-88 217,-88 217,-192"/>
<polygon fill="none" stroke="black" points="0,-166 0,-192 217,-192 217,-166 0,-166"/>
<text text-anchor="start" x="75.5" y="-174.7" font-family="Courier New" font-weight="bold" font-size="14.00">CallNode</text>
<polygon fill="none" stroke="black" points="0,-140 0,-166 100,-166 100,-140 0,-140"/>
<text text-anchor="start" x="5" y="-147.7" font-family="Courier New" font-size="14.00">flags</text>
<polygon fill="none" stroke="black" points="100,-140 100,-166 217,-166 217,-140 100,-140"/>
<text text-anchor="start" x="104.88" y="-147.7" font-family="Courier New" font-size="14.00">variable_call</text>
<polygon fill="none" stroke="black" points="0,-114 0,-140 100,-140 100,-114 0,-114"/>
<text text-anchor="start" x="5" y="-121.7" font-family="Courier New" font-size="14.00">name</text>
<polygon fill="none" stroke="black" points="100,-114 100,-140 217,-140 217,-114 100,-114"/>
<text text-anchor="start" x="142" y="-121.7" font-family="Courier New" font-size="14.00">:bar</text>
<polygon fill="none" stroke="black" points="0,-88 0,-114 100,-114 100,-88 0,-88"/>
<text text-anchor="start" x="4.62" y="-95.7" font-family="Courier New" font-size="14.00">message_loc</text>
<polygon fill="none" stroke="black" points="100,-88 100,-114 217,-114 217,-88 100,-88"/>
<text text-anchor="start" x="113.12" y="-95.7" font-family="Courier New" font-size="14.00">(2,2)&#45;(2,5)</text>
</g>
<!-- Node_160 -->
<g id="node6" class="node">
<title>Node_160</title>
<polygon fill="#f2f2f2" stroke="none" points="352,-280 227,-280 227,-228 352,-228 352,-280"/>
<polygon fill="none" stroke="black" points="227,-254 227,-280 352,-280 352,-254 227,-254"/>
<text text-anchor="start" x="231.75" y="-262.7" font-family="Courier New" font-weight="bold" font-size="14.00">StatementsNode</text>
<polygon fill="none" stroke="black" points="227,-228 227,-254 352,-254 352,-228 227,-228"/>
<text text-anchor="start" x="232" y="-235.7" font-family="Courier New" font-size="14.00">body</text>
</g>
<!-- Node_120&#45;&gt;Node_160 -->
<g id="edge6" class="edge">
<title>Node_120:statements&#45;&gt;Node_160</title>
<path fill="none" stroke="black" d="M289.5,-316C289.5,-307.85 289.5,-299.08 289.5,-290.8"/>
<polygon fill="black" stroke="black" points="293,-290.93 289.5,-280.93 286,-290.93 293,-290.93"/>
</g>
<!-- Node_160_body -->
<g id="node9" class="node">
<title>Node_160_body</title>
<ellipse fill="#f2f2f2" stroke="black" cx="289.5" cy="-140" rx="1.8" ry="1.8"/>
</g>
<!-- Node_160&#45;&gt;Node_160_body -->
<g id="edge7" class="edge">
<title>Node_160:body&#45;&gt;Node_160_body</title>
<path fill="none" stroke="black" d="M289.5,-228C289.5,-201.31 289.5,-170.01 289.5,-153.18"/>
<polygon fill="black" stroke="black" points="293,-153.23 289.5,-143.23 286,-153.23 293,-153.23"/>
</g>
<!-- Node_180 -->
<g id="node7" class="node">
<title>Node_180</title>
<polygon fill="#f2f2f2" stroke="none" points="348.5,-52 230.5,-52 230.5,0 348.5,0 348.5,-52"/>
<polygon fill="none" stroke="black" points="230.5,-26 230.5,-52 348.5,-52 348.5,-26 230.5,-26"/>
<text text-anchor="start" x="244.12" y="-34.7" font-family="Courier New" font-weight="bold" font-size="14.00">IntegerNode</text>
<polygon fill="none" stroke="black" points="230.5,0 230.5,-26 281.5,-26 281.5,0 230.5,0"/>
<text text-anchor="start" x="235.38" y="-7.7" font-family="Courier New" font-size="14.00">flags</text>
<polygon fill="none" stroke="black" points="281.5,0 281.5,-26 348.5,-26 348.5,0 281.5,0"/>
<text text-anchor="start" x="286.12" y="-7.7" font-family="Courier New" font-size="14.00">decimal</text>
</g>
<!-- Node_100_body&#45;&gt;Node_140 -->
<g id="edge5" class="edge">
<title>Node_100_body&#45;&gt;Node_140</title>
<path fill="none" stroke="black" d="M108.5,-251.74C108.5,-246.43 108.5,-225.07 108.5,-202.51"/>
<polygon fill="black" stroke="black" points="112,-202.76 108.5,-192.76 105,-202.76 112,-202.76"/>
</g>
<!-- Node_160_body&#45;&gt;Node_180 -->
<g id="edge8" class="edge">
<title>Node_160_body&#45;&gt;Node_180</title>
<path fill="none" stroke="black" d="M289.5,-137.74C289.5,-130.37 289.5,-92.07 289.5,-62.55"/>
<polygon fill="black" stroke="black" points="293,-62.75 289.5,-52.75 286,-62.75 293,-62.75"/>
</g>
</g>
</svg>
