<?xml version="1.0" encoding="UTF-8" standalone="no"?>
<!DOCTYPE svg PUBLIC "-//W3C//DTD SVG 1.1//EN"
 "http://www.w3.org/Graphics/SVG/1.1/DTD/svg11.dtd">
<!-- Generated by graphviz version 8.1.0 (20230707.0739)
 -->
<!-- Title: Prism Pages: 1 -->
<svg width="589pt" height="522pt"
 viewBox="0.00 0.00 588.50 522.00" xmlns="http://www.w3.org/2000/svg" xmlns:xlink="http://www.w3.org/1999/xlink">
<g id="graph0" class="graph" transform="scale(1 1) rotate(0) translate(4 518)">
<title>Prism</title>
<polygon fill="white" stroke="none" points="-4,4 -4,-518 584.5,-518 584.5,4 -4,4"/>
<!-- Node_60 -->
<g id="node1" class="node">
<title>Node_60</title>
<polygon fill="#f2f2f2" stroke="none" points="452.5,-514 226.5,-514 226.5,-280 452.5,-280 452.5,-514"/>
<polygon fill="none" stroke="black" points="226.5,-488 226.5,-514 452.5,-514 452.5,-488 226.5,-488"/>
<text text-anchor="start" x="248.75" y="-496.7" font-family="Courier New" font-weight="bold" font-size="14.00">IndexOperatorWriteNode</text>
<polygon fill="none" stroke="black" points="226.5,-462 226.5,-488 335.5,-488 335.5,-462 226.5,-462"/>
<text text-anchor="start" x="231.5" y="-469.7" font-family="Courier New" font-size="14.00">flags</text>
<polygon fill="none" stroke="black" points="335.5,-462 335.5,-488 452.5,-488 452.5,-462 335.5,-462"/>
<polygon fill="none" stroke="black" points="226.5,-436 226.5,-462 452.5,-462 452.5,-436 226.5,-436"/>
<text text-anchor="start" x="231.5" y="-443.7" font-family="Courier New" font-size="14.00">receiver</text>
<polygon fill="none" stroke="black" points="226.5,-410 226.5,-436 335.5,-436 335.5,-410 226.5,-410"/>
<text text-anchor="start" x="231.5" y="-417.7" font-family="Courier New" font-size="14.00">opening_loc</text>
<polygon fill="none" stroke="black" points="335.5,-410 335.5,-436 452.5,-436 452.5,-410 335.5,-410"/>
<text text-anchor="start" x="348.62" y="-417.7" font-family="Courier New" font-size="14.00">(1,3)&#45;(1,4)</text>
<polygon fill="none" stroke="black" points="226.5,-384 226.5,-410 335.5,-410 335.5,-384 226.5,-384"/>
<text text-anchor="start" x="231.5" y="-391.7" font-family="Courier New" font-size="14.00">closing_loc</text>
<polygon fill="none" stroke="black" points="335.5,-384 335.5,-410 452.5,-410 452.5,-384 335.5,-384"/>
<text text-anchor="start" x="348.62" y="-391.7" font-family="Courier New" font-size="14.00">(1,8)&#45;(1,9)</text>
<polygon fill="none" stroke="black" points="226.5,-358 226.5,-384 452.5,-384 452.5,-358 226.5,-358"/>
<text text-anchor="start" x="231.5" y="-365.7" font-family="Courier New" font-size="14.00">block</text>
<polygon fill="none" stroke="black" points="226.5,-332 226.5,-358 335.5,-358 335.5,-332 226.5,-332"/>
<text text-anchor="start" x="231.5" y="-339.7" font-family="Courier New" font-size="14.00">operator</text>
<polygon fill="none" stroke="black" points="335.5,-332 335.5,-358 452.5,-358 452.5,-332 335.5,-332"/>
<text text-anchor="start" x="385.75" y="-339.7" font-family="Courier New" font-size="14.00">:+</text>
<polygon fill="none" stroke="black" points="226.5,-306 226.5,-332 335.5,-332 335.5,-306 226.5,-306"/>
<text text-anchor="start" x="231.5" y="-313.7" font-family="Courier New" font-size="14.00">operator_loc</text>
<polygon fill="none" stroke="black" points="335.5,-306 335.5,-332 452.5,-332 452.5,-306 335.5,-306"/>
<text text-anchor="start" x="340.38" y="-313.7" font-family="Courier New" font-size="14.00">(1,10)&#45;(1,12)</text>
<polygon fill="none" stroke="black" points="226.5,-280 226.5,-306 452.5,-306 452.5,-280 226.5,-280"/>
<text text-anchor="start" x="231.5" y="-287.7" font-family="Courier New" font-size="14.00">value</text>
</g>
<!-- Node_80 -->
<g id="node2" class="node">
<title>Node_80</title>
<polygon fill="#f2f2f2" stroke="none" points="217,-244 0,-244 0,-140 217,-140 217,-244"/>
<polygon fill="none" stroke="black" points="0,-218 0,-244 217,-244 217,-218 0,-218"/>
<text text-anchor="start" x="75.5" y="-226.7" font-family="Courier New" font-weight="bold" font-size="14.00">CallNode</text>
<polygon fill="none" stroke="black" points="0,-192 0,-218 100,-218 100,-192 0,-192"/>
<text text-anchor="start" x="5" y="-199.7" font-family="Courier New" font-size="14.00">flags</text>
<polygon fill="none" stroke="black" points="100,-192 100,-218 217,-218 217,-192 100,-192"/>
<text text-anchor="start" x="104.88" y="-199.7" font-family="Courier New" font-size="14.00">variable_call</text>
<polygon fill="none" stroke="black" points="0,-166 0,-192 100,-192 100,-166 0,-166"/>
<text text-anchor="start" x="5" y="-173.7" font-family="Courier New" font-size="14.00">name</text>
<polygon fill="none" stroke="black" points="100,-166 100,-192 217,-192 217,-166 100,-166"/>
<text text-anchor="start" x="142" y="-173.7" font-family="Courier New" font-size="14.00">:foo</text>
<polygon fill="none" stroke="black" points="0,-140 0,-166 100,-166 100,-140 0,-140"/>
<text text-anchor="start" x="4.62" y="-147.7" font-family="Courier New" font-size="14.00">message_loc</text>
<polygon fill="none" stroke="black" points="100,-140 100,-166 217,-166 217,-140 100,-140"/>
<text text-anchor="start" x="113.12" y="-147.7" font-family="Courier New" font-size="14.00">(1,0)&#45;(1,3)</text>
</g>
<!-- Node_60&#45;&gt;Node_80 -->
<g id="edge1" class="edge">
<title>Node_60:receiver&#45;&gt;Node_80</title>
<path fill="none" stroke="black" d="M225.5,-449C140.38,-449 116.93,-330.48 110.63,-254.73"/>
<polygon fill="black" stroke="black" points="114.06,-254.6 109.82,-244.88 107.08,-255.12 114.06,-254.6"/>
</g>
<!-- Node_100 -->
<g id="node3" class="node">
<title>Node_100</title>
<polygon fill="#f2f2f2" stroke="none" points="444,-231 235,-231 235,-153 444,-153 444,-231"/>
<polygon fill="none" stroke="black" points="235,-205 235,-231 444,-231 444,-205 235,-205"/>
<text text-anchor="start" x="269.38" y="-213.7" font-family="Courier New" font-weight="bold" font-size="14.00">BlockArgumentNode</text>
<polygon fill="none" stroke="black" points="235,-179 235,-205 444,-205 444,-179 235,-179"/>
<text text-anchor="start" x="240" y="-186.7" font-family="Courier New" font-size="14.00">expression</text>
<polygon fill="none" stroke="black" points="235,-153 235,-179 344,-179 344,-153 235,-153"/>
<text text-anchor="start" x="240" y="-160.7" font-family="Courier New" font-size="14.00">operator_loc</text>
<polygon fill="none" stroke="black" points="344,-153 344,-179 444,-179 444,-153 344,-153"/>
<text text-anchor="start" x="348.62" y="-160.7" font-family="Courier New" font-size="14.00">(1,4)&#45;(1,5)</text>
</g>
<!-- Node_60&#45;&gt;Node_100 -->
<g id="edge2" class="edge">
<title>Node_60:block&#45;&gt;Node_100</title>
<path fill="none" stroke="black" d="M453.5,-371C493.95,-371 470.56,-316.19 452.5,-280 444.32,-263.61 431.43,-249.43 417.24,-237.55"/>
<polygon fill="black" stroke="black" points="419.77,-234.29 409.76,-230.82 415.42,-239.77 419.77,-234.29"/>
</g>
<!-- Node_120 -->
<g id="node5" class="node">
<title>Node_120</title>
<polygon fill="#f2f2f2" stroke="none" points="580.5,-218 462.5,-218 462.5,-166 580.5,-166 580.5,-218"/>
<polygon fill="none" stroke="black" points="462.5,-192 462.5,-218 580.5,-218 580.5,-192 462.5,-192"/>
<text text-anchor="start" x="476.12" y="-200.7" font-family="Courier New" font-weight="bold" font-size="14.00">IntegerNode</text>
<polygon fill="none" stroke="black" points="462.5,-166 462.5,-192 513.5,-192 513.5,-166 462.5,-166"/>
<text text-anchor="start" x="467.38" y="-173.7" font-family="Courier New" font-size="14.00">flags</text>
<polygon fill="none" stroke="black" points="513.5,-166 513.5,-192 580.5,-192 580.5,-166 513.5,-166"/>
<text text-anchor="start" x="518.12" y="-173.7" font-family="Courier New" font-size="14.00">decimal</text>
</g>
<!-- Node_60&#45;&gt;Node_120 -->
<g id="edge3" class="edge">
<title>Node_60:value&#45;&gt;Node_120</title>
<path fill="none" stroke="black" d="M453.5,-293C485.75,-293 503.79,-256.98 513.05,-228.18"/>
<polygon fill="black" stroke="black" points="516.59,-229.56 516.07,-218.98 509.88,-227.57 516.59,-229.56"/>
</g>
<!-- Node_140 -->
<g id="node4" class="node">
<title>Node_140</title>
<polygon fill="#f2f2f2" stroke="none" points="448,-104 231,-104 231,0 448,0 448,-104"/>
<polygon fill="none" stroke="black" points="231,-78 231,-104 448,-104 448,-78 231,-78"/>
<text text-anchor="start" x="306.5" y="-86.7" font-family="Courier New" font-weight="bold" font-size="14.00">CallNode</text>
<polygon fill="none" stroke="black" points="231,-52 231,-78 331,-78 331,-52 231,-52"/>
<text text-anchor="start" x="236" y="-59.7" font-family="Courier New" font-size="14.00">flags</text>
<polygon fill="none" stroke="black" points="331,-52 331,-78 448,-78 448,-52 331,-52"/>
<text text-anchor="start" x="335.88" y="-59.7" font-family="Courier New" font-size="14.00">variable_call</text>
<polygon fill="none" stroke="black" points="231,-26 231,-52 331,-52 331,-26 231,-26"/>
<text text-anchor="start" x="236" y="-33.7" font-family="Courier New" font-size="14.00">name</text>
<polygon fill="none" stroke="black" points="331,-26 331,-52 448,-52 448,-26 331,-26"/>
<text text-anchor="start" x="373" y="-33.7" font-family="Courier New" font-size="14.00">:bar</text>
<polygon fill="none" stroke="black" points="231,0 231,-26 331,-26 331,0 231,0"/>
<text text-anchor="start" x="235.62" y="-7.7" font-family="Courier New" font-size="14.00">message_loc</text>
<polygon fill="none" stroke="black" points="331,0 331,-26 448,-26 448,0 331,0"/>
<text text-anchor="start" x="344.12" y="-7.7" font-family="Courier New" font-size="14.00">(1,5)&#45;(1,8)</text>
</g>
<!-- Node_100&#45;&gt;Node_140 -->
<g id="edge4" class="edge">
<title>Node_100:expression&#45;&gt;Node_140</title>
<path fill="none" stroke="black" d="M445.5,-192C454.17,-192 448.02,-160.92 444.5,-153 437.84,-137.99 427.76,-124.14 416.43,-111.84"/>
<polygon fill="black" stroke="black" points="419.3,-109.73 409.83,-104.97 414.27,-114.6 419.3,-109.73"/>
</g>
</g>
</svg>
