<?xml version="1.0" encoding="UTF-8" standalone="no"?>
<!DOCTYPE svg PUBLIC "-//W3C//DTD SVG 1.1//EN"
 "http://www.w3.org/Graphics/SVG/1.1/DTD/svg11.dtd">
<!-- Generated by graphviz version 8.1.0 (20230707.0739)
 -->
<!-- Title: Prism Pages: 1 -->
<svg width="389pt" height="777pt"
 viewBox="0.00 0.00 389.00 777.20" xmlns="http://www.w3.org/2000/svg" xmlns:xlink="http://www.w3.org/1999/xlink">
<g id="graph0" class="graph" transform="scale(1 1) rotate(0) translate(4 773.2)">
<title>Prism</title>
<polygon fill="white" stroke="none" points="-4,4 -4,-773.2 385,-773.2 385,4 -4,4"/>
<!-- Node_60 -->
<g id="node1" class="node">
<title>Node_60</title>
<polygon fill="#f2f2f2" stroke="none" points="306.5,-769.2 73.5,-769.2 73.5,-639.2 306.5,-639.2 306.5,-769.2"/>
<polygon fill="none" stroke="black" points="73.5,-743.2 73.5,-769.2 306.5,-769.2 306.5,-743.2 73.5,-743.2"/>
<text text-anchor="start" x="165.25" y="-751.9" font-family="Courier New" font-weight="bold" font-size="14.00">IfNode</text>
<polygon fill="none" stroke="black" points="73.5,-717.2 73.5,-743.2 206.5,-743.2 206.5,-717.2 73.5,-717.2"/>
<text text-anchor="start" x="78.5" y="-724.9" font-family="Courier New" font-size="14.00">if_keyword_loc</text>
<polygon fill="none" stroke="black" points="206.5,-717.2 206.5,-743.2 306.5,-743.2 306.5,-717.2 206.5,-717.2"/>
<text text-anchor="start" x="211.12" y="-724.9" font-family="Courier New" font-size="14.00">(1,0)&#45;(1,2)</text>
<polygon fill="none" stroke="black" points="73.5,-691.2 73.5,-717.2 306.5,-717.2 306.5,-691.2 73.5,-691.2"/>
<text text-anchor="start" x="78.5" y="-698.9" font-family="Courier New" font-size="14.00">predicate</text>
<polygon fill="none" stroke="black" points="73.5,-665.2 73.5,-691.2 306.5,-691.2 306.5,-665.2 73.5,-665.2"/>
<text text-anchor="start" x="78.5" y="-672.9" font-family="Courier New" font-size="14.00">statements</text>
<polygon fill="none" stroke="black" points="73.5,-639.2 73.5,-665.2 206.5,-665.2 206.5,-639.2 73.5,-639.2"/>
<text text-anchor="start" x="78.12" y="-646.9" font-family="Courier New" font-size="14.00">end_keyword_loc</text>
<polygon fill="none" stroke="black" points="206.5,-639.2 206.5,-665.2 306.5,-665.2 306.5,-639.2 206.5,-639.2"/>
<text text-anchor="start" x="211.12" y="-646.9" font-family="Courier New" font-size="14.00">(3,0)&#45;(3,3)</text>
</g>
<!-- Node_80 -->
<g id="node2" class="node">
<title>Node_80</title>
<polygon fill="#f2f2f2" stroke="none" points="200,-603.2 0,-603.2 0,-447.2 200,-447.2 200,-603.2"/>
<polygon fill="none" stroke="black" points="0,-577.2 0,-603.2 200,-603.2 200,-577.2 0,-577.2"/>
<text text-anchor="start" x="29.88" y="-585.9" font-family="Courier New" font-weight="bold" font-size="14.00">MatchLastLineNode</text>
<polygon fill="none" stroke="black" points="0,-551.2 0,-577.2 100,-577.2 100,-551.2 0,-551.2"/>
<text text-anchor="start" x="5" y="-558.9" font-family="Courier New" font-size="14.00">flags</text>
<polygon fill="none" stroke="black" points="100,-551.2 100,-577.2 200,-577.2 200,-551.2 100,-551.2"/>
<polygon fill="none" stroke="black" points="0,-525.2 0,-551.2 100,-551.2 100,-525.2 0,-525.2"/>
<text text-anchor="start" x="4.62" y="-532.9" font-family="Courier New" font-size="14.00">opening_loc</text>
<polygon fill="none" stroke="black" points="100,-525.2 100,-551.2 200,-551.2 200,-525.2 100,-525.2"/>
<text text-anchor="start" x="104.62" y="-532.9" font-family="Courier New" font-size="14.00">(1,3)&#45;(1,4)</text>
<polygon fill="none" stroke="black" points="0,-499.2 0,-525.2 100,-525.2 100,-499.2 0,-499.2"/>
<text text-anchor="start" x="4.62" y="-506.9" font-family="Courier New" font-size="14.00">content_loc</text>
<polygon fill="none" stroke="black" points="100,-499.2 100,-525.2 200,-525.2 200,-499.2 100,-499.2"/>
<text text-anchor="start" x="104.62" y="-506.9" font-family="Courier New" font-size="14.00">(1,4)&#45;(1,6)</text>
<polygon fill="none" stroke="black" points="0,-473.2 0,-499.2 100,-499.2 100,-473.2 0,-473.2"/>
<text text-anchor="start" x="4.62" y="-480.9" font-family="Courier New" font-size="14.00">closing_loc</text>
<polygon fill="none" stroke="black" points="100,-473.2 100,-499.2 200,-499.2 200,-473.2 100,-473.2"/>
<text text-anchor="start" x="104.62" y="-480.9" font-family="Courier New" font-size="14.00">(1,6)&#45;(1,7)</text>
<polygon fill="none" stroke="black" points="0,-447.2 0,-473.2 100,-473.2 100,-447.2 0,-447.2"/>
<text text-anchor="start" x="5" y="-454.9" font-family="Courier New" font-size="14.00">unescaped</text>
<polygon fill="none" stroke="black" points="100,-447.2 100,-473.2 200,-473.2 200,-447.2 100,-447.2"/>
<text text-anchor="start" x="133.5" y="-454.9" font-family="Courier New" font-size="14.00">&quot;^T&quot;</text>
</g>
<!-- Node_60&#45;&gt;Node_80 -->
<g id="edge1" class="edge">
<title>Node_60:predicate&#45;&gt;Node_80</title>
<path fill="none" stroke="black" d="M72,-704.2C31.27,-704.2 39.21,-658.16 56.85,-612.91"/>
<polygon fill="black" stroke="black" points="60.36,-614.56 60.88,-603.98 53.88,-611.93 60.36,-614.56"/>
</g>
<!-- Node_100 -->
<g id="node3" class="node">
<title>Node_100</title>
<polygon fill="#f2f2f2" stroke="none" points="343.5,-551.2 218.5,-551.2 218.5,-499.2 343.5,-499.2 343.5,-551.2"/>
<polygon fill="none" stroke="black" points="218.5,-525.2 218.5,-551.2 343.5,-551.2 343.5,-525.2 218.5,-525.2"/>
<text text-anchor="start" x="223.25" y="-533.9" font-family="Courier New" font-weight="bold" font-size="14.00">StatementsNode</text>
<polygon fill="none" stroke="black" points="218.5,-499.2 218.5,-525.2 343.5,-525.2 343.5,-499.2 218.5,-499.2"/>
<text text-anchor="start" x="223.5" y="-506.9" font-family="Courier New" font-size="14.00">body</text>
</g>
<!-- Node_60&#45;&gt;Node_100 -->
<g id="edge2" class="edge">
<title>Node_60:statements&#45;&gt;Node_100</title>
<path fill="none" stroke="black" d="M308,-678.2C355.47,-678.2 324.33,-605.45 300.64,-560.61"/>
<polygon fill="black" stroke="black" points="303.26,-559.1 295.43,-551.96 297.1,-562.42 303.26,-559.1"/>
</g>
<!-- Node_100_body -->
<g id="node7" class="node">
<title>Node_100_body</title>
<ellipse fill="#f2f2f2" stroke="black" cx="281" cy="-409.4" rx="1.8" ry="1.8"/>
</g>
<!-- Node_100&#45;&gt;Node_100_body -->
<g id="edge3" class="edge">
<title>Node_100:body&#45;&gt;Node_100_body</title>
<path fill="none" stroke="black" d="M281,-498.2C281,-471.12 281,-439.35 281,-422.44"/>
<polygon fill="black" stroke="black" points="284.5,-422.64 281,-412.64 277.5,-422.64 284.5,-422.64"/>
</g>
<!-- Node_120 -->
<g id="node4" class="node">
<title>Node_120</title>
<polygon fill="#f2f2f2" stroke="none" points="381,-371.6 181,-371.6 181,-241.6 381,-241.6 381,-371.6"/>
<polygon fill="none" stroke="black" points="181,-345.6 181,-371.6 381,-371.6 381,-345.6 181,-345.6"/>
<text text-anchor="start" x="248" y="-354.3" font-family="Courier New" font-weight="bold" font-size="14.00">CallNode</text>
<polygon fill="none" stroke="black" points="181,-319.6 181,-345.6 281,-345.6 281,-319.6 181,-319.6"/>
<text text-anchor="start" x="186" y="-327.3" font-family="Courier New" font-size="14.00">flags</text>
<polygon fill="none" stroke="black" points="281,-319.6 281,-345.6 381,-345.6 381,-319.6 281,-319.6"/>
<polygon fill="none" stroke="black" points="181,-293.6 181,-319.6 281,-319.6 281,-293.6 181,-293.6"/>
<text text-anchor="start" x="186" y="-301.3" font-family="Courier New" font-size="14.00">name</text>
<polygon fill="none" stroke="black" points="281,-293.6 281,-319.6 381,-319.6 381,-293.6 281,-293.6"/>
<text text-anchor="start" x="310.38" y="-301.3" font-family="Courier New" font-size="14.00">:puts</text>
<polygon fill="none" stroke="black" points="181,-267.6 181,-293.6 281,-293.6 281,-267.6 181,-267.6"/>
<text text-anchor="start" x="185.62" y="-275.3" font-family="Courier New" font-size="14.00">message_loc</text>
<polygon fill="none" stroke="black" points="281,-267.6 281,-293.6 381,-293.6 381,-267.6 281,-267.6"/>
<text text-anchor="start" x="285.62" y="-275.3" font-family="Courier New" font-size="14.00">(2,2)&#45;(2,6)</text>
<polygon fill="none" stroke="black" points="181,-241.6 181,-267.6 381,-267.6 381,-241.6 181,-241.6"/>
<text text-anchor="start" x="186" y="-249.3" font-family="Courier New" font-size="14.00">arguments</text>
</g>
<!-- Node_140 -->
<g id="node5" class="node">
<title>Node_140</title>
<polygon fill="#f2f2f2" stroke="none" points="339.5,-205.6 222.5,-205.6 222.5,-127.6 339.5,-127.6 339.5,-205.6"/>
<polygon fill="none" stroke="black" points="222.5,-179.6 222.5,-205.6 339.5,-205.6 339.5,-179.6 222.5,-179.6"/>
<text text-anchor="start" x="227.38" y="-188.3" font-family="Courier New" font-weight="bold" font-size="14.00">ArgumentsNode</text>
<polygon fill="none" stroke="black" points="222.5,-153.6 222.5,-179.6 301.5,-179.6 301.5,-153.6 222.5,-153.6"/>
<text text-anchor="start" x="227.5" y="-161.3" font-family="Courier New" font-size="14.00">flags</text>
<polygon fill="none" stroke="black" points="301.5,-153.6 301.5,-179.6 339.5,-179.6 339.5,-153.6 301.5,-153.6"/>
<polygon fill="none" stroke="black" points="222.5,-127.6 222.5,-153.6 339.5,-153.6 339.5,-127.6 222.5,-127.6"/>
<text text-anchor="start" x="227.5" y="-135.3" font-family="Courier New" font-size="14.00">arguments</text>
</g>
<!-- Node_120&#45;&gt;Node_140 -->
<g id="edge5" class="edge">
<title>Node_120:arguments&#45;&gt;Node_140</title>
<path fill="none" stroke="black" d="M281,-241.6C281,-233.38 281,-224.65 281,-216.17"/>
<polygon fill="black" stroke="black" points="284.5,-216.25 281,-206.25 277.5,-216.25 284.5,-216.25"/>
</g>
<!-- Node_140_arguments -->
<g id="node8" class="node">
<title>Node_140_arguments</title>
<ellipse fill="#f2f2f2" stroke="black" cx="281" cy="-89.8" rx="1.8" ry="1.8"/>
</g>
<!-- Node_140&#45;&gt;Node_140_arguments -->
<g id="edge6" class="edge">
<title>Node_140:arguments&#45;&gt;Node_140_arguments</title>
<path fill="none" stroke="black" d="M281,-127.6C281,-119.36 281,-110.09 281,-102.91"/>
<polygon fill="black" stroke="black" points="284.5,-102.94 281,-92.94 277.5,-102.94 284.5,-102.94"/>
</g>
<!-- Node_160 -->
<g id="node6" class="node">
<title>Node_160</title>
<polygon fill="#f2f2f2" stroke="none" points="376.5,-52 185.5,-52 185.5,0 376.5,0 376.5,-52"/>
<polygon fill="none" stroke="black" points="185.5,-26 185.5,-52 376.5,-52 376.5,-26 185.5,-26"/>
<text text-anchor="start" x="190.25" y="-34.7" font-family="Courier New" font-weight="bold" font-size="14.00">GlobalVariableReadNode</text>
<polygon fill="none" stroke="black" points="185.5,0 185.5,-26 285.5,-26 285.5,0 185.5,0"/>
<text text-anchor="start" x="190.5" y="-7.7" font-family="Courier New" font-size="14.00">name</text>
<polygon fill="none" stroke="black" points="285.5,0 285.5,-26 376.5,-26 376.5,0 285.5,0"/>
<text text-anchor="start" x="318.62" y="-7.7" font-family="Courier New" font-size="14.00">:$_</text>
</g>
<!-- Node_100_body&#45;&gt;Node_120 -->
<g id="edge4" class="edge">
<title>Node_100_body&#45;&gt;Node_120</title>
<path fill="none" stroke="black" d="M281,-407.27C281,-404.06 281,-394.33 281,-382.14"/>
<polygon fill="black" stroke="black" points="284.5,-382.4 281,-372.4 277.5,-382.4 284.5,-382.4"/>
</g>
<!-- Node_140_arguments&#45;&gt;Node_160 -->
<g id="edge7" class="edge">
<title>Node_140_arguments&#45;&gt;Node_160</title>
<path fill="none" stroke="black" d="M281,-87.73C281,-84.45 281,-74.09 281,-62.84"/>
<polygon fill="black" stroke="black" points="284.5,-62.97 281,-52.97 277.5,-62.98 284.5,-62.97"/>
</g>
</g>
</svg>
