<?xml version="1.0" encoding="UTF-8" standalone="no"?>
<!DOCTYPE svg PUBLIC "-//W3C//DTD SVG 1.1//EN"
 "http://www.w3.org/Graphics/SVG/1.1/DTD/svg11.dtd">
<!-- Generated by graphviz version 8.1.0 (20230707.0739)
 -->
<!-- Title: Prism Pages: 1 -->
<svg width="219pt" height="240pt"
 viewBox="0.00 0.00 219.37 239.60" xmlns="http://www.w3.org/2000/svg" xmlns:xlink="http://www.w3.org/1999/xlink">
<g id="graph0" class="graph" transform="scale(1 1) rotate(0) translate(4 235.6)">
<title>Prism</title>
<polygon fill="white" stroke="none" points="-4,4 -4,-235.6 215.37,-235.6 215.37,4 -4,4"/>
<!-- Node_60 -->
<g id="node1" class="node">
<title>Node_60</title>
<polygon fill="#f2f2f2" stroke="none" points="200,-231.6 0,-231.6 0,-153.6 200,-153.6 200,-231.6"/>
<polygon fill="none" stroke="black" points="0,-205.6 0,-231.6 200,-231.6 200,-205.6 0,-205.6"/>
<text text-anchor="start" x="62.88" y="-214.3" font-family="Courier New" font-weight="bold" font-size="14.00">UndefNode</text>
<polygon fill="none" stroke="black" points="0,-179.6 0,-205.6 200,-205.6 200,-179.6 0,-179.6"/>
<text text-anchor="start" x="5" y="-187.3" font-family="Courier New" font-size="14.00">names</text>
<polygon fill="none" stroke="black" points="0,-153.6 0,-179.6 100,-179.6 100,-153.6 0,-153.6"/>
<text text-anchor="start" x="4.62" y="-161.3" font-family="Courier New" font-size="14.00">keyword_loc</text>
<polygon fill="none" stroke="black" points="100,-153.6 100,-179.6 200,-179.6 200,-153.6 100,-153.6"/>
<text text-anchor="start" x="104.62" y="-161.3" font-family="Courier New" font-size="14.00">(1,0)&#45;(1,5)</text>
</g>
<!-- Node_60_names -->
<g id="node3" class="node">
<title>Node_60_names</title>
<ellipse fill="#f2f2f2" stroke="black" cx="100" cy="-115.8" rx="1.8" ry="1.8"/>
</g>
<!-- Node_60&#45;&gt;Node_60_names -->
<g id="edge1" class="edge">
<title>Node_60:names&#45;&gt;Node_60_names</title>
<path fill="none" stroke="black" d="M201,-192.6C218.34,-192.6 210.1,-167.69 200,-153.6 179.59,-125.12 134.64,-118.64 112.64,-117.19"/>
<polygon fill="black" stroke="black" points="112.94,-113.67 102.81,-116.79 112.68,-120.66 112.94,-113.67"/>
</g>
<!-- Node_80 -->
<g id="node2" class="node">
<title>Node_80</title>
<polygon fill="#f2f2f2" stroke="none" points="192,-78 8,-78 8,0 192,0 192,-78"/>
<polygon fill="none" stroke="black" points="8,-52 8,-78 192,-78 192,-52 8,-52"/>
<text text-anchor="start" x="58.75" y="-60.7" font-family="Courier New" font-weight="bold" font-size="14.00">SymbolNode</text>
<polygon fill="none" stroke="black" points="8,-26 8,-52 92,-52 92,-26 8,-26"/>
<text text-anchor="start" x="12.88" y="-33.7" font-family="Courier New" font-size="14.00">value_loc</text>
<polygon fill="none" stroke="black" points="92,-26 92,-52 192,-52 192,-26 92,-26"/>
<text text-anchor="start" x="96.62" y="-33.7" font-family="Courier New" font-size="14.00">(1,6)&#45;(1,9)</text>
<polygon fill="none" stroke="black" points="8,0 8,-26 92,-26 92,0 8,0"/>
<text text-anchor="start" x="12.88" y="-7.7" font-family="Courier New" font-size="14.00">unescaped</text>
<polygon fill="none" stroke="black" points="92,0 92,-26 192,-26 192,0 92,0"/>
<text text-anchor="start" x="121.38" y="-7.7" font-family="Courier New" font-size="14.00">&quot;foo&quot;</text>
</g>
<!-- Node_60_names&#45;&gt;Node_80 -->
<g id="edge2" class="edge">
<title>Node_60_names&#45;&gt;Node_80</title>
<path fill="none" stroke="black" d="M100,-113.5C100,-110.06 100,-100.15 100,-88.69"/>
<polygon fill="black" stroke="black" points="103.5,-88.87 100,-78.87 96.5,-88.87 103.5,-88.87"/>
</g>
</g>
</svg>
