<?xml version="1.0" encoding="UTF-8" standalone="no"?>
<!DOCTYPE svg PUBLIC "-//W3C//DTD SVG 1.1//EN"
 "http://www.w3.org/Graphics/SVG/1.1/DTD/svg11.dtd">
<!-- Generated by graphviz version 8.1.0 (20230707.0739)
 -->
<!-- Title: Prism Pages: 1 -->
<svg width="756pt" height="992pt"
 viewBox="0.00 0.00 756.00 991.60" xmlns="http://www.w3.org/2000/svg" xmlns:xlink="http://www.w3.org/1999/xlink">
<g id="graph0" class="graph" transform="scale(1 1) rotate(0) translate(4 987.6)">
<title>Prism</title>
<polygon fill="white" stroke="none" points="-4,4 -4,-987.6 752,-987.6 752,4 -4,4"/>
<!-- Node_60 -->
<g id="node1" class="node">
<title>Node_60</title>
<polygon fill="#f2f2f2" stroke="none" points="348,-983.6 130,-983.6 130,-879.6 348,-879.6 348,-983.6"/>
<polygon fill="none" stroke="black" points="130,-957.6 130,-983.6 348,-983.6 348,-957.6 130,-957.6"/>
<text text-anchor="start" x="164.75" y="-966.3" font-family="Courier New" font-weight="bold" font-size="14.00">MatchPredicateNode</text>
<polygon fill="none" stroke="black" points="130,-931.6 130,-957.6 348,-957.6 348,-931.6 130,-931.6"/>
<text text-anchor="start" x="135" y="-939.3" font-family="Courier New" font-size="14.00">value</text>
<polygon fill="none" stroke="black" points="130,-905.6 130,-931.6 348,-931.6 348,-905.6 130,-905.6"/>
<text text-anchor="start" x="135" y="-913.3" font-family="Courier New" font-size="14.00">pattern</text>
<polygon fill="none" stroke="black" points="130,-879.6 130,-905.6 239,-905.6 239,-879.6 130,-879.6"/>
<text text-anchor="start" x="135" y="-887.3" font-family="Courier New" font-size="14.00">operator_loc</text>
<polygon fill="none" stroke="black" points="239,-879.6 239,-905.6 348,-905.6 348,-879.6 239,-879.6"/>
<text text-anchor="start" x="244" y="-887.3" font-family="Courier New" font-size="14.00">(1,9)&#45;(1,11)</text>
</g>
<!-- Node_80 -->
<g id="node2" class="node">
<title>Node_80</title>
<polygon fill="#f2f2f2" stroke="none" points="230.5,-817.6 13.5,-817.6 13.5,-713.6 230.5,-713.6 230.5,-817.6"/>
<polygon fill="none" stroke="black" points="13.5,-791.6 13.5,-817.6 230.5,-817.6 230.5,-791.6 13.5,-791.6"/>
<text text-anchor="start" x="89" y="-800.3" font-family="Courier New" font-weight="bold" font-size="14.00">CallNode</text>
<polygon fill="none" stroke="black" points="13.5,-765.6 13.5,-791.6 113.5,-791.6 113.5,-765.6 13.5,-765.6"/>
<text text-anchor="start" x="18.5" y="-773.3" font-family="Courier New" font-size="14.00">flags</text>
<polygon fill="none" stroke="black" points="113.5,-765.6 113.5,-791.6 230.5,-791.6 230.5,-765.6 113.5,-765.6"/>
<text text-anchor="start" x="118.38" y="-773.3" font-family="Courier New" font-size="14.00">variable_call</text>
<polygon fill="none" stroke="black" points="13.5,-739.6 13.5,-765.6 113.5,-765.6 113.5,-739.6 13.5,-739.6"/>
<text text-anchor="start" x="18.5" y="-747.3" font-family="Courier New" font-size="14.00">name</text>
<polygon fill="none" stroke="black" points="113.5,-739.6 113.5,-765.6 230.5,-765.6 230.5,-739.6 113.5,-739.6"/>
<text text-anchor="start" x="134.88" y="-747.3" font-family="Courier New" font-size="14.00">:integers</text>
<polygon fill="none" stroke="black" points="13.5,-713.6 13.5,-739.6 113.5,-739.6 113.5,-713.6 13.5,-713.6"/>
<text text-anchor="start" x="18.12" y="-721.3" font-family="Courier New" font-size="14.00">message_loc</text>
<polygon fill="none" stroke="black" points="113.5,-713.6 113.5,-739.6 230.5,-739.6 230.5,-713.6 113.5,-713.6"/>
<text text-anchor="start" x="126.62" y="-721.3" font-family="Courier New" font-size="14.00">(1,0)&#45;(1,8)</text>
</g>
<!-- Node_60&#45;&gt;Node_80 -->
<g id="edge1" class="edge">
<title>Node_60:value&#45;&gt;Node_80</title>
<path fill="none" stroke="black" d="M129,-944.6C80.97,-944.6 88.64,-879.09 102.1,-827.56"/>
<polygon fill="black" stroke="black" points="105.69,-828.7 104.95,-818.13 98.94,-826.86 105.69,-828.7"/>
</g>
<!-- Node_100 -->
<g id="node3" class="node">
<title>Node_100</title>
<polygon fill="#f2f2f2" stroke="none" points="465.5,-843.6 248.5,-843.6 248.5,-687.6 465.5,-687.6 465.5,-843.6"/>
<polygon fill="none" stroke="black" points="248.5,-817.6 248.5,-843.6 465.5,-843.6 465.5,-817.6 248.5,-817.6"/>
<text text-anchor="start" x="295.12" y="-826.3" font-family="Courier New" font-weight="bold" font-size="14.00">FindPatternNode</text>
<polygon fill="none" stroke="black" points="248.5,-791.6 248.5,-817.6 465.5,-817.6 465.5,-791.6 248.5,-791.6"/>
<text text-anchor="start" x="253.5" y="-799.3" font-family="Courier New" font-size="14.00">left</text>
<polygon fill="none" stroke="black" points="248.5,-765.6 248.5,-791.6 465.5,-791.6 465.5,-765.6 248.5,-765.6"/>
<text text-anchor="start" x="253.5" y="-773.3" font-family="Courier New" font-size="14.00">requireds</text>
<polygon fill="none" stroke="black" points="248.5,-739.6 248.5,-765.6 465.5,-765.6 465.5,-739.6 248.5,-739.6"/>
<text text-anchor="start" x="253.5" y="-747.3" font-family="Courier New" font-size="14.00">right</text>
<polygon fill="none" stroke="black" points="248.5,-713.6 248.5,-739.6 348.5,-739.6 348.5,-713.6 248.5,-713.6"/>
<text text-anchor="start" x="253.12" y="-721.3" font-family="Courier New" font-size="14.00">opening_loc</text>
<polygon fill="none" stroke="black" points="348.5,-713.6 348.5,-739.6 465.5,-739.6 465.5,-713.6 348.5,-713.6"/>
<text text-anchor="start" x="353.38" y="-721.3" font-family="Courier New" font-size="14.00">(1,12)&#45;(1,13)</text>
<polygon fill="none" stroke="black" points="248.5,-687.6 248.5,-713.6 348.5,-713.6 348.5,-687.6 248.5,-687.6"/>
<text text-anchor="start" x="253.12" y="-695.3" font-family="Courier New" font-size="14.00">closing_loc</text>
<polygon fill="none" stroke="black" points="348.5,-687.6 348.5,-713.6 465.5,-713.6 465.5,-687.6 348.5,-687.6"/>
<text text-anchor="start" x="353.38" y="-695.3" font-family="Courier New" font-size="14.00">(1,38)&#45;(1,39)</text>
</g>
<!-- Node_60&#45;&gt;Node_100 -->
<g id="edge2" class="edge">
<title>Node_60:pattern&#45;&gt;Node_100</title>
<path fill="none" stroke="black" d="M349,-918.6C379.41,-918.6 384.1,-887.88 380.04,-854.06"/>
<polygon fill="black" stroke="black" points="383.41,-853.89 378.52,-844.49 376.48,-854.89 383.41,-853.89"/>
</g>
<!-- Node_120 -->
<g id="node4" class="node">
<title>Node_120</title>
<polygon fill="#f2f2f2" stroke="none" points="226,-651.6 0,-651.6 0,-599.6 226,-599.6 226,-651.6"/>
<polygon fill="none" stroke="black" points="0,-625.6 0,-651.6 226,-651.6 226,-625.6 0,-625.6"/>
<text text-anchor="start" x="75.88" y="-634.3" font-family="Courier New" font-weight="bold" font-size="14.00">SplatNode</text>
<polygon fill="none" stroke="black" points="0,-599.6 0,-625.6 109,-625.6 109,-599.6 0,-599.6"/>
<text text-anchor="start" x="5" y="-607.3" font-family="Courier New" font-size="14.00">operator_loc</text>
<polygon fill="none" stroke="black" points="109,-599.6 109,-625.6 226,-625.6 226,-599.6 109,-599.6"/>
<text text-anchor="start" x="113.88" y="-607.3" font-family="Courier New" font-size="14.00">(1,13)&#45;(1,14)</text>
</g>
<!-- Node_100&#45;&gt;Node_120 -->
<g id="edge3" class="edge">
<title>Node_100:left&#45;&gt;Node_120</title>
<path fill="none" stroke="black" d="M247,-804.6C233.98,-804.6 247.26,-698.41 240,-687.6 231.47,-674.9 219.52,-664.76 206.34,-656.69"/>
<polygon fill="black" stroke="black" points="208.47,-653.31 198.04,-651.43 205.02,-659.4 208.47,-653.31"/>
</g>
<!-- Node_180 -->
<g id="node11" class="node">
<title>Node_180</title>
<polygon fill="#f2f2f2" stroke="none" points="470,-651.6 244,-651.6 244,-599.6 470,-599.6 470,-651.6"/>
<polygon fill="none" stroke="black" points="244,-625.6 244,-651.6 470,-651.6 470,-625.6 244,-625.6"/>
<text text-anchor="start" x="319.88" y="-634.3" font-family="Courier New" font-weight="bold" font-size="14.00">SplatNode</text>
<polygon fill="none" stroke="black" points="244,-599.6 244,-625.6 353,-625.6 353,-599.6 244,-599.6"/>
<text text-anchor="start" x="249" y="-607.3" font-family="Courier New" font-size="14.00">operator_loc</text>
<polygon fill="none" stroke="black" points="353,-599.6 353,-625.6 470,-625.6 470,-599.6 353,-599.6"/>
<text text-anchor="start" x="357.88" y="-607.3" font-family="Courier New" font-size="14.00">(1,37)&#45;(1,38)</text>
</g>
<!-- Node_100&#45;&gt;Node_180 -->
<g id="edge7" class="edge">
<title>Node_100:right&#45;&gt;Node_180</title>
<path fill="none" stroke="black" d="M467,-752.6C495.89,-752.6 480.8,-712.41 466,-687.6 458.69,-675.36 447.95,-665.38 436.02,-657.31"/>
<polygon fill="black" stroke="black" points="438.04,-653.82 427.7,-651.51 434.34,-659.77 438.04,-653.82"/>
</g>
<!-- Node_100_requireds -->
<g id="node12" class="node">
<title>Node_100_requireds</title>
<ellipse fill="#f2f2f2" stroke="black" cx="490" cy="-625.6" rx="1.8" ry="1.8"/>
</g>
<!-- Node_100&#45;&gt;Node_100_requireds -->
<g id="edge4" class="edge">
<title>Node_100:requireds&#45;&gt;Node_100_requireds</title>
<path fill="none" stroke="black" d="M467,-778.6C523.98,-778.6 501.92,-672.88 493.02,-637.78"/>
<polygon fill="black" stroke="black" points="496.25,-637.32 490.28,-628.57 489.49,-639.14 496.25,-637.32"/>
</g>
<!-- Node_140 -->
<g id="node5" class="node">
<title>Node_140</title>
<polygon fill="#f2f2f2" stroke="none" points="473.5,-537.6 274.5,-537.6 274.5,-459.6 473.5,-459.6 473.5,-537.6"/>
<polygon fill="none" stroke="black" points="274.5,-511.6 274.5,-537.6 473.5,-537.6 473.5,-511.6 274.5,-511.6"/>
<text text-anchor="start" x="279.12" y="-520.3" font-family="Courier New" font-weight="bold" font-size="14.00">LocalVariableTargetNode</text>
<polygon fill="none" stroke="black" points="274.5,-485.6 274.5,-511.6 369.5,-511.6 369.5,-485.6 274.5,-485.6"/>
<text text-anchor="start" x="279.5" y="-493.3" font-family="Courier New" font-size="14.00">name</text>
<polygon fill="none" stroke="black" points="369.5,-485.6 369.5,-511.6 473.5,-511.6 473.5,-485.6 369.5,-485.6"/>
<text text-anchor="start" x="396.75" y="-493.3" font-family="Courier New" font-size="14.00">:value</text>
<polygon fill="none" stroke="black" points="274.5,-459.6 274.5,-485.6 369.5,-485.6 369.5,-459.6 274.5,-459.6"/>
<text text-anchor="start" x="279.5" y="-467.3" font-family="Courier New" font-size="14.00">depth</text>
<polygon fill="none" stroke="black" points="369.5,-459.6 369.5,-485.6 473.5,-485.6 473.5,-459.6 369.5,-459.6"/>
<text text-anchor="start" x="417.38" y="-467.3" font-family="Courier New" font-size="14.00">0</text>
</g>
<!-- Node_160 -->
<g id="node6" class="node">
<title>Node_160</title>
<polygon fill="#f2f2f2" stroke="none" points="718,-563.6 492,-563.6 492,-433.6 718,-433.6 718,-563.6"/>
<polygon fill="none" stroke="black" points="492,-537.6 492,-563.6 718,-563.6 718,-537.6 492,-537.6"/>
<text text-anchor="start" x="522.5" y="-546.3" font-family="Courier New" font-weight="bold" font-size="14.00">PinnedExpressionNode</text>
<polygon fill="none" stroke="black" points="492,-511.6 492,-537.6 718,-537.6 718,-511.6 492,-511.6"/>
<text text-anchor="start" x="497" y="-519.3" font-family="Courier New" font-size="14.00">expression</text>
<polygon fill="none" stroke="black" points="492,-485.6 492,-511.6 601,-511.6 601,-485.6 492,-485.6"/>
<text text-anchor="start" x="497" y="-493.3" font-family="Courier New" font-size="14.00">operator_loc</text>
<polygon fill="none" stroke="black" points="601,-485.6 601,-511.6 718,-511.6 718,-485.6 601,-485.6"/>
<text text-anchor="start" x="605.88" y="-493.3" font-family="Courier New" font-size="14.00">(1,23)&#45;(1,24)</text>
<polygon fill="none" stroke="black" points="492,-459.6 492,-485.6 601,-485.6 601,-459.6 492,-459.6"/>
<text text-anchor="start" x="497" y="-467.3" font-family="Courier New" font-size="14.00">lparen_loc</text>
<polygon fill="none" stroke="black" points="601,-459.6 601,-485.6 718,-485.6 718,-459.6 601,-459.6"/>
<text text-anchor="start" x="605.88" y="-467.3" font-family="Courier New" font-size="14.00">(1,24)&#45;(1,25)</text>
<polygon fill="none" stroke="black" points="492,-433.6 492,-459.6 601,-459.6 601,-433.6 492,-433.6"/>
<text text-anchor="start" x="497" y="-441.3" font-family="Courier New" font-size="14.00">rparen_loc</text>
<polygon fill="none" stroke="black" points="601,-433.6 601,-459.6 718,-459.6 718,-433.6 601,-433.6"/>
<text text-anchor="start" x="605.88" y="-441.3" font-family="Courier New" font-size="14.00">(1,34)&#45;(1,35)</text>
</g>
<!-- Node_200 -->
<g id="node7" class="node">
<title>Node_200</title>
<polygon fill="#f2f2f2" stroke="none" points="713.5,-397.6 496.5,-397.6 496.5,-241.6 713.5,-241.6 713.5,-397.6"/>
<polygon fill="none" stroke="black" points="496.5,-371.6 496.5,-397.6 713.5,-397.6 713.5,-371.6 496.5,-371.6"/>
<text text-anchor="start" x="572" y="-380.3" font-family="Courier New" font-weight="bold" font-size="14.00">CallNode</text>
<polygon fill="none" stroke="black" points="496.5,-345.6 496.5,-371.6 596.5,-371.6 596.5,-345.6 496.5,-345.6"/>
<text text-anchor="start" x="501.5" y="-353.3" font-family="Courier New" font-size="14.00">flags</text>
<polygon fill="none" stroke="black" points="596.5,-345.6 596.5,-371.6 713.5,-371.6 713.5,-345.6 596.5,-345.6"/>
<polygon fill="none" stroke="black" points="496.5,-319.6 496.5,-345.6 713.5,-345.6 713.5,-319.6 496.5,-319.6"/>
<text text-anchor="start" x="501.5" y="-327.3" font-family="Courier New" font-size="14.00">receiver</text>
<polygon fill="none" stroke="black" points="496.5,-293.6 496.5,-319.6 596.5,-319.6 596.5,-293.6 496.5,-293.6"/>
<text text-anchor="start" x="501.5" y="-301.3" font-family="Courier New" font-size="14.00">name</text>
<polygon fill="none" stroke="black" points="596.5,-293.6 596.5,-319.6 713.5,-319.6 713.5,-293.6 596.5,-293.6"/>
<text text-anchor="start" x="646.75" y="-301.3" font-family="Courier New" font-size="14.00">:+</text>
<polygon fill="none" stroke="black" points="496.5,-267.6 496.5,-293.6 596.5,-293.6 596.5,-267.6 496.5,-267.6"/>
<text text-anchor="start" x="501.12" y="-275.3" font-family="Courier New" font-size="14.00">message_loc</text>
<polygon fill="none" stroke="black" points="596.5,-267.6 596.5,-293.6 713.5,-293.6 713.5,-267.6 596.5,-267.6"/>
<text text-anchor="start" x="601.38" y="-275.3" font-family="Courier New" font-size="14.00">(1,31)&#45;(1,32)</text>
<polygon fill="none" stroke="black" points="496.5,-241.6 496.5,-267.6 713.5,-267.6 713.5,-241.6 496.5,-241.6"/>
<text text-anchor="start" x="501.5" y="-249.3" font-family="Courier New" font-size="14.00">arguments</text>
</g>
<!-- Node_160&#45;&gt;Node_200 -->
<g id="edge8" class="edge">
<title>Node_160:expression&#45;&gt;Node_200</title>
<path fill="none" stroke="black" d="M719,-524.6C759.45,-524.6 733.68,-470.88 718,-433.6 714.01,-424.11 708.8,-415 702.81,-406.35"/>
<polygon fill="black" stroke="black" points="705.05,-404.49 696.3,-398.51 699.41,-408.64 705.05,-404.49"/>
</g>
<!-- Node_220 -->
<g id="node8" class="node">
<title>Node_220</title>
<polygon fill="#f2f2f2" stroke="none" points="612.5,-205.6 429.5,-205.6 429.5,-127.6 612.5,-127.6 612.5,-205.6"/>
<polygon fill="none" stroke="black" points="429.5,-179.6 429.5,-205.6 612.5,-205.6 612.5,-179.6 429.5,-179.6"/>
<text text-anchor="start" x="434.38" y="-188.3" font-family="Courier New" font-weight="bold" font-size="14.00">LocalVariableReadNode</text>
<polygon fill="none" stroke="black" points="429.5,-153.6 429.5,-179.6 516.5,-179.6 516.5,-153.6 429.5,-153.6"/>
<text text-anchor="start" x="434.5" y="-161.3" font-family="Courier New" font-size="14.00">name</text>
<polygon fill="none" stroke="black" points="516.5,-153.6 516.5,-179.6 612.5,-179.6 612.5,-153.6 516.5,-153.6"/>
<text text-anchor="start" x="539.75" y="-161.3" font-family="Courier New" font-size="14.00">:value</text>
<polygon fill="none" stroke="black" points="429.5,-127.6 429.5,-153.6 516.5,-153.6 516.5,-127.6 429.5,-127.6"/>
<text text-anchor="start" x="434.5" y="-135.3" font-family="Courier New" font-size="14.00">depth</text>
<polygon fill="none" stroke="black" points="516.5,-127.6 516.5,-153.6 612.5,-153.6 612.5,-127.6 516.5,-127.6"/>
<text text-anchor="start" x="560.38" y="-135.3" font-family="Courier New" font-size="14.00">0</text>
</g>
<!-- Node_200&#45;&gt;Node_220 -->
<g id="edge9" class="edge">
<title>Node_200:receiver&#45;&gt;Node_220</title>
<path fill="none" stroke="black" d="M495,-332.6C447.12,-332.6 471.82,-263.95 495.39,-215.21"/>
<polygon fill="black" stroke="black" points="498.93,-216.97 500.23,-206.45 492.65,-213.86 498.93,-216.97"/>
</g>
<!-- Node_240 -->
<g id="node9" class="node">
<title>Node_240</title>
<polygon fill="#f2f2f2" stroke="none" points="747.5,-205.6 630.5,-205.6 630.5,-127.6 747.5,-127.6 747.5,-205.6"/>
<polygon fill="none" stroke="black" points="630.5,-179.6 630.5,-205.6 747.5,-205.6 747.5,-179.6 630.5,-179.6"/>
<text text-anchor="start" x="635.38" y="-188.3" font-family="Courier New" font-weight="bold" font-size="14.00">ArgumentsNode</text>
<polygon fill="none" stroke="black" points="630.5,-153.6 630.5,-179.6 709.5,-179.6 709.5,-153.6 630.5,-153.6"/>
<text text-anchor="start" x="635.5" y="-161.3" font-family="Courier New" font-size="14.00">flags</text>
<polygon fill="none" stroke="black" points="709.5,-153.6 709.5,-179.6 747.5,-179.6 747.5,-153.6 709.5,-153.6"/>
<polygon fill="none" stroke="black" points="630.5,-127.6 630.5,-153.6 747.5,-153.6 747.5,-127.6 630.5,-127.6"/>
<text text-anchor="start" x="635.5" y="-135.3" font-family="Courier New" font-size="14.00">arguments</text>
</g>
<!-- Node_200&#45;&gt;Node_240 -->
<g id="edge10" class="edge">
<title>Node_200:arguments&#45;&gt;Node_240</title>
<path fill="none" stroke="black" d="M715,-254.6C733.92,-254.6 729.39,-235.49 719.23,-215.17"/>
<polygon fill="black" stroke="black" points="721.86,-213.67 714.06,-206.51 715.69,-216.97 721.86,-213.67"/>
</g>
<!-- Node_240_arguments -->
<g id="node13" class="node">
<title>Node_240_arguments</title>
<ellipse fill="#f2f2f2" stroke="black" cx="689" cy="-89.8" rx="1.8" ry="1.8"/>
</g>
<!-- Node_240&#45;&gt;Node_240_arguments -->
<g id="edge11" class="edge">
<title>Node_240:arguments&#45;&gt;Node_240_arguments</title>
<path fill="none" stroke="black" d="M689,-127.6C689,-119.36 689,-110.09 689,-102.91"/>
<polygon fill="black" stroke="black" points="692.5,-102.94 689,-92.94 685.5,-102.94 692.5,-102.94"/>
</g>
<!-- Node_260 -->
<g id="node10" class="node">
<title>Node_260</title>
<polygon fill="#f2f2f2" stroke="none" points="748,-52 630,-52 630,0 748,0 748,-52"/>
<polygon fill="none" stroke="black" points="630,-26 630,-52 748,-52 748,-26 630,-26"/>
<text text-anchor="start" x="643.62" y="-34.7" font-family="Courier New" font-weight="bold" font-size="14.00">IntegerNode</text>
<polygon fill="none" stroke="black" points="630,0 630,-26 681,-26 681,0 630,0"/>
<text text-anchor="start" x="634.88" y="-7.7" font-family="Courier New" font-size="14.00">flags</text>
<polygon fill="none" stroke="black" points="681,0 681,-26 748,-26 748,0 681,0"/>
<text text-anchor="start" x="685.62" y="-7.7" font-family="Courier New" font-size="14.00">decimal</text>
</g>
<!-- Node_100_requireds&#45;&gt;Node_140 -->
<g id="edge5" class="edge">
<title>Node_100_requireds&#45;&gt;Node_140</title>
<path fill="none" stroke="black" d="M489.71,-623.57C488.67,-620.02 484.89,-607.98 479,-599.6 465.08,-579.77 446.78,-560.71 429.36,-544.65"/>
<polygon fill="black" stroke="black" points="432.21,-542.6 422.44,-538.49 427.51,-547.79 432.21,-542.6"/>
</g>
<!-- Node_100_requireds&#45;&gt;Node_160 -->
<g id="edge6" class="edge">
<title>Node_100_requireds&#45;&gt;Node_160</title>
<path fill="none" stroke="black" d="M490.73,-623.8C494.89,-619.28 516.14,-596.19 539.21,-571.12"/>
<polygon fill="black" stroke="black" points="541.21,-574.02 545.41,-564.29 536.06,-569.28 541.21,-574.02"/>
</g>
<!-- Node_240_arguments&#45;&gt;Node_260 -->
<g id="edge12" class="edge">
<title>Node_240_arguments&#45;&gt;Node_260</title>
<path fill="none" stroke="black" d="M689,-87.73C689,-84.45 689,-74.09 689,-62.84"/>
<polygon fill="black" stroke="black" points="692.5,-62.97 689,-52.97 685.5,-62.98 692.5,-62.97"/>
</g>
</g>
</svg>
