<?xml version="1.0" encoding="UTF-8" standalone="no"?>
<!DOCTYPE svg PUBLIC "-//W3C//DTD SVG 1.1//EN"
 "http://www.w3.org/Graphics/SVG/1.1/DTD/svg11.dtd">
<!-- Generated by graphviz version 8.1.0 (20230707.0739)
 -->
<!-- Title: Prism Pages: 1 -->
<svg width="352pt" height="712pt"
 viewBox="0.00 0.00 351.50 711.60" xmlns="http://www.w3.org/2000/svg" xmlns:xlink="http://www.w3.org/1999/xlink">
<g id="graph0" class="graph" transform="scale(1 1) rotate(0) translate(4 707.6)">
<title>Prism</title>
<polygon fill="white" stroke="none" points="-4,4 -4,-707.6 347.5,-707.6 347.5,4 -4,4"/>
<!-- Node_60 -->
<g id="node1" class="node">
<title>Node_60</title>
<polygon fill="#f2f2f2" stroke="none" points="252.5,-703.6 52.5,-703.6 52.5,-573.6 252.5,-573.6 252.5,-703.6"/>
<polygon fill="none" stroke="black" points="52.5,-677.6 52.5,-703.6 252.5,-703.6 252.5,-677.6 52.5,-677.6"/>
<text text-anchor="start" x="119.5" y="-686.3" font-family="Courier New" font-weight="bold" font-size="14.00">CallNode</text>
<polygon fill="none" stroke="black" points="52.5,-651.6 52.5,-677.6 152.5,-677.6 152.5,-651.6 52.5,-651.6"/>
<text text-anchor="start" x="57.5" y="-659.3" font-family="Courier New" font-size="14.00">flags</text>
<polygon fill="none" stroke="black" points="152.5,-651.6 152.5,-677.6 252.5,-677.6 252.5,-651.6 152.5,-651.6"/>
<polygon fill="none" stroke="black" points="52.5,-625.6 52.5,-651.6 152.5,-651.6 152.5,-625.6 52.5,-625.6"/>
<text text-anchor="start" x="57.5" y="-633.3" font-family="Courier New" font-size="14.00">name</text>
<polygon fill="none" stroke="black" points="152.5,-625.6 152.5,-651.6 252.5,-651.6 252.5,-625.6 152.5,-625.6"/>
<text text-anchor="start" x="186" y="-633.3" font-family="Courier New" font-size="14.00">:foo</text>
<polygon fill="none" stroke="black" points="52.5,-599.6 52.5,-625.6 152.5,-625.6 152.5,-599.6 52.5,-599.6"/>
<text text-anchor="start" x="57.12" y="-607.3" font-family="Courier New" font-size="14.00">message_loc</text>
<polygon fill="none" stroke="black" points="152.5,-599.6 152.5,-625.6 252.5,-625.6 252.5,-599.6 152.5,-599.6"/>
<text text-anchor="start" x="157.12" y="-607.3" font-family="Courier New" font-size="14.00">(1,0)&#45;(1,3)</text>
<polygon fill="none" stroke="black" points="52.5,-573.6 52.5,-599.6 252.5,-599.6 252.5,-573.6 52.5,-573.6"/>
<text text-anchor="start" x="57.5" y="-581.3" font-family="Courier New" font-size="14.00">block</text>
</g>
<!-- Node_80 -->
<g id="node2" class="node">
<title>Node_80</title>
<polygon fill="#f2f2f2" stroke="none" points="277.5,-537.6 27.5,-537.6 27.5,-381.6 277.5,-381.6 277.5,-537.6"/>
<polygon fill="none" stroke="black" points="27.5,-511.6 27.5,-537.6 277.5,-537.6 277.5,-511.6 27.5,-511.6"/>
<text text-anchor="start" x="115.38" y="-520.3" font-family="Courier New" font-weight="bold" font-size="14.00">BlockNode</text>
<polygon fill="none" stroke="black" points="27.5,-485.6 27.5,-511.6 177.5,-511.6 177.5,-485.6 27.5,-485.6"/>
<text text-anchor="start" x="32.5" y="-493.3" font-family="Courier New" font-size="14.00">locals</text>
<polygon fill="none" stroke="black" points="177.5,-485.6 177.5,-511.6 277.5,-511.6 277.5,-485.6 177.5,-485.6"/>
<text text-anchor="start" x="219.25" y="-493.3" font-family="Courier New" font-size="14.00">[]</text>
<polygon fill="none" stroke="black" points="27.5,-459.6 27.5,-485.6 177.5,-485.6 177.5,-459.6 27.5,-459.6"/>
<text text-anchor="start" x="32.38" y="-467.3" font-family="Courier New" font-size="14.00">locals_body_index</text>
<polygon fill="none" stroke="black" points="177.5,-459.6 177.5,-485.6 277.5,-485.6 277.5,-459.6 177.5,-459.6"/>
<text text-anchor="start" x="223.38" y="-467.3" font-family="Courier New" font-size="14.00">0</text>
<polygon fill="none" stroke="black" points="27.5,-433.6 27.5,-459.6 277.5,-459.6 277.5,-433.6 27.5,-433.6"/>
<text text-anchor="start" x="32.5" y="-441.3" font-family="Courier New" font-size="14.00">body</text>
<polygon fill="none" stroke="black" points="27.5,-407.6 27.5,-433.6 177.5,-433.6 177.5,-407.6 27.5,-407.6"/>
<text text-anchor="start" x="32.5" y="-415.3" font-family="Courier New" font-size="14.00">opening_loc</text>
<polygon fill="none" stroke="black" points="177.5,-407.6 177.5,-433.6 277.5,-433.6 277.5,-407.6 177.5,-407.6"/>
<text text-anchor="start" x="182.12" y="-415.3" font-family="Courier New" font-size="14.00">(1,4)&#45;(1,6)</text>
<polygon fill="none" stroke="black" points="27.5,-381.6 27.5,-407.6 177.5,-407.6 177.5,-381.6 27.5,-381.6"/>
<text text-anchor="start" x="32.5" y="-389.3" font-family="Courier New" font-size="14.00">closing_loc</text>
<polygon fill="none" stroke="black" points="177.5,-381.6 177.5,-407.6 277.5,-407.6 277.5,-381.6 177.5,-381.6"/>
<text text-anchor="start" x="182.12" y="-389.3" font-family="Courier New" font-size="14.00">(4,0)&#45;(4,3)</text>
</g>
<!-- Node_60&#45;&gt;Node_80 -->
<g id="edge1" class="edge">
<title>Node_60:block&#45;&gt;Node_80</title>
<path fill="none" stroke="black" d="M152.5,-573.6C152.5,-565.39 152.5,-556.85 152.5,-548.3"/>
<polygon fill="black" stroke="black" points="156,-548.49 152.5,-538.49 149,-548.49 156,-548.49"/>
</g>
<!-- Node_100 -->
<g id="node3" class="node">
<title>Node_100</title>
<polygon fill="#f2f2f2" stroke="none" points="269,-345.6 36,-345.6 36,-241.6 269,-241.6 269,-345.6"/>
<polygon fill="none" stroke="black" points="36,-319.6 36,-345.6 269,-345.6 269,-319.6 36,-319.6"/>
<text text-anchor="start" x="115.38" y="-328.3" font-family="Courier New" font-weight="bold" font-size="14.00">BeginNode</text>
<polygon fill="none" stroke="black" points="36,-293.6 36,-319.6 269,-319.6 269,-293.6 36,-293.6"/>
<text text-anchor="start" x="41" y="-301.3" font-family="Courier New" font-size="14.00">statements</text>
<polygon fill="none" stroke="black" points="36,-267.6 36,-293.6 269,-293.6 269,-267.6 36,-267.6"/>
<text text-anchor="start" x="41" y="-275.3" font-family="Courier New" font-size="14.00">rescue_clause</text>
<polygon fill="none" stroke="black" points="36,-241.6 36,-267.6 169,-267.6 169,-241.6 36,-241.6"/>
<text text-anchor="start" x="40.62" y="-249.3" font-family="Courier New" font-size="14.00">end_keyword_loc</text>
<polygon fill="none" stroke="black" points="169,-241.6 169,-267.6 269,-267.6 269,-241.6 169,-241.6"/>
<text text-anchor="start" x="173.62" y="-249.3" font-family="Courier New" font-size="14.00">(4,0)&#45;(4,3)</text>
</g>
<!-- Node_80&#45;&gt;Node_100 -->
<g id="edge2" class="edge">
<title>Node_80:body&#45;&gt;Node_100</title>
<path fill="none" stroke="black" d="M278.5,-446.6C307.39,-446.6 291.07,-407.11 277.5,-381.6 271.83,-370.95 264.21,-361.33 255.52,-352.72"/>
<polygon fill="black" stroke="black" points="258.34,-350.63 248.62,-346.4 253.58,-355.77 258.34,-350.63"/>
</g>
<!-- Node_120 -->
<g id="node4" class="node">
<title>Node_120</title>
<polygon fill="#f2f2f2" stroke="none" points="125,-192.6 0,-192.6 0,-140.6 125,-140.6 125,-192.6"/>
<polygon fill="none" stroke="black" points="0,-166.6 0,-192.6 125,-192.6 125,-166.6 0,-166.6"/>
<text text-anchor="start" x="4.75" y="-175.3" font-family="Courier New" font-weight="bold" font-size="14.00">StatementsNode</text>
<polygon fill="none" stroke="black" points="0,-140.6 0,-166.6 125,-166.6 125,-140.6 0,-140.6"/>
<text text-anchor="start" x="5" y="-148.3" font-family="Courier New" font-size="14.00">body</text>
</g>
<!-- Node_100&#45;&gt;Node_120 -->
<g id="edge3" class="edge">
<title>Node_100:statements&#45;&gt;Node_120</title>
<path fill="none" stroke="black" d="M34.5,-306.6C-8.12,-306.6 19.71,-243.03 42.2,-201.87"/>
<polygon fill="black" stroke="black" points="45.64,-203.89 47.46,-193.45 39.53,-200.47 45.64,-203.89"/>
</g>
<!-- Node_140 -->
<g id="node6" class="node">
<title>Node_140</title>
<polygon fill="#f2f2f2" stroke="none" points="343.5,-205.6 143.5,-205.6 143.5,-127.6 343.5,-127.6 343.5,-205.6"/>
<polygon fill="none" stroke="black" points="143.5,-179.6 143.5,-205.6 343.5,-205.6 343.5,-179.6 143.5,-179.6"/>
<text text-anchor="start" x="202.25" y="-188.3" font-family="Courier New" font-weight="bold" font-size="14.00">RescueNode</text>
<polygon fill="none" stroke="black" points="143.5,-153.6 143.5,-179.6 243.5,-179.6 243.5,-153.6 143.5,-153.6"/>
<text text-anchor="start" x="148.12" y="-161.3" font-family="Courier New" font-size="14.00">keyword_loc</text>
<polygon fill="none" stroke="black" points="243.5,-153.6 243.5,-179.6 343.5,-179.6 343.5,-153.6 243.5,-153.6"/>
<text text-anchor="start" x="248.12" y="-161.3" font-family="Courier New" font-size="14.00">(3,0)&#45;(3,6)</text>
<polygon fill="none" stroke="black" points="143.5,-127.6 143.5,-153.6 243.5,-153.6 243.5,-127.6 143.5,-127.6"/>
<text text-anchor="start" x="148.5" y="-135.3" font-family="Courier New" font-size="14.00">exceptions</text>
<polygon fill="none" stroke="black" points="243.5,-127.6 243.5,-153.6 343.5,-153.6 343.5,-127.6 243.5,-127.6"/>
<text text-anchor="start" x="285.25" y="-135.3" font-family="Courier New" font-size="14.00">[]</text>
</g>
<!-- Node_100&#45;&gt;Node_140 -->
<g id="edge4" class="edge">
<title>Node_100:rescue_clause&#45;&gt;Node_140</title>
<path fill="none" stroke="black" d="M270.5,-280.6C299.11,-280.6 287.73,-245.92 271.89,-214.98"/>
<polygon fill="black" stroke="black" points="274.66,-213.73 266.87,-206.54 268.48,-217.01 274.66,-213.73"/>
</g>
<!-- Node_120_body -->
<g id="node7" class="node">
<title>Node_120_body</title>
<ellipse fill="#f2f2f2" stroke="black" cx="62.5" cy="-89.8" rx="1.8" ry="1.8"/>
</g>
<!-- Node_120&#45;&gt;Node_120_body -->
<g id="edge5" class="edge">
<title>Node_120:body&#45;&gt;Node_120_body</title>
<path fill="none" stroke="black" d="M62.5,-139.6C62.5,-127 62.5,-112.56 62.5,-102.68"/>
<polygon fill="black" stroke="black" points="66,-103.01 62.5,-93.01 59,-103.01 66,-103.01"/>
</g>
<!-- Node_160 -->
<g id="node5" class="node">
<title>Node_160</title>
<polygon fill="#f2f2f2" stroke="none" points="121.5,-52 3.5,-52 3.5,0 121.5,0 121.5,-52"/>
<polygon fill="none" stroke="black" points="3.5,-26 3.5,-52 121.5,-52 121.5,-26 3.5,-26"/>
<text text-anchor="start" x="17.12" y="-34.7" font-family="Courier New" font-weight="bold" font-size="14.00">IntegerNode</text>
<polygon fill="none" stroke="black" points="3.5,0 3.5,-26 54.5,-26 54.5,0 3.5,0"/>
<text text-anchor="start" x="8.38" y="-7.7" font-family="Courier New" font-size="14.00">flags</text>
<polygon fill="none" stroke="black" points="54.5,0 54.5,-26 121.5,-26 121.5,0 54.5,0"/>
<text text-anchor="start" x="59.12" y="-7.7" font-family="Courier New" font-size="14.00">decimal</text>
</g>
<!-- Node_120_body&#45;&gt;Node_160 -->
<g id="edge6" class="edge">
<title>Node_120_body&#45;&gt;Node_160</title>
<path fill="none" stroke="black" d="M62.5,-87.73C62.5,-84.45 62.5,-74.09 62.5,-62.84"/>
<polygon fill="black" stroke="black" points="66,-62.97 62.5,-52.97 59,-62.98 66,-62.97"/>
</g>
</g>
</svg>
