<?xml version="1.0" encoding="UTF-8" standalone="no"?>
<!DOCTYPE svg PUBLIC "-//W3C//DTD SVG 1.1//EN"
 "http://www.w3.org/Graphics/SVG/1.1/DTD/svg11.dtd">
<!-- Generated by graphviz version 8.1.0 (20230707.0739)
 -->
<!-- Title: Prism Pages: 1 -->
<svg width="236pt" height="406pt"
 viewBox="0.00 0.00 236.31 405.60" xmlns="http://www.w3.org/2000/svg" xmlns:xlink="http://www.w3.org/1999/xlink">
<g id="graph0" class="graph" transform="scale(1 1) rotate(0) translate(4 401.6)">
<title>Prism</title>
<polygon fill="white" stroke="none" points="-4,4 -4,-401.6 232.31,-401.6 232.31,4 -4,4"/>
<!-- Node_60 -->
<g id="node1" class="node">
<title>Node_60</title>
<polygon fill="#f2f2f2" stroke="none" points="217,-397.6 0,-397.6 0,-267.6 217,-267.6 217,-397.6"/>
<polygon fill="none" stroke="black" points="0,-371.6 0,-397.6 217,-397.6 217,-371.6 0,-371.6"/>
<text text-anchor="start" x="71.38" y="-380.3" font-family="Courier New" font-weight="bold" font-size="14.00">SuperNode</text>
<polygon fill="none" stroke="black" points="0,-345.6 0,-371.6 100,-371.6 100,-345.6 0,-345.6"/>
<text text-anchor="start" x="4.62" y="-353.3" font-family="Courier New" font-size="14.00">keyword_loc</text>
<polygon fill="none" stroke="black" points="100,-345.6 100,-371.6 217,-371.6 217,-345.6 100,-345.6"/>
<text text-anchor="start" x="104.88" y="-353.3" font-family="Courier New" font-size="14.00">(1,11)&#45;(1,16)</text>
<polygon fill="none" stroke="black" points="0,-319.6 0,-345.6 100,-345.6 100,-319.6 0,-319.6"/>
<text text-anchor="start" x="5" y="-327.3" font-family="Courier New" font-size="14.00">lparen_loc</text>
<polygon fill="none" stroke="black" points="100,-319.6 100,-345.6 217,-345.6 217,-319.6 100,-319.6"/>
<text text-anchor="start" x="104.88" y="-327.3" font-family="Courier New" font-size="14.00">(1,16)&#45;(1,17)</text>
<polygon fill="none" stroke="black" points="0,-293.6 0,-319.6 217,-319.6 217,-293.6 0,-293.6"/>
<text text-anchor="start" x="5" y="-301.3" font-family="Courier New" font-size="14.00">arguments</text>
<polygon fill="none" stroke="black" points="0,-267.6 0,-293.6 100,-293.6 100,-267.6 0,-267.6"/>
<text text-anchor="start" x="5" y="-275.3" font-family="Courier New" font-size="14.00">rparen_loc</text>
<polygon fill="none" stroke="black" points="100,-267.6 100,-293.6 217,-293.6 217,-267.6 100,-267.6"/>
<text text-anchor="start" x="104.88" y="-275.3" font-family="Courier New" font-size="14.00">(1,22)&#45;(1,23)</text>
</g>
<!-- Node_80 -->
<g id="node2" class="node">
<title>Node_80</title>
<polygon fill="#f2f2f2" stroke="none" points="167,-231.6 50,-231.6 50,-153.6 167,-153.6 167,-231.6"/>
<polygon fill="none" stroke="black" points="50,-205.6 50,-231.6 167,-231.6 167,-205.6 50,-205.6"/>
<text text-anchor="start" x="54.88" y="-214.3" font-family="Courier New" font-weight="bold" font-size="14.00">ArgumentsNode</text>
<polygon fill="none" stroke="black" points="50,-179.6 50,-205.6 129,-205.6 129,-179.6 50,-179.6"/>
<text text-anchor="start" x="55" y="-187.3" font-family="Courier New" font-size="14.00">flags</text>
<polygon fill="none" stroke="black" points="129,-179.6 129,-205.6 167,-205.6 167,-179.6 129,-179.6"/>
<polygon fill="none" stroke="black" points="50,-153.6 50,-179.6 167,-179.6 167,-153.6 50,-153.6"/>
<text text-anchor="start" x="55" y="-161.3" font-family="Courier New" font-size="14.00">arguments</text>
</g>
<!-- Node_60&#45;&gt;Node_80 -->
<g id="edge1" class="edge">
<title>Node_60:arguments&#45;&gt;Node_80</title>
<path fill="none" stroke="black" d="M218.5,-306.6C235.84,-306.6 225.81,-282.82 217.5,-267.6 208.02,-250.24 192.5,-236.16 176.11,-225.13"/>
<polygon fill="black" stroke="black" points="178.27,-221.72 167.95,-219.32 174.51,-227.63 178.27,-221.72"/>
</g>
<!-- Node_80_arguments -->
<g id="node4" class="node">
<title>Node_80_arguments</title>
<ellipse fill="#f2f2f2" stroke="black" cx="108.5" cy="-115.8" rx="1.8" ry="1.8"/>
</g>
<!-- Node_80&#45;&gt;Node_80_arguments -->
<g id="edge2" class="edge">
<title>Node_80:arguments&#45;&gt;Node_80_arguments</title>
<path fill="none" stroke="black" d="M108.5,-153.6C108.5,-145.36 108.5,-136.09 108.5,-128.91"/>
<polygon fill="black" stroke="black" points="112,-128.94 108.5,-118.94 105,-128.94 112,-128.94"/>
</g>
<!-- Node_100 -->
<g id="node3" class="node">
<title>Node_100</title>
<polygon fill="#f2f2f2" stroke="none" points="200,-78 17,-78 17,0 200,0 200,-78"/>
<polygon fill="none" stroke="black" points="17,-52 17,-78 200,-78 200,-52 17,-52"/>
<text text-anchor="start" x="21.88" y="-60.7" font-family="Courier New" font-weight="bold" font-size="14.00">LocalVariableReadNode</text>
<polygon fill="none" stroke="black" points="17,-26 17,-52 104,-52 104,-26 17,-26"/>
<text text-anchor="start" x="22" y="-33.7" font-family="Courier New" font-size="14.00">name</text>
<polygon fill="none" stroke="black" points="104,-26 104,-52 200,-52 200,-26 104,-26"/>
<text text-anchor="start" x="127.25" y="-33.7" font-family="Courier New" font-size="14.00">:value</text>
<polygon fill="none" stroke="black" points="17,0 17,-26 104,-26 104,0 17,0"/>
<text text-anchor="start" x="22" y="-7.7" font-family="Courier New" font-size="14.00">depth</text>
<polygon fill="none" stroke="black" points="104,0 104,-26 200,-26 200,0 104,0"/>
<text text-anchor="start" x="147.88" y="-7.7" font-family="Courier New" font-size="14.00">0</text>
</g>
<!-- Node_80_arguments&#45;&gt;Node_100 -->
<g id="edge3" class="edge">
<title>Node_80_arguments&#45;&gt;Node_100</title>
<path fill="none" stroke="black" d="M108.5,-113.5C108.5,-110.06 108.5,-100.15 108.5,-88.69"/>
<polygon fill="black" stroke="black" points="112,-88.87 108.5,-78.87 105,-88.87 112,-88.87"/>
</g>
</g>
</svg>
