<?xml version="1.0" encoding="UTF-8" standalone="no"?>
<!DOCTYPE svg PUBLIC "-//W3C//DTD SVG 1.1//EN"
 "http://www.w3.org/Graphics/SVG/1.1/DTD/svg11.dtd">
<!-- Generated by graphviz version 8.1.0 (20230707.0739)
 -->
<!-- Title: Prism Pages: 1 -->
<svg width="531pt" height="646pt"
 viewBox="0.00 0.00 531.00 646.00" xmlns="http://www.w3.org/2000/svg" xmlns:xlink="http://www.w3.org/1999/xlink">
<g id="graph0" class="graph" transform="scale(1 1) rotate(0) translate(4 642)">
<title>Prism</title>
<polygon fill="white" stroke="none" points="-4,4 -4,-642 527,-642 527,4 -4,4"/>
<!-- Node_60 -->
<g id="node1" class="node">
<title>Node_60</title>
<polygon fill="#f2f2f2" stroke="none" points="436,-638 203,-638 203,-508 436,-508 436,-638"/>
<polygon fill="none" stroke="black" points="203,-612 203,-638 436,-638 436,-612 203,-612"/>
<text text-anchor="start" x="294.75" y="-620.7" font-family="Courier New" font-weight="bold" font-size="14.00">IfNode</text>
<polygon fill="none" stroke="black" points="203,-586 203,-612 336,-612 336,-586 203,-586"/>
<text text-anchor="start" x="208" y="-593.7" font-family="Courier New" font-size="14.00">if_keyword_loc</text>
<polygon fill="none" stroke="black" points="336,-586 336,-612 436,-612 436,-586 336,-586"/>
<text text-anchor="start" x="340.62" y="-593.7" font-family="Courier New" font-size="14.00">(1,0)&#45;(1,2)</text>
<polygon fill="none" stroke="black" points="203,-560 203,-586 436,-586 436,-560 203,-560"/>
<text text-anchor="start" x="208" y="-567.7" font-family="Courier New" font-size="14.00">predicate</text>
<polygon fill="none" stroke="black" points="203,-534 203,-560 436,-560 436,-534 203,-534"/>
<text text-anchor="start" x="208" y="-541.7" font-family="Courier New" font-size="14.00">statements</text>
<polygon fill="none" stroke="black" points="203,-508 203,-534 336,-534 336,-508 203,-508"/>
<text text-anchor="start" x="207.62" y="-515.7" font-family="Courier New" font-size="14.00">end_keyword_loc</text>
<polygon fill="none" stroke="black" points="336,-508 336,-534 436,-534 436,-508 336,-508"/>
<text text-anchor="start" x="340.62" y="-515.7" font-family="Courier New" font-size="14.00">(3,0)&#45;(3,3)</text>
</g>
<!-- Node_80 -->
<g id="node2" class="node">
<title>Node_80</title>
<polygon fill="#f2f2f2" stroke="none" points="334,-472 117,-472 117,-368 334,-368 334,-472"/>
<polygon fill="none" stroke="black" points="117,-446 117,-472 334,-472 334,-446 117,-446"/>
<text text-anchor="start" x="163.62" y="-454.7" font-family="Courier New" font-weight="bold" font-size="14.00">ParenthesesNode</text>
<polygon fill="none" stroke="black" points="117,-420 117,-446 334,-446 334,-420 117,-420"/>
<text text-anchor="start" x="122" y="-427.7" font-family="Courier New" font-size="14.00">body</text>
<polygon fill="none" stroke="black" points="117,-394 117,-420 217,-420 217,-394 117,-394"/>
<text text-anchor="start" x="121.62" y="-401.7" font-family="Courier New" font-size="14.00">opening_loc</text>
<polygon fill="none" stroke="black" points="217,-394 217,-420 334,-420 334,-394 217,-394"/>
<text text-anchor="start" x="230.12" y="-401.7" font-family="Courier New" font-size="14.00">(1,3)&#45;(1,4)</text>
<polygon fill="none" stroke="black" points="117,-368 117,-394 217,-394 217,-368 117,-368"/>
<text text-anchor="start" x="121.62" y="-375.7" font-family="Courier New" font-size="14.00">closing_loc</text>
<polygon fill="none" stroke="black" points="217,-368 217,-394 334,-394 334,-368 217,-368"/>
<text text-anchor="start" x="221.88" y="-375.7" font-family="Courier New" font-size="14.00">(1,12)&#45;(1,13)</text>
</g>
<!-- Node_60&#45;&gt;Node_80 -->
<g id="edge1" class="edge">
<title>Node_60:predicate&#45;&gt;Node_80</title>
<path fill="none" stroke="black" d="M201.5,-573C162.59,-573 175.72,-523.79 194.28,-481.38"/>
<polygon fill="black" stroke="black" points="197.76,-483.17 198.69,-472.61 191.38,-480.28 197.76,-483.17"/>
</g>
<!-- Node_100 -->
<g id="node6" class="node">
<title>Node_100</title>
<polygon fill="#f2f2f2" stroke="none" points="477,-446 352,-446 352,-394 477,-394 477,-446"/>
<polygon fill="none" stroke="black" points="352,-420 352,-446 477,-446 477,-420 352,-420"/>
<text text-anchor="start" x="356.75" y="-428.7" font-family="Courier New" font-weight="bold" font-size="14.00">StatementsNode</text>
<polygon fill="none" stroke="black" points="352,-394 352,-420 477,-420 477,-394 352,-394"/>
<text text-anchor="start" x="357" y="-401.7" font-family="Courier New" font-size="14.00">body</text>
</g>
<!-- Node_60&#45;&gt;Node_100 -->
<g id="edge2" class="edge">
<title>Node_60:statements&#45;&gt;Node_100</title>
<path fill="none" stroke="black" d="M437.5,-547C474.85,-547 453.28,-492.74 434.03,-455.44"/>
<polygon fill="black" stroke="black" points="436.75,-454.09 428.97,-446.89 430.56,-457.37 436.75,-454.09"/>
</g>
<!-- Node_120 -->
<g id="node3" class="node">
<title>Node_120</title>
<polygon fill="#f2f2f2" stroke="none" points="288,-332 163,-332 163,-280 288,-280 288,-332"/>
<polygon fill="none" stroke="black" points="163,-306 163,-332 288,-332 288,-306 163,-306"/>
<text text-anchor="start" x="167.75" y="-314.7" font-family="Courier New" font-weight="bold" font-size="14.00">StatementsNode</text>
<polygon fill="none" stroke="black" points="163,-280 163,-306 288,-306 288,-280 163,-280"/>
<text text-anchor="start" x="168" y="-287.7" font-family="Courier New" font-size="14.00">body</text>
</g>
<!-- Node_80&#45;&gt;Node_120 -->
<g id="edge3" class="edge">
<title>Node_80:body&#45;&gt;Node_120</title>
<path fill="none" stroke="black" d="M335.5,-433C342.72,-433 338.2,-374.2 334.5,-368 325.71,-353.27 311.95,-341.82 297.13,-333.03"/>
<polygon fill="black" stroke="black" points="299.25,-329.65 288.8,-327.9 295.87,-335.78 299.25,-329.65"/>
</g>
<!-- Node_120_body -->
<g id="node8" class="node">
<title>Node_120_body</title>
<ellipse fill="#f2f2f2" stroke="black" cx="225.5" cy="-192" rx="1.8" ry="1.8"/>
</g>
<!-- Node_120&#45;&gt;Node_120_body -->
<g id="edge4" class="edge">
<title>Node_120:body&#45;&gt;Node_120_body</title>
<path fill="none" stroke="black" d="M225.5,-280C225.5,-253.31 225.5,-222.01 225.5,-205.18"/>
<polygon fill="black" stroke="black" points="229,-205.23 225.5,-195.23 222,-205.23 229,-205.23"/>
</g>
<!-- Node_140 -->
<g id="node4" class="node">
<title>Node_140</title>
<polygon fill="#f2f2f2" stroke="none" points="217,-104 0,-104 0,0 217,0 217,-104"/>
<polygon fill="none" stroke="black" points="0,-78 0,-104 217,-104 217,-78 0,-78"/>
<text text-anchor="start" x="75.5" y="-86.7" font-family="Courier New" font-weight="bold" font-size="14.00">CallNode</text>
<polygon fill="none" stroke="black" points="0,-52 0,-78 100,-78 100,-52 0,-52"/>
<text text-anchor="start" x="5" y="-59.7" font-family="Courier New" font-size="14.00">flags</text>
<polygon fill="none" stroke="black" points="100,-52 100,-78 217,-78 217,-52 100,-52"/>
<text text-anchor="start" x="104.88" y="-59.7" font-family="Courier New" font-size="14.00">variable_call</text>
<polygon fill="none" stroke="black" points="0,-26 0,-52 100,-52 100,-26 0,-26"/>
<text text-anchor="start" x="5" y="-33.7" font-family="Courier New" font-size="14.00">name</text>
<polygon fill="none" stroke="black" points="100,-26 100,-52 217,-52 217,-26 100,-26"/>
<text text-anchor="start" x="142" y="-33.7" font-family="Courier New" font-size="14.00">:foo</text>
<polygon fill="none" stroke="black" points="0,0 0,-26 100,-26 100,0 0,0"/>
<text text-anchor="start" x="4.62" y="-7.7" font-family="Courier New" font-size="14.00">message_loc</text>
<polygon fill="none" stroke="black" points="100,0 100,-26 217,-26 217,0 100,0"/>
<text text-anchor="start" x="113.12" y="-7.7" font-family="Courier New" font-size="14.00">(1,4)&#45;(1,7)</text>
</g>
<!-- Node_160 -->
<g id="node5" class="node">
<title>Node_160</title>
<polygon fill="#f2f2f2" stroke="none" points="452,-104 235,-104 235,0 452,0 452,-104"/>
<polygon fill="none" stroke="black" points="235,-78 235,-104 452,-104 452,-78 235,-78"/>
<text text-anchor="start" x="310.5" y="-86.7" font-family="Courier New" font-weight="bold" font-size="14.00">CallNode</text>
<polygon fill="none" stroke="black" points="235,-52 235,-78 335,-78 335,-52 235,-52"/>
<text text-anchor="start" x="240" y="-59.7" font-family="Courier New" font-size="14.00">flags</text>
<polygon fill="none" stroke="black" points="335,-52 335,-78 452,-78 452,-52 335,-52"/>
<text text-anchor="start" x="339.88" y="-59.7" font-family="Courier New" font-size="14.00">variable_call</text>
<polygon fill="none" stroke="black" points="235,-26 235,-52 335,-52 335,-26 235,-26"/>
<text text-anchor="start" x="240" y="-33.7" font-family="Courier New" font-size="14.00">name</text>
<polygon fill="none" stroke="black" points="335,-26 335,-52 452,-52 452,-26 335,-26"/>
<text text-anchor="start" x="377" y="-33.7" font-family="Courier New" font-size="14.00">:bar</text>
<polygon fill="none" stroke="black" points="235,0 235,-26 335,-26 335,0 235,0"/>
<text text-anchor="start" x="239.62" y="-7.7" font-family="Courier New" font-size="14.00">message_loc</text>
<polygon fill="none" stroke="black" points="335,0 335,-26 452,-26 452,0 335,0"/>
<text text-anchor="start" x="344" y="-7.7" font-family="Courier New" font-size="14.00">(1,9)&#45;(1,12)</text>
</g>
<!-- Node_100_body -->
<g id="node9" class="node">
<title>Node_100_body</title>
<ellipse fill="#f2f2f2" stroke="black" cx="414.5" cy="-306" rx="1.8" ry="1.8"/>
</g>
<!-- Node_100&#45;&gt;Node_100_body -->
<g id="edge7" class="edge">
<title>Node_100:body&#45;&gt;Node_100_body</title>
<path fill="none" stroke="black" d="M414.5,-393C414.5,-366.61 414.5,-335.68 414.5,-319.04"/>
<polygon fill="black" stroke="black" points="418,-319.21 414.5,-309.21 411,-319.21 418,-319.21"/>
</g>
<!-- Node_180 -->
<g id="node7" class="node">
<title>Node_180</title>
<polygon fill="#f2f2f2" stroke="none" points="523,-244 306,-244 306,-140 523,-140 523,-244"/>
<polygon fill="none" stroke="black" points="306,-218 306,-244 523,-244 523,-218 306,-218"/>
<text text-anchor="start" x="381.5" y="-226.7" font-family="Courier New" font-weight="bold" font-size="14.00">CallNode</text>
<polygon fill="none" stroke="black" points="306,-192 306,-218 406,-218 406,-192 306,-192"/>
<text text-anchor="start" x="311" y="-199.7" font-family="Courier New" font-size="14.00">flags</text>
<polygon fill="none" stroke="black" points="406,-192 406,-218 523,-218 523,-192 406,-192"/>
<text text-anchor="start" x="410.88" y="-199.7" font-family="Courier New" font-size="14.00">variable_call</text>
<polygon fill="none" stroke="black" points="306,-166 306,-192 406,-192 406,-166 306,-166"/>
<text text-anchor="start" x="311" y="-173.7" font-family="Courier New" font-size="14.00">name</text>
<polygon fill="none" stroke="black" points="406,-166 406,-192 523,-192 523,-166 406,-166"/>
<text text-anchor="start" x="448" y="-173.7" font-family="Courier New" font-size="14.00">:baz</text>
<polygon fill="none" stroke="black" points="306,-140 306,-166 406,-166 406,-140 306,-140"/>
<text text-anchor="start" x="310.62" y="-147.7" font-family="Courier New" font-size="14.00">message_loc</text>
<polygon fill="none" stroke="black" points="406,-140 406,-166 523,-166 523,-140 406,-140"/>
<text text-anchor="start" x="419.12" y="-147.7" font-family="Courier New" font-size="14.00">(2,2)&#45;(2,5)</text>
</g>
<!-- Node_120_body&#45;&gt;Node_140 -->
<g id="edge5" class="edge">
<title>Node_120_body&#45;&gt;Node_140</title>
<path fill="none" stroke="black" d="M224.75,-190.12C219.51,-183.93 187.6,-146.3 158.53,-112.02"/>
<polygon fill="black" stroke="black" points="160.75,-110.22 151.61,-104.85 155.41,-114.74 160.75,-110.22"/>
</g>
<!-- Node_120_body&#45;&gt;Node_160 -->
<g id="edge6" class="edge">
<title>Node_120_body&#45;&gt;Node_160</title>
<path fill="none" stroke="black" d="M226.25,-190.12C231.54,-183.93 263.73,-146.3 293.04,-112.02"/>
<polygon fill="black" stroke="black" points="296.18,-114.73 300.02,-104.85 290.86,-110.18 296.18,-114.73"/>
</g>
<!-- Node_100_body&#45;&gt;Node_180 -->
<g id="edge8" class="edge">
<title>Node_100_body&#45;&gt;Node_180</title>
<path fill="none" stroke="black" d="M414.5,-303.74C414.5,-298.43 414.5,-277.07 414.5,-254.51"/>
<polygon fill="black" stroke="black" points="418,-254.76 414.5,-244.76 411,-254.76 418,-254.76"/>
</g>
</g>
</svg>
