<?xml version="1.0" encoding="UTF-8" standalone="no"?>
<!DOCTYPE svg PUBLIC "-//W3C//DTD SVG 1.1//EN"
 "http://www.w3.org/Graphics/SVG/1.1/DTD/svg11.dtd">
<!-- Generated by graphviz version 8.1.0 (20230707.0739)
 -->
<!-- Title: Prism Pages: 1 -->
<svg width="950pt" height="1066pt"
 viewBox="0.00 0.00 949.50 1066.00" xmlns="http://www.w3.org/2000/svg" xmlns:xlink="http://www.w3.org/1999/xlink">
<g id="graph0" class="graph" transform="scale(1 1) rotate(0) translate(4 1062)">
<title>Prism</title>
<polygon fill="white" stroke="none" points="-4,4 -4,-1062 945.5,-1062 945.5,4 -4,4"/>
<!-- Node_60 -->
<g id="node1" class="node">
<title>Node_60</title>
<polygon fill="#f2f2f2" stroke="none" points="547.5,-1058 305.5,-1058 305.5,-902 547.5,-902 547.5,-1058"/>
<polygon fill="none" stroke="black" points="305.5,-1032 305.5,-1058 547.5,-1058 547.5,-1032 305.5,-1032"/>
<text text-anchor="start" x="372.88" y="-1040.7" font-family="Courier New" font-weight="bold" font-size="14.00">CaseMatchNode</text>
<polygon fill="none" stroke="black" points="305.5,-1006 305.5,-1032 547.5,-1032 547.5,-1006 305.5,-1006"/>
<text text-anchor="start" x="310.5" y="-1013.7" font-family="Courier New" font-size="14.00">predicate</text>
<polygon fill="none" stroke="black" points="305.5,-980 305.5,-1006 547.5,-1006 547.5,-980 305.5,-980"/>
<text text-anchor="start" x="310.5" y="-987.7" font-family="Courier New" font-size="14.00">conditions</text>
<polygon fill="none" stroke="black" points="305.5,-954 305.5,-980 547.5,-980 547.5,-954 305.5,-954"/>
<text text-anchor="start" x="310.5" y="-961.7" font-family="Courier New" font-size="14.00">consequent</text>
<polygon fill="none" stroke="black" points="305.5,-928 305.5,-954 447.5,-954 447.5,-928 305.5,-928"/>
<text text-anchor="start" x="310.5" y="-935.7" font-family="Courier New" font-size="14.00">case_keyword_loc</text>
<polygon fill="none" stroke="black" points="447.5,-928 447.5,-954 547.5,-954 547.5,-928 447.5,-928"/>
<text text-anchor="start" x="452.12" y="-935.7" font-family="Courier New" font-size="14.00">(1,0)&#45;(1,4)</text>
<polygon fill="none" stroke="black" points="305.5,-902 305.5,-928 447.5,-928 447.5,-902 305.5,-902"/>
<text text-anchor="start" x="310.5" y="-909.7" font-family="Courier New" font-size="14.00">end_keyword_loc</text>
<polygon fill="none" stroke="black" points="447.5,-902 447.5,-928 547.5,-928 547.5,-902 447.5,-902"/>
<text text-anchor="start" x="452.12" y="-909.7" font-family="Courier New" font-size="14.00">(5,0)&#45;(5,3)</text>
</g>
<!-- Node_80 -->
<g id="node2" class="node">
<title>Node_80</title>
<polygon fill="#f2f2f2" stroke="none" points="287,-866 70,-866 70,-762 287,-762 287,-866"/>
<polygon fill="none" stroke="black" points="70,-840 70,-866 287,-866 287,-840 70,-840"/>
<text text-anchor="start" x="145.5" y="-848.7" font-family="Courier New" font-weight="bold" font-size="14.00">CallNode</text>
<polygon fill="none" stroke="black" points="70,-814 70,-840 170,-840 170,-814 70,-814"/>
<text text-anchor="start" x="75" y="-821.7" font-family="Courier New" font-size="14.00">flags</text>
<polygon fill="none" stroke="black" points="170,-814 170,-840 287,-840 287,-814 170,-814"/>
<text text-anchor="start" x="174.88" y="-821.7" font-family="Courier New" font-size="14.00">variable_call</text>
<polygon fill="none" stroke="black" points="70,-788 70,-814 170,-814 170,-788 70,-788"/>
<text text-anchor="start" x="75" y="-795.7" font-family="Courier New" font-size="14.00">name</text>
<polygon fill="none" stroke="black" points="170,-788 170,-814 287,-814 287,-788 170,-788"/>
<text text-anchor="start" x="212" y="-795.7" font-family="Courier New" font-size="14.00">:foo</text>
<polygon fill="none" stroke="black" points="70,-762 70,-788 170,-788 170,-762 70,-762"/>
<text text-anchor="start" x="74.62" y="-769.7" font-family="Courier New" font-size="14.00">message_loc</text>
<polygon fill="none" stroke="black" points="170,-762 170,-788 287,-788 287,-762 170,-762"/>
<text text-anchor="start" x="183.12" y="-769.7" font-family="Courier New" font-size="14.00">(1,5)&#45;(1,8)</text>
</g>
<!-- Node_60&#45;&gt;Node_80 -->
<g id="edge1" class="edge">
<title>Node_60:predicate&#45;&gt;Node_80</title>
<path fill="none" stroke="black" d="M304.5,-1019C236.76,-1019 204.23,-936.57 189.51,-876.51"/>
<polygon fill="black" stroke="black" points="192.73,-875.9 187.05,-866.95 185.91,-877.49 192.73,-875.9"/>
</g>
<!-- Node_140 -->
<g id="node19" class="node">
<title>Node_140</title>
<polygon fill="#f2f2f2" stroke="none" points="547.5,-853 305.5,-853 305.5,-775 547.5,-775 547.5,-853"/>
<polygon fill="none" stroke="black" points="305.5,-827 305.5,-853 547.5,-853 547.5,-827 305.5,-827"/>
<text text-anchor="start" x="393.5" y="-835.7" font-family="Courier New" font-weight="bold" font-size="14.00">ElseNode</text>
<polygon fill="none" stroke="black" points="305.5,-801 305.5,-827 447.5,-827 447.5,-801 305.5,-801"/>
<text text-anchor="start" x="310.5" y="-808.7" font-family="Courier New" font-size="14.00">else_keyword_loc</text>
<polygon fill="none" stroke="black" points="447.5,-801 447.5,-827 547.5,-827 547.5,-801 447.5,-801"/>
<text text-anchor="start" x="452.12" y="-808.7" font-family="Courier New" font-size="14.00">(4,0)&#45;(4,4)</text>
<polygon fill="none" stroke="black" points="305.5,-775 305.5,-801 447.5,-801 447.5,-775 305.5,-775"/>
<text text-anchor="start" x="310.5" y="-782.7" font-family="Courier New" font-size="14.00">end_keyword_loc</text>
<polygon fill="none" stroke="black" points="447.5,-775 447.5,-801 547.5,-801 547.5,-775 447.5,-775"/>
<text text-anchor="start" x="452.12" y="-782.7" font-family="Courier New" font-size="14.00">(5,0)&#45;(5,3)</text>
</g>
<!-- Node_60&#45;&gt;Node_140 -->
<g id="edge5" class="edge">
<title>Node_60:consequent&#45;&gt;Node_140</title>
<path fill="none" stroke="black" d="M548.5,-967C577.39,-967 560.88,-927.61 547.5,-902 538.76,-885.26 525.16,-871 510.2,-859.16"/>
<polygon fill="black" stroke="black" points="512.86,-856.03 502.76,-852.83 508.66,-861.63 512.86,-856.03"/>
</g>
<!-- Node_60_conditions -->
<g id="node20" class="node">
<title>Node_60_conditions</title>
<ellipse fill="#f2f2f2" stroke="black" cx="567.5" cy="-814" rx="1.8" ry="1.8"/>
</g>
<!-- Node_60&#45;&gt;Node_60_conditions -->
<g id="edge2" class="edge">
<title>Node_60:conditions&#45;&gt;Node_60_conditions</title>
<path fill="none" stroke="black" d="M548.5,-993C615.74,-993 582.9,-865.86 571.11,-826.48"/>
<polygon fill="black" stroke="black" points="574.2,-825.64 567.88,-817.14 567.52,-827.73 574.2,-825.64"/>
</g>
<!-- Node_100 -->
<g id="node3" class="node">
<title>Node_100</title>
<polygon fill="#f2f2f2" stroke="none" points="548,-726 389,-726 389,-648 548,-648 548,-726"/>
<polygon fill="none" stroke="black" points="389,-700 389,-726 548,-726 548,-700 389,-700"/>
<text text-anchor="start" x="443.75" y="-708.7" font-family="Courier New" font-weight="bold" font-size="14.00">InNode</text>
<polygon fill="none" stroke="black" points="389,-674 389,-700 548,-700 548,-674 389,-674"/>
<text text-anchor="start" x="394" y="-681.7" font-family="Courier New" font-size="14.00">pattern</text>
<polygon fill="none" stroke="black" points="389,-648 389,-674 448,-674 448,-648 389,-648"/>
<text text-anchor="start" x="393.75" y="-655.7" font-family="Courier New" font-size="14.00">in_loc</text>
<polygon fill="none" stroke="black" points="448,-648 448,-674 548,-674 548,-648 448,-648"/>
<text text-anchor="start" x="452.62" y="-655.7" font-family="Courier New" font-size="14.00">(2,0)&#45;(2,2)</text>
</g>
<!-- Node_160 -->
<g id="node4" class="node">
<title>Node_160</title>
<polygon fill="#f2f2f2" stroke="none" points="548.5,-612 306.5,-612 306.5,-508 548.5,-508 548.5,-612"/>
<polygon fill="none" stroke="black" points="306.5,-586 306.5,-612 548.5,-612 548.5,-586 306.5,-586"/>
<text text-anchor="start" x="402.75" y="-594.7" font-family="Courier New" font-weight="bold" font-size="14.00">IfNode</text>
<polygon fill="none" stroke="black" points="306.5,-560 306.5,-586 431.5,-586 431.5,-560 306.5,-560"/>
<text text-anchor="start" x="311.25" y="-567.7" font-family="Courier New" font-size="14.00">if_keyword_loc</text>
<polygon fill="none" stroke="black" points="431.5,-560 431.5,-586 548.5,-586 548.5,-560 431.5,-560"/>
<text text-anchor="start" x="436.38" y="-567.7" font-family="Courier New" font-size="14.00">(2,11)&#45;(2,13)</text>
<polygon fill="none" stroke="black" points="306.5,-534 306.5,-560 548.5,-560 548.5,-534 306.5,-534"/>
<text text-anchor="start" x="311.5" y="-541.7" font-family="Courier New" font-size="14.00">predicate</text>
<polygon fill="none" stroke="black" points="306.5,-508 306.5,-534 548.5,-534 548.5,-508 306.5,-508"/>
<text text-anchor="start" x="311.5" y="-515.7" font-family="Courier New" font-size="14.00">statements</text>
</g>
<!-- Node_100&#45;&gt;Node_160 -->
<g id="edge6" class="edge">
<title>Node_100:pattern&#45;&gt;Node_160</title>
<path fill="none" stroke="black" d="M387.5,-687C357.19,-687 368.8,-653.46 387.15,-620.99"/>
<polygon fill="black" stroke="black" points="390.44,-623.28 392.47,-612.89 384.4,-619.75 390.44,-623.28"/>
</g>
<!-- Node_180 -->
<g id="node5" class="node">
<title>Node_180</title>
<polygon fill="#f2f2f2" stroke="none" points="353,-472 136,-472 136,-316 353,-316 353,-472"/>
<polygon fill="none" stroke="black" points="136,-446 136,-472 353,-472 353,-446 136,-446"/>
<text text-anchor="start" x="211.5" y="-454.7" font-family="Courier New" font-weight="bold" font-size="14.00">CallNode</text>
<polygon fill="none" stroke="black" points="136,-420 136,-446 236,-446 236,-420 136,-420"/>
<text text-anchor="start" x="141" y="-427.7" font-family="Courier New" font-size="14.00">flags</text>
<polygon fill="none" stroke="black" points="236,-420 236,-446 353,-446 353,-420 236,-420"/>
<polygon fill="none" stroke="black" points="136,-394 136,-420 353,-420 353,-394 136,-394"/>
<text text-anchor="start" x="141" y="-401.7" font-family="Courier New" font-size="14.00">receiver</text>
<polygon fill="none" stroke="black" points="136,-368 136,-394 236,-394 236,-368 136,-368"/>
<text text-anchor="start" x="141" y="-375.7" font-family="Courier New" font-size="14.00">name</text>
<polygon fill="none" stroke="black" points="236,-368 236,-394 353,-394 353,-368 236,-368"/>
<text text-anchor="start" x="286.25" y="-375.7" font-family="Courier New" font-size="14.00">:&gt;</text>
<polygon fill="none" stroke="black" points="136,-342 136,-368 236,-368 236,-342 136,-342"/>
<text text-anchor="start" x="140.62" y="-349.7" font-family="Courier New" font-size="14.00">message_loc</text>
<polygon fill="none" stroke="black" points="236,-342 236,-368 353,-368 353,-342 236,-342"/>
<text text-anchor="start" x="240.88" y="-349.7" font-family="Courier New" font-size="14.00">(2,18)&#45;(2,19)</text>
<polygon fill="none" stroke="black" points="136,-316 136,-342 353,-342 353,-316 136,-316"/>
<text text-anchor="start" x="141" y="-323.7" font-family="Courier New" font-size="14.00">arguments</text>
</g>
<!-- Node_160&#45;&gt;Node_180 -->
<g id="edge7" class="edge">
<title>Node_160:predicate&#45;&gt;Node_180</title>
<path fill="none" stroke="black" d="M305.5,-547C272.77,-547 257.14,-516.28 249.85,-482.46"/>
<polygon fill="black" stroke="black" points="253.15,-482.06 247.85,-472.89 246.27,-483.37 253.15,-482.06"/>
</g>
<!-- Node_200 -->
<g id="node9" class="node">
<title>Node_200</title>
<polygon fill="#f2f2f2" stroke="none" points="496,-420 371,-420 371,-368 496,-368 496,-420"/>
<polygon fill="none" stroke="black" points="371,-394 371,-420 496,-420 496,-394 371,-394"/>
<text text-anchor="start" x="375.75" y="-402.7" font-family="Courier New" font-weight="bold" font-size="14.00">StatementsNode</text>
<polygon fill="none" stroke="black" points="371,-368 371,-394 496,-394 496,-368 371,-368"/>
<text text-anchor="start" x="376" y="-375.7" font-family="Courier New" font-size="14.00">body</text>
</g>
<!-- Node_160&#45;&gt;Node_200 -->
<g id="edge8" class="edge">
<title>Node_160:statements&#45;&gt;Node_200</title>
<path fill="none" stroke="black" d="M427.5,-508C427.5,-482.07 429.1,-452.84 430.64,-430.6"/>
<polygon fill="black" stroke="black" points="434.2,-430.9 431.44,-420.67 427.22,-430.39 434.2,-430.9"/>
</g>
<!-- Node_220 -->
<g id="node6" class="node">
<title>Node_220</title>
<polygon fill="#f2f2f2" stroke="none" points="217,-280 0,-280 0,-176 217,-176 217,-280"/>
<polygon fill="none" stroke="black" points="0,-254 0,-280 217,-280 217,-254 0,-254"/>
<text text-anchor="start" x="75.5" y="-262.7" font-family="Courier New" font-weight="bold" font-size="14.00">CallNode</text>
<polygon fill="none" stroke="black" points="0,-228 0,-254 100,-254 100,-228 0,-228"/>
<text text-anchor="start" x="5" y="-235.7" font-family="Courier New" font-size="14.00">flags</text>
<polygon fill="none" stroke="black" points="100,-228 100,-254 217,-254 217,-228 100,-228"/>
<text text-anchor="start" x="104.88" y="-235.7" font-family="Courier New" font-size="14.00">variable_call</text>
<polygon fill="none" stroke="black" points="0,-202 0,-228 100,-228 100,-202 0,-202"/>
<text text-anchor="start" x="5" y="-209.7" font-family="Courier New" font-size="14.00">name</text>
<polygon fill="none" stroke="black" points="100,-202 100,-228 217,-228 217,-202 100,-202"/>
<text text-anchor="start" x="142" y="-209.7" font-family="Courier New" font-size="14.00">:foo</text>
<polygon fill="none" stroke="black" points="0,-176 0,-202 100,-202 100,-176 0,-176"/>
<text text-anchor="start" x="4.62" y="-183.7" font-family="Courier New" font-size="14.00">message_loc</text>
<polygon fill="none" stroke="black" points="100,-176 100,-202 217,-202 217,-176 100,-176"/>
<text text-anchor="start" x="104.88" y="-183.7" font-family="Courier New" font-size="14.00">(2,14)&#45;(2,17)</text>
</g>
<!-- Node_180&#45;&gt;Node_220 -->
<g id="edge9" class="edge">
<title>Node_180:receiver&#45;&gt;Node_220</title>
<path fill="none" stroke="black" d="M134.5,-407C86.1,-407 86.77,-341.77 94.84,-290.28"/>
<polygon fill="black" stroke="black" points="98.44,-290.98 96.66,-280.53 91.54,-289.81 98.44,-290.98"/>
</g>
<!-- Node_240 -->
<g id="node7" class="node">
<title>Node_240</title>
<polygon fill="#f2f2f2" stroke="none" points="352,-267 235,-267 235,-189 352,-189 352,-267"/>
<polygon fill="none" stroke="black" points="235,-241 235,-267 352,-267 352,-241 235,-241"/>
<text text-anchor="start" x="239.88" y="-249.7" font-family="Courier New" font-weight="bold" font-size="14.00">ArgumentsNode</text>
<polygon fill="none" stroke="black" points="235,-215 235,-241 314,-241 314,-215 235,-215"/>
<text text-anchor="start" x="240" y="-222.7" font-family="Courier New" font-size="14.00">flags</text>
<polygon fill="none" stroke="black" points="314,-215 314,-241 352,-241 352,-215 314,-215"/>
<polygon fill="none" stroke="black" points="235,-189 235,-215 352,-215 352,-189 235,-189"/>
<text text-anchor="start" x="240" y="-196.7" font-family="Courier New" font-size="14.00">arguments</text>
</g>
<!-- Node_180&#45;&gt;Node_240 -->
<g id="edge10" class="edge">
<title>Node_180:arguments&#45;&gt;Node_240</title>
<path fill="none" stroke="black" d="M244.5,-316C244.5,-302.05 249.34,-288.27 255.98,-275.93"/>
<polygon fill="black" stroke="black" points="259.3,-278.2 261.36,-267.8 253.27,-274.64 259.3,-278.2"/>
</g>
<!-- Node_240_arguments -->
<g id="node21" class="node">
<title>Node_240_arguments</title>
<ellipse fill="#f2f2f2" stroke="black" cx="293.5" cy="-114" rx="1.8" ry="1.8"/>
</g>
<!-- Node_240&#45;&gt;Node_240_arguments -->
<g id="edge11" class="edge">
<title>Node_240:arguments&#45;&gt;Node_240_arguments</title>
<path fill="none" stroke="black" d="M293.5,-188C293.5,-166.41 293.5,-141.22 293.5,-126.79"/>
<polygon fill="black" stroke="black" points="297,-127.03 293.5,-117.03 290,-127.03 297,-127.03"/>
</g>
<!-- Node_260 -->
<g id="node8" class="node">
<title>Node_260</title>
<polygon fill="#f2f2f2" stroke="none" points="352.5,-52 234.5,-52 234.5,0 352.5,0 352.5,-52"/>
<polygon fill="none" stroke="black" points="234.5,-26 234.5,-52 352.5,-52 352.5,-26 234.5,-26"/>
<text text-anchor="start" x="248.12" y="-34.7" font-family="Courier New" font-weight="bold" font-size="14.00">IntegerNode</text>
<polygon fill="none" stroke="black" points="234.5,0 234.5,-26 285.5,-26 285.5,0 234.5,0"/>
<text text-anchor="start" x="239.38" y="-7.7" font-family="Courier New" font-size="14.00">flags</text>
<polygon fill="none" stroke="black" points="285.5,0 285.5,-26 352.5,-26 352.5,0 285.5,0"/>
<text text-anchor="start" x="290.12" y="-7.7" font-family="Courier New" font-size="14.00">decimal</text>
</g>
<!-- Node_200_body -->
<g id="node22" class="node">
<title>Node_200_body</title>
<ellipse fill="#f2f2f2" stroke="black" cx="433.5" cy="-228" rx="1.8" ry="1.8"/>
</g>
<!-- Node_200&#45;&gt;Node_200_body -->
<g id="edge13" class="edge">
<title>Node_200:body&#45;&gt;Node_200_body</title>
<path fill="none" stroke="black" d="M433.5,-367C433.5,-320.45 433.5,-265.06 433.5,-241.07"/>
<polygon fill="black" stroke="black" points="437,-241.11 433.5,-231.11 430,-241.11 437,-241.11"/>
</g>
<!-- Node_280 -->
<g id="node10" class="node">
<title>Node_280</title>
<polygon fill="#f2f2f2" stroke="none" points="504.5,-140 362.5,-140 362.5,-88 504.5,-88 504.5,-140"/>
<polygon fill="none" stroke="black" points="362.5,-114 362.5,-140 504.5,-140 504.5,-114 362.5,-114"/>
<text text-anchor="start" x="367.5" y="-122.7" font-family="Courier New" font-weight="bold" font-size="14.00">ConstantReadNode</text>
<polygon fill="none" stroke="black" points="362.5,-88 362.5,-114 416.5,-114 416.5,-88 362.5,-88"/>
<text text-anchor="start" x="367.5" y="-95.7" font-family="Courier New" font-size="14.00">name</text>
<polygon fill="none" stroke="black" points="416.5,-88 416.5,-114 504.5,-114 504.5,-88 416.5,-88"/>
<text text-anchor="start" x="427.5" y="-95.7" font-family="Courier New" font-size="14.00">:Integer</text>
</g>
<!-- Node_120 -->
<g id="node11" class="node">
<title>Node_120</title>
<polygon fill="#f2f2f2" stroke="none" points="746,-726 587,-726 587,-648 746,-648 746,-726"/>
<polygon fill="none" stroke="black" points="587,-700 587,-726 746,-726 746,-700 587,-700"/>
<text text-anchor="start" x="641.75" y="-708.7" font-family="Courier New" font-weight="bold" font-size="14.00">InNode</text>
<polygon fill="none" stroke="black" points="587,-674 587,-700 746,-700 746,-674 587,-674"/>
<text text-anchor="start" x="592" y="-681.7" font-family="Courier New" font-size="14.00">pattern</text>
<polygon fill="none" stroke="black" points="587,-648 587,-674 646,-674 646,-648 587,-648"/>
<text text-anchor="start" x="591.75" y="-655.7" font-family="Courier New" font-size="14.00">in_loc</text>
<polygon fill="none" stroke="black" points="646,-648 646,-674 746,-674 746,-648 646,-648"/>
<text text-anchor="start" x="650.62" y="-655.7" font-family="Courier New" font-size="14.00">(3,0)&#45;(3,2)</text>
</g>
<!-- Node_300 -->
<g id="node12" class="node">
<title>Node_300</title>
<polygon fill="#f2f2f2" stroke="none" points="808.5,-612 566.5,-612 566.5,-508 808.5,-508 808.5,-612"/>
<polygon fill="none" stroke="black" points="566.5,-586 566.5,-612 808.5,-612 808.5,-586 566.5,-586"/>
<text text-anchor="start" x="662.75" y="-594.7" font-family="Courier New" font-weight="bold" font-size="14.00">IfNode</text>
<polygon fill="none" stroke="black" points="566.5,-560 566.5,-586 691.5,-586 691.5,-560 566.5,-560"/>
<text text-anchor="start" x="571.25" y="-567.7" font-family="Courier New" font-size="14.00">if_keyword_loc</text>
<polygon fill="none" stroke="black" points="691.5,-560 691.5,-586 808.5,-586 808.5,-560 691.5,-560"/>
<text text-anchor="start" x="696.38" y="-567.7" font-family="Courier New" font-size="14.00">(3,11)&#45;(3,13)</text>
<polygon fill="none" stroke="black" points="566.5,-534 566.5,-560 808.5,-560 808.5,-534 566.5,-534"/>
<text text-anchor="start" x="571.5" y="-541.7" font-family="Courier New" font-size="14.00">predicate</text>
<polygon fill="none" stroke="black" points="566.5,-508 566.5,-534 808.5,-534 808.5,-508 566.5,-508"/>
<text text-anchor="start" x="571.5" y="-515.7" font-family="Courier New" font-size="14.00">statements</text>
</g>
<!-- Node_120&#45;&gt;Node_300 -->
<g id="edge15" class="edge">
<title>Node_120:pattern&#45;&gt;Node_300</title>
<path fill="none" stroke="black" d="M747.5,-687C779.64,-687 762.36,-653.17 738.25,-620.57"/>
<polygon fill="black" stroke="black" points="740.49,-618.73 731.66,-612.89 734.92,-622.97 740.49,-618.73"/>
</g>
<!-- Node_320 -->
<g id="node13" class="node">
<title>Node_320</title>
<polygon fill="#f2f2f2" stroke="none" points="790,-472 573,-472 573,-316 790,-316 790,-472"/>
<polygon fill="none" stroke="black" points="573,-446 573,-472 790,-472 790,-446 573,-446"/>
<text text-anchor="start" x="648.5" y="-454.7" font-family="Courier New" font-weight="bold" font-size="14.00">CallNode</text>
<polygon fill="none" stroke="black" points="573,-420 573,-446 673,-446 673,-420 573,-420"/>
<text text-anchor="start" x="578" y="-427.7" font-family="Courier New" font-size="14.00">flags</text>
<polygon fill="none" stroke="black" points="673,-420 673,-446 790,-446 790,-420 673,-420"/>
<polygon fill="none" stroke="black" points="573,-394 573,-420 790,-420 790,-394 573,-394"/>
<text text-anchor="start" x="578" y="-401.7" font-family="Courier New" font-size="14.00">receiver</text>
<polygon fill="none" stroke="black" points="573,-368 573,-394 673,-394 673,-368 573,-368"/>
<text text-anchor="start" x="578" y="-375.7" font-family="Courier New" font-size="14.00">name</text>
<polygon fill="none" stroke="black" points="673,-368 673,-394 790,-394 790,-368 673,-368"/>
<text text-anchor="start" x="723.25" y="-375.7" font-family="Courier New" font-size="14.00">:&gt;</text>
<polygon fill="none" stroke="black" points="573,-342 573,-368 673,-368 673,-342 573,-342"/>
<text text-anchor="start" x="577.62" y="-349.7" font-family="Courier New" font-size="14.00">message_loc</text>
<polygon fill="none" stroke="black" points="673,-342 673,-368 790,-368 790,-342 673,-342"/>
<text text-anchor="start" x="677.88" y="-349.7" font-family="Courier New" font-size="14.00">(3,18)&#45;(3,19)</text>
<polygon fill="none" stroke="black" points="573,-316 573,-342 790,-342 790,-316 573,-316"/>
<text text-anchor="start" x="578" y="-323.7" font-family="Courier New" font-size="14.00">arguments</text>
</g>
<!-- Node_300&#45;&gt;Node_320 -->
<g id="edge16" class="edge">
<title>Node_300:predicate&#45;&gt;Node_320</title>
<path fill="none" stroke="black" d="M565.5,-547C556.83,-547 563.05,-515.95 566.5,-508 570.68,-498.37 576.11,-489.14 582.32,-480.4"/>
<polygon fill="black" stroke="black" points="585.56,-482.91 588.78,-472.82 579.97,-478.7 585.56,-482.91"/>
</g>
<!-- Node_340 -->
<g id="node17" class="node">
<title>Node_340</title>
<polygon fill="#f2f2f2" stroke="none" points="933,-420 808,-420 808,-368 933,-368 933,-420"/>
<polygon fill="none" stroke="black" points="808,-394 808,-420 933,-420 933,-394 808,-394"/>
<text text-anchor="start" x="812.75" y="-402.7" font-family="Courier New" font-weight="bold" font-size="14.00">StatementsNode</text>
<polygon fill="none" stroke="black" points="808,-368 808,-394 933,-394 933,-368 808,-368"/>
<text text-anchor="start" x="813" y="-375.7" font-family="Courier New" font-size="14.00">body</text>
</g>
<!-- Node_300&#45;&gt;Node_340 -->
<g id="edge17" class="edge">
<title>Node_300:statements&#45;&gt;Node_340</title>
<path fill="none" stroke="black" d="M809.5,-521C849.98,-521 863.61,-467.66 868.19,-430.39"/>
<polygon fill="black" stroke="black" points="871.73,-431.21 869.3,-420.89 864.77,-430.47 871.73,-431.21"/>
</g>
<!-- Node_360 -->
<g id="node14" class="node">
<title>Node_360</title>
<polygon fill="#f2f2f2" stroke="none" points="681,-280 464,-280 464,-176 681,-176 681,-280"/>
<polygon fill="none" stroke="black" points="464,-254 464,-280 681,-280 681,-254 464,-254"/>
<text text-anchor="start" x="539.5" y="-262.7" font-family="Courier New" font-weight="bold" font-size="14.00">CallNode</text>
<polygon fill="none" stroke="black" points="464,-228 464,-254 564,-254 564,-228 464,-228"/>
<text text-anchor="start" x="469" y="-235.7" font-family="Courier New" font-size="14.00">flags</text>
<polygon fill="none" stroke="black" points="564,-228 564,-254 681,-254 681,-228 564,-228"/>
<text text-anchor="start" x="568.88" y="-235.7" font-family="Courier New" font-size="14.00">variable_call</text>
<polygon fill="none" stroke="black" points="464,-202 464,-228 564,-228 564,-202 464,-202"/>
<text text-anchor="start" x="469" y="-209.7" font-family="Courier New" font-size="14.00">name</text>
<polygon fill="none" stroke="black" points="564,-202 564,-228 681,-228 681,-202 564,-202"/>
<text text-anchor="start" x="606" y="-209.7" font-family="Courier New" font-size="14.00">:foo</text>
<polygon fill="none" stroke="black" points="464,-176 464,-202 564,-202 564,-176 464,-176"/>
<text text-anchor="start" x="468.62" y="-183.7" font-family="Courier New" font-size="14.00">message_loc</text>
<polygon fill="none" stroke="black" points="564,-176 564,-202 681,-202 681,-176 564,-176"/>
<text text-anchor="start" x="568.88" y="-183.7" font-family="Courier New" font-size="14.00">(3,14)&#45;(3,17)</text>
</g>
<!-- Node_320&#45;&gt;Node_360 -->
<g id="edge18" class="edge">
<title>Node_320:receiver&#45;&gt;Node_360</title>
<path fill="none" stroke="black" d="M571.5,-407C523.51,-407 534.11,-341.49 549.88,-289.96"/>
<polygon fill="black" stroke="black" points="553.5,-291.12 553.19,-280.53 546.83,-289 553.5,-291.12"/>
</g>
<!-- Node_380 -->
<g id="node15" class="node">
<title>Node_380</title>
<polygon fill="#f2f2f2" stroke="none" points="816,-267 699,-267 699,-189 816,-189 816,-267"/>
<polygon fill="none" stroke="black" points="699,-241 699,-267 816,-267 816,-241 699,-241"/>
<text text-anchor="start" x="703.88" y="-249.7" font-family="Courier New" font-weight="bold" font-size="14.00">ArgumentsNode</text>
<polygon fill="none" stroke="black" points="699,-215 699,-241 778,-241 778,-215 699,-215"/>
<text text-anchor="start" x="704" y="-222.7" font-family="Courier New" font-size="14.00">flags</text>
<polygon fill="none" stroke="black" points="778,-215 778,-241 816,-241 816,-215 778,-215"/>
<polygon fill="none" stroke="black" points="699,-189 699,-215 816,-215 816,-189 699,-189"/>
<text text-anchor="start" x="704" y="-196.7" font-family="Courier New" font-size="14.00">arguments</text>
</g>
<!-- Node_320&#45;&gt;Node_380 -->
<g id="edge19" class="edge">
<title>Node_320:arguments&#45;&gt;Node_380</title>
<path fill="none" stroke="black" d="M791.5,-329C803.61,-329 794.17,-302.36 782.19,-276.59"/>
<polygon fill="black" stroke="black" points="784.98,-275.32 777.51,-267.81 778.67,-278.34 784.98,-275.32"/>
</g>
<!-- Node_380_arguments -->
<g id="node23" class="node">
<title>Node_380_arguments</title>
<ellipse fill="#f2f2f2" stroke="black" cx="757.5" cy="-114" rx="1.8" ry="1.8"/>
</g>
<!-- Node_380&#45;&gt;Node_380_arguments -->
<g id="edge20" class="edge">
<title>Node_380:arguments&#45;&gt;Node_380_arguments</title>
<path fill="none" stroke="black" d="M757.5,-188C757.5,-166.41 757.5,-141.22 757.5,-126.79"/>
<polygon fill="black" stroke="black" points="761,-127.03 757.5,-117.03 754,-127.03 761,-127.03"/>
</g>
<!-- Node_400 -->
<g id="node16" class="node">
<title>Node_400</title>
<polygon fill="#f2f2f2" stroke="none" points="816.5,-52 698.5,-52 698.5,0 816.5,0 816.5,-52"/>
<polygon fill="none" stroke="black" points="698.5,-26 698.5,-52 816.5,-52 816.5,-26 698.5,-26"/>
<text text-anchor="start" x="712.12" y="-34.7" font-family="Courier New" font-weight="bold" font-size="14.00">IntegerNode</text>
<polygon fill="none" stroke="black" points="698.5,0 698.5,-26 749.5,-26 749.5,0 698.5,0"/>
<text text-anchor="start" x="703.38" y="-7.7" font-family="Courier New" font-size="14.00">flags</text>
<polygon fill="none" stroke="black" points="749.5,0 749.5,-26 816.5,-26 816.5,0 749.5,0"/>
<text text-anchor="start" x="754.12" y="-7.7" font-family="Courier New" font-size="14.00">decimal</text>
</g>
<!-- Node_340_body -->
<g id="node24" class="node">
<title>Node_340_body</title>
<ellipse fill="#f2f2f2" stroke="black" cx="870.5" cy="-228" rx="1.8" ry="1.8"/>
</g>
<!-- Node_340&#45;&gt;Node_340_body -->
<g id="edge22" class="edge">
<title>Node_340:body&#45;&gt;Node_340_body</title>
<path fill="none" stroke="black" d="M870.5,-367C870.5,-320.45 870.5,-265.06 870.5,-241.07"/>
<polygon fill="black" stroke="black" points="874,-241.11 870.5,-231.11 867,-241.11 874,-241.11"/>
</g>
<!-- Node_420 -->
<g id="node18" class="node">
<title>Node_420</title>
<polygon fill="#f2f2f2" stroke="none" points="941.5,-140 799.5,-140 799.5,-88 941.5,-88 941.5,-140"/>
<polygon fill="none" stroke="black" points="799.5,-114 799.5,-140 941.5,-140 941.5,-114 799.5,-114"/>
<text text-anchor="start" x="804.5" y="-122.7" font-family="Courier New" font-weight="bold" font-size="14.00">ConstantReadNode</text>
<polygon fill="none" stroke="black" points="799.5,-88 799.5,-114 853.5,-114 853.5,-88 799.5,-88"/>
<text text-anchor="start" x="804.5" y="-95.7" font-family="Courier New" font-size="14.00">name</text>
<polygon fill="none" stroke="black" points="853.5,-88 853.5,-114 941.5,-114 941.5,-88 853.5,-88"/>
<text text-anchor="start" x="864.5" y="-95.7" font-family="Courier New" font-size="14.00">:Integer</text>
</g>
<!-- Node_60_conditions&#45;&gt;Node_100 -->
<g id="edge3" class="edge">
<title>Node_60_conditions&#45;&gt;Node_100</title>
<path fill="none" stroke="black" d="M567.51,-812.21C567.57,-807.26 567.34,-780 556.5,-762 550.21,-751.55 541.91,-741.87 532.91,-733.2"/>
<polygon fill="black" stroke="black" points="535.61,-731 525.86,-726.83 530.88,-736.17 535.61,-731"/>
</g>
<!-- Node_60_conditions&#45;&gt;Node_120 -->
<g id="edge4" class="edge">
<title>Node_60_conditions&#45;&gt;Node_120</title>
<path fill="none" stroke="black" d="M568.13,-812.2C572.91,-806.17 603.85,-767.11 629.77,-734.37"/>
<polygon fill="black" stroke="black" points="633.11,-736.79 636.58,-726.78 627.63,-732.45 633.11,-736.79"/>
</g>
<!-- Node_240_arguments&#45;&gt;Node_260 -->
<g id="edge12" class="edge">
<title>Node_240_arguments&#45;&gt;Node_260</title>
<path fill="none" stroke="black" d="M293.5,-111.78C293.5,-106.32 293.5,-83.36 293.5,-62.72"/>
<polygon fill="black" stroke="black" points="297,-62.93 293.5,-52.93 290,-62.93 297,-62.93"/>
</g>
<!-- Node_200_body&#45;&gt;Node_280 -->
<g id="edge14" class="edge">
<title>Node_200_body&#45;&gt;Node_280</title>
<path fill="none" stroke="black" d="M433.5,-225.74C433.5,-218.37 433.5,-180.07 433.5,-150.55"/>
<polygon fill="black" stroke="black" points="437,-150.75 433.5,-140.75 430,-150.75 437,-150.75"/>
</g>
<!-- Node_380_arguments&#45;&gt;Node_400 -->
<g id="edge21" class="edge">
<title>Node_380_arguments&#45;&gt;Node_400</title>
<path fill="none" stroke="black" d="M757.5,-111.78C757.5,-106.32 757.5,-83.36 757.5,-62.72"/>
<polygon fill="black" stroke="black" points="761,-62.93 757.5,-52.93 754,-62.93 761,-62.93"/>
</g>
<!-- Node_340_body&#45;&gt;Node_420 -->
<g id="edge23" class="edge">
<title>Node_340_body&#45;&gt;Node_420</title>
<path fill="none" stroke="black" d="M870.5,-225.74C870.5,-218.37 870.5,-180.07 870.5,-150.55"/>
<polygon fill="black" stroke="black" points="874,-150.75 870.5,-140.75 867,-150.75 874,-150.75"/>
</g>
</g>
</svg>
