<?xml version="1.0" encoding="UTF-8" standalone="no"?>
<!DOCTYPE svg PUBLIC "-//W3C//DTD SVG 1.1//EN"
 "http://www.w3.org/Graphics/SVG/1.1/DTD/svg11.dtd">
<!-- Generated by graphviz version 8.1.0 (20230707.0739)
 -->
<!-- Title: Prism Pages: 1 -->
<svg width="493pt" height="418pt"
 viewBox="0.00 0.00 493.01 418.00" xmlns="http://www.w3.org/2000/svg" xmlns:xlink="http://www.w3.org/1999/xlink">
<g id="graph0" class="graph" transform="scale(1 1) rotate(0) translate(4 414)">
<title>Prism</title>
<polygon fill="white" stroke="none" points="-4,4 -4,-414 489.01,-414 489.01,4 -4,4"/>
<!-- Node_60 -->
<g id="node1" class="node">
<title>Node_60</title>
<polygon fill="#f2f2f2" stroke="none" points="333,-410 124,-410 124,-306 333,-306 333,-410"/>
<polygon fill="none" stroke="black" points="124,-384 124,-410 333,-410 333,-384 124,-384"/>
<text text-anchor="start" x="154.25" y="-392.7" font-family="Courier New" font-weight="bold" font-size="14.00">MatchPredicateNode</text>
<polygon fill="none" stroke="black" points="124,-358 124,-384 333,-384 333,-358 124,-358"/>
<text text-anchor="start" x="129" y="-365.7" font-family="Courier New" font-size="14.00">value</text>
<polygon fill="none" stroke="black" points="124,-332 124,-358 333,-358 333,-332 124,-332"/>
<text text-anchor="start" x="129" y="-339.7" font-family="Courier New" font-size="14.00">pattern</text>
<polygon fill="none" stroke="black" points="124,-306 124,-332 233,-332 233,-306 124,-306"/>
<text text-anchor="start" x="129" y="-313.7" font-family="Courier New" font-size="14.00">operator_loc</text>
<polygon fill="none" stroke="black" points="233,-306 233,-332 333,-332 333,-306 233,-306"/>
<text text-anchor="start" x="237.62" y="-313.7" font-family="Courier New" font-size="14.00">(1,4)&#45;(1,6)</text>
</g>
<!-- Node_80 -->
<g id="node2" class="node">
<title>Node_80</title>
<polygon fill="#f2f2f2" stroke="none" points="217,-257 0,-257 0,-153 217,-153 217,-257"/>
<polygon fill="none" stroke="black" points="0,-231 0,-257 217,-257 217,-231 0,-231"/>
<text text-anchor="start" x="75.5" y="-239.7" font-family="Courier New" font-weight="bold" font-size="14.00">CallNode</text>
<polygon fill="none" stroke="black" points="0,-205 0,-231 100,-231 100,-205 0,-205"/>
<text text-anchor="start" x="5" y="-212.7" font-family="Courier New" font-size="14.00">flags</text>
<polygon fill="none" stroke="black" points="100,-205 100,-231 217,-231 217,-205 100,-205"/>
<text text-anchor="start" x="104.88" y="-212.7" font-family="Courier New" font-size="14.00">variable_call</text>
<polygon fill="none" stroke="black" points="0,-179 0,-205 100,-205 100,-179 0,-179"/>
<text text-anchor="start" x="5" y="-186.7" font-family="Courier New" font-size="14.00">name</text>
<polygon fill="none" stroke="black" points="100,-179 100,-205 217,-205 217,-179 100,-179"/>
<text text-anchor="start" x="142" y="-186.7" font-family="Courier New" font-size="14.00">:foo</text>
<polygon fill="none" stroke="black" points="0,-153 0,-179 100,-179 100,-153 0,-153"/>
<text text-anchor="start" x="4.62" y="-160.7" font-family="Courier New" font-size="14.00">message_loc</text>
<polygon fill="none" stroke="black" points="100,-153 100,-179 217,-179 217,-153 100,-153"/>
<text text-anchor="start" x="113.12" y="-160.7" font-family="Courier New" font-size="14.00">(1,0)&#45;(1,3)</text>
</g>
<!-- Node_60&#45;&gt;Node_80 -->
<g id="edge1" class="edge">
<title>Node_60:value&#45;&gt;Node_80</title>
<path fill="none" stroke="black" d="M122.5,-371C79.43,-371 81.98,-314.48 91.5,-267.6"/>
<polygon fill="black" stroke="black" points="95.13,-268.37 93.83,-257.85 88.29,-266.88 95.13,-268.37"/>
</g>
<!-- Node_100 -->
<g id="node3" class="node">
<title>Node_100</title>
<polygon fill="#f2f2f2" stroke="none" points="461.5,-270 235.5,-270 235.5,-140 461.5,-140 461.5,-270"/>
<polygon fill="none" stroke="black" points="235.5,-244 235.5,-270 461.5,-270 461.5,-244 235.5,-244"/>
<text text-anchor="start" x="266" y="-252.7" font-family="Courier New" font-weight="bold" font-size="14.00">PinnedExpressionNode</text>
<polygon fill="none" stroke="black" points="235.5,-218 235.5,-244 461.5,-244 461.5,-218 235.5,-218"/>
<text text-anchor="start" x="240.5" y="-225.7" font-family="Courier New" font-size="14.00">expression</text>
<polygon fill="none" stroke="black" points="235.5,-192 235.5,-218 344.5,-218 344.5,-192 235.5,-192"/>
<text text-anchor="start" x="240.5" y="-199.7" font-family="Courier New" font-size="14.00">operator_loc</text>
<polygon fill="none" stroke="black" points="344.5,-192 344.5,-218 461.5,-218 461.5,-192 344.5,-192"/>
<text text-anchor="start" x="357.62" y="-199.7" font-family="Courier New" font-size="14.00">(1,7)&#45;(1,8)</text>
<polygon fill="none" stroke="black" points="235.5,-166 235.5,-192 344.5,-192 344.5,-166 235.5,-166"/>
<text text-anchor="start" x="240.5" y="-173.7" font-family="Courier New" font-size="14.00">lparen_loc</text>
<polygon fill="none" stroke="black" points="344.5,-166 344.5,-192 461.5,-192 461.5,-166 344.5,-166"/>
<text text-anchor="start" x="357.62" y="-173.7" font-family="Courier New" font-size="14.00">(1,8)&#45;(1,9)</text>
<polygon fill="none" stroke="black" points="235.5,-140 235.5,-166 344.5,-166 344.5,-140 235.5,-140"/>
<text text-anchor="start" x="240.5" y="-147.7" font-family="Courier New" font-size="14.00">rparen_loc</text>
<polygon fill="none" stroke="black" points="344.5,-140 344.5,-166 461.5,-166 461.5,-140 344.5,-140"/>
<text text-anchor="start" x="349.38" y="-147.7" font-family="Courier New" font-size="14.00">(1,12)&#45;(1,13)</text>
</g>
<!-- Node_60&#45;&gt;Node_100 -->
<g id="edge2" class="edge">
<title>Node_60:pattern&#45;&gt;Node_100</title>
<path fill="none" stroke="black" d="M334.5,-345C364.05,-345 368.64,-313.53 365.34,-280.53"/>
<polygon fill="black" stroke="black" points="368.72,-280.3 364.02,-270.8 361.77,-281.16 368.72,-280.3"/>
</g>
<!-- Node_120 -->
<g id="node4" class="node">
<title>Node_120</title>
<polygon fill="#f2f2f2" stroke="none" points="457,-104 240,-104 240,0 457,0 457,-104"/>
<polygon fill="none" stroke="black" points="240,-78 240,-104 457,-104 457,-78 240,-78"/>
<text text-anchor="start" x="315.5" y="-86.7" font-family="Courier New" font-weight="bold" font-size="14.00">CallNode</text>
<polygon fill="none" stroke="black" points="240,-52 240,-78 340,-78 340,-52 240,-52"/>
<text text-anchor="start" x="245" y="-59.7" font-family="Courier New" font-size="14.00">flags</text>
<polygon fill="none" stroke="black" points="340,-52 340,-78 457,-78 457,-52 340,-52"/>
<text text-anchor="start" x="344.88" y="-59.7" font-family="Courier New" font-size="14.00">variable_call</text>
<polygon fill="none" stroke="black" points="240,-26 240,-52 340,-52 340,-26 240,-26"/>
<text text-anchor="start" x="245" y="-33.7" font-family="Courier New" font-size="14.00">name</text>
<polygon fill="none" stroke="black" points="340,-26 340,-52 457,-52 457,-26 340,-26"/>
<text text-anchor="start" x="382" y="-33.7" font-family="Courier New" font-size="14.00">:bar</text>
<polygon fill="none" stroke="black" points="240,0 240,-26 340,-26 340,0 240,0"/>
<text text-anchor="start" x="244.62" y="-7.7" font-family="Courier New" font-size="14.00">message_loc</text>
<polygon fill="none" stroke="black" points="340,0 340,-26 457,-26 457,0 340,0"/>
<text text-anchor="start" x="349" y="-7.7" font-family="Courier New" font-size="14.00">(1,9)&#45;(1,12)</text>
</g>
<!-- Node_100&#45;&gt;Node_120 -->
<g id="edge3" class="edge">
<title>Node_100:expression&#45;&gt;Node_120</title>
<path fill="none" stroke="black" d="M462.5,-231C502.95,-231 479.56,-176.19 461.5,-140 456.29,-129.57 449.18,-120.03 441.04,-111.41"/>
<polygon fill="black" stroke="black" points="443.87,-109.3 434.3,-104.76 438.95,-114.28 443.87,-109.3"/>
</g>
</g>
</svg>
