<?xml version="1.0" encoding="UTF-8" standalone="no"?>
<!DOCTYPE svg PUBLIC "-//W3C//DTD SVG 1.1//EN"
 "http://www.w3.org/Graphics/SVG/1.1/DTD/svg11.dtd">
<!-- Generated by graphviz version 8.1.0 (20230707.0739)
 -->
<!-- Title: Prism Pages: 1 -->
<svg width="227pt" height="598pt"
 viewBox="0.00 0.00 227.21 597.60" xmlns="http://www.w3.org/2000/svg" xmlns:xlink="http://www.w3.org/1999/xlink">
<g id="graph0" class="graph" transform="scale(1 1) rotate(0) translate(4 593.6)">
<title>Prism</title>
<polygon fill="white" stroke="none" points="-4,4 -4,-593.6 223.21,-593.6 223.21,4 -4,4"/>
<!-- Node_60 -->
<g id="node1" class="node">
<title>Node_60</title>
<polygon fill="#f2f2f2" stroke="none" points="208.5,-589.6 8.5,-589.6 8.5,-407.6 208.5,-407.6 208.5,-589.6"/>
<polygon fill="none" stroke="black" points="8.5,-563.6 8.5,-589.6 208.5,-589.6 208.5,-563.6 8.5,-563.6"/>
<text text-anchor="start" x="75.5" y="-572.3" font-family="Courier New" font-weight="bold" font-size="14.00">CallNode</text>
<polygon fill="none" stroke="black" points="8.5,-537.6 8.5,-563.6 108.5,-563.6 108.5,-537.6 8.5,-537.6"/>
<text text-anchor="start" x="13.5" y="-545.3" font-family="Courier New" font-size="14.00">flags</text>
<polygon fill="none" stroke="black" points="108.5,-537.6 108.5,-563.6 208.5,-563.6 208.5,-537.6 108.5,-537.6"/>
<polygon fill="none" stroke="black" points="8.5,-511.6 8.5,-537.6 108.5,-537.6 108.5,-511.6 8.5,-511.6"/>
<text text-anchor="start" x="13.5" y="-519.3" font-family="Courier New" font-size="14.00">name</text>
<polygon fill="none" stroke="black" points="108.5,-511.6 108.5,-537.6 208.5,-537.6 208.5,-511.6 108.5,-511.6"/>
<text text-anchor="start" x="142" y="-519.3" font-family="Courier New" font-size="14.00">:foo</text>
<polygon fill="none" stroke="black" points="8.5,-485.6 8.5,-511.6 108.5,-511.6 108.5,-485.6 8.5,-485.6"/>
<text text-anchor="start" x="13.12" y="-493.3" font-family="Courier New" font-size="14.00">message_loc</text>
<polygon fill="none" stroke="black" points="108.5,-485.6 108.5,-511.6 208.5,-511.6 208.5,-485.6 108.5,-485.6"/>
<text text-anchor="start" x="113.12" y="-493.3" font-family="Courier New" font-size="14.00">(1,0)&#45;(1,3)</text>
<polygon fill="none" stroke="black" points="8.5,-459.6 8.5,-485.6 108.5,-485.6 108.5,-459.6 8.5,-459.6"/>
<text text-anchor="start" x="13.12" y="-467.3" font-family="Courier New" font-size="14.00">opening_loc</text>
<polygon fill="none" stroke="black" points="108.5,-459.6 108.5,-485.6 208.5,-485.6 208.5,-459.6 108.5,-459.6"/>
<text text-anchor="start" x="113.12" y="-467.3" font-family="Courier New" font-size="14.00">(1,3)&#45;(1,4)</text>
<polygon fill="none" stroke="black" points="8.5,-433.6 8.5,-459.6 208.5,-459.6 208.5,-433.6 8.5,-433.6"/>
<text text-anchor="start" x="13.5" y="-441.3" font-family="Courier New" font-size="14.00">arguments</text>
<polygon fill="none" stroke="black" points="8.5,-407.6 8.5,-433.6 108.5,-433.6 108.5,-407.6 8.5,-407.6"/>
<text text-anchor="start" x="13.12" y="-415.3" font-family="Courier New" font-size="14.00">closing_loc</text>
<polygon fill="none" stroke="black" points="108.5,-407.6 108.5,-433.6 208.5,-433.6 208.5,-407.6 108.5,-407.6"/>
<text text-anchor="start" x="113.12" y="-415.3" font-family="Courier New" font-size="14.00">(1,8)&#45;(1,9)</text>
</g>
<!-- Node_80 -->
<g id="node2" class="node">
<title>Node_80</title>
<polygon fill="#f2f2f2" stroke="none" points="167,-371.6 50,-371.6 50,-293.6 167,-293.6 167,-371.6"/>
<polygon fill="none" stroke="black" points="50,-345.6 50,-371.6 167,-371.6 167,-345.6 50,-345.6"/>
<text text-anchor="start" x="54.88" y="-354.3" font-family="Courier New" font-weight="bold" font-size="14.00">ArgumentsNode</text>
<polygon fill="none" stroke="black" points="50,-319.6 50,-345.6 129,-345.6 129,-319.6 50,-319.6"/>
<text text-anchor="start" x="55" y="-327.3" font-family="Courier New" font-size="14.00">flags</text>
<polygon fill="none" stroke="black" points="129,-319.6 129,-345.6 167,-345.6 167,-319.6 129,-319.6"/>
<polygon fill="none" stroke="black" points="50,-293.6 50,-319.6 167,-319.6 167,-293.6 50,-293.6"/>
<text text-anchor="start" x="55" y="-301.3" font-family="Courier New" font-size="14.00">arguments</text>
</g>
<!-- Node_60&#45;&gt;Node_80 -->
<g id="edge1" class="edge">
<title>Node_60:arguments&#45;&gt;Node_80</title>
<path fill="none" stroke="black" d="M209.5,-446.6C226.84,-446.6 216.5,-422.98 208.5,-407.6 200.86,-392.9 188.81,-380.37 175.7,-370.03"/>
<polygon fill="black" stroke="black" points="178.08,-366.69 167.96,-363.54 173.91,-372.31 178.08,-366.69"/>
</g>
<!-- Node_80_arguments -->
<g id="node5" class="node">
<title>Node_80_arguments</title>
<ellipse fill="#f2f2f2" stroke="black" cx="108.5" cy="-255.8" rx="1.8" ry="1.8"/>
</g>
<!-- Node_80&#45;&gt;Node_80_arguments -->
<g id="edge2" class="edge">
<title>Node_80:arguments&#45;&gt;Node_80_arguments</title>
<path fill="none" stroke="black" d="M108.5,-293.6C108.5,-285.36 108.5,-276.09 108.5,-268.91"/>
<polygon fill="black" stroke="black" points="112,-268.94 108.5,-258.94 105,-268.94 112,-268.94"/>
</g>
<!-- Node_100 -->
<g id="node3" class="node">
<title>Node_100</title>
<polygon fill="#f2f2f2" stroke="none" points="213,-218 4,-218 4,-140 213,-140 213,-218"/>
<polygon fill="none" stroke="black" points="4,-192 4,-218 213,-218 213,-192 4,-192"/>
<text text-anchor="start" x="71.38" y="-200.7" font-family="Courier New" font-weight="bold" font-size="14.00">SplatNode</text>
<polygon fill="none" stroke="black" points="4,-166 4,-192 113,-192 113,-166 4,-166"/>
<text text-anchor="start" x="9" y="-173.7" font-family="Courier New" font-size="14.00">operator_loc</text>
<polygon fill="none" stroke="black" points="113,-166 113,-192 213,-192 213,-166 113,-166"/>
<text text-anchor="start" x="117.62" y="-173.7" font-family="Courier New" font-size="14.00">(1,4)&#45;(1,5)</text>
<polygon fill="none" stroke="black" points="4,-140 4,-166 213,-166 213,-140 4,-140"/>
<text text-anchor="start" x="9" y="-147.7" font-family="Courier New" font-size="14.00">expression</text>
</g>
<!-- Node_120 -->
<g id="node4" class="node">
<title>Node_120</title>
<polygon fill="#f2f2f2" stroke="none" points="217,-104 0,-104 0,0 217,0 217,-104"/>
<polygon fill="none" stroke="black" points="0,-78 0,-104 217,-104 217,-78 0,-78"/>
<text text-anchor="start" x="75.5" y="-86.7" font-family="Courier New" font-weight="bold" font-size="14.00">CallNode</text>
<polygon fill="none" stroke="black" points="0,-52 0,-78 100,-78 100,-52 0,-52"/>
<text text-anchor="start" x="5" y="-59.7" font-family="Courier New" font-size="14.00">flags</text>
<polygon fill="none" stroke="black" points="100,-52 100,-78 217,-78 217,-52 100,-52"/>
<text text-anchor="start" x="104.88" y="-59.7" font-family="Courier New" font-size="14.00">variable_call</text>
<polygon fill="none" stroke="black" points="0,-26 0,-52 100,-52 100,-26 0,-26"/>
<text text-anchor="start" x="5" y="-33.7" font-family="Courier New" font-size="14.00">name</text>
<polygon fill="none" stroke="black" points="100,-26 100,-52 217,-52 217,-26 100,-26"/>
<text text-anchor="start" x="142" y="-33.7" font-family="Courier New" font-size="14.00">:bar</text>
<polygon fill="none" stroke="black" points="0,0 0,-26 100,-26 100,0 0,0"/>
<text text-anchor="start" x="4.62" y="-7.7" font-family="Courier New" font-size="14.00">message_loc</text>
<polygon fill="none" stroke="black" points="100,0 100,-26 217,-26 217,0 100,0"/>
<text text-anchor="start" x="113.12" y="-7.7" font-family="Courier New" font-size="14.00">(1,5)&#45;(1,8)</text>
</g>
<!-- Node_100&#45;&gt;Node_120 -->
<g id="edge4" class="edge">
<title>Node_100:expression&#45;&gt;Node_120</title>
<path fill="none" stroke="black" d="M108.5,-140C108.5,-131.72 108.5,-122.99 108.5,-114.39"/>
<polygon fill="black" stroke="black" points="112,-114.6 108.5,-104.6 105,-114.6 112,-114.6"/>
</g>
<!-- Node_80_arguments&#45;&gt;Node_100 -->
<g id="edge3" class="edge">
<title>Node_80_arguments&#45;&gt;Node_100</title>
<path fill="none" stroke="black" d="M108.5,-253.5C108.5,-250.06 108.5,-240.15 108.5,-228.69"/>
<polygon fill="black" stroke="black" points="112,-228.87 108.5,-218.87 105,-228.87 112,-228.87"/>
</g>
</g>
</svg>
