<?xml version="1.0" encoding="UTF-8" standalone="no"?>
<!DOCTYPE svg PUBLIC "-//W3C//DTD SVG 1.1//EN"
 "http://www.w3.org/Graphics/SVG/1.1/DTD/svg11.dtd">
<!-- Generated by graphviz version 8.1.0 (20230707.0739)
 -->
<!-- Title: Prism Pages: 1 -->
<svg width="398pt" height="432pt"
 viewBox="0.00 0.00 398.00 431.60" xmlns="http://www.w3.org/2000/svg" xmlns:xlink="http://www.w3.org/1999/xlink">
<g id="graph0" class="graph" transform="scale(1 1) rotate(0) translate(4 427.6)">
<title>Prism</title>
<polygon fill="white" stroke="none" points="-4,4 -4,-427.6 394,-427.6 394,4 -4,4"/>
<!-- Node_60 -->
<g id="node1" class="node">
<title>Node_60</title>
<polygon fill="#f2f2f2" stroke="none" points="303.5,-423.6 86.5,-423.6 86.5,-241.6 303.5,-241.6 303.5,-423.6"/>
<polygon fill="none" stroke="black" points="86.5,-397.6 86.5,-423.6 303.5,-423.6 303.5,-397.6 86.5,-397.6"/>
<text text-anchor="start" x="162" y="-406.3" font-family="Courier New" font-weight="bold" font-size="14.00">CallNode</text>
<polygon fill="none" stroke="black" points="86.5,-371.6 86.5,-397.6 186.5,-397.6 186.5,-371.6 86.5,-371.6"/>
<text text-anchor="start" x="91.5" y="-379.3" font-family="Courier New" font-size="14.00">flags</text>
<polygon fill="none" stroke="black" points="186.5,-371.6 186.5,-397.6 303.5,-397.6 303.5,-371.6 186.5,-371.6"/>
<polygon fill="none" stroke="black" points="86.5,-345.6 86.5,-371.6 186.5,-371.6 186.5,-345.6 86.5,-345.6"/>
<text text-anchor="start" x="91.5" y="-353.3" font-family="Courier New" font-size="14.00">name</text>
<polygon fill="none" stroke="black" points="186.5,-345.6 186.5,-371.6 303.5,-371.6 303.5,-345.6 186.5,-345.6"/>
<text text-anchor="start" x="228.5" y="-353.3" font-family="Courier New" font-size="14.00">:foo</text>
<polygon fill="none" stroke="black" points="86.5,-319.6 86.5,-345.6 186.5,-345.6 186.5,-319.6 86.5,-319.6"/>
<text text-anchor="start" x="91.12" y="-327.3" font-family="Courier New" font-size="14.00">message_loc</text>
<polygon fill="none" stroke="black" points="186.5,-319.6 186.5,-345.6 303.5,-345.6 303.5,-319.6 186.5,-319.6"/>
<text text-anchor="start" x="199.62" y="-327.3" font-family="Courier New" font-size="14.00">(1,0)&#45;(1,3)</text>
<polygon fill="none" stroke="black" points="86.5,-293.6 86.5,-319.6 186.5,-319.6 186.5,-293.6 86.5,-293.6"/>
<text text-anchor="start" x="91.12" y="-301.3" font-family="Courier New" font-size="14.00">opening_loc</text>
<polygon fill="none" stroke="black" points="186.5,-293.6 186.5,-319.6 303.5,-319.6 303.5,-293.6 186.5,-293.6"/>
<text text-anchor="start" x="199.62" y="-301.3" font-family="Courier New" font-size="14.00">(1,3)&#45;(1,4)</text>
<polygon fill="none" stroke="black" points="86.5,-267.6 86.5,-293.6 303.5,-293.6 303.5,-267.6 86.5,-267.6"/>
<text text-anchor="start" x="91.5" y="-275.3" font-family="Courier New" font-size="14.00">arguments</text>
<polygon fill="none" stroke="black" points="86.5,-241.6 86.5,-267.6 186.5,-267.6 186.5,-241.6 86.5,-241.6"/>
<text text-anchor="start" x="91.12" y="-249.3" font-family="Courier New" font-size="14.00">closing_loc</text>
<polygon fill="none" stroke="black" points="186.5,-241.6 186.5,-267.6 303.5,-267.6 303.5,-241.6 186.5,-241.6"/>
<text text-anchor="start" x="191.38" y="-249.3" font-family="Courier New" font-size="14.00">(1,11)&#45;(1,12)</text>
</g>
<!-- Node_80 -->
<g id="node2" class="node">
<title>Node_80</title>
<polygon fill="#f2f2f2" stroke="none" points="253.5,-205.6 136.5,-205.6 136.5,-127.6 253.5,-127.6 253.5,-205.6"/>
<polygon fill="none" stroke="black" points="136.5,-179.6 136.5,-205.6 253.5,-205.6 253.5,-179.6 136.5,-179.6"/>
<text text-anchor="start" x="141.38" y="-188.3" font-family="Courier New" font-weight="bold" font-size="14.00">ArgumentsNode</text>
<polygon fill="none" stroke="black" points="136.5,-153.6 136.5,-179.6 215.5,-179.6 215.5,-153.6 136.5,-153.6"/>
<text text-anchor="start" x="141.5" y="-161.3" font-family="Courier New" font-size="14.00">flags</text>
<polygon fill="none" stroke="black" points="215.5,-153.6 215.5,-179.6 253.5,-179.6 253.5,-153.6 215.5,-153.6"/>
<polygon fill="none" stroke="black" points="136.5,-127.6 136.5,-153.6 253.5,-153.6 253.5,-127.6 136.5,-127.6"/>
<text text-anchor="start" x="141.5" y="-135.3" font-family="Courier New" font-size="14.00">arguments</text>
</g>
<!-- Node_60&#45;&gt;Node_80 -->
<g id="edge1" class="edge">
<title>Node_60:arguments&#45;&gt;Node_80</title>
<path fill="none" stroke="black" d="M305,-280.6C322.34,-280.6 312.31,-256.82 304,-241.6 294.52,-224.24 279,-210.16 262.61,-199.13"/>
<polygon fill="black" stroke="black" points="264.77,-195.72 254.45,-193.32 261.01,-201.63 264.77,-195.72"/>
</g>
<!-- Node_80_arguments -->
<g id="node6" class="node">
<title>Node_80_arguments</title>
<ellipse fill="#f2f2f2" stroke="black" cx="195" cy="-89.8" rx="1.8" ry="1.8"/>
</g>
<!-- Node_80&#45;&gt;Node_80_arguments -->
<g id="edge2" class="edge">
<title>Node_80:arguments&#45;&gt;Node_80_arguments</title>
<path fill="none" stroke="black" d="M195,-127.6C195,-119.36 195,-110.09 195,-102.91"/>
<polygon fill="black" stroke="black" points="198.5,-102.94 195,-92.94 191.5,-102.94 198.5,-102.94"/>
</g>
<!-- Node_100 -->
<g id="node3" class="node">
<title>Node_100</title>
<polygon fill="#f2f2f2" stroke="none" points="118,-52 0,-52 0,0 118,0 118,-52"/>
<polygon fill="none" stroke="black" points="0,-26 0,-52 118,-52 118,-26 0,-26"/>
<text text-anchor="start" x="13.62" y="-34.7" font-family="Courier New" font-weight="bold" font-size="14.00">IntegerNode</text>
<polygon fill="none" stroke="black" points="0,0 0,-26 51,-26 51,0 0,0"/>
<text text-anchor="start" x="4.88" y="-7.7" font-family="Courier New" font-size="14.00">flags</text>
<polygon fill="none" stroke="black" points="51,0 51,-26 118,-26 118,0 51,0"/>
<text text-anchor="start" x="55.62" y="-7.7" font-family="Courier New" font-size="14.00">decimal</text>
</g>
<!-- Node_120 -->
<g id="node4" class="node">
<title>Node_120</title>
<polygon fill="#f2f2f2" stroke="none" points="254,-52 136,-52 136,0 254,0 254,-52"/>
<polygon fill="none" stroke="black" points="136,-26 136,-52 254,-52 254,-26 136,-26"/>
<text text-anchor="start" x="149.62" y="-34.7" font-family="Courier New" font-weight="bold" font-size="14.00">IntegerNode</text>
<polygon fill="none" stroke="black" points="136,0 136,-26 187,-26 187,0 136,0"/>
<text text-anchor="start" x="140.88" y="-7.7" font-family="Courier New" font-size="14.00">flags</text>
<polygon fill="none" stroke="black" points="187,0 187,-26 254,-26 254,0 187,0"/>
<text text-anchor="start" x="191.62" y="-7.7" font-family="Courier New" font-size="14.00">decimal</text>
</g>
<!-- Node_140 -->
<g id="node5" class="node">
<title>Node_140</title>
<polygon fill="#f2f2f2" stroke="none" points="390,-52 272,-52 272,0 390,0 390,-52"/>
<polygon fill="none" stroke="black" points="272,-26 272,-52 390,-52 390,-26 272,-26"/>
<text text-anchor="start" x="285.62" y="-34.7" font-family="Courier New" font-weight="bold" font-size="14.00">IntegerNode</text>
<polygon fill="none" stroke="black" points="272,0 272,-26 323,-26 323,0 272,0"/>
<text text-anchor="start" x="276.88" y="-7.7" font-family="Courier New" font-size="14.00">flags</text>
<polygon fill="none" stroke="black" points="323,0 323,-26 390,-26 390,0 323,0"/>
<text text-anchor="start" x="327.62" y="-7.7" font-family="Courier New" font-size="14.00">decimal</text>
</g>
<!-- Node_80_arguments&#45;&gt;Node_100 -->
<g id="edge3" class="edge">
<title>Node_80_arguments&#45;&gt;Node_100</title>
<path fill="none" stroke="black" d="M193.47,-88.11C186.26,-84.83 154.65,-70.47 123.9,-56.49"/>
<polygon fill="black" stroke="black" points="125.53,-52.93 114.97,-51.98 122.63,-59.3 125.53,-52.93"/>
</g>
<!-- Node_80_arguments&#45;&gt;Node_120 -->
<g id="edge4" class="edge">
<title>Node_80_arguments&#45;&gt;Node_120</title>
<path fill="none" stroke="black" d="M195,-87.73C195,-84.45 195,-74.09 195,-62.84"/>
<polygon fill="black" stroke="black" points="198.5,-62.97 195,-52.97 191.5,-62.98 198.5,-62.97"/>
</g>
<!-- Node_80_arguments&#45;&gt;Node_140 -->
<g id="edge5" class="edge">
<title>Node_80_arguments&#45;&gt;Node_140</title>
<path fill="none" stroke="black" d="M196.53,-88.11C203.74,-84.83 235.35,-70.47 266.1,-56.49"/>
<polygon fill="black" stroke="black" points="267.37,-59.3 275.03,-51.98 264.47,-52.93 267.37,-59.3"/>
</g>
</g>
</svg>
