<?xml version="1.0" encoding="UTF-8" standalone="no"?>
<!DOCTYPE svg PUBLIC "-//W3C//DTD SVG 1.1//EN"
 "http://www.w3.org/Graphics/SVG/1.1/DTD/svg11.dtd">
<!-- Generated by graphviz version 8.1.0 (20230707.0739)
 -->
<!-- Title: Prism Pages: 1 -->
<svg width="687pt" height="266pt"
 viewBox="0.00 0.00 687.00 265.60" xmlns="http://www.w3.org/2000/svg" xmlns:xlink="http://www.w3.org/1999/xlink">
<g id="graph0" class="graph" transform="scale(1 1) rotate(0) translate(4 261.6)">
<title>Prism</title>
<polygon fill="white" stroke="none" points="-4,4 -4,-261.6 683,-261.6 683,4 -4,4"/>
<!-- Node_60 -->
<g id="node1" class="node">
<title>Node_60</title>
<polygon fill="#f2f2f2" stroke="none" points="435.5,-257.6 235.5,-257.6 235.5,-179.6 435.5,-179.6 435.5,-257.6"/>
<polygon fill="none" stroke="black" points="235.5,-231.6 235.5,-257.6 435.5,-257.6 435.5,-231.6 235.5,-231.6"/>
<text text-anchor="start" x="298.38" y="-240.3" font-family="Courier New" font-weight="bold" font-size="14.00">UndefNode</text>
<polygon fill="none" stroke="black" points="235.5,-205.6 235.5,-231.6 435.5,-231.6 435.5,-205.6 235.5,-205.6"/>
<text text-anchor="start" x="240.5" y="-213.3" font-family="Courier New" font-size="14.00">names</text>
<polygon fill="none" stroke="black" points="235.5,-179.6 235.5,-205.6 335.5,-205.6 335.5,-179.6 235.5,-179.6"/>
<text text-anchor="start" x="240.12" y="-187.3" font-family="Courier New" font-size="14.00">keyword_loc</text>
<polygon fill="none" stroke="black" points="335.5,-179.6 335.5,-205.6 435.5,-205.6 435.5,-179.6 335.5,-179.6"/>
<text text-anchor="start" x="340.12" y="-187.3" font-family="Courier New" font-size="14.00">(1,0)&#45;(1,5)</text>
</g>
<!-- Node_60_names -->
<g id="node5" class="node">
<title>Node_60_names</title>
<ellipse fill="#f2f2f2" stroke="black" cx="335.5" cy="-141.8" rx="1.8" ry="1.8"/>
</g>
<!-- Node_60&#45;&gt;Node_60_names -->
<g id="edge1" class="edge">
<title>Node_60:names&#45;&gt;Node_60_names</title>
<path fill="none" stroke="black" d="M436.5,-218.6C453.84,-218.6 445.6,-193.69 435.5,-179.6 415.09,-151.12 370.14,-144.64 348.14,-143.19"/>
<polygon fill="black" stroke="black" points="348.44,-139.67 338.31,-142.79 348.18,-146.66 348.44,-139.67"/>
</g>
<!-- Node_80 -->
<g id="node2" class="node">
<title>Node_80</title>
<polygon fill="#f2f2f2" stroke="none" points="209,-104 0,-104 0,0 209,0 209,-104"/>
<polygon fill="none" stroke="black" points="0,-78 0,-104 209,-104 209,-78 0,-78"/>
<text text-anchor="start" x="63.25" y="-86.7" font-family="Courier New" font-weight="bold" font-size="14.00">SymbolNode</text>
<polygon fill="none" stroke="black" points="0,-52 0,-78 100,-78 100,-52 0,-52"/>
<text text-anchor="start" x="4.62" y="-59.7" font-family="Courier New" font-size="14.00">opening_loc</text>
<polygon fill="none" stroke="black" points="100,-52 100,-78 209,-78 209,-52 100,-52"/>
<text text-anchor="start" x="109.12" y="-59.7" font-family="Courier New" font-size="14.00">(1,6)&#45;(1,7)</text>
<polygon fill="none" stroke="black" points="0,-26 0,-52 100,-52 100,-26 0,-26"/>
<text text-anchor="start" x="5" y="-33.7" font-family="Courier New" font-size="14.00">value_loc</text>
<polygon fill="none" stroke="black" points="100,-26 100,-52 209,-52 209,-26 100,-26"/>
<text text-anchor="start" x="105" y="-33.7" font-family="Courier New" font-size="14.00">(1,7)&#45;(1,10)</text>
<polygon fill="none" stroke="black" points="0,0 0,-26 100,-26 100,0 0,0"/>
<text text-anchor="start" x="5" y="-7.7" font-family="Courier New" font-size="14.00">unescaped</text>
<polygon fill="none" stroke="black" points="100,0 100,-26 209,-26 209,0 100,0"/>
<text text-anchor="start" x="133.88" y="-7.7" font-family="Courier New" font-size="14.00">&quot;foo&quot;</text>
</g>
<!-- Node_100 -->
<g id="node3" class="node">
<title>Node_100</title>
<polygon fill="#f2f2f2" stroke="none" points="444,-104 227,-104 227,0 444,0 444,-104"/>
<polygon fill="none" stroke="black" points="227,-78 227,-104 444,-104 444,-78 227,-78"/>
<text text-anchor="start" x="294.25" y="-86.7" font-family="Courier New" font-weight="bold" font-size="14.00">SymbolNode</text>
<polygon fill="none" stroke="black" points="227,-52 227,-78 327,-78 327,-52 227,-52"/>
<text text-anchor="start" x="231.62" y="-59.7" font-family="Courier New" font-size="14.00">opening_loc</text>
<polygon fill="none" stroke="black" points="327,-52 327,-78 444,-78 444,-52 327,-52"/>
<text text-anchor="start" x="331.88" y="-59.7" font-family="Courier New" font-size="14.00">(1,12)&#45;(1,13)</text>
<polygon fill="none" stroke="black" points="227,-26 227,-52 327,-52 327,-26 227,-26"/>
<text text-anchor="start" x="232" y="-33.7" font-family="Courier New" font-size="14.00">value_loc</text>
<polygon fill="none" stroke="black" points="327,-26 327,-52 444,-52 444,-26 327,-26"/>
<text text-anchor="start" x="331.88" y="-33.7" font-family="Courier New" font-size="14.00">(1,13)&#45;(1,16)</text>
<polygon fill="none" stroke="black" points="227,0 227,-26 327,-26 327,0 227,0"/>
<text text-anchor="start" x="232" y="-7.7" font-family="Courier New" font-size="14.00">unescaped</text>
<polygon fill="none" stroke="black" points="327,0 327,-26 444,-26 444,0 327,0"/>
<text text-anchor="start" x="364.88" y="-7.7" font-family="Courier New" font-size="14.00">&quot;bar&quot;</text>
</g>
<!-- Node_120 -->
<g id="node4" class="node">
<title>Node_120</title>
<polygon fill="#f2f2f2" stroke="none" points="679,-104 462,-104 462,0 679,0 679,-104"/>
<polygon fill="none" stroke="black" points="462,-78 462,-104 679,-104 679,-78 462,-78"/>
<text text-anchor="start" x="529.25" y="-86.7" font-family="Courier New" font-weight="bold" font-size="14.00">SymbolNode</text>
<polygon fill="none" stroke="black" points="462,-52 462,-78 562,-78 562,-52 462,-52"/>
<text text-anchor="start" x="466.62" y="-59.7" font-family="Courier New" font-size="14.00">opening_loc</text>
<polygon fill="none" stroke="black" points="562,-52 562,-78 679,-78 679,-52 562,-52"/>
<text text-anchor="start" x="566.88" y="-59.7" font-family="Courier New" font-size="14.00">(1,18)&#45;(1,19)</text>
<polygon fill="none" stroke="black" points="462,-26 462,-52 562,-52 562,-26 462,-26"/>
<text text-anchor="start" x="467" y="-33.7" font-family="Courier New" font-size="14.00">value_loc</text>
<polygon fill="none" stroke="black" points="562,-26 562,-52 679,-52 679,-26 562,-26"/>
<text text-anchor="start" x="566.88" y="-33.7" font-family="Courier New" font-size="14.00">(1,19)&#45;(1,22)</text>
<polygon fill="none" stroke="black" points="462,0 462,-26 562,-26 562,0 462,0"/>
<text text-anchor="start" x="467" y="-7.7" font-family="Courier New" font-size="14.00">unescaped</text>
<polygon fill="none" stroke="black" points="562,0 562,-26 679,-26 679,0 562,0"/>
<text text-anchor="start" x="599.88" y="-7.7" font-family="Courier New" font-size="14.00">&quot;baz&quot;</text>
</g>
<!-- Node_60_names&#45;&gt;Node_80 -->
<g id="edge2" class="edge">
<title>Node_60_names&#45;&gt;Node_80</title>
<path fill="none" stroke="black" d="M333.81,-140.36C323.78,-137.71 271.02,-123.56 219.01,-104.44"/>
<polygon fill="black" stroke="black" points="220.56,-100.92 209.97,-100.69 218.11,-107.47 220.56,-100.92"/>
</g>
<!-- Node_60_names&#45;&gt;Node_100 -->
<g id="edge3" class="edge">
<title>Node_60_names&#45;&gt;Node_100</title>
<path fill="none" stroke="black" d="M335.5,-139.56C335.5,-136.21 335.5,-126.41 335.5,-114.56"/>
<polygon fill="black" stroke="black" points="339,-114.72 335.5,-104.72 332,-114.72 339,-114.72"/>
</g>
<!-- Node_60_names&#45;&gt;Node_120 -->
<g id="edge4" class="edge">
<title>Node_60_names&#45;&gt;Node_120</title>
<path fill="none" stroke="black" d="M337.19,-140.35C347.2,-137.66 399.88,-123.28 452.2,-104.37"/>
<polygon fill="black" stroke="black" points="453.13,-107.39 461.3,-100.66 450.71,-100.82 453.13,-107.39"/>
</g>
</g>
</svg>
