<?xml version="1.0" encoding="UTF-8" standalone="no"?>
<!DOCTYPE svg PUBLIC "-//W3C//DTD SVG 1.1//EN"
 "http://www.w3.org/Graphics/SVG/1.1/DTD/svg11.dtd">
<!-- Generated by graphviz version 8.1.0 (20230707.0739)
 -->
<!-- Title: Prism Pages: 1 -->
<svg width="524pt" height="480pt"
 viewBox="0.00 0.00 523.50 480.00" xmlns="http://www.w3.org/2000/svg" xmlns:xlink="http://www.w3.org/1999/xlink">
<g id="graph0" class="graph" transform="scale(1 1) rotate(0) translate(4 476)">
<title>Prism</title>
<polygon fill="white" stroke="none" points="-4,4 -4,-476 519.5,-476 519.5,4 -4,4"/>
<!-- Node_60 -->
<g id="node1" class="node">
<title>Node_60</title>
<polygon fill="#f2f2f2" stroke="none" points="330,-472 121,-472 121,-368 330,-368 330,-472"/>
<polygon fill="none" stroke="black" points="121,-446 121,-472 330,-472 330,-446 121,-446"/>
<text text-anchor="start" x="151.25" y="-454.7" font-family="Courier New" font-weight="bold" font-size="14.00">MatchPredicateNode</text>
<polygon fill="none" stroke="black" points="121,-420 121,-446 330,-446 330,-420 121,-420"/>
<text text-anchor="start" x="126" y="-427.7" font-family="Courier New" font-size="14.00">value</text>
<polygon fill="none" stroke="black" points="121,-394 121,-420 330,-420 330,-394 121,-394"/>
<text text-anchor="start" x="126" y="-401.7" font-family="Courier New" font-size="14.00">pattern</text>
<polygon fill="none" stroke="black" points="121,-368 121,-394 230,-394 230,-368 121,-368"/>
<text text-anchor="start" x="126" y="-375.7" font-family="Courier New" font-size="14.00">operator_loc</text>
<polygon fill="none" stroke="black" points="230,-368 230,-394 330,-394 330,-368 230,-368"/>
<text text-anchor="start" x="234.62" y="-375.7" font-family="Courier New" font-size="14.00">(1,6)&#45;(1,8)</text>
</g>
<!-- Node_80 -->
<g id="node2" class="node">
<title>Node_80</title>
<polygon fill="#f2f2f2" stroke="none" points="217,-306 0,-306 0,-202 217,-202 217,-306"/>
<polygon fill="none" stroke="black" points="0,-280 0,-306 217,-306 217,-280 0,-280"/>
<text text-anchor="start" x="75.5" y="-288.7" font-family="Courier New" font-weight="bold" font-size="14.00">CallNode</text>
<polygon fill="none" stroke="black" points="0,-254 0,-280 100,-280 100,-254 0,-254"/>
<text text-anchor="start" x="5" y="-261.7" font-family="Courier New" font-size="14.00">flags</text>
<polygon fill="none" stroke="black" points="100,-254 100,-280 217,-280 217,-254 100,-254"/>
<text text-anchor="start" x="104.88" y="-261.7" font-family="Courier New" font-size="14.00">variable_call</text>
<polygon fill="none" stroke="black" points="0,-228 0,-254 100,-254 100,-228 0,-228"/>
<text text-anchor="start" x="5" y="-235.7" font-family="Courier New" font-size="14.00">name</text>
<polygon fill="none" stroke="black" points="100,-228 100,-254 217,-254 217,-228 100,-228"/>
<text text-anchor="start" x="133.75" y="-235.7" font-family="Courier New" font-size="14.00">:point</text>
<polygon fill="none" stroke="black" points="0,-202 0,-228 100,-228 100,-202 0,-202"/>
<text text-anchor="start" x="4.62" y="-209.7" font-family="Courier New" font-size="14.00">message_loc</text>
<polygon fill="none" stroke="black" points="100,-202 100,-228 217,-228 217,-202 100,-202"/>
<text text-anchor="start" x="113.12" y="-209.7" font-family="Courier New" font-size="14.00">(1,0)&#45;(1,5)</text>
</g>
<!-- Node_60&#45;&gt;Node_80 -->
<g id="edge1" class="edge">
<title>Node_60:value&#45;&gt;Node_80</title>
<path fill="none" stroke="black" d="M119.5,-433C71.42,-433 77.62,-367.49 89.95,-315.96"/>
<polygon fill="black" stroke="black" points="93.52,-317.08 92.57,-306.53 86.74,-315.38 93.52,-317.08"/>
</g>
<!-- Node_100 -->
<g id="node3" class="node">
<title>Node_100</title>
<polygon fill="#f2f2f2" stroke="none" points="452,-332 235,-332 235,-176 452,-176 452,-332"/>
<polygon fill="none" stroke="black" points="235,-306 235,-332 452,-332 452,-306 235,-306"/>
<text text-anchor="start" x="277.5" y="-314.7" font-family="Courier New" font-weight="bold" font-size="14.00">ArrayPatternNode</text>
<polygon fill="none" stroke="black" points="235,-280 235,-306 452,-306 452,-280 235,-280"/>
<text text-anchor="start" x="240" y="-287.7" font-family="Courier New" font-size="14.00">constant</text>
<polygon fill="none" stroke="black" points="235,-254 235,-280 452,-280 452,-254 235,-254"/>
<text text-anchor="start" x="240" y="-261.7" font-family="Courier New" font-size="14.00">requireds</text>
<polygon fill="none" stroke="black" points="235,-228 235,-254 335,-254 335,-228 235,-228"/>
<text text-anchor="start" x="240" y="-235.7" font-family="Courier New" font-size="14.00">posts</text>
<polygon fill="none" stroke="black" points="335,-228 335,-254 452,-254 452,-228 335,-228"/>
<text text-anchor="start" x="385.25" y="-235.7" font-family="Courier New" font-size="14.00">[]</text>
<polygon fill="none" stroke="black" points="235,-202 235,-228 335,-228 335,-202 235,-202"/>
<text text-anchor="start" x="239.62" y="-209.7" font-family="Courier New" font-size="14.00">opening_loc</text>
<polygon fill="none" stroke="black" points="335,-202 335,-228 452,-228 452,-202 335,-202"/>
<text text-anchor="start" x="339.88" y="-209.7" font-family="Courier New" font-size="14.00">(1,14)&#45;(1,15)</text>
<polygon fill="none" stroke="black" points="235,-176 235,-202 335,-202 335,-176 235,-176"/>
<text text-anchor="start" x="239.62" y="-183.7" font-family="Courier New" font-size="14.00">closing_loc</text>
<polygon fill="none" stroke="black" points="335,-176 335,-202 452,-202 452,-176 335,-176"/>
<text text-anchor="start" x="339.88" y="-183.7" font-family="Courier New" font-size="14.00">(1,19)&#45;(1,20)</text>
</g>
<!-- Node_60&#45;&gt;Node_100 -->
<g id="edge2" class="edge">
<title>Node_60:pattern&#45;&gt;Node_100</title>
<path fill="none" stroke="black" d="M331.5,-407C361.97,-407 367.46,-376.28 364.29,-342.46"/>
<polygon fill="black" stroke="black" points="367.69,-342.41 363.04,-332.89 360.74,-343.23 367.69,-342.41"/>
</g>
<!-- Node_120 -->
<g id="node4" class="node">
<title>Node_120</title>
<polygon fill="#f2f2f2" stroke="none" points="368.5,-140 226.5,-140 226.5,-88 368.5,-88 368.5,-140"/>
<polygon fill="none" stroke="black" points="226.5,-114 226.5,-140 368.5,-140 368.5,-114 226.5,-114"/>
<text text-anchor="start" x="231.5" y="-122.7" font-family="Courier New" font-weight="bold" font-size="14.00">ConstantReadNode</text>
<polygon fill="none" stroke="black" points="226.5,-88 226.5,-114 289.5,-114 289.5,-88 226.5,-88"/>
<text text-anchor="start" x="231.5" y="-95.7" font-family="Courier New" font-size="14.00">name</text>
<polygon fill="none" stroke="black" points="289.5,-88 289.5,-114 368.5,-114 368.5,-88 289.5,-88"/>
<text text-anchor="start" x="304.25" y="-95.7" font-family="Courier New" font-size="14.00">:Point</text>
</g>
<!-- Node_100&#45;&gt;Node_120 -->
<g id="edge3" class="edge">
<title>Node_100:constant&#45;&gt;Node_120</title>
<path fill="none" stroke="black" d="M233.5,-293C220.5,-293 229.38,-187.95 234.5,-176 239.09,-165.29 246.57,-155.53 254.8,-147.11"/>
<polygon fill="black" stroke="black" points="256.69,-150.19 261.51,-140.76 251.86,-145.13 256.69,-150.19"/>
</g>
<!-- Node_100_requireds -->
<g id="node7" class="node">
<title>Node_100_requireds</title>
<ellipse fill="#f2f2f2" stroke="black" cx="388.5" cy="-114" rx="1.8" ry="1.8"/>
</g>
<!-- Node_100&#45;&gt;Node_100_requireds -->
<g id="edge4" class="edge">
<title>Node_100:requireds&#45;&gt;Node_100_requireds</title>
<path fill="none" stroke="black" d="M453.5,-267C493.95,-267 468.63,-213.09 452.5,-176 441.41,-150.49 413.94,-130.52 398.85,-121.04"/>
<polygon fill="black" stroke="black" points="401.1,-117.72 390.71,-115.65 397.54,-123.74 401.1,-117.72"/>
</g>
<!-- Node_140 -->
<g id="node5" class="node">
<title>Node_140</title>
<polygon fill="#f2f2f2" stroke="none" points="379.5,-52 261.5,-52 261.5,0 379.5,0 379.5,-52"/>
<polygon fill="none" stroke="black" points="261.5,-26 261.5,-52 379.5,-52 379.5,-26 261.5,-26"/>
<text text-anchor="start" x="275.12" y="-34.7" font-family="Courier New" font-weight="bold" font-size="14.00">IntegerNode</text>
<polygon fill="none" stroke="black" points="261.5,0 261.5,-26 312.5,-26 312.5,0 261.5,0"/>
<text text-anchor="start" x="266.38" y="-7.7" font-family="Courier New" font-size="14.00">flags</text>
<polygon fill="none" stroke="black" points="312.5,0 312.5,-26 379.5,-26 379.5,0 312.5,0"/>
<text text-anchor="start" x="317.12" y="-7.7" font-family="Courier New" font-size="14.00">decimal</text>
</g>
<!-- Node_160 -->
<g id="node6" class="node">
<title>Node_160</title>
<polygon fill="#f2f2f2" stroke="none" points="515.5,-52 397.5,-52 397.5,0 515.5,0 515.5,-52"/>
<polygon fill="none" stroke="black" points="397.5,-26 397.5,-52 515.5,-52 515.5,-26 397.5,-26"/>
<text text-anchor="start" x="411.12" y="-34.7" font-family="Courier New" font-weight="bold" font-size="14.00">IntegerNode</text>
<polygon fill="none" stroke="black" points="397.5,0 397.5,-26 448.5,-26 448.5,0 397.5,0"/>
<text text-anchor="start" x="402.38" y="-7.7" font-family="Courier New" font-size="14.00">flags</text>
<polygon fill="none" stroke="black" points="448.5,0 448.5,-26 515.5,-26 515.5,0 448.5,0"/>
<text text-anchor="start" x="453.12" y="-7.7" font-family="Courier New" font-size="14.00">decimal</text>
</g>
<!-- Node_100_requireds&#45;&gt;Node_140 -->
<g id="edge5" class="edge">
<title>Node_100_requireds&#45;&gt;Node_140</title>
<path fill="none" stroke="black" d="M388.19,-111.99C387.09,-108.47 383.14,-96.55 377.5,-88 370.96,-78.09 362.77,-68.27 354.66,-59.51"/>
<polygon fill="black" stroke="black" points="357.71,-57.59 348.27,-52.78 352.65,-62.43 357.71,-57.59"/>
</g>
<!-- Node_100_requireds&#45;&gt;Node_160 -->
<g id="edge6" class="edge">
<title>Node_100_requireds&#45;&gt;Node_160</title>
<path fill="none" stroke="black" d="M389.26,-112.03C393.36,-106.85 413.18,-81.79 430.25,-60.2"/>
<polygon fill="black" stroke="black" points="433.4,-62.86 436.85,-52.85 427.91,-58.52 433.4,-62.86"/>
</g>
</g>
</svg>
