<?xml version="1.0" encoding="UTF-8" standalone="no"?>
<!DOCTYPE svg PUBLIC "-//W3C//DTD SVG 1.1//EN"
 "http://www.w3.org/Graphics/SVG/1.1/DTD/svg11.dtd">
<!-- Generated by graphviz version 8.1.0 (20230707.0739)
 -->
<!-- Title: Prism Pages: 1 -->
<svg width="530pt" height="516pt"
 viewBox="0.00 0.00 530.00 516.00" xmlns="http://www.w3.org/2000/svg" xmlns:xlink="http://www.w3.org/1999/xlink">
<g id="graph0" class="graph" transform="scale(1 1) rotate(0) translate(4 512)">
<title>Prism</title>
<polygon fill="white" stroke="none" points="-4,4 -4,-512 526,-512 526,4 -4,4"/>
<!-- Node_60 -->
<g id="node1" class="node">
<title>Node_60</title>
<polygon fill="#f2f2f2" stroke="none" points="320,-508 78,-508 78,-378 320,-378 320,-508"/>
<polygon fill="none" stroke="black" points="78,-482 78,-508 320,-508 320,-482 78,-482"/>
<text text-anchor="start" x="174.25" y="-490.7" font-family="Courier New" font-weight="bold" font-size="14.00">IfNode</text>
<polygon fill="none" stroke="black" points="78,-456 78,-482 320,-482 320,-456 78,-456"/>
<text text-anchor="start" x="83" y="-463.7" font-family="Courier New" font-size="14.00">predicate</text>
<polygon fill="none" stroke="black" points="78,-430 78,-456 220,-456 220,-430 78,-430"/>
<text text-anchor="start" x="83" y="-437.7" font-family="Courier New" font-size="14.00">then_keyword_loc</text>
<polygon fill="none" stroke="black" points="220,-430 220,-456 320,-456 320,-430 220,-430"/>
<text text-anchor="start" x="224.62" y="-437.7" font-family="Courier New" font-size="14.00">(1,2)&#45;(1,3)</text>
<polygon fill="none" stroke="black" points="78,-404 78,-430 320,-430 320,-404 78,-404"/>
<text text-anchor="start" x="83" y="-411.7" font-family="Courier New" font-size="14.00">statements</text>
<polygon fill="none" stroke="black" points="78,-378 78,-404 320,-404 320,-378 78,-378"/>
<text text-anchor="start" x="83" y="-385.7" font-family="Courier New" font-size="14.00">consequent</text>
</g>
<!-- Node_80 -->
<g id="node2" class="node">
<title>Node_80</title>
<polygon fill="#f2f2f2" stroke="none" points="118,-329 0,-329 0,-277 118,-277 118,-329"/>
<polygon fill="none" stroke="black" points="0,-303 0,-329 118,-329 118,-303 0,-303"/>
<text text-anchor="start" x="13.62" y="-311.7" font-family="Courier New" font-weight="bold" font-size="14.00">IntegerNode</text>
<polygon fill="none" stroke="black" points="0,-277 0,-303 51,-303 51,-277 0,-277"/>
<text text-anchor="start" x="4.88" y="-284.7" font-family="Courier New" font-size="14.00">flags</text>
<polygon fill="none" stroke="black" points="51,-277 51,-303 118,-303 118,-277 51,-277"/>
<text text-anchor="start" x="55.62" y="-284.7" font-family="Courier New" font-size="14.00">decimal</text>
</g>
<!-- Node_60&#45;&gt;Node_80 -->
<g id="edge1" class="edge">
<title>Node_60:predicate&#45;&gt;Node_80</title>
<path fill="none" stroke="black" d="M77,-469C25.16,-469 37.29,-387.52 49.08,-339.08"/>
<polygon fill="black" stroke="black" points="52.65,-340.26 51.72,-329.7 45.86,-338.53 52.65,-340.26"/>
</g>
<!-- Node_100 -->
<g id="node3" class="node">
<title>Node_100</title>
<polygon fill="#f2f2f2" stroke="none" points="261.5,-329 136.5,-329 136.5,-277 261.5,-277 261.5,-329"/>
<polygon fill="none" stroke="black" points="136.5,-303 136.5,-329 261.5,-329 261.5,-303 136.5,-303"/>
<text text-anchor="start" x="141.25" y="-311.7" font-family="Courier New" font-weight="bold" font-size="14.00">StatementsNode</text>
<polygon fill="none" stroke="black" points="136.5,-277 136.5,-303 261.5,-303 261.5,-277 136.5,-277"/>
<text text-anchor="start" x="141.5" y="-284.7" font-family="Courier New" font-size="14.00">body</text>
</g>
<!-- Node_60&#45;&gt;Node_100 -->
<g id="edge2" class="edge">
<title>Node_60:statements&#45;&gt;Node_100</title>
<path fill="none" stroke="black" d="M321,-417C338.34,-417 328.67,-393.01 320,-378 315.93,-370.95 283.74,-351.42 253.59,-334.19"/>
<polygon fill="black" stroke="black" points="255.76,-330.83 245.33,-328.94 252.3,-336.92 255.76,-330.83"/>
</g>
<!-- Node_120 -->
<g id="node5" class="node">
<title>Node_120</title>
<polygon fill="#f2f2f2" stroke="none" points="522,-342 280,-342 280,-264 522,-264 522,-342"/>
<polygon fill="none" stroke="black" points="280,-316 280,-342 522,-342 522,-316 280,-316"/>
<text text-anchor="start" x="368" y="-324.7" font-family="Courier New" font-weight="bold" font-size="14.00">ElseNode</text>
<polygon fill="none" stroke="black" points="280,-290 280,-316 422,-316 422,-290 280,-290"/>
<text text-anchor="start" x="285" y="-297.7" font-family="Courier New" font-size="14.00">else_keyword_loc</text>
<polygon fill="none" stroke="black" points="422,-290 422,-316 522,-316 522,-290 422,-290"/>
<text text-anchor="start" x="426.62" y="-297.7" font-family="Courier New" font-size="14.00">(1,6)&#45;(1,7)</text>
<polygon fill="none" stroke="black" points="280,-264 280,-290 522,-290 522,-264 280,-264"/>
<text text-anchor="start" x="285" y="-271.7" font-family="Courier New" font-size="14.00">statements</text>
</g>
<!-- Node_60&#45;&gt;Node_120 -->
<g id="edge3" class="edge">
<title>Node_60:consequent&#45;&gt;Node_120</title>
<path fill="none" stroke="black" d="M321,-391C345.85,-391 365.08,-371.54 378.46,-351.02"/>
<polygon fill="black" stroke="black" points="381.8,-353.27 384.02,-342.91 375.82,-349.63 381.8,-353.27"/>
</g>
<!-- Node_100_body -->
<g id="node8" class="node">
<title>Node_100_body</title>
<ellipse fill="#f2f2f2" stroke="black" cx="199" cy="-202" rx="1.8" ry="1.8"/>
</g>
<!-- Node_100&#45;&gt;Node_100_body -->
<g id="edge4" class="edge">
<title>Node_100:body&#45;&gt;Node_100_body</title>
<path fill="none" stroke="black" d="M199,-276C199,-254.41 199,-229.22 199,-214.79"/>
<polygon fill="black" stroke="black" points="202.5,-215.03 199,-205.03 195.5,-215.03 202.5,-215.03"/>
</g>
<!-- Node_140 -->
<g id="node4" class="node">
<title>Node_140</title>
<polygon fill="#f2f2f2" stroke="none" points="258,-140 140,-140 140,-88 258,-88 258,-140"/>
<polygon fill="none" stroke="black" points="140,-114 140,-140 258,-140 258,-114 140,-114"/>
<text text-anchor="start" x="153.62" y="-122.7" font-family="Courier New" font-weight="bold" font-size="14.00">IntegerNode</text>
<polygon fill="none" stroke="black" points="140,-88 140,-114 191,-114 191,-88 140,-88"/>
<text text-anchor="start" x="144.88" y="-95.7" font-family="Courier New" font-size="14.00">flags</text>
<polygon fill="none" stroke="black" points="191,-88 191,-114 258,-114 258,-88 191,-88"/>
<text text-anchor="start" x="195.62" y="-95.7" font-family="Courier New" font-size="14.00">decimal</text>
</g>
<!-- Node_160 -->
<g id="node6" class="node">
<title>Node_160</title>
<polygon fill="#f2f2f2" stroke="none" points="463.5,-228 338.5,-228 338.5,-176 463.5,-176 463.5,-228"/>
<polygon fill="none" stroke="black" points="338.5,-202 338.5,-228 463.5,-228 463.5,-202 338.5,-202"/>
<text text-anchor="start" x="343.25" y="-210.7" font-family="Courier New" font-weight="bold" font-size="14.00">StatementsNode</text>
<polygon fill="none" stroke="black" points="338.5,-176 338.5,-202 463.5,-202 463.5,-176 338.5,-176"/>
<text text-anchor="start" x="343.5" y="-183.7" font-family="Courier New" font-size="14.00">body</text>
</g>
<!-- Node_120&#45;&gt;Node_160 -->
<g id="edge6" class="edge">
<title>Node_120:statements&#45;&gt;Node_160</title>
<path fill="none" stroke="black" d="M401,-264C401,-255.85 401,-247.08 401,-238.8"/>
<polygon fill="black" stroke="black" points="404.5,-238.93 401,-228.93 397.5,-238.93 404.5,-238.93"/>
</g>
<!-- Node_160_body -->
<g id="node9" class="node">
<title>Node_160_body</title>
<ellipse fill="#f2f2f2" stroke="black" cx="401" cy="-114" rx="1.8" ry="1.8"/>
</g>
<!-- Node_160&#45;&gt;Node_160_body -->
<g id="edge7" class="edge">
<title>Node_160:body&#45;&gt;Node_160_body</title>
<path fill="none" stroke="black" d="M401,-176C401,-158.92 401,-139.14 401,-126.85"/>
<polygon fill="black" stroke="black" points="404.5,-126.86 401,-116.86 397.5,-126.86 404.5,-126.86"/>
</g>
<!-- Node_180 -->
<g id="node7" class="node">
<title>Node_180</title>
<polygon fill="#f2f2f2" stroke="none" points="460,-52 342,-52 342,0 460,0 460,-52"/>
<polygon fill="none" stroke="black" points="342,-26 342,-52 460,-52 460,-26 342,-26"/>
<text text-anchor="start" x="355.62" y="-34.7" font-family="Courier New" font-weight="bold" font-size="14.00">IntegerNode</text>
<polygon fill="none" stroke="black" points="342,0 342,-26 393,-26 393,0 342,0"/>
<text text-anchor="start" x="346.88" y="-7.7" font-family="Courier New" font-size="14.00">flags</text>
<polygon fill="none" stroke="black" points="393,0 393,-26 460,-26 460,0 393,0"/>
<text text-anchor="start" x="397.62" y="-7.7" font-family="Courier New" font-size="14.00">decimal</text>
</g>
<!-- Node_100_body&#45;&gt;Node_140 -->
<g id="edge5" class="edge">
<title>Node_100_body&#45;&gt;Node_140</title>
<path fill="none" stroke="black" d="M199,-199.78C199,-194.32 199,-171.36 199,-150.72"/>
<polygon fill="black" stroke="black" points="202.5,-150.93 199,-140.93 195.5,-150.93 202.5,-150.93"/>
</g>
<!-- Node_160_body&#45;&gt;Node_180 -->
<g id="edge8" class="edge">
<title>Node_160_body&#45;&gt;Node_180</title>
<path fill="none" stroke="black" d="M401,-111.78C401,-106.32 401,-83.36 401,-62.72"/>
<polygon fill="black" stroke="black" points="404.5,-62.93 401,-52.93 397.5,-62.93 404.5,-62.93"/>
</g>
</g>
</svg>
