<?xml version="1.0" encoding="UTF-8" standalone="no"?>
<!DOCTYPE svg PUBLIC "-//W3C//DTD SVG 1.1//EN"
 "http://www.w3.org/Graphics/SVG/1.1/DTD/svg11.dtd">
<!-- Generated by graphviz version 8.1.0 (20230707.0739)
 -->
<!-- Title: Prism Pages: 1 -->
<svg width="234pt" height="278pt"
 viewBox="0.00 0.00 234.00 278.00" xmlns="http://www.w3.org/2000/svg" xmlns:xlink="http://www.w3.org/1999/xlink">
<g id="graph0" class="graph" transform="scale(1 1) rotate(0) translate(4 274)">
<title>Prism</title>
<polygon fill="white" stroke="none" points="-4,4 -4,-274 230,-274 230,4 -4,4"/>
<!-- Node_60 -->
<g id="node1" class="node">
<title>Node_60</title>
<polygon fill="#f2f2f2" stroke="none" points="175.5,-270 50.5,-270 50.5,-114 175.5,-114 175.5,-270"/>
<polygon fill="none" stroke="black" points="50.5,-244 50.5,-270 175.5,-270 175.5,-244 50.5,-244"/>
<text text-anchor="start" x="55.25" y="-252.7" font-family="Courier New" font-weight="bold" font-size="14.00">ParametersNode</text>
<polygon fill="none" stroke="black" points="50.5,-218 50.5,-244 141.5,-244 141.5,-218 50.5,-218"/>
<text text-anchor="start" x="55.5" y="-225.7" font-family="Courier New" font-size="14.00">requireds</text>
<polygon fill="none" stroke="black" points="141.5,-218 141.5,-244 175.5,-244 175.5,-218 141.5,-218"/>
<text text-anchor="start" x="150.25" y="-225.7" font-family="Courier New" font-size="14.00">[]</text>
<polygon fill="none" stroke="black" points="50.5,-192 50.5,-218 141.5,-218 141.5,-192 50.5,-192"/>
<text text-anchor="start" x="55.5" y="-199.7" font-family="Courier New" font-size="14.00">optionals</text>
<polygon fill="none" stroke="black" points="141.5,-192 141.5,-218 175.5,-218 175.5,-192 141.5,-192"/>
<text text-anchor="start" x="150.25" y="-199.7" font-family="Courier New" font-size="14.00">[]</text>
<polygon fill="none" stroke="black" points="50.5,-166 50.5,-192 141.5,-192 141.5,-166 50.5,-166"/>
<text text-anchor="start" x="55.5" y="-173.7" font-family="Courier New" font-size="14.00">posts</text>
<polygon fill="none" stroke="black" points="141.5,-166 141.5,-192 175.5,-192 175.5,-166 141.5,-166"/>
<text text-anchor="start" x="150.25" y="-173.7" font-family="Courier New" font-size="14.00">[]</text>
<polygon fill="none" stroke="black" points="50.5,-140 50.5,-166 141.5,-166 141.5,-140 50.5,-140"/>
<text text-anchor="start" x="55.5" y="-147.7" font-family="Courier New" font-size="14.00">keywords</text>
<polygon fill="none" stroke="black" points="141.5,-140 141.5,-166 175.5,-166 175.5,-140 141.5,-140"/>
<text text-anchor="start" x="150.25" y="-147.7" font-family="Courier New" font-size="14.00">[]</text>
<polygon fill="none" stroke="black" points="50.5,-114 50.5,-140 175.5,-140 175.5,-114 50.5,-114"/>
<text text-anchor="start" x="55.5" y="-121.7" font-family="Courier New" font-size="14.00">keyword_rest</text>
</g>
<!-- Node_80 -->
<g id="node2" class="node">
<title>Node_80</title>
<polygon fill="#f2f2f2" stroke="none" points="226,-78 0,-78 0,0 226,0 226,-78"/>
<polygon fill="none" stroke="black" points="0,-52 0,-78 226,-78 226,-52 0,-52"/>
<text text-anchor="start" x="18.12" y="-60.7" font-family="Courier New" font-weight="bold" font-size="14.00">NoKeywordsParameterNode</text>
<polygon fill="none" stroke="black" points="0,-26 0,-52 109,-52 109,-26 0,-26"/>
<text text-anchor="start" x="5" y="-33.7" font-family="Courier New" font-size="14.00">operator_loc</text>
<polygon fill="none" stroke="black" points="109,-26 109,-52 226,-52 226,-26 109,-26"/>
<text text-anchor="start" x="118" y="-33.7" font-family="Courier New" font-size="14.00">(1,8)&#45;(1,10)</text>
<polygon fill="none" stroke="black" points="0,0 0,-26 109,-26 109,0 0,0"/>
<text text-anchor="start" x="5" y="-7.7" font-family="Courier New" font-size="14.00">keyword_loc</text>
<polygon fill="none" stroke="black" points="109,0 109,-26 226,-26 226,0 109,0"/>
<text text-anchor="start" x="113.88" y="-7.7" font-family="Courier New" font-size="14.00">(1,10)&#45;(1,13)</text>
</g>
<!-- Node_60&#45;&gt;Node_80 -->
<g id="edge1" class="edge">
<title>Node_60:keyword_rest&#45;&gt;Node_80</title>
<path fill="none" stroke="black" d="M113,-114C113,-105.78 113,-97.05 113,-88.57"/>
<polygon fill="black" stroke="black" points="116.5,-88.65 113,-78.65 109.5,-88.65 116.5,-88.65"/>
</g>
</g>
</svg>
