<?xml version="1.0" encoding="UTF-8" standalone="no"?>
<!DOCTYPE svg PUBLIC "-//W3C//DTD SVG 1.1//EN"
 "http://www.w3.org/Graphics/SVG/1.1/DTD/svg11.dtd">
<!-- Generated by graphviz version 8.1.0 (20230707.0739)
 -->
<!-- Title: Prism Pages: 1 -->
<svg width="711pt" height="760pt"
 viewBox="0.00 0.00 711.00 760.00" xmlns="http://www.w3.org/2000/svg" xmlns:xlink="http://www.w3.org/1999/xlink">
<g id="graph0" class="graph" transform="scale(1 1) rotate(0) translate(4 756)">
<title>Prism</title>
<polygon fill="white" stroke="none" points="-4,4 -4,-756 707,-756 707,4 -4,4"/>
<!-- Node_60 -->
<g id="node1" class="node">
<title>Node_60</title>
<polygon fill="#f2f2f2" stroke="none" points="330,-752 121,-752 121,-648 330,-648 330,-752"/>
<polygon fill="none" stroke="black" points="121,-726 121,-752 330,-752 330,-726 121,-726"/>
<text text-anchor="start" x="151.25" y="-734.7" font-family="Courier New" font-weight="bold" font-size="14.00">MatchPredicateNode</text>
<polygon fill="none" stroke="black" points="121,-700 121,-726 330,-726 330,-700 121,-700"/>
<text text-anchor="start" x="126" y="-707.7" font-family="Courier New" font-size="14.00">value</text>
<polygon fill="none" stroke="black" points="121,-674 121,-700 330,-700 330,-674 121,-674"/>
<text text-anchor="start" x="126" y="-681.7" font-family="Courier New" font-size="14.00">pattern</text>
<polygon fill="none" stroke="black" points="121,-648 121,-674 230,-674 230,-648 121,-648"/>
<text text-anchor="start" x="126" y="-655.7" font-family="Courier New" font-size="14.00">operator_loc</text>
<polygon fill="none" stroke="black" points="230,-648 230,-674 330,-674 330,-648 230,-648"/>
<text text-anchor="start" x="234.62" y="-655.7" font-family="Courier New" font-size="14.00">(1,7)&#45;(1,9)</text>
</g>
<!-- Node_80 -->
<g id="node2" class="node">
<title>Node_80</title>
<polygon fill="#f2f2f2" stroke="none" points="217,-599 0,-599 0,-495 217,-495 217,-599"/>
<polygon fill="none" stroke="black" points="0,-573 0,-599 217,-599 217,-573 0,-573"/>
<text text-anchor="start" x="75.5" y="-581.7" font-family="Courier New" font-weight="bold" font-size="14.00">CallNode</text>
<polygon fill="none" stroke="black" points="0,-547 0,-573 100,-573 100,-547 0,-547"/>
<text text-anchor="start" x="5" y="-554.7" font-family="Courier New" font-size="14.00">flags</text>
<polygon fill="none" stroke="black" points="100,-547 100,-573 217,-573 217,-547 100,-547"/>
<text text-anchor="start" x="104.88" y="-554.7" font-family="Courier New" font-size="14.00">variable_call</text>
<polygon fill="none" stroke="black" points="0,-521 0,-547 100,-547 100,-521 0,-521"/>
<text text-anchor="start" x="5" y="-528.7" font-family="Courier New" font-size="14.00">name</text>
<polygon fill="none" stroke="black" points="100,-521 100,-547 217,-547 217,-521 100,-521"/>
<text text-anchor="start" x="129.62" y="-528.7" font-family="Courier New" font-size="14.00">:person</text>
<polygon fill="none" stroke="black" points="0,-495 0,-521 100,-521 100,-495 0,-495"/>
<text text-anchor="start" x="4.62" y="-502.7" font-family="Courier New" font-size="14.00">message_loc</text>
<polygon fill="none" stroke="black" points="100,-495 100,-521 217,-521 217,-495 100,-495"/>
<text text-anchor="start" x="113.12" y="-502.7" font-family="Courier New" font-size="14.00">(1,0)&#45;(1,6)</text>
</g>
<!-- Node_60&#45;&gt;Node_80 -->
<g id="edge1" class="edge">
<title>Node_60:value&#45;&gt;Node_80</title>
<path fill="none" stroke="black" d="M119.5,-713C76.39,-713 80.07,-656.24 90.48,-609.3"/>
<polygon fill="black" stroke="black" points="94.05,-610.39 92.94,-599.85 87.24,-608.78 94.05,-610.39"/>
</g>
<!-- Node_100 -->
<g id="node3" class="node">
<title>Node_100</title>
<polygon fill="#f2f2f2" stroke="none" points="452,-612 235,-612 235,-482 452,-482 452,-612"/>
<polygon fill="none" stroke="black" points="235,-586 235,-612 452,-612 452,-586 235,-586"/>
<text text-anchor="start" x="281.62" y="-594.7" font-family="Courier New" font-weight="bold" font-size="14.00">HashPatternNode</text>
<polygon fill="none" stroke="black" points="235,-560 235,-586 452,-586 452,-560 235,-560"/>
<text text-anchor="start" x="240" y="-567.7" font-family="Courier New" font-size="14.00">constant</text>
<polygon fill="none" stroke="black" points="235,-534 235,-560 452,-560 452,-534 235,-534"/>
<text text-anchor="start" x="240" y="-541.7" font-family="Courier New" font-size="14.00">elements</text>
<polygon fill="none" stroke="black" points="235,-508 235,-534 335,-534 335,-508 235,-508"/>
<text text-anchor="start" x="239.62" y="-515.7" font-family="Courier New" font-size="14.00">opening_loc</text>
<polygon fill="none" stroke="black" points="335,-508 335,-534 452,-534 452,-508 335,-508"/>
<text text-anchor="start" x="339.88" y="-515.7" font-family="Courier New" font-size="14.00">(1,16)&#45;(1,17)</text>
<polygon fill="none" stroke="black" points="235,-482 235,-508 335,-508 335,-482 235,-482"/>
<text text-anchor="start" x="239.62" y="-489.7" font-family="Courier New" font-size="14.00">closing_loc</text>
<polygon fill="none" stroke="black" points="335,-482 335,-508 452,-508 452,-482 335,-482"/>
<text text-anchor="start" x="339.88" y="-489.7" font-family="Courier New" font-size="14.00">(1,36)&#45;(1,37)</text>
</g>
<!-- Node_60&#45;&gt;Node_100 -->
<g id="edge2" class="edge">
<title>Node_60:pattern&#45;&gt;Node_100</title>
<path fill="none" stroke="black" d="M331.5,-687C361.01,-687 365.15,-655.53 361.38,-622.53"/>
<polygon fill="black" stroke="black" points="364.74,-622.23 359.91,-612.8 357.8,-623.19 364.74,-622.23"/>
</g>
<!-- Node_120 -->
<g id="node4" class="node">
<title>Node_120</title>
<polygon fill="#f2f2f2" stroke="none" points="369.5,-446 227.5,-446 227.5,-394 369.5,-394 369.5,-446"/>
<polygon fill="none" stroke="black" points="227.5,-420 227.5,-446 369.5,-446 369.5,-420 227.5,-420"/>
<text text-anchor="start" x="232.5" y="-428.7" font-family="Courier New" font-weight="bold" font-size="14.00">ConstantReadNode</text>
<polygon fill="none" stroke="black" points="227.5,-394 227.5,-420 286.5,-420 286.5,-394 227.5,-394"/>
<text text-anchor="start" x="232.5" y="-401.7" font-family="Courier New" font-size="14.00">name</text>
<polygon fill="none" stroke="black" points="286.5,-394 286.5,-420 369.5,-420 369.5,-394 286.5,-394"/>
<text text-anchor="start" x="299.12" y="-401.7" font-family="Courier New" font-size="14.00">:Person</text>
</g>
<!-- Node_100&#45;&gt;Node_120 -->
<g id="edge3" class="edge">
<title>Node_100:constant&#45;&gt;Node_120</title>
<path fill="none" stroke="black" d="M233.5,-573C223.39,-573 230.47,-491.27 234.5,-482 239.14,-471.33 246.64,-461.63 254.91,-453.26"/>
<polygon fill="black" stroke="black" points="256.77,-456.37 261.65,-446.96 251.97,-451.28 256.77,-456.37"/>
</g>
<!-- Node_100_elements -->
<g id="node10" class="node">
<title>Node_100_elements</title>
<ellipse fill="#f2f2f2" stroke="black" cx="389.5" cy="-420" rx="1.8" ry="1.8"/>
</g>
<!-- Node_100&#45;&gt;Node_100_elements -->
<g id="edge4" class="edge">
<title>Node_100:elements&#45;&gt;Node_100_elements</title>
<path fill="none" stroke="black" d="M453.5,-547C482.39,-547 463.98,-508.52 452.5,-482 441.54,-456.68 414.52,-436.63 399.67,-427.09"/>
<polygon fill="black" stroke="black" points="402.06,-423.83 391.69,-421.65 398.43,-429.82 402.06,-423.83"/>
</g>
<!-- Node_140 -->
<g id="node5" class="node">
<title>Node_140</title>
<polygon fill="#f2f2f2" stroke="none" points="431.5,-358 347.5,-358 347.5,-280 431.5,-280 431.5,-358"/>
<polygon fill="none" stroke="black" points="347.5,-332 347.5,-358 431.5,-358 431.5,-332 347.5,-332"/>
<text text-anchor="start" x="352.38" y="-340.7" font-family="Courier New" font-weight="bold" font-size="14.00">AssocNode</text>
<polygon fill="none" stroke="black" points="347.5,-306 347.5,-332 431.5,-332 431.5,-306 347.5,-306"/>
<text text-anchor="start" x="352.5" y="-313.7" font-family="Courier New" font-size="14.00">key</text>
<polygon fill="none" stroke="black" points="347.5,-280 347.5,-306 431.5,-306 431.5,-280 347.5,-280"/>
<text text-anchor="start" x="352.5" y="-287.7" font-family="Courier New" font-size="14.00">value</text>
</g>
<!-- Node_160 -->
<g id="node6" class="node">
<title>Node_160</title>
<polygon fill="#f2f2f2" stroke="none" points="378,-244 161,-244 161,-114 378,-114 378,-244"/>
<polygon fill="none" stroke="black" points="161,-218 161,-244 378,-244 378,-218 161,-218"/>
<text text-anchor="start" x="228.25" y="-226.7" font-family="Courier New" font-weight="bold" font-size="14.00">SymbolNode</text>
<polygon fill="none" stroke="black" points="161,-192 161,-218 261,-218 261,-192 161,-192"/>
<text text-anchor="start" x="166" y="-199.7" font-family="Courier New" font-size="14.00">flags</text>
<polygon fill="none" stroke="black" points="261,-192 261,-218 378,-218 378,-192 261,-192"/>
<polygon fill="none" stroke="black" points="161,-166 161,-192 261,-192 261,-166 161,-166"/>
<text text-anchor="start" x="166" y="-173.7" font-family="Courier New" font-size="14.00">value_loc</text>
<polygon fill="none" stroke="black" points="261,-166 261,-192 378,-192 378,-166 261,-166"/>
<text text-anchor="start" x="265.88" y="-173.7" font-family="Courier New" font-size="14.00">(1,17)&#45;(1,20)</text>
<polygon fill="none" stroke="black" points="161,-140 161,-166 261,-166 261,-140 161,-140"/>
<text text-anchor="start" x="165.62" y="-147.7" font-family="Courier New" font-size="14.00">closing_loc</text>
<polygon fill="none" stroke="black" points="261,-140 261,-166 378,-166 378,-140 261,-140"/>
<text text-anchor="start" x="265.88" y="-147.7" font-family="Courier New" font-size="14.00">(1,20)&#45;(1,21)</text>
<polygon fill="none" stroke="black" points="161,-114 161,-140 261,-140 261,-114 161,-114"/>
<text text-anchor="start" x="166" y="-121.7" font-family="Courier New" font-size="14.00">unescaped</text>
<polygon fill="none" stroke="black" points="261,-114 261,-140 378,-140 378,-114 261,-114"/>
<text text-anchor="start" x="298.88" y="-121.7" font-family="Courier New" font-size="14.00">&quot;age&quot;</text>
</g>
<!-- Node_140&#45;&gt;Node_160 -->
<g id="edge6" class="edge">
<title>Node_140:key&#45;&gt;Node_160</title>
<path fill="none" stroke="black" d="M346.5,-319C312.75,-319 293.67,-287.25 282.95,-254.1"/>
<polygon fill="black" stroke="black" points="286.09,-253.39 279.88,-244.8 279.38,-255.39 286.09,-253.39"/>
</g>
<!-- Node_180 -->
<g id="node7" class="node">
<title>Node_180</title>
<polygon fill="#f2f2f2" stroke="none" points="622.5,-231 396.5,-231 396.5,-127 622.5,-127 622.5,-231"/>
<polygon fill="none" stroke="black" points="396.5,-205 396.5,-231 622.5,-231 622.5,-205 396.5,-205"/>
<text text-anchor="start" x="435.25" y="-213.7" font-family="Courier New" font-weight="bold" font-size="14.00">CapturePatternNode</text>
<polygon fill="none" stroke="black" points="396.5,-179 396.5,-205 622.5,-205 622.5,-179 396.5,-179"/>
<text text-anchor="start" x="401.5" y="-186.7" font-family="Courier New" font-size="14.00">value</text>
<polygon fill="none" stroke="black" points="396.5,-153 396.5,-179 622.5,-179 622.5,-153 396.5,-153"/>
<text text-anchor="start" x="401.5" y="-160.7" font-family="Courier New" font-size="14.00">target</text>
<polygon fill="none" stroke="black" points="396.5,-127 396.5,-153 505.5,-153 505.5,-127 396.5,-127"/>
<text text-anchor="start" x="401.5" y="-134.7" font-family="Courier New" font-size="14.00">operator_loc</text>
<polygon fill="none" stroke="black" points="505.5,-127 505.5,-153 622.5,-153 622.5,-127 505.5,-127"/>
<text text-anchor="start" x="510.38" y="-134.7" font-family="Courier New" font-size="14.00">(1,30)&#45;(1,32)</text>
</g>
<!-- Node_140&#45;&gt;Node_180 -->
<g id="edge7" class="edge">
<title>Node_140:value&#45;&gt;Node_180</title>
<path fill="none" stroke="black" d="M432.5,-293C461.36,-293 480.17,-267.52 491.98,-240.75"/>
<polygon fill="black" stroke="black" points="495.47,-242.46 496.01,-231.88 488.99,-239.81 495.47,-242.46"/>
</g>
<!-- Node_200 -->
<g id="node8" class="node">
<title>Node_200</title>
<polygon fill="#f2f2f2" stroke="none" points="485.5,-65 343.5,-65 343.5,-13 485.5,-13 485.5,-65"/>
<polygon fill="none" stroke="black" points="343.5,-39 343.5,-65 485.5,-65 485.5,-39 343.5,-39"/>
<text text-anchor="start" x="348.5" y="-47.7" font-family="Courier New" font-weight="bold" font-size="14.00">ConstantReadNode</text>
<polygon fill="none" stroke="black" points="343.5,-13 343.5,-39 397.5,-39 397.5,-13 343.5,-13"/>
<text text-anchor="start" x="348.5" y="-20.7" font-family="Courier New" font-size="14.00">name</text>
<polygon fill="none" stroke="black" points="397.5,-13 397.5,-39 485.5,-39 485.5,-13 397.5,-13"/>
<text text-anchor="start" x="408.5" y="-20.7" font-family="Courier New" font-size="14.00">:Integer</text>
</g>
<!-- Node_180&#45;&gt;Node_200 -->
<g id="edge8" class="edge">
<title>Node_180:value&#45;&gt;Node_200</title>
<path fill="none" stroke="black" d="M395.5,-192C381.05,-192 394.92,-141.36 396.5,-127 398.39,-109.81 402.08,-90.99 405.63,-75.26"/>
<polygon fill="black" stroke="black" points="409.18,-76.46 408.04,-65.93 402.36,-74.87 409.18,-76.46"/>
</g>
<!-- Node_220 -->
<g id="node9" class="node">
<title>Node_220</title>
<polygon fill="#f2f2f2" stroke="none" points="703,-78 504,-78 504,0 703,0 703,-78"/>
<polygon fill="none" stroke="black" points="504,-52 504,-78 703,-78 703,-52 504,-52"/>
<text text-anchor="start" x="508.62" y="-60.7" font-family="Courier New" font-weight="bold" font-size="14.00">LocalVariableTargetNode</text>
<polygon fill="none" stroke="black" points="504,-26 504,-52 607,-52 607,-26 504,-26"/>
<text text-anchor="start" x="509" y="-33.7" font-family="Courier New" font-size="14.00">name</text>
<polygon fill="none" stroke="black" points="607,-26 607,-52 703,-52 703,-26 607,-26"/>
<text text-anchor="start" x="638.5" y="-33.7" font-family="Courier New" font-size="14.00">:age</text>
<polygon fill="none" stroke="black" points="504,0 504,-26 607,-26 607,0 504,0"/>
<text text-anchor="start" x="509" y="-7.7" font-family="Courier New" font-size="14.00">depth</text>
<polygon fill="none" stroke="black" points="607,0 607,-26 703,-26 703,0 607,0"/>
<text text-anchor="start" x="650.88" y="-7.7" font-family="Courier New" font-size="14.00">0</text>
</g>
<!-- Node_180&#45;&gt;Node_220 -->
<g id="edge9" class="edge">
<title>Node_180:target&#45;&gt;Node_220</title>
<path fill="none" stroke="black" d="M623.5,-166C656.5,-166 644.31,-123.32 628.36,-87.64"/>
<polygon fill="black" stroke="black" points="631.18,-86.4 623.79,-78.8 624.83,-89.35 631.18,-86.4"/>
</g>
<!-- Node_100_elements&#45;&gt;Node_140 -->
<g id="edge5" class="edge">
<title>Node_100_elements&#45;&gt;Node_140</title>
<path fill="none" stroke="black" d="M389.5,-417.89C389.5,-412.76 389.5,-390.74 389.5,-368.87"/>
<polygon fill="black" stroke="black" points="393,-368.89 389.5,-358.89 386,-368.89 393,-368.89"/>
</g>
</g>
</svg>
