<?xml version="1.0" encoding="UTF-8" standalone="no"?>
<!DOCTYPE svg PUBLIC "-//W3C//DTD SVG 1.1//EN"
 "http://www.w3.org/Graphics/SVG/1.1/DTD/svg11.dtd">
<!-- Generated by graphviz version 8.1.0 (20230707.0739)
 -->
<!-- Title: Prism Pages: 1 -->
<svg width="249pt" height="226pt"
 viewBox="0.00 0.00 249.00 226.00" xmlns="http://www.w3.org/2000/svg" xmlns:xlink="http://www.w3.org/1999/xlink">
<g id="graph0" class="graph" transform="scale(1 1) rotate(0) translate(4 222)">
<title>Prism</title>
<polygon fill="white" stroke="none" points="-4,4 -4,-222 245,-222 245,4 -4,4"/>
<!-- Node_60 -->
<g id="node1" class="node">
<title>Node_60</title>
<polygon fill="#f2f2f2" stroke="none" points="241,-218 0,-218 0,-88 241,-88 241,-218"/>
<polygon fill="none" stroke="black" points="0,-192 0,-218 241,-218 241,-192 0,-192"/>
<text text-anchor="start" x="5" y="-200.7" font-family="Courier New" font-weight="bold" font-size="14.00">InstanceVariableAndWriteNode</text>
<polygon fill="none" stroke="black" points="0,-166 0,-192 125,-192 125,-166 0,-166"/>
<text text-anchor="start" x="5" y="-173.7" font-family="Courier New" font-size="14.00">name</text>
<polygon fill="none" stroke="black" points="125,-166 125,-192 241,-192 241,-166 125,-166"/>
<text text-anchor="start" x="162.38" y="-173.7" font-family="Courier New" font-size="14.00">:@foo</text>
<polygon fill="none" stroke="black" points="0,-140 0,-166 125,-166 125,-140 0,-140"/>
<text text-anchor="start" x="5" y="-147.7" font-family="Courier New" font-size="14.00">name_loc</text>
<polygon fill="none" stroke="black" points="125,-140 125,-166 241,-166 241,-140 125,-140"/>
<text text-anchor="start" x="137.62" y="-147.7" font-family="Courier New" font-size="14.00">(1,0)&#45;(1,4)</text>
<polygon fill="none" stroke="black" points="0,-114 0,-140 125,-140 125,-114 0,-114"/>
<text text-anchor="start" x="5" y="-121.7" font-family="Courier New" font-size="14.00">operator_loc</text>
<polygon fill="none" stroke="black" points="125,-114 125,-140 241,-140 241,-114 125,-114"/>
<text text-anchor="start" x="137.62" y="-121.7" font-family="Courier New" font-size="14.00">(1,5)&#45;(1,8)</text>
<polygon fill="none" stroke="black" points="0,-88 0,-114 241,-114 241,-88 0,-88"/>
<text text-anchor="start" x="5" y="-95.7" font-family="Courier New" font-size="14.00">value</text>
</g>
<!-- Node_80 -->
<g id="node2" class="node">
<title>Node_80</title>
<polygon fill="#f2f2f2" stroke="none" points="179.5,-52 61.5,-52 61.5,0 179.5,0 179.5,-52"/>
<polygon fill="none" stroke="black" points="61.5,-26 61.5,-52 179.5,-52 179.5,-26 61.5,-26"/>
<text text-anchor="start" x="75.12" y="-34.7" font-family="Courier New" font-weight="bold" font-size="14.00">IntegerNode</text>
<polygon fill="none" stroke="black" points="61.5,0 61.5,-26 112.5,-26 112.5,0 61.5,0"/>
<text text-anchor="start" x="66.38" y="-7.7" font-family="Courier New" font-size="14.00">flags</text>
<polygon fill="none" stroke="black" points="112.5,0 112.5,-26 179.5,-26 179.5,0 112.5,0"/>
<text text-anchor="start" x="117.12" y="-7.7" font-family="Courier New" font-size="14.00">decimal</text>
</g>
<!-- Node_60&#45;&gt;Node_80 -->
<g id="edge1" class="edge">
<title>Node_60:value&#45;&gt;Node_80</title>
<path fill="none" stroke="black" d="M120.5,-88C120.5,-79.85 120.5,-71.08 120.5,-62.8"/>
<polygon fill="black" stroke="black" points="124,-62.93 120.5,-52.93 117,-62.93 124,-62.93"/>
</g>
</g>
</svg>
