<?xml version="1.0" encoding="UTF-8" standalone="no"?>
<!DOCTYPE svg PUBLIC "-//W3C//DTD SVG 1.1//EN"
 "http://www.w3.org/Graphics/SVG/1.1/DTD/svg11.dtd">
<!-- Generated by graphviz version 8.1.0 (20230707.0739)
 -->
<!-- Title: Prism Pages: 1 -->
<svg width="373pt" height="839pt"
 viewBox="0.00 0.00 372.50 839.20" xmlns="http://www.w3.org/2000/svg" xmlns:xlink="http://www.w3.org/1999/xlink">
<g id="graph0" class="graph" transform="scale(1 1) rotate(0) translate(4 835.2)">
<title>Prism</title>
<polygon fill="white" stroke="none" points="-4,4 -4,-835.2 368.5,-835.2 368.5,4 -4,4"/>
<!-- Node_60 -->
<g id="node1" class="node">
<title>Node_60</title>
<polygon fill="#f2f2f2" stroke="none" points="286,-831.2 86,-831.2 86,-649.2 286,-649.2 286,-831.2"/>
<polygon fill="none" stroke="black" points="86,-805.2 86,-831.2 286,-831.2 286,-805.2 86,-805.2"/>
<text text-anchor="start" x="153" y="-813.9" font-family="Courier New" font-weight="bold" font-size="14.00">CallNode</text>
<polygon fill="none" stroke="black" points="86,-779.2 86,-805.2 186,-805.2 186,-779.2 86,-779.2"/>
<text text-anchor="start" x="91" y="-786.9" font-family="Courier New" font-size="14.00">flags</text>
<polygon fill="none" stroke="black" points="186,-779.2 186,-805.2 286,-805.2 286,-779.2 186,-779.2"/>
<polygon fill="none" stroke="black" points="86,-753.2 86,-779.2 186,-779.2 186,-753.2 86,-753.2"/>
<text text-anchor="start" x="91" y="-760.9" font-family="Courier New" font-size="14.00">name</text>
<polygon fill="none" stroke="black" points="186,-753.2 186,-779.2 286,-779.2 286,-753.2 186,-753.2"/>
<text text-anchor="start" x="219.5" y="-760.9" font-family="Courier New" font-size="14.00">:foo</text>
<polygon fill="none" stroke="black" points="86,-727.2 86,-753.2 186,-753.2 186,-727.2 86,-727.2"/>
<text text-anchor="start" x="90.62" y="-734.9" font-family="Courier New" font-size="14.00">message_loc</text>
<polygon fill="none" stroke="black" points="186,-727.2 186,-753.2 286,-753.2 286,-727.2 186,-727.2"/>
<text text-anchor="start" x="190.62" y="-734.9" font-family="Courier New" font-size="14.00">(2,0)&#45;(2,3)</text>
<polygon fill="none" stroke="black" points="86,-701.2 86,-727.2 186,-727.2 186,-701.2 86,-701.2"/>
<text text-anchor="start" x="90.62" y="-708.9" font-family="Courier New" font-size="14.00">opening_loc</text>
<polygon fill="none" stroke="black" points="186,-701.2 186,-727.2 286,-727.2 286,-701.2 186,-701.2"/>
<text text-anchor="start" x="190.62" y="-708.9" font-family="Courier New" font-size="14.00">(2,3)&#45;(2,4)</text>
<polygon fill="none" stroke="black" points="86,-675.2 86,-701.2 286,-701.2 286,-675.2 86,-675.2"/>
<text text-anchor="start" x="91" y="-682.9" font-family="Courier New" font-size="14.00">arguments</text>
<polygon fill="none" stroke="black" points="86,-649.2 86,-675.2 186,-675.2 186,-649.2 86,-649.2"/>
<text text-anchor="start" x="90.62" y="-656.9" font-family="Courier New" font-size="14.00">closing_loc</text>
<polygon fill="none" stroke="black" points="186,-649.2 186,-675.2 286,-675.2 286,-649.2 186,-649.2"/>
<text text-anchor="start" x="190.62" y="-656.9" font-family="Courier New" font-size="14.00">(2,8)&#45;(2,9)</text>
</g>
<!-- Node_80 -->
<g id="node2" class="node">
<title>Node_80</title>
<polygon fill="#f2f2f2" stroke="none" points="244.5,-613.2 127.5,-613.2 127.5,-535.2 244.5,-535.2 244.5,-613.2"/>
<polygon fill="none" stroke="black" points="127.5,-587.2 127.5,-613.2 244.5,-613.2 244.5,-587.2 127.5,-587.2"/>
<text text-anchor="start" x="132.38" y="-595.9" font-family="Courier New" font-weight="bold" font-size="14.00">ArgumentsNode</text>
<polygon fill="none" stroke="black" points="127.5,-561.2 127.5,-587.2 206.5,-587.2 206.5,-561.2 127.5,-561.2"/>
<text text-anchor="start" x="132.5" y="-568.9" font-family="Courier New" font-size="14.00">flags</text>
<polygon fill="none" stroke="black" points="206.5,-561.2 206.5,-587.2 244.5,-587.2 244.5,-561.2 206.5,-561.2"/>
<polygon fill="none" stroke="black" points="127.5,-535.2 127.5,-561.2 244.5,-561.2 244.5,-535.2 127.5,-535.2"/>
<text text-anchor="start" x="132.5" y="-542.9" font-family="Courier New" font-size="14.00">arguments</text>
</g>
<!-- Node_60&#45;&gt;Node_80 -->
<g id="edge1" class="edge">
<title>Node_60:arguments&#45;&gt;Node_80</title>
<path fill="none" stroke="black" d="M287,-688.2C304.34,-688.2 294,-664.58 286,-649.2 278.36,-634.5 266.31,-621.97 253.2,-611.63"/>
<polygon fill="black" stroke="black" points="255.58,-608.29 245.46,-605.14 251.41,-613.91 255.58,-608.29"/>
</g>
<!-- Node_80_arguments -->
<g id="node8" class="node">
<title>Node_80_arguments</title>
<ellipse fill="#f2f2f2" stroke="black" cx="186" cy="-497.4" rx="1.8" ry="1.8"/>
</g>
<!-- Node_80&#45;&gt;Node_80_arguments -->
<g id="edge2" class="edge">
<title>Node_80:arguments&#45;&gt;Node_80_arguments</title>
<path fill="none" stroke="black" d="M186,-535.2C186,-526.96 186,-517.69 186,-510.51"/>
<polygon fill="black" stroke="black" points="189.5,-510.54 186,-500.54 182.5,-510.54 189.5,-510.54"/>
</g>
<!-- Node_100 -->
<g id="node3" class="node">
<title>Node_100</title>
<polygon fill="#f2f2f2" stroke="none" points="252.5,-459.6 119.5,-459.6 119.5,-407.6 252.5,-407.6 252.5,-459.6"/>
<polygon fill="none" stroke="black" points="119.5,-433.6 119.5,-459.6 252.5,-459.6 252.5,-433.6 119.5,-433.6"/>
<text text-anchor="start" x="124.12" y="-442.3" font-family="Courier New" font-weight="bold" font-size="14.00">KeywordHashNode</text>
<polygon fill="none" stroke="black" points="119.5,-407.6 119.5,-433.6 252.5,-433.6 252.5,-407.6 119.5,-407.6"/>
<text text-anchor="start" x="124.5" y="-415.3" font-family="Courier New" font-size="14.00">elements</text>
</g>
<!-- Node_100_elements -->
<g id="node9" class="node">
<title>Node_100_elements</title>
<ellipse fill="#f2f2f2" stroke="black" cx="186" cy="-369.8" rx="1.8" ry="1.8"/>
</g>
<!-- Node_100&#45;&gt;Node_100_elements -->
<g id="edge4" class="edge">
<title>Node_100:elements&#45;&gt;Node_100_elements</title>
<path fill="none" stroke="black" d="M186,-407.6C186,-399.36 186,-390.09 186,-382.91"/>
<polygon fill="black" stroke="black" points="189.5,-382.94 186,-372.94 182.5,-382.94 189.5,-382.94"/>
</g>
<!-- Node_120 -->
<g id="node4" class="node">
<title>Node_120</title>
<polygon fill="#f2f2f2" stroke="none" points="228,-332 144,-332 144,-254 228,-254 228,-332"/>
<polygon fill="none" stroke="black" points="144,-306 144,-332 228,-332 228,-306 144,-306"/>
<text text-anchor="start" x="148.88" y="-314.7" font-family="Courier New" font-weight="bold" font-size="14.00">AssocNode</text>
<polygon fill="none" stroke="black" points="144,-280 144,-306 228,-306 228,-280 144,-280"/>
<text text-anchor="start" x="149" y="-287.7" font-family="Courier New" font-size="14.00">key</text>
<polygon fill="none" stroke="black" points="144,-254 144,-280 228,-280 228,-254 144,-254"/>
<text text-anchor="start" x="149" y="-261.7" font-family="Courier New" font-size="14.00">value</text>
</g>
<!-- Node_140 -->
<g id="node5" class="node">
<title>Node_140</title>
<polygon fill="#f2f2f2" stroke="none" points="200,-218 0,-218 0,-114 200,-114 200,-218"/>
<polygon fill="none" stroke="black" points="0,-192 0,-218 200,-218 200,-192 0,-192"/>
<text text-anchor="start" x="58.75" y="-200.7" font-family="Courier New" font-weight="bold" font-size="14.00">SymbolNode</text>
<polygon fill="none" stroke="black" points="0,-166 0,-192 100,-192 100,-166 0,-166"/>
<text text-anchor="start" x="5" y="-173.7" font-family="Courier New" font-size="14.00">value_loc</text>
<polygon fill="none" stroke="black" points="100,-166 100,-192 200,-192 200,-166 100,-166"/>
<text text-anchor="start" x="104.62" y="-173.7" font-family="Courier New" font-size="14.00">(2,4)&#45;(2,7)</text>
<polygon fill="none" stroke="black" points="0,-140 0,-166 100,-166 100,-140 0,-140"/>
<text text-anchor="start" x="4.62" y="-147.7" font-family="Courier New" font-size="14.00">closing_loc</text>
<polygon fill="none" stroke="black" points="100,-140 100,-166 200,-166 200,-140 100,-140"/>
<text text-anchor="start" x="104.62" y="-147.7" font-family="Courier New" font-size="14.00">(2,7)&#45;(2,8)</text>
<polygon fill="none" stroke="black" points="0,-114 0,-140 100,-140 100,-114 0,-114"/>
<text text-anchor="start" x="5" y="-121.7" font-family="Courier New" font-size="14.00">unescaped</text>
<polygon fill="none" stroke="black" points="100,-114 100,-140 200,-140 200,-114 100,-114"/>
<text text-anchor="start" x="129.38" y="-121.7" font-family="Courier New" font-size="14.00">&quot;bar&quot;</text>
</g>
<!-- Node_120&#45;&gt;Node_140 -->
<g id="edge6" class="edge">
<title>Node_120:key&#45;&gt;Node_140</title>
<path fill="none" stroke="black" d="M143,-293C112.99,-293 102.36,-260.6 99.17,-228.65"/>
<polygon fill="black" stroke="black" points="102.6,-228.59 98.36,-218.89 95.62,-229.12 102.6,-228.59"/>
</g>
<!-- Node_160 -->
<g id="node6" class="node">
<title>Node_160</title>
<polygon fill="#f2f2f2" stroke="none" points="327.5,-192 218.5,-192 218.5,-140 327.5,-140 327.5,-192"/>
<polygon fill="none" stroke="black" points="218.5,-166 218.5,-192 327.5,-192 327.5,-166 218.5,-166"/>
<text text-anchor="start" x="223.5" y="-174.7" font-family="Courier New" font-weight="bold" font-size="14.00">ImplicitNode</text>
<polygon fill="none" stroke="black" points="218.5,-140 218.5,-166 327.5,-166 327.5,-140 218.5,-140"/>
<text text-anchor="start" x="223.5" y="-147.7" font-family="Courier New" font-size="14.00">value</text>
</g>
<!-- Node_120&#45;&gt;Node_160 -->
<g id="edge7" class="edge">
<title>Node_120:value&#45;&gt;Node_160</title>
<path fill="none" stroke="black" d="M229,-267C258.01,-267 268.06,-231.3 271.45,-202.56"/>
<polygon fill="black" stroke="black" points="275,-203.26 272.45,-192.98 268.03,-202.6 275,-203.26"/>
</g>
<!-- Node_180 -->
<g id="node7" class="node">
<title>Node_180</title>
<polygon fill="#f2f2f2" stroke="none" points="364.5,-78 181.5,-78 181.5,0 364.5,0 364.5,-78"/>
<polygon fill="none" stroke="black" points="181.5,-52 181.5,-78 364.5,-78 364.5,-52 181.5,-52"/>
<text text-anchor="start" x="186.38" y="-60.7" font-family="Courier New" font-weight="bold" font-size="14.00">LocalVariableReadNode</text>
<polygon fill="none" stroke="black" points="181.5,-26 181.5,-52 276.5,-52 276.5,-26 181.5,-26"/>
<text text-anchor="start" x="186.5" y="-33.7" font-family="Courier New" font-size="14.00">name</text>
<polygon fill="none" stroke="black" points="276.5,-26 276.5,-52 364.5,-52 364.5,-26 276.5,-26"/>
<text text-anchor="start" x="304" y="-33.7" font-family="Courier New" font-size="14.00">:bar</text>
<polygon fill="none" stroke="black" points="181.5,0 181.5,-26 276.5,-26 276.5,0 181.5,0"/>
<text text-anchor="start" x="186.5" y="-7.7" font-family="Courier New" font-size="14.00">depth</text>
<polygon fill="none" stroke="black" points="276.5,0 276.5,-26 364.5,-26 364.5,0 276.5,0"/>
<text text-anchor="start" x="316.38" y="-7.7" font-family="Courier New" font-size="14.00">0</text>
</g>
<!-- Node_160&#45;&gt;Node_180 -->
<g id="edge8" class="edge">
<title>Node_160:value&#45;&gt;Node_180</title>
<path fill="none" stroke="black" d="M273,-139C273,-122.52 273,-104.5 273,-88.4"/>
<polygon fill="black" stroke="black" points="276.5,-88.61 273,-78.61 269.5,-88.61 276.5,-88.61"/>
</g>
<!-- Node_80_arguments&#45;&gt;Node_100 -->
<g id="edge3" class="edge">
<title>Node_80_arguments&#45;&gt;Node_100</title>
<path fill="none" stroke="black" d="M186,-495.33C186,-492.05 186,-481.69 186,-470.44"/>
<polygon fill="black" stroke="black" points="189.5,-470.57 186,-460.57 182.5,-470.58 189.5,-470.57"/>
</g>
<!-- Node_100_elements&#45;&gt;Node_120 -->
<g id="edge5" class="edge">
<title>Node_100_elements&#45;&gt;Node_120</title>
<path fill="none" stroke="black" d="M186,-367.5C186,-364.06 186,-354.15 186,-342.69"/>
<polygon fill="black" stroke="black" points="189.5,-342.87 186,-332.87 182.5,-342.87 189.5,-342.87"/>
</g>
</g>
</svg>
