<?xml version="1.0" encoding="UTF-8" standalone="no"?>
<!DOCTYPE svg PUBLIC "-//W3C//DTD SVG 1.1//EN"
 "http://www.w3.org/Graphics/SVG/1.1/DTD/svg11.dtd">
<!-- Generated by graphviz version 8.1.0 (20230707.0739)
 -->
<!-- Title: Prism Pages: 1 -->
<svg width="344pt" height="226pt"
 viewBox="0.00 0.00 344.00 226.00" xmlns="http://www.w3.org/2000/svg" xmlns:xlink="http://www.w3.org/1999/xlink">
<g id="graph0" class="graph" transform="scale(1 1) rotate(0) translate(4 222)">
<title>Prism</title>
<polygon fill="white" stroke="none" points="-4,4 -4,-222 340,-222 340,4 -4,4"/>
<!-- Node_60 -->
<g id="node1" class="node">
<title>Node_60</title>
<polygon fill="#f2f2f2" stroke="none" points="230,-218 146,-218 146,-140 230,-140 230,-218"/>
<polygon fill="none" stroke="black" points="146,-192 146,-218 230,-218 230,-192 146,-192"/>
<text text-anchor="start" x="150.88" y="-200.7" font-family="Courier New" font-weight="bold" font-size="14.00">AssocNode</text>
<polygon fill="none" stroke="black" points="146,-166 146,-192 230,-192 230,-166 146,-166"/>
<text text-anchor="start" x="151" y="-173.7" font-family="Courier New" font-size="14.00">key</text>
<polygon fill="none" stroke="black" points="146,-140 146,-166 230,-166 230,-140 146,-140"/>
<text text-anchor="start" x="151" y="-147.7" font-family="Courier New" font-size="14.00">value</text>
</g>
<!-- Node_80 -->
<g id="node2" class="node">
<title>Node_80</title>
<polygon fill="#f2f2f2" stroke="none" points="200,-104 0,-104 0,0 200,0 200,-104"/>
<polygon fill="none" stroke="black" points="0,-78 0,-104 200,-104 200,-78 0,-78"/>
<text text-anchor="start" x="58.75" y="-86.7" font-family="Courier New" font-weight="bold" font-size="14.00">SymbolNode</text>
<polygon fill="none" stroke="black" points="0,-52 0,-78 100,-78 100,-52 0,-52"/>
<text text-anchor="start" x="5" y="-59.7" font-family="Courier New" font-size="14.00">value_loc</text>
<polygon fill="none" stroke="black" points="100,-52 100,-78 200,-78 200,-52 100,-52"/>
<text text-anchor="start" x="104.62" y="-59.7" font-family="Courier New" font-size="14.00">(1,2)&#45;(1,5)</text>
<polygon fill="none" stroke="black" points="0,-26 0,-52 100,-52 100,-26 0,-26"/>
<text text-anchor="start" x="4.62" y="-33.7" font-family="Courier New" font-size="14.00">closing_loc</text>
<polygon fill="none" stroke="black" points="100,-26 100,-52 200,-52 200,-26 100,-26"/>
<text text-anchor="start" x="104.62" y="-33.7" font-family="Courier New" font-size="14.00">(1,5)&#45;(1,6)</text>
<polygon fill="none" stroke="black" points="0,0 0,-26 100,-26 100,0 0,0"/>
<text text-anchor="start" x="5" y="-7.7" font-family="Courier New" font-size="14.00">unescaped</text>
<polygon fill="none" stroke="black" points="100,0 100,-26 200,-26 200,0 100,0"/>
<text text-anchor="start" x="129.38" y="-7.7" font-family="Courier New" font-size="14.00">&quot;foo&quot;</text>
</g>
<!-- Node_60&#45;&gt;Node_80 -->
<g id="edge1" class="edge">
<title>Node_60:key&#45;&gt;Node_80</title>
<path fill="none" stroke="black" d="M145,-179C114.84,-179 103.7,-146.6 100.04,-114.65"/>
<polygon fill="black" stroke="black" points="103.46,-114.53 99.07,-104.89 96.48,-115.16 103.46,-114.53"/>
</g>
<!-- Node_100 -->
<g id="node3" class="node">
<title>Node_100</title>
<polygon fill="#f2f2f2" stroke="none" points="336,-78 218,-78 218,-26 336,-26 336,-78"/>
<polygon fill="none" stroke="black" points="218,-52 218,-78 336,-78 336,-52 218,-52"/>
<text text-anchor="start" x="231.62" y="-60.7" font-family="Courier New" font-weight="bold" font-size="14.00">IntegerNode</text>
<polygon fill="none" stroke="black" points="218,-26 218,-52 269,-52 269,-26 218,-26"/>
<text text-anchor="start" x="222.88" y="-33.7" font-family="Courier New" font-size="14.00">flags</text>
<polygon fill="none" stroke="black" points="269,-26 269,-52 336,-52 336,-26 269,-26"/>
<text text-anchor="start" x="273.62" y="-33.7" font-family="Courier New" font-size="14.00">decimal</text>
</g>
<!-- Node_60&#45;&gt;Node_100 -->
<g id="edge2" class="edge">
<title>Node_60:value&#45;&gt;Node_100</title>
<path fill="none" stroke="black" d="M231,-153C260.23,-153 270.95,-117.3 274.85,-88.56"/>
<polygon fill="black" stroke="black" points="278.4,-89.3 276.03,-78.98 271.44,-88.53 278.4,-89.3"/>
</g>
</g>
</svg>
