<?xml version="1.0" encoding="UTF-8" standalone="no"?>
<!DOCTYPE svg PUBLIC "-//W3C//DTD SVG 1.1//EN"
 "http://www.w3.org/Graphics/SVG/1.1/DTD/svg11.dtd">
<!-- Generated by graphviz version 8.1.0 (20230707.0739)
 -->
<!-- Title: Prism Pages: 1 -->
<svg width="243pt" height="226pt"
 viewBox="0.00 0.00 243.39 226.00" xmlns="http://www.w3.org/2000/svg" xmlns:xlink="http://www.w3.org/1999/xlink">
<g id="graph0" class="graph" transform="scale(1 1) rotate(0) translate(4 222)">
<title>Prism</title>
<polygon fill="white" stroke="none" points="-4,4 -4,-222 239.39,-222 239.39,4 -4,4"/>
<!-- Node_60 -->
<g id="node1" class="node">
<title>Node_60</title>
<polygon fill="#f2f2f2" stroke="none" points="217,-218 0,-218 0,-88 217,-88 217,-218"/>
<polygon fill="none" stroke="black" points="0,-192 0,-218 217,-218 217,-192 0,-192"/>
<text text-anchor="start" x="63.12" y="-200.7" font-family="Courier New" font-weight="bold" font-size="14.00">DefinedNode</text>
<polygon fill="none" stroke="black" points="0,-166 0,-192 100,-192 100,-166 0,-166"/>
<text text-anchor="start" x="5" y="-173.7" font-family="Courier New" font-size="14.00">lparen_loc</text>
<polygon fill="none" stroke="black" points="100,-166 100,-192 217,-192 217,-166 100,-166"/>
<text text-anchor="start" x="113.12" y="-173.7" font-family="Courier New" font-size="14.00">(1,8)&#45;(1,9)</text>
<polygon fill="none" stroke="black" points="0,-140 0,-166 217,-166 217,-140 0,-140"/>
<text text-anchor="start" x="5" y="-147.7" font-family="Courier New" font-size="14.00">value</text>
<polygon fill="none" stroke="black" points="0,-114 0,-140 100,-140 100,-114 0,-114"/>
<text text-anchor="start" x="5" y="-121.7" font-family="Courier New" font-size="14.00">rparen_loc</text>
<polygon fill="none" stroke="black" points="100,-114 100,-140 217,-140 217,-114 100,-114"/>
<text text-anchor="start" x="104.88" y="-121.7" font-family="Courier New" font-size="14.00">(1,13)&#45;(1,14)</text>
<polygon fill="none" stroke="black" points="0,-88 0,-114 100,-114 100,-88 0,-88"/>
<text text-anchor="start" x="4.62" y="-95.7" font-family="Courier New" font-size="14.00">keyword_loc</text>
<polygon fill="none" stroke="black" points="100,-88 100,-114 217,-114 217,-88 100,-88"/>
<text text-anchor="start" x="113.12" y="-95.7" font-family="Courier New" font-size="14.00">(1,0)&#45;(1,8)</text>
</g>
<!-- Node_80 -->
<g id="node2" class="node">
<title>Node_80</title>
<polygon fill="#f2f2f2" stroke="none" points="212.5,-52 4.5,-52 4.5,0 212.5,0 212.5,-52"/>
<polygon fill="none" stroke="black" points="4.5,-26 4.5,-52 212.5,-52 212.5,-26 4.5,-26"/>
<text text-anchor="start" x="9.5" y="-34.7" font-family="Courier New" font-weight="bold" font-size="14.00">InstanceVariableReadNode</text>
<polygon fill="none" stroke="black" points="4.5,0 4.5,-26 104.5,-26 104.5,0 4.5,0"/>
<text text-anchor="start" x="9.5" y="-7.7" font-family="Courier New" font-size="14.00">name</text>
<polygon fill="none" stroke="black" points="104.5,0 104.5,-26 212.5,-26 212.5,0 104.5,0"/>
<text text-anchor="start" x="137.88" y="-7.7" font-family="Courier New" font-size="14.00">:@foo</text>
</g>
<!-- Node_60&#45;&gt;Node_80 -->
<g id="edge1" class="edge">
<title>Node_60:value&#45;&gt;Node_80</title>
<path fill="none" stroke="black" d="M218.5,-153C247.39,-153 232.3,-112.81 217.5,-88 210.19,-75.76 199.45,-65.78 187.52,-57.71"/>
<polygon fill="black" stroke="black" points="189.54,-54.22 179.2,-51.91 185.84,-60.17 189.54,-54.22"/>
</g>
</g>
</svg>
