<?xml version="1.0" encoding="UTF-8" standalone="no"?>
<!DOCTYPE svg PUBLIC "-//W3C//DTD SVG 1.1//EN"
 "http://www.w3.org/Graphics/SVG/1.1/DTD/svg11.dtd">
<!-- Generated by graphviz version 8.1.0 (20230707.0739)
 -->
<!-- Title: Prism Pages: 1 -->
<svg width="234pt" height="278pt"
 viewBox="0.00 0.00 233.57 278.00" xmlns="http://www.w3.org/2000/svg" xmlns:xlink="http://www.w3.org/1999/xlink">
<g id="graph0" class="graph" transform="scale(1 1) rotate(0) translate(4 274)">
<title>Prism</title>
<polygon fill="white" stroke="none" points="-4,4 -4,-274 229.57,-274 229.57,4 -4,4"/>
<!-- Node_60 -->
<g id="node1" class="node">
<title>Node_60</title>
<polygon fill="#f2f2f2" stroke="none" points="208.5,-270 8.5,-270 8.5,-140 208.5,-140 208.5,-270"/>
<polygon fill="none" stroke="black" points="8.5,-244 8.5,-270 208.5,-270 208.5,-244 8.5,-244"/>
<text text-anchor="start" x="75.5" y="-252.7" font-family="Courier New" font-weight="bold" font-size="14.00">CallNode</text>
<polygon fill="none" stroke="black" points="8.5,-218 8.5,-244 108.5,-244 108.5,-218 8.5,-218"/>
<text text-anchor="start" x="13.5" y="-225.7" font-family="Courier New" font-size="14.00">flags</text>
<polygon fill="none" stroke="black" points="108.5,-218 108.5,-244 208.5,-244 208.5,-218 108.5,-218"/>
<polygon fill="none" stroke="black" points="8.5,-192 8.5,-218 208.5,-218 208.5,-192 8.5,-192"/>
<text text-anchor="start" x="13.5" y="-199.7" font-family="Courier New" font-size="14.00">receiver</text>
<polygon fill="none" stroke="black" points="8.5,-166 8.5,-192 108.5,-192 108.5,-166 8.5,-166"/>
<text text-anchor="start" x="13.5" y="-173.7" font-family="Courier New" font-size="14.00">name</text>
<polygon fill="none" stroke="black" points="108.5,-166 108.5,-192 208.5,-192 208.5,-166 108.5,-166"/>
<text text-anchor="start" x="150.25" y="-173.7" font-family="Courier New" font-size="14.00">:!</text>
<polygon fill="none" stroke="black" points="8.5,-140 8.5,-166 108.5,-166 108.5,-140 8.5,-140"/>
<text text-anchor="start" x="13.12" y="-147.7" font-family="Courier New" font-size="14.00">message_loc</text>
<polygon fill="none" stroke="black" points="108.5,-140 108.5,-166 208.5,-166 208.5,-140 108.5,-140"/>
<text text-anchor="start" x="113.12" y="-147.7" font-family="Courier New" font-size="14.00">(1,0)&#45;(1,1)</text>
</g>
<!-- Node_80 -->
<g id="node2" class="node">
<title>Node_80</title>
<polygon fill="#f2f2f2" stroke="none" points="217,-104 0,-104 0,0 217,0 217,-104"/>
<polygon fill="none" stroke="black" points="0,-78 0,-104 217,-104 217,-78 0,-78"/>
<text text-anchor="start" x="75.5" y="-86.7" font-family="Courier New" font-weight="bold" font-size="14.00">CallNode</text>
<polygon fill="none" stroke="black" points="0,-52 0,-78 100,-78 100,-52 0,-52"/>
<text text-anchor="start" x="5" y="-59.7" font-family="Courier New" font-size="14.00">flags</text>
<polygon fill="none" stroke="black" points="100,-52 100,-78 217,-78 217,-52 100,-52"/>
<text text-anchor="start" x="104.88" y="-59.7" font-family="Courier New" font-size="14.00">variable_call</text>
<polygon fill="none" stroke="black" points="0,-26 0,-52 100,-52 100,-26 0,-26"/>
<text text-anchor="start" x="5" y="-33.7" font-family="Courier New" font-size="14.00">name</text>
<polygon fill="none" stroke="black" points="100,-26 100,-52 217,-52 217,-26 100,-26"/>
<text text-anchor="start" x="142" y="-33.7" font-family="Courier New" font-size="14.00">:foo</text>
<polygon fill="none" stroke="black" points="0,0 0,-26 100,-26 100,0 0,0"/>
<text text-anchor="start" x="4.62" y="-7.7" font-family="Courier New" font-size="14.00">message_loc</text>
<polygon fill="none" stroke="black" points="100,0 100,-26 217,-26 217,0 100,0"/>
<text text-anchor="start" x="113.12" y="-7.7" font-family="Courier New" font-size="14.00">(1,1)&#45;(1,4)</text>
</g>
<!-- Node_60&#45;&gt;Node_80 -->
<g id="edge1" class="edge">
<title>Node_60:receiver&#45;&gt;Node_80</title>
<path fill="none" stroke="black" d="M209.5,-205C238.39,-205 220.68,-166.2 208.5,-140 203.8,-129.88 197.28,-120.47 189.82,-111.87"/>
<polygon fill="black" stroke="black" points="192.77,-109.82 183.4,-104.87 187.64,-114.58 192.77,-109.82"/>
</g>
</g>
</svg>
