<?xml version="1.0" encoding="UTF-8" standalone="no"?>
<!DOCTYPE svg PUBLIC "-//W3C//DTD SVG 1.1//EN"
 "http://www.w3.org/Graphics/SVG/1.1/DTD/svg11.dtd">
<!-- Generated by graphviz version 8.1.0 (20230707.0739)
 -->
<!-- Title: Prism Pages: 1 -->
<svg width="126pt" height="60pt"
 viewBox="0.00 0.00 126.00 60.00" xmlns="http://www.w3.org/2000/svg" xmlns:xlink="http://www.w3.org/1999/xlink">
<g id="graph0" class="graph" transform="scale(1 1) rotate(0) translate(4 56)">
<title>Prism</title>
<polygon fill="white" stroke="none" points="-4,4 -4,-56 122,-56 122,4 -4,4"/>
<!-- Node_60 -->
<g id="node1" class="node">
<title>Node_60</title>
<polygon fill="#f2f2f2" stroke="none" points="118,-52 0,-52 0,0 118,0 118,-52"/>
<polygon fill="none" stroke="black" points="0,-26 0,-52 118,-52 118,-26 0,-26"/>
<text text-anchor="start" x="13.62" y="-34.7" font-family="Courier New" font-weight="bold" font-size="14.00">IntegerNode</text>
<polygon fill="none" stroke="black" points="0,0 0,-26 51,-26 51,0 0,0"/>
<text text-anchor="start" x="4.88" y="-7.7" font-family="Courier New" font-size="14.00">flags</text>
<polygon fill="none" stroke="black" points="51,0 51,-26 118,-26 118,0 51,0"/>
<text text-anchor="start" x="55.62" y="-7.7" font-family="Courier New" font-size="14.00">decimal</text>
</g>
</g>
</svg>
