<?xml version="1.0" encoding="UTF-8" standalone="no"?>
<!DOCTYPE svg PUBLIC "-//W3C//DTD SVG 1.1//EN"
 "http://www.w3.org/Graphics/SVG/1.1/DTD/svg11.dtd">
<!-- Generated by graphviz version 8.1.0 (20230707.0739)
 -->
<!-- Title: Prism Pages: 1 -->
<svg width="288pt" height="330pt"
 viewBox="0.00 0.00 288.37 330.00" xmlns="http://www.w3.org/2000/svg" xmlns:xlink="http://www.w3.org/1999/xlink">
<g id="graph0" class="graph" transform="scale(1 1) rotate(0) translate(4 326)">
<title>Prism</title>
<polygon fill="white" stroke="none" points="-4,4 -4,-326 284.37,-326 284.37,4 -4,4"/>
<!-- Node_60 -->
<g id="node1" class="node">
<title>Node_60</title>
<polygon fill="#f2f2f2" stroke="none" points="250,-322 0,-322 0,-140 250,-140 250,-322"/>
<polygon fill="none" stroke="black" points="0,-296 0,-322 250,-322 250,-296 0,-296"/>
<text text-anchor="start" x="92" y="-304.7" font-family="Courier New" font-weight="bold" font-size="14.00">CallNode</text>
<polygon fill="none" stroke="black" points="0,-270 0,-296 150,-296 150,-270 0,-270"/>
<text text-anchor="start" x="5" y="-277.7" font-family="Courier New" font-size="14.00">flags</text>
<polygon fill="none" stroke="black" points="150,-270 150,-296 250,-296 250,-270 150,-270"/>
<polygon fill="none" stroke="black" points="0,-244 0,-270 250,-270 250,-244 0,-244"/>
<text text-anchor="start" x="5" y="-251.7" font-family="Courier New" font-size="14.00">receiver</text>
<polygon fill="none" stroke="black" points="0,-218 0,-244 150,-244 150,-218 0,-218"/>
<text text-anchor="start" x="4.88" y="-225.7" font-family="Courier New" font-size="14.00">call_operator_loc</text>
<polygon fill="none" stroke="black" points="150,-218 150,-244 250,-244 250,-218 150,-218"/>
<text text-anchor="start" x="154.62" y="-225.7" font-family="Courier New" font-size="14.00">(1,3)&#45;(1,4)</text>
<polygon fill="none" stroke="black" points="0,-192 0,-218 150,-218 150,-192 0,-192"/>
<text text-anchor="start" x="5" y="-199.7" font-family="Courier New" font-size="14.00">name</text>
<polygon fill="none" stroke="black" points="150,-192 150,-218 250,-218 250,-192 150,-192"/>
<text text-anchor="start" x="179.38" y="-199.7" font-family="Courier New" font-size="14.00">:call</text>
<polygon fill="none" stroke="black" points="0,-166 0,-192 150,-192 150,-166 0,-166"/>
<text text-anchor="start" x="5" y="-173.7" font-family="Courier New" font-size="14.00">opening_loc</text>
<polygon fill="none" stroke="black" points="150,-166 150,-192 250,-192 250,-166 150,-166"/>
<text text-anchor="start" x="154.62" y="-173.7" font-family="Courier New" font-size="14.00">(1,4)&#45;(1,5)</text>
<polygon fill="none" stroke="black" points="0,-140 0,-166 150,-166 150,-140 0,-140"/>
<text text-anchor="start" x="5" y="-147.7" font-family="Courier New" font-size="14.00">closing_loc</text>
<polygon fill="none" stroke="black" points="150,-140 150,-166 250,-166 250,-140 150,-140"/>
<text text-anchor="start" x="154.62" y="-147.7" font-family="Courier New" font-size="14.00">(1,5)&#45;(1,6)</text>
</g>
<!-- Node_80 -->
<g id="node2" class="node">
<title>Node_80</title>
<polygon fill="#f2f2f2" stroke="none" points="233.5,-104 16.5,-104 16.5,0 233.5,0 233.5,-104"/>
<polygon fill="none" stroke="black" points="16.5,-78 16.5,-104 233.5,-104 233.5,-78 16.5,-78"/>
<text text-anchor="start" x="92" y="-86.7" font-family="Courier New" font-weight="bold" font-size="14.00">CallNode</text>
<polygon fill="none" stroke="black" points="16.5,-52 16.5,-78 116.5,-78 116.5,-52 16.5,-52"/>
<text text-anchor="start" x="21.5" y="-59.7" font-family="Courier New" font-size="14.00">flags</text>
<polygon fill="none" stroke="black" points="116.5,-52 116.5,-78 233.5,-78 233.5,-52 116.5,-52"/>
<text text-anchor="start" x="121.38" y="-59.7" font-family="Courier New" font-size="14.00">variable_call</text>
<polygon fill="none" stroke="black" points="16.5,-26 16.5,-52 116.5,-52 116.5,-26 16.5,-26"/>
<text text-anchor="start" x="21.5" y="-33.7" font-family="Courier New" font-size="14.00">name</text>
<polygon fill="none" stroke="black" points="116.5,-26 116.5,-52 233.5,-52 233.5,-26 116.5,-26"/>
<text text-anchor="start" x="158.5" y="-33.7" font-family="Courier New" font-size="14.00">:foo</text>
<polygon fill="none" stroke="black" points="16.5,0 16.5,-26 116.5,-26 116.5,0 16.5,0"/>
<text text-anchor="start" x="21.12" y="-7.7" font-family="Courier New" font-size="14.00">message_loc</text>
<polygon fill="none" stroke="black" points="116.5,0 116.5,-26 233.5,-26 233.5,0 116.5,0"/>
<text text-anchor="start" x="129.62" y="-7.7" font-family="Courier New" font-size="14.00">(1,0)&#45;(1,3)</text>
</g>
<!-- Node_60&#45;&gt;Node_80 -->
<g id="edge1" class="edge">
<title>Node_60:receiver&#45;&gt;Node_80</title>
<path fill="none" stroke="black" d="M251,-257C303,-257 274.27,-185.99 250,-140 244.37,-129.33 236.77,-119.7 228.09,-111.08"/>
<polygon fill="black" stroke="black" points="230.92,-109 221.21,-104.76 226.15,-114.13 230.92,-109"/>
</g>
</g>
</svg>
