<?xml version="1.0" encoding="UTF-8" standalone="no"?>
<!DOCTYPE svg PUBLIC "-//W3C//DTD SVG 1.1//EN"
 "http://www.w3.org/Graphics/SVG/1.1/DTD/svg11.dtd">
<!-- Generated by graphviz version 8.1.0 (20230707.0739)
 -->
<!-- Title: Prism Pages: 1 -->
<svg width="599pt" height="816pt"
 viewBox="0.00 0.00 598.50 815.60" xmlns="http://www.w3.org/2000/svg" xmlns:xlink="http://www.w3.org/1999/xlink">
<g id="graph0" class="graph" transform="scale(1 1) rotate(0) translate(4 811.6)">
<title>Prism</title>
<polygon fill="white" stroke="none" points="-4,4 -4,-811.6 594.5,-811.6 594.5,4 -4,4"/>
<!-- Node_60 -->
<g id="node1" class="node">
<title>Node_60</title>
<polygon fill="#f2f2f2" stroke="none" points="382.5,-807.6 156.5,-807.6 156.5,-651.6 382.5,-651.6 382.5,-807.6"/>
<polygon fill="none" stroke="black" points="156.5,-781.6 156.5,-807.6 382.5,-807.6 382.5,-781.6 156.5,-781.6"/>
<text text-anchor="start" x="211.75" y="-790.3" font-family="Courier New" font-weight="bold" font-size="14.00">MultiWriteNode</text>
<polygon fill="none" stroke="black" points="156.5,-755.6 156.5,-781.6 382.5,-781.6 382.5,-755.6 156.5,-755.6"/>
<text text-anchor="start" x="161.5" y="-763.3" font-family="Courier New" font-size="14.00">lefts</text>
<polygon fill="none" stroke="black" points="156.5,-729.6 156.5,-755.6 382.5,-755.6 382.5,-729.6 156.5,-729.6"/>
<text text-anchor="start" x="161.5" y="-737.3" font-family="Courier New" font-size="14.00">rest</text>
<polygon fill="none" stroke="black" points="156.5,-703.6 156.5,-729.6 265.5,-729.6 265.5,-703.6 156.5,-703.6"/>
<text text-anchor="start" x="161.5" y="-711.3" font-family="Courier New" font-size="14.00">rights</text>
<polygon fill="none" stroke="black" points="265.5,-703.6 265.5,-729.6 382.5,-729.6 382.5,-703.6 265.5,-703.6"/>
<text text-anchor="start" x="315.75" y="-711.3" font-family="Courier New" font-size="14.00">[]</text>
<polygon fill="none" stroke="black" points="156.5,-677.6 156.5,-703.6 265.5,-703.6 265.5,-677.6 156.5,-677.6"/>
<text text-anchor="start" x="161.5" y="-685.3" font-family="Courier New" font-size="14.00">operator_loc</text>
<polygon fill="none" stroke="black" points="265.5,-677.6 265.5,-703.6 382.5,-703.6 382.5,-677.6 265.5,-677.6"/>
<text text-anchor="start" x="270.38" y="-685.3" font-family="Courier New" font-size="14.00">(1,11)&#45;(1,12)</text>
<polygon fill="none" stroke="black" points="156.5,-651.6 156.5,-677.6 382.5,-677.6 382.5,-651.6 156.5,-651.6"/>
<text text-anchor="start" x="161.5" y="-659.3" font-family="Courier New" font-size="14.00">value</text>
</g>
<!-- Node_100 -->
<g id="node6" class="node">
<title>Node_100</title>
<polygon fill="#f2f2f2" stroke="none" points="143,-576.85 0,-576.85 0,-550.35 143,-550.35 143,-576.85"/>
<polygon fill="none" stroke="black" points="0,-550.35 0,-576.85 143,-576.85 143,-550.35 0,-550.35"/>
<text text-anchor="start" x="5.5" y="-559.55" font-family="Courier New" font-weight="bold" font-size="14.00">ImplicitRestNode</text>
</g>
<!-- Node_60&#45;&gt;Node_100 -->
<g id="edge3" class="edge">
<title>Node_60:rest&#45;&gt;Node_100</title>
<path fill="none" stroke="black" d="M155.5,-742.6C87.77,-742.6 74.57,-635.9 72.05,-587.72"/>
<polygon fill="black" stroke="black" points="75.52,-587.69 71.62,-577.83 68.52,-587.97 75.52,-587.69"/>
</g>
<!-- Node_120 -->
<g id="node7" class="node">
<title>Node_120</title>
<polygon fill="#f2f2f2" stroke="none" points="378,-615.6 161,-615.6 161,-511.6 378,-511.6 378,-615.6"/>
<polygon fill="none" stroke="black" points="161,-589.6 161,-615.6 378,-615.6 378,-589.6 161,-589.6"/>
<text text-anchor="start" x="236.5" y="-598.3" font-family="Courier New" font-weight="bold" font-size="14.00">CallNode</text>
<polygon fill="none" stroke="black" points="161,-563.6 161,-589.6 261,-589.6 261,-563.6 161,-563.6"/>
<text text-anchor="start" x="166" y="-571.3" font-family="Courier New" font-size="14.00">flags</text>
<polygon fill="none" stroke="black" points="261,-563.6 261,-589.6 378,-589.6 378,-563.6 261,-563.6"/>
<text text-anchor="start" x="265.88" y="-571.3" font-family="Courier New" font-size="14.00">variable_call</text>
<polygon fill="none" stroke="black" points="161,-537.6 161,-563.6 261,-563.6 261,-537.6 161,-537.6"/>
<text text-anchor="start" x="166" y="-545.3" font-family="Courier New" font-size="14.00">name</text>
<polygon fill="none" stroke="black" points="261,-537.6 261,-563.6 378,-563.6 378,-537.6 261,-537.6"/>
<text text-anchor="start" x="303" y="-545.3" font-family="Courier New" font-size="14.00">:baz</text>
<polygon fill="none" stroke="black" points="161,-511.6 161,-537.6 261,-537.6 261,-511.6 161,-511.6"/>
<text text-anchor="start" x="165.62" y="-519.3" font-family="Courier New" font-size="14.00">message_loc</text>
<polygon fill="none" stroke="black" points="261,-511.6 261,-537.6 378,-537.6 378,-511.6 261,-511.6"/>
<text text-anchor="start" x="265.88" y="-519.3" font-family="Courier New" font-size="14.00">(1,13)&#45;(1,16)</text>
</g>
<!-- Node_60&#45;&gt;Node_120 -->
<g id="edge4" class="edge">
<title>Node_60:value&#45;&gt;Node_120</title>
<path fill="none" stroke="black" d="M269.5,-651.6C269.5,-643.32 269.5,-634.59 269.5,-625.99"/>
<polygon fill="black" stroke="black" points="273,-626.2 269.5,-616.2 266,-626.2 273,-626.2"/>
</g>
<!-- Node_60_lefts -->
<g id="node8" class="node">
<title>Node_60_lefts</title>
<ellipse fill="#f2f2f2" stroke="black" cx="397.5" cy="-563.6" rx="1.8" ry="1.8"/>
</g>
<!-- Node_60&#45;&gt;Node_60_lefts -->
<g id="edge1" class="edge">
<title>Node_60:lefts&#45;&gt;Node_60_lefts</title>
<path fill="none" stroke="black" d="M383.5,-768.6C461.45,-768.6 415.98,-618.52 401.46,-575.82"/>
<polygon fill="black" stroke="black" points="404.46,-574.78 397.84,-566.51 397.86,-577.1 404.46,-574.78"/>
</g>
<!-- Node_80 -->
<g id="node2" class="node">
<title>Node_80</title>
<polygon fill="#f2f2f2" stroke="none" points="497.5,-475.6 297.5,-475.6 297.5,-319.6 497.5,-319.6 497.5,-475.6"/>
<polygon fill="none" stroke="black" points="297.5,-449.6 297.5,-475.6 497.5,-475.6 497.5,-449.6 297.5,-449.6"/>
<text text-anchor="start" x="335.62" y="-458.3" font-family="Courier New" font-weight="bold" font-size="14.00">IndexTargetNode</text>
<polygon fill="none" stroke="black" points="297.5,-423.6 297.5,-449.6 397.5,-449.6 397.5,-423.6 297.5,-423.6"/>
<text text-anchor="start" x="302.5" y="-431.3" font-family="Courier New" font-size="14.00">flags</text>
<polygon fill="none" stroke="black" points="397.5,-423.6 397.5,-449.6 497.5,-449.6 497.5,-423.6 397.5,-423.6"/>
<polygon fill="none" stroke="black" points="297.5,-397.6 297.5,-423.6 497.5,-423.6 497.5,-397.6 297.5,-397.6"/>
<text text-anchor="start" x="302.5" y="-405.3" font-family="Courier New" font-size="14.00">receiver</text>
<polygon fill="none" stroke="black" points="297.5,-371.6 297.5,-397.6 397.5,-397.6 397.5,-371.6 297.5,-371.6"/>
<text text-anchor="start" x="302.12" y="-379.3" font-family="Courier New" font-size="14.00">opening_loc</text>
<polygon fill="none" stroke="black" points="397.5,-371.6 397.5,-397.6 497.5,-397.6 497.5,-371.6 397.5,-371.6"/>
<text text-anchor="start" x="402.12" y="-379.3" font-family="Courier New" font-size="14.00">(1,3)&#45;(1,4)</text>
<polygon fill="none" stroke="black" points="297.5,-345.6 297.5,-371.6 497.5,-371.6 497.5,-345.6 297.5,-345.6"/>
<text text-anchor="start" x="302.5" y="-353.3" font-family="Courier New" font-size="14.00">arguments</text>
<polygon fill="none" stroke="black" points="297.5,-319.6 297.5,-345.6 397.5,-345.6 397.5,-319.6 297.5,-319.6"/>
<text text-anchor="start" x="302.12" y="-327.3" font-family="Courier New" font-size="14.00">closing_loc</text>
<polygon fill="none" stroke="black" points="397.5,-319.6 397.5,-345.6 497.5,-345.6 497.5,-319.6 397.5,-319.6"/>
<text text-anchor="start" x="402.12" y="-327.3" font-family="Courier New" font-size="14.00">(1,8)&#45;(1,9)</text>
</g>
<!-- Node_140 -->
<g id="node3" class="node">
<title>Node_140</title>
<polygon fill="#f2f2f2" stroke="none" points="414,-283.6 197,-283.6 197,-179.6 414,-179.6 414,-283.6"/>
<polygon fill="none" stroke="black" points="197,-257.6 197,-283.6 414,-283.6 414,-257.6 197,-257.6"/>
<text text-anchor="start" x="272.5" y="-266.3" font-family="Courier New" font-weight="bold" font-size="14.00">CallNode</text>
<polygon fill="none" stroke="black" points="197,-231.6 197,-257.6 297,-257.6 297,-231.6 197,-231.6"/>
<text text-anchor="start" x="202" y="-239.3" font-family="Courier New" font-size="14.00">flags</text>
<polygon fill="none" stroke="black" points="297,-231.6 297,-257.6 414,-257.6 414,-231.6 297,-231.6"/>
<text text-anchor="start" x="301.88" y="-239.3" font-family="Courier New" font-size="14.00">variable_call</text>
<polygon fill="none" stroke="black" points="197,-205.6 197,-231.6 297,-231.6 297,-205.6 197,-205.6"/>
<text text-anchor="start" x="202" y="-213.3" font-family="Courier New" font-size="14.00">name</text>
<polygon fill="none" stroke="black" points="297,-205.6 297,-231.6 414,-231.6 414,-205.6 297,-205.6"/>
<text text-anchor="start" x="339" y="-213.3" font-family="Courier New" font-size="14.00">:foo</text>
<polygon fill="none" stroke="black" points="197,-179.6 197,-205.6 297,-205.6 297,-179.6 197,-179.6"/>
<text text-anchor="start" x="201.62" y="-187.3" font-family="Courier New" font-size="14.00">message_loc</text>
<polygon fill="none" stroke="black" points="297,-179.6 297,-205.6 414,-205.6 414,-179.6 297,-179.6"/>
<text text-anchor="start" x="310.12" y="-187.3" font-family="Courier New" font-size="14.00">(1,0)&#45;(1,3)</text>
</g>
<!-- Node_80&#45;&gt;Node_140 -->
<g id="edge5" class="edge">
<title>Node_80:receiver&#45;&gt;Node_140</title>
<path fill="none" stroke="black" d="M296.5,-410.6C248.35,-410.6 262.06,-344.82 280.23,-293.24"/>
<polygon fill="black" stroke="black" points="283.77,-294.73 283.9,-284.13 277.19,-292.33 283.77,-294.73"/>
</g>
<!-- Node_160 -->
<g id="node4" class="node">
<title>Node_160</title>
<polygon fill="#f2f2f2" stroke="none" points="549,-270.6 432,-270.6 432,-192.6 549,-192.6 549,-270.6"/>
<polygon fill="none" stroke="black" points="432,-244.6 432,-270.6 549,-270.6 549,-244.6 432,-244.6"/>
<text text-anchor="start" x="436.88" y="-253.3" font-family="Courier New" font-weight="bold" font-size="14.00">ArgumentsNode</text>
<polygon fill="none" stroke="black" points="432,-218.6 432,-244.6 511,-244.6 511,-218.6 432,-218.6"/>
<text text-anchor="start" x="437" y="-226.3" font-family="Courier New" font-size="14.00">flags</text>
<polygon fill="none" stroke="black" points="511,-218.6 511,-244.6 549,-244.6 549,-218.6 511,-218.6"/>
<polygon fill="none" stroke="black" points="432,-192.6 432,-218.6 549,-218.6 549,-192.6 432,-192.6"/>
<text text-anchor="start" x="437" y="-200.3" font-family="Courier New" font-size="14.00">arguments</text>
</g>
<!-- Node_80&#45;&gt;Node_160 -->
<g id="edge6" class="edge">
<title>Node_80:arguments&#45;&gt;Node_160</title>
<path fill="none" stroke="black" d="M498.5,-358.6C531.02,-358.6 523.16,-316.28 510.8,-280.7"/>
<polygon fill="black" stroke="black" points="513.76,-279.6 507.05,-271.4 507.19,-282 513.76,-279.6"/>
</g>
<!-- Node_160_arguments -->
<g id="node9" class="node">
<title>Node_160_arguments</title>
<ellipse fill="#f2f2f2" stroke="black" cx="490.5" cy="-141.8" rx="1.8" ry="1.8"/>
</g>
<!-- Node_160&#45;&gt;Node_160_arguments -->
<g id="edge7" class="edge">
<title>Node_160:arguments&#45;&gt;Node_160_arguments</title>
<path fill="none" stroke="black" d="M490.5,-191.6C490.5,-179 490.5,-164.56 490.5,-154.68"/>
<polygon fill="black" stroke="black" points="494,-155.01 490.5,-145.01 487,-155.01 494,-155.01"/>
</g>
<!-- Node_180 -->
<g id="node5" class="node">
<title>Node_180</title>
<polygon fill="#f2f2f2" stroke="none" points="590.5,-104 390.5,-104 390.5,0 590.5,0 590.5,-104"/>
<polygon fill="none" stroke="black" points="390.5,-78 390.5,-104 590.5,-104 590.5,-78 390.5,-78"/>
<text text-anchor="start" x="449.25" y="-86.7" font-family="Courier New" font-weight="bold" font-size="14.00">SymbolNode</text>
<polygon fill="none" stroke="black" points="390.5,-52 390.5,-78 490.5,-78 490.5,-52 390.5,-52"/>
<text text-anchor="start" x="395.12" y="-59.7" font-family="Courier New" font-size="14.00">opening_loc</text>
<polygon fill="none" stroke="black" points="490.5,-52 490.5,-78 590.5,-78 590.5,-52 490.5,-52"/>
<text text-anchor="start" x="495.12" y="-59.7" font-family="Courier New" font-size="14.00">(1,4)&#45;(1,5)</text>
<polygon fill="none" stroke="black" points="390.5,-26 390.5,-52 490.5,-52 490.5,-26 390.5,-26"/>
<text text-anchor="start" x="395.5" y="-33.7" font-family="Courier New" font-size="14.00">value_loc</text>
<polygon fill="none" stroke="black" points="490.5,-26 490.5,-52 590.5,-52 590.5,-26 490.5,-26"/>
<text text-anchor="start" x="495.12" y="-33.7" font-family="Courier New" font-size="14.00">(1,5)&#45;(1,8)</text>
<polygon fill="none" stroke="black" points="390.5,0 390.5,-26 490.5,-26 490.5,0 390.5,0"/>
<text text-anchor="start" x="395.5" y="-7.7" font-family="Courier New" font-size="14.00">unescaped</text>
<polygon fill="none" stroke="black" points="490.5,0 490.5,-26 590.5,-26 590.5,0 490.5,0"/>
<text text-anchor="start" x="519.88" y="-7.7" font-family="Courier New" font-size="14.00">&quot;bar&quot;</text>
</g>
<!-- Node_60_lefts&#45;&gt;Node_80 -->
<g id="edge2" class="edge">
<title>Node_60_lefts&#45;&gt;Node_80</title>
<path fill="none" stroke="black" d="M397.5,-561.55C397.5,-555.25 397.5,-521.44 397.5,-486.24"/>
<polygon fill="black" stroke="black" points="401,-486.3 397.5,-476.3 394,-486.3 401,-486.3"/>
</g>
<!-- Node_160_arguments&#45;&gt;Node_180 -->
<g id="edge8" class="edge">
<title>Node_160_arguments&#45;&gt;Node_180</title>
<path fill="none" stroke="black" d="M490.5,-139.56C490.5,-136.21 490.5,-126.41 490.5,-114.56"/>
<polygon fill="black" stroke="black" points="494,-114.72 490.5,-104.72 487,-114.72 494,-114.72"/>
</g>
</g>
</svg>
