<?xml version="1.0" encoding="UTF-8" standalone="no"?>
<!DOCTYPE svg PUBLIC "-//W3C//DTD SVG 1.1//EN"
 "http://www.w3.org/Graphics/SVG/1.1/DTD/svg11.dtd">
<!-- Generated by graphviz version 8.1.0 (20230707.0739)
 -->
<!-- Title: Prism Pages: 1 -->
<svg width="240pt" height="226pt"
 viewBox="0.00 0.00 240.29 226.00" xmlns="http://www.w3.org/2000/svg" xmlns:xlink="http://www.w3.org/1999/xlink">
<g id="graph0" class="graph" transform="scale(1 1) rotate(0) translate(4 222)">
<title>Prism</title>
<polygon fill="white" stroke="none" points="-4,4 -4,-222 236.29,-222 236.29,4 -4,4"/>
<!-- Node_60 -->
<g id="node1" class="node">
<title>Node_60</title>
<polygon fill="#f2f2f2" stroke="none" points="213,-218 4,-218 4,-140 213,-140 213,-218"/>
<polygon fill="none" stroke="black" points="4,-192 4,-218 213,-218 213,-192 4,-192"/>
<text text-anchor="start" x="50.75" y="-200.7" font-family="Courier New" font-weight="bold" font-size="14.00">AssocSplatNode</text>
<polygon fill="none" stroke="black" points="4,-166 4,-192 213,-192 213,-166 4,-166"/>
<text text-anchor="start" x="9" y="-173.7" font-family="Courier New" font-size="14.00">value</text>
<polygon fill="none" stroke="black" points="4,-140 4,-166 113,-166 113,-140 4,-140"/>
<text text-anchor="start" x="9" y="-147.7" font-family="Courier New" font-size="14.00">operator_loc</text>
<polygon fill="none" stroke="black" points="113,-140 113,-166 213,-166 213,-140 113,-140"/>
<text text-anchor="start" x="117.62" y="-147.7" font-family="Courier New" font-size="14.00">(1,2)&#45;(1,4)</text>
</g>
<!-- Node_80 -->
<g id="node2" class="node">
<title>Node_80</title>
<polygon fill="#f2f2f2" stroke="none" points="217,-104 0,-104 0,0 217,0 217,-104"/>
<polygon fill="none" stroke="black" points="0,-78 0,-104 217,-104 217,-78 0,-78"/>
<text text-anchor="start" x="75.5" y="-86.7" font-family="Courier New" font-weight="bold" font-size="14.00">CallNode</text>
<polygon fill="none" stroke="black" points="0,-52 0,-78 100,-78 100,-52 0,-52"/>
<text text-anchor="start" x="5" y="-59.7" font-family="Courier New" font-size="14.00">name</text>
<polygon fill="none" stroke="black" points="100,-52 100,-78 217,-78 217,-52 100,-52"/>
<text text-anchor="start" x="142" y="-59.7" font-family="Courier New" font-size="14.00">:foo</text>
<polygon fill="none" stroke="black" points="0,-26 0,-52 100,-52 100,-26 0,-26"/>
<text text-anchor="start" x="4.62" y="-33.7" font-family="Courier New" font-size="14.00">message_loc</text>
<polygon fill="none" stroke="black" points="100,-26 100,-52 217,-52 217,-26 100,-26"/>
<text text-anchor="start" x="113.12" y="-33.7" font-family="Courier New" font-size="14.00">(1,4)&#45;(1,7)</text>
<polygon fill="none" stroke="black" points="0,0 0,-26 100,-26 100,0 0,0"/>
<text text-anchor="start" x="5" y="-7.7" font-family="Courier New" font-size="14.00">flags</text>
<polygon fill="none" stroke="black" points="100,0 100,-26 217,-26 217,0 100,0"/>
<text text-anchor="start" x="104.88" y="-7.7" font-family="Courier New" font-size="14.00">variable_call</text>
</g>
<!-- Node_60&#45;&gt;Node_80 -->
<g id="edge1" class="edge">
<title>Node_60:value&#45;&gt;Node_80</title>
<path fill="none" stroke="black" d="M214.5,-179C253.06,-179 221.55,-144.01 183.1,-110.91"/>
<polygon fill="black" stroke="black" points="185.71,-107.68 175.82,-103.89 181.18,-113.02 185.71,-107.68"/>
</g>
</g>
</svg>
