<?xml version="1.0" encoding="UTF-8" standalone="no"?>
<!DOCTYPE svg PUBLIC "-//W3C//DTD SVG 1.1//EN"
 "http://www.w3.org/Graphics/SVG/1.1/DTD/svg11.dtd">
<!-- Generated by graphviz version 8.1.0 (20230707.0739)
 -->
<!-- Title: Prism Pages: 1 -->
<svg width="250pt" height="354pt"
 viewBox="0.00 0.00 249.80 353.60" xmlns="http://www.w3.org/2000/svg" xmlns:xlink="http://www.w3.org/1999/xlink">
<g id="graph0" class="graph" transform="scale(1 1) rotate(0) translate(4 349.6)">
<title>Prism</title>
<polygon fill="white" stroke="none" points="-4,4 -4,-349.6 245.8,-349.6 245.8,4 -4,4"/>
<!-- Node_60 -->
<g id="node1" class="node">
<title>Node_60</title>
<polygon fill="#f2f2f2" stroke="none" points="217,-345.6 0,-345.6 0,-215.6 217,-215.6 217,-345.6"/>
<polygon fill="none" stroke="black" points="0,-319.6 0,-345.6 217,-345.6 217,-319.6 0,-319.6"/>
<text text-anchor="start" x="42.5" y="-328.3" font-family="Courier New" font-weight="bold" font-size="14.00">PreExecutionNode</text>
<polygon fill="none" stroke="black" points="0,-293.6 0,-319.6 217,-319.6 217,-293.6 0,-293.6"/>
<text text-anchor="start" x="5" y="-301.3" font-family="Courier New" font-size="14.00">statements</text>
<polygon fill="none" stroke="black" points="0,-267.6 0,-293.6 100,-293.6 100,-267.6 0,-267.6"/>
<text text-anchor="start" x="4.62" y="-275.3" font-family="Courier New" font-size="14.00">keyword_loc</text>
<polygon fill="none" stroke="black" points="100,-267.6 100,-293.6 217,-293.6 217,-267.6 100,-267.6"/>
<text text-anchor="start" x="113.12" y="-275.3" font-family="Courier New" font-size="14.00">(1,0)&#45;(1,5)</text>
<polygon fill="none" stroke="black" points="0,-241.6 0,-267.6 100,-267.6 100,-241.6 0,-241.6"/>
<text text-anchor="start" x="4.62" y="-249.3" font-family="Courier New" font-size="14.00">opening_loc</text>
<polygon fill="none" stroke="black" points="100,-241.6 100,-267.6 217,-267.6 217,-241.6 100,-241.6"/>
<text text-anchor="start" x="113.12" y="-249.3" font-family="Courier New" font-size="14.00">(1,6)&#45;(1,7)</text>
<polygon fill="none" stroke="black" points="0,-215.6 0,-241.6 100,-241.6 100,-215.6 0,-215.6"/>
<text text-anchor="start" x="4.62" y="-223.3" font-family="Courier New" font-size="14.00">closing_loc</text>
<polygon fill="none" stroke="black" points="100,-215.6 100,-241.6 217,-241.6 217,-215.6 100,-215.6"/>
<text text-anchor="start" x="104.88" y="-223.3" font-family="Courier New" font-size="14.00">(1,10)&#45;(1,11)</text>
</g>
<!-- Node_80 -->
<g id="node2" class="node">
<title>Node_80</title>
<polygon fill="#f2f2f2" stroke="none" points="171,-179.6 46,-179.6 46,-127.6 171,-127.6 171,-179.6"/>
<polygon fill="none" stroke="black" points="46,-153.6 46,-179.6 171,-179.6 171,-153.6 46,-153.6"/>
<text text-anchor="start" x="50.75" y="-162.3" font-family="Courier New" font-weight="bold" font-size="14.00">StatementsNode</text>
<polygon fill="none" stroke="black" points="46,-127.6 46,-153.6 171,-153.6 171,-127.6 46,-127.6"/>
<text text-anchor="start" x="51" y="-135.3" font-family="Courier New" font-size="14.00">body</text>
</g>
<!-- Node_60&#45;&gt;Node_80 -->
<g id="edge1" class="edge">
<title>Node_60:statements&#45;&gt;Node_80</title>
<path fill="none" stroke="black" d="M218.5,-306.6C258.95,-306.6 238.15,-250.38 217.5,-215.6 208.74,-200.85 195,-189.4 180.18,-180.6"/>
<polygon fill="black" stroke="black" points="182.29,-177.22 171.84,-175.47 178.92,-183.36 182.29,-177.22"/>
</g>
<!-- Node_80_body -->
<g id="node4" class="node">
<title>Node_80_body</title>
<ellipse fill="#f2f2f2" stroke="black" cx="108.5" cy="-89.8" rx="1.8" ry="1.8"/>
</g>
<!-- Node_80&#45;&gt;Node_80_body -->
<g id="edge2" class="edge">
<title>Node_80:body&#45;&gt;Node_80_body</title>
<path fill="none" stroke="black" d="M108.5,-127.6C108.5,-119.36 108.5,-110.09 108.5,-102.91"/>
<polygon fill="black" stroke="black" points="112,-102.94 108.5,-92.94 105,-102.94 112,-102.94"/>
</g>
<!-- Node_100 -->
<g id="node3" class="node">
<title>Node_100</title>
<polygon fill="#f2f2f2" stroke="none" points="167.5,-52 49.5,-52 49.5,0 167.5,0 167.5,-52"/>
<polygon fill="none" stroke="black" points="49.5,-26 49.5,-52 167.5,-52 167.5,-26 49.5,-26"/>
<text text-anchor="start" x="63.12" y="-34.7" font-family="Courier New" font-weight="bold" font-size="14.00">IntegerNode</text>
<polygon fill="none" stroke="black" points="49.5,0 49.5,-26 100.5,-26 100.5,0 49.5,0"/>
<text text-anchor="start" x="54.38" y="-7.7" font-family="Courier New" font-size="14.00">flags</text>
<polygon fill="none" stroke="black" points="100.5,0 100.5,-26 167.5,-26 167.5,0 100.5,0"/>
<text text-anchor="start" x="105.12" y="-7.7" font-family="Courier New" font-size="14.00">decimal</text>
</g>
<!-- Node_80_body&#45;&gt;Node_100 -->
<g id="edge3" class="edge">
<title>Node_80_body&#45;&gt;Node_100</title>
<path fill="none" stroke="black" d="M108.5,-87.73C108.5,-84.45 108.5,-74.09 108.5,-62.84"/>
<polygon fill="black" stroke="black" points="112,-62.97 108.5,-52.97 105,-62.98 112,-62.97"/>
</g>
</g>
</svg>
