<?xml version="1.0" encoding="UTF-8" standalone="no"?>
<!DOCTYPE svg PUBLIC "-//W3C//DTD SVG 1.1//EN"
 "http://www.w3.org/Graphics/SVG/1.1/DTD/svg11.dtd">
<!-- Generated by graphviz version 8.1.0 (20230707.0739)
 -->
<!-- Title: Prism Pages: 1 -->
<svg width="249pt" height="406pt"
 viewBox="0.00 0.00 249.00 405.60" xmlns="http://www.w3.org/2000/svg" xmlns:xlink="http://www.w3.org/1999/xlink">
<g id="graph0" class="graph" transform="scale(1 1) rotate(0) translate(4 401.6)">
<title>Prism</title>
<polygon fill="white" stroke="none" points="-4,4 -4,-401.6 245,-401.6 245,4 -4,4"/>
<!-- Node_60 -->
<g id="node1" class="node">
<title>Node_60</title>
<polygon fill="#f2f2f2" stroke="none" points="183,-397.6 58,-397.6 58,-267.6 183,-267.6 183,-397.6"/>
<polygon fill="none" stroke="black" points="58,-371.6 58,-397.6 183,-397.6 183,-371.6 58,-371.6"/>
<text text-anchor="start" x="62.75" y="-380.3" font-family="Courier New" font-weight="bold" font-size="14.00">ParametersNode</text>
<polygon fill="none" stroke="black" points="58,-345.6 58,-371.6 149,-371.6 149,-345.6 58,-345.6"/>
<text text-anchor="start" x="63" y="-353.3" font-family="Courier New" font-size="14.00">requireds</text>
<polygon fill="none" stroke="black" points="149,-345.6 149,-371.6 183,-371.6 183,-345.6 149,-345.6"/>
<text text-anchor="start" x="157.75" y="-353.3" font-family="Courier New" font-size="14.00">[]</text>
<polygon fill="none" stroke="black" points="58,-319.6 58,-345.6 149,-345.6 149,-319.6 58,-319.6"/>
<text text-anchor="start" x="63" y="-327.3" font-family="Courier New" font-size="14.00">optionals</text>
<polygon fill="none" stroke="black" points="149,-319.6 149,-345.6 183,-345.6 183,-319.6 149,-319.6"/>
<text text-anchor="start" x="157.75" y="-327.3" font-family="Courier New" font-size="14.00">[]</text>
<polygon fill="none" stroke="black" points="58,-293.6 58,-319.6 149,-319.6 149,-293.6 58,-293.6"/>
<text text-anchor="start" x="63" y="-301.3" font-family="Courier New" font-size="14.00">posts</text>
<polygon fill="none" stroke="black" points="149,-293.6 149,-319.6 183,-319.6 183,-293.6 149,-293.6"/>
<text text-anchor="start" x="157.75" y="-301.3" font-family="Courier New" font-size="14.00">[]</text>
<polygon fill="none" stroke="black" points="58,-267.6 58,-293.6 183,-293.6 183,-267.6 58,-267.6"/>
<text text-anchor="start" x="63" y="-275.3" font-family="Courier New" font-size="14.00">keywords</text>
</g>
<!-- Node_60_keywords -->
<g id="node4" class="node">
<title>Node_60_keywords</title>
<ellipse fill="#f2f2f2" stroke="black" cx="120.5" cy="-229.8" rx="1.8" ry="1.8"/>
</g>
<!-- Node_60&#45;&gt;Node_60_keywords -->
<g id="edge1" class="edge">
<title>Node_60:keywords&#45;&gt;Node_60_keywords</title>
<path fill="none" stroke="black" d="M120.5,-267.6C120.5,-259.36 120.5,-250.09 120.5,-242.91"/>
<polygon fill="black" stroke="black" points="124,-242.94 120.5,-232.94 117,-242.94 124,-242.94"/>
</g>
<!-- Node_80 -->
<g id="node2" class="node">
<title>Node_80</title>
<polygon fill="#f2f2f2" stroke="none" points="241,-192 0,-192 0,-88 241,-88 241,-192"/>
<polygon fill="none" stroke="black" points="0,-166 0,-192 241,-192 241,-166 0,-166"/>
<text text-anchor="start" x="5" y="-174.7" font-family="Courier New" font-weight="bold" font-size="14.00">OptionalKeywordParameterNode</text>
<polygon fill="none" stroke="black" points="0,-140 0,-166 104,-166 104,-140 0,-140"/>
<text text-anchor="start" x="5" y="-147.7" font-family="Courier New" font-size="14.00">name</text>
<polygon fill="none" stroke="black" points="104,-140 104,-166 241,-166 241,-140 104,-140"/>
<text text-anchor="start" x="156" y="-147.7" font-family="Courier New" font-size="14.00">:bar</text>
<polygon fill="none" stroke="black" points="0,-114 0,-140 104,-140 104,-114 0,-114"/>
<text text-anchor="start" x="5" y="-121.7" font-family="Courier New" font-size="14.00">name_loc</text>
<polygon fill="none" stroke="black" points="104,-114 104,-140 241,-140 241,-114 104,-114"/>
<text text-anchor="start" x="123" y="-121.7" font-family="Courier New" font-size="14.00">(1,8)&#45;(1,12)</text>
<polygon fill="none" stroke="black" points="0,-88 0,-114 241,-114 241,-88 0,-88"/>
<text text-anchor="start" x="5" y="-95.7" font-family="Courier New" font-size="14.00">value</text>
</g>
<!-- Node_100 -->
<g id="node3" class="node">
<title>Node_100</title>
<polygon fill="#f2f2f2" stroke="none" points="179.5,-52 61.5,-52 61.5,0 179.5,0 179.5,-52"/>
<polygon fill="none" stroke="black" points="61.5,-26 61.5,-52 179.5,-52 179.5,-26 61.5,-26"/>
<text text-anchor="start" x="75.12" y="-34.7" font-family="Courier New" font-weight="bold" font-size="14.00">IntegerNode</text>
<polygon fill="none" stroke="black" points="61.5,0 61.5,-26 112.5,-26 112.5,0 61.5,0"/>
<text text-anchor="start" x="66.38" y="-7.7" font-family="Courier New" font-size="14.00">flags</text>
<polygon fill="none" stroke="black" points="112.5,0 112.5,-26 179.5,-26 179.5,0 112.5,0"/>
<text text-anchor="start" x="117.12" y="-7.7" font-family="Courier New" font-size="14.00">decimal</text>
</g>
<!-- Node_80&#45;&gt;Node_100 -->
<g id="edge3" class="edge">
<title>Node_80:value&#45;&gt;Node_100</title>
<path fill="none" stroke="black" d="M120.5,-88C120.5,-79.85 120.5,-71.08 120.5,-62.8"/>
<polygon fill="black" stroke="black" points="124,-62.93 120.5,-52.93 117,-62.93 124,-62.93"/>
</g>
<!-- Node_60_keywords&#45;&gt;Node_80 -->
<g id="edge2" class="edge">
<title>Node_60_keywords&#45;&gt;Node_80</title>
<path fill="none" stroke="black" d="M120.5,-227.56C120.5,-224.21 120.5,-214.41 120.5,-202.56"/>
<polygon fill="black" stroke="black" points="124,-202.72 120.5,-192.72 117,-202.72 124,-202.72"/>
</g>
</g>
</svg>
