<?xml version="1.0" encoding="UTF-8" standalone="no"?>
<!DOCTYPE svg PUBLIC "-//W3C//DTD SVG 1.1//EN"
 "http://www.w3.org/Graphics/SVG/1.1/DTD/svg11.dtd">
<!-- Generated by graphviz version 8.1.0 (20230707.0739)
 -->
<!-- Title: Prism Pages: 1 -->
<svg width="398pt" height="569pt"
 viewBox="0.00 0.00 397.50 568.50" xmlns="http://www.w3.org/2000/svg" xmlns:xlink="http://www.w3.org/1999/xlink">
<g id="graph0" class="graph" transform="scale(1 1) rotate(0) translate(4 564.5)">
<title>Prism</title>
<polygon fill="white" stroke="none" points="-4,4 -4,-564.5 393.5,-564.5 393.5,4 -4,4"/>
<!-- Node_60 -->
<g id="node1" class="node">
<title>Node_60</title>
<polygon fill="#f2f2f2" stroke="none" points="323.5,-560.5 73.5,-560.5 73.5,-430.5 323.5,-430.5 323.5,-560.5"/>
<polygon fill="none" stroke="black" points="73.5,-534.5 73.5,-560.5 323.5,-560.5 323.5,-534.5 73.5,-534.5"/>
<text text-anchor="start" x="161.38" y="-543.2" font-family="Courier New" font-weight="bold" font-size="14.00">BeginNode</text>
<polygon fill="none" stroke="black" points="73.5,-508.5 73.5,-534.5 223.5,-534.5 223.5,-508.5 73.5,-508.5"/>
<text text-anchor="start" x="78.38" y="-516.2" font-family="Courier New" font-size="14.00">begin_keyword_loc</text>
<polygon fill="none" stroke="black" points="223.5,-508.5 223.5,-534.5 323.5,-534.5 323.5,-508.5 223.5,-508.5"/>
<text text-anchor="start" x="228.12" y="-516.2" font-family="Courier New" font-size="14.00">(1,0)&#45;(1,5)</text>
<polygon fill="none" stroke="black" points="73.5,-482.5 73.5,-508.5 323.5,-508.5 323.5,-482.5 73.5,-482.5"/>
<text text-anchor="start" x="78.5" y="-490.2" font-family="Courier New" font-size="14.00">statements</text>
<polygon fill="none" stroke="black" points="73.5,-456.5 73.5,-482.5 323.5,-482.5 323.5,-456.5 73.5,-456.5"/>
<text text-anchor="start" x="78.5" y="-464.2" font-family="Courier New" font-size="14.00">rescue_clause</text>
<polygon fill="none" stroke="black" points="73.5,-430.5 73.5,-456.5 223.5,-456.5 223.5,-430.5 73.5,-430.5"/>
<text text-anchor="start" x="78.5" y="-438.2" font-family="Courier New" font-size="14.00">end_keyword_loc</text>
<polygon fill="none" stroke="black" points="223.5,-430.5 223.5,-456.5 323.5,-456.5 323.5,-430.5 223.5,-430.5"/>
<text text-anchor="start" x="228.12" y="-438.2" font-family="Courier New" font-size="14.00">(5,0)&#45;(5,3)</text>
</g>
<!-- Node_80 -->
<g id="node2" class="node">
<title>Node_80</title>
<polygon fill="#f2f2f2" stroke="none" points="171,-368.5 46,-368.5 46,-316.5 171,-316.5 171,-368.5"/>
<polygon fill="none" stroke="black" points="46,-342.5 46,-368.5 171,-368.5 171,-342.5 46,-342.5"/>
<text text-anchor="start" x="50.75" y="-351.2" font-family="Courier New" font-weight="bold" font-size="14.00">StatementsNode</text>
<polygon fill="none" stroke="black" points="46,-316.5 46,-342.5 171,-342.5 171,-316.5 46,-316.5"/>
<text text-anchor="start" x="51" y="-324.2" font-family="Courier New" font-size="14.00">body</text>
</g>
<!-- Node_60&#45;&gt;Node_80 -->
<g id="edge1" class="edge">
<title>Node_60:statements&#45;&gt;Node_80</title>
<path fill="none" stroke="black" d="M72.5,-495.5C24.37,-495.5 60.28,-422.44 86.83,-377.63"/>
<polygon fill="black" stroke="black" points="90.32,-379.63 92.49,-369.26 84.32,-376.01 90.32,-379.63"/>
</g>
<!-- Node_100 -->
<g id="node4" class="node">
<title>Node_100</title>
<polygon fill="#f2f2f2" stroke="none" points="389.5,-394.5 189.5,-394.5 189.5,-290.5 389.5,-290.5 389.5,-394.5"/>
<polygon fill="none" stroke="black" points="189.5,-368.5 189.5,-394.5 389.5,-394.5 389.5,-368.5 189.5,-368.5"/>
<text text-anchor="start" x="248.25" y="-377.2" font-family="Courier New" font-weight="bold" font-size="14.00">RescueNode</text>
<polygon fill="none" stroke="black" points="189.5,-342.5 189.5,-368.5 289.5,-368.5 289.5,-342.5 189.5,-342.5"/>
<text text-anchor="start" x="194.12" y="-350.2" font-family="Courier New" font-size="14.00">keyword_loc</text>
<polygon fill="none" stroke="black" points="289.5,-342.5 289.5,-368.5 389.5,-368.5 389.5,-342.5 289.5,-342.5"/>
<text text-anchor="start" x="294.12" y="-350.2" font-family="Courier New" font-size="14.00">(3,0)&#45;(3,6)</text>
<polygon fill="none" stroke="black" points="189.5,-316.5 189.5,-342.5 289.5,-342.5 289.5,-316.5 189.5,-316.5"/>
<text text-anchor="start" x="194.5" y="-324.2" font-family="Courier New" font-size="14.00">exceptions</text>
<polygon fill="none" stroke="black" points="289.5,-316.5 289.5,-342.5 389.5,-342.5 389.5,-316.5 289.5,-316.5"/>
<text text-anchor="start" x="331.25" y="-324.2" font-family="Courier New" font-size="14.00">[]</text>
<polygon fill="none" stroke="black" points="189.5,-290.5 189.5,-316.5 389.5,-316.5 389.5,-290.5 189.5,-290.5"/>
<text text-anchor="start" x="194.5" y="-298.2" font-family="Courier New" font-size="14.00">statements</text>
</g>
<!-- Node_60&#45;&gt;Node_100 -->
<g id="edge2" class="edge">
<title>Node_60:rescue_clause&#45;&gt;Node_100</title>
<path fill="none" stroke="black" d="M324.5,-469.5C354.36,-469.5 344.3,-436.24 327.46,-403.9"/>
<polygon fill="black" stroke="black" points="330.14,-402.51 322.31,-395.39 323.99,-405.85 330.14,-402.51"/>
</g>
<!-- Node_80_body -->
<g id="node7" class="node">
<title>Node_80_body</title>
<ellipse fill="#f2f2f2" stroke="black" cx="108.5" cy="-228.5" rx="1.8" ry="1.8"/>
</g>
<!-- Node_80&#45;&gt;Node_80_body -->
<g id="edge3" class="edge">
<title>Node_80:body&#45;&gt;Node_80_body</title>
<path fill="none" stroke="black" d="M108.5,-315.5C108.5,-289.11 108.5,-258.18 108.5,-241.54"/>
<polygon fill="black" stroke="black" points="112,-241.71 108.5,-231.71 105,-241.71 112,-241.71"/>
</g>
<!-- Node_120 -->
<g id="node3" class="node">
<title>Node_120</title>
<polygon fill="#f2f2f2" stroke="none" points="217,-166.5 0,-166.5 0,-62.5 217,-62.5 217,-166.5"/>
<polygon fill="none" stroke="black" points="0,-140.5 0,-166.5 217,-166.5 217,-140.5 0,-140.5"/>
<text text-anchor="start" x="75.5" y="-149.2" font-family="Courier New" font-weight="bold" font-size="14.00">CallNode</text>
<polygon fill="none" stroke="black" points="0,-114.5 0,-140.5 100,-140.5 100,-114.5 0,-114.5"/>
<text text-anchor="start" x="5" y="-122.2" font-family="Courier New" font-size="14.00">flags</text>
<polygon fill="none" stroke="black" points="100,-114.5 100,-140.5 217,-140.5 217,-114.5 100,-114.5"/>
<text text-anchor="start" x="104.88" y="-122.2" font-family="Courier New" font-size="14.00">variable_call</text>
<polygon fill="none" stroke="black" points="0,-88.5 0,-114.5 100,-114.5 100,-88.5 0,-88.5"/>
<text text-anchor="start" x="5" y="-96.2" font-family="Courier New" font-size="14.00">name</text>
<polygon fill="none" stroke="black" points="100,-88.5 100,-114.5 217,-114.5 217,-88.5 100,-88.5"/>
<text text-anchor="start" x="142" y="-96.2" font-family="Courier New" font-size="14.00">:foo</text>
<polygon fill="none" stroke="black" points="0,-62.5 0,-88.5 100,-88.5 100,-62.5 0,-62.5"/>
<text text-anchor="start" x="4.62" y="-70.2" font-family="Courier New" font-size="14.00">message_loc</text>
<polygon fill="none" stroke="black" points="100,-62.5 100,-88.5 217,-88.5 217,-62.5 100,-62.5"/>
<text text-anchor="start" x="113.12" y="-70.2" font-family="Courier New" font-size="14.00">(2,2)&#45;(2,5)</text>
</g>
<!-- Node_140 -->
<g id="node5" class="node">
<title>Node_140</title>
<polygon fill="#f2f2f2" stroke="none" points="352,-254.5 227,-254.5 227,-202.5 352,-202.5 352,-254.5"/>
<polygon fill="none" stroke="black" points="227,-228.5 227,-254.5 352,-254.5 352,-228.5 227,-228.5"/>
<text text-anchor="start" x="231.75" y="-237.2" font-family="Courier New" font-weight="bold" font-size="14.00">StatementsNode</text>
<polygon fill="none" stroke="black" points="227,-202.5 227,-228.5 352,-228.5 352,-202.5 227,-202.5"/>
<text text-anchor="start" x="232" y="-210.2" font-family="Courier New" font-size="14.00">body</text>
</g>
<!-- Node_100&#45;&gt;Node_140 -->
<g id="edge5" class="edge">
<title>Node_100:statements&#45;&gt;Node_140</title>
<path fill="none" stroke="black" d="M289.5,-290.5C289.5,-282.35 289.5,-273.58 289.5,-265.3"/>
<polygon fill="black" stroke="black" points="293,-265.43 289.5,-255.43 286,-265.43 293,-265.43"/>
</g>
<!-- Node_140_body -->
<g id="node8" class="node">
<title>Node_140_body</title>
<ellipse fill="#f2f2f2" stroke="black" cx="289.5" cy="-114.5" rx="1.8" ry="1.8"/>
</g>
<!-- Node_140&#45;&gt;Node_140_body -->
<g id="edge6" class="edge">
<title>Node_140:body&#45;&gt;Node_140_body</title>
<path fill="none" stroke="black" d="M289.5,-202.5C289.5,-175.81 289.5,-144.51 289.5,-127.68"/>
<polygon fill="black" stroke="black" points="293,-127.73 289.5,-117.73 286,-127.73 293,-127.73"/>
</g>
<!-- Node_160 -->
<g id="node6" class="node">
<title>Node_160</title>
<polygon fill="#f2f2f2" stroke="none" points="332.12,-26.5 246.88,-26.5 246.88,0 332.12,0 332.12,-26.5"/>
<polygon fill="none" stroke="black" points="246.88,0 246.88,-26.5 332.12,-26.5 332.12,0 246.88,0"/>
<text text-anchor="start" x="252.38" y="-9.2" font-family="Courier New" font-weight="bold" font-size="14.00">RetryNode</text>
</g>
<!-- Node_80_body&#45;&gt;Node_120 -->
<g id="edge4" class="edge">
<title>Node_80_body&#45;&gt;Node_120</title>
<path fill="none" stroke="black" d="M108.5,-226.24C108.5,-220.93 108.5,-199.57 108.5,-177.01"/>
<polygon fill="black" stroke="black" points="112,-177.26 108.5,-167.26 105,-177.26 112,-177.26"/>
</g>
<!-- Node_140_body&#45;&gt;Node_160 -->
<g id="edge7" class="edge">
<title>Node_140_body&#45;&gt;Node_160</title>
<path fill="none" stroke="black" d="M289.5,-112.39C289.5,-105.08 289.5,-63.47 289.5,-36.83"/>
<polygon fill="black" stroke="black" points="293,-37.15 289.5,-27.15 286,-37.15 293,-37.15"/>
</g>
</g>
</svg>
