<?xml version="1.0" encoding="UTF-8" standalone="no"?>
<!DOCTYPE svg PUBLIC "-//W3C//DTD SVG 1.1//EN"
 "http://www.w3.org/Graphics/SVG/1.1/DTD/svg11.dtd">
<!-- Generated by graphviz version 8.1.0 (20230707.0739)
 -->
<!-- Title: Prism Pages: 1 -->
<svg width="404pt" height="340pt"
 viewBox="0.00 0.00 404.00 340.00" xmlns="http://www.w3.org/2000/svg" xmlns:xlink="http://www.w3.org/1999/xlink">
<g id="graph0" class="graph" transform="scale(1 1) rotate(0) translate(4 336)">
<title>Prism</title>
<polygon fill="white" stroke="none" points="-4,4 -4,-336 400,-336 400,4 -4,4"/>
<!-- Node_60 -->
<g id="node1" class="node">
<title>Node_60</title>
<polygon fill="#f2f2f2" stroke="none" points="353,-332 135,-332 135,-228 353,-228 353,-332"/>
<polygon fill="none" stroke="black" points="135,-306 135,-332 353,-332 353,-306 135,-306"/>
<text text-anchor="start" x="157.38" y="-314.7" font-family="Courier New" font-weight="bold" font-size="14.00">ConstantPathWriteNode</text>
<polygon fill="none" stroke="black" points="135,-280 135,-306 353,-306 353,-280 135,-280"/>
<text text-anchor="start" x="140" y="-287.7" font-family="Courier New" font-size="14.00">target</text>
<polygon fill="none" stroke="black" points="135,-254 135,-280 244,-280 244,-254 135,-254"/>
<text text-anchor="start" x="140" y="-261.7" font-family="Courier New" font-size="14.00">operator_loc</text>
<polygon fill="none" stroke="black" points="244,-254 244,-280 353,-280 353,-254 244,-254"/>
<text text-anchor="start" x="249" y="-261.7" font-family="Courier New" font-size="14.00">(1,9)&#45;(1,10)</text>
<polygon fill="none" stroke="black" points="135,-228 135,-254 353,-254 353,-228 135,-228"/>
<text text-anchor="start" x="140" y="-235.7" font-family="Courier New" font-size="14.00">value</text>
</g>
<!-- Node_80 -->
<g id="node2" class="node">
<title>Node_80</title>
<polygon fill="#f2f2f2" stroke="none" points="259.5,-192 42.5,-192 42.5,-88 259.5,-88 259.5,-192"/>
<polygon fill="none" stroke="black" points="42.5,-166 42.5,-192 259.5,-192 259.5,-166 42.5,-166"/>
<text text-anchor="start" x="85" y="-174.7" font-family="Courier New" font-weight="bold" font-size="14.00">ConstantPathNode</text>
<polygon fill="none" stroke="black" points="42.5,-140 42.5,-166 259.5,-166 259.5,-140 42.5,-140"/>
<text text-anchor="start" x="47.5" y="-147.7" font-family="Courier New" font-size="14.00">parent</text>
<polygon fill="none" stroke="black" points="42.5,-114 42.5,-140 259.5,-140 259.5,-114 42.5,-114"/>
<text text-anchor="start" x="47.5" y="-121.7" font-family="Courier New" font-size="14.00">child</text>
<polygon fill="none" stroke="black" points="42.5,-88 42.5,-114 159.5,-114 159.5,-88 42.5,-88"/>
<text text-anchor="start" x="47.38" y="-95.7" font-family="Courier New" font-size="14.00">delimiter_loc</text>
<polygon fill="none" stroke="black" points="159.5,-88 159.5,-114 259.5,-114 259.5,-88 159.5,-88"/>
<text text-anchor="start" x="164.12" y="-95.7" font-family="Courier New" font-size="14.00">(1,3)&#45;(1,5)</text>
</g>
<!-- Node_60&#45;&gt;Node_80 -->
<g id="edge1" class="edge">
<title>Node_60:target&#45;&gt;Node_80</title>
<path fill="none" stroke="black" d="M134,-293C95.41,-293 106.12,-244 122.59,-201.64"/>
<polygon fill="black" stroke="black" points="126.14,-203.2 126.64,-192.61 119.65,-200.58 126.14,-203.2"/>
</g>
<!-- Node_100 -->
<g id="node5" class="node">
<title>Node_100</title>
<polygon fill="#f2f2f2" stroke="none" points="396,-166 278,-166 278,-114 396,-114 396,-166"/>
<polygon fill="none" stroke="black" points="278,-140 278,-166 396,-166 396,-140 278,-140"/>
<text text-anchor="start" x="291.62" y="-148.7" font-family="Courier New" font-weight="bold" font-size="14.00">IntegerNode</text>
<polygon fill="none" stroke="black" points="278,-114 278,-140 329,-140 329,-114 278,-114"/>
<text text-anchor="start" x="282.88" y="-121.7" font-family="Courier New" font-size="14.00">flags</text>
<polygon fill="none" stroke="black" points="329,-114 329,-140 396,-140 396,-114 329,-114"/>
<text text-anchor="start" x="333.62" y="-121.7" font-family="Courier New" font-size="14.00">decimal</text>
</g>
<!-- Node_60&#45;&gt;Node_100 -->
<g id="edge2" class="edge">
<title>Node_60:value&#45;&gt;Node_100</title>
<path fill="none" stroke="black" d="M354,-241C381.17,-241 369.41,-204.67 355.78,-175.8"/>
<polygon fill="black" stroke="black" points="358.5,-174.4 350.94,-166.98 352.22,-177.49 358.5,-174.4"/>
</g>
<!-- Node_120 -->
<g id="node3" class="node">
<title>Node_120</title>
<polygon fill="#f2f2f2" stroke="none" points="142,-52 0,-52 0,0 142,0 142,-52"/>
<polygon fill="none" stroke="black" points="0,-26 0,-52 142,-52 142,-26 0,-26"/>
<text text-anchor="start" x="5" y="-34.7" font-family="Courier New" font-weight="bold" font-size="14.00">ConstantReadNode</text>
<polygon fill="none" stroke="black" points="0,0 0,-26 71,-26 71,0 0,0"/>
<text text-anchor="start" x="5" y="-7.7" font-family="Courier New" font-size="14.00">name</text>
<polygon fill="none" stroke="black" points="71,0 71,-26 142,-26 142,0 71,0"/>
<text text-anchor="start" x="90" y="-7.7" font-family="Courier New" font-size="14.00">:Foo</text>
</g>
<!-- Node_80&#45;&gt;Node_120 -->
<g id="edge3" class="edge">
<title>Node_80:parent&#45;&gt;Node_120</title>
<path fill="none" stroke="black" d="M41,-153C3.06,-153 28.16,-98.28 49.68,-60.96"/>
<polygon fill="black" stroke="black" points="52.96,-63.28 55.03,-52.89 46.94,-59.73 52.96,-63.28"/>
</g>
<!-- Node_140 -->
<g id="node4" class="node">
<title>Node_140</title>
<polygon fill="#f2f2f2" stroke="none" points="302,-52 160,-52 160,0 302,0 302,-52"/>
<polygon fill="none" stroke="black" points="160,-26 160,-52 302,-52 302,-26 160,-26"/>
<text text-anchor="start" x="165" y="-34.7" font-family="Courier New" font-weight="bold" font-size="14.00">ConstantReadNode</text>
<polygon fill="none" stroke="black" points="160,0 160,-26 231,-26 231,0 160,0"/>
<text text-anchor="start" x="165" y="-7.7" font-family="Courier New" font-size="14.00">name</text>
<polygon fill="none" stroke="black" points="231,0 231,-26 302,-26 302,0 231,0"/>
<text text-anchor="start" x="250" y="-7.7" font-family="Courier New" font-size="14.00">:Bar</text>
</g>
<!-- Node_80&#45;&gt;Node_140 -->
<g id="edge4" class="edge">
<title>Node_80:child&#45;&gt;Node_140</title>
<path fill="none" stroke="black" d="M261,-127C269.67,-127 262.02,-96.43 260,-88 257.89,-79.16 254.4,-70.09 250.55,-61.72"/>
<polygon fill="black" stroke="black" points="253.31,-60.39 245.76,-52.94 247.02,-63.46 253.31,-60.39"/>
</g>
</g>
</svg>
