<?xml version="1.0" encoding="UTF-8" standalone="no"?>
<!DOCTYPE svg PUBLIC "-//W3C//DTD SVG 1.1//EN"
 "http://www.w3.org/Graphics/SVG/1.1/DTD/svg11.dtd">
<!-- Generated by graphviz version 8.1.0 (20230707.0739)
 -->
<!-- Title: Prism Pages: 1 -->
<svg width="228pt" height="406pt"
 viewBox="0.00 0.00 228.27 406.10" xmlns="http://www.w3.org/2000/svg" xmlns:xlink="http://www.w3.org/1999/xlink">
<g id="graph0" class="graph" transform="scale(1 1) rotate(0) translate(4 402.1)">
<title>Prism</title>
<polygon fill="white" stroke="none" points="-4,4 -4,-402.1 224.27,-402.1 224.27,4 -4,4"/>
<!-- Node_60 -->
<g id="node1" class="node">
<title>Node_60</title>
<polygon fill="#f2f2f2" stroke="none" points="209,-398.1 0,-398.1 0,-216.1 209,-216.1 209,-398.1"/>
<polygon fill="none" stroke="black" points="0,-372.1 0,-398.1 209,-398.1 209,-372.1 0,-372.1"/>
<text text-anchor="start" x="71.5" y="-380.8" font-family="Courier New" font-weight="bold" font-size="14.00">CallNode</text>
<polygon fill="none" stroke="black" points="0,-346.1 0,-372.1 100,-372.1 100,-346.1 0,-346.1"/>
<text text-anchor="start" x="5" y="-353.8" font-family="Courier New" font-size="14.00">flags</text>
<polygon fill="none" stroke="black" points="100,-346.1 100,-372.1 209,-372.1 209,-346.1 100,-346.1"/>
<polygon fill="none" stroke="black" points="0,-320.1 0,-346.1 100,-346.1 100,-320.1 0,-320.1"/>
<text text-anchor="start" x="5" y="-327.8" font-family="Courier New" font-size="14.00">name</text>
<polygon fill="none" stroke="black" points="100,-320.1 100,-346.1 209,-346.1 209,-320.1 100,-320.1"/>
<text text-anchor="start" x="138" y="-327.8" font-family="Courier New" font-size="14.00">:bar</text>
<polygon fill="none" stroke="black" points="0,-294.1 0,-320.1 100,-320.1 100,-294.1 0,-294.1"/>
<text text-anchor="start" x="4.62" y="-301.8" font-family="Courier New" font-size="14.00">message_loc</text>
<polygon fill="none" stroke="black" points="100,-294.1 100,-320.1 209,-320.1 209,-294.1 100,-294.1"/>
<text text-anchor="start" x="109.12" y="-301.8" font-family="Courier New" font-size="14.00">(2,2)&#45;(2,5)</text>
<polygon fill="none" stroke="black" points="0,-268.1 0,-294.1 100,-294.1 100,-268.1 0,-268.1"/>
<text text-anchor="start" x="4.62" y="-275.8" font-family="Courier New" font-size="14.00">opening_loc</text>
<polygon fill="none" stroke="black" points="100,-268.1 100,-294.1 209,-294.1 209,-268.1 100,-268.1"/>
<text text-anchor="start" x="109.12" y="-275.8" font-family="Courier New" font-size="14.00">(2,5)&#45;(2,6)</text>
<polygon fill="none" stroke="black" points="0,-242.1 0,-268.1 209,-268.1 209,-242.1 0,-242.1"/>
<text text-anchor="start" x="5" y="-249.8" font-family="Courier New" font-size="14.00">arguments</text>
<polygon fill="none" stroke="black" points="0,-216.1 0,-242.1 100,-242.1 100,-216.1 0,-216.1"/>
<text text-anchor="start" x="4.62" y="-223.8" font-family="Courier New" font-size="14.00">closing_loc</text>
<polygon fill="none" stroke="black" points="100,-216.1 100,-242.1 209,-242.1 209,-216.1 100,-216.1"/>
<text text-anchor="start" x="105" y="-223.8" font-family="Courier New" font-size="14.00">(2,9)&#45;(2,10)</text>
</g>
<!-- Node_80 -->
<g id="node2" class="node">
<title>Node_80</title>
<polygon fill="#f2f2f2" stroke="none" points="163,-180.1 46,-180.1 46,-102.1 163,-102.1 163,-180.1"/>
<polygon fill="none" stroke="black" points="46,-154.1 46,-180.1 163,-180.1 163,-154.1 46,-154.1"/>
<text text-anchor="start" x="50.88" y="-162.8" font-family="Courier New" font-weight="bold" font-size="14.00">ArgumentsNode</text>
<polygon fill="none" stroke="black" points="46,-128.1 46,-154.1 125,-154.1 125,-128.1 46,-128.1"/>
<text text-anchor="start" x="51" y="-135.8" font-family="Courier New" font-size="14.00">flags</text>
<polygon fill="none" stroke="black" points="125,-128.1 125,-154.1 163,-154.1 163,-128.1 125,-128.1"/>
<polygon fill="none" stroke="black" points="46,-102.1 46,-128.1 163,-128.1 163,-102.1 46,-102.1"/>
<text text-anchor="start" x="51" y="-109.8" font-family="Courier New" font-size="14.00">arguments</text>
</g>
<!-- Node_60&#45;&gt;Node_80 -->
<g id="edge1" class="edge">
<title>Node_60:arguments&#45;&gt;Node_80</title>
<path fill="none" stroke="black" d="M210.5,-255.1C227.84,-255.1 217.68,-231.39 209.5,-216.1 200.79,-199.83 186.74,-186.34 171.71,-175.54"/>
<polygon fill="black" stroke="black" points="174.03,-172.2 163.78,-169.49 170.1,-178 174.03,-172.2"/>
</g>
<!-- Node_80_arguments -->
<g id="node4" class="node">
<title>Node_80_arguments</title>
<ellipse fill="#f2f2f2" stroke="black" cx="104.5" cy="-64.3" rx="1.8" ry="1.8"/>
</g>
<!-- Node_80&#45;&gt;Node_80_arguments -->
<g id="edge2" class="edge">
<title>Node_80:arguments&#45;&gt;Node_80_arguments</title>
<path fill="none" stroke="black" d="M104.5,-102.1C104.5,-93.86 104.5,-84.59 104.5,-77.41"/>
<polygon fill="black" stroke="black" points="108,-77.44 104.5,-67.44 101,-77.44 108,-77.44"/>
</g>
<!-- Node_100 -->
<g id="node3" class="node">
<title>Node_100</title>
<polygon fill="#f2f2f2" stroke="none" points="204.88,-26.5 4.12,-26.5 4.12,0 204.88,0 204.88,-26.5"/>
<polygon fill="none" stroke="black" points="4.12,0 4.12,-26.5 204.88,-26.5 204.88,0 4.12,0"/>
<text text-anchor="start" x="9.62" y="-9.2" font-family="Courier New" font-weight="bold" font-size="14.00">ForwardingArgumentsNode</text>
</g>
<!-- Node_80_arguments&#45;&gt;Node_100 -->
<g id="edge3" class="edge">
<title>Node_80_arguments&#45;&gt;Node_100</title>
<path fill="none" stroke="black" d="M104.5,-62.09C104.5,-58.53 104.5,-47.74 104.5,-37.3"/>
<polygon fill="black" stroke="black" points="108,-37.47 104.5,-27.47 101,-37.47 108,-37.47"/>
</g>
</g>
</svg>
