<?xml version="1.0" encoding="UTF-8" standalone="no"?>
<!DOCTYPE svg PUBLIC "-//W3C//DTD SVG 1.1//EN"
 "http://www.w3.org/Graphics/SVG/1.1/DTD/svg11.dtd">
<!-- Generated by graphviz version 8.1.0 (20230707.0739)
 -->
<!-- Title: Prism Pages: 1 -->
<svg width="442pt" height="252pt"
 viewBox="0.00 0.00 442.00 252.00" xmlns="http://www.w3.org/2000/svg" xmlns:xlink="http://www.w3.org/1999/xlink">
<g id="graph0" class="graph" transform="scale(1 1) rotate(0) translate(4 248)">
<title>Prism</title>
<polygon fill="white" stroke="none" points="-4,4 -4,-248 438,-248 438,4 -4,4"/>
<!-- Node_60 -->
<g id="node1" class="node">
<title>Node_60</title>
<polygon fill="#f2f2f2" stroke="none" points="326,-244 117,-244 117,-140 326,-140 326,-244"/>
<polygon fill="none" stroke="black" points="117,-218 117,-244 326,-244 326,-218 117,-218"/>
<text text-anchor="start" x="147.25" y="-226.7" font-family="Courier New" font-weight="bold" font-size="14.00">MatchPredicateNode</text>
<polygon fill="none" stroke="black" points="117,-192 117,-218 326,-218 326,-192 117,-192"/>
<text text-anchor="start" x="122" y="-199.7" font-family="Courier New" font-size="14.00">value</text>
<polygon fill="none" stroke="black" points="117,-166 117,-192 326,-192 326,-166 117,-166"/>
<text text-anchor="start" x="122" y="-173.7" font-family="Courier New" font-size="14.00">pattern</text>
<polygon fill="none" stroke="black" points="117,-140 117,-166 226,-166 226,-140 117,-140"/>
<text text-anchor="start" x="122" y="-147.7" font-family="Courier New" font-size="14.00">operator_loc</text>
<polygon fill="none" stroke="black" points="226,-140 226,-166 326,-166 326,-140 226,-140"/>
<text text-anchor="start" x="230.62" y="-147.7" font-family="Courier New" font-size="14.00">(1,4)&#45;(1,6)</text>
</g>
<!-- Node_80 -->
<g id="node2" class="node">
<title>Node_80</title>
<polygon fill="#f2f2f2" stroke="none" points="217,-104 0,-104 0,0 217,0 217,-104"/>
<polygon fill="none" stroke="black" points="0,-78 0,-104 217,-104 217,-78 0,-78"/>
<text text-anchor="start" x="75.5" y="-86.7" font-family="Courier New" font-weight="bold" font-size="14.00">CallNode</text>
<polygon fill="none" stroke="black" points="0,-52 0,-78 100,-78 100,-52 0,-52"/>
<text text-anchor="start" x="5" y="-59.7" font-family="Courier New" font-size="14.00">flags</text>
<polygon fill="none" stroke="black" points="100,-52 100,-78 217,-78 217,-52 100,-52"/>
<text text-anchor="start" x="104.88" y="-59.7" font-family="Courier New" font-size="14.00">variable_call</text>
<polygon fill="none" stroke="black" points="0,-26 0,-52 100,-52 100,-26 0,-26"/>
<text text-anchor="start" x="5" y="-33.7" font-family="Courier New" font-size="14.00">name</text>
<polygon fill="none" stroke="black" points="100,-26 100,-52 217,-52 217,-26 100,-26"/>
<text text-anchor="start" x="142" y="-33.7" font-family="Courier New" font-size="14.00">:foo</text>
<polygon fill="none" stroke="black" points="0,0 0,-26 100,-26 100,0 0,0"/>
<text text-anchor="start" x="4.62" y="-7.7" font-family="Courier New" font-size="14.00">message_loc</text>
<polygon fill="none" stroke="black" points="100,0 100,-26 217,-26 217,0 100,0"/>
<text text-anchor="start" x="113.12" y="-7.7" font-family="Courier New" font-size="14.00">(1,0)&#45;(1,3)</text>
</g>
<!-- Node_60&#45;&gt;Node_80 -->
<g id="edge1" class="edge">
<title>Node_60:value&#45;&gt;Node_80</title>
<path fill="none" stroke="black" d="M115.5,-205C77.27,-205 80.03,-156.41 89.65,-114.18"/>
<polygon fill="black" stroke="black" points="93.26,-115.16 92.22,-104.61 86.46,-113.5 93.26,-115.16"/>
</g>
<!-- Node_100 -->
<g id="node3" class="node">
<title>Node_100</title>
<polygon fill="#f2f2f2" stroke="none" points="434,-91 235,-91 235,-13 434,-13 434,-91"/>
<polygon fill="none" stroke="black" points="235,-65 235,-91 434,-91 434,-65 235,-65"/>
<text text-anchor="start" x="239.62" y="-73.7" font-family="Courier New" font-weight="bold" font-size="14.00">LocalVariableTargetNode</text>
<polygon fill="none" stroke="black" points="235,-39 235,-65 338,-65 338,-39 235,-39"/>
<text text-anchor="start" x="240" y="-46.7" font-family="Courier New" font-size="14.00">name</text>
<polygon fill="none" stroke="black" points="338,-39 338,-65 434,-65 434,-39 338,-39"/>
<text text-anchor="start" x="369.5" y="-46.7" font-family="Courier New" font-size="14.00">:bar</text>
<polygon fill="none" stroke="black" points="235,-13 235,-39 338,-39 338,-13 235,-13"/>
<text text-anchor="start" x="240" y="-20.7" font-family="Courier New" font-size="14.00">depth</text>
<polygon fill="none" stroke="black" points="338,-13 338,-39 434,-39 434,-13 338,-13"/>
<text text-anchor="start" x="381.88" y="-20.7" font-family="Courier New" font-size="14.00">0</text>
</g>
<!-- Node_60&#45;&gt;Node_100 -->
<g id="edge2" class="edge">
<title>Node_60:pattern&#45;&gt;Node_100</title>
<path fill="none" stroke="black" d="M327.5,-179C360,-179 357.18,-136.68 349.07,-101.1"/>
<polygon fill="black" stroke="black" points="352.32,-100.68 346.54,-91.8 345.53,-102.35 352.32,-100.68"/>
</g>
</g>
</svg>
