<?xml version="1.0" encoding="UTF-8" standalone="no"?>
<!DOCTYPE svg PUBLIC "-//W3C//DTD SVG 1.1//EN"
 "http://www.w3.org/Graphics/SVG/1.1/DTD/svg11.dtd">
<!-- Generated by graphviz version 8.1.0 (20230707.0739)
 -->
<!-- Title: Prism Pages: 1 -->
<svg width="770pt" height="1362pt"
 viewBox="0.00 0.00 769.50 1362.00" xmlns="http://www.w3.org/2000/svg" xmlns:xlink="http://www.w3.org/1999/xlink">
<g id="graph0" class="graph" transform="scale(1 1) rotate(0) translate(4 1358)">
<title>Prism</title>
<polygon fill="white" stroke="none" points="-4,4 -4,-1358 765.5,-1358 765.5,4 -4,4"/>
<!-- Node_60 -->
<g id="node1" class="node">
<title>Node_60</title>
<polygon fill="#f2f2f2" stroke="none" points="477.5,-1354 235.5,-1354 235.5,-1198 477.5,-1198 477.5,-1354"/>
<polygon fill="none" stroke="black" points="235.5,-1328 235.5,-1354 477.5,-1354 477.5,-1328 235.5,-1328"/>
<text text-anchor="start" x="302.88" y="-1336.7" font-family="Courier New" font-weight="bold" font-size="14.00">CaseMatchNode</text>
<polygon fill="none" stroke="black" points="235.5,-1302 235.5,-1328 477.5,-1328 477.5,-1302 235.5,-1302"/>
<text text-anchor="start" x="240.5" y="-1309.7" font-family="Courier New" font-size="14.00">predicate</text>
<polygon fill="none" stroke="black" points="235.5,-1276 235.5,-1302 477.5,-1302 477.5,-1276 235.5,-1276"/>
<text text-anchor="start" x="240.5" y="-1283.7" font-family="Courier New" font-size="14.00">conditions</text>
<polygon fill="none" stroke="black" points="235.5,-1250 235.5,-1276 477.5,-1276 477.5,-1250 235.5,-1250"/>
<text text-anchor="start" x="240.5" y="-1257.7" font-family="Courier New" font-size="14.00">consequent</text>
<polygon fill="none" stroke="black" points="235.5,-1224 235.5,-1250 377.5,-1250 377.5,-1224 235.5,-1224"/>
<text text-anchor="start" x="240.5" y="-1231.7" font-family="Courier New" font-size="14.00">case_keyword_loc</text>
<polygon fill="none" stroke="black" points="377.5,-1224 377.5,-1250 477.5,-1250 477.5,-1224 377.5,-1224"/>
<text text-anchor="start" x="382.12" y="-1231.7" font-family="Courier New" font-size="14.00">(1,0)&#45;(1,4)</text>
<polygon fill="none" stroke="black" points="235.5,-1198 235.5,-1224 377.5,-1224 377.5,-1198 235.5,-1198"/>
<text text-anchor="start" x="240.5" y="-1205.7" font-family="Courier New" font-size="14.00">end_keyword_loc</text>
<polygon fill="none" stroke="black" points="377.5,-1198 377.5,-1224 477.5,-1224 477.5,-1198 377.5,-1198"/>
<text text-anchor="start" x="382.12" y="-1205.7" font-family="Courier New" font-size="14.00">(6,0)&#45;(6,3)</text>
</g>
<!-- Node_80 -->
<g id="node2" class="node">
<title>Node_80</title>
<polygon fill="#f2f2f2" stroke="none" points="217,-1162 0,-1162 0,-1058 217,-1058 217,-1162"/>
<polygon fill="none" stroke="black" points="0,-1136 0,-1162 217,-1162 217,-1136 0,-1136"/>
<text text-anchor="start" x="75.5" y="-1144.7" font-family="Courier New" font-weight="bold" font-size="14.00">CallNode</text>
<polygon fill="none" stroke="black" points="0,-1110 0,-1136 100,-1136 100,-1110 0,-1110"/>
<text text-anchor="start" x="5" y="-1117.7" font-family="Courier New" font-size="14.00">flags</text>
<polygon fill="none" stroke="black" points="100,-1110 100,-1136 217,-1136 217,-1110 100,-1110"/>
<text text-anchor="start" x="104.88" y="-1117.7" font-family="Courier New" font-size="14.00">variable_call</text>
<polygon fill="none" stroke="black" points="0,-1084 0,-1110 100,-1110 100,-1084 0,-1084"/>
<text text-anchor="start" x="5" y="-1091.7" font-family="Courier New" font-size="14.00">name</text>
<polygon fill="none" stroke="black" points="100,-1084 100,-1110 217,-1110 217,-1084 100,-1084"/>
<text text-anchor="start" x="142" y="-1091.7" font-family="Courier New" font-size="14.00">:foo</text>
<polygon fill="none" stroke="black" points="0,-1058 0,-1084 100,-1084 100,-1058 0,-1058"/>
<text text-anchor="start" x="4.62" y="-1065.7" font-family="Courier New" font-size="14.00">message_loc</text>
<polygon fill="none" stroke="black" points="100,-1058 100,-1084 217,-1084 217,-1058 100,-1058"/>
<text text-anchor="start" x="113.12" y="-1065.7" font-family="Courier New" font-size="14.00">(1,5)&#45;(1,8)</text>
</g>
<!-- Node_60&#45;&gt;Node_80 -->
<g id="edge1" class="edge">
<title>Node_60:predicate&#45;&gt;Node_80</title>
<path fill="none" stroke="black" d="M234.5,-1315C166.76,-1315 134.23,-1232.57 119.51,-1172.51"/>
<polygon fill="black" stroke="black" points="122.73,-1171.9 117.05,-1162.95 115.91,-1173.49 122.73,-1171.9"/>
</g>
<!-- Node_120 -->
<g id="node9" class="node">
<title>Node_120</title>
<polygon fill="#f2f2f2" stroke="none" points="477.5,-1162 235.5,-1162 235.5,-1058 477.5,-1058 477.5,-1162"/>
<polygon fill="none" stroke="black" points="235.5,-1136 235.5,-1162 477.5,-1162 477.5,-1136 235.5,-1136"/>
<text text-anchor="start" x="323.5" y="-1144.7" font-family="Courier New" font-weight="bold" font-size="14.00">ElseNode</text>
<polygon fill="none" stroke="black" points="235.5,-1110 235.5,-1136 377.5,-1136 377.5,-1110 235.5,-1110"/>
<text text-anchor="start" x="240.5" y="-1117.7" font-family="Courier New" font-size="14.00">else_keyword_loc</text>
<polygon fill="none" stroke="black" points="377.5,-1110 377.5,-1136 477.5,-1136 477.5,-1110 377.5,-1110"/>
<text text-anchor="start" x="382.12" y="-1117.7" font-family="Courier New" font-size="14.00">(4,0)&#45;(4,4)</text>
<polygon fill="none" stroke="black" points="235.5,-1084 235.5,-1110 477.5,-1110 477.5,-1084 235.5,-1084"/>
<text text-anchor="start" x="240.5" y="-1091.7" font-family="Courier New" font-size="14.00">statements</text>
<polygon fill="none" stroke="black" points="235.5,-1058 235.5,-1084 377.5,-1084 377.5,-1058 235.5,-1058"/>
<text text-anchor="start" x="240.5" y="-1065.7" font-family="Courier New" font-size="14.00">end_keyword_loc</text>
<polygon fill="none" stroke="black" points="377.5,-1058 377.5,-1084 477.5,-1084 477.5,-1058 377.5,-1058"/>
<text text-anchor="start" x="382.12" y="-1065.7" font-family="Courier New" font-size="14.00">(6,0)&#45;(6,3)</text>
</g>
<!-- Node_60&#45;&gt;Node_120 -->
<g id="edge4" class="edge">
<title>Node_60:consequent&#45;&gt;Node_120</title>
<path fill="none" stroke="black" d="M478.5,-1263C507.39,-1263 490.88,-1223.61 477.5,-1198 472.04,-1187.55 464.7,-1178.07 456.31,-1169.54"/>
<polygon fill="black" stroke="black" points="458.99,-1167.31 449.33,-1162.97 454.17,-1172.39 458.99,-1167.31"/>
</g>
<!-- Node_60_conditions -->
<g id="node14" class="node">
<title>Node_60_conditions</title>
<ellipse fill="#f2f2f2" stroke="black" cx="506.5" cy="-1110" rx="1.8" ry="1.8"/>
</g>
<!-- Node_60&#45;&gt;Node_60_conditions -->
<g id="edge2" class="edge">
<title>Node_60:conditions&#45;&gt;Node_60_conditions</title>
<path fill="none" stroke="black" d="M478.5,-1289C546.03,-1289 519.58,-1162.42 509.63,-1122.74"/>
<polygon fill="black" stroke="black" points="512.76,-1121.91 506.82,-1113.14 506,-1123.7 512.76,-1121.91"/>
</g>
<!-- Node_100 -->
<g id="node3" class="node">
<title>Node_100</title>
<polygon fill="#f2f2f2" stroke="none" points="591,-1022 432,-1022 432,-918 591,-918 591,-1022"/>
<polygon fill="none" stroke="black" points="432,-996 432,-1022 591,-1022 591,-996 432,-996"/>
<text text-anchor="start" x="486.75" y="-1004.7" font-family="Courier New" font-weight="bold" font-size="14.00">InNode</text>
<polygon fill="none" stroke="black" points="432,-970 432,-996 591,-996 591,-970 432,-970"/>
<text text-anchor="start" x="437" y="-977.7" font-family="Courier New" font-size="14.00">pattern</text>
<polygon fill="none" stroke="black" points="432,-944 432,-970 591,-970 591,-944 432,-944"/>
<text text-anchor="start" x="437" y="-951.7" font-family="Courier New" font-size="14.00">statements</text>
<polygon fill="none" stroke="black" points="432,-918 432,-944 491,-944 491,-918 432,-918"/>
<text text-anchor="start" x="436.75" y="-925.7" font-family="Courier New" font-size="14.00">in_loc</text>
<polygon fill="none" stroke="black" points="491,-918 491,-944 591,-944 591,-918 491,-918"/>
<text text-anchor="start" x="495.62" y="-925.7" font-family="Courier New" font-size="14.00">(2,0)&#45;(2,2)</text>
</g>
<!-- Node_140 -->
<g id="node4" class="node">
<title>Node_140</title>
<polygon fill="#f2f2f2" stroke="none" points="547.5,-882 405.5,-882 405.5,-830 547.5,-830 547.5,-882"/>
<polygon fill="none" stroke="black" points="405.5,-856 405.5,-882 547.5,-882 547.5,-856 405.5,-856"/>
<text text-anchor="start" x="410.5" y="-864.7" font-family="Courier New" font-weight="bold" font-size="14.00">ConstantReadNode</text>
<polygon fill="none" stroke="black" points="405.5,-830 405.5,-856 459.5,-856 459.5,-830 405.5,-830"/>
<text text-anchor="start" x="410.5" y="-837.7" font-family="Courier New" font-size="14.00">name</text>
<polygon fill="none" stroke="black" points="459.5,-830 459.5,-856 547.5,-856 547.5,-830 459.5,-830"/>
<text text-anchor="start" x="470.5" y="-837.7" font-family="Courier New" font-size="14.00">:Integer</text>
</g>
<!-- Node_100&#45;&gt;Node_140 -->
<g id="edge5" class="edge">
<title>Node_100:pattern&#45;&gt;Node_140</title>
<path fill="none" stroke="black" d="M430.5,-983C416.05,-983 426.88,-931.69 431.5,-918 434.74,-908.39 440.12,-899.03 446.04,-890.65"/>
<polygon fill="black" stroke="black" points="449.37,-893.05 452.61,-882.97 443.79,-888.83 449.37,-893.05"/>
</g>
<!-- Node_160 -->
<g id="node5" class="node">
<title>Node_160</title>
<polygon fill="#f2f2f2" stroke="none" points="691,-882 566,-882 566,-830 691,-830 691,-882"/>
<polygon fill="none" stroke="black" points="566,-856 566,-882 691,-882 691,-856 566,-856"/>
<text text-anchor="start" x="570.75" y="-864.7" font-family="Courier New" font-weight="bold" font-size="14.00">StatementsNode</text>
<polygon fill="none" stroke="black" points="566,-830 566,-856 691,-856 691,-830 566,-830"/>
<text text-anchor="start" x="571" y="-837.7" font-family="Courier New" font-size="14.00">body</text>
</g>
<!-- Node_100&#45;&gt;Node_160 -->
<g id="edge6" class="edge">
<title>Node_100:statements&#45;&gt;Node_160</title>
<path fill="none" stroke="black" d="M592.5,-957C620.6,-957 628.01,-921.61 629.4,-892.94"/>
<polygon fill="black" stroke="black" points="632.92,-893.06 629.67,-882.98 625.92,-892.89 632.92,-893.06"/>
</g>
<!-- Node_160_body -->
<g id="node15" class="node">
<title>Node_160_body</title>
<ellipse fill="#f2f2f2" stroke="black" cx="628.5" cy="-729" rx="1.8" ry="1.8"/>
</g>
<!-- Node_160&#45;&gt;Node_160_body -->
<g id="edge7" class="edge">
<title>Node_160:body&#45;&gt;Node_160_body</title>
<path fill="none" stroke="black" d="M628.5,-830C628.5,-798.15 628.5,-760.6 628.5,-741.87"/>
<polygon fill="black" stroke="black" points="632,-741.99 628.5,-731.99 625,-741.99 632,-741.99"/>
</g>
<!-- Node_180 -->
<g id="node6" class="node">
<title>Node_180</title>
<polygon fill="#f2f2f2" stroke="none" points="728.5,-628 528.5,-628 528.5,-498 728.5,-498 728.5,-628"/>
<polygon fill="none" stroke="black" points="528.5,-602 528.5,-628 728.5,-628 728.5,-602 528.5,-602"/>
<text text-anchor="start" x="595.5" y="-610.7" font-family="Courier New" font-weight="bold" font-size="14.00">CallNode</text>
<polygon fill="none" stroke="black" points="528.5,-576 528.5,-602 628.5,-602 628.5,-576 528.5,-576"/>
<text text-anchor="start" x="533.5" y="-583.7" font-family="Courier New" font-size="14.00">flags</text>
<polygon fill="none" stroke="black" points="628.5,-576 628.5,-602 728.5,-602 728.5,-576 628.5,-576"/>
<polygon fill="none" stroke="black" points="528.5,-550 528.5,-576 628.5,-576 628.5,-550 528.5,-550"/>
<text text-anchor="start" x="533.5" y="-557.7" font-family="Courier New" font-size="14.00">name</text>
<polygon fill="none" stroke="black" points="628.5,-550 628.5,-576 728.5,-576 728.5,-550 628.5,-550"/>
<text text-anchor="start" x="657.88" y="-557.7" font-family="Courier New" font-size="14.00">:puts</text>
<polygon fill="none" stroke="black" points="528.5,-524 528.5,-550 628.5,-550 628.5,-524 528.5,-524"/>
<text text-anchor="start" x="533.12" y="-531.7" font-family="Courier New" font-size="14.00">message_loc</text>
<polygon fill="none" stroke="black" points="628.5,-524 628.5,-550 728.5,-550 728.5,-524 628.5,-524"/>
<text text-anchor="start" x="633.12" y="-531.7" font-family="Courier New" font-size="14.00">(3,2)&#45;(3,6)</text>
<polygon fill="none" stroke="black" points="528.5,-498 528.5,-524 728.5,-524 728.5,-498 528.5,-498"/>
<text text-anchor="start" x="533.5" y="-505.7" font-family="Courier New" font-size="14.00">arguments</text>
</g>
<!-- Node_200 -->
<g id="node7" class="node">
<title>Node_200</title>
<polygon fill="#f2f2f2" stroke="none" points="687,-462 570,-462 570,-384 687,-384 687,-462"/>
<polygon fill="none" stroke="black" points="570,-436 570,-462 687,-462 687,-436 570,-436"/>
<text text-anchor="start" x="574.88" y="-444.7" font-family="Courier New" font-weight="bold" font-size="14.00">ArgumentsNode</text>
<polygon fill="none" stroke="black" points="570,-410 570,-436 649,-436 649,-410 570,-410"/>
<text text-anchor="start" x="575" y="-417.7" font-family="Courier New" font-size="14.00">flags</text>
<polygon fill="none" stroke="black" points="649,-410 649,-436 687,-436 687,-410 649,-410"/>
<polygon fill="none" stroke="black" points="570,-384 570,-410 687,-410 687,-384 570,-384"/>
<text text-anchor="start" x="575" y="-391.7" font-family="Courier New" font-size="14.00">arguments</text>
</g>
<!-- Node_180&#45;&gt;Node_200 -->
<g id="edge9" class="edge">
<title>Node_180:arguments&#45;&gt;Node_200</title>
<path fill="none" stroke="black" d="M628.5,-498C628.5,-489.78 628.5,-481.05 628.5,-472.57"/>
<polygon fill="black" stroke="black" points="632,-472.65 628.5,-462.65 625,-472.65 632,-472.65"/>
</g>
<!-- Node_200_arguments -->
<g id="node16" class="node">
<title>Node_200_arguments</title>
<ellipse fill="#f2f2f2" stroke="black" cx="628.5" cy="-270" rx="1.8" ry="1.8"/>
</g>
<!-- Node_200&#45;&gt;Node_200_arguments -->
<g id="edge10" class="edge">
<title>Node_200:arguments&#45;&gt;Node_200_arguments</title>
<path fill="none" stroke="black" d="M628.5,-384C628.5,-347.11 628.5,-303.44 628.5,-282.86"/>
<polygon fill="black" stroke="black" points="632,-283.11 628.5,-273.11 625,-283.11 632,-283.11"/>
</g>
<!-- Node_220 -->
<g id="node8" class="node">
<title>Node_220</title>
<polygon fill="#f2f2f2" stroke="none" points="761.5,-156 495.5,-156 495.5,0 761.5,0 761.5,-156"/>
<polygon fill="none" stroke="black" points="495.5,-130 495.5,-156 761.5,-156 761.5,-130 495.5,-130"/>
<text text-anchor="start" x="587.25" y="-138.7" font-family="Courier New" font-weight="bold" font-size="14.00">StringNode</text>
<polygon fill="none" stroke="black" points="495.5,-104 495.5,-130 595.5,-130 595.5,-104 495.5,-104"/>
<text text-anchor="start" x="500.5" y="-111.7" font-family="Courier New" font-size="14.00">flags</text>
<polygon fill="none" stroke="black" points="595.5,-104 595.5,-130 761.5,-130 761.5,-104 595.5,-104"/>
<polygon fill="none" stroke="black" points="495.5,-78 495.5,-104 595.5,-104 595.5,-78 495.5,-78"/>
<text text-anchor="start" x="500.12" y="-85.7" font-family="Courier New" font-size="14.00">opening_loc</text>
<polygon fill="none" stroke="black" points="595.5,-78 595.5,-104 761.5,-104 761.5,-78 595.5,-78"/>
<text text-anchor="start" x="633.12" y="-85.7" font-family="Courier New" font-size="14.00">(3,7)&#45;(3,8)</text>
<polygon fill="none" stroke="black" points="495.5,-52 495.5,-78 595.5,-78 595.5,-52 495.5,-52"/>
<text text-anchor="start" x="500.12" y="-59.7" font-family="Courier New" font-size="14.00">content_loc</text>
<polygon fill="none" stroke="black" points="595.5,-52 595.5,-78 761.5,-78 761.5,-52 595.5,-52"/>
<text text-anchor="start" x="629" y="-59.7" font-family="Courier New" font-size="14.00">(3,8)&#45;(3,25)</text>
<polygon fill="none" stroke="black" points="495.5,-26 495.5,-52 595.5,-52 595.5,-26 495.5,-26"/>
<text text-anchor="start" x="500.12" y="-33.7" font-family="Courier New" font-size="14.00">closing_loc</text>
<polygon fill="none" stroke="black" points="595.5,-26 595.5,-52 761.5,-52 761.5,-26 595.5,-26"/>
<text text-anchor="start" x="624.88" y="-33.7" font-family="Courier New" font-size="14.00">(3,25)&#45;(3,26)</text>
<polygon fill="none" stroke="black" points="495.5,0 495.5,-26 595.5,-26 595.5,0 495.5,0"/>
<text text-anchor="start" x="500.5" y="-7.7" font-family="Courier New" font-size="14.00">unescaped</text>
<polygon fill="none" stroke="black" points="595.5,0 595.5,-26 761.5,-26 761.5,0 595.5,0"/>
<text text-anchor="start" x="600.12" y="-7.7" font-family="Courier New" font-size="14.00">&quot;foo is an integer&quot;</text>
</g>
<!-- Node_240 -->
<g id="node10" class="node">
<title>Node_240</title>
<polygon fill="#f2f2f2" stroke="none" points="414,-996 289,-996 289,-944 414,-944 414,-996"/>
<polygon fill="none" stroke="black" points="289,-970 289,-996 414,-996 414,-970 289,-970"/>
<text text-anchor="start" x="293.75" y="-978.7" font-family="Courier New" font-weight="bold" font-size="14.00">StatementsNode</text>
<polygon fill="none" stroke="black" points="289,-944 289,-970 414,-970 414,-944 289,-944"/>
<text text-anchor="start" x="294" y="-951.7" font-family="Courier New" font-size="14.00">body</text>
</g>
<!-- Node_120&#45;&gt;Node_240 -->
<g id="edge12" class="edge">
<title>Node_120:statements&#45;&gt;Node_240</title>
<path fill="none" stroke="black" d="M234.5,-1097C225.83,-1097 231.52,-1065.7 235.5,-1058 247.62,-1034.51 269.32,-1015.66 290.69,-1001.58"/>
<polygon fill="black" stroke="black" points="292.2,-1004.14 298.8,-995.84 288.47,-998.21 292.2,-1004.14"/>
</g>
<!-- Node_240_body -->
<g id="node17" class="node">
<title>Node_240_body</title>
<ellipse fill="#f2f2f2" stroke="black" cx="351.5" cy="-856" rx="1.8" ry="1.8"/>
</g>
<!-- Node_240&#45;&gt;Node_240_body -->
<g id="edge13" class="edge">
<title>Node_240:body&#45;&gt;Node_240_body</title>
<path fill="none" stroke="black" d="M351.5,-943C351.5,-916.61 351.5,-885.68 351.5,-869.04"/>
<polygon fill="black" stroke="black" points="355,-869.21 351.5,-859.21 348,-869.21 355,-869.21"/>
</g>
<!-- Node_260 -->
<g id="node11" class="node">
<title>Node_260</title>
<polygon fill="#f2f2f2" stroke="none" points="451.5,-794 251.5,-794 251.5,-664 451.5,-664 451.5,-794"/>
<polygon fill="none" stroke="black" points="251.5,-768 251.5,-794 451.5,-794 451.5,-768 251.5,-768"/>
<text text-anchor="start" x="318.5" y="-776.7" font-family="Courier New" font-weight="bold" font-size="14.00">CallNode</text>
<polygon fill="none" stroke="black" points="251.5,-742 251.5,-768 351.5,-768 351.5,-742 251.5,-742"/>
<text text-anchor="start" x="256.5" y="-749.7" font-family="Courier New" font-size="14.00">flags</text>
<polygon fill="none" stroke="black" points="351.5,-742 351.5,-768 451.5,-768 451.5,-742 351.5,-742"/>
<polygon fill="none" stroke="black" points="251.5,-716 251.5,-742 351.5,-742 351.5,-716 251.5,-716"/>
<text text-anchor="start" x="256.5" y="-723.7" font-family="Courier New" font-size="14.00">name</text>
<polygon fill="none" stroke="black" points="351.5,-716 351.5,-742 451.5,-742 451.5,-716 351.5,-716"/>
<text text-anchor="start" x="380.88" y="-723.7" font-family="Courier New" font-size="14.00">:puts</text>
<polygon fill="none" stroke="black" points="251.5,-690 251.5,-716 351.5,-716 351.5,-690 251.5,-690"/>
<text text-anchor="start" x="256.12" y="-697.7" font-family="Courier New" font-size="14.00">message_loc</text>
<polygon fill="none" stroke="black" points="351.5,-690 351.5,-716 451.5,-716 451.5,-690 351.5,-690"/>
<text text-anchor="start" x="356.12" y="-697.7" font-family="Courier New" font-size="14.00">(5,2)&#45;(5,6)</text>
<polygon fill="none" stroke="black" points="251.5,-664 251.5,-690 451.5,-690 451.5,-664 251.5,-664"/>
<text text-anchor="start" x="256.5" y="-671.7" font-family="Courier New" font-size="14.00">arguments</text>
</g>
<!-- Node_280 -->
<g id="node12" class="node">
<title>Node_280</title>
<polygon fill="#f2f2f2" stroke="none" points="410,-602 293,-602 293,-524 410,-524 410,-602"/>
<polygon fill="none" stroke="black" points="293,-576 293,-602 410,-602 410,-576 293,-576"/>
<text text-anchor="start" x="297.88" y="-584.7" font-family="Courier New" font-weight="bold" font-size="14.00">ArgumentsNode</text>
<polygon fill="none" stroke="black" points="293,-550 293,-576 372,-576 372,-550 293,-550"/>
<text text-anchor="start" x="298" y="-557.7" font-family="Courier New" font-size="14.00">flags</text>
<polygon fill="none" stroke="black" points="372,-550 372,-576 410,-576 410,-550 372,-550"/>
<polygon fill="none" stroke="black" points="293,-524 293,-550 410,-550 410,-524 293,-524"/>
<text text-anchor="start" x="298" y="-531.7" font-family="Courier New" font-size="14.00">arguments</text>
</g>
<!-- Node_260&#45;&gt;Node_280 -->
<g id="edge15" class="edge">
<title>Node_260:arguments&#45;&gt;Node_280</title>
<path fill="none" stroke="black" d="M351.5,-664C351.5,-647.36 351.5,-629.15 351.5,-612.89"/>
<polygon fill="black" stroke="black" points="355,-612.99 351.5,-602.99 348,-612.99 355,-612.99"/>
</g>
<!-- Node_280_arguments -->
<g id="node18" class="node">
<title>Node_280_arguments</title>
<ellipse fill="#f2f2f2" stroke="black" cx="351.5" cy="-423" rx="1.8" ry="1.8"/>
</g>
<!-- Node_280&#45;&gt;Node_280_arguments -->
<g id="edge16" class="edge">
<title>Node_280:arguments&#45;&gt;Node_280_arguments</title>
<path fill="none" stroke="black" d="M351.5,-523C351.5,-491.47 351.5,-454.29 351.5,-435.75"/>
<polygon fill="black" stroke="black" points="355,-435.98 351.5,-425.98 348,-435.98 355,-435.98"/>
</g>
<!-- Node_300 -->
<g id="node13" class="node">
<title>Node_300</title>
<polygon fill="#f2f2f2" stroke="none" points="501,-348 202,-348 202,-192 501,-192 501,-348"/>
<polygon fill="none" stroke="black" points="202,-322 202,-348 501,-348 501,-322 202,-322"/>
<text text-anchor="start" x="310.25" y="-330.7" font-family="Courier New" font-weight="bold" font-size="14.00">StringNode</text>
<polygon fill="none" stroke="black" points="202,-296 202,-322 302,-322 302,-296 202,-296"/>
<text text-anchor="start" x="207" y="-303.7" font-family="Courier New" font-size="14.00">flags</text>
<polygon fill="none" stroke="black" points="302,-296 302,-322 501,-322 501,-296 302,-296"/>
<polygon fill="none" stroke="black" points="202,-270 202,-296 302,-296 302,-270 202,-270"/>
<text text-anchor="start" x="206.62" y="-277.7" font-family="Courier New" font-size="14.00">opening_loc</text>
<polygon fill="none" stroke="black" points="302,-270 302,-296 501,-296 501,-270 302,-270"/>
<text text-anchor="start" x="356.12" y="-277.7" font-family="Courier New" font-size="14.00">(5,7)&#45;(5,8)</text>
<polygon fill="none" stroke="black" points="202,-244 202,-270 302,-270 302,-244 202,-244"/>
<text text-anchor="start" x="206.62" y="-251.7" font-family="Courier New" font-size="14.00">content_loc</text>
<polygon fill="none" stroke="black" points="302,-244 302,-270 501,-270 501,-244 302,-244"/>
<text text-anchor="start" x="352" y="-251.7" font-family="Courier New" font-size="14.00">(5,8)&#45;(5,29)</text>
<polygon fill="none" stroke="black" points="202,-218 202,-244 302,-244 302,-218 202,-218"/>
<text text-anchor="start" x="206.62" y="-225.7" font-family="Courier New" font-size="14.00">closing_loc</text>
<polygon fill="none" stroke="black" points="302,-218 302,-244 501,-244 501,-218 302,-218"/>
<text text-anchor="start" x="347.88" y="-225.7" font-family="Courier New" font-size="14.00">(5,29)&#45;(5,30)</text>
<polygon fill="none" stroke="black" points="202,-192 202,-218 302,-218 302,-192 202,-192"/>
<text text-anchor="start" x="207" y="-199.7" font-family="Courier New" font-size="14.00">unescaped</text>
<polygon fill="none" stroke="black" points="302,-192 302,-218 501,-218 501,-192 302,-192"/>
<text text-anchor="start" x="306.62" y="-199.7" font-family="Courier New" font-size="14.00">&quot;foo is something else&quot;</text>
</g>
<!-- Node_60_conditions&#45;&gt;Node_100 -->
<g id="edge3" class="edge">
<title>Node_60_conditions&#45;&gt;Node_100</title>
<path fill="none" stroke="black" d="M506.53,-1108.12C506.75,-1102.09 508.05,-1066.18 509.27,-1032.62"/>
<polygon fill="black" stroke="black" points="512.79,-1032.97 509.66,-1022.85 505.8,-1032.72 512.79,-1032.97"/>
</g>
<!-- Node_160_body&#45;&gt;Node_180 -->
<g id="edge8" class="edge">
<title>Node_160_body&#45;&gt;Node_180</title>
<path fill="none" stroke="black" d="M628.5,-726.95C628.5,-719.86 628.5,-677.9 628.5,-638.34"/>
<polygon fill="black" stroke="black" points="632,-638.55 628.5,-628.55 625,-638.55 632,-638.55"/>
</g>
<!-- Node_200_arguments&#45;&gt;Node_220 -->
<g id="edge11" class="edge">
<title>Node_200_arguments&#45;&gt;Node_220</title>
<path fill="none" stroke="black" d="M628.5,-267.79C628.5,-259.65 628.5,-211.99 628.5,-166.6"/>
<polygon fill="black" stroke="black" points="632,-166.75 628.5,-156.75 625,-166.75 632,-166.75"/>
</g>
<!-- Node_240_body&#45;&gt;Node_260 -->
<g id="edge14" class="edge">
<title>Node_240_body&#45;&gt;Node_260</title>
<path fill="none" stroke="black" d="M351.5,-854.2C351.5,-849.85 351.5,-828.35 351.5,-804.42"/>
<polygon fill="black" stroke="black" points="355,-804.69 351.5,-794.69 348,-804.69 355,-804.69"/>
</g>
<!-- Node_280_arguments&#45;&gt;Node_300 -->
<g id="edge17" class="edge">
<title>Node_280_arguments&#45;&gt;Node_300</title>
<path fill="none" stroke="black" d="M351.5,-421.04C351.5,-415.64 351.5,-388.39 351.5,-358.56"/>
<polygon fill="black" stroke="black" points="355,-358.94 351.5,-348.94 348,-358.94 355,-358.94"/>
</g>
</g>
</svg>
