<?xml version="1.0" encoding="UTF-8" standalone="no"?>
<!DOCTYPE svg PUBLIC "-//W3C//DTD SVG 1.1//EN"
 "http://www.w3.org/Graphics/SVG/1.1/DTD/svg11.dtd">
<!-- Generated by graphviz version 8.1.0 (20230707.0739)
 -->
<!-- Title: Prism Pages: 1 -->
<svg width="428pt" height="340pt"
 viewBox="0.00 0.00 428.00 340.00" xmlns="http://www.w3.org/2000/svg" xmlns:xlink="http://www.w3.org/1999/xlink">
<g id="graph0" class="graph" transform="scale(1 1) rotate(0) translate(4 336)">
<title>Prism</title>
<polygon fill="white" stroke="none" points="-4,4 -4,-336 424,-336 424,4 -4,4"/>
<!-- Node_60 -->
<g id="node1" class="node">
<title>Node_60</title>
<polygon fill="#f2f2f2" stroke="none" points="363,-332 137,-332 137,-228 363,-228 363,-332"/>
<polygon fill="none" stroke="black" points="137,-306 137,-332 363,-332 363,-306 137,-306"/>
<text text-anchor="start" x="184" y="-314.7" font-family="Courier New" font-weight="bold" font-size="14.00">ConstantPathNode</text>
<polygon fill="none" stroke="black" points="137,-280 137,-306 363,-306 363,-280 137,-280"/>
<text text-anchor="start" x="142" y="-287.7" font-family="Courier New" font-size="14.00">parent</text>
<polygon fill="none" stroke="black" points="137,-254 137,-280 363,-280 363,-254 137,-254"/>
<text text-anchor="start" x="142" y="-261.7" font-family="Courier New" font-size="14.00">child</text>
<polygon fill="none" stroke="black" points="137,-228 137,-254 254,-254 254,-228 137,-228"/>
<text text-anchor="start" x="141.88" y="-235.7" font-family="Courier New" font-size="14.00">delimiter_loc</text>
<polygon fill="none" stroke="black" points="254,-228 254,-254 363,-254 363,-228 254,-228"/>
<text text-anchor="start" x="259" y="-235.7" font-family="Courier New" font-size="14.00">(1,8)&#45;(1,10)</text>
</g>
<!-- Node_80 -->
<g id="node2" class="node">
<title>Node_80</title>
<polygon fill="#f2f2f2" stroke="none" points="259.5,-192 42.5,-192 42.5,-88 259.5,-88 259.5,-192"/>
<polygon fill="none" stroke="black" points="42.5,-166 42.5,-192 259.5,-192 259.5,-166 42.5,-166"/>
<text text-anchor="start" x="85" y="-174.7" font-family="Courier New" font-weight="bold" font-size="14.00">ConstantPathNode</text>
<polygon fill="none" stroke="black" points="42.5,-140 42.5,-166 259.5,-166 259.5,-140 42.5,-140"/>
<text text-anchor="start" x="47.5" y="-147.7" font-family="Courier New" font-size="14.00">parent</text>
<polygon fill="none" stroke="black" points="42.5,-114 42.5,-140 259.5,-140 259.5,-114 42.5,-114"/>
<text text-anchor="start" x="47.5" y="-121.7" font-family="Courier New" font-size="14.00">child</text>
<polygon fill="none" stroke="black" points="42.5,-88 42.5,-114 159.5,-114 159.5,-88 42.5,-88"/>
<text text-anchor="start" x="47.38" y="-95.7" font-family="Courier New" font-size="14.00">delimiter_loc</text>
<polygon fill="none" stroke="black" points="159.5,-88 159.5,-114 259.5,-114 259.5,-88 159.5,-88"/>
<text text-anchor="start" x="164.12" y="-95.7" font-family="Courier New" font-size="14.00">(1,3)&#45;(1,5)</text>
</g>
<!-- Node_60&#45;&gt;Node_80 -->
<g id="edge1" class="edge">
<title>Node_60:parent&#45;&gt;Node_80</title>
<path fill="none" stroke="black" d="M136,-293C97.46,-293 107.52,-244 123.41,-201.64"/>
<polygon fill="black" stroke="black" points="126.95,-203.2 127.33,-192.61 120.43,-200.66 126.95,-203.2"/>
</g>
<!-- Node_100 -->
<g id="node5" class="node">
<title>Node_100</title>
<polygon fill="#f2f2f2" stroke="none" points="420,-166 278,-166 278,-114 420,-114 420,-166"/>
<polygon fill="none" stroke="black" points="278,-140 278,-166 420,-166 420,-140 278,-140"/>
<text text-anchor="start" x="283" y="-148.7" font-family="Courier New" font-weight="bold" font-size="14.00">ConstantReadNode</text>
<polygon fill="none" stroke="black" points="278,-114 278,-140 349,-140 349,-114 278,-114"/>
<text text-anchor="start" x="283" y="-121.7" font-family="Courier New" font-size="14.00">name</text>
<polygon fill="none" stroke="black" points="349,-114 349,-140 420,-140 420,-114 349,-114"/>
<text text-anchor="start" x="368" y="-121.7" font-family="Courier New" font-size="14.00">:Baz</text>
</g>
<!-- Node_60&#45;&gt;Node_100 -->
<g id="edge2" class="edge">
<title>Node_60:child&#45;&gt;Node_100</title>
<path fill="none" stroke="black" d="M364,-267C401.01,-267 382.99,-212.74 366.22,-175.44"/>
<polygon fill="black" stroke="black" points="369.18,-174.49 361.8,-166.89 362.83,-177.44 369.18,-174.49"/>
</g>
<!-- Node_120 -->
<g id="node3" class="node">
<title>Node_120</title>
<polygon fill="#f2f2f2" stroke="none" points="142,-52 0,-52 0,0 142,0 142,-52"/>
<polygon fill="none" stroke="black" points="0,-26 0,-52 142,-52 142,-26 0,-26"/>
<text text-anchor="start" x="5" y="-34.7" font-family="Courier New" font-weight="bold" font-size="14.00">ConstantReadNode</text>
<polygon fill="none" stroke="black" points="0,0 0,-26 71,-26 71,0 0,0"/>
<text text-anchor="start" x="5" y="-7.7" font-family="Courier New" font-size="14.00">name</text>
<polygon fill="none" stroke="black" points="71,0 71,-26 142,-26 142,0 71,0"/>
<text text-anchor="start" x="90" y="-7.7" font-family="Courier New" font-size="14.00">:Foo</text>
</g>
<!-- Node_80&#45;&gt;Node_120 -->
<g id="edge3" class="edge">
<title>Node_80:parent&#45;&gt;Node_120</title>
<path fill="none" stroke="black" d="M41,-153C3.06,-153 28.16,-98.28 49.68,-60.96"/>
<polygon fill="black" stroke="black" points="52.96,-63.28 55.03,-52.89 46.94,-59.73 52.96,-63.28"/>
</g>
<!-- Node_140 -->
<g id="node4" class="node">
<title>Node_140</title>
<polygon fill="#f2f2f2" stroke="none" points="302,-52 160,-52 160,0 302,0 302,-52"/>
<polygon fill="none" stroke="black" points="160,-26 160,-52 302,-52 302,-26 160,-26"/>
<text text-anchor="start" x="165" y="-34.7" font-family="Courier New" font-weight="bold" font-size="14.00">ConstantReadNode</text>
<polygon fill="none" stroke="black" points="160,0 160,-26 231,-26 231,0 160,0"/>
<text text-anchor="start" x="165" y="-7.7" font-family="Courier New" font-size="14.00">name</text>
<polygon fill="none" stroke="black" points="231,0 231,-26 302,-26 302,0 231,0"/>
<text text-anchor="start" x="250" y="-7.7" font-family="Courier New" font-size="14.00">:Bar</text>
</g>
<!-- Node_80&#45;&gt;Node_140 -->
<g id="edge4" class="edge">
<title>Node_80:child&#45;&gt;Node_140</title>
<path fill="none" stroke="black" d="M261,-127C269.67,-127 262.02,-96.43 260,-88 257.89,-79.16 254.4,-70.09 250.55,-61.72"/>
<polygon fill="black" stroke="black" points="253.31,-60.39 245.76,-52.94 247.02,-63.46 253.31,-60.39"/>
</g>
</g>
</svg>
