<?xml version="1.0" encoding="UTF-8" standalone="no"?>
<!DOCTYPE svg PUBLIC "-//W3C//DTD SVG 1.1//EN"
 "http://www.w3.org/Graphics/SVG/1.1/DTD/svg11.dtd">
<!-- Generated by graphviz version 8.1.0 (20230707.0739)
 -->
<!-- Title: Prism Pages: 1 -->
<svg width="432pt" height="532pt"
 viewBox="0.00 0.00 432.00 532.00" xmlns="http://www.w3.org/2000/svg" xmlns:xlink="http://www.w3.org/1999/xlink">
<g id="graph0" class="graph" transform="scale(1 1) rotate(0) translate(4 528)">
<title>Prism</title>
<polygon fill="white" stroke="none" points="-4,4 -4,-528 428,-528 428,4 -4,4"/>
<!-- Node_60 -->
<g id="node1" class="node">
<title>Node_60</title>
<polygon fill="#f2f2f2" stroke="none" points="377,-524 127,-524 127,-368 377,-368 377,-524"/>
<polygon fill="none" stroke="black" points="127,-498 127,-524 377,-524 377,-498 127,-498"/>
<text text-anchor="start" x="214.88" y="-506.7" font-family="Courier New" font-weight="bold" font-size="14.00">ClassNode</text>
<polygon fill="none" stroke="black" points="127,-472 127,-498 277,-498 277,-472 127,-472"/>
<text text-anchor="start" x="132" y="-479.7" font-family="Courier New" font-size="14.00">locals</text>
<polygon fill="none" stroke="black" points="277,-472 277,-498 377,-498 377,-472 277,-472"/>
<text text-anchor="start" x="318.75" y="-479.7" font-family="Courier New" font-size="14.00">[]</text>
<polygon fill="none" stroke="black" points="127,-446 127,-472 277,-472 277,-446 127,-446"/>
<text text-anchor="start" x="131.88" y="-453.7" font-family="Courier New" font-size="14.00">class_keyword_loc</text>
<polygon fill="none" stroke="black" points="277,-446 277,-472 377,-472 377,-446 277,-446"/>
<text text-anchor="start" x="281.62" y="-453.7" font-family="Courier New" font-size="14.00">(1,0)&#45;(1,5)</text>
<polygon fill="none" stroke="black" points="127,-420 127,-446 377,-446 377,-420 127,-420"/>
<text text-anchor="start" x="132" y="-427.7" font-family="Courier New" font-size="14.00">constant_path</text>
<polygon fill="none" stroke="black" points="127,-394 127,-420 277,-420 277,-394 127,-394"/>
<text text-anchor="start" x="132" y="-401.7" font-family="Courier New" font-size="14.00">end_keyword_loc</text>
<polygon fill="none" stroke="black" points="277,-394 277,-420 377,-420 377,-394 277,-394"/>
<text text-anchor="start" x="281.62" y="-401.7" font-family="Courier New" font-size="14.00">(2,0)&#45;(2,3)</text>
<polygon fill="none" stroke="black" points="127,-368 127,-394 277,-394 277,-368 127,-368"/>
<text text-anchor="start" x="132" y="-375.7" font-family="Courier New" font-size="14.00">name</text>
<polygon fill="none" stroke="black" points="277,-368 277,-394 377,-394 377,-368 277,-368"/>
<text text-anchor="start" x="310.5" y="-375.7" font-family="Courier New" font-size="14.00">:Baz</text>
</g>
<!-- Node_80 -->
<g id="node2" class="node">
<title>Node_80</title>
<polygon fill="#f2f2f2" stroke="none" points="369,-332 135,-332 135,-228 369,-228 369,-332"/>
<polygon fill="none" stroke="black" points="135,-306 135,-332 369,-332 369,-306 135,-306"/>
<text text-anchor="start" x="186" y="-314.7" font-family="Courier New" font-weight="bold" font-size="14.00">ConstantPathNode</text>
<polygon fill="none" stroke="black" points="135,-280 135,-306 369,-306 369,-280 135,-280"/>
<text text-anchor="start" x="140" y="-287.7" font-family="Courier New" font-size="14.00">parent</text>
<polygon fill="none" stroke="black" points="135,-254 135,-280 369,-280 369,-254 135,-254"/>
<text text-anchor="start" x="140" y="-261.7" font-family="Courier New" font-size="14.00">child</text>
<polygon fill="none" stroke="black" points="135,-228 135,-254 252,-254 252,-228 135,-228"/>
<text text-anchor="start" x="139.88" y="-235.7" font-family="Courier New" font-size="14.00">delimiter_loc</text>
<polygon fill="none" stroke="black" points="252,-228 252,-254 369,-254 369,-228 252,-228"/>
<text text-anchor="start" x="256.88" y="-235.7" font-family="Courier New" font-size="14.00">(1,14)&#45;(1,16)</text>
</g>
<!-- Node_60&#45;&gt;Node_80 -->
<g id="edge1" class="edge">
<title>Node_60:constant_path&#45;&gt;Node_80</title>
<path fill="none" stroke="black" d="M378,-433C406.89,-433 390.57,-393.51 377,-368 371.33,-357.35 363.71,-347.73 355.02,-339.12"/>
<polygon fill="black" stroke="black" points="357.84,-337.03 348.12,-332.8 353.08,-342.17 357.84,-337.03"/>
</g>
<!-- Node_100 -->
<g id="node3" class="node">
<title>Node_100</title>
<polygon fill="#f2f2f2" stroke="none" points="264,-192 38,-192 38,-88 264,-88 264,-192"/>
<polygon fill="none" stroke="black" points="38,-166 38,-192 264,-192 264,-166 38,-166"/>
<text text-anchor="start" x="85" y="-174.7" font-family="Courier New" font-weight="bold" font-size="14.00">ConstantPathNode</text>
<polygon fill="none" stroke="black" points="38,-140 38,-166 264,-166 264,-140 38,-140"/>
<text text-anchor="start" x="43" y="-147.7" font-family="Courier New" font-size="14.00">parent</text>
<polygon fill="none" stroke="black" points="38,-114 38,-140 264,-140 264,-114 38,-114"/>
<text text-anchor="start" x="43" y="-121.7" font-family="Courier New" font-size="14.00">child</text>
<polygon fill="none" stroke="black" points="38,-88 38,-114 155,-114 155,-88 38,-88"/>
<text text-anchor="start" x="42.88" y="-95.7" font-family="Courier New" font-size="14.00">delimiter_loc</text>
<polygon fill="none" stroke="black" points="155,-88 155,-114 264,-114 264,-88 155,-88"/>
<text text-anchor="start" x="160" y="-95.7" font-family="Courier New" font-size="14.00">(1,9)&#45;(1,11)</text>
</g>
<!-- Node_80&#45;&gt;Node_100 -->
<g id="edge2" class="edge">
<title>Node_80:parent&#45;&gt;Node_100</title>
<path fill="none" stroke="black" d="M134,-293C95.41,-293 106.12,-244 122.59,-201.64"/>
<polygon fill="black" stroke="black" points="126.14,-203.2 126.64,-192.61 119.65,-200.58 126.14,-203.2"/>
</g>
<!-- Node_120 -->
<g id="node6" class="node">
<title>Node_120</title>
<polygon fill="#f2f2f2" stroke="none" points="424,-166 282,-166 282,-114 424,-114 424,-166"/>
<polygon fill="none" stroke="black" points="282,-140 282,-166 424,-166 424,-140 282,-140"/>
<text text-anchor="start" x="287" y="-148.7" font-family="Courier New" font-weight="bold" font-size="14.00">ConstantReadNode</text>
<polygon fill="none" stroke="black" points="282,-114 282,-140 353,-140 353,-114 282,-114"/>
<text text-anchor="start" x="287" y="-121.7" font-family="Courier New" font-size="14.00">name</text>
<polygon fill="none" stroke="black" points="353,-114 353,-140 424,-140 424,-114 353,-114"/>
<text text-anchor="start" x="372" y="-121.7" font-family="Courier New" font-size="14.00">:Baz</text>
</g>
<!-- Node_80&#45;&gt;Node_120 -->
<g id="edge3" class="edge">
<title>Node_80:child&#45;&gt;Node_120</title>
<path fill="none" stroke="black" d="M370,-267C407.08,-267 388.18,-212.74 370.79,-175.44"/>
<polygon fill="black" stroke="black" points="373.7,-174.39 366.21,-166.89 367.39,-177.42 373.7,-174.39"/>
</g>
<!-- Node_140 -->
<g id="node4" class="node">
<title>Node_140</title>
<polygon fill="#f2f2f2" stroke="none" points="142,-52 0,-52 0,0 142,0 142,-52"/>
<polygon fill="none" stroke="black" points="0,-26 0,-52 142,-52 142,-26 0,-26"/>
<text text-anchor="start" x="5" y="-34.7" font-family="Courier New" font-weight="bold" font-size="14.00">ConstantReadNode</text>
<polygon fill="none" stroke="black" points="0,0 0,-26 71,-26 71,0 0,0"/>
<text text-anchor="start" x="5" y="-7.7" font-family="Courier New" font-size="14.00">name</text>
<polygon fill="none" stroke="black" points="71,0 71,-26 142,-26 142,0 71,0"/>
<text text-anchor="start" x="90" y="-7.7" font-family="Courier New" font-size="14.00">:Foo</text>
</g>
<!-- Node_100&#45;&gt;Node_140 -->
<g id="edge4" class="edge">
<title>Node_100:parent&#45;&gt;Node_140</title>
<path fill="none" stroke="black" d="M37,-153C-1.22,-153 25.7,-98.28 48.5,-60.96"/>
<polygon fill="black" stroke="black" points="51.84,-63.23 54.17,-52.89 45.9,-59.52 51.84,-63.23"/>
</g>
<!-- Node_160 -->
<g id="node5" class="node">
<title>Node_160</title>
<polygon fill="#f2f2f2" stroke="none" points="302,-52 160,-52 160,0 302,0 302,-52"/>
<polygon fill="none" stroke="black" points="160,-26 160,-52 302,-52 302,-26 160,-26"/>
<text text-anchor="start" x="165" y="-34.7" font-family="Courier New" font-weight="bold" font-size="14.00">ConstantReadNode</text>
<polygon fill="none" stroke="black" points="160,0 160,-26 231,-26 231,0 160,0"/>
<text text-anchor="start" x="165" y="-7.7" font-family="Courier New" font-size="14.00">name</text>
<polygon fill="none" stroke="black" points="231,0 231,-26 302,-26 302,0 231,0"/>
<text text-anchor="start" x="250" y="-7.7" font-family="Courier New" font-size="14.00">:Bar</text>
</g>
<!-- Node_100&#45;&gt;Node_160 -->
<g id="edge5" class="edge">
<title>Node_100:child&#45;&gt;Node_160</title>
<path fill="none" stroke="black" d="M265,-127C273.67,-127 266.24,-96.38 264,-88 261.59,-78.97 257.61,-69.81 253.23,-61.42"/>
<polygon fill="black" stroke="black" points="255.9,-60.02 247.97,-52.99 249.78,-63.43 255.9,-60.02"/>
</g>
</g>
</svg>
