<?xml version="1.0" encoding="UTF-8" standalone="no"?>
<!DOCTYPE svg PUBLIC "-//W3C//DTD SVG 1.1//EN"
 "http://www.w3.org/Graphics/SVG/1.1/DTD/svg11.dtd">
<!-- Generated by graphviz version 8.1.0 (20230707.0739)
 -->
<!-- Title: Prism Pages: 1 -->
<svg width="497pt" height="536pt"
 viewBox="0.00 0.00 496.50 535.60" xmlns="http://www.w3.org/2000/svg" xmlns:xlink="http://www.w3.org/1999/xlink">
<g id="graph0" class="graph" transform="scale(1 1) rotate(0) translate(4 531.6)">
<title>Prism</title>
<polygon fill="white" stroke="none" points="-4,4 -4,-531.6 492.5,-531.6 492.5,4 -4,4"/>
<!-- Node_60 -->
<g id="node1" class="node">
<title>Node_60</title>
<polygon fill="#f2f2f2" stroke="none" points="406.5,-527.6 180.5,-527.6 180.5,-319.6 406.5,-319.6 406.5,-527.6"/>
<polygon fill="none" stroke="black" points="180.5,-501.6 180.5,-527.6 406.5,-527.6 406.5,-501.6 180.5,-501.6"/>
<text text-anchor="start" x="223.38" y="-510.3" font-family="Courier New" font-weight="bold" font-size="14.00">IndexAndWriteNode</text>
<polygon fill="none" stroke="black" points="180.5,-475.6 180.5,-501.6 289.5,-501.6 289.5,-475.6 180.5,-475.6"/>
<text text-anchor="start" x="185.5" y="-483.3" font-family="Courier New" font-size="14.00">flags</text>
<polygon fill="none" stroke="black" points="289.5,-475.6 289.5,-501.6 406.5,-501.6 406.5,-475.6 289.5,-475.6"/>
<polygon fill="none" stroke="black" points="180.5,-449.6 180.5,-475.6 406.5,-475.6 406.5,-449.6 180.5,-449.6"/>
<text text-anchor="start" x="185.5" y="-457.3" font-family="Courier New" font-size="14.00">receiver</text>
<polygon fill="none" stroke="black" points="180.5,-423.6 180.5,-449.6 289.5,-449.6 289.5,-423.6 180.5,-423.6"/>
<text text-anchor="start" x="185.5" y="-431.3" font-family="Courier New" font-size="14.00">opening_loc</text>
<polygon fill="none" stroke="black" points="289.5,-423.6 289.5,-449.6 406.5,-449.6 406.5,-423.6 289.5,-423.6"/>
<text text-anchor="start" x="302.62" y="-431.3" font-family="Courier New" font-size="14.00">(1,3)&#45;(1,4)</text>
<polygon fill="none" stroke="black" points="180.5,-397.6 180.5,-423.6 406.5,-423.6 406.5,-397.6 180.5,-397.6"/>
<text text-anchor="start" x="185.5" y="-405.3" font-family="Courier New" font-size="14.00">arguments</text>
<polygon fill="none" stroke="black" points="180.5,-371.6 180.5,-397.6 289.5,-397.6 289.5,-371.6 180.5,-371.6"/>
<text text-anchor="start" x="185.5" y="-379.3" font-family="Courier New" font-size="14.00">closing_loc</text>
<polygon fill="none" stroke="black" points="289.5,-371.6 289.5,-397.6 406.5,-397.6 406.5,-371.6 289.5,-371.6"/>
<text text-anchor="start" x="302.62" y="-379.3" font-family="Courier New" font-size="14.00">(1,8)&#45;(1,9)</text>
<polygon fill="none" stroke="black" points="180.5,-345.6 180.5,-371.6 289.5,-371.6 289.5,-345.6 180.5,-345.6"/>
<text text-anchor="start" x="185.5" y="-353.3" font-family="Courier New" font-size="14.00">operator_loc</text>
<polygon fill="none" stroke="black" points="289.5,-345.6 289.5,-371.6 406.5,-371.6 406.5,-345.6 289.5,-345.6"/>
<text text-anchor="start" x="294.38" y="-353.3" font-family="Courier New" font-size="14.00">(1,10)&#45;(1,13)</text>
<polygon fill="none" stroke="black" points="180.5,-319.6 180.5,-345.6 406.5,-345.6 406.5,-319.6 180.5,-319.6"/>
<text text-anchor="start" x="185.5" y="-327.3" font-family="Courier New" font-size="14.00">value</text>
</g>
<!-- Node_80 -->
<g id="node2" class="node">
<title>Node_80</title>
<polygon fill="#f2f2f2" stroke="none" points="217,-283.6 0,-283.6 0,-179.6 217,-179.6 217,-283.6"/>
<polygon fill="none" stroke="black" points="0,-257.6 0,-283.6 217,-283.6 217,-257.6 0,-257.6"/>
<text text-anchor="start" x="75.5" y="-266.3" font-family="Courier New" font-weight="bold" font-size="14.00">CallNode</text>
<polygon fill="none" stroke="black" points="0,-231.6 0,-257.6 100,-257.6 100,-231.6 0,-231.6"/>
<text text-anchor="start" x="5" y="-239.3" font-family="Courier New" font-size="14.00">flags</text>
<polygon fill="none" stroke="black" points="100,-231.6 100,-257.6 217,-257.6 217,-231.6 100,-231.6"/>
<text text-anchor="start" x="104.88" y="-239.3" font-family="Courier New" font-size="14.00">variable_call</text>
<polygon fill="none" stroke="black" points="0,-205.6 0,-231.6 100,-231.6 100,-205.6 0,-205.6"/>
<text text-anchor="start" x="5" y="-213.3" font-family="Courier New" font-size="14.00">name</text>
<polygon fill="none" stroke="black" points="100,-205.6 100,-231.6 217,-231.6 217,-205.6 100,-205.6"/>
<text text-anchor="start" x="142" y="-213.3" font-family="Courier New" font-size="14.00">:foo</text>
<polygon fill="none" stroke="black" points="0,-179.6 0,-205.6 100,-205.6 100,-179.6 0,-179.6"/>
<text text-anchor="start" x="4.62" y="-187.3" font-family="Courier New" font-size="14.00">message_loc</text>
<polygon fill="none" stroke="black" points="100,-179.6 100,-205.6 217,-205.6 217,-179.6 100,-179.6"/>
<text text-anchor="start" x="113.12" y="-187.3" font-family="Courier New" font-size="14.00">(1,0)&#45;(1,3)</text>
</g>
<!-- Node_60&#45;&gt;Node_80 -->
<g id="edge1" class="edge">
<title>Node_60:receiver&#45;&gt;Node_80</title>
<path fill="none" stroke="black" d="M179.5,-462.6C108.79,-462.6 100.54,-362.13 103.07,-294"/>
<polygon fill="black" stroke="black" points="106.59,-294.51 103.56,-284.36 99.6,-294.19 106.59,-294.51"/>
</g>
<!-- Node_100 -->
<g id="node3" class="node">
<title>Node_100</title>
<polygon fill="#f2f2f2" stroke="none" points="352,-270.6 235,-270.6 235,-192.6 352,-192.6 352,-270.6"/>
<polygon fill="none" stroke="black" points="235,-244.6 235,-270.6 352,-270.6 352,-244.6 235,-244.6"/>
<text text-anchor="start" x="239.88" y="-253.3" font-family="Courier New" font-weight="bold" font-size="14.00">ArgumentsNode</text>
<polygon fill="none" stroke="black" points="235,-218.6 235,-244.6 314,-244.6 314,-218.6 235,-218.6"/>
<text text-anchor="start" x="240" y="-226.3" font-family="Courier New" font-size="14.00">flags</text>
<polygon fill="none" stroke="black" points="314,-218.6 314,-244.6 352,-244.6 352,-218.6 314,-218.6"/>
<polygon fill="none" stroke="black" points="235,-192.6 235,-218.6 352,-218.6 352,-192.6 235,-192.6"/>
<text text-anchor="start" x="240" y="-200.3" font-family="Courier New" font-size="14.00">arguments</text>
</g>
<!-- Node_60&#45;&gt;Node_100 -->
<g id="edge2" class="edge">
<title>Node_60:arguments&#45;&gt;Node_100</title>
<path fill="none" stroke="black" d="M407.5,-410.6C447.95,-410.6 424.56,-355.79 406.5,-319.6 405.65,-317.89 379.46,-297.69 352.51,-277.18"/>
<polygon fill="black" stroke="black" points="354.84,-273.8 344.76,-270.54 350.61,-279.37 354.84,-273.8"/>
</g>
<!-- Node_120 -->
<g id="node5" class="node">
<title>Node_120</title>
<polygon fill="#f2f2f2" stroke="none" points="488.5,-257.6 370.5,-257.6 370.5,-205.6 488.5,-205.6 488.5,-257.6"/>
<polygon fill="none" stroke="black" points="370.5,-231.6 370.5,-257.6 488.5,-257.6 488.5,-231.6 370.5,-231.6"/>
<text text-anchor="start" x="384.12" y="-240.3" font-family="Courier New" font-weight="bold" font-size="14.00">IntegerNode</text>
<polygon fill="none" stroke="black" points="370.5,-205.6 370.5,-231.6 421.5,-231.6 421.5,-205.6 370.5,-205.6"/>
<text text-anchor="start" x="375.38" y="-213.3" font-family="Courier New" font-size="14.00">flags</text>
<polygon fill="none" stroke="black" points="421.5,-205.6 421.5,-231.6 488.5,-231.6 488.5,-205.6 421.5,-205.6"/>
<text text-anchor="start" x="426.12" y="-213.3" font-family="Courier New" font-size="14.00">decimal</text>
</g>
<!-- Node_60&#45;&gt;Node_120 -->
<g id="edge3" class="edge">
<title>Node_60:value&#45;&gt;Node_120</title>
<path fill="none" stroke="black" d="M407.5,-332.6C434.69,-332.6 437.24,-296.9 434.89,-268.16"/>
<polygon fill="black" stroke="black" points="438.31,-268.16 433.79,-258.58 431.34,-268.88 438.31,-268.16"/>
</g>
<!-- Node_100_arguments -->
<g id="node6" class="node">
<title>Node_100_arguments</title>
<ellipse fill="#f2f2f2" stroke="black" cx="293.5" cy="-141.8" rx="1.8" ry="1.8"/>
</g>
<!-- Node_100&#45;&gt;Node_100_arguments -->
<g id="edge4" class="edge">
<title>Node_100:arguments&#45;&gt;Node_100_arguments</title>
<path fill="none" stroke="black" d="M293.5,-191.6C293.5,-179 293.5,-164.56 293.5,-154.68"/>
<polygon fill="black" stroke="black" points="297,-155.01 293.5,-145.01 290,-155.01 297,-155.01"/>
</g>
<!-- Node_140 -->
<g id="node4" class="node">
<title>Node_140</title>
<polygon fill="#f2f2f2" stroke="none" points="393.5,-104 193.5,-104 193.5,0 393.5,0 393.5,-104"/>
<polygon fill="none" stroke="black" points="193.5,-78 193.5,-104 393.5,-104 393.5,-78 193.5,-78"/>
<text text-anchor="start" x="252.25" y="-86.7" font-family="Courier New" font-weight="bold" font-size="14.00">SymbolNode</text>
<polygon fill="none" stroke="black" points="193.5,-52 193.5,-78 293.5,-78 293.5,-52 193.5,-52"/>
<text text-anchor="start" x="198.12" y="-59.7" font-family="Courier New" font-size="14.00">opening_loc</text>
<polygon fill="none" stroke="black" points="293.5,-52 293.5,-78 393.5,-78 393.5,-52 293.5,-52"/>
<text text-anchor="start" x="298.12" y="-59.7" font-family="Courier New" font-size="14.00">(1,4)&#45;(1,5)</text>
<polygon fill="none" stroke="black" points="193.5,-26 193.5,-52 293.5,-52 293.5,-26 193.5,-26"/>
<text text-anchor="start" x="198.5" y="-33.7" font-family="Courier New" font-size="14.00">value_loc</text>
<polygon fill="none" stroke="black" points="293.5,-26 293.5,-52 393.5,-52 393.5,-26 293.5,-26"/>
<text text-anchor="start" x="298.12" y="-33.7" font-family="Courier New" font-size="14.00">(1,5)&#45;(1,8)</text>
<polygon fill="none" stroke="black" points="193.5,0 193.5,-26 293.5,-26 293.5,0 193.5,0"/>
<text text-anchor="start" x="198.5" y="-7.7" font-family="Courier New" font-size="14.00">unescaped</text>
<polygon fill="none" stroke="black" points="293.5,0 293.5,-26 393.5,-26 393.5,0 293.5,0"/>
<text text-anchor="start" x="322.88" y="-7.7" font-family="Courier New" font-size="14.00">&quot;bar&quot;</text>
</g>
<!-- Node_100_arguments&#45;&gt;Node_140 -->
<g id="edge5" class="edge">
<title>Node_100_arguments&#45;&gt;Node_140</title>
<path fill="none" stroke="black" d="M293.5,-139.56C293.5,-136.21 293.5,-126.41 293.5,-114.56"/>
<polygon fill="black" stroke="black" points="297,-114.72 293.5,-104.72 290,-114.72 297,-114.72"/>
</g>
</g>
</svg>
