<?xml version="1.0" encoding="UTF-8" standalone="no"?>
<!DOCTYPE svg PUBLIC "-//W3C//DTD SVG 1.1//EN"
 "http://www.w3.org/Graphics/SVG/1.1/DTD/svg11.dtd">
<!-- Generated by graphviz version 8.1.0 (20230707.0739)
 -->
<!-- Title: Prism Pages: 1 -->
<svg width="554pt" height="636pt"
 viewBox="0.00 0.00 554.27 636.00" xmlns="http://www.w3.org/2000/svg" xmlns:xlink="http://www.w3.org/1999/xlink">
<g id="graph0" class="graph" transform="scale(1 1) rotate(0) translate(4 632)">
<title>Prism</title>
<polygon fill="white" stroke="none" points="-4,4 -4,-632 550.27,-632 550.27,4 -4,4"/>
<!-- Node_60 -->
<g id="node1" class="node">
<title>Node_60</title>
<polygon fill="#f2f2f2" stroke="none" points="378.5,-628 160.5,-628 160.5,-472 378.5,-472 378.5,-628"/>
<polygon fill="none" stroke="black" points="160.5,-602 160.5,-628 378.5,-628 378.5,-602 160.5,-602"/>
<text text-anchor="start" x="211.75" y="-610.7" font-family="Courier New" font-weight="bold" font-size="14.00">MultiWriteNode</text>
<polygon fill="none" stroke="black" points="160.5,-576 160.5,-602 378.5,-602 378.5,-576 160.5,-576"/>
<text text-anchor="start" x="165.5" y="-583.7" font-family="Courier New" font-size="14.00">lefts</text>
<polygon fill="none" stroke="black" points="160.5,-550 160.5,-576 378.5,-576 378.5,-550 160.5,-550"/>
<text text-anchor="start" x="165.5" y="-557.7" font-family="Courier New" font-size="14.00">rest</text>
<polygon fill="none" stroke="black" points="160.5,-524 160.5,-550 269.5,-550 269.5,-524 160.5,-524"/>
<text text-anchor="start" x="165.5" y="-531.7" font-family="Courier New" font-size="14.00">rights</text>
<polygon fill="none" stroke="black" points="269.5,-524 269.5,-550 378.5,-550 378.5,-524 269.5,-524"/>
<text text-anchor="start" x="315.75" y="-531.7" font-family="Courier New" font-size="14.00">[]</text>
<polygon fill="none" stroke="black" points="160.5,-498 160.5,-524 269.5,-524 269.5,-498 160.5,-498"/>
<text text-anchor="start" x="165.5" y="-505.7" font-family="Courier New" font-size="14.00">operator_loc</text>
<polygon fill="none" stroke="black" points="269.5,-498 269.5,-524 378.5,-524 378.5,-498 269.5,-498"/>
<text text-anchor="start" x="274.5" y="-505.7" font-family="Courier New" font-size="14.00">(1,9)&#45;(1,10)</text>
<polygon fill="none" stroke="black" points="160.5,-472 160.5,-498 378.5,-498 378.5,-472 160.5,-472"/>
<text text-anchor="start" x="165.5" y="-479.7" font-family="Courier New" font-size="14.00">value</text>
</g>
<!-- Node_100 -->
<g id="node4" class="node">
<title>Node_100</title>
<polygon fill="#f2f2f2" stroke="none" points="143,-397.25 0,-397.25 0,-370.75 143,-370.75 143,-397.25"/>
<polygon fill="none" stroke="black" points="0,-370.75 0,-397.25 143,-397.25 143,-370.75 0,-370.75"/>
<text text-anchor="start" x="5.5" y="-379.95" font-family="Courier New" font-weight="bold" font-size="14.00">ImplicitRestNode</text>
</g>
<!-- Node_60&#45;&gt;Node_100 -->
<g id="edge3" class="edge">
<title>Node_60:rest&#45;&gt;Node_100</title>
<path fill="none" stroke="black" d="M159.5,-563C91.17,-563 75.9,-456.3 72.48,-408.12"/>
<polygon fill="black" stroke="black" points="75.92,-408.01 71.85,-398.23 68.94,-408.42 75.92,-408.01"/>
</g>
<!-- Node_120 -->
<g id="node5" class="node">
<title>Node_120</title>
<polygon fill="#f2f2f2" stroke="none" points="378,-436 161,-436 161,-332 378,-332 378,-436"/>
<polygon fill="none" stroke="black" points="161,-410 161,-436 378,-436 378,-410 161,-410"/>
<text text-anchor="start" x="236.5" y="-418.7" font-family="Courier New" font-weight="bold" font-size="14.00">CallNode</text>
<polygon fill="none" stroke="black" points="161,-384 161,-410 261,-410 261,-384 161,-384"/>
<text text-anchor="start" x="166" y="-391.7" font-family="Courier New" font-size="14.00">flags</text>
<polygon fill="none" stroke="black" points="261,-384 261,-410 378,-410 378,-384 261,-384"/>
<text text-anchor="start" x="265.88" y="-391.7" font-family="Courier New" font-size="14.00">variable_call</text>
<polygon fill="none" stroke="black" points="161,-358 161,-384 261,-384 261,-358 161,-358"/>
<text text-anchor="start" x="166" y="-365.7" font-family="Courier New" font-size="14.00">name</text>
<polygon fill="none" stroke="black" points="261,-358 261,-384 378,-384 378,-358 261,-358"/>
<text text-anchor="start" x="303" y="-365.7" font-family="Courier New" font-size="14.00">:baz</text>
<polygon fill="none" stroke="black" points="161,-332 161,-358 261,-358 261,-332 161,-332"/>
<text text-anchor="start" x="165.62" y="-339.7" font-family="Courier New" font-size="14.00">message_loc</text>
<polygon fill="none" stroke="black" points="261,-332 261,-358 378,-358 378,-332 261,-332"/>
<text text-anchor="start" x="265.88" y="-339.7" font-family="Courier New" font-size="14.00">(1,11)&#45;(1,14)</text>
</g>
<!-- Node_60&#45;&gt;Node_120 -->
<g id="edge4" class="edge">
<title>Node_60:value&#45;&gt;Node_120</title>
<path fill="none" stroke="black" d="M269.5,-472C269.5,-463.72 269.5,-454.99 269.5,-446.39"/>
<polygon fill="black" stroke="black" points="273,-446.6 269.5,-436.6 266,-446.6 273,-446.6"/>
</g>
<!-- Node_60_lefts -->
<g id="node6" class="node">
<title>Node_60_lefts</title>
<ellipse fill="#f2f2f2" stroke="black" cx="397.5" cy="-384" rx="1.8" ry="1.8"/>
</g>
<!-- Node_60&#45;&gt;Node_60_lefts -->
<g id="edge1" class="edge">
<title>Node_60:lefts&#45;&gt;Node_60_lefts</title>
<path fill="none" stroke="black" d="M379.5,-589C457.57,-589 414.96,-438.92 401.25,-396.22"/>
<polygon fill="black" stroke="black" points="404.3,-395.29 397.82,-386.91 397.66,-397.5 404.3,-395.29"/>
</g>
<!-- Node_80 -->
<g id="node2" class="node">
<title>Node_80</title>
<polygon fill="#f2f2f2" stroke="none" points="522.5,-296 272.5,-296 272.5,-140 522.5,-140 522.5,-296"/>
<polygon fill="none" stroke="black" points="272.5,-270 272.5,-296 522.5,-296 522.5,-270 272.5,-270"/>
<text text-anchor="start" x="339.75" y="-278.7" font-family="Courier New" font-weight="bold" font-size="14.00">CallTargetNode</text>
<polygon fill="none" stroke="black" points="272.5,-244 272.5,-270 422.5,-270 422.5,-244 272.5,-244"/>
<text text-anchor="start" x="277.5" y="-251.7" font-family="Courier New" font-size="14.00">flags</text>
<polygon fill="none" stroke="black" points="422.5,-244 422.5,-270 522.5,-270 522.5,-244 422.5,-244"/>
<polygon fill="none" stroke="black" points="272.5,-218 272.5,-244 522.5,-244 522.5,-218 272.5,-218"/>
<text text-anchor="start" x="277.5" y="-225.7" font-family="Courier New" font-size="14.00">receiver</text>
<polygon fill="none" stroke="black" points="272.5,-192 272.5,-218 422.5,-218 422.5,-192 272.5,-192"/>
<text text-anchor="start" x="277.38" y="-199.7" font-family="Courier New" font-size="14.00">call_operator_loc</text>
<polygon fill="none" stroke="black" points="422.5,-192 422.5,-218 522.5,-218 522.5,-192 422.5,-192"/>
<text text-anchor="start" x="427.12" y="-199.7" font-family="Courier New" font-size="14.00">(1,3)&#45;(1,4)</text>
<polygon fill="none" stroke="black" points="272.5,-166 272.5,-192 422.5,-192 422.5,-166 272.5,-166"/>
<text text-anchor="start" x="277.5" y="-173.7" font-family="Courier New" font-size="14.00">name</text>
<polygon fill="none" stroke="black" points="422.5,-166 422.5,-192 522.5,-192 522.5,-166 422.5,-166"/>
<text text-anchor="start" x="451.88" y="-173.7" font-family="Courier New" font-size="14.00">:bar=</text>
<polygon fill="none" stroke="black" points="272.5,-140 272.5,-166 422.5,-166 422.5,-140 272.5,-140"/>
<text text-anchor="start" x="277.5" y="-147.7" font-family="Courier New" font-size="14.00">message_loc</text>
<polygon fill="none" stroke="black" points="422.5,-140 422.5,-166 522.5,-166 522.5,-140 422.5,-140"/>
<text text-anchor="start" x="427.12" y="-147.7" font-family="Courier New" font-size="14.00">(1,4)&#45;(1,7)</text>
</g>
<!-- Node_140 -->
<g id="node3" class="node">
<title>Node_140</title>
<polygon fill="#f2f2f2" stroke="none" points="506,-104 289,-104 289,0 506,0 506,-104"/>
<polygon fill="none" stroke="black" points="289,-78 289,-104 506,-104 506,-78 289,-78"/>
<text text-anchor="start" x="364.5" y="-86.7" font-family="Courier New" font-weight="bold" font-size="14.00">CallNode</text>
<polygon fill="none" stroke="black" points="289,-52 289,-78 389,-78 389,-52 289,-52"/>
<text text-anchor="start" x="294" y="-59.7" font-family="Courier New" font-size="14.00">flags</text>
<polygon fill="none" stroke="black" points="389,-52 389,-78 506,-78 506,-52 389,-52"/>
<text text-anchor="start" x="393.88" y="-59.7" font-family="Courier New" font-size="14.00">variable_call</text>
<polygon fill="none" stroke="black" points="289,-26 289,-52 389,-52 389,-26 289,-26"/>
<text text-anchor="start" x="294" y="-33.7" font-family="Courier New" font-size="14.00">name</text>
<polygon fill="none" stroke="black" points="389,-26 389,-52 506,-52 506,-26 389,-26"/>
<text text-anchor="start" x="431" y="-33.7" font-family="Courier New" font-size="14.00">:foo</text>
<polygon fill="none" stroke="black" points="289,0 289,-26 389,-26 389,0 289,0"/>
<text text-anchor="start" x="293.62" y="-7.7" font-family="Courier New" font-size="14.00">message_loc</text>
<polygon fill="none" stroke="black" points="389,0 389,-26 506,-26 506,0 389,0"/>
<text text-anchor="start" x="402.12" y="-7.7" font-family="Courier New" font-size="14.00">(1,0)&#45;(1,3)</text>
</g>
<!-- Node_80&#45;&gt;Node_140 -->
<g id="edge5" class="edge">
<title>Node_80:receiver&#45;&gt;Node_140</title>
<path fill="none" stroke="black" d="M523.5,-231C563.95,-231 541.42,-175.75 522.5,-140 516.86,-129.34 509.25,-119.71 500.56,-111.09"/>
<polygon fill="black" stroke="black" points="503.39,-109.01 493.68,-104.77 498.63,-114.14 503.39,-109.01"/>
</g>
<!-- Node_60_lefts&#45;&gt;Node_80 -->
<g id="edge2" class="edge">
<title>Node_60_lefts&#45;&gt;Node_80</title>
<path fill="none" stroke="black" d="M397.5,-381.95C397.5,-375.65 397.5,-341.84 397.5,-306.64"/>
<polygon fill="black" stroke="black" points="401,-306.7 397.5,-296.7 394,-306.7 401,-306.7"/>
</g>
</g>
</svg>
