<?xml version="1.0" encoding="UTF-8" standalone="no"?>
<!DOCTYPE svg PUBLIC "-//W3C//DTD SVG 1.1//EN"
 "http://www.w3.org/Graphics/SVG/1.1/DTD/svg11.dtd">
<!-- Generated by graphviz version 8.1.0 (20230707.0739)
 -->
<!-- Title: Prism Pages: 1 -->
<svg width="455pt" height="585pt"
 viewBox="0.00 0.00 455.01 585.20" xmlns="http://www.w3.org/2000/svg" xmlns:xlink="http://www.w3.org/1999/xlink">
<g id="graph0" class="graph" transform="scale(1 1) rotate(0) translate(4 581.2)">
<title>Prism</title>
<polygon fill="white" stroke="none" points="-4,4 -4,-581.2 451.01,-581.2 451.01,4 -4,4"/>
<!-- Node_60 -->
<g id="node1" class="node">
<title>Node_60</title>
<polygon fill="#f2f2f2" stroke="none" points="354,-577.2 72,-577.2 72,-447.2 354,-447.2 354,-577.2"/>
<polygon fill="none" stroke="black" points="72,-551.2 72,-577.2 354,-577.2 354,-551.2 72,-551.2"/>
<text text-anchor="start" x="76.88" y="-559.9" font-family="Courier New" font-weight="bold" font-size="14.00">InterpolatedRegularExpressionNode</text>
<polygon fill="none" stroke="black" points="72,-525.2 72,-551.2 204,-551.2 204,-525.2 72,-525.2"/>
<text text-anchor="start" x="77" y="-532.9" font-family="Courier New" font-size="14.00">flags</text>
<polygon fill="none" stroke="black" points="204,-525.2 204,-551.2 354,-551.2 354,-525.2 204,-525.2"/>
<polygon fill="none" stroke="black" points="72,-499.2 72,-525.2 204,-525.2 204,-499.2 72,-499.2"/>
<text text-anchor="start" x="77" y="-506.9" font-family="Courier New" font-size="14.00">opening_loc</text>
<polygon fill="none" stroke="black" points="204,-499.2 204,-525.2 354,-525.2 354,-499.2 204,-499.2"/>
<text text-anchor="start" x="233.62" y="-506.9" font-family="Courier New" font-size="14.00">(1,0)&#45;(1,1)</text>
<polygon fill="none" stroke="black" points="72,-473.2 72,-499.2 354,-499.2 354,-473.2 72,-473.2"/>
<text text-anchor="start" x="77" y="-480.9" font-family="Courier New" font-size="14.00">parts</text>
<polygon fill="none" stroke="black" points="72,-447.2 72,-473.2 204,-473.2 204,-447.2 72,-447.2"/>
<text text-anchor="start" x="77" y="-454.9" font-family="Courier New" font-size="14.00">closing_loc</text>
<polygon fill="none" stroke="black" points="204,-447.2 204,-473.2 354,-473.2 354,-447.2 204,-447.2"/>
<text text-anchor="start" x="225.38" y="-454.9" font-family="Courier New" font-size="14.00">(1,11)&#45;(1,12)</text>
</g>
<!-- Node_60_parts -->
<g id="node6" class="node">
<title>Node_60_parts</title>
<ellipse fill="#f2f2f2" stroke="black" cx="213" cy="-409.4" rx="1.8" ry="1.8"/>
</g>
<!-- Node_60&#45;&gt;Node_60_parts -->
<g id="edge1" class="edge">
<title>Node_60:parts&#45;&gt;Node_60_parts</title>
<path fill="none" stroke="black" d="M355,-486.2C372.34,-486.2 364.77,-460.78 354,-447.2 337.85,-426.84 256.8,-415.46 225.43,-411.76"/>
<polygon fill="black" stroke="black" points="226.04,-408.19 215.72,-410.57 225.27,-415.15 226.04,-408.19"/>
</g>
<!-- Node_80 -->
<g id="node2" class="node">
<title>Node_80</title>
<polygon fill="#f2f2f2" stroke="none" points="200,-371.6 0,-371.6 0,-267.6 200,-267.6 200,-371.6"/>
<polygon fill="none" stroke="black" points="0,-345.6 0,-371.6 200,-371.6 200,-345.6 0,-345.6"/>
<text text-anchor="start" x="58.75" y="-354.3" font-family="Courier New" font-weight="bold" font-size="14.00">StringNode</text>
<polygon fill="none" stroke="black" points="0,-319.6 0,-345.6 100,-345.6 100,-319.6 0,-319.6"/>
<text text-anchor="start" x="5" y="-327.3" font-family="Courier New" font-size="14.00">flags</text>
<polygon fill="none" stroke="black" points="100,-319.6 100,-345.6 200,-345.6 200,-319.6 100,-319.6"/>
<polygon fill="none" stroke="black" points="0,-293.6 0,-319.6 100,-319.6 100,-293.6 0,-293.6"/>
<text text-anchor="start" x="4.62" y="-301.3" font-family="Courier New" font-size="14.00">content_loc</text>
<polygon fill="none" stroke="black" points="100,-293.6 100,-319.6 200,-319.6 200,-293.6 100,-293.6"/>
<text text-anchor="start" x="104.62" y="-301.3" font-family="Courier New" font-size="14.00">(1,1)&#45;(1,5)</text>
<polygon fill="none" stroke="black" points="0,-267.6 0,-293.6 100,-293.6 100,-267.6 0,-267.6"/>
<text text-anchor="start" x="5" y="-275.3" font-family="Courier New" font-size="14.00">unescaped</text>
<polygon fill="none" stroke="black" points="100,-267.6 100,-293.6 200,-293.6 200,-267.6 100,-267.6"/>
<text text-anchor="start" x="125.25" y="-275.3" font-family="Courier New" font-size="14.00">&quot;foo &quot;</text>
</g>
<!-- Node_100 -->
<g id="node3" class="node">
<title>Node_100</title>
<polygon fill="#f2f2f2" stroke="none" points="435.5,-371.6 218.5,-371.6 218.5,-267.6 435.5,-267.6 435.5,-371.6"/>
<polygon fill="none" stroke="black" points="218.5,-345.6 218.5,-371.6 435.5,-371.6 435.5,-345.6 218.5,-345.6"/>
<text text-anchor="start" x="236.25" y="-354.3" font-family="Courier New" font-weight="bold" font-size="14.00">EmbeddedStatementsNode</text>
<polygon fill="none" stroke="black" points="218.5,-319.6 218.5,-345.6 318.5,-345.6 318.5,-319.6 218.5,-319.6"/>
<text text-anchor="start" x="223.12" y="-327.3" font-family="Courier New" font-size="14.00">opening_loc</text>
<polygon fill="none" stroke="black" points="318.5,-319.6 318.5,-345.6 435.5,-345.6 435.5,-319.6 318.5,-319.6"/>
<text text-anchor="start" x="331.62" y="-327.3" font-family="Courier New" font-size="14.00">(1,5)&#45;(1,7)</text>
<polygon fill="none" stroke="black" points="218.5,-293.6 218.5,-319.6 435.5,-319.6 435.5,-293.6 218.5,-293.6"/>
<text text-anchor="start" x="223.5" y="-301.3" font-family="Courier New" font-size="14.00">statements</text>
<polygon fill="none" stroke="black" points="218.5,-267.6 218.5,-293.6 318.5,-293.6 318.5,-267.6 218.5,-267.6"/>
<text text-anchor="start" x="223.12" y="-275.3" font-family="Courier New" font-size="14.00">closing_loc</text>
<polygon fill="none" stroke="black" points="318.5,-267.6 318.5,-293.6 435.5,-293.6 435.5,-267.6 318.5,-267.6"/>
<text text-anchor="start" x="323.38" y="-275.3" font-family="Courier New" font-size="14.00">(1,10)&#45;(1,11)</text>
</g>
<!-- Node_120 -->
<g id="node4" class="node">
<title>Node_120</title>
<polygon fill="#f2f2f2" stroke="none" points="389.5,-231.6 264.5,-231.6 264.5,-179.6 389.5,-179.6 389.5,-231.6"/>
<polygon fill="none" stroke="black" points="264.5,-205.6 264.5,-231.6 389.5,-231.6 389.5,-205.6 264.5,-205.6"/>
<text text-anchor="start" x="269.25" y="-214.3" font-family="Courier New" font-weight="bold" font-size="14.00">StatementsNode</text>
<polygon fill="none" stroke="black" points="264.5,-179.6 264.5,-205.6 389.5,-205.6 389.5,-179.6 264.5,-179.6"/>
<text text-anchor="start" x="269.5" y="-187.3" font-family="Courier New" font-size="14.00">body</text>
</g>
<!-- Node_100&#45;&gt;Node_120 -->
<g id="edge4" class="edge">
<title>Node_100:statements&#45;&gt;Node_120</title>
<path fill="none" stroke="black" d="M437,-306.6C454.34,-306.6 444.96,-282.44 436,-267.6 427.18,-252.99 413.49,-241.61 398.75,-232.83"/>
<polygon fill="black" stroke="black" points="400.92,-229.48 390.48,-227.71 397.53,-235.61 400.92,-229.48"/>
</g>
<!-- Node_120_body -->
<g id="node7" class="node">
<title>Node_120_body</title>
<ellipse fill="#f2f2f2" stroke="black" cx="327" cy="-141.8" rx="1.8" ry="1.8"/>
</g>
<!-- Node_120&#45;&gt;Node_120_body -->
<g id="edge5" class="edge">
<title>Node_120:body&#45;&gt;Node_120_body</title>
<path fill="none" stroke="black" d="M327,-179.6C327,-171.36 327,-162.09 327,-154.91"/>
<polygon fill="black" stroke="black" points="330.5,-154.94 327,-144.94 323.5,-154.94 330.5,-154.94"/>
</g>
<!-- Node_140 -->
<g id="node5" class="node">
<title>Node_140</title>
<polygon fill="#f2f2f2" stroke="none" points="435.5,-104 218.5,-104 218.5,0 435.5,0 435.5,-104"/>
<polygon fill="none" stroke="black" points="218.5,-78 218.5,-104 435.5,-104 435.5,-78 218.5,-78"/>
<text text-anchor="start" x="294" y="-86.7" font-family="Courier New" font-weight="bold" font-size="14.00">CallNode</text>
<polygon fill="none" stroke="black" points="218.5,-52 218.5,-78 318.5,-78 318.5,-52 218.5,-52"/>
<text text-anchor="start" x="223.5" y="-59.7" font-family="Courier New" font-size="14.00">flags</text>
<polygon fill="none" stroke="black" points="318.5,-52 318.5,-78 435.5,-78 435.5,-52 318.5,-52"/>
<text text-anchor="start" x="323.38" y="-59.7" font-family="Courier New" font-size="14.00">variable_call</text>
<polygon fill="none" stroke="black" points="218.5,-26 218.5,-52 318.5,-52 318.5,-26 218.5,-26"/>
<text text-anchor="start" x="223.5" y="-33.7" font-family="Courier New" font-size="14.00">name</text>
<polygon fill="none" stroke="black" points="318.5,-26 318.5,-52 435.5,-52 435.5,-26 318.5,-26"/>
<text text-anchor="start" x="360.5" y="-33.7" font-family="Courier New" font-size="14.00">:bar</text>
<polygon fill="none" stroke="black" points="218.5,0 218.5,-26 318.5,-26 318.5,0 218.5,0"/>
<text text-anchor="start" x="223.12" y="-7.7" font-family="Courier New" font-size="14.00">message_loc</text>
<polygon fill="none" stroke="black" points="318.5,0 318.5,-26 435.5,-26 435.5,0 318.5,0"/>
<text text-anchor="start" x="327.5" y="-7.7" font-family="Courier New" font-size="14.00">(1,7)&#45;(1,10)</text>
</g>
<!-- Node_60_parts&#45;&gt;Node_80 -->
<g id="edge2" class="edge">
<title>Node_60_parts&#45;&gt;Node_80</title>
<path fill="none" stroke="black" d="M212.28,-407.84C208.76,-405.1 192.79,-392.7 173.95,-378.06"/>
<polygon fill="black" stroke="black" points="176.47,-374.81 166.43,-371.44 172.18,-380.34 176.47,-374.81"/>
</g>
<!-- Node_60_parts&#45;&gt;Node_100 -->
<g id="edge3" class="edge">
<title>Node_60_parts&#45;&gt;Node_100</title>
<path fill="none" stroke="black" d="M213.73,-407.84C217.28,-405.1 233.39,-392.7 252.39,-378.06"/>
<polygon fill="black" stroke="black" points="254.2,-380.31 259.99,-371.44 249.93,-374.77 254.2,-380.31"/>
</g>
<!-- Node_120_body&#45;&gt;Node_140 -->
<g id="edge6" class="edge">
<title>Node_120_body&#45;&gt;Node_140</title>
<path fill="none" stroke="black" d="M327,-139.56C327,-136.21 327,-126.41 327,-114.56"/>
<polygon fill="black" stroke="black" points="330.5,-114.72 327,-104.72 323.5,-114.72 330.5,-114.72"/>
</g>
</g>
</svg>
