<?xml version="1.0" encoding="UTF-8" standalone="no"?>
<!DOCTYPE svg PUBLIC "-//W3C//DTD SVG 1.1//EN"
 "http://www.w3.org/Graphics/SVG/1.1/DTD/svg11.dtd">
<!-- Generated by graphviz version 8.1.0 (20230707.0739)
 -->
<!-- Title: Prism Pages: 1 -->
<svg width="558pt" height="594pt"
 viewBox="0.00 0.00 558.18 594.00" xmlns="http://www.w3.org/2000/svg" xmlns:xlink="http://www.w3.org/1999/xlink">
<g id="graph0" class="graph" transform="scale(1 1) rotate(0) translate(4 590)">
<title>Prism</title>
<polygon fill="white" stroke="none" points="-4,4 -4,-590 554.18,-590 554.18,4 -4,4"/>
<!-- Node_60 -->
<g id="node1" class="node">
<title>Node_60</title>
<polygon fill="#f2f2f2" stroke="none" points="328.5,-586 69.5,-586 69.5,-404 328.5,-404 328.5,-586"/>
<polygon fill="none" stroke="black" points="69.5,-560 69.5,-586 328.5,-586 328.5,-560 69.5,-560"/>
<text text-anchor="start" x="174.25" y="-568.7" font-family="Courier New" font-weight="bold" font-size="14.00">IfNode</text>
<polygon fill="none" stroke="black" points="69.5,-534 69.5,-560 211.5,-560 211.5,-534 69.5,-534"/>
<text text-anchor="start" x="74.5" y="-541.7" font-family="Courier New" font-size="14.00">if_keyword_loc</text>
<polygon fill="none" stroke="black" points="211.5,-534 211.5,-560 328.5,-560 328.5,-534 211.5,-534"/>
<text text-anchor="start" x="224.62" y="-541.7" font-family="Courier New" font-size="14.00">(1,0)&#45;(1,2)</text>
<polygon fill="none" stroke="black" points="69.5,-508 69.5,-534 328.5,-534 328.5,-508 69.5,-508"/>
<text text-anchor="start" x="74.5" y="-515.7" font-family="Courier New" font-size="14.00">predicate</text>
<polygon fill="none" stroke="black" points="69.5,-482 69.5,-508 211.5,-508 211.5,-482 69.5,-482"/>
<text text-anchor="start" x="74.5" y="-489.7" font-family="Courier New" font-size="14.00">then_keyword_loc</text>
<polygon fill="none" stroke="black" points="211.5,-482 211.5,-508 328.5,-508 328.5,-482 211.5,-482"/>
<text text-anchor="start" x="224.62" y="-489.7" font-family="Courier New" font-size="14.00">(1,5)&#45;(1,9)</text>
<polygon fill="none" stroke="black" points="69.5,-456 69.5,-482 328.5,-482 328.5,-456 69.5,-456"/>
<text text-anchor="start" x="74.5" y="-463.7" font-family="Courier New" font-size="14.00">statements</text>
<polygon fill="none" stroke="black" points="69.5,-430 69.5,-456 328.5,-456 328.5,-430 69.5,-430"/>
<text text-anchor="start" x="74.5" y="-437.7" font-family="Courier New" font-size="14.00">consequent</text>
<polygon fill="none" stroke="black" points="69.5,-404 69.5,-430 211.5,-430 211.5,-404 69.5,-404"/>
<text text-anchor="start" x="74.5" y="-411.7" font-family="Courier New" font-size="14.00">end_keyword_loc</text>
<polygon fill="none" stroke="black" points="211.5,-404 211.5,-430 328.5,-430 328.5,-404 211.5,-404"/>
<text text-anchor="start" x="216.38" y="-411.7" font-family="Courier New" font-size="14.00">(1,19)&#45;(1,22)</text>
</g>
<!-- Node_80 -->
<g id="node2" class="node">
<title>Node_80</title>
<polygon fill="#f2f2f2" stroke="none" points="118,-342 0,-342 0,-290 118,-290 118,-342"/>
<polygon fill="none" stroke="black" points="0,-316 0,-342 118,-342 118,-316 0,-316"/>
<text text-anchor="start" x="13.62" y="-324.7" font-family="Courier New" font-weight="bold" font-size="14.00">IntegerNode</text>
<polygon fill="none" stroke="black" points="0,-290 0,-316 51,-316 51,-290 0,-290"/>
<text text-anchor="start" x="4.88" y="-297.7" font-family="Courier New" font-size="14.00">flags</text>
<polygon fill="none" stroke="black" points="51,-290 51,-316 118,-316 118,-290 51,-290"/>
<text text-anchor="start" x="55.62" y="-297.7" font-family="Courier New" font-size="14.00">decimal</text>
</g>
<!-- Node_60&#45;&gt;Node_80 -->
<g id="edge1" class="edge">
<title>Node_60:predicate&#45;&gt;Node_80</title>
<path fill="none" stroke="black" d="M68,-521C1.09,-521 27.95,-410.1 46.68,-351.84"/>
<polygon fill="black" stroke="black" points="50.25,-353.2 50.06,-342.61 43.6,-351 50.25,-353.2"/>
</g>
<!-- Node_100 -->
<g id="node3" class="node">
<title>Node_100</title>
<polygon fill="#f2f2f2" stroke="none" points="261.5,-342 136.5,-342 136.5,-290 261.5,-290 261.5,-342"/>
<polygon fill="none" stroke="black" points="136.5,-316 136.5,-342 261.5,-342 261.5,-316 136.5,-316"/>
<text text-anchor="start" x="141.25" y="-324.7" font-family="Courier New" font-weight="bold" font-size="14.00">StatementsNode</text>
<polygon fill="none" stroke="black" points="136.5,-290 136.5,-316 261.5,-316 261.5,-290 136.5,-290"/>
<text text-anchor="start" x="141.5" y="-297.7" font-family="Courier New" font-size="14.00">body</text>
</g>
<!-- Node_60&#45;&gt;Node_100 -->
<g id="edge2" class="edge">
<title>Node_60:statements&#45;&gt;Node_100</title>
<path fill="none" stroke="black" d="M330,-469C358.89,-469 343.33,-429.09 329,-404 313.76,-377.33 295.6,-384.97 270,-368 260.61,-361.77 250.69,-354.87 241.34,-348.2"/>
<polygon fill="black" stroke="black" points="243.75,-344.9 233.59,-341.91 239.66,-350.59 243.75,-344.9"/>
</g>
<!-- Node_120 -->
<g id="node5" class="node">
<title>Node_120</title>
<polygon fill="#f2f2f2" stroke="none" points="538.5,-368 279.5,-368 279.5,-264 538.5,-264 538.5,-368"/>
<polygon fill="none" stroke="black" points="279.5,-342 279.5,-368 538.5,-368 538.5,-342 279.5,-342"/>
<text text-anchor="start" x="376" y="-350.7" font-family="Courier New" font-weight="bold" font-size="14.00">ElseNode</text>
<polygon fill="none" stroke="black" points="279.5,-316 279.5,-342 421.5,-342 421.5,-316 279.5,-316"/>
<text text-anchor="start" x="284.5" y="-323.7" font-family="Courier New" font-size="14.00">else_keyword_loc</text>
<polygon fill="none" stroke="black" points="421.5,-316 421.5,-342 538.5,-342 538.5,-316 421.5,-316"/>
<text text-anchor="start" x="426.38" y="-323.7" font-family="Courier New" font-size="14.00">(1,12)&#45;(1,16)</text>
<polygon fill="none" stroke="black" points="279.5,-290 279.5,-316 538.5,-316 538.5,-290 279.5,-290"/>
<text text-anchor="start" x="284.5" y="-297.7" font-family="Courier New" font-size="14.00">statements</text>
<polygon fill="none" stroke="black" points="279.5,-264 279.5,-290 421.5,-290 421.5,-264 279.5,-264"/>
<text text-anchor="start" x="284.5" y="-271.7" font-family="Courier New" font-size="14.00">end_keyword_loc</text>
<polygon fill="none" stroke="black" points="421.5,-264 421.5,-290 538.5,-290 538.5,-264 421.5,-264"/>
<text text-anchor="start" x="426.38" y="-271.7" font-family="Courier New" font-size="14.00">(1,19)&#45;(1,22)</text>
</g>
<!-- Node_60&#45;&gt;Node_120 -->
<g id="edge3" class="edge">
<title>Node_60:consequent&#45;&gt;Node_120</title>
<path fill="none" stroke="black" d="M330,-443C363.67,-443 383.53,-410.31 394.92,-378.24"/>
<polygon fill="black" stroke="black" points="398.53,-379.48 398.33,-368.89 391.88,-377.29 398.53,-379.48"/>
</g>
<!-- Node_100_body -->
<g id="node8" class="node">
<title>Node_100_body</title>
<ellipse fill="#f2f2f2" stroke="black" cx="199" cy="-202" rx="1.8" ry="1.8"/>
</g>
<!-- Node_100&#45;&gt;Node_100_body -->
<g id="edge4" class="edge">
<title>Node_100:body&#45;&gt;Node_100_body</title>
<path fill="none" stroke="black" d="M199,-289C199,-262.61 199,-231.68 199,-215.04"/>
<polygon fill="black" stroke="black" points="202.5,-215.21 199,-205.21 195.5,-215.21 202.5,-215.21"/>
</g>
<!-- Node_140 -->
<g id="node4" class="node">
<title>Node_140</title>
<polygon fill="#f2f2f2" stroke="none" points="258,-140 140,-140 140,-88 258,-88 258,-140"/>
<polygon fill="none" stroke="black" points="140,-114 140,-140 258,-140 258,-114 140,-114"/>
<text text-anchor="start" x="153.62" y="-122.7" font-family="Courier New" font-weight="bold" font-size="14.00">IntegerNode</text>
<polygon fill="none" stroke="black" points="140,-88 140,-114 191,-114 191,-88 140,-88"/>
<text text-anchor="start" x="144.88" y="-95.7" font-family="Courier New" font-size="14.00">flags</text>
<polygon fill="none" stroke="black" points="191,-88 191,-114 258,-114 258,-88 191,-88"/>
<text text-anchor="start" x="195.62" y="-95.7" font-family="Courier New" font-size="14.00">decimal</text>
</g>
<!-- Node_160 -->
<g id="node6" class="node">
<title>Node_160</title>
<polygon fill="#f2f2f2" stroke="none" points="471.5,-228 346.5,-228 346.5,-176 471.5,-176 471.5,-228"/>
<polygon fill="none" stroke="black" points="346.5,-202 346.5,-228 471.5,-228 471.5,-202 346.5,-202"/>
<text text-anchor="start" x="351.25" y="-210.7" font-family="Courier New" font-weight="bold" font-size="14.00">StatementsNode</text>
<polygon fill="none" stroke="black" points="346.5,-176 346.5,-202 471.5,-202 471.5,-176 346.5,-176"/>
<text text-anchor="start" x="351.5" y="-183.7" font-family="Courier New" font-size="14.00">body</text>
</g>
<!-- Node_120&#45;&gt;Node_160 -->
<g id="edge6" class="edge">
<title>Node_120:statements&#45;&gt;Node_160</title>
<path fill="none" stroke="black" d="M540,-303C557.34,-303 548.49,-278.51 539,-264 525.69,-243.64 503.65,-229.94 481.46,-220.78"/>
<polygon fill="black" stroke="black" points="482.88,-217.19 472.29,-216.88 480.37,-223.73 482.88,-217.19"/>
</g>
<!-- Node_160_body -->
<g id="node9" class="node">
<title>Node_160_body</title>
<ellipse fill="#f2f2f2" stroke="black" cx="409" cy="-114" rx="1.8" ry="1.8"/>
</g>
<!-- Node_160&#45;&gt;Node_160_body -->
<g id="edge7" class="edge">
<title>Node_160:body&#45;&gt;Node_160_body</title>
<path fill="none" stroke="black" d="M409,-176C409,-158.92 409,-139.14 409,-126.85"/>
<polygon fill="black" stroke="black" points="412.5,-126.86 409,-116.86 405.5,-126.86 412.5,-126.86"/>
</g>
<!-- Node_180 -->
<g id="node7" class="node">
<title>Node_180</title>
<polygon fill="#f2f2f2" stroke="none" points="468,-52 350,-52 350,0 468,0 468,-52"/>
<polygon fill="none" stroke="black" points="350,-26 350,-52 468,-52 468,-26 350,-26"/>
<text text-anchor="start" x="363.62" y="-34.7" font-family="Courier New" font-weight="bold" font-size="14.00">IntegerNode</text>
<polygon fill="none" stroke="black" points="350,0 350,-26 401,-26 401,0 350,0"/>
<text text-anchor="start" x="354.88" y="-7.7" font-family="Courier New" font-size="14.00">flags</text>
<polygon fill="none" stroke="black" points="401,0 401,-26 468,-26 468,0 401,0"/>
<text text-anchor="start" x="405.62" y="-7.7" font-family="Courier New" font-size="14.00">decimal</text>
</g>
<!-- Node_100_body&#45;&gt;Node_140 -->
<g id="edge5" class="edge">
<title>Node_100_body&#45;&gt;Node_140</title>
<path fill="none" stroke="black" d="M199,-199.78C199,-194.32 199,-171.36 199,-150.72"/>
<polygon fill="black" stroke="black" points="202.5,-150.93 199,-140.93 195.5,-150.93 202.5,-150.93"/>
</g>
<!-- Node_160_body&#45;&gt;Node_180 -->
<g id="edge8" class="edge">
<title>Node_160_body&#45;&gt;Node_180</title>
<path fill="none" stroke="black" d="M409,-111.78C409,-106.32 409,-83.36 409,-62.72"/>
<polygon fill="black" stroke="black" points="412.5,-62.93 409,-52.93 405.5,-62.93 412.5,-62.93"/>
</g>
</g>
</svg>
