<?xml version="1.0" encoding="UTF-8" standalone="no"?>
<!DOCTYPE svg PUBLIC "-//W3C//DTD SVG 1.1//EN"
 "http://www.w3.org/Graphics/SVG/1.1/DTD/svg11.dtd">
<!-- Generated by graphviz version 8.1.0 (20230707.0739)
 -->
<!-- Title: Prism Pages: 1 -->
<svg width="277pt" height="252pt"
 viewBox="0.00 0.00 276.67 252.00" xmlns="http://www.w3.org/2000/svg" xmlns:xlink="http://www.w3.org/1999/xlink">
<g id="graph0" class="graph" transform="scale(1 1) rotate(0) translate(4 248)">
<title>Prism</title>
<polygon fill="white" stroke="none" points="-4,4 -4,-248 272.67,-248 272.67,4 -4,4"/>
<!-- Node_60 -->
<g id="node1" class="node">
<title>Node_60</title>
<polygon fill="#f2f2f2" stroke="none" points="257,-244 0,-244 0,-88 257,-88 257,-244"/>
<polygon fill="none" stroke="black" points="0,-218 0,-244 257,-244 257,-218 0,-218"/>
<text text-anchor="start" x="4.75" y="-226.7" font-family="Courier New" font-weight="bold" font-size="14.00">ClassVariableOperatorWriteNode</text>
<polygon fill="none" stroke="black" points="0,-192 0,-218 133,-218 133,-192 0,-192"/>
<text text-anchor="start" x="5" y="-199.7" font-family="Courier New" font-size="14.00">name</text>
<polygon fill="none" stroke="black" points="133,-192 133,-218 257,-218 257,-192 133,-192"/>
<text text-anchor="start" x="170.25" y="-199.7" font-family="Courier New" font-size="14.00">:@@foo</text>
<polygon fill="none" stroke="black" points="0,-166 0,-192 133,-192 133,-166 0,-166"/>
<text text-anchor="start" x="5" y="-173.7" font-family="Courier New" font-size="14.00">name_loc</text>
<polygon fill="none" stroke="black" points="133,-166 133,-192 257,-192 257,-166 133,-166"/>
<text text-anchor="start" x="149.62" y="-173.7" font-family="Courier New" font-size="14.00">(1,0)&#45;(1,5)</text>
<polygon fill="none" stroke="black" points="0,-140 0,-166 133,-166 133,-140 0,-140"/>
<text text-anchor="start" x="5" y="-147.7" font-family="Courier New" font-size="14.00">operator_loc</text>
<polygon fill="none" stroke="black" points="133,-140 133,-166 257,-166 257,-140 133,-140"/>
<text text-anchor="start" x="149.62" y="-147.7" font-family="Courier New" font-size="14.00">(1,6)&#45;(1,8)</text>
<polygon fill="none" stroke="black" points="0,-114 0,-140 257,-140 257,-114 0,-114"/>
<text text-anchor="start" x="5" y="-121.7" font-family="Courier New" font-size="14.00">value</text>
<polygon fill="none" stroke="black" points="0,-88 0,-114 133,-114 133,-88 0,-88"/>
<text text-anchor="start" x="5" y="-95.7" font-family="Courier New" font-size="14.00">operator</text>
<polygon fill="none" stroke="black" points="133,-88 133,-114 257,-114 257,-88 133,-88"/>
<text text-anchor="start" x="186.75" y="-95.7" font-family="Courier New" font-size="14.00">:+</text>
</g>
<!-- Node_80 -->
<g id="node2" class="node">
<title>Node_80</title>
<polygon fill="#f2f2f2" stroke="none" points="187.5,-52 69.5,-52 69.5,0 187.5,0 187.5,-52"/>
<polygon fill="none" stroke="black" points="69.5,-26 69.5,-52 187.5,-52 187.5,-26 69.5,-26"/>
<text text-anchor="start" x="83.12" y="-34.7" font-family="Courier New" font-weight="bold" font-size="14.00">IntegerNode</text>
<polygon fill="none" stroke="black" points="69.5,0 69.5,-26 120.5,-26 120.5,0 69.5,0"/>
<text text-anchor="start" x="74.38" y="-7.7" font-family="Courier New" font-size="14.00">flags</text>
<polygon fill="none" stroke="black" points="120.5,0 120.5,-26 187.5,-26 187.5,0 120.5,0"/>
<text text-anchor="start" x="125.12" y="-7.7" font-family="Courier New" font-size="14.00">decimal</text>
</g>
<!-- Node_60&#45;&gt;Node_80 -->
<g id="edge1" class="edge">
<title>Node_60:value&#45;&gt;Node_80</title>
<path fill="none" stroke="black" d="M258.5,-127C275.84,-127 266.96,-102.53 257.5,-88 243.72,-66.84 220.46,-52.86 197.46,-43.7"/>
<polygon fill="black" stroke="black" points="198.89,-40.13 188.3,-39.94 196.47,-46.69 198.89,-40.13"/>
</g>
</g>
</svg>
