<?xml version="1.0" encoding="UTF-8" standalone="no"?>
<!DOCTYPE svg PUBLIC "-//W3C//DTD SVG 1.1//EN"
 "http://www.w3.org/Graphics/SVG/1.1/DTD/svg11.dtd">
<!-- Generated by graphviz version 8.1.0 (20230707.0739)
 -->
<!-- Title: Prism Pages: 1 -->
<svg width="126pt" height="236pt"
 viewBox="0.00 0.00 126.00 236.00" xmlns="http://www.w3.org/2000/svg" xmlns:xlink="http://www.w3.org/1999/xlink">
<g id="graph0" class="graph" transform="scale(1 1) rotate(0) translate(4 232)">
<title>Prism</title>
<polygon fill="white" stroke="none" points="-4,4 -4,-232 122,-232 122,4 -4,4"/>
<!-- Node_60 -->
<g id="node1" class="node">
<title>Node_60</title>
<polygon fill="#f2f2f2" stroke="none" points="117.5,-228 0.5,-228 0.5,-176 117.5,-176 117.5,-228"/>
<polygon fill="none" stroke="black" points="0.5,-202 0.5,-228 117.5,-228 117.5,-202 0.5,-202"/>
<text text-anchor="start" x="5.38" y="-210.7" font-family="Courier New" font-weight="bold" font-size="14.00">ImaginaryNode</text>
<polygon fill="none" stroke="black" points="0.5,-176 0.5,-202 117.5,-202 117.5,-176 0.5,-176"/>
<text text-anchor="start" x="5.5" y="-183.7" font-family="Courier New" font-size="14.00">numeric</text>
</g>
<!-- Node_80 -->
<g id="node2" class="node">
<title>Node_80</title>
<polygon fill="#f2f2f2" stroke="none" points="113.5,-140 4.5,-140 4.5,-88 113.5,-88 113.5,-140"/>
<polygon fill="none" stroke="black" points="4.5,-114 4.5,-140 113.5,-140 113.5,-114 4.5,-114"/>
<text text-anchor="start" x="9.5" y="-122.7" font-family="Courier New" font-weight="bold" font-size="14.00">RationalNode</text>
<polygon fill="none" stroke="black" points="4.5,-88 4.5,-114 113.5,-114 113.5,-88 4.5,-88"/>
<text text-anchor="start" x="9.5" y="-95.7" font-family="Courier New" font-size="14.00">numeric</text>
</g>
<!-- Node_60&#45;&gt;Node_80 -->
<g id="edge1" class="edge">
<title>Node_60:numeric&#45;&gt;Node_80</title>
<path fill="none" stroke="black" d="M59,-176C59,-167.85 59,-159.08 59,-150.8"/>
<polygon fill="black" stroke="black" points="62.5,-150.93 59,-140.93 55.5,-150.93 62.5,-150.93"/>
</g>
<!-- Node_100 -->
<g id="node3" class="node">
<title>Node_100</title>
<polygon fill="#f2f2f2" stroke="none" points="118,-52 0,-52 0,0 118,0 118,-52"/>
<polygon fill="none" stroke="black" points="0,-26 0,-52 118,-52 118,-26 0,-26"/>
<text text-anchor="start" x="13.62" y="-34.7" font-family="Courier New" font-weight="bold" font-size="14.00">IntegerNode</text>
<polygon fill="none" stroke="black" points="0,0 0,-26 51,-26 51,0 0,0"/>
<text text-anchor="start" x="4.88" y="-7.7" font-family="Courier New" font-size="14.00">flags</text>
<polygon fill="none" stroke="black" points="51,0 51,-26 118,-26 118,0 51,0"/>
<text text-anchor="start" x="55.62" y="-7.7" font-family="Courier New" font-size="14.00">decimal</text>
</g>
<!-- Node_80&#45;&gt;Node_100 -->
<g id="edge2" class="edge">
<title>Node_80:numeric&#45;&gt;Node_100</title>
<path fill="none" stroke="black" d="M59,-88C59,-79.85 59,-71.08 59,-62.8"/>
<polygon fill="black" stroke="black" points="62.5,-62.93 59,-52.93 55.5,-62.93 62.5,-62.93"/>
</g>
</g>
</svg>
