<?xml version="1.0" encoding="UTF-8" standalone="no"?>
<!DOCTYPE svg PUBLIC "-//W3C//DTD SVG 1.1//EN"
 "http://www.w3.org/Graphics/SVG/1.1/DTD/svg11.dtd">
<!-- Generated by graphviz version 8.1.0 (20230707.0739)
 -->
<!-- Title: Prism Pages: 1 -->
<svg width="224pt" height="60pt"
 viewBox="0.00 0.00 224.00 60.00" xmlns="http://www.w3.org/2000/svg" xmlns:xlink="http://www.w3.org/1999/xlink">
<g id="graph0" class="graph" transform="scale(1 1) rotate(0) translate(4 56)">
<title>Prism</title>
<polygon fill="white" stroke="none" points="-4,4 -4,-56 220,-56 220,4 -4,4"/>
<!-- Node_60 -->
<g id="node1" class="node">
<title>Node_60</title>
<polygon fill="#f2f2f2" stroke="none" points="216,-52 0,-52 0,0 216,0 216,-52"/>
<polygon fill="none" stroke="black" points="0,-26 0,-52 216,-52 216,-26 0,-26"/>
<text text-anchor="start" x="4.88" y="-34.7" font-family="Courier New" font-weight="bold" font-size="14.00">NumberedReferenceReadNode</text>
<polygon fill="none" stroke="black" points="0,0 0,-26 128,-26 128,0 0,0"/>
<text text-anchor="start" x="5" y="-7.7" font-family="Courier New" font-size="14.00">number</text>
<polygon fill="none" stroke="black" points="128,0 128,-26 216,-26 216,0 128,0"/>
<text text-anchor="start" x="167.88" y="-7.7" font-family="Courier New" font-size="14.00">1</text>
</g>
</g>
</svg>
