<?xml version="1.0" encoding="UTF-8" standalone="no"?>
<!DOCTYPE svg PUBLIC "-//W3C//DTD SVG 1.1//EN"
 "http://www.w3.org/Graphics/SVG/1.1/DTD/svg11.dtd">
<!-- Generated by graphviz version 8.1.0 (20230707.0739)
 -->
<!-- Title: Prism Pages: 1 -->
<svg width="262pt" height="380pt"
 viewBox="0.00 0.00 262.04 380.10" xmlns="http://www.w3.org/2000/svg" xmlns:xlink="http://www.w3.org/1999/xlink">
<g id="graph0" class="graph" transform="scale(1 1) rotate(0) translate(4 376.1)">
<title>Prism</title>
<polygon fill="white" stroke="none" points="-4,4 -4,-376.1 258.04,-376.1 258.04,4 -4,4"/>
<!-- Node_60 -->
<g id="node1" class="node">
<title>Node_60</title>
<polygon fill="#f2f2f2" stroke="none" points="227.54,-372.1 27.54,-372.1 27.54,-216.1 227.54,-216.1 227.54,-372.1"/>
<polygon fill="none" stroke="black" points="27.54,-346.1 27.54,-372.1 227.54,-372.1 227.54,-346.1 27.54,-346.1"/>
<text text-anchor="start" x="94.54" y="-354.8" font-family="Courier New" font-weight="bold" font-size="14.00">CallNode</text>
<polygon fill="none" stroke="black" points="27.54,-320.1 27.54,-346.1 127.54,-346.1 127.54,-320.1 27.54,-320.1"/>
<text text-anchor="start" x="32.54" y="-327.8" font-family="Courier New" font-size="14.00">flags</text>
<polygon fill="none" stroke="black" points="127.54,-320.1 127.54,-346.1 227.54,-346.1 227.54,-320.1 127.54,-320.1"/>
<polygon fill="none" stroke="black" points="27.54,-294.1 27.54,-320.1 227.54,-320.1 227.54,-294.1 27.54,-294.1"/>
<text text-anchor="start" x="32.54" y="-301.8" font-family="Courier New" font-size="14.00">receiver</text>
<polygon fill="none" stroke="black" points="27.54,-268.1 27.54,-294.1 127.54,-294.1 127.54,-268.1 27.54,-268.1"/>
<text text-anchor="start" x="32.54" y="-275.8" font-family="Courier New" font-size="14.00">name</text>
<polygon fill="none" stroke="black" points="127.54,-268.1 127.54,-294.1 227.54,-294.1 227.54,-268.1 127.54,-268.1"/>
<text text-anchor="start" x="169.29" y="-275.8" font-family="Courier New" font-size="14.00">:+</text>
<polygon fill="none" stroke="black" points="27.54,-242.1 27.54,-268.1 127.54,-268.1 127.54,-242.1 27.54,-242.1"/>
<text text-anchor="start" x="32.16" y="-249.8" font-family="Courier New" font-size="14.00">message_loc</text>
<polygon fill="none" stroke="black" points="127.54,-242.1 127.54,-268.1 227.54,-268.1 227.54,-242.1 127.54,-242.1"/>
<text text-anchor="start" x="132.16" y="-249.8" font-family="Courier New" font-size="14.00">(1,2)&#45;(1,3)</text>
<polygon fill="none" stroke="black" points="27.54,-216.1 27.54,-242.1 227.54,-242.1 227.54,-216.1 27.54,-216.1"/>
<text text-anchor="start" x="32.54" y="-223.8" font-family="Courier New" font-size="14.00">arguments</text>
</g>
<!-- Node_80 -->
<g id="node2" class="node">
<title>Node_80</title>
<polygon fill="#f2f2f2" stroke="none" points="118.54,-167.1 0.54,-167.1 0.54,-115.1 118.54,-115.1 118.54,-167.1"/>
<polygon fill="none" stroke="black" points="0.54,-141.1 0.54,-167.1 118.54,-167.1 118.54,-141.1 0.54,-141.1"/>
<text text-anchor="start" x="14.16" y="-149.8" font-family="Courier New" font-weight="bold" font-size="14.00">IntegerNode</text>
<polygon fill="none" stroke="black" points="0.54,-115.1 0.54,-141.1 51.54,-141.1 51.54,-115.1 0.54,-115.1"/>
<text text-anchor="start" x="5.41" y="-122.8" font-family="Courier New" font-size="14.00">flags</text>
<polygon fill="none" stroke="black" points="51.54,-115.1 51.54,-141.1 118.54,-141.1 118.54,-115.1 51.54,-115.1"/>
<text text-anchor="start" x="56.16" y="-122.8" font-family="Courier New" font-size="14.00">decimal</text>
</g>
<!-- Node_60&#45;&gt;Node_80 -->
<g id="edge1" class="edge">
<title>Node_60:receiver&#45;&gt;Node_80</title>
<path fill="none" stroke="black" d="M26.54,-307.1C-26.35,-307.1 12.06,-224.59 39.1,-176.27"/>
<polygon fill="black" stroke="black" points="42.58,-178.22 44.49,-167.8 36.5,-174.76 42.58,-178.22"/>
</g>
<!-- Node_100 -->
<g id="node3" class="node">
<title>Node_100</title>
<polygon fill="#f2f2f2" stroke="none" points="254.04,-180.1 137.04,-180.1 137.04,-102.1 254.04,-102.1 254.04,-180.1"/>
<polygon fill="none" stroke="black" points="137.04,-154.1 137.04,-180.1 254.04,-180.1 254.04,-154.1 137.04,-154.1"/>
<text text-anchor="start" x="141.91" y="-162.8" font-family="Courier New" font-weight="bold" font-size="14.00">ArgumentsNode</text>
<polygon fill="none" stroke="black" points="137.04,-128.1 137.04,-154.1 216.04,-154.1 216.04,-128.1 137.04,-128.1"/>
<text text-anchor="start" x="142.04" y="-135.8" font-family="Courier New" font-size="14.00">flags</text>
<polygon fill="none" stroke="black" points="216.04,-128.1 216.04,-154.1 254.04,-154.1 254.04,-128.1 216.04,-128.1"/>
<polygon fill="none" stroke="black" points="137.04,-102.1 137.04,-128.1 254.04,-128.1 254.04,-102.1 137.04,-102.1"/>
<text text-anchor="start" x="142.04" y="-109.8" font-family="Courier New" font-size="14.00">arguments</text>
</g>
<!-- Node_60&#45;&gt;Node_100 -->
<g id="edge2" class="edge">
<title>Node_60:arguments&#45;&gt;Node_100</title>
<path fill="none" stroke="black" d="M228.54,-229.1C248.1,-229.1 241.77,-209.64 229.67,-189.12"/>
<polygon fill="black" stroke="black" points="232.25,-187.64 223.99,-181.01 226.31,-191.34 232.25,-187.64"/>
</g>
<!-- Node_100_arguments -->
<g id="node5" class="node">
<title>Node_100_arguments</title>
<ellipse fill="#f2f2f2" stroke="black" cx="195.54" cy="-64.3" rx="1.8" ry="1.8"/>
</g>
<!-- Node_100&#45;&gt;Node_100_arguments -->
<g id="edge3" class="edge">
<title>Node_100:arguments&#45;&gt;Node_100_arguments</title>
<path fill="none" stroke="black" d="M195.54,-102.1C195.54,-93.86 195.54,-84.59 195.54,-77.41"/>
<polygon fill="black" stroke="black" points="199.04,-77.44 195.54,-67.44 192.04,-77.44 199.04,-77.44"/>
</g>
<!-- Node_120 -->
<g id="node4" class="node">
<title>Node_120</title>
<polygon fill="#f2f2f2" stroke="none" points="246.41,-26.5 144.66,-26.5 144.66,0 246.41,0 246.41,-26.5"/>
<polygon fill="none" stroke="black" points="144.66,0 144.66,-26.5 246.41,-26.5 246.41,0 144.66,0"/>
<text text-anchor="start" x="150.16" y="-9.2" font-family="Courier New" font-weight="bold" font-size="14.00">MissingNode</text>
</g>
<!-- Node_100_arguments&#45;&gt;Node_120 -->
<g id="edge4" class="edge">
<title>Node_100_arguments&#45;&gt;Node_120</title>
<path fill="none" stroke="black" d="M195.54,-62.09C195.54,-58.53 195.54,-47.74 195.54,-37.3"/>
<polygon fill="black" stroke="black" points="199.04,-37.47 195.54,-27.47 192.04,-37.47 199.04,-37.47"/>
</g>
</g>
</svg>
