<?xml version="1.0" encoding="UTF-8" standalone="no"?>
<!DOCTYPE svg PUBLIC "-//W3C//DTD SVG 1.1//EN"
 "http://www.w3.org/Graphics/SVG/1.1/DTD/svg11.dtd">
<!-- Generated by graphviz version 8.1.0 (20230707.0739)
 -->
<!-- Title: Prism Pages: 1 -->
<svg width="471pt" height="366pt"
 viewBox="0.00 0.00 471.39 366.00" xmlns="http://www.w3.org/2000/svg" xmlns:xlink="http://www.w3.org/1999/xlink">
<g id="graph0" class="graph" transform="scale(1 1) rotate(0) translate(4 362)">
<title>Prism</title>
<polygon fill="white" stroke="none" points="-4,4 -4,-362 467.39,-362 467.39,4 -4,4"/>
<!-- Node_60 -->
<g id="node1" class="node">
<title>Node_60</title>
<polygon fill="#f2f2f2" stroke="none" points="328,-358 119,-358 119,-254 328,-254 328,-358"/>
<polygon fill="none" stroke="black" points="119,-332 119,-358 328,-358 328,-332 119,-332"/>
<text text-anchor="start" x="149.25" y="-340.7" font-family="Courier New" font-weight="bold" font-size="14.00">MatchPredicateNode</text>
<polygon fill="none" stroke="black" points="119,-306 119,-332 328,-332 328,-306 119,-306"/>
<text text-anchor="start" x="124" y="-313.7" font-family="Courier New" font-size="14.00">value</text>
<polygon fill="none" stroke="black" points="119,-280 119,-306 328,-306 328,-280 119,-280"/>
<text text-anchor="start" x="124" y="-287.7" font-family="Courier New" font-size="14.00">pattern</text>
<polygon fill="none" stroke="black" points="119,-254 119,-280 228,-280 228,-254 119,-254"/>
<text text-anchor="start" x="124" y="-261.7" font-family="Courier New" font-size="14.00">operator_loc</text>
<polygon fill="none" stroke="black" points="228,-254 228,-280 328,-280 328,-254 228,-254"/>
<text text-anchor="start" x="232.62" y="-261.7" font-family="Courier New" font-size="14.00">(2,4)&#45;(2,6)</text>
</g>
<!-- Node_80 -->
<g id="node2" class="node">
<title>Node_80</title>
<polygon fill="#f2f2f2" stroke="none" points="217,-218 0,-218 0,-114 217,-114 217,-218"/>
<polygon fill="none" stroke="black" points="0,-192 0,-218 217,-218 217,-192 0,-192"/>
<text text-anchor="start" x="75.5" y="-200.7" font-family="Courier New" font-weight="bold" font-size="14.00">CallNode</text>
<polygon fill="none" stroke="black" points="0,-166 0,-192 100,-192 100,-166 0,-166"/>
<text text-anchor="start" x="5" y="-173.7" font-family="Courier New" font-size="14.00">flags</text>
<polygon fill="none" stroke="black" points="100,-166 100,-192 217,-192 217,-166 100,-166"/>
<text text-anchor="start" x="104.88" y="-173.7" font-family="Courier New" font-size="14.00">variable_call</text>
<polygon fill="none" stroke="black" points="0,-140 0,-166 100,-166 100,-140 0,-140"/>
<text text-anchor="start" x="5" y="-147.7" font-family="Courier New" font-size="14.00">name</text>
<polygon fill="none" stroke="black" points="100,-140 100,-166 217,-166 217,-140 100,-140"/>
<text text-anchor="start" x="142" y="-147.7" font-family="Courier New" font-size="14.00">:foo</text>
<polygon fill="none" stroke="black" points="0,-114 0,-140 100,-140 100,-114 0,-114"/>
<text text-anchor="start" x="4.62" y="-121.7" font-family="Courier New" font-size="14.00">message_loc</text>
<polygon fill="none" stroke="black" points="100,-114 100,-140 217,-140 217,-114 100,-114"/>
<text text-anchor="start" x="113.12" y="-121.7" font-family="Courier New" font-size="14.00">(2,0)&#45;(2,3)</text>
</g>
<!-- Node_60&#45;&gt;Node_80 -->
<g id="edge1" class="edge">
<title>Node_60:value&#45;&gt;Node_80</title>
<path fill="none" stroke="black" d="M117.5,-319C79.24,-319 81.36,-270.41 90.44,-228.18"/>
<polygon fill="black" stroke="black" points="94.04,-229.14 92.88,-218.61 87.22,-227.57 94.04,-229.14"/>
</g>
<!-- Node_100 -->
<g id="node3" class="node">
<title>Node_100</title>
<polygon fill="#f2f2f2" stroke="none" points="444,-205 235,-205 235,-127 444,-127 444,-205"/>
<polygon fill="none" stroke="black" points="235,-179 235,-205 444,-205 444,-179 235,-179"/>
<text text-anchor="start" x="265.25" y="-187.7" font-family="Courier New" font-weight="bold" font-size="14.00">PinnedVariableNode</text>
<polygon fill="none" stroke="black" points="235,-153 235,-179 444,-179 444,-153 235,-153"/>
<text text-anchor="start" x="240" y="-160.7" font-family="Courier New" font-size="14.00">variable</text>
<polygon fill="none" stroke="black" points="235,-127 235,-153 344,-153 344,-127 235,-127"/>
<text text-anchor="start" x="240" y="-134.7" font-family="Courier New" font-size="14.00">operator_loc</text>
<polygon fill="none" stroke="black" points="344,-127 344,-153 444,-153 444,-127 344,-127"/>
<text text-anchor="start" x="348.62" y="-134.7" font-family="Courier New" font-size="14.00">(2,7)&#45;(2,8)</text>
</g>
<!-- Node_60&#45;&gt;Node_100 -->
<g id="edge2" class="edge">
<title>Node_60:pattern&#45;&gt;Node_100</title>
<path fill="none" stroke="black" d="M329.5,-293C362.05,-293 360.24,-250.68 352.95,-215.1"/>
<polygon fill="black" stroke="black" points="356.25,-214.81 350.66,-205.8 349.42,-216.33 356.25,-214.81"/>
</g>
<!-- Node_120 -->
<g id="node4" class="node">
<title>Node_120</title>
<polygon fill="#f2f2f2" stroke="none" points="431,-78 248,-78 248,0 431,0 431,-78"/>
<polygon fill="none" stroke="black" points="248,-52 248,-78 431,-78 431,-52 248,-52"/>
<text text-anchor="start" x="252.88" y="-60.7" font-family="Courier New" font-weight="bold" font-size="14.00">LocalVariableReadNode</text>
<polygon fill="none" stroke="black" points="248,-26 248,-52 343,-52 343,-26 248,-26"/>
<text text-anchor="start" x="253" y="-33.7" font-family="Courier New" font-size="14.00">name</text>
<polygon fill="none" stroke="black" points="343,-26 343,-52 431,-52 431,-26 343,-26"/>
<text text-anchor="start" x="370.5" y="-33.7" font-family="Courier New" font-size="14.00">:bar</text>
<polygon fill="none" stroke="black" points="248,0 248,-26 343,-26 343,0 248,0"/>
<text text-anchor="start" x="253" y="-7.7" font-family="Courier New" font-size="14.00">depth</text>
<polygon fill="none" stroke="black" points="343,0 343,-26 431,-26 431,0 343,0"/>
<text text-anchor="start" x="382.88" y="-7.7" font-family="Courier New" font-size="14.00">0</text>
</g>
<!-- Node_100&#45;&gt;Node_120 -->
<g id="edge3" class="edge">
<title>Node_100:variable&#45;&gt;Node_120</title>
<path fill="none" stroke="black" d="M445.5,-166C489.27,-166 442.75,-120.92 398.3,-84.68"/>
<polygon fill="black" stroke="black" points="400.74,-81.35 390.75,-77.8 396.35,-86.8 400.74,-81.35"/>
</g>
</g>
</svg>
