<?xml version="1.0" encoding="UTF-8" standalone="no"?>
<!DOCTYPE svg PUBLIC "-//W3C//DTD SVG 1.1//EN"
 "http://www.w3.org/Graphics/SVG/1.1/DTD/svg11.dtd">
<!-- Generated by graphviz version 8.1.0 (20230707.0739)
 -->
<!-- Title: Prism Pages: 1 -->
<svg width="228pt" height="226pt"
 viewBox="0.00 0.00 228.47 226.00" xmlns="http://www.w3.org/2000/svg" xmlns:xlink="http://www.w3.org/1999/xlink">
<g id="graph0" class="graph" transform="scale(1 1) rotate(0) translate(4 222)">
<title>Prism</title>
<polygon fill="white" stroke="none" points="-4,4 -4,-222 224.47,-222 224.47,4 -4,4"/>
<!-- Node_60 -->
<g id="node1" class="node">
<title>Node_60</title>
<polygon fill="#f2f2f2" stroke="none" points="209,-218 0,-218 0,-88 209,-88 209,-218"/>
<polygon fill="none" stroke="black" points="0,-192 0,-218 209,-218 209,-192 0,-192"/>
<text text-anchor="start" x="13.75" y="-200.7" font-family="Courier New" font-weight="bold" font-size="14.00">ClassVariableWriteNode</text>
<polygon fill="none" stroke="black" points="0,-166 0,-192 109,-192 109,-166 0,-166"/>
<text text-anchor="start" x="5" y="-173.7" font-family="Courier New" font-size="14.00">name</text>
<polygon fill="none" stroke="black" points="109,-166 109,-192 209,-192 209,-166 109,-166"/>
<text text-anchor="start" x="134.25" y="-173.7" font-family="Courier New" font-size="14.00">:@@foo</text>
<polygon fill="none" stroke="black" points="0,-140 0,-166 109,-166 109,-140 0,-140"/>
<text text-anchor="start" x="5" y="-147.7" font-family="Courier New" font-size="14.00">name_loc</text>
<polygon fill="none" stroke="black" points="109,-140 109,-166 209,-166 209,-140 109,-140"/>
<text text-anchor="start" x="113.62" y="-147.7" font-family="Courier New" font-size="14.00">(1,0)&#45;(1,5)</text>
<polygon fill="none" stroke="black" points="0,-114 0,-140 209,-140 209,-114 0,-114"/>
<text text-anchor="start" x="5" y="-121.7" font-family="Courier New" font-size="14.00">value</text>
<polygon fill="none" stroke="black" points="0,-88 0,-114 109,-114 109,-88 0,-88"/>
<text text-anchor="start" x="5" y="-95.7" font-family="Courier New" font-size="14.00">operator_loc</text>
<polygon fill="none" stroke="black" points="109,-88 109,-114 209,-114 209,-88 109,-88"/>
<text text-anchor="start" x="113.62" y="-95.7" font-family="Courier New" font-size="14.00">(1,6)&#45;(1,7)</text>
</g>
<!-- Node_80 -->
<g id="node2" class="node">
<title>Node_80</title>
<polygon fill="#f2f2f2" stroke="none" points="163.5,-52 45.5,-52 45.5,0 163.5,0 163.5,-52"/>
<polygon fill="none" stroke="black" points="45.5,-26 45.5,-52 163.5,-52 163.5,-26 45.5,-26"/>
<text text-anchor="start" x="59.12" y="-34.7" font-family="Courier New" font-weight="bold" font-size="14.00">IntegerNode</text>
<polygon fill="none" stroke="black" points="45.5,0 45.5,-26 96.5,-26 96.5,0 45.5,0"/>
<text text-anchor="start" x="50.38" y="-7.7" font-family="Courier New" font-size="14.00">flags</text>
<polygon fill="none" stroke="black" points="96.5,0 96.5,-26 163.5,-26 163.5,0 96.5,0"/>
<text text-anchor="start" x="101.12" y="-7.7" font-family="Courier New" font-size="14.00">decimal</text>
</g>
<!-- Node_60&#45;&gt;Node_80 -->
<g id="edge1" class="edge">
<title>Node_60:value&#45;&gt;Node_80</title>
<path fill="none" stroke="black" d="M210.5,-127C227.84,-127 218.34,-102.92 209.5,-88 200.82,-73.36 187.17,-61.88 172.55,-53.03"/>
<polygon fill="black" stroke="black" points="174.79,-49.72 164.36,-47.86 171.35,-55.82 174.79,-49.72"/>
</g>
</g>
</svg>
