<?xml version="1.0" encoding="UTF-8" standalone="no"?>
<!DOCTYPE svg PUBLIC "-//W3C//DTD SVG 1.1//EN"
 "http://www.w3.org/Graphics/SVG/1.1/DTD/svg11.dtd">
<!-- Generated by graphviz version 8.1.0 (20230707.0739)
 -->
<!-- Title: Prism Pages: 1 -->
<svg width="407pt" height="366pt"
 viewBox="0.00 0.00 407.00 366.00" xmlns="http://www.w3.org/2000/svg" xmlns:xlink="http://www.w3.org/1999/xlink">
<g id="graph0" class="graph" transform="scale(1 1) rotate(0) translate(4 362)">
<title>Prism</title>
<polygon fill="white" stroke="none" points="-4,4 -4,-362 403,-362 403,4 -4,4"/>
<!-- Node_60 -->
<g id="node1" class="node">
<title>Node_60</title>
<polygon fill="#f2f2f2" stroke="none" points="325,-358 116,-358 116,-202 325,-202 325,-358"/>
<polygon fill="none" stroke="black" points="116,-332 116,-358 325,-358 325,-332 116,-332"/>
<text text-anchor="start" x="162.75" y="-340.7" font-family="Courier New" font-weight="bold" font-size="14.00">MultiWriteNode</text>
<polygon fill="none" stroke="black" points="116,-306 116,-332 325,-332 325,-306 116,-306"/>
<text text-anchor="start" x="121" y="-313.7" font-family="Courier New" font-size="14.00">lefts</text>
<polygon fill="none" stroke="black" points="116,-280 116,-306 325,-306 325,-280 116,-280"/>
<text text-anchor="start" x="121" y="-287.7" font-family="Courier New" font-size="14.00">rest</text>
<polygon fill="none" stroke="black" points="116,-254 116,-280 225,-280 225,-254 116,-254"/>
<text text-anchor="start" x="121" y="-261.7" font-family="Courier New" font-size="14.00">rights</text>
<polygon fill="none" stroke="black" points="225,-254 225,-280 325,-280 325,-254 225,-254"/>
<text text-anchor="start" x="266.75" y="-261.7" font-family="Courier New" font-size="14.00">[]</text>
<polygon fill="none" stroke="black" points="116,-228 116,-254 225,-254 225,-228 116,-228"/>
<text text-anchor="start" x="121" y="-235.7" font-family="Courier New" font-size="14.00">operator_loc</text>
<polygon fill="none" stroke="black" points="225,-228 225,-254 325,-254 325,-228 225,-228"/>
<text text-anchor="start" x="229.62" y="-235.7" font-family="Courier New" font-size="14.00">(1,5)&#45;(1,6)</text>
<polygon fill="none" stroke="black" points="116,-202 116,-228 325,-228 325,-202 116,-202"/>
<text text-anchor="start" x="121" y="-209.7" font-family="Courier New" font-size="14.00">value</text>
</g>
<!-- Node_100 -->
<g id="node3" class="node">
<title>Node_100</title>
<polygon fill="#f2f2f2" stroke="none" points="143,-153.25 0,-153.25 0,-126.75 143,-126.75 143,-153.25"/>
<polygon fill="none" stroke="black" points="0,-126.75 0,-153.25 143,-153.25 143,-126.75 0,-126.75"/>
<text text-anchor="start" x="5.5" y="-135.95" font-family="Courier New" font-weight="bold" font-size="14.00">ImplicitRestNode</text>
</g>
<!-- Node_60&#45;&gt;Node_100 -->
<g id="edge3" class="edge">
<title>Node_60:rest&#45;&gt;Node_100</title>
<path fill="none" stroke="black" d="M114.5,-293C61.48,-293 64.02,-206.32 68.44,-163.87"/>
<polygon fill="black" stroke="black" points="72,-164.52 69.69,-154.18 65.05,-163.71 72,-164.52"/>
</g>
<!-- Node_120 -->
<g id="node4" class="node">
<title>Node_120</title>
<polygon fill="#f2f2f2" stroke="none" points="279.5,-166 161.5,-166 161.5,-114 279.5,-114 279.5,-166"/>
<polygon fill="none" stroke="black" points="161.5,-140 161.5,-166 279.5,-166 279.5,-140 161.5,-140"/>
<text text-anchor="start" x="175.12" y="-148.7" font-family="Courier New" font-weight="bold" font-size="14.00">IntegerNode</text>
<polygon fill="none" stroke="black" points="161.5,-114 161.5,-140 212.5,-140 212.5,-114 161.5,-114"/>
<text text-anchor="start" x="166.38" y="-121.7" font-family="Courier New" font-size="14.00">flags</text>
<polygon fill="none" stroke="black" points="212.5,-114 212.5,-140 279.5,-140 279.5,-114 212.5,-114"/>
<text text-anchor="start" x="217.12" y="-121.7" font-family="Courier New" font-size="14.00">decimal</text>
</g>
<!-- Node_60&#45;&gt;Node_120 -->
<g id="edge4" class="edge">
<title>Node_60:value&#45;&gt;Node_120</title>
<path fill="none" stroke="black" d="M220.5,-202C220.5,-193.85 220.5,-185.08 220.5,-176.8"/>
<polygon fill="black" stroke="black" points="224,-176.93 220.5,-166.93 217,-176.93 224,-176.93"/>
</g>
<!-- Node_60_lefts -->
<g id="node5" class="node">
<title>Node_60_lefts</title>
<ellipse fill="#f2f2f2" stroke="black" cx="299.5" cy="-140" rx="1.8" ry="1.8"/>
</g>
<!-- Node_60&#45;&gt;Node_60_lefts -->
<g id="edge1" class="edge">
<title>Node_60:lefts&#45;&gt;Node_60_lefts</title>
<path fill="none" stroke="black" d="M326.5,-319C394.72,-319 326.98,-189.61 305.53,-151.46"/>
<polygon fill="black" stroke="black" points="308.19,-150.06 300.18,-143.14 302.12,-153.55 308.19,-150.06"/>
</g>
<!-- Node_80 -->
<g id="node2" class="node">
<title>Node_80</title>
<polygon fill="#f2f2f2" stroke="none" points="399,-78 200,-78 200,0 399,0 399,-78"/>
<polygon fill="none" stroke="black" points="200,-52 200,-78 399,-78 399,-52 200,-52"/>
<text text-anchor="start" x="204.62" y="-60.7" font-family="Courier New" font-weight="bold" font-size="14.00">LocalVariableTargetNode</text>
<polygon fill="none" stroke="black" points="200,-26 200,-52 303,-52 303,-26 200,-26"/>
<text text-anchor="start" x="205" y="-33.7" font-family="Courier New" font-size="14.00">name</text>
<polygon fill="none" stroke="black" points="303,-26 303,-52 399,-52 399,-26 303,-26"/>
<text text-anchor="start" x="334.5" y="-33.7" font-family="Courier New" font-size="14.00">:foo</text>
<polygon fill="none" stroke="black" points="200,0 200,-26 303,-26 303,0 200,0"/>
<text text-anchor="start" x="205" y="-7.7" font-family="Courier New" font-size="14.00">depth</text>
<polygon fill="none" stroke="black" points="303,0 303,-26 399,-26 399,0 303,0"/>
<text text-anchor="start" x="346.88" y="-7.7" font-family="Courier New" font-size="14.00">0</text>
</g>
<!-- Node_60_lefts&#45;&gt;Node_80 -->
<g id="edge2" class="edge">
<title>Node_60_lefts&#45;&gt;Node_80</title>
<path fill="none" stroke="black" d="M299.5,-137.89C299.5,-132.76 299.5,-110.74 299.5,-88.87"/>
<polygon fill="black" stroke="black" points="303,-88.89 299.5,-78.89 296,-88.89 303,-88.89"/>
</g>
</g>
</svg>
