<?xml version="1.0" encoding="UTF-8" standalone="no"?>
<!DOCTYPE svg PUBLIC "-//W3C//DTD SVG 1.1//EN"
 "http://www.w3.org/Graphics/SVG/1.1/DTD/svg11.dtd">
<!-- Generated by graphviz version 8.1.0 (20230707.0739)
 -->
<!-- Title: Prism Pages: 1 -->
<svg width="240pt" height="226pt"
 viewBox="0.00 0.00 240.00 226.00" xmlns="http://www.w3.org/2000/svg" xmlns:xlink="http://www.w3.org/1999/xlink">
<g id="graph0" class="graph" transform="scale(1 1) rotate(0) translate(4 222)">
<title>Prism</title>
<polygon fill="white" stroke="none" points="-4,4 -4,-222 236,-222 236,4 -4,4"/>
<!-- Node_60 -->
<g id="node1" class="node">
<title>Node_60</title>
<polygon fill="#f2f2f2" stroke="none" points="232,-218 0,-218 0,-88 232,-88 232,-218"/>
<polygon fill="none" stroke="black" points="0,-192 0,-218 232,-218 232,-192 0,-192"/>
<text text-anchor="start" x="4.62" y="-200.7" font-family="Courier New" font-weight="bold" font-size="14.00">InstanceVariableOrWriteNode</text>
<polygon fill="none" stroke="black" points="0,-166 0,-192 120,-192 120,-166 0,-166"/>
<text text-anchor="start" x="5" y="-173.7" font-family="Courier New" font-size="14.00">name</text>
<polygon fill="none" stroke="black" points="120,-166 120,-192 232,-192 232,-166 120,-166"/>
<text text-anchor="start" x="155.38" y="-173.7" font-family="Courier New" font-size="14.00">:@foo</text>
<polygon fill="none" stroke="black" points="0,-140 0,-166 120,-166 120,-140 0,-140"/>
<text text-anchor="start" x="5" y="-147.7" font-family="Courier New" font-size="14.00">name_loc</text>
<polygon fill="none" stroke="black" points="120,-140 120,-166 232,-166 232,-140 120,-140"/>
<text text-anchor="start" x="130.62" y="-147.7" font-family="Courier New" font-size="14.00">(1,0)&#45;(1,4)</text>
<polygon fill="none" stroke="black" points="0,-114 0,-140 120,-140 120,-114 0,-114"/>
<text text-anchor="start" x="5" y="-121.7" font-family="Courier New" font-size="14.00">operator_loc</text>
<polygon fill="none" stroke="black" points="120,-114 120,-140 232,-140 232,-114 120,-114"/>
<text text-anchor="start" x="130.62" y="-121.7" font-family="Courier New" font-size="14.00">(1,5)&#45;(1,8)</text>
<polygon fill="none" stroke="black" points="0,-88 0,-114 232,-114 232,-88 0,-88"/>
<text text-anchor="start" x="5" y="-95.7" font-family="Courier New" font-size="14.00">value</text>
</g>
<!-- Node_80 -->
<g id="node2" class="node">
<title>Node_80</title>
<polygon fill="#f2f2f2" stroke="none" points="175,-52 57,-52 57,0 175,0 175,-52"/>
<polygon fill="none" stroke="black" points="57,-26 57,-52 175,-52 175,-26 57,-26"/>
<text text-anchor="start" x="70.62" y="-34.7" font-family="Courier New" font-weight="bold" font-size="14.00">IntegerNode</text>
<polygon fill="none" stroke="black" points="57,0 57,-26 108,-26 108,0 57,0"/>
<text text-anchor="start" x="61.88" y="-7.7" font-family="Courier New" font-size="14.00">flags</text>
<polygon fill="none" stroke="black" points="108,0 108,-26 175,-26 175,0 108,0"/>
<text text-anchor="start" x="112.62" y="-7.7" font-family="Courier New" font-size="14.00">decimal</text>
</g>
<!-- Node_60&#45;&gt;Node_80 -->
<g id="edge1" class="edge">
<title>Node_60:value&#45;&gt;Node_80</title>
<path fill="none" stroke="black" d="M116,-88C116,-79.85 116,-71.08 116,-62.8"/>
<polygon fill="black" stroke="black" points="119.5,-62.93 116,-52.93 112.5,-62.93 119.5,-62.93"/>
</g>
</g>
</svg>
