<?xml version="1.0" encoding="UTF-8" standalone="no"?>
<!DOCTYPE svg PUBLIC "-//W3C//DTD SVG 1.1//EN"
 "http://www.w3.org/Graphics/SVG/1.1/DTD/svg11.dtd">
<!-- Generated by graphviz version 8.1.0 (20230707.0739)
 -->
<!-- Title: Prism Pages: 1 -->
<svg width="454pt" height="1057pt"
 viewBox="0.00 0.00 453.50 1057.20" xmlns="http://www.w3.org/2000/svg" xmlns:xlink="http://www.w3.org/1999/xlink">
<g id="graph0" class="graph" transform="scale(1 1) rotate(0) translate(4 1053.2)">
<title>Prism</title>
<polygon fill="white" stroke="none" points="-4,4 -4,-1053.2 449.5,-1053.2 449.5,4 -4,4"/>
<!-- Node_60 -->
<g id="node1" class="node">
<title>Node_60</title>
<polygon fill="#f2f2f2" stroke="none" points="293.5,-1049.2 51.5,-1049.2 51.5,-919.2 293.5,-919.2 293.5,-1049.2"/>
<polygon fill="none" stroke="black" points="51.5,-1023.2 51.5,-1049.2 293.5,-1049.2 293.5,-1023.2 51.5,-1023.2"/>
<text text-anchor="start" x="118.88" y="-1031.9" font-family="Courier New" font-weight="bold" font-size="14.00">CaseMatchNode</text>
<polygon fill="none" stroke="black" points="51.5,-997.2 51.5,-1023.2 293.5,-1023.2 293.5,-997.2 51.5,-997.2"/>
<text text-anchor="start" x="56.5" y="-1004.9" font-family="Courier New" font-size="14.00">predicate</text>
<polygon fill="none" stroke="black" points="51.5,-971.2 51.5,-997.2 293.5,-997.2 293.5,-971.2 51.5,-971.2"/>
<text text-anchor="start" x="56.5" y="-978.9" font-family="Courier New" font-size="14.00">conditions</text>
<polygon fill="none" stroke="black" points="51.5,-945.2 51.5,-971.2 193.5,-971.2 193.5,-945.2 51.5,-945.2"/>
<text text-anchor="start" x="56.5" y="-952.9" font-family="Courier New" font-size="14.00">case_keyword_loc</text>
<polygon fill="none" stroke="black" points="193.5,-945.2 193.5,-971.2 293.5,-971.2 293.5,-945.2 193.5,-945.2"/>
<text text-anchor="start" x="198.12" y="-952.9" font-family="Courier New" font-size="14.00">(1,0)&#45;(1,4)</text>
<polygon fill="none" stroke="black" points="51.5,-919.2 51.5,-945.2 193.5,-945.2 193.5,-919.2 51.5,-919.2"/>
<text text-anchor="start" x="56.5" y="-926.9" font-family="Courier New" font-size="14.00">end_keyword_loc</text>
<polygon fill="none" stroke="black" points="193.5,-919.2 193.5,-945.2 293.5,-945.2 293.5,-919.2 193.5,-919.2"/>
<text text-anchor="start" x="198.12" y="-926.9" font-family="Courier New" font-size="14.00">(4,0)&#45;(4,3)</text>
</g>
<!-- Node_80 -->
<g id="node2" class="node">
<title>Node_80</title>
<polygon fill="#f2f2f2" stroke="none" points="217,-883.2 0,-883.2 0,-779.2 217,-779.2 217,-883.2"/>
<polygon fill="none" stroke="black" points="0,-857.2 0,-883.2 217,-883.2 217,-857.2 0,-857.2"/>
<text text-anchor="start" x="75.5" y="-865.9" font-family="Courier New" font-weight="bold" font-size="14.00">CallNode</text>
<polygon fill="none" stroke="black" points="0,-831.2 0,-857.2 100,-857.2 100,-831.2 0,-831.2"/>
<text text-anchor="start" x="5" y="-838.9" font-family="Courier New" font-size="14.00">flags</text>
<polygon fill="none" stroke="black" points="100,-831.2 100,-857.2 217,-857.2 217,-831.2 100,-831.2"/>
<text text-anchor="start" x="104.88" y="-838.9" font-family="Courier New" font-size="14.00">variable_call</text>
<polygon fill="none" stroke="black" points="0,-805.2 0,-831.2 100,-831.2 100,-805.2 0,-805.2"/>
<text text-anchor="start" x="5" y="-812.9" font-family="Courier New" font-size="14.00">name</text>
<polygon fill="none" stroke="black" points="100,-805.2 100,-831.2 217,-831.2 217,-805.2 100,-805.2"/>
<text text-anchor="start" x="142" y="-812.9" font-family="Courier New" font-size="14.00">:foo</text>
<polygon fill="none" stroke="black" points="0,-779.2 0,-805.2 100,-805.2 100,-779.2 0,-779.2"/>
<text text-anchor="start" x="4.62" y="-786.9" font-family="Courier New" font-size="14.00">message_loc</text>
<polygon fill="none" stroke="black" points="100,-779.2 100,-805.2 217,-805.2 217,-779.2 100,-779.2"/>
<text text-anchor="start" x="113.12" y="-786.9" font-family="Courier New" font-size="14.00">(1,5)&#45;(1,8)</text>
</g>
<!-- Node_60&#45;&gt;Node_80 -->
<g id="edge1" class="edge">
<title>Node_60:predicate&#45;&gt;Node_80</title>
<path fill="none" stroke="black" d="M50.5,-1010.2C-0.4,-1010.2 32.68,-943.59 66.04,-891.87"/>
<polygon fill="black" stroke="black" points="69.47,-894.01 72.03,-883.73 63.62,-890.17 69.47,-894.01"/>
</g>
<!-- Node_60_conditions -->
<g id="node9" class="node">
<title>Node_60_conditions</title>
<ellipse fill="#f2f2f2" stroke="black" cx="236.5" cy="-831.2" rx="1.8" ry="1.8"/>
</g>
<!-- Node_60&#45;&gt;Node_60_conditions -->
<g id="edge2" class="edge">
<title>Node_60:conditions&#45;&gt;Node_60_conditions</title>
<path fill="none" stroke="black" d="M294.5,-984.2C355.88,-984.2 271.26,-874.67 244.28,-841.56"/>
<polygon fill="black" stroke="black" points="246.4,-839.64 237.32,-834.17 241.01,-844.1 246.4,-839.64"/>
</g>
<!-- Node_100 -->
<g id="node3" class="node">
<title>Node_100</title>
<polygon fill="#f2f2f2" stroke="none" points="316,-743.2 157,-743.2 157,-639.2 316,-639.2 316,-743.2"/>
<polygon fill="none" stroke="black" points="157,-717.2 157,-743.2 316,-743.2 316,-717.2 157,-717.2"/>
<text text-anchor="start" x="211.75" y="-725.9" font-family="Courier New" font-weight="bold" font-size="14.00">InNode</text>
<polygon fill="none" stroke="black" points="157,-691.2 157,-717.2 316,-717.2 316,-691.2 157,-691.2"/>
<text text-anchor="start" x="162" y="-698.9" font-family="Courier New" font-size="14.00">pattern</text>
<polygon fill="none" stroke="black" points="157,-665.2 157,-691.2 316,-691.2 316,-665.2 157,-665.2"/>
<text text-anchor="start" x="162" y="-672.9" font-family="Courier New" font-size="14.00">statements</text>
<polygon fill="none" stroke="black" points="157,-639.2 157,-665.2 216,-665.2 216,-639.2 157,-639.2"/>
<text text-anchor="start" x="161.75" y="-646.9" font-family="Courier New" font-size="14.00">in_loc</text>
<polygon fill="none" stroke="black" points="216,-639.2 216,-665.2 316,-665.2 316,-639.2 216,-639.2"/>
<text text-anchor="start" x="220.62" y="-646.9" font-family="Courier New" font-size="14.00">(2,0)&#45;(2,2)</text>
</g>
<!-- Node_120 -->
<g id="node4" class="node">
<title>Node_120</title>
<polygon fill="#f2f2f2" stroke="none" points="231.5,-603.2 89.5,-603.2 89.5,-551.2 231.5,-551.2 231.5,-603.2"/>
<polygon fill="none" stroke="black" points="89.5,-577.2 89.5,-603.2 231.5,-603.2 231.5,-577.2 89.5,-577.2"/>
<text text-anchor="start" x="94.5" y="-585.9" font-family="Courier New" font-weight="bold" font-size="14.00">ConstantReadNode</text>
<polygon fill="none" stroke="black" points="89.5,-551.2 89.5,-577.2 143.5,-577.2 143.5,-551.2 89.5,-551.2"/>
<text text-anchor="start" x="94.5" y="-558.9" font-family="Courier New" font-size="14.00">name</text>
<polygon fill="none" stroke="black" points="143.5,-551.2 143.5,-577.2 231.5,-577.2 231.5,-551.2 143.5,-551.2"/>
<text text-anchor="start" x="154.5" y="-558.9" font-family="Courier New" font-size="14.00">:Integer</text>
</g>
<!-- Node_100&#45;&gt;Node_120 -->
<g id="edge4" class="edge">
<title>Node_100:pattern&#45;&gt;Node_120</title>
<path fill="none" stroke="black" d="M155.5,-704.2C118.88,-704.2 132.25,-650.4 145.92,-613.12"/>
<polygon fill="black" stroke="black" points="149.45,-614.68 149.74,-604.09 142.91,-612.19 149.45,-614.68"/>
</g>
<!-- Node_140 -->
<g id="node5" class="node">
<title>Node_140</title>
<polygon fill="#f2f2f2" stroke="none" points="375,-603.2 250,-603.2 250,-551.2 375,-551.2 375,-603.2"/>
<polygon fill="none" stroke="black" points="250,-577.2 250,-603.2 375,-603.2 375,-577.2 250,-577.2"/>
<text text-anchor="start" x="254.75" y="-585.9" font-family="Courier New" font-weight="bold" font-size="14.00">StatementsNode</text>
<polygon fill="none" stroke="black" points="250,-551.2 250,-577.2 375,-577.2 375,-551.2 250,-551.2"/>
<text text-anchor="start" x="255" y="-558.9" font-family="Courier New" font-size="14.00">body</text>
</g>
<!-- Node_100&#45;&gt;Node_140 -->
<g id="edge5" class="edge">
<title>Node_100:statements&#45;&gt;Node_140</title>
<path fill="none" stroke="black" d="M317.5,-678.2C344.21,-678.2 337.06,-642.18 327.07,-613.38"/>
<polygon fill="black" stroke="black" points="330.05,-612.36 323.32,-604.18 323.48,-614.77 330.05,-612.36"/>
</g>
<!-- Node_140_body -->
<g id="node10" class="node">
<title>Node_140_body</title>
<ellipse fill="#f2f2f2" stroke="black" cx="312.5" cy="-513.4" rx="1.8" ry="1.8"/>
</g>
<!-- Node_140&#45;&gt;Node_140_body -->
<g id="edge6" class="edge">
<title>Node_140:body&#45;&gt;Node_140_body</title>
<path fill="none" stroke="black" d="M312.5,-551.2C312.5,-542.96 312.5,-533.69 312.5,-526.51"/>
<polygon fill="black" stroke="black" points="316,-526.54 312.5,-516.54 309,-526.54 316,-526.54"/>
</g>
<!-- Node_160 -->
<g id="node6" class="node">
<title>Node_160</title>
<polygon fill="#f2f2f2" stroke="none" points="412.5,-475.6 212.5,-475.6 212.5,-345.6 412.5,-345.6 412.5,-475.6"/>
<polygon fill="none" stroke="black" points="212.5,-449.6 212.5,-475.6 412.5,-475.6 412.5,-449.6 212.5,-449.6"/>
<text text-anchor="start" x="279.5" y="-458.3" font-family="Courier New" font-weight="bold" font-size="14.00">CallNode</text>
<polygon fill="none" stroke="black" points="212.5,-423.6 212.5,-449.6 312.5,-449.6 312.5,-423.6 212.5,-423.6"/>
<text text-anchor="start" x="217.5" y="-431.3" font-family="Courier New" font-size="14.00">flags</text>
<polygon fill="none" stroke="black" points="312.5,-423.6 312.5,-449.6 412.5,-449.6 412.5,-423.6 312.5,-423.6"/>
<polygon fill="none" stroke="black" points="212.5,-397.6 212.5,-423.6 312.5,-423.6 312.5,-397.6 212.5,-397.6"/>
<text text-anchor="start" x="217.5" y="-405.3" font-family="Courier New" font-size="14.00">name</text>
<polygon fill="none" stroke="black" points="312.5,-397.6 312.5,-423.6 412.5,-423.6 412.5,-397.6 312.5,-397.6"/>
<text text-anchor="start" x="341.88" y="-405.3" font-family="Courier New" font-size="14.00">:puts</text>
<polygon fill="none" stroke="black" points="212.5,-371.6 212.5,-397.6 312.5,-397.6 312.5,-371.6 212.5,-371.6"/>
<text text-anchor="start" x="217.12" y="-379.3" font-family="Courier New" font-size="14.00">message_loc</text>
<polygon fill="none" stroke="black" points="312.5,-371.6 312.5,-397.6 412.5,-397.6 412.5,-371.6 312.5,-371.6"/>
<text text-anchor="start" x="317.12" y="-379.3" font-family="Courier New" font-size="14.00">(3,2)&#45;(3,6)</text>
<polygon fill="none" stroke="black" points="212.5,-345.6 212.5,-371.6 412.5,-371.6 412.5,-345.6 212.5,-345.6"/>
<text text-anchor="start" x="217.5" y="-353.3" font-family="Courier New" font-size="14.00">arguments</text>
</g>
<!-- Node_180 -->
<g id="node7" class="node">
<title>Node_180</title>
<polygon fill="#f2f2f2" stroke="none" points="371,-309.6 254,-309.6 254,-231.6 371,-231.6 371,-309.6"/>
<polygon fill="none" stroke="black" points="254,-283.6 254,-309.6 371,-309.6 371,-283.6 254,-283.6"/>
<text text-anchor="start" x="258.88" y="-292.3" font-family="Courier New" font-weight="bold" font-size="14.00">ArgumentsNode</text>
<polygon fill="none" stroke="black" points="254,-257.6 254,-283.6 333,-283.6 333,-257.6 254,-257.6"/>
<text text-anchor="start" x="259" y="-265.3" font-family="Courier New" font-size="14.00">flags</text>
<polygon fill="none" stroke="black" points="333,-257.6 333,-283.6 371,-283.6 371,-257.6 333,-257.6"/>
<polygon fill="none" stroke="black" points="254,-231.6 254,-257.6 371,-257.6 371,-231.6 254,-231.6"/>
<text text-anchor="start" x="259" y="-239.3" font-family="Courier New" font-size="14.00">arguments</text>
</g>
<!-- Node_160&#45;&gt;Node_180 -->
<g id="edge8" class="edge">
<title>Node_160:arguments&#45;&gt;Node_180</title>
<path fill="none" stroke="black" d="M312.5,-345.6C312.5,-337.38 312.5,-328.65 312.5,-320.17"/>
<polygon fill="black" stroke="black" points="316,-320.25 312.5,-310.25 309,-320.25 316,-320.25"/>
</g>
<!-- Node_180_arguments -->
<g id="node11" class="node">
<title>Node_180_arguments</title>
<ellipse fill="#f2f2f2" stroke="black" cx="312.5" cy="-193.8" rx="1.8" ry="1.8"/>
</g>
<!-- Node_180&#45;&gt;Node_180_arguments -->
<g id="edge9" class="edge">
<title>Node_180:arguments&#45;&gt;Node_180_arguments</title>
<path fill="none" stroke="black" d="M312.5,-231.6C312.5,-223.36 312.5,-214.09 312.5,-206.91"/>
<polygon fill="black" stroke="black" points="316,-206.94 312.5,-196.94 309,-206.94 316,-206.94"/>
</g>
<!-- Node_200 -->
<g id="node8" class="node">
<title>Node_200</title>
<polygon fill="#f2f2f2" stroke="none" points="445.5,-156 179.5,-156 179.5,0 445.5,0 445.5,-156"/>
<polygon fill="none" stroke="black" points="179.5,-130 179.5,-156 445.5,-156 445.5,-130 179.5,-130"/>
<text text-anchor="start" x="271.25" y="-138.7" font-family="Courier New" font-weight="bold" font-size="14.00">StringNode</text>
<polygon fill="none" stroke="black" points="179.5,-104 179.5,-130 279.5,-130 279.5,-104 179.5,-104"/>
<text text-anchor="start" x="184.5" y="-111.7" font-family="Courier New" font-size="14.00">flags</text>
<polygon fill="none" stroke="black" points="279.5,-104 279.5,-130 445.5,-130 445.5,-104 279.5,-104"/>
<polygon fill="none" stroke="black" points="179.5,-78 179.5,-104 279.5,-104 279.5,-78 179.5,-78"/>
<text text-anchor="start" x="184.12" y="-85.7" font-family="Courier New" font-size="14.00">opening_loc</text>
<polygon fill="none" stroke="black" points="279.5,-78 279.5,-104 445.5,-104 445.5,-78 279.5,-78"/>
<text text-anchor="start" x="317.12" y="-85.7" font-family="Courier New" font-size="14.00">(3,7)&#45;(3,8)</text>
<polygon fill="none" stroke="black" points="179.5,-52 179.5,-78 279.5,-78 279.5,-52 179.5,-52"/>
<text text-anchor="start" x="184.12" y="-59.7" font-family="Courier New" font-size="14.00">content_loc</text>
<polygon fill="none" stroke="black" points="279.5,-52 279.5,-78 445.5,-78 445.5,-52 279.5,-52"/>
<text text-anchor="start" x="313" y="-59.7" font-family="Courier New" font-size="14.00">(3,8)&#45;(3,25)</text>
<polygon fill="none" stroke="black" points="179.5,-26 179.5,-52 279.5,-52 279.5,-26 179.5,-26"/>
<text text-anchor="start" x="184.12" y="-33.7" font-family="Courier New" font-size="14.00">closing_loc</text>
<polygon fill="none" stroke="black" points="279.5,-26 279.5,-52 445.5,-52 445.5,-26 279.5,-26"/>
<text text-anchor="start" x="308.88" y="-33.7" font-family="Courier New" font-size="14.00">(3,25)&#45;(3,26)</text>
<polygon fill="none" stroke="black" points="179.5,0 179.5,-26 279.5,-26 279.5,0 179.5,0"/>
<text text-anchor="start" x="184.5" y="-7.7" font-family="Courier New" font-size="14.00">unescaped</text>
<polygon fill="none" stroke="black" points="279.5,0 279.5,-26 445.5,-26 445.5,0 279.5,0"/>
<text text-anchor="start" x="284.12" y="-7.7" font-family="Courier New" font-size="14.00">&quot;foo is an integer&quot;</text>
</g>
<!-- Node_60_conditions&#45;&gt;Node_100 -->
<g id="edge3" class="edge">
<title>Node_60_conditions&#45;&gt;Node_100</title>
<path fill="none" stroke="black" d="M236.5,-829.32C236.5,-823.29 236.5,-787.38 236.5,-753.82"/>
<polygon fill="black" stroke="black" points="240,-754.05 236.5,-744.05 233,-754.05 240,-754.05"/>
</g>
<!-- Node_140_body&#45;&gt;Node_160 -->
<g id="edge7" class="edge">
<title>Node_140_body&#45;&gt;Node_160</title>
<path fill="none" stroke="black" d="M312.5,-511.27C312.5,-508.06 312.5,-498.33 312.5,-486.14"/>
<polygon fill="black" stroke="black" points="316,-486.4 312.5,-476.4 309,-486.4 316,-486.4"/>
</g>
<!-- Node_180_arguments&#45;&gt;Node_200 -->
<g id="edge10" class="edge">
<title>Node_180_arguments&#45;&gt;Node_200</title>
<path fill="none" stroke="black" d="M312.5,-191.52C312.5,-188.2 312.5,-178.71 312.5,-166.57"/>
<polygon fill="black" stroke="black" points="316,-166.81 312.5,-156.81 309,-166.81 316,-166.81"/>
</g>
</g>
</svg>
