<?xml version="1.0" encoding="UTF-8" standalone="no"?>
<!DOCTYPE svg PUBLIC "-//W3C//DTD SVG 1.1//EN"
 "http://www.w3.org/Graphics/SVG/1.1/DTD/svg11.dtd">
<!-- Generated by graphviz version 8.1.0 (20230707.0739)
 -->
<!-- Title: Prism Pages: 1 -->
<svg width="532pt" height="458pt"
 viewBox="0.00 0.00 532.00 457.60" xmlns="http://www.w3.org/2000/svg" xmlns:xlink="http://www.w3.org/1999/xlink">
<g id="graph0" class="graph" transform="scale(1 1) rotate(0) translate(4 453.6)">
<title>Prism</title>
<polygon fill="white" stroke="none" points="-4,4 -4,-453.6 528,-453.6 528,4 -4,4"/>
<!-- Node_60 -->
<g id="node1" class="node">
<title>Node_60</title>
<polygon fill="#f2f2f2" stroke="none" points="319,-449.6 86,-449.6 86,-319.6 319,-319.6 319,-449.6"/>
<polygon fill="none" stroke="black" points="86,-423.6 86,-449.6 319,-449.6 319,-423.6 86,-423.6"/>
<text text-anchor="start" x="177.75" y="-432.3" font-family="Courier New" font-weight="bold" font-size="14.00">IfNode</text>
<polygon fill="none" stroke="black" points="86,-397.6 86,-423.6 219,-423.6 219,-397.6 86,-397.6"/>
<text text-anchor="start" x="91" y="-405.3" font-family="Courier New" font-size="14.00">if_keyword_loc</text>
<polygon fill="none" stroke="black" points="219,-397.6 219,-423.6 319,-423.6 319,-397.6 219,-397.6"/>
<text text-anchor="start" x="223.62" y="-405.3" font-family="Courier New" font-size="14.00">(1,0)&#45;(1,2)</text>
<polygon fill="none" stroke="black" points="86,-371.6 86,-397.6 319,-397.6 319,-371.6 86,-371.6"/>
<text text-anchor="start" x="91" y="-379.3" font-family="Courier New" font-size="14.00">predicate</text>
<polygon fill="none" stroke="black" points="86,-345.6 86,-371.6 319,-371.6 319,-345.6 86,-345.6"/>
<text text-anchor="start" x="91" y="-353.3" font-family="Courier New" font-size="14.00">statements</text>
<polygon fill="none" stroke="black" points="86,-319.6 86,-345.6 219,-345.6 219,-319.6 86,-319.6"/>
<text text-anchor="start" x="90.62" y="-327.3" font-family="Courier New" font-size="14.00">end_keyword_loc</text>
<polygon fill="none" stroke="black" points="219,-319.6 219,-345.6 319,-345.6 319,-319.6 219,-319.6"/>
<text text-anchor="start" x="223.62" y="-327.3" font-family="Courier New" font-size="14.00">(4,0)&#45;(4,3)</text>
</g>
<!-- Node_80 -->
<g id="node2" class="node">
<title>Node_80</title>
<polygon fill="#f2f2f2" stroke="none" points="217,-283.6 0,-283.6 0,-179.6 217,-179.6 217,-283.6"/>
<polygon fill="none" stroke="black" points="0,-257.6 0,-283.6 217,-283.6 217,-257.6 0,-257.6"/>
<text text-anchor="start" x="75.5" y="-266.3" font-family="Courier New" font-weight="bold" font-size="14.00">CallNode</text>
<polygon fill="none" stroke="black" points="0,-231.6 0,-257.6 100,-257.6 100,-231.6 0,-231.6"/>
<text text-anchor="start" x="5" y="-239.3" font-family="Courier New" font-size="14.00">flags</text>
<polygon fill="none" stroke="black" points="100,-231.6 100,-257.6 217,-257.6 217,-231.6 100,-231.6"/>
<text text-anchor="start" x="104.88" y="-239.3" font-family="Courier New" font-size="14.00">variable_call</text>
<polygon fill="none" stroke="black" points="0,-205.6 0,-231.6 100,-231.6 100,-205.6 0,-205.6"/>
<text text-anchor="start" x="5" y="-213.3" font-family="Courier New" font-size="14.00">name</text>
<polygon fill="none" stroke="black" points="100,-205.6 100,-231.6 217,-231.6 217,-205.6 100,-205.6"/>
<text text-anchor="start" x="142" y="-213.3" font-family="Courier New" font-size="14.00">:foo</text>
<polygon fill="none" stroke="black" points="0,-179.6 0,-205.6 100,-205.6 100,-179.6 0,-179.6"/>
<text text-anchor="start" x="4.62" y="-187.3" font-family="Courier New" font-size="14.00">message_loc</text>
<polygon fill="none" stroke="black" points="100,-179.6 100,-205.6 217,-205.6 217,-179.6 100,-179.6"/>
<text text-anchor="start" x="113.12" y="-187.3" font-family="Courier New" font-size="14.00">(1,3)&#45;(1,6)</text>
</g>
<!-- Node_60&#45;&gt;Node_80 -->
<g id="edge1" class="edge">
<title>Node_60:predicate&#45;&gt;Node_80</title>
<path fill="none" stroke="black" d="M84.5,-384.6C45.59,-384.6 58.72,-335.39 77.28,-292.98"/>
<polygon fill="black" stroke="black" points="80.76,-294.77 81.69,-284.21 74.38,-291.88 80.76,-294.77"/>
</g>
<!-- Node_100 -->
<g id="node3" class="node">
<title>Node_100</title>
<polygon fill="#f2f2f2" stroke="none" points="360,-257.6 235,-257.6 235,-205.6 360,-205.6 360,-257.6"/>
<polygon fill="none" stroke="black" points="235,-231.6 235,-257.6 360,-257.6 360,-231.6 235,-231.6"/>
<text text-anchor="start" x="239.75" y="-240.3" font-family="Courier New" font-weight="bold" font-size="14.00">StatementsNode</text>
<polygon fill="none" stroke="black" points="235,-205.6 235,-231.6 360,-231.6 360,-205.6 235,-205.6"/>
<text text-anchor="start" x="240" y="-213.3" font-family="Courier New" font-size="14.00">body</text>
</g>
<!-- Node_60&#45;&gt;Node_100 -->
<g id="edge2" class="edge">
<title>Node_60:statements&#45;&gt;Node_100</title>
<path fill="none" stroke="black" d="M320.5,-358.6C357.85,-358.6 336.28,-304.34 317.03,-267.04"/>
<polygon fill="black" stroke="black" points="319.75,-265.69 311.97,-258.49 313.56,-268.97 319.75,-265.69"/>
</g>
<!-- Node_100_body -->
<g id="node6" class="node">
<title>Node_100_body</title>
<ellipse fill="#f2f2f2" stroke="black" cx="297.5" cy="-141.8" rx="1.8" ry="1.8"/>
</g>
<!-- Node_100&#45;&gt;Node_100_body -->
<g id="edge3" class="edge">
<title>Node_100:body&#45;&gt;Node_100_body</title>
<path fill="none" stroke="black" d="M297.5,-204.6C297.5,-187.1 297.5,-166.81 297.5,-154.39"/>
<polygon fill="black" stroke="black" points="301,-154.67 297.5,-144.67 294,-154.67 301,-154.67"/>
</g>
<!-- Node_120 -->
<g id="node4" class="node">
<title>Node_120</title>
<polygon fill="#f2f2f2" stroke="none" points="289,-104 72,-104 72,0 289,0 289,-104"/>
<polygon fill="none" stroke="black" points="72,-78 72,-104 289,-104 289,-78 72,-78"/>
<text text-anchor="start" x="147.5" y="-86.7" font-family="Courier New" font-weight="bold" font-size="14.00">CallNode</text>
<polygon fill="none" stroke="black" points="72,-52 72,-78 172,-78 172,-52 72,-52"/>
<text text-anchor="start" x="77" y="-59.7" font-family="Courier New" font-size="14.00">flags</text>
<polygon fill="none" stroke="black" points="172,-52 172,-78 289,-78 289,-52 172,-52"/>
<text text-anchor="start" x="176.88" y="-59.7" font-family="Courier New" font-size="14.00">variable_call</text>
<polygon fill="none" stroke="black" points="72,-26 72,-52 172,-52 172,-26 72,-26"/>
<text text-anchor="start" x="77" y="-33.7" font-family="Courier New" font-size="14.00">name</text>
<polygon fill="none" stroke="black" points="172,-26 172,-52 289,-52 289,-26 172,-26"/>
<text text-anchor="start" x="214" y="-33.7" font-family="Courier New" font-size="14.00">:bar</text>
<polygon fill="none" stroke="black" points="72,0 72,-26 172,-26 172,0 72,0"/>
<text text-anchor="start" x="76.62" y="-7.7" font-family="Courier New" font-size="14.00">message_loc</text>
<polygon fill="none" stroke="black" points="172,0 172,-26 289,-26 289,0 172,0"/>
<text text-anchor="start" x="185.12" y="-7.7" font-family="Courier New" font-size="14.00">(2,2)&#45;(2,5)</text>
</g>
<!-- Node_140 -->
<g id="node5" class="node">
<title>Node_140</title>
<polygon fill="#f2f2f2" stroke="none" points="524,-104 307,-104 307,0 524,0 524,-104"/>
<polygon fill="none" stroke="black" points="307,-78 307,-104 524,-104 524,-78 307,-78"/>
<text text-anchor="start" x="382.5" y="-86.7" font-family="Courier New" font-weight="bold" font-size="14.00">CallNode</text>
<polygon fill="none" stroke="black" points="307,-52 307,-78 407,-78 407,-52 307,-52"/>
<text text-anchor="start" x="312" y="-59.7" font-family="Courier New" font-size="14.00">flags</text>
<polygon fill="none" stroke="black" points="407,-52 407,-78 524,-78 524,-52 407,-52"/>
<text text-anchor="start" x="411.88" y="-59.7" font-family="Courier New" font-size="14.00">variable_call</text>
<polygon fill="none" stroke="black" points="307,-26 307,-52 407,-52 407,-26 307,-26"/>
<text text-anchor="start" x="312" y="-33.7" font-family="Courier New" font-size="14.00">name</text>
<polygon fill="none" stroke="black" points="407,-26 407,-52 524,-52 524,-26 407,-26"/>
<text text-anchor="start" x="449" y="-33.7" font-family="Courier New" font-size="14.00">:baz</text>
<polygon fill="none" stroke="black" points="307,0 307,-26 407,-26 407,0 307,0"/>
<text text-anchor="start" x="311.62" y="-7.7" font-family="Courier New" font-size="14.00">message_loc</text>
<polygon fill="none" stroke="black" points="407,0 407,-26 524,-26 524,0 407,0"/>
<text text-anchor="start" x="420.12" y="-7.7" font-family="Courier New" font-size="14.00">(3,2)&#45;(3,5)</text>
</g>
<!-- Node_100_body&#45;&gt;Node_120 -->
<g id="edge4" class="edge">
<title>Node_100_body&#45;&gt;Node_120</title>
<path fill="none" stroke="black" d="M296.75,-140.24C293.09,-137.49 276.43,-124.99 256.81,-110.26"/>
<polygon fill="black" stroke="black" points="259.35,-107.04 249.25,-103.84 255.14,-112.64 259.35,-107.04"/>
</g>
<!-- Node_100_body&#45;&gt;Node_140 -->
<g id="edge5" class="edge">
<title>Node_100_body&#45;&gt;Node_140</title>
<path fill="none" stroke="black" d="M298.25,-140.24C301.95,-137.49 318.75,-124.99 338.54,-110.26"/>
<polygon fill="black" stroke="black" points="340.24,-112.62 346.17,-103.84 336.06,-107 340.24,-112.62"/>
</g>
</g>
</svg>
