<?xml version="1.0" encoding="UTF-8" standalone="no"?>
<!DOCTYPE svg PUBLIC "-//W3C//DTD SVG 1.1//EN"
 "http://www.w3.org/Graphics/SVG/1.1/DTD/svg11.dtd">
<!-- Generated by graphviz version 8.1.0 (20230707.0739)
 -->
<!-- Title: Prism Pages: 1 -->
<svg width="191pt" height="86pt"
 viewBox="0.00 0.00 191.00 86.00" xmlns="http://www.w3.org/2000/svg" xmlns:xlink="http://www.w3.org/1999/xlink">
<g id="graph0" class="graph" transform="scale(1 1) rotate(0) translate(4 82)">
<title>Prism</title>
<polygon fill="white" stroke="none" points="-4,4 -4,-82 187,-82 187,4 -4,4"/>
<!-- Node_60 -->
<g id="node1" class="node">
<title>Node_60</title>
<polygon fill="#f2f2f2" stroke="none" points="183,-78 0,-78 0,0 183,0 183,-78"/>
<polygon fill="none" stroke="black" points="0,-52 0,-78 183,-78 183,-52 0,-52"/>
<text text-anchor="start" x="4.88" y="-60.7" font-family="Courier New" font-weight="bold" font-size="14.00">LocalVariableReadNode</text>
<polygon fill="none" stroke="black" points="0,-26 0,-52 95,-52 95,-26 0,-26"/>
<text text-anchor="start" x="5" y="-33.7" font-family="Courier New" font-size="14.00">name</text>
<polygon fill="none" stroke="black" points="95,-26 95,-52 183,-52 183,-26 95,-26"/>
<text text-anchor="start" x="122.5" y="-33.7" font-family="Courier New" font-size="14.00">:foo</text>
<polygon fill="none" stroke="black" points="0,0 0,-26 95,-26 95,0 0,0"/>
<text text-anchor="start" x="5" y="-7.7" font-family="Courier New" font-size="14.00">depth</text>
<polygon fill="none" stroke="black" points="95,0 95,-26 183,-26 183,0 95,0"/>
<text text-anchor="start" x="134.88" y="-7.7" font-family="Courier New" font-size="14.00">0</text>
</g>
</g>
</svg>
