<?xml version="1.0" encoding="UTF-8" standalone="no"?>
<!DOCTYPE svg PUBLIC "-//W3C//DTD SVG 1.1//EN"
 "http://www.w3.org/Graphics/SVG/1.1/DTD/svg11.dtd">
<!-- Generated by graphviz version 8.1.0 (20230707.0739)
 -->
<!-- Title: Prism Pages: 1 -->
<svg width="217pt" height="278pt"
 viewBox="0.00 0.00 217.00 278.00" xmlns="http://www.w3.org/2000/svg" xmlns:xlink="http://www.w3.org/1999/xlink">
<g id="graph0" class="graph" transform="scale(1 1) rotate(0) translate(4 274)">
<title>Prism</title>
<polygon fill="white" stroke="none" points="-4,4 -4,-274 213,-274 213,4 -4,4"/>
<!-- Node_60 -->
<g id="node1" class="node">
<title>Node_60</title>
<polygon fill="#f2f2f2" stroke="none" points="204.5,-270 4.5,-270 4.5,-88 204.5,-88 204.5,-270"/>
<polygon fill="none" stroke="black" points="4.5,-244 4.5,-270 204.5,-270 204.5,-244 4.5,-244"/>
<text text-anchor="start" x="71.5" y="-252.7" font-family="Courier New" font-weight="bold" font-size="14.00">CallNode</text>
<polygon fill="none" stroke="black" points="4.5,-218 4.5,-244 104.5,-244 104.5,-218 4.5,-218"/>
<text text-anchor="start" x="9.5" y="-225.7" font-family="Courier New" font-size="14.00">flags</text>
<polygon fill="none" stroke="black" points="104.5,-218 104.5,-244 204.5,-244 204.5,-218 104.5,-218"/>
<polygon fill="none" stroke="black" points="4.5,-192 4.5,-218 104.5,-218 104.5,-192 4.5,-192"/>
<text text-anchor="start" x="9.5" y="-199.7" font-family="Courier New" font-size="14.00">name</text>
<polygon fill="none" stroke="black" points="104.5,-192 104.5,-218 204.5,-218 204.5,-192 104.5,-192"/>
<text text-anchor="start" x="138" y="-199.7" font-family="Courier New" font-size="14.00">:bar</text>
<polygon fill="none" stroke="black" points="4.5,-166 4.5,-192 104.5,-192 104.5,-166 4.5,-166"/>
<text text-anchor="start" x="9.12" y="-173.7" font-family="Courier New" font-size="14.00">message_loc</text>
<polygon fill="none" stroke="black" points="104.5,-166 104.5,-192 204.5,-192 204.5,-166 104.5,-166"/>
<text text-anchor="start" x="109.12" y="-173.7" font-family="Courier New" font-size="14.00">(2,2)&#45;(2,5)</text>
<polygon fill="none" stroke="black" points="4.5,-140 4.5,-166 104.5,-166 104.5,-140 4.5,-140"/>
<text text-anchor="start" x="9.12" y="-147.7" font-family="Courier New" font-size="14.00">opening_loc</text>
<polygon fill="none" stroke="black" points="104.5,-140 104.5,-166 204.5,-166 204.5,-140 104.5,-140"/>
<text text-anchor="start" x="109.12" y="-147.7" font-family="Courier New" font-size="14.00">(2,5)&#45;(2,6)</text>
<polygon fill="none" stroke="black" points="4.5,-114 4.5,-140 104.5,-140 104.5,-114 4.5,-114"/>
<text text-anchor="start" x="9.12" y="-121.7" font-family="Courier New" font-size="14.00">closing_loc</text>
<polygon fill="none" stroke="black" points="104.5,-114 104.5,-140 204.5,-140 204.5,-114 104.5,-114"/>
<text text-anchor="start" x="109.12" y="-121.7" font-family="Courier New" font-size="14.00">(2,7)&#45;(2,8)</text>
<polygon fill="none" stroke="black" points="4.5,-88 4.5,-114 204.5,-114 204.5,-88 4.5,-88"/>
<text text-anchor="start" x="9.5" y="-95.7" font-family="Courier New" font-size="14.00">block</text>
</g>
<!-- Node_80 -->
<g id="node2" class="node">
<title>Node_80</title>
<polygon fill="#f2f2f2" stroke="none" points="209,-52 0,-52 0,0 209,0 209,-52"/>
<polygon fill="none" stroke="black" points="0,-26 0,-52 209,-52 209,-26 0,-26"/>
<text text-anchor="start" x="34.38" y="-34.7" font-family="Courier New" font-weight="bold" font-size="14.00">BlockArgumentNode</text>
<polygon fill="none" stroke="black" points="0,0 0,-26 109,-26 109,0 0,0"/>
<text text-anchor="start" x="5" y="-7.7" font-family="Courier New" font-size="14.00">operator_loc</text>
<polygon fill="none" stroke="black" points="109,0 109,-26 209,-26 209,0 109,0"/>
<text text-anchor="start" x="113.62" y="-7.7" font-family="Courier New" font-size="14.00">(2,6)&#45;(2,7)</text>
</g>
<!-- Node_60&#45;&gt;Node_80 -->
<g id="edge1" class="edge">
<title>Node_60:block&#45;&gt;Node_80</title>
<path fill="none" stroke="black" d="M104.5,-88C104.5,-79.85 104.5,-71.08 104.5,-62.8"/>
<polygon fill="black" stroke="black" points="108,-62.93 104.5,-52.93 101,-62.93 108,-62.93"/>
</g>
</g>
</svg>
