<?xml version="1.0" encoding="UTF-8" standalone="no"?>
<!DOCTYPE svg PUBLIC "-//W3C//DTD SVG 1.1//EN"
 "http://www.w3.org/Graphics/SVG/1.1/DTD/svg11.dtd">
<!-- Generated by graphviz version 8.1.0 (20230707.0739)
 -->
<!-- Title: Prism Pages: 1 -->
<svg width="645pt" height="662pt"
 viewBox="0.00 0.00 644.92 662.00" xmlns="http://www.w3.org/2000/svg" xmlns:xlink="http://www.w3.org/1999/xlink">
<g id="graph0" class="graph" transform="scale(1 1) rotate(0) translate(4 658)">
<title>Prism</title>
<polygon fill="white" stroke="none" points="-4,4 -4,-658 640.92,-658 640.92,4 -4,4"/>
<!-- Node_60 -->
<g id="node1" class="node">
<title>Node_60</title>
<polygon fill="#f2f2f2" stroke="none" points="435.5,-654 218.5,-654 218.5,-420 435.5,-420 435.5,-654"/>
<polygon fill="none" stroke="black" points="218.5,-628 218.5,-654 435.5,-654 435.5,-628 218.5,-628"/>
<text text-anchor="start" x="294" y="-636.7" font-family="Courier New" font-weight="bold" font-size="14.00">CallNode</text>
<polygon fill="none" stroke="black" points="218.5,-602 218.5,-628 318.5,-628 318.5,-602 218.5,-602"/>
<text text-anchor="start" x="223.5" y="-609.7" font-family="Courier New" font-size="14.00">flags</text>
<polygon fill="none" stroke="black" points="318.5,-602 318.5,-628 435.5,-628 435.5,-602 318.5,-602"/>
<polygon fill="none" stroke="black" points="218.5,-576 218.5,-602 435.5,-602 435.5,-576 218.5,-576"/>
<text text-anchor="start" x="223.5" y="-583.7" font-family="Courier New" font-size="14.00">receiver</text>
<polygon fill="none" stroke="black" points="218.5,-550 218.5,-576 318.5,-576 318.5,-550 218.5,-550"/>
<text text-anchor="start" x="223.5" y="-557.7" font-family="Courier New" font-size="14.00">name</text>
<polygon fill="none" stroke="black" points="318.5,-550 318.5,-576 435.5,-576 435.5,-550 318.5,-550"/>
<text text-anchor="start" x="360.5" y="-557.7" font-family="Courier New" font-size="14.00">:[]=</text>
<polygon fill="none" stroke="black" points="218.5,-524 218.5,-550 318.5,-550 318.5,-524 218.5,-524"/>
<text text-anchor="start" x="223.12" y="-531.7" font-family="Courier New" font-size="14.00">message_loc</text>
<polygon fill="none" stroke="black" points="318.5,-524 318.5,-550 435.5,-550 435.5,-524 318.5,-524"/>
<text text-anchor="start" x="327.5" y="-531.7" font-family="Courier New" font-size="14.00">(1,7)&#45;(1,13)</text>
<polygon fill="none" stroke="black" points="218.5,-498 218.5,-524 318.5,-524 318.5,-498 218.5,-498"/>
<text text-anchor="start" x="223.12" y="-505.7" font-family="Courier New" font-size="14.00">opening_loc</text>
<polygon fill="none" stroke="black" points="318.5,-498 318.5,-524 435.5,-524 435.5,-498 318.5,-498"/>
<text text-anchor="start" x="331.62" y="-505.7" font-family="Courier New" font-size="14.00">(1,7)&#45;(1,8)</text>
<polygon fill="none" stroke="black" points="218.5,-472 218.5,-498 435.5,-498 435.5,-472 218.5,-472"/>
<text text-anchor="start" x="223.5" y="-479.7" font-family="Courier New" font-size="14.00">arguments</text>
<polygon fill="none" stroke="black" points="218.5,-446 218.5,-472 318.5,-472 318.5,-446 218.5,-446"/>
<text text-anchor="start" x="223.12" y="-453.7" font-family="Courier New" font-size="14.00">closing_loc</text>
<polygon fill="none" stroke="black" points="318.5,-446 318.5,-472 435.5,-472 435.5,-446 318.5,-446"/>
<text text-anchor="start" x="323.38" y="-453.7" font-family="Courier New" font-size="14.00">(1,12)&#45;(1,13)</text>
<polygon fill="none" stroke="black" points="218.5,-420 218.5,-446 435.5,-446 435.5,-420 218.5,-420"/>
<text text-anchor="start" x="223.5" y="-427.7" font-family="Courier New" font-size="14.00">block</text>
</g>
<!-- Node_80 -->
<g id="node2" class="node">
<title>Node_80</title>
<polygon fill="#f2f2f2" stroke="none" points="250,-384 0,-384 0,-228 250,-228 250,-384"/>
<polygon fill="none" stroke="black" points="0,-358 0,-384 250,-384 250,-358 0,-358"/>
<text text-anchor="start" x="92" y="-366.7" font-family="Courier New" font-weight="bold" font-size="14.00">CallNode</text>
<polygon fill="none" stroke="black" points="0,-332 0,-358 150,-358 150,-332 0,-332"/>
<text text-anchor="start" x="5" y="-339.7" font-family="Courier New" font-size="14.00">flags</text>
<polygon fill="none" stroke="black" points="150,-332 150,-358 250,-358 250,-332 150,-332"/>
<polygon fill="none" stroke="black" points="0,-306 0,-332 250,-332 250,-306 0,-306"/>
<text text-anchor="start" x="5" y="-313.7" font-family="Courier New" font-size="14.00">receiver</text>
<polygon fill="none" stroke="black" points="0,-280 0,-306 150,-306 150,-280 0,-280"/>
<text text-anchor="start" x="4.88" y="-287.7" font-family="Courier New" font-size="14.00">call_operator_loc</text>
<polygon fill="none" stroke="black" points="150,-280 150,-306 250,-306 250,-280 150,-280"/>
<text text-anchor="start" x="154.62" y="-287.7" font-family="Courier New" font-size="14.00">(1,3)&#45;(1,4)</text>
<polygon fill="none" stroke="black" points="0,-254 0,-280 150,-280 150,-254 0,-254"/>
<text text-anchor="start" x="5" y="-261.7" font-family="Courier New" font-size="14.00">name</text>
<polygon fill="none" stroke="black" points="150,-254 150,-280 250,-280 250,-254 150,-254"/>
<text text-anchor="start" x="183.5" y="-261.7" font-family="Courier New" font-size="14.00">:bar</text>
<polygon fill="none" stroke="black" points="0,-228 0,-254 150,-254 150,-228 0,-228"/>
<text text-anchor="start" x="5" y="-235.7" font-family="Courier New" font-size="14.00">message_loc</text>
<polygon fill="none" stroke="black" points="150,-228 150,-254 250,-254 250,-228 150,-228"/>
<text text-anchor="start" x="154.62" y="-235.7" font-family="Courier New" font-size="14.00">(1,4)&#45;(1,7)</text>
</g>
<!-- Node_60&#45;&gt;Node_80 -->
<g id="edge1" class="edge">
<title>Node_60:receiver&#45;&gt;Node_80</title>
<path fill="none" stroke="black" d="M217,-589C134.08,-589 119.07,-477.43 119.35,-394.65"/>
<polygon fill="black" stroke="black" points="122.86,-394.72 119.48,-384.69 115.86,-394.64 122.86,-394.72"/>
</g>
<!-- Node_100 -->
<g id="node4" class="node">
<title>Node_100</title>
<polygon fill="#f2f2f2" stroke="none" points="385.5,-345 268.5,-345 268.5,-267 385.5,-267 385.5,-345"/>
<polygon fill="none" stroke="black" points="268.5,-319 268.5,-345 385.5,-345 385.5,-319 268.5,-319"/>
<text text-anchor="start" x="273.38" y="-327.7" font-family="Courier New" font-weight="bold" font-size="14.00">ArgumentsNode</text>
<polygon fill="none" stroke="black" points="268.5,-293 268.5,-319 347.5,-319 347.5,-293 268.5,-293"/>
<text text-anchor="start" x="273.5" y="-300.7" font-family="Courier New" font-size="14.00">flags</text>
<polygon fill="none" stroke="black" points="347.5,-293 347.5,-319 385.5,-319 385.5,-293 347.5,-293"/>
<polygon fill="none" stroke="black" points="268.5,-267 268.5,-293 385.5,-293 385.5,-267 268.5,-267"/>
<text text-anchor="start" x="273.5" y="-274.7" font-family="Courier New" font-size="14.00">arguments</text>
</g>
<!-- Node_60&#45;&gt;Node_100 -->
<g id="edge2" class="edge">
<title>Node_60:arguments&#45;&gt;Node_100</title>
<path fill="none" stroke="black" d="M437,-485C465.89,-485 448.12,-446.23 436,-420 425.83,-397.99 412.17,-401.12 395,-384 385.23,-374.26 375.16,-363.38 365.86,-352.94"/>
<polygon fill="black" stroke="black" points="368.83,-350.87 359.59,-345.68 363.58,-355.5 368.83,-350.87"/>
</g>
<!-- Node_120 -->
<g id="node6" class="node">
<title>Node_120</title>
<polygon fill="#f2f2f2" stroke="none" points="612.5,-345 403.5,-345 403.5,-267 612.5,-267 612.5,-345"/>
<polygon fill="none" stroke="black" points="403.5,-319 403.5,-345 612.5,-345 612.5,-319 403.5,-319"/>
<text text-anchor="start" x="437.88" y="-327.7" font-family="Courier New" font-weight="bold" font-size="14.00">BlockArgumentNode</text>
<polygon fill="none" stroke="black" points="403.5,-293 403.5,-319 612.5,-319 612.5,-293 403.5,-293"/>
<text text-anchor="start" x="408.5" y="-300.7" font-family="Courier New" font-size="14.00">expression</text>
<polygon fill="none" stroke="black" points="403.5,-267 403.5,-293 512.5,-293 512.5,-267 403.5,-267"/>
<text text-anchor="start" x="408.5" y="-274.7" font-family="Courier New" font-size="14.00">operator_loc</text>
<polygon fill="none" stroke="black" points="512.5,-267 512.5,-293 612.5,-293 612.5,-267 512.5,-267"/>
<text text-anchor="start" x="517.12" y="-274.7" font-family="Courier New" font-size="14.00">(1,8)&#45;(1,9)</text>
</g>
<!-- Node_60&#45;&gt;Node_120 -->
<g id="edge3" class="edge">
<title>Node_60:block&#45;&gt;Node_120</title>
<path fill="none" stroke="black" d="M437,-433C474.25,-433 492.17,-390.68 500.66,-355.1"/>
<polygon fill="black" stroke="black" points="504.19,-356.32 502.9,-345.8 497.35,-354.83 504.19,-356.32"/>
</g>
<!-- Node_140 -->
<g id="node3" class="node">
<title>Node_140</title>
<polygon fill="#f2f2f2" stroke="none" points="233.5,-192 16.5,-192 16.5,-88 233.5,-88 233.5,-192"/>
<polygon fill="none" stroke="black" points="16.5,-166 16.5,-192 233.5,-192 233.5,-166 16.5,-166"/>
<text text-anchor="start" x="92" y="-174.7" font-family="Courier New" font-weight="bold" font-size="14.00">CallNode</text>
<polygon fill="none" stroke="black" points="16.5,-140 16.5,-166 116.5,-166 116.5,-140 16.5,-140"/>
<text text-anchor="start" x="21.5" y="-147.7" font-family="Courier New" font-size="14.00">flags</text>
<polygon fill="none" stroke="black" points="116.5,-140 116.5,-166 233.5,-166 233.5,-140 116.5,-140"/>
<text text-anchor="start" x="121.38" y="-147.7" font-family="Courier New" font-size="14.00">variable_call</text>
<polygon fill="none" stroke="black" points="16.5,-114 16.5,-140 116.5,-140 116.5,-114 16.5,-114"/>
<text text-anchor="start" x="21.5" y="-121.7" font-family="Courier New" font-size="14.00">name</text>
<polygon fill="none" stroke="black" points="116.5,-114 116.5,-140 233.5,-140 233.5,-114 116.5,-114"/>
<text text-anchor="start" x="158.5" y="-121.7" font-family="Courier New" font-size="14.00">:foo</text>
<polygon fill="none" stroke="black" points="16.5,-88 16.5,-114 116.5,-114 116.5,-88 16.5,-88"/>
<text text-anchor="start" x="21.12" y="-95.7" font-family="Courier New" font-size="14.00">message_loc</text>
<polygon fill="none" stroke="black" points="116.5,-88 116.5,-114 233.5,-114 233.5,-88 116.5,-88"/>
<text text-anchor="start" x="129.62" y="-95.7" font-family="Courier New" font-size="14.00">(1,0)&#45;(1,3)</text>
</g>
<!-- Node_80&#45;&gt;Node_140 -->
<g id="edge4" class="edge">
<title>Node_80:receiver&#45;&gt;Node_140</title>
<path fill="none" stroke="black" d="M251,-319C261.11,-319 254.73,-236.94 250,-228 244.36,-217.34 236.75,-207.71 228.06,-199.09"/>
<polygon fill="black" stroke="black" points="230.89,-197.01 221.18,-192.77 226.13,-202.14 230.89,-197.01"/>
</g>
<!-- Node_100_arguments -->
<g id="node8" class="node">
<title>Node_100_arguments</title>
<ellipse fill="#f2f2f2" stroke="black" cx="327" cy="-140" rx="1.8" ry="1.8"/>
</g>
<!-- Node_100&#45;&gt;Node_100_arguments -->
<g id="edge5" class="edge">
<title>Node_100:arguments&#45;&gt;Node_100_arguments</title>
<path fill="none" stroke="black" d="M327,-266C327,-224.59 327,-175.46 327,-153.13"/>
<polygon fill="black" stroke="black" points="330.5,-153.23 327,-143.23 323.5,-153.23 330.5,-153.23"/>
</g>
<!-- Node_160 -->
<g id="node5" class="node">
<title>Node_160</title>
<polygon fill="#f2f2f2" stroke="none" points="386,-52 268,-52 268,0 386,0 386,-52"/>
<polygon fill="none" stroke="black" points="268,-26 268,-52 386,-52 386,-26 268,-26"/>
<text text-anchor="start" x="281.62" y="-34.7" font-family="Courier New" font-weight="bold" font-size="14.00">IntegerNode</text>
<polygon fill="none" stroke="black" points="268,0 268,-26 319,-26 319,0 268,0"/>
<text text-anchor="start" x="272.88" y="-7.7" font-family="Courier New" font-size="14.00">flags</text>
<polygon fill="none" stroke="black" points="319,0 319,-26 386,-26 386,0 319,0"/>
<text text-anchor="start" x="323.62" y="-7.7" font-family="Courier New" font-size="14.00">decimal</text>
</g>
<!-- Node_180 -->
<g id="node7" class="node">
<title>Node_180</title>
<polygon fill="#f2f2f2" stroke="none" points="616.5,-192 399.5,-192 399.5,-88 616.5,-88 616.5,-192"/>
<polygon fill="none" stroke="black" points="399.5,-166 399.5,-192 616.5,-192 616.5,-166 399.5,-166"/>
<text text-anchor="start" x="475" y="-174.7" font-family="Courier New" font-weight="bold" font-size="14.00">CallNode</text>
<polygon fill="none" stroke="black" points="399.5,-140 399.5,-166 499.5,-166 499.5,-140 399.5,-140"/>
<text text-anchor="start" x="404.5" y="-147.7" font-family="Courier New" font-size="14.00">flags</text>
<polygon fill="none" stroke="black" points="499.5,-140 499.5,-166 616.5,-166 616.5,-140 499.5,-140"/>
<text text-anchor="start" x="504.38" y="-147.7" font-family="Courier New" font-size="14.00">variable_call</text>
<polygon fill="none" stroke="black" points="399.5,-114 399.5,-140 499.5,-140 499.5,-114 399.5,-114"/>
<text text-anchor="start" x="404.5" y="-121.7" font-family="Courier New" font-size="14.00">name</text>
<polygon fill="none" stroke="black" points="499.5,-114 499.5,-140 616.5,-140 616.5,-114 499.5,-114"/>
<text text-anchor="start" x="541.5" y="-121.7" font-family="Courier New" font-size="14.00">:baz</text>
<polygon fill="none" stroke="black" points="399.5,-88 399.5,-114 499.5,-114 499.5,-88 399.5,-88"/>
<text text-anchor="start" x="404.12" y="-95.7" font-family="Courier New" font-size="14.00">message_loc</text>
<polygon fill="none" stroke="black" points="499.5,-88 499.5,-114 616.5,-114 616.5,-88 499.5,-88"/>
<text text-anchor="start" x="508.5" y="-95.7" font-family="Courier New" font-size="14.00">(1,9)&#45;(1,12)</text>
</g>
<!-- Node_120&#45;&gt;Node_180 -->
<g id="edge7" class="edge">
<title>Node_120:expression&#45;&gt;Node_180</title>
<path fill="none" stroke="black" d="M614,-306C666.19,-306 617.87,-246.83 570.69,-199.36"/>
<polygon fill="black" stroke="black" points="573.7,-197.42 564.15,-192.85 568.77,-202.39 573.7,-197.42"/>
</g>
<!-- Node_100_arguments&#45;&gt;Node_160 -->
<g id="edge6" class="edge">
<title>Node_100_arguments&#45;&gt;Node_160</title>
<path fill="none" stroke="black" d="M327,-137.74C327,-130.37 327,-92.07 327,-62.55"/>
<polygon fill="black" stroke="black" points="330.5,-62.75 327,-52.75 323.5,-62.75 330.5,-62.75"/>
</g>
</g>
</svg>
