<?xml version="1.0" encoding="UTF-8" standalone="no"?>
<!DOCTYPE svg PUBLIC "-//W3C//DTD SVG 1.1//EN"
 "http://www.w3.org/Graphics/SVG/1.1/DTD/svg11.dtd">
<!-- Generated by graphviz version 8.1.0 (20230707.0739)
 -->
<!-- Title: Prism Pages: 1 -->
<svg width="348pt" height="621pt"
 viewBox="0.00 0.00 348.18 621.20" xmlns="http://www.w3.org/2000/svg" xmlns:xlink="http://www.w3.org/1999/xlink">
<g id="graph0" class="graph" transform="scale(1 1) rotate(0) translate(4 617.2)">
<title>Prism</title>
<polygon fill="white" stroke="none" points="-4,4 -4,-617.2 344.18,-617.2 344.18,4 -4,4"/>
<!-- Node_60 -->
<g id="node1" class="node">
<title>Node_60</title>
<polygon fill="#f2f2f2" stroke="none" points="241.5,-613.2 16.5,-613.2 16.5,-483.2 241.5,-483.2 241.5,-613.2"/>
<polygon fill="none" stroke="black" points="16.5,-587.2 16.5,-613.2 241.5,-613.2 241.5,-587.2 16.5,-587.2"/>
<text text-anchor="start" x="91.88" y="-595.9" font-family="Courier New" font-weight="bold" font-size="14.00">UntilNode</text>
<polygon fill="none" stroke="black" points="16.5,-561.2 16.5,-587.2 116.5,-587.2 116.5,-561.2 16.5,-561.2"/>
<text text-anchor="start" x="21.5" y="-568.9" font-family="Courier New" font-size="14.00">flags</text>
<polygon fill="none" stroke="black" points="116.5,-561.2 116.5,-587.2 241.5,-587.2 241.5,-561.2 116.5,-561.2"/>
<text text-anchor="start" x="121.25" y="-568.9" font-family="Courier New" font-size="14.00">begin_modifier</text>
<polygon fill="none" stroke="black" points="16.5,-535.2 16.5,-561.2 116.5,-561.2 116.5,-535.2 16.5,-535.2"/>
<text text-anchor="start" x="21.12" y="-542.9" font-family="Courier New" font-size="14.00">keyword_loc</text>
<polygon fill="none" stroke="black" points="116.5,-535.2 116.5,-561.2 241.5,-561.2 241.5,-535.2 116.5,-535.2"/>
<text text-anchor="start" x="125.38" y="-542.9" font-family="Courier New" font-size="14.00">(1,12)&#45;(1,17)</text>
<polygon fill="none" stroke="black" points="16.5,-509.2 16.5,-535.2 241.5,-535.2 241.5,-509.2 16.5,-509.2"/>
<text text-anchor="start" x="21.5" y="-516.9" font-family="Courier New" font-size="14.00">predicate</text>
<polygon fill="none" stroke="black" points="16.5,-483.2 16.5,-509.2 241.5,-509.2 241.5,-483.2 16.5,-483.2"/>
<text text-anchor="start" x="21.5" y="-490.9" font-family="Courier New" font-size="14.00">statements</text>
</g>
<!-- Node_80 -->
<g id="node2" class="node">
<title>Node_80</title>
<polygon fill="#f2f2f2" stroke="none" points="118,-447.2 0,-447.2 0,-395.2 118,-395.2 118,-447.2"/>
<polygon fill="none" stroke="black" points="0,-421.2 0,-447.2 118,-447.2 118,-421.2 0,-421.2"/>
<text text-anchor="start" x="13.62" y="-429.9" font-family="Courier New" font-weight="bold" font-size="14.00">IntegerNode</text>
<polygon fill="none" stroke="black" points="0,-395.2 0,-421.2 51,-421.2 51,-395.2 0,-395.2"/>
<text text-anchor="start" x="4.88" y="-402.9" font-family="Courier New" font-size="14.00">flags</text>
<polygon fill="none" stroke="black" points="51,-395.2 51,-421.2 118,-421.2 118,-395.2 51,-395.2"/>
<text text-anchor="start" x="55.62" y="-402.9" font-family="Courier New" font-size="14.00">decimal</text>
</g>
<!-- Node_60&#45;&gt;Node_80 -->
<g id="edge1" class="edge">
<title>Node_60:predicate&#45;&gt;Node_80</title>
<path fill="none" stroke="black" d="M15,-522.2C-14.78,-522.2 8.52,-484.59 30.99,-455.5"/>
<polygon fill="black" stroke="black" points="34.11,-458.19 37.57,-448.18 28.62,-453.85 34.11,-458.19"/>
</g>
<!-- Node_100 -->
<g id="node3" class="node">
<title>Node_100</title>
<polygon fill="#f2f2f2" stroke="none" points="261.5,-447.2 136.5,-447.2 136.5,-395.2 261.5,-395.2 261.5,-447.2"/>
<polygon fill="none" stroke="black" points="136.5,-421.2 136.5,-447.2 261.5,-447.2 261.5,-421.2 136.5,-421.2"/>
<text text-anchor="start" x="141.25" y="-429.9" font-family="Courier New" font-weight="bold" font-size="14.00">StatementsNode</text>
<polygon fill="none" stroke="black" points="136.5,-395.2 136.5,-421.2 261.5,-421.2 261.5,-395.2 136.5,-395.2"/>
<text text-anchor="start" x="141.5" y="-402.9" font-family="Courier New" font-size="14.00">body</text>
</g>
<!-- Node_60&#45;&gt;Node_100 -->
<g id="edge2" class="edge">
<title>Node_60:statements&#45;&gt;Node_100</title>
<path fill="none" stroke="black" d="M243,-496.2C263.62,-496.2 249.23,-474.7 231.58,-454.88"/>
<polygon fill="black" stroke="black" points="234.53,-452.83 225.18,-447.84 229.38,-457.57 234.53,-452.83"/>
</g>
<!-- Node_100_body -->
<g id="node7" class="node">
<title>Node_100_body</title>
<ellipse fill="#f2f2f2" stroke="black" cx="199" cy="-357.4" rx="1.8" ry="1.8"/>
</g>
<!-- Node_100&#45;&gt;Node_100_body -->
<g id="edge3" class="edge">
<title>Node_100:body&#45;&gt;Node_100_body</title>
<path fill="none" stroke="black" d="M199,-395.2C199,-386.96 199,-377.69 199,-370.51"/>
<polygon fill="black" stroke="black" points="202.5,-370.54 199,-360.54 195.5,-370.54 202.5,-370.54"/>
</g>
<!-- Node_120 -->
<g id="node4" class="node">
<title>Node_120</title>
<polygon fill="#f2f2f2" stroke="none" points="328.5,-319.6 69.5,-319.6 69.5,-215.6 328.5,-215.6 328.5,-319.6"/>
<polygon fill="none" stroke="black" points="69.5,-293.6 69.5,-319.6 328.5,-319.6 328.5,-293.6 69.5,-293.6"/>
<text text-anchor="start" x="161.88" y="-302.3" font-family="Courier New" font-weight="bold" font-size="14.00">BeginNode</text>
<polygon fill="none" stroke="black" points="69.5,-267.6 69.5,-293.6 219.5,-293.6 219.5,-267.6 69.5,-267.6"/>
<text text-anchor="start" x="74.38" y="-275.3" font-family="Courier New" font-size="14.00">begin_keyword_loc</text>
<polygon fill="none" stroke="black" points="219.5,-267.6 219.5,-293.6 328.5,-293.6 328.5,-267.6 219.5,-267.6"/>
<text text-anchor="start" x="228.62" y="-275.3" font-family="Courier New" font-size="14.00">(1,0)&#45;(1,5)</text>
<polygon fill="none" stroke="black" points="69.5,-241.6 69.5,-267.6 328.5,-267.6 328.5,-241.6 69.5,-241.6"/>
<text text-anchor="start" x="74.5" y="-249.3" font-family="Courier New" font-size="14.00">statements</text>
<polygon fill="none" stroke="black" points="69.5,-215.6 69.5,-241.6 219.5,-241.6 219.5,-215.6 69.5,-215.6"/>
<text text-anchor="start" x="74.5" y="-223.3" font-family="Courier New" font-size="14.00">end_keyword_loc</text>
<polygon fill="none" stroke="black" points="219.5,-215.6 219.5,-241.6 328.5,-241.6 328.5,-215.6 219.5,-215.6"/>
<text text-anchor="start" x="224.5" y="-223.3" font-family="Courier New" font-size="14.00">(1,8)&#45;(1,11)</text>
</g>
<!-- Node_140 -->
<g id="node5" class="node">
<title>Node_140</title>
<polygon fill="#f2f2f2" stroke="none" points="261.5,-179.6 136.5,-179.6 136.5,-127.6 261.5,-127.6 261.5,-179.6"/>
<polygon fill="none" stroke="black" points="136.5,-153.6 136.5,-179.6 261.5,-179.6 261.5,-153.6 136.5,-153.6"/>
<text text-anchor="start" x="141.25" y="-162.3" font-family="Courier New" font-weight="bold" font-size="14.00">StatementsNode</text>
<polygon fill="none" stroke="black" points="136.5,-127.6 136.5,-153.6 261.5,-153.6 261.5,-127.6 136.5,-127.6"/>
<text text-anchor="start" x="141.5" y="-135.3" font-family="Courier New" font-size="14.00">body</text>
</g>
<!-- Node_120&#45;&gt;Node_140 -->
<g id="edge5" class="edge">
<title>Node_120:statements&#45;&gt;Node_140</title>
<path fill="none" stroke="black" d="M330,-254.6C347.34,-254.6 338.49,-230.11 329,-215.6 315.69,-195.24 293.65,-181.54 271.46,-172.38"/>
<polygon fill="black" stroke="black" points="272.88,-168.79 262.29,-168.48 270.37,-175.33 272.88,-168.79"/>
</g>
<!-- Node_140_body -->
<g id="node8" class="node">
<title>Node_140_body</title>
<ellipse fill="#f2f2f2" stroke="black" cx="199" cy="-89.8" rx="1.8" ry="1.8"/>
</g>
<!-- Node_140&#45;&gt;Node_140_body -->
<g id="edge6" class="edge">
<title>Node_140:body&#45;&gt;Node_140_body</title>
<path fill="none" stroke="black" d="M199,-127.6C199,-119.36 199,-110.09 199,-102.91"/>
<polygon fill="black" stroke="black" points="202.5,-102.94 199,-92.94 195.5,-102.94 202.5,-102.94"/>
</g>
<!-- Node_160 -->
<g id="node6" class="node">
<title>Node_160</title>
<polygon fill="#f2f2f2" stroke="none" points="258,-52 140,-52 140,0 258,0 258,-52"/>
<polygon fill="none" stroke="black" points="140,-26 140,-52 258,-52 258,-26 140,-26"/>
<text text-anchor="start" x="153.62" y="-34.7" font-family="Courier New" font-weight="bold" font-size="14.00">IntegerNode</text>
<polygon fill="none" stroke="black" points="140,0 140,-26 191,-26 191,0 140,0"/>
<text text-anchor="start" x="144.88" y="-7.7" font-family="Courier New" font-size="14.00">flags</text>
<polygon fill="none" stroke="black" points="191,0 191,-26 258,-26 258,0 191,0"/>
<text text-anchor="start" x="195.62" y="-7.7" font-family="Courier New" font-size="14.00">decimal</text>
</g>
<!-- Node_100_body&#45;&gt;Node_120 -->
<g id="edge4" class="edge">
<title>Node_100_body&#45;&gt;Node_120</title>
<path fill="none" stroke="black" d="M199,-355.16C199,-351.81 199,-342.01 199,-330.16"/>
<polygon fill="black" stroke="black" points="202.5,-330.32 199,-320.32 195.5,-330.32 202.5,-330.32"/>
</g>
<!-- Node_140_body&#45;&gt;Node_160 -->
<g id="edge7" class="edge">
<title>Node_140_body&#45;&gt;Node_160</title>
<path fill="none" stroke="black" d="M199,-87.73C199,-84.45 199,-74.09 199,-62.84"/>
<polygon fill="black" stroke="black" points="202.5,-62.97 199,-52.97 195.5,-62.98 202.5,-62.97"/>
</g>
</g>
</svg>
