<?xml version="1.0" encoding="UTF-8" standalone="no"?>
<!DOCTYPE svg PUBLIC "-//W3C//DTD SVG 1.1//EN"
 "http://www.w3.org/Graphics/SVG/1.1/DTD/svg11.dtd">
<!-- Generated by graphviz version 8.1.0 (20230707.0739)
 -->
<!-- Title: Prism Pages: 1 -->
<svg width="346pt" height="392pt"
 viewBox="0.00 0.00 345.50 392.00" xmlns="http://www.w3.org/2000/svg" xmlns:xlink="http://www.w3.org/1999/xlink">
<g id="graph0" class="graph" transform="scale(1 1) rotate(0) translate(4 388)">
<title>Prism</title>
<polygon fill="white" stroke="none" points="-4,4 -4,-388 341.5,-388 341.5,4 -4,4"/>
<!-- Node_60 -->
<g id="node1" class="node">
<title>Node_60</title>
<polygon fill="#f2f2f2" stroke="none" points="241.5,-384 116.5,-384 116.5,-228 241.5,-228 241.5,-384"/>
<polygon fill="none" stroke="black" points="116.5,-358 116.5,-384 241.5,-384 241.5,-358 116.5,-358"/>
<text text-anchor="start" x="121.25" y="-366.7" font-family="Courier New" font-weight="bold" font-size="14.00">ParametersNode</text>
<polygon fill="none" stroke="black" points="116.5,-332 116.5,-358 241.5,-358 241.5,-332 116.5,-332"/>
<text text-anchor="start" x="121.5" y="-339.7" font-family="Courier New" font-size="14.00">requireds</text>
<polygon fill="none" stroke="black" points="116.5,-306 116.5,-332 207.5,-332 207.5,-306 116.5,-306"/>
<text text-anchor="start" x="121.5" y="-313.7" font-family="Courier New" font-size="14.00">optionals</text>
<polygon fill="none" stroke="black" points="207.5,-306 207.5,-332 241.5,-332 241.5,-306 207.5,-306"/>
<text text-anchor="start" x="216.25" y="-313.7" font-family="Courier New" font-size="14.00">[]</text>
<polygon fill="none" stroke="black" points="116.5,-280 116.5,-306 241.5,-306 241.5,-280 116.5,-280"/>
<text text-anchor="start" x="121.5" y="-287.7" font-family="Courier New" font-size="14.00">rest</text>
<polygon fill="none" stroke="black" points="116.5,-254 116.5,-280 207.5,-280 207.5,-254 116.5,-254"/>
<text text-anchor="start" x="121.5" y="-261.7" font-family="Courier New" font-size="14.00">posts</text>
<polygon fill="none" stroke="black" points="207.5,-254 207.5,-280 241.5,-280 241.5,-254 207.5,-254"/>
<text text-anchor="start" x="216.25" y="-261.7" font-family="Courier New" font-size="14.00">[]</text>
<polygon fill="none" stroke="black" points="116.5,-228 116.5,-254 207.5,-254 207.5,-228 116.5,-228"/>
<text text-anchor="start" x="121.5" y="-235.7" font-family="Courier New" font-size="14.00">keywords</text>
<polygon fill="none" stroke="black" points="207.5,-228 207.5,-254 241.5,-254 241.5,-228 207.5,-228"/>
<text text-anchor="start" x="216.25" y="-235.7" font-family="Courier New" font-size="14.00">[]</text>
</g>
<!-- Node_100 -->
<g id="node3" class="node">
<title>Node_100</title>
<polygon fill="#f2f2f2" stroke="none" points="226,-192 0,-192 0,-88 226,-88 226,-192"/>
<polygon fill="none" stroke="black" points="0,-166 0,-192 226,-192 226,-166 0,-166"/>
<text text-anchor="start" x="42.88" y="-174.7" font-family="Courier New" font-weight="bold" font-size="14.00">RestParameterNode</text>
<polygon fill="none" stroke="black" points="0,-140 0,-166 109,-166 109,-140 0,-140"/>
<text text-anchor="start" x="5" y="-147.7" font-family="Courier New" font-size="14.00">name</text>
<polygon fill="none" stroke="black" points="109,-140 109,-166 226,-166 226,-140 109,-140"/>
<text text-anchor="start" x="151" y="-147.7" font-family="Courier New" font-size="14.00">:baz</text>
<polygon fill="none" stroke="black" points="0,-114 0,-140 109,-140 109,-114 0,-114"/>
<text text-anchor="start" x="5" y="-121.7" font-family="Courier New" font-size="14.00">name_loc</text>
<polygon fill="none" stroke="black" points="109,-114 109,-140 226,-140 226,-114 109,-114"/>
<text text-anchor="start" x="113.88" y="-121.7" font-family="Courier New" font-size="14.00">(1,14)&#45;(1,17)</text>
<polygon fill="none" stroke="black" points="0,-88 0,-114 109,-114 109,-88 0,-88"/>
<text text-anchor="start" x="5" y="-95.7" font-family="Courier New" font-size="14.00">operator_loc</text>
<polygon fill="none" stroke="black" points="109,-88 109,-114 226,-114 226,-88 109,-88"/>
<text text-anchor="start" x="113.88" y="-95.7" font-family="Courier New" font-size="14.00">(1,13)&#45;(1,14)</text>
</g>
<!-- Node_60&#45;&gt;Node_100 -->
<g id="edge3" class="edge">
<title>Node_60:rest&#45;&gt;Node_100</title>
<path fill="none" stroke="black" d="M115,-293C76.8,-293 81.16,-244.41 92.16,-202.18"/>
<polygon fill="black" stroke="black" points="95.79,-203.18 95.08,-192.61 89.04,-201.32 95.79,-203.18"/>
</g>
<!-- Node_60_requireds -->
<g id="node4" class="node">
<title>Node_60_requireds</title>
<ellipse fill="#f2f2f2" stroke="black" cx="246" cy="-140" rx="1.8" ry="1.8"/>
</g>
<!-- Node_60&#45;&gt;Node_60_requireds -->
<g id="edge1" class="edge">
<title>Node_60:requireds&#45;&gt;Node_60_requireds</title>
<path fill="none" stroke="black" d="M243,-345C320.94,-345 267.11,-194.27 250.45,-151.94"/>
<polygon fill="black" stroke="black" points="253.39,-150.86 246.39,-142.91 246.9,-153.49 253.39,-150.86"/>
</g>
<!-- Node_80 -->
<g id="node2" class="node">
<title>Node_80</title>
<polygon fill="#f2f2f2" stroke="none" points="337.5,-52 154.5,-52 154.5,0 337.5,0 337.5,-52"/>
<polygon fill="none" stroke="black" points="154.5,-26 154.5,-52 337.5,-52 337.5,-26 154.5,-26"/>
<text text-anchor="start" x="159.38" y="-34.7" font-family="Courier New" font-weight="bold" font-size="14.00">RequiredParameterNode</text>
<polygon fill="none" stroke="black" points="154.5,0 154.5,-26 245.5,-26 245.5,0 154.5,0"/>
<text text-anchor="start" x="159.5" y="-7.7" font-family="Courier New" font-size="14.00">name</text>
<polygon fill="none" stroke="black" points="245.5,0 245.5,-26 337.5,-26 337.5,0 245.5,0"/>
<text text-anchor="start" x="275" y="-7.7" font-family="Courier New" font-size="14.00">:bar</text>
</g>
<!-- Node_60_requireds&#45;&gt;Node_80 -->
<g id="edge2" class="edge">
<title>Node_60_requireds&#45;&gt;Node_80</title>
<path fill="none" stroke="black" d="M246,-137.74C246,-130.37 246,-92.07 246,-62.55"/>
<polygon fill="black" stroke="black" points="249.5,-62.75 246,-52.75 242.5,-62.75 249.5,-62.75"/>
</g>
</g>
</svg>
