<?xml version="1.0" encoding="UTF-8" standalone="no"?>
<!DOCTYPE svg PUBLIC "-//W3C//DTD SVG 1.1//EN"
 "http://www.w3.org/Graphics/SVG/1.1/DTD/svg11.dtd">
<!-- Generated by graphviz version 8.1.0 (20230707.0739)
 -->
<!-- Title: Prism Pages: 1 -->
<svg width="362pt" height="314pt"
 viewBox="0.00 0.00 361.50 314.00" xmlns="http://www.w3.org/2000/svg" xmlns:xlink="http://www.w3.org/1999/xlink">
<g id="graph0" class="graph" transform="scale(1 1) rotate(0) translate(4 310)">
<title>Prism</title>
<polygon fill="white" stroke="none" points="-4,4 -4,-310 357.5,-310 357.5,4 -4,4"/>
<!-- Node_60 -->
<g id="node1" class="node">
<title>Node_60</title>
<polygon fill="#f2f2f2" stroke="none" points="306,-306 97,-306 97,-202 306,-202 306,-306"/>
<polygon fill="none" stroke="black" points="97,-280 97,-306 306,-306 306,-280 97,-280"/>
<text text-anchor="start" x="114.88" y="-288.7" font-family="Courier New" font-weight="bold" font-size="14.00">ConstantPathWriteNode</text>
<polygon fill="none" stroke="black" points="97,-254 97,-280 306,-280 306,-254 97,-254"/>
<text text-anchor="start" x="102" y="-261.7" font-family="Courier New" font-size="14.00">target</text>
<polygon fill="none" stroke="black" points="97,-228 97,-254 206,-254 206,-228 97,-228"/>
<text text-anchor="start" x="102" y="-235.7" font-family="Courier New" font-size="14.00">operator_loc</text>
<polygon fill="none" stroke="black" points="206,-228 206,-254 306,-254 306,-228 206,-228"/>
<text text-anchor="start" x="210.62" y="-235.7" font-family="Courier New" font-size="14.00">(1,6)&#45;(1,7)</text>
<polygon fill="none" stroke="black" points="97,-202 97,-228 306,-228 306,-202 97,-202"/>
<text text-anchor="start" x="102" y="-209.7" font-family="Courier New" font-size="14.00">value</text>
</g>
<!-- Node_80 -->
<g id="node2" class="node">
<title>Node_80</title>
<polygon fill="#f2f2f2" stroke="none" points="217,-166 0,-166 0,-88 217,-88 217,-166"/>
<polygon fill="none" stroke="black" points="0,-140 0,-166 217,-166 217,-140 0,-140"/>
<text text-anchor="start" x="42.5" y="-148.7" font-family="Courier New" font-weight="bold" font-size="14.00">ConstantPathNode</text>
<polygon fill="none" stroke="black" points="0,-114 0,-140 217,-140 217,-114 0,-114"/>
<text text-anchor="start" x="5" y="-121.7" font-family="Courier New" font-size="14.00">child</text>
<polygon fill="none" stroke="black" points="0,-88 0,-114 117,-114 117,-88 0,-88"/>
<text text-anchor="start" x="4.88" y="-95.7" font-family="Courier New" font-size="14.00">delimiter_loc</text>
<polygon fill="none" stroke="black" points="117,-88 117,-114 217,-114 217,-88 117,-88"/>
<text text-anchor="start" x="121.62" y="-95.7" font-family="Courier New" font-size="14.00">(1,0)&#45;(1,2)</text>
</g>
<!-- Node_60&#45;&gt;Node_80 -->
<g id="edge1" class="edge">
<title>Node_60:target&#45;&gt;Node_80</title>
<path fill="none" stroke="black" d="M95.5,-267C57.96,-267 70.6,-216.13 86.44,-175.93"/>
<polygon fill="black" stroke="black" points="89.97,-177.56 90.51,-166.98 83.49,-174.91 89.97,-177.56"/>
</g>
<!-- Node_100 -->
<g id="node4" class="node">
<title>Node_100</title>
<polygon fill="#f2f2f2" stroke="none" points="353.5,-153 235.5,-153 235.5,-101 353.5,-101 353.5,-153"/>
<polygon fill="none" stroke="black" points="235.5,-127 235.5,-153 353.5,-153 353.5,-127 235.5,-127"/>
<text text-anchor="start" x="249.12" y="-135.7" font-family="Courier New" font-weight="bold" font-size="14.00">IntegerNode</text>
<polygon fill="none" stroke="black" points="235.5,-101 235.5,-127 286.5,-127 286.5,-101 235.5,-101"/>
<text text-anchor="start" x="240.38" y="-108.7" font-family="Courier New" font-size="14.00">flags</text>
<polygon fill="none" stroke="black" points="286.5,-101 286.5,-127 353.5,-127 353.5,-101 286.5,-101"/>
<text text-anchor="start" x="291.12" y="-108.7" font-family="Courier New" font-size="14.00">decimal</text>
</g>
<!-- Node_60&#45;&gt;Node_100 -->
<g id="edge2" class="edge">
<title>Node_60:value&#45;&gt;Node_100</title>
<path fill="none" stroke="black" d="M307.5,-215C329.78,-215 322.44,-186.74 312.01,-162.44"/>
<polygon fill="black" stroke="black" points="314.91,-161.36 307.59,-153.7 308.54,-164.25 314.91,-161.36"/>
</g>
<!-- Node_120 -->
<g id="node3" class="node">
<title>Node_120</title>
<polygon fill="#f2f2f2" stroke="none" points="179.5,-52 37.5,-52 37.5,0 179.5,0 179.5,-52"/>
<polygon fill="none" stroke="black" points="37.5,-26 37.5,-52 179.5,-52 179.5,-26 37.5,-26"/>
<text text-anchor="start" x="42.5" y="-34.7" font-family="Courier New" font-weight="bold" font-size="14.00">ConstantReadNode</text>
<polygon fill="none" stroke="black" points="37.5,0 37.5,-26 108.5,-26 108.5,0 37.5,0"/>
<text text-anchor="start" x="42.5" y="-7.7" font-family="Courier New" font-size="14.00">name</text>
<polygon fill="none" stroke="black" points="108.5,0 108.5,-26 179.5,-26 179.5,0 108.5,0"/>
<text text-anchor="start" x="127.5" y="-7.7" font-family="Courier New" font-size="14.00">:Foo</text>
</g>
<!-- Node_80&#45;&gt;Node_120 -->
<g id="edge3" class="edge">
<title>Node_80:child&#45;&gt;Node_120</title>
<path fill="none" stroke="black" d="M218.5,-127C227.17,-127 221.98,-95.42 217.5,-88 210.13,-75.79 199.36,-65.84 187.42,-57.77"/>
<polygon fill="black" stroke="black" points="189.43,-54.28 179.1,-51.97 185.74,-60.23 189.43,-54.28"/>
</g>
</g>
</svg>
