<?xml version="1.0" encoding="UTF-8" standalone="no"?>
<!DOCTYPE svg PUBLIC "-//W3C//DTD SVG 1.1//EN"
 "http://www.w3.org/Graphics/SVG/1.1/DTD/svg11.dtd">
<!-- Generated by graphviz version 8.1.0 (20230707.0739)
 -->
<!-- Title: Prism Pages: 1 -->
<svg width="293pt" height="790pt"
 viewBox="0.00 0.00 292.87 789.60" xmlns="http://www.w3.org/2000/svg" xmlns:xlink="http://www.w3.org/1999/xlink">
<g id="graph0" class="graph" transform="scale(1 1) rotate(0) translate(4 785.6)">
<title>Prism</title>
<polygon fill="white" stroke="none" points="-4,4 -4,-785.6 288.87,-785.6 288.87,4 -4,4"/>
<!-- Node_60 -->
<g id="node1" class="node">
<title>Node_60</title>
<polygon fill="#f2f2f2" stroke="none" points="233.5,-781.6 33.5,-781.6 33.5,-651.6 233.5,-651.6 233.5,-781.6"/>
<polygon fill="none" stroke="black" points="33.5,-755.6 33.5,-781.6 233.5,-781.6 233.5,-755.6 33.5,-755.6"/>
<text text-anchor="start" x="100.5" y="-764.3" font-family="Courier New" font-weight="bold" font-size="14.00">CallNode</text>
<polygon fill="none" stroke="black" points="33.5,-729.6 33.5,-755.6 133.5,-755.6 133.5,-729.6 33.5,-729.6"/>
<text text-anchor="start" x="38.5" y="-737.3" font-family="Courier New" font-size="14.00">flags</text>
<polygon fill="none" stroke="black" points="133.5,-729.6 133.5,-755.6 233.5,-755.6 233.5,-729.6 133.5,-729.6"/>
<polygon fill="none" stroke="black" points="33.5,-703.6 33.5,-729.6 133.5,-729.6 133.5,-703.6 33.5,-703.6"/>
<text text-anchor="start" x="38.5" y="-711.3" font-family="Courier New" font-size="14.00">name</text>
<polygon fill="none" stroke="black" points="133.5,-703.6 133.5,-729.6 233.5,-729.6 233.5,-703.6 133.5,-703.6"/>
<text text-anchor="start" x="167" y="-711.3" font-family="Courier New" font-size="14.00">:foo</text>
<polygon fill="none" stroke="black" points="33.5,-677.6 33.5,-703.6 133.5,-703.6 133.5,-677.6 33.5,-677.6"/>
<text text-anchor="start" x="38.12" y="-685.3" font-family="Courier New" font-size="14.00">message_loc</text>
<polygon fill="none" stroke="black" points="133.5,-677.6 133.5,-703.6 233.5,-703.6 233.5,-677.6 133.5,-677.6"/>
<text text-anchor="start" x="138.12" y="-685.3" font-family="Courier New" font-size="14.00">(1,0)&#45;(1,3)</text>
<polygon fill="none" stroke="black" points="33.5,-651.6 33.5,-677.6 233.5,-677.6 233.5,-651.6 33.5,-651.6"/>
<text text-anchor="start" x="38.5" y="-659.3" font-family="Courier New" font-size="14.00">block</text>
</g>
<!-- Node_80 -->
<g id="node2" class="node">
<title>Node_80</title>
<polygon fill="#f2f2f2" stroke="none" points="267,-615.6 0,-615.6 0,-459.6 267,-459.6 267,-615.6"/>
<polygon fill="none" stroke="black" points="0,-589.6 0,-615.6 267,-615.6 267,-589.6 0,-589.6"/>
<text text-anchor="start" x="96.38" y="-598.3" font-family="Courier New" font-weight="bold" font-size="14.00">BlockNode</text>
<polygon fill="none" stroke="black" points="0,-563.6 0,-589.6 150,-589.6 150,-563.6 0,-563.6"/>
<text text-anchor="start" x="5" y="-571.3" font-family="Courier New" font-size="14.00">locals</text>
<polygon fill="none" stroke="black" points="150,-563.6 150,-589.6 267,-589.6 267,-563.6 150,-563.6"/>
<text text-anchor="start" x="183.75" y="-571.3" font-family="Courier New" font-size="14.00">[:bar]</text>
<polygon fill="none" stroke="black" points="0,-537.6 0,-563.6 150,-563.6 150,-537.6 0,-537.6"/>
<text text-anchor="start" x="4.88" y="-545.3" font-family="Courier New" font-size="14.00">locals_body_index</text>
<polygon fill="none" stroke="black" points="150,-537.6 150,-563.6 267,-563.6 267,-537.6 150,-537.6"/>
<text text-anchor="start" x="204.38" y="-545.3" font-family="Courier New" font-size="14.00">1</text>
<polygon fill="none" stroke="black" points="0,-511.6 0,-537.6 267,-537.6 267,-511.6 0,-511.6"/>
<text text-anchor="start" x="5" y="-519.3" font-family="Courier New" font-size="14.00">parameters</text>
<polygon fill="none" stroke="black" points="0,-485.6 0,-511.6 150,-511.6 150,-485.6 0,-485.6"/>
<text text-anchor="start" x="5" y="-493.3" font-family="Courier New" font-size="14.00">opening_loc</text>
<polygon fill="none" stroke="black" points="150,-485.6 150,-511.6 267,-511.6 267,-485.6 150,-485.6"/>
<text text-anchor="start" x="163.12" y="-493.3" font-family="Courier New" font-size="14.00">(1,4)&#45;(1,5)</text>
<polygon fill="none" stroke="black" points="0,-459.6 0,-485.6 150,-485.6 150,-459.6 0,-459.6"/>
<text text-anchor="start" x="5" y="-467.3" font-family="Courier New" font-size="14.00">closing_loc</text>
<polygon fill="none" stroke="black" points="150,-459.6 150,-485.6 267,-485.6 267,-459.6 150,-459.6"/>
<text text-anchor="start" x="154.88" y="-467.3" font-family="Courier New" font-size="14.00">(1,12)&#45;(1,13)</text>
</g>
<!-- Node_60&#45;&gt;Node_80 -->
<g id="edge1" class="edge">
<title>Node_60:block&#45;&gt;Node_80</title>
<path fill="none" stroke="black" d="M133.5,-651.6C133.5,-643.39 133.5,-634.85 133.5,-626.3"/>
<polygon fill="black" stroke="black" points="137,-626.49 133.5,-616.49 130,-626.49 137,-626.49"/>
</g>
<!-- Node_100 -->
<g id="node3" class="node">
<title>Node_100</title>
<polygon fill="#f2f2f2" stroke="none" points="242,-423.6 25,-423.6 25,-293.6 242,-293.6 242,-423.6"/>
<polygon fill="none" stroke="black" points="25,-397.6 25,-423.6 242,-423.6 242,-397.6 25,-397.6"/>
<text text-anchor="start" x="55.12" y="-406.3" font-family="Courier New" font-weight="bold" font-size="14.00">BlockParametersNode</text>
<polygon fill="none" stroke="black" points="25,-371.6 25,-397.6 242,-397.6 242,-371.6 25,-371.6"/>
<text text-anchor="start" x="30" y="-379.3" font-family="Courier New" font-size="14.00">parameters</text>
<polygon fill="none" stroke="black" points="25,-345.6 25,-371.6 125,-371.6 125,-345.6 25,-345.6"/>
<text text-anchor="start" x="30" y="-353.3" font-family="Courier New" font-size="14.00">locals</text>
<polygon fill="none" stroke="black" points="125,-345.6 125,-371.6 242,-371.6 242,-345.6 125,-345.6"/>
<text text-anchor="start" x="175.25" y="-353.3" font-family="Courier New" font-size="14.00">[]</text>
<polygon fill="none" stroke="black" points="25,-319.6 25,-345.6 125,-345.6 125,-319.6 25,-319.6"/>
<text text-anchor="start" x="29.62" y="-327.3" font-family="Courier New" font-size="14.00">opening_loc</text>
<polygon fill="none" stroke="black" points="125,-319.6 125,-345.6 242,-345.6 242,-319.6 125,-319.6"/>
<text text-anchor="start" x="138.12" y="-327.3" font-family="Courier New" font-size="14.00">(1,6)&#45;(1,7)</text>
<polygon fill="none" stroke="black" points="25,-293.6 25,-319.6 125,-319.6 125,-293.6 25,-293.6"/>
<text text-anchor="start" x="29.62" y="-301.3" font-family="Courier New" font-size="14.00">closing_loc</text>
<polygon fill="none" stroke="black" points="125,-293.6 125,-319.6 242,-319.6 242,-293.6 125,-293.6"/>
<text text-anchor="start" x="129.88" y="-301.3" font-family="Courier New" font-size="14.00">(1,10)&#45;(1,11)</text>
</g>
<!-- Node_80&#45;&gt;Node_100 -->
<g id="edge2" class="edge">
<title>Node_80:parameters&#45;&gt;Node_100</title>
<path fill="none" stroke="black" d="M268.5,-524.6C297.39,-524.6 280.65,-485.33 267.5,-459.6 262.24,-449.31 255.38,-439.8 247.53,-431.08"/>
<polygon fill="black" stroke="black" points="250.52,-429.09 241.07,-424.29 245.46,-433.94 250.52,-429.09"/>
</g>
<!-- Node_120 -->
<g id="node4" class="node">
<title>Node_120</title>
<polygon fill="#f2f2f2" stroke="none" points="196,-257.6 71,-257.6 71,-127.6 196,-127.6 196,-257.6"/>
<polygon fill="none" stroke="black" points="71,-231.6 71,-257.6 196,-257.6 196,-231.6 71,-231.6"/>
<text text-anchor="start" x="75.75" y="-240.3" font-family="Courier New" font-weight="bold" font-size="14.00">ParametersNode</text>
<polygon fill="none" stroke="black" points="71,-205.6 71,-231.6 196,-231.6 196,-205.6 71,-205.6"/>
<text text-anchor="start" x="76" y="-213.3" font-family="Courier New" font-size="14.00">requireds</text>
<polygon fill="none" stroke="black" points="71,-179.6 71,-205.6 162,-205.6 162,-179.6 71,-179.6"/>
<text text-anchor="start" x="76" y="-187.3" font-family="Courier New" font-size="14.00">optionals</text>
<polygon fill="none" stroke="black" points="162,-179.6 162,-205.6 196,-205.6 196,-179.6 162,-179.6"/>
<text text-anchor="start" x="170.75" y="-187.3" font-family="Courier New" font-size="14.00">[]</text>
<polygon fill="none" stroke="black" points="71,-153.6 71,-179.6 162,-179.6 162,-153.6 71,-153.6"/>
<text text-anchor="start" x="76" y="-161.3" font-family="Courier New" font-size="14.00">posts</text>
<polygon fill="none" stroke="black" points="162,-153.6 162,-179.6 196,-179.6 196,-153.6 162,-153.6"/>
<text text-anchor="start" x="170.75" y="-161.3" font-family="Courier New" font-size="14.00">[]</text>
<polygon fill="none" stroke="black" points="71,-127.6 71,-153.6 162,-153.6 162,-127.6 71,-127.6"/>
<text text-anchor="start" x="76" y="-135.3" font-family="Courier New" font-size="14.00">keywords</text>
<polygon fill="none" stroke="black" points="162,-127.6 162,-153.6 196,-153.6 196,-127.6 162,-127.6"/>
<text text-anchor="start" x="170.75" y="-135.3" font-family="Courier New" font-size="14.00">[]</text>
</g>
<!-- Node_100&#45;&gt;Node_120 -->
<g id="edge3" class="edge">
<title>Node_100:parameters&#45;&gt;Node_120</title>
<path fill="none" stroke="black" d="M243.5,-384.6C283.95,-384.6 258.98,-330.54 242.5,-293.6 233.9,-274.33 219.59,-257.12 204.12,-242.65"/>
<polygon fill="black" stroke="black" points="206.74,-240.39 196.95,-236.33 202.07,-245.61 206.74,-240.39"/>
</g>
<!-- Node_120_requireds -->
<g id="node6" class="node">
<title>Node_120_requireds</title>
<ellipse fill="#f2f2f2" stroke="black" cx="133.5" cy="-89.8" rx="1.8" ry="1.8"/>
</g>
<!-- Node_120&#45;&gt;Node_120_requireds -->
<g id="edge4" class="edge">
<title>Node_120:requireds&#45;&gt;Node_120_requireds</title>
<path fill="none" stroke="black" d="M197.5,-218.6C237.95,-218.6 216.83,-162.57 196.5,-127.6 185.5,-108.68 160.65,-98.54 145.66,-93.94"/>
<polygon fill="black" stroke="black" points="146.64,-90.31 136.08,-91.13 144.84,-97.08 146.64,-90.31"/>
</g>
<!-- Node_140 -->
<g id="node5" class="node">
<title>Node_140</title>
<polygon fill="#f2f2f2" stroke="none" points="225,-52 42,-52 42,0 225,0 225,-52"/>
<polygon fill="none" stroke="black" points="42,-26 42,-52 225,-52 225,-26 42,-26"/>
<text text-anchor="start" x="46.88" y="-34.7" font-family="Courier New" font-weight="bold" font-size="14.00">RequiredParameterNode</text>
<polygon fill="none" stroke="black" points="42,0 42,-26 133,-26 133,0 42,0"/>
<text text-anchor="start" x="47" y="-7.7" font-family="Courier New" font-size="14.00">name</text>
<polygon fill="none" stroke="black" points="133,0 133,-26 225,-26 225,0 133,0"/>
<text text-anchor="start" x="162.5" y="-7.7" font-family="Courier New" font-size="14.00">:bar</text>
</g>
<!-- Node_120_requireds&#45;&gt;Node_140 -->
<g id="edge5" class="edge">
<title>Node_120_requireds&#45;&gt;Node_140</title>
<path fill="none" stroke="black" d="M133.5,-87.73C133.5,-84.45 133.5,-74.09 133.5,-62.84"/>
<polygon fill="black" stroke="black" points="137,-62.97 133.5,-52.97 130,-62.98 137,-62.97"/>
</g>
</g>
</svg>
