<?xml version="1.0" encoding="UTF-8" standalone="no"?>
<!DOCTYPE svg PUBLIC "-//W3C//DTD SVG 1.1//EN"
 "http://www.w3.org/Graphics/SVG/1.1/DTD/svg11.dtd">
<!-- Generated by graphviz version 8.1.0 (20230707.0739)
 -->
<!-- Title: Prism Pages: 1 -->
<svg width="249pt" height="292pt"
 viewBox="0.00 0.00 249.00 291.60" xmlns="http://www.w3.org/2000/svg" xmlns:xlink="http://www.w3.org/1999/xlink">
<g id="graph0" class="graph" transform="scale(1 1) rotate(0) translate(4 287.6)">
<title>Prism</title>
<polygon fill="white" stroke="none" points="-4,4 -4,-287.6 245,-287.6 245,4 -4,4"/>
<!-- Node_60 -->
<g id="node1" class="node">
<title>Node_60</title>
<polygon fill="#f2f2f2" stroke="none" points="183,-283.6 58,-283.6 58,-153.6 183,-153.6 183,-283.6"/>
<polygon fill="none" stroke="black" points="58,-257.6 58,-283.6 183,-283.6 183,-257.6 58,-257.6"/>
<text text-anchor="start" x="62.75" y="-266.3" font-family="Courier New" font-weight="bold" font-size="14.00">ParametersNode</text>
<polygon fill="none" stroke="black" points="58,-231.6 58,-257.6 149,-257.6 149,-231.6 58,-231.6"/>
<text text-anchor="start" x="63" y="-239.3" font-family="Courier New" font-size="14.00">requireds</text>
<polygon fill="none" stroke="black" points="149,-231.6 149,-257.6 183,-257.6 183,-231.6 149,-231.6"/>
<text text-anchor="start" x="157.75" y="-239.3" font-family="Courier New" font-size="14.00">[]</text>
<polygon fill="none" stroke="black" points="58,-205.6 58,-231.6 149,-231.6 149,-205.6 58,-205.6"/>
<text text-anchor="start" x="63" y="-213.3" font-family="Courier New" font-size="14.00">optionals</text>
<polygon fill="none" stroke="black" points="149,-205.6 149,-231.6 183,-231.6 183,-205.6 149,-205.6"/>
<text text-anchor="start" x="157.75" y="-213.3" font-family="Courier New" font-size="14.00">[]</text>
<polygon fill="none" stroke="black" points="58,-179.6 58,-205.6 149,-205.6 149,-179.6 58,-179.6"/>
<text text-anchor="start" x="63" y="-187.3" font-family="Courier New" font-size="14.00">posts</text>
<polygon fill="none" stroke="black" points="149,-179.6 149,-205.6 183,-205.6 183,-179.6 149,-179.6"/>
<text text-anchor="start" x="157.75" y="-187.3" font-family="Courier New" font-size="14.00">[]</text>
<polygon fill="none" stroke="black" points="58,-153.6 58,-179.6 183,-179.6 183,-153.6 58,-153.6"/>
<text text-anchor="start" x="63" y="-161.3" font-family="Courier New" font-size="14.00">keywords</text>
</g>
<!-- Node_60_keywords -->
<g id="node3" class="node">
<title>Node_60_keywords</title>
<ellipse fill="#f2f2f2" stroke="black" cx="120.5" cy="-115.8" rx="1.8" ry="1.8"/>
</g>
<!-- Node_60&#45;&gt;Node_60_keywords -->
<g id="edge1" class="edge">
<title>Node_60:keywords&#45;&gt;Node_60_keywords</title>
<path fill="none" stroke="black" d="M120.5,-153.6C120.5,-145.36 120.5,-136.09 120.5,-128.91"/>
<polygon fill="black" stroke="black" points="124,-128.94 120.5,-118.94 117,-128.94 124,-128.94"/>
</g>
<!-- Node_80 -->
<g id="node2" class="node">
<title>Node_80</title>
<polygon fill="#f2f2f2" stroke="none" points="241,-78 0,-78 0,0 241,0 241,-78"/>
<polygon fill="none" stroke="black" points="0,-52 0,-78 241,-78 241,-52 0,-52"/>
<text text-anchor="start" x="5" y="-60.7" font-family="Courier New" font-weight="bold" font-size="14.00">RequiredKeywordParameterNode</text>
<polygon fill="none" stroke="black" points="0,-26 0,-52 104,-52 104,-26 0,-26"/>
<text text-anchor="start" x="5" y="-33.7" font-family="Courier New" font-size="14.00">name</text>
<polygon fill="none" stroke="black" points="104,-26 104,-52 241,-52 241,-26 104,-26"/>
<text text-anchor="start" x="156" y="-33.7" font-family="Courier New" font-size="14.00">:bar</text>
<polygon fill="none" stroke="black" points="0,0 0,-26 104,-26 104,0 0,0"/>
<text text-anchor="start" x="5" y="-7.7" font-family="Courier New" font-size="14.00">name_loc</text>
<polygon fill="none" stroke="black" points="104,0 104,-26 241,-26 241,0 104,0"/>
<text text-anchor="start" x="123" y="-7.7" font-family="Courier New" font-size="14.00">(1,8)&#45;(1,12)</text>
</g>
<!-- Node_60_keywords&#45;&gt;Node_80 -->
<g id="edge2" class="edge">
<title>Node_60_keywords&#45;&gt;Node_80</title>
<path fill="none" stroke="black" d="M120.5,-113.5C120.5,-110.06 120.5,-100.15 120.5,-88.69"/>
<polygon fill="black" stroke="black" points="124,-88.87 120.5,-78.87 117,-88.87 124,-88.87"/>
</g>
</g>
</svg>
