<?xml version="1.0" encoding="UTF-8" standalone="no"?>
<!DOCTYPE svg PUBLIC "-//W3C//DTD SVG 1.1//EN"
 "http://www.w3.org/Graphics/SVG/1.1/DTD/svg11.dtd">
<!-- Generated by graphviz version 8.1.0 (20230707.0739)
 -->
<!-- Title: Prism Pages: 1 -->
<svg width="691pt" height="838pt"
 viewBox="0.00 0.00 690.50 838.00" xmlns="http://www.w3.org/2000/svg" xmlns:xlink="http://www.w3.org/1999/xlink">
<g id="graph0" class="graph" transform="scale(1 1) rotate(0) translate(4 834)">
<title>Prism</title>
<polygon fill="white" stroke="none" points="-4,4 -4,-834 686.5,-834 686.5,4 -4,4"/>
<!-- Node_60 -->
<g id="node1" class="node">
<title>Node_60</title>
<polygon fill="#f2f2f2" stroke="none" points="326,-830 100,-830 100,-700 326,-700 326,-830"/>
<polygon fill="none" stroke="black" points="100,-804 100,-830 326,-830 326,-804 100,-804"/>
<text text-anchor="start" x="155.25" y="-812.7" font-family="Courier New" font-weight="bold" font-size="14.00">MultiWriteNode</text>
<polygon fill="none" stroke="black" points="100,-778 100,-804 326,-804 326,-778 100,-778"/>
<text text-anchor="start" x="105" y="-785.7" font-family="Courier New" font-size="14.00">lefts</text>
<polygon fill="none" stroke="black" points="100,-752 100,-778 209,-778 209,-752 100,-752"/>
<text text-anchor="start" x="105" y="-759.7" font-family="Courier New" font-size="14.00">rights</text>
<polygon fill="none" stroke="black" points="209,-752 209,-778 326,-778 326,-752 209,-752"/>
<text text-anchor="start" x="259.25" y="-759.7" font-family="Courier New" font-size="14.00">[]</text>
<polygon fill="none" stroke="black" points="100,-726 100,-752 209,-752 209,-726 100,-726"/>
<text text-anchor="start" x="105" y="-733.7" font-family="Courier New" font-size="14.00">operator_loc</text>
<polygon fill="none" stroke="black" points="209,-726 209,-752 326,-752 326,-726 209,-726"/>
<text text-anchor="start" x="213.88" y="-733.7" font-family="Courier New" font-size="14.00">(1,16)&#45;(1,17)</text>
<polygon fill="none" stroke="black" points="100,-700 100,-726 326,-726 326,-700 100,-700"/>
<text text-anchor="start" x="105" y="-707.7" font-family="Courier New" font-size="14.00">value</text>
</g>
<!-- Node_120 -->
<g id="node6" class="node">
<title>Node_120</title>
<polygon fill="#f2f2f2" stroke="none" points="257.5,-664 40.5,-664 40.5,-534 257.5,-534 257.5,-664"/>
<polygon fill="none" stroke="black" points="40.5,-638 40.5,-664 257.5,-664 257.5,-638 40.5,-638"/>
<text text-anchor="start" x="111.88" y="-646.7" font-family="Courier New" font-weight="bold" font-size="14.00">ArrayNode</text>
<polygon fill="none" stroke="black" points="40.5,-612 40.5,-638 140.5,-638 140.5,-612 40.5,-612"/>
<text text-anchor="start" x="45.5" y="-619.7" font-family="Courier New" font-size="14.00">flags</text>
<polygon fill="none" stroke="black" points="140.5,-612 140.5,-638 257.5,-638 257.5,-612 140.5,-612"/>
<polygon fill="none" stroke="black" points="40.5,-586 40.5,-612 257.5,-612 257.5,-586 40.5,-586"/>
<text text-anchor="start" x="45.5" y="-593.7" font-family="Courier New" font-size="14.00">elements</text>
<polygon fill="none" stroke="black" points="40.5,-560 40.5,-586 140.5,-586 140.5,-560 40.5,-560"/>
<text text-anchor="start" x="45.12" y="-567.7" font-family="Courier New" font-size="14.00">opening_loc</text>
<polygon fill="none" stroke="black" points="140.5,-560 140.5,-586 257.5,-586 257.5,-560 140.5,-560"/>
<text text-anchor="start" x="145.38" y="-567.7" font-family="Courier New" font-size="14.00">(1,18)&#45;(1,19)</text>
<polygon fill="none" stroke="black" points="40.5,-534 40.5,-560 140.5,-560 140.5,-534 40.5,-534"/>
<text text-anchor="start" x="45.12" y="-541.7" font-family="Courier New" font-size="14.00">closing_loc</text>
<polygon fill="none" stroke="black" points="140.5,-534 140.5,-560 257.5,-560 257.5,-534 140.5,-534"/>
<text text-anchor="start" x="145.38" y="-541.7" font-family="Courier New" font-size="14.00">(1,28)&#45;(1,29)</text>
</g>
<!-- Node_60&#45;&gt;Node_120 -->
<g id="edge4" class="edge">
<title>Node_60:value&#45;&gt;Node_120</title>
<path fill="none" stroke="black" d="M213,-700C213,-691.06 211.16,-682.28 208.11,-673.86"/>
<polygon fill="black" stroke="black" points="210.96,-672.62 203.83,-664.79 204.52,-675.36 210.96,-672.62"/>
</g>
<!-- Node_60_lefts -->
<g id="node11" class="node">
<title>Node_60_lefts</title>
<ellipse fill="#f2f2f2" stroke="black" cx="277" cy="-599" rx="1.8" ry="1.8"/>
</g>
<!-- Node_60&#45;&gt;Node_60_lefts -->
<g id="edge1" class="edge">
<title>Node_60:lefts&#45;&gt;Node_60_lefts</title>
<path fill="none" stroke="black" d="M327,-791C402.76,-791 310.44,-648.64 283.79,-609.73"/>
<polygon fill="black" stroke="black" points="286.2,-608.06 277.61,-601.85 280.45,-612.06 286.2,-608.06"/>
</g>
<!-- Node_80 -->
<g id="node2" class="node">
<title>Node_80</title>
<polygon fill="#f2f2f2" stroke="none" points="371.5,-472 172.5,-472 172.5,-394 371.5,-394 371.5,-472"/>
<polygon fill="none" stroke="black" points="172.5,-446 172.5,-472 371.5,-472 371.5,-446 172.5,-446"/>
<text text-anchor="start" x="177.12" y="-454.7" font-family="Courier New" font-weight="bold" font-size="14.00">LocalVariableTargetNode</text>
<polygon fill="none" stroke="black" points="172.5,-420 172.5,-446 275.5,-446 275.5,-420 172.5,-420"/>
<text text-anchor="start" x="177.5" y="-427.7" font-family="Courier New" font-size="14.00">name</text>
<polygon fill="none" stroke="black" points="275.5,-420 275.5,-446 371.5,-446 371.5,-420 275.5,-420"/>
<text text-anchor="start" x="307" y="-427.7" font-family="Courier New" font-size="14.00">:foo</text>
<polygon fill="none" stroke="black" points="172.5,-394 172.5,-420 275.5,-420 275.5,-394 172.5,-394"/>
<text text-anchor="start" x="177.5" y="-401.7" font-family="Courier New" font-size="14.00">depth</text>
<polygon fill="none" stroke="black" points="275.5,-394 275.5,-420 371.5,-420 371.5,-394 275.5,-394"/>
<text text-anchor="start" x="319.38" y="-401.7" font-family="Courier New" font-size="14.00">0</text>
</g>
<!-- Node_100 -->
<g id="node3" class="node">
<title>Node_100</title>
<polygon fill="#f2f2f2" stroke="none" points="598.5,-498 389.5,-498 389.5,-368 598.5,-368 598.5,-498"/>
<polygon fill="none" stroke="black" points="389.5,-472 389.5,-498 598.5,-498 598.5,-472 389.5,-472"/>
<text text-anchor="start" x="432.12" y="-480.7" font-family="Courier New" font-weight="bold" font-size="14.00">MultiTargetNode</text>
<polygon fill="none" stroke="black" points="389.5,-446 389.5,-472 598.5,-472 598.5,-446 389.5,-446"/>
<text text-anchor="start" x="394.5" y="-453.7" font-family="Courier New" font-size="14.00">lefts</text>
<polygon fill="none" stroke="black" points="389.5,-420 389.5,-446 481.5,-446 481.5,-420 389.5,-420"/>
<text text-anchor="start" x="394.5" y="-427.7" font-family="Courier New" font-size="14.00">rights</text>
<polygon fill="none" stroke="black" points="481.5,-420 481.5,-446 598.5,-446 598.5,-420 481.5,-420"/>
<text text-anchor="start" x="531.75" y="-427.7" font-family="Courier New" font-size="14.00">[]</text>
<polygon fill="none" stroke="black" points="389.5,-394 389.5,-420 481.5,-420 481.5,-394 389.5,-394"/>
<text text-anchor="start" x="394.25" y="-401.7" font-family="Courier New" font-size="14.00">lparen_loc</text>
<polygon fill="none" stroke="black" points="481.5,-394 481.5,-420 598.5,-420 598.5,-394 481.5,-394"/>
<text text-anchor="start" x="494.62" y="-401.7" font-family="Courier New" font-size="14.00">(1,5)&#45;(1,6)</text>
<polygon fill="none" stroke="black" points="389.5,-368 389.5,-394 481.5,-394 481.5,-368 389.5,-368"/>
<text text-anchor="start" x="394.25" y="-375.7" font-family="Courier New" font-size="14.00">rparen_loc</text>
<polygon fill="none" stroke="black" points="481.5,-368 481.5,-394 598.5,-394 598.5,-368 481.5,-368"/>
<text text-anchor="start" x="486.38" y="-375.7" font-family="Courier New" font-size="14.00">(1,14)&#45;(1,15)</text>
</g>
<!-- Node_100_lefts -->
<g id="node12" class="node">
<title>Node_100_lefts</title>
<ellipse fill="#f2f2f2" stroke="black" cx="494" cy="-267" rx="1.8" ry="1.8"/>
</g>
<!-- Node_100&#45;&gt;Node_100_lefts -->
<g id="edge5" class="edge">
<title>Node_100:lefts&#45;&gt;Node_100_lefts</title>
<path fill="none" stroke="black" d="M600,-459C640.45,-459 615.14,-405.09 599,-368 579.19,-322.46 527.55,-287.72 504.91,-274.18"/>
<polygon fill="black" stroke="black" points="506.81,-270.66 496.39,-268.74 503.33,-276.74 506.81,-270.66"/>
</g>
<!-- Node_140 -->
<g id="node4" class="node">
<title>Node_140</title>
<polygon fill="#f2f2f2" stroke="none" points="465.5,-166 266.5,-166 266.5,-88 465.5,-88 465.5,-166"/>
<polygon fill="none" stroke="black" points="266.5,-140 266.5,-166 465.5,-166 465.5,-140 266.5,-140"/>
<text text-anchor="start" x="271.12" y="-148.7" font-family="Courier New" font-weight="bold" font-size="14.00">LocalVariableTargetNode</text>
<polygon fill="none" stroke="black" points="266.5,-114 266.5,-140 369.5,-140 369.5,-114 266.5,-114"/>
<text text-anchor="start" x="271.5" y="-121.7" font-family="Courier New" font-size="14.00">name</text>
<polygon fill="none" stroke="black" points="369.5,-114 369.5,-140 465.5,-140 465.5,-114 369.5,-114"/>
<text text-anchor="start" x="401" y="-121.7" font-family="Courier New" font-size="14.00">:bar</text>
<polygon fill="none" stroke="black" points="266.5,-88 266.5,-114 369.5,-114 369.5,-88 266.5,-88"/>
<text text-anchor="start" x="271.5" y="-95.7" font-family="Courier New" font-size="14.00">depth</text>
<polygon fill="none" stroke="black" points="369.5,-88 369.5,-114 465.5,-114 465.5,-88 369.5,-88"/>
<text text-anchor="start" x="413.38" y="-95.7" font-family="Courier New" font-size="14.00">0</text>
</g>
<!-- Node_160 -->
<g id="node5" class="node">
<title>Node_160</title>
<polygon fill="#f2f2f2" stroke="none" points="682.5,-166 483.5,-166 483.5,-88 682.5,-88 682.5,-166"/>
<polygon fill="none" stroke="black" points="483.5,-140 483.5,-166 682.5,-166 682.5,-140 483.5,-140"/>
<text text-anchor="start" x="488.12" y="-148.7" font-family="Courier New" font-weight="bold" font-size="14.00">LocalVariableTargetNode</text>
<polygon fill="none" stroke="black" points="483.5,-114 483.5,-140 586.5,-140 586.5,-114 483.5,-114"/>
<text text-anchor="start" x="488.5" y="-121.7" font-family="Courier New" font-size="14.00">name</text>
<polygon fill="none" stroke="black" points="586.5,-114 586.5,-140 682.5,-140 682.5,-114 586.5,-114"/>
<text text-anchor="start" x="618" y="-121.7" font-family="Courier New" font-size="14.00">:baz</text>
<polygon fill="none" stroke="black" points="483.5,-88 483.5,-114 586.5,-114 586.5,-88 483.5,-88"/>
<text text-anchor="start" x="488.5" y="-95.7" font-family="Courier New" font-size="14.00">depth</text>
<polygon fill="none" stroke="black" points="586.5,-88 586.5,-114 682.5,-114 682.5,-88 586.5,-88"/>
<text text-anchor="start" x="630.38" y="-95.7" font-family="Courier New" font-size="14.00">0</text>
</g>
<!-- Node_120_elements -->
<g id="node13" class="node">
<title>Node_120_elements</title>
<ellipse fill="#f2f2f2" stroke="black" cx="149" cy="-433" rx="1.8" ry="1.8"/>
</g>
<!-- Node_120&#45;&gt;Node_120_elements -->
<g id="edge8" class="edge">
<title>Node_120:elements&#45;&gt;Node_120_elements</title>
<path fill="none" stroke="black" d="M259,-599C266.22,-599 262.15,-539.91 258,-534 232.06,-497.04 192.5,-532.18 163,-498 150.34,-483.33 148.33,-459.84 148.4,-445.77"/>
<polygon fill="black" stroke="black" points="151.93,-446.2 148.89,-436.06 144.94,-445.89 151.93,-446.2"/>
</g>
<!-- Node_180 -->
<g id="node7" class="node">
<title>Node_180</title>
<polygon fill="#f2f2f2" stroke="none" points="118,-293 0,-293 0,-241 118,-241 118,-293"/>
<polygon fill="none" stroke="black" points="0,-267 0,-293 118,-293 118,-267 0,-267"/>
<text text-anchor="start" x="13.62" y="-275.7" font-family="Courier New" font-weight="bold" font-size="14.00">IntegerNode</text>
<polygon fill="none" stroke="black" points="0,-241 0,-267 51,-267 51,-241 0,-241"/>
<text text-anchor="start" x="4.88" y="-248.7" font-family="Courier New" font-size="14.00">flags</text>
<polygon fill="none" stroke="black" points="51,-241 51,-267 118,-267 118,-241 51,-241"/>
<text text-anchor="start" x="55.62" y="-248.7" font-family="Courier New" font-size="14.00">decimal</text>
</g>
<!-- Node_200 -->
<g id="node8" class="node">
<title>Node_200</title>
<polygon fill="#f2f2f2" stroke="none" points="353.5,-332 136.5,-332 136.5,-202 353.5,-202 353.5,-332"/>
<polygon fill="none" stroke="black" points="136.5,-306 136.5,-332 353.5,-332 353.5,-306 136.5,-306"/>
<text text-anchor="start" x="207.88" y="-314.7" font-family="Courier New" font-weight="bold" font-size="14.00">ArrayNode</text>
<polygon fill="none" stroke="black" points="136.5,-280 136.5,-306 236.5,-306 236.5,-280 136.5,-280"/>
<text text-anchor="start" x="141.5" y="-287.7" font-family="Courier New" font-size="14.00">flags</text>
<polygon fill="none" stroke="black" points="236.5,-280 236.5,-306 353.5,-306 353.5,-280 236.5,-280"/>
<polygon fill="none" stroke="black" points="136.5,-254 136.5,-280 353.5,-280 353.5,-254 136.5,-254"/>
<text text-anchor="start" x="141.5" y="-261.7" font-family="Courier New" font-size="14.00">elements</text>
<polygon fill="none" stroke="black" points="136.5,-228 136.5,-254 236.5,-254 236.5,-228 136.5,-228"/>
<text text-anchor="start" x="141.12" y="-235.7" font-family="Courier New" font-size="14.00">opening_loc</text>
<polygon fill="none" stroke="black" points="236.5,-228 236.5,-254 353.5,-254 353.5,-228 236.5,-228"/>
<text text-anchor="start" x="241.38" y="-235.7" font-family="Courier New" font-size="14.00">(1,22)&#45;(1,23)</text>
<polygon fill="none" stroke="black" points="136.5,-202 136.5,-228 236.5,-228 236.5,-202 136.5,-202"/>
<text text-anchor="start" x="141.12" y="-209.7" font-family="Courier New" font-size="14.00">closing_loc</text>
<polygon fill="none" stroke="black" points="236.5,-202 236.5,-228 353.5,-228 353.5,-202 236.5,-202"/>
<text text-anchor="start" x="241.38" y="-209.7" font-family="Courier New" font-size="14.00">(1,27)&#45;(1,28)</text>
</g>
<!-- Node_200_elements -->
<g id="node14" class="node">
<title>Node_200_elements</title>
<ellipse fill="#f2f2f2" stroke="black" cx="245" cy="-127" rx="1.8" ry="1.8"/>
</g>
<!-- Node_200&#45;&gt;Node_200_elements -->
<g id="edge11" class="edge">
<title>Node_200:elements&#45;&gt;Node_200_elements</title>
<path fill="none" stroke="black" d="M355,-267C383.89,-267 370.68,-225.59 354,-202 327.45,-164.45 288.7,-199.31 257,-166 250.32,-158.98 247.36,-148.28 246.05,-140.01"/>
<polygon fill="black" stroke="black" points="249.44,-139.73 245.01,-130.11 242.47,-140.39 249.44,-139.73"/>
</g>
<!-- Node_220 -->
<g id="node9" class="node">
<title>Node_220</title>
<polygon fill="#f2f2f2" stroke="none" points="236,-52 118,-52 118,0 236,0 236,-52"/>
<polygon fill="none" stroke="black" points="118,-26 118,-52 236,-52 236,-26 118,-26"/>
<text text-anchor="start" x="131.62" y="-34.7" font-family="Courier New" font-weight="bold" font-size="14.00">IntegerNode</text>
<polygon fill="none" stroke="black" points="118,0 118,-26 169,-26 169,0 118,0"/>
<text text-anchor="start" x="122.88" y="-7.7" font-family="Courier New" font-size="14.00">flags</text>
<polygon fill="none" stroke="black" points="169,0 169,-26 236,-26 236,0 169,0"/>
<text text-anchor="start" x="173.62" y="-7.7" font-family="Courier New" font-size="14.00">decimal</text>
</g>
<!-- Node_240 -->
<g id="node10" class="node">
<title>Node_240</title>
<polygon fill="#f2f2f2" stroke="none" points="372,-52 254,-52 254,0 372,0 372,-52"/>
<polygon fill="none" stroke="black" points="254,-26 254,-52 372,-52 372,-26 254,-26"/>
<text text-anchor="start" x="267.62" y="-34.7" font-family="Courier New" font-weight="bold" font-size="14.00">IntegerNode</text>
<polygon fill="none" stroke="black" points="254,0 254,-26 305,-26 305,0 254,0"/>
<text text-anchor="start" x="258.88" y="-7.7" font-family="Courier New" font-size="14.00">flags</text>
<polygon fill="none" stroke="black" points="305,0 305,-26 372,-26 372,0 305,0"/>
<text text-anchor="start" x="309.62" y="-7.7" font-family="Courier New" font-size="14.00">decimal</text>
</g>
<!-- Node_60_lefts&#45;&gt;Node_80 -->
<g id="edge2" class="edge">
<title>Node_60_lefts&#45;&gt;Node_80</title>
<path fill="none" stroke="black" d="M276.97,-596.95C276.7,-588.26 274.84,-527.24 273.48,-482.42"/>
<polygon fill="black" stroke="black" points="276.95,-482.58 273.15,-472.7 269.96,-482.8 276.95,-482.58"/>
</g>
<!-- Node_60_lefts&#45;&gt;Node_100 -->
<g id="edge3" class="edge">
<title>Node_60_lefts&#45;&gt;Node_100</title>
<path fill="none" stroke="black" d="M277.97,-597.27C286.24,-591.02 346.08,-545.79 400.69,-504.52"/>
<polygon fill="black" stroke="black" points="402.53,-506.76 408.4,-497.94 398.31,-501.18 402.53,-506.76"/>
</g>
<!-- Node_100_lefts&#45;&gt;Node_140 -->
<g id="edge6" class="edge">
<title>Node_100_lefts&#45;&gt;Node_140</title>
<path fill="none" stroke="black" d="M493.18,-265.12C486.68,-258.11 442.72,-210.71 408.28,-173.58"/>
<polygon fill="black" stroke="black" points="411.45,-171.78 402.09,-166.83 406.32,-176.54 411.45,-171.78"/>
</g>
<!-- Node_100_lefts&#45;&gt;Node_160 -->
<g id="edge7" class="edge">
<title>Node_100_lefts&#45;&gt;Node_160</title>
<path fill="none" stroke="black" d="M494.57,-265.12C499.03,-258.2 528.89,-211.89 552.7,-174.98"/>
<polygon fill="black" stroke="black" points="556.12,-177.13 558.6,-166.83 550.24,-173.34 556.12,-177.13"/>
</g>
<!-- Node_120_elements&#45;&gt;Node_180 -->
<g id="edge9" class="edge">
<title>Node_120_elements&#45;&gt;Node_180</title>
<path fill="none" stroke="black" d="M148.43,-430.95C143.13,-421.29 102.4,-347.08 77.77,-302.21"/>
<polygon fill="black" stroke="black" points="80.51,-300.92 72.63,-293.84 74.38,-304.29 80.51,-300.92"/>
</g>
<!-- Node_120_elements&#45;&gt;Node_200 -->
<g id="edge10" class="edge">
<title>Node_120_elements&#45;&gt;Node_200</title>
<path fill="none" stroke="black" d="M149.06,-430.71C149.42,-423.87 151.69,-391.34 163,-368 167.51,-358.68 173.06,-349.47 179.13,-340.64"/>
<polygon fill="black" stroke="black" points="182.38,-343.11 185.35,-332.94 176.69,-339.04 182.38,-343.11"/>
</g>
<!-- Node_200_elements&#45;&gt;Node_220 -->
<g id="edge12" class="edge">
<title>Node_200_elements&#45;&gt;Node_220</title>
<path fill="none" stroke="black" d="M244.24,-124.89C239.88,-118.54 217.71,-86.27 200,-60.49"/>
<polygon fill="black" stroke="black" points="202.51,-58.96 193.96,-52.69 196.74,-62.92 202.51,-58.96"/>
</g>
<!-- Node_200_elements&#45;&gt;Node_240 -->
<g id="edge13" class="edge">
<title>Node_200_elements&#45;&gt;Node_240</title>
<path fill="none" stroke="black" d="M245.19,-124.74C245.99,-119.77 249.38,-101.18 257,-88 262.73,-78.1 270.3,-68.46 278.03,-59.87"/>
<polygon fill="black" stroke="black" points="280.13,-62.68 284.42,-52.99 275.03,-57.89 280.13,-62.68"/>
</g>
</g>
</svg>
