<?xml version="1.0" encoding="UTF-8" standalone="no"?>
<!DOCTYPE svg PUBLIC "-//W3C//DTD SVG 1.1//EN"
 "http://www.w3.org/Graphics/SVG/1.1/DTD/svg11.dtd">
<!-- Generated by graphviz version 8.1.0 (20230707.0739)
 -->
<!-- Title: Prism Pages: 1 -->
<svg width="209pt" height="227pt"
 viewBox="0.00 0.00 208.75 226.50" xmlns="http://www.w3.org/2000/svg" xmlns:xlink="http://www.w3.org/1999/xlink">
<g id="graph0" class="graph" transform="scale(1 1) rotate(0) translate(4 222.5)">
<title>Prism</title>
<polygon fill="white" stroke="none" points="-4,4 -4,-222.5 204.75,-222.5 204.75,4 -4,4"/>
<!-- Node_60 -->
<g id="node1" class="node">
<title>Node_60</title>
<polygon fill="#f2f2f2" stroke="none" points="162.88,-218.5 37.88,-218.5 37.88,-62.5 162.88,-62.5 162.88,-218.5"/>
<polygon fill="none" stroke="black" points="37.88,-192.5 37.88,-218.5 162.88,-218.5 162.88,-192.5 37.88,-192.5"/>
<text text-anchor="start" x="42.62" y="-201.2" font-family="Courier New" font-weight="bold" font-size="14.00">ParametersNode</text>
<polygon fill="none" stroke="black" points="37.88,-166.5 37.88,-192.5 128.88,-192.5 128.88,-166.5 37.88,-166.5"/>
<text text-anchor="start" x="42.88" y="-174.2" font-family="Courier New" font-size="14.00">requireds</text>
<polygon fill="none" stroke="black" points="128.88,-166.5 128.88,-192.5 162.88,-192.5 162.88,-166.5 128.88,-166.5"/>
<text text-anchor="start" x="137.62" y="-174.2" font-family="Courier New" font-size="14.00">[]</text>
<polygon fill="none" stroke="black" points="37.88,-140.5 37.88,-166.5 128.88,-166.5 128.88,-140.5 37.88,-140.5"/>
<text text-anchor="start" x="42.88" y="-148.2" font-family="Courier New" font-size="14.00">optionals</text>
<polygon fill="none" stroke="black" points="128.88,-140.5 128.88,-166.5 162.88,-166.5 162.88,-140.5 128.88,-140.5"/>
<text text-anchor="start" x="137.62" y="-148.2" font-family="Courier New" font-size="14.00">[]</text>
<polygon fill="none" stroke="black" points="37.88,-114.5 37.88,-140.5 128.88,-140.5 128.88,-114.5 37.88,-114.5"/>
<text text-anchor="start" x="42.88" y="-122.2" font-family="Courier New" font-size="14.00">posts</text>
<polygon fill="none" stroke="black" points="128.88,-114.5 128.88,-140.5 162.88,-140.5 162.88,-114.5 128.88,-114.5"/>
<text text-anchor="start" x="137.62" y="-122.2" font-family="Courier New" font-size="14.00">[]</text>
<polygon fill="none" stroke="black" points="37.88,-88.5 37.88,-114.5 128.88,-114.5 128.88,-88.5 37.88,-88.5"/>
<text text-anchor="start" x="42.88" y="-96.2" font-family="Courier New" font-size="14.00">keywords</text>
<polygon fill="none" stroke="black" points="128.88,-88.5 128.88,-114.5 162.88,-114.5 162.88,-88.5 128.88,-88.5"/>
<text text-anchor="start" x="137.62" y="-96.2" font-family="Courier New" font-size="14.00">[]</text>
<polygon fill="none" stroke="black" points="37.88,-62.5 37.88,-88.5 162.88,-88.5 162.88,-62.5 37.88,-62.5"/>
<text text-anchor="start" x="42.88" y="-70.2" font-family="Courier New" font-size="14.00">keyword_rest</text>
</g>
<!-- Node_80 -->
<g id="node2" class="node">
<title>Node_80</title>
<polygon fill="#f2f2f2" stroke="none" points="200.75,-26.5 0,-26.5 0,0 200.75,0 200.75,-26.5"/>
<polygon fill="none" stroke="black" points="0,0 0,-26.5 200.75,-26.5 200.75,0 0,0"/>
<text text-anchor="start" x="5.5" y="-9.2" font-family="Courier New" font-weight="bold" font-size="14.00">ForwardingParameterNode</text>
</g>
<!-- Node_60&#45;&gt;Node_80 -->
<g id="edge1" class="edge">
<title>Node_60:keyword_rest&#45;&gt;Node_80</title>
<path fill="none" stroke="black" d="M100.38,-62.5C100.38,-54.17 100.38,-45.03 100.38,-36.97"/>
<polygon fill="black" stroke="black" points="103.88,-37.15 100.38,-27.15 96.88,-37.15 103.88,-37.15"/>
</g>
</g>
</svg>
