<?xml version="1.0" encoding="UTF-8" standalone="no"?>
<!DOCTYPE svg PUBLIC "-//W3C//DTD SVG 1.1//EN"
 "http://www.w3.org/Graphics/SVG/1.1/DTD/svg11.dtd">
<!-- Generated by graphviz version 8.1.0 (20230707.0739)
 -->
<!-- Title: Prism Pages: 1 -->
<svg width="347pt" height="484pt"
 viewBox="0.00 0.00 346.53 483.60" xmlns="http://www.w3.org/2000/svg" xmlns:xlink="http://www.w3.org/1999/xlink">
<g id="graph0" class="graph" transform="scale(1 1) rotate(0) translate(4 479.6)">
<title>Prism</title>
<polygon fill="white" stroke="none" points="-4,4 -4,-479.6 342.53,-479.6 342.53,4 -4,4"/>
<!-- Node_60 -->
<g id="node1" class="node">
<title>Node_60</title>
<polygon fill="#f2f2f2" stroke="none" points="302.01,-475.6 43.01,-475.6 43.01,-215.6 302.01,-215.6 302.01,-475.6"/>
<polygon fill="none" stroke="black" points="43.01,-449.6 43.01,-475.6 302.01,-475.6 302.01,-449.6 43.01,-449.6"/>
<text text-anchor="start" x="143.64" y="-458.3" font-family="Courier New" font-weight="bold" font-size="14.00">DefNode</text>
<polygon fill="none" stroke="black" points="43.01,-423.6 43.01,-449.6 193.01,-449.6 193.01,-423.6 43.01,-423.6"/>
<text text-anchor="start" x="48.01" y="-431.3" font-family="Courier New" font-size="14.00">name</text>
<polygon fill="none" stroke="black" points="193.01,-423.6 193.01,-449.6 302.01,-449.6 302.01,-423.6 193.01,-423.6"/>
<text text-anchor="start" x="231.01" y="-431.3" font-family="Courier New" font-size="14.00">:foo</text>
<polygon fill="none" stroke="black" points="43.01,-397.6 43.01,-423.6 193.01,-423.6 193.01,-397.6 43.01,-397.6"/>
<text text-anchor="start" x="48.01" y="-405.3" font-family="Courier New" font-size="14.00">name_loc</text>
<polygon fill="none" stroke="black" points="193.01,-397.6 193.01,-423.6 302.01,-423.6 302.01,-397.6 193.01,-397.6"/>
<text text-anchor="start" x="198.01" y="-405.3" font-family="Courier New" font-size="14.00">(1,9)&#45;(1,12)</text>
<polygon fill="none" stroke="black" points="43.01,-371.6 43.01,-397.6 302.01,-397.6 302.01,-371.6 43.01,-371.6"/>
<text text-anchor="start" x="48.01" y="-379.3" font-family="Courier New" font-size="14.00">receiver</text>
<polygon fill="none" stroke="black" points="43.01,-345.6 43.01,-371.6 302.01,-371.6 302.01,-345.6 43.01,-345.6"/>
<text text-anchor="start" x="48.01" y="-353.3" font-family="Courier New" font-size="14.00">body</text>
<polygon fill="none" stroke="black" points="43.01,-319.6 43.01,-345.6 193.01,-345.6 193.01,-319.6 43.01,-319.6"/>
<text text-anchor="start" x="48.01" y="-327.3" font-family="Courier New" font-size="14.00">locals</text>
<polygon fill="none" stroke="black" points="193.01,-319.6 193.01,-345.6 302.01,-345.6 302.01,-319.6 193.01,-319.6"/>
<text text-anchor="start" x="239.26" y="-327.3" font-family="Courier New" font-size="14.00">[]</text>
<polygon fill="none" stroke="black" points="43.01,-293.6 43.01,-319.6 193.01,-319.6 193.01,-293.6 43.01,-293.6"/>
<text text-anchor="start" x="47.89" y="-301.3" font-family="Courier New" font-size="14.00">locals_body_index</text>
<polygon fill="none" stroke="black" points="193.01,-293.6 193.01,-319.6 302.01,-319.6 302.01,-293.6 193.01,-293.6"/>
<text text-anchor="start" x="243.39" y="-301.3" font-family="Courier New" font-size="14.00">0</text>
<polygon fill="none" stroke="black" points="43.01,-267.6 43.01,-293.6 193.01,-293.6 193.01,-267.6 43.01,-267.6"/>
<text text-anchor="start" x="48.01" y="-275.3" font-family="Courier New" font-size="14.00">def_keyword_loc</text>
<polygon fill="none" stroke="black" points="193.01,-267.6 193.01,-293.6 302.01,-293.6 302.01,-267.6 193.01,-267.6"/>
<text text-anchor="start" x="202.14" y="-275.3" font-family="Courier New" font-size="14.00">(1,0)&#45;(1,3)</text>
<polygon fill="none" stroke="black" points="43.01,-241.6 43.01,-267.6 193.01,-267.6 193.01,-241.6 43.01,-241.6"/>
<text text-anchor="start" x="48.01" y="-249.3" font-family="Courier New" font-size="14.00">operator_loc</text>
<polygon fill="none" stroke="black" points="193.01,-241.6 193.01,-267.6 302.01,-267.6 302.01,-241.6 193.01,-241.6"/>
<text text-anchor="start" x="202.14" y="-249.3" font-family="Courier New" font-size="14.00">(1,8)&#45;(1,9)</text>
<polygon fill="none" stroke="black" points="43.01,-215.6 43.01,-241.6 193.01,-241.6 193.01,-215.6 43.01,-215.6"/>
<text text-anchor="start" x="48.01" y="-223.3" font-family="Courier New" font-size="14.00">end_keyword_loc</text>
<polygon fill="none" stroke="black" points="193.01,-215.6 193.01,-241.6 302.01,-241.6 302.01,-215.6 193.01,-215.6"/>
<text text-anchor="start" x="202.14" y="-223.3" font-family="Courier New" font-size="14.00">(3,0)&#45;(3,3)</text>
</g>
<!-- Node_80 -->
<g id="node2" class="node">
<title>Node_80</title>
<polygon fill="#f2f2f2" stroke="none" points="152.01,-166.85 75.01,-166.85 75.01,-140.35 152.01,-140.35 152.01,-166.85"/>
<polygon fill="none" stroke="black" points="75.01,-140.35 75.01,-166.85 152.01,-166.85 152.01,-140.35 75.01,-140.35"/>
<text text-anchor="start" x="80.51" y="-149.55" font-family="Courier New" font-weight="bold" font-size="14.00">SelfNode</text>
</g>
<!-- Node_60&#45;&gt;Node_80 -->
<g id="edge1" class="edge">
<title>Node_60:receiver&#45;&gt;Node_80</title>
<path fill="none" stroke="black" d="M41.51,-384.6C-33.6,-384.6 10.96,-283.77 42.51,-215.6 50.76,-197.77 67.06,-183.17 81.96,-172.74"/>
<polygon fill="black" stroke="black" points="83.56,-175.21 89.97,-166.78 79.7,-169.37 83.56,-175.21"/>
</g>
<!-- Node_100 -->
<g id="node3" class="node">
<title>Node_100</title>
<polygon fill="#f2f2f2" stroke="none" points="295.01,-179.6 170.01,-179.6 170.01,-127.6 295.01,-127.6 295.01,-179.6"/>
<polygon fill="none" stroke="black" points="170.01,-153.6 170.01,-179.6 295.01,-179.6 295.01,-153.6 170.01,-153.6"/>
<text text-anchor="start" x="174.76" y="-162.3" font-family="Courier New" font-weight="bold" font-size="14.00">StatementsNode</text>
<polygon fill="none" stroke="black" points="170.01,-127.6 170.01,-153.6 295.01,-153.6 295.01,-127.6 170.01,-127.6"/>
<text text-anchor="start" x="175.01" y="-135.3" font-family="Courier New" font-size="14.00">body</text>
</g>
<!-- Node_60&#45;&gt;Node_100 -->
<g id="edge2" class="edge">
<title>Node_60:body&#45;&gt;Node_100</title>
<path fill="none" stroke="black" d="M303.51,-358.6C367.07,-358.6 329.04,-273.36 302.51,-215.6 297.52,-204.72 289.53,-195.02 280.7,-186.73"/>
<polygon fill="black" stroke="black" points="283.27,-183.45 273.43,-179.52 278.67,-188.73 283.27,-183.45"/>
</g>
<!-- Node_100_body -->
<g id="node5" class="node">
<title>Node_100_body</title>
<ellipse fill="#f2f2f2" stroke="black" cx="232.51" cy="-89.8" rx="1.8" ry="1.8"/>
</g>
<!-- Node_100&#45;&gt;Node_100_body -->
<g id="edge3" class="edge">
<title>Node_100:body&#45;&gt;Node_100_body</title>
<path fill="none" stroke="black" d="M232.51,-127.6C232.51,-119.36 232.51,-110.09 232.51,-102.91"/>
<polygon fill="black" stroke="black" points="236.01,-102.94 232.51,-92.94 229.01,-102.94 236.01,-102.94"/>
</g>
<!-- Node_120 -->
<g id="node4" class="node">
<title>Node_120</title>
<polygon fill="#f2f2f2" stroke="none" points="291.51,-52 173.51,-52 173.51,0 291.51,0 291.51,-52"/>
<polygon fill="none" stroke="black" points="173.51,-26 173.51,-52 291.51,-52 291.51,-26 173.51,-26"/>
<text text-anchor="start" x="187.14" y="-34.7" font-family="Courier New" font-weight="bold" font-size="14.00">IntegerNode</text>
<polygon fill="none" stroke="black" points="173.51,0 173.51,-26 224.51,-26 224.51,0 173.51,0"/>
<text text-anchor="start" x="178.39" y="-7.7" font-family="Courier New" font-size="14.00">flags</text>
<polygon fill="none" stroke="black" points="224.51,0 224.51,-26 291.51,-26 291.51,0 224.51,0"/>
<text text-anchor="start" x="229.14" y="-7.7" font-family="Courier New" font-size="14.00">decimal</text>
</g>
<!-- Node_100_body&#45;&gt;Node_120 -->
<g id="edge4" class="edge">
<title>Node_100_body&#45;&gt;Node_120</title>
<path fill="none" stroke="black" d="M232.51,-87.73C232.51,-84.45 232.51,-74.09 232.51,-62.84"/>
<polygon fill="black" stroke="black" points="236.01,-62.97 232.51,-52.97 229.01,-62.98 236.01,-62.97"/>
</g>
</g>
</svg>
