<?xml version="1.0" encoding="UTF-8" standalone="no"?>
<!DOCTYPE svg PUBLIC "-//W3C//DTD SVG 1.1//EN"
 "http://www.w3.org/Graphics/SVG/1.1/DTD/svg11.dtd">
<!-- Generated by graphviz version 8.1.0 (20230707.0739)
 -->
<!-- Title: Prism Pages: 1 -->
<svg width="517pt" height="484pt"
 viewBox="0.00 0.00 517.00 483.60" xmlns="http://www.w3.org/2000/svg" xmlns:xlink="http://www.w3.org/1999/xlink">
<g id="graph0" class="graph" transform="scale(1 1) rotate(0) translate(4 479.6)">
<title>Prism</title>
<polygon fill="white" stroke="none" points="-4,4 -4,-479.6 513,-479.6 513,4 -4,4"/>
<!-- Node_60 -->
<g id="node1" class="node">
<title>Node_60</title>
<polygon fill="#f2f2f2" stroke="none" points="428.5,-475.6 178.5,-475.6 178.5,-293.6 428.5,-293.6 428.5,-475.6"/>
<polygon fill="none" stroke="black" points="178.5,-449.6 178.5,-475.6 428.5,-475.6 428.5,-449.6 178.5,-449.6"/>
<text text-anchor="start" x="274.62" y="-458.3" font-family="Courier New" font-weight="bold" font-size="14.00">ForNode</text>
<polygon fill="none" stroke="black" points="178.5,-423.6 178.5,-449.6 428.5,-449.6 428.5,-423.6 178.5,-423.6"/>
<text text-anchor="start" x="183.5" y="-431.3" font-family="Courier New" font-size="14.00">index</text>
<polygon fill="none" stroke="black" points="178.5,-397.6 178.5,-423.6 428.5,-423.6 428.5,-397.6 178.5,-397.6"/>
<text text-anchor="start" x="183.5" y="-405.3" font-family="Courier New" font-size="14.00">collection</text>
<polygon fill="none" stroke="black" points="178.5,-371.6 178.5,-397.6 311.5,-397.6 311.5,-371.6 178.5,-371.6"/>
<text text-anchor="start" x="183.12" y="-379.3" font-family="Courier New" font-size="14.00">for_keyword_loc</text>
<polygon fill="none" stroke="black" points="311.5,-371.6 311.5,-397.6 428.5,-397.6 428.5,-371.6 311.5,-371.6"/>
<text text-anchor="start" x="324.62" y="-379.3" font-family="Courier New" font-size="14.00">(1,0)&#45;(1,3)</text>
<polygon fill="none" stroke="black" points="178.5,-345.6 178.5,-371.6 311.5,-371.6 311.5,-345.6 178.5,-345.6"/>
<text text-anchor="start" x="183.5" y="-353.3" font-family="Courier New" font-size="14.00">in_keyword_loc</text>
<polygon fill="none" stroke="black" points="311.5,-345.6 311.5,-371.6 428.5,-371.6 428.5,-345.6 311.5,-345.6"/>
<text text-anchor="start" x="316.38" y="-353.3" font-family="Courier New" font-size="14.00">(1,13)&#45;(1,15)</text>
<polygon fill="none" stroke="black" points="178.5,-319.6 178.5,-345.6 311.5,-345.6 311.5,-319.6 178.5,-319.6"/>
<text text-anchor="start" x="183.5" y="-327.3" font-family="Courier New" font-size="14.00">do_keyword_loc</text>
<polygon fill="none" stroke="black" points="311.5,-319.6 311.5,-345.6 428.5,-345.6 428.5,-319.6 311.5,-319.6"/>
<text text-anchor="start" x="316.38" y="-327.3" font-family="Courier New" font-size="14.00">(1,20)&#45;(1,22)</text>
<polygon fill="none" stroke="black" points="178.5,-293.6 178.5,-319.6 311.5,-319.6 311.5,-293.6 178.5,-293.6"/>
<text text-anchor="start" x="183.12" y="-301.3" font-family="Courier New" font-size="14.00">end_keyword_loc</text>
<polygon fill="none" stroke="black" points="311.5,-293.6 311.5,-319.6 428.5,-319.6 428.5,-293.6 311.5,-293.6"/>
<text text-anchor="start" x="316.38" y="-301.3" font-family="Courier New" font-size="14.00">(1,23)&#45;(1,26)</text>
</g>
<!-- Node_80 -->
<g id="node2" class="node">
<title>Node_80</title>
<polygon fill="#f2f2f2" stroke="none" points="274,-244.6 141,-244.6 141,-166.6 274,-166.6 274,-244.6"/>
<polygon fill="none" stroke="black" points="141,-218.6 141,-244.6 274,-244.6 274,-218.6 141,-218.6"/>
<text text-anchor="start" x="145.62" y="-227.3" font-family="Courier New" font-weight="bold" font-size="14.00">MultiTargetNode</text>
<polygon fill="none" stroke="black" points="141,-192.6 141,-218.6 274,-218.6 274,-192.6 141,-192.6"/>
<text text-anchor="start" x="146" y="-200.3" font-family="Courier New" font-size="14.00">lefts</text>
<polygon fill="none" stroke="black" points="141,-166.6 141,-192.6 224,-192.6 224,-166.6 141,-166.6"/>
<text text-anchor="start" x="146" y="-174.3" font-family="Courier New" font-size="14.00">rights</text>
<polygon fill="none" stroke="black" points="224,-166.6 224,-192.6 274,-192.6 274,-166.6 224,-166.6"/>
<text text-anchor="start" x="240.75" y="-174.3" font-family="Courier New" font-size="14.00">[]</text>
</g>
<!-- Node_60&#45;&gt;Node_80 -->
<g id="edge1" class="edge">
<title>Node_60:index&#45;&gt;Node_80</title>
<path fill="none" stroke="black" d="M177.5,-436.6C104.58,-436.6 149.84,-321.51 182.57,-254.15"/>
<polygon fill="black" stroke="black" points="186,-256.1 187.29,-245.58 179.73,-253 186,-256.1"/>
</g>
<!-- Node_100 -->
<g id="node5" class="node">
<title>Node_100</title>
<polygon fill="#f2f2f2" stroke="none" points="509,-257.6 292,-257.6 292,-153.6 509,-153.6 509,-257.6"/>
<polygon fill="none" stroke="black" points="292,-231.6 292,-257.6 509,-257.6 509,-231.6 292,-231.6"/>
<text text-anchor="start" x="367.5" y="-240.3" font-family="Courier New" font-weight="bold" font-size="14.00">CallNode</text>
<polygon fill="none" stroke="black" points="292,-205.6 292,-231.6 392,-231.6 392,-205.6 292,-205.6"/>
<text text-anchor="start" x="297" y="-213.3" font-family="Courier New" font-size="14.00">flags</text>
<polygon fill="none" stroke="black" points="392,-205.6 392,-231.6 509,-231.6 509,-205.6 392,-205.6"/>
<text text-anchor="start" x="396.88" y="-213.3" font-family="Courier New" font-size="14.00">variable_call</text>
<polygon fill="none" stroke="black" points="292,-179.6 292,-205.6 392,-205.6 392,-179.6 292,-179.6"/>
<text text-anchor="start" x="297" y="-187.3" font-family="Courier New" font-size="14.00">name</text>
<polygon fill="none" stroke="black" points="392,-179.6 392,-205.6 509,-205.6 509,-179.6 392,-179.6"/>
<text text-anchor="start" x="434" y="-187.3" font-family="Courier New" font-size="14.00">:baz</text>
<polygon fill="none" stroke="black" points="292,-153.6 292,-179.6 392,-179.6 392,-153.6 292,-153.6"/>
<text text-anchor="start" x="296.62" y="-161.3" font-family="Courier New" font-size="14.00">message_loc</text>
<polygon fill="none" stroke="black" points="392,-153.6 392,-179.6 509,-179.6 509,-153.6 392,-153.6"/>
<text text-anchor="start" x="396.88" y="-161.3" font-family="Courier New" font-size="14.00">(1,16)&#45;(1,19)</text>
</g>
<!-- Node_60&#45;&gt;Node_100 -->
<g id="edge2" class="edge">
<title>Node_60:collection&#45;&gt;Node_100</title>
<path fill="none" stroke="black" d="M429.5,-410.6C487.95,-410.6 459.97,-327.49 432.08,-267.36"/>
<polygon fill="black" stroke="black" points="434.88,-266.09 427.44,-258.55 428.55,-269.09 434.88,-266.09"/>
</g>
<!-- Node_80_lefts -->
<g id="node6" class="node">
<title>Node_80_lefts</title>
<ellipse fill="#f2f2f2" stroke="black" cx="207.5" cy="-115.8" rx="1.8" ry="1.8"/>
</g>
<!-- Node_80&#45;&gt;Node_80_lefts -->
<g id="edge3" class="edge">
<title>Node_80:lefts&#45;&gt;Node_80_lefts</title>
<path fill="none" stroke="black" d="M275.5,-205.6C284.17,-205.6 278.49,-174.3 274.5,-166.6 262.52,-143.52 234.42,-128.33 218.68,-121.3"/>
<polygon fill="black" stroke="black" points="220.33,-117.79 209.75,-117.24 217.68,-124.27 220.33,-117.79"/>
</g>
<!-- Node_120 -->
<g id="node3" class="node">
<title>Node_120</title>
<polygon fill="#f2f2f2" stroke="none" points="199,-78 0,-78 0,0 199,0 199,-78"/>
<polygon fill="none" stroke="black" points="0,-52 0,-78 199,-78 199,-52 0,-52"/>
<text text-anchor="start" x="4.62" y="-60.7" font-family="Courier New" font-weight="bold" font-size="14.00">LocalVariableTargetNode</text>
<polygon fill="none" stroke="black" points="0,-26 0,-52 103,-52 103,-26 0,-26"/>
<text text-anchor="start" x="5" y="-33.7" font-family="Courier New" font-size="14.00">name</text>
<polygon fill="none" stroke="black" points="103,-26 103,-52 199,-52 199,-26 103,-26"/>
<text text-anchor="start" x="134.5" y="-33.7" font-family="Courier New" font-size="14.00">:foo</text>
<polygon fill="none" stroke="black" points="0,0 0,-26 103,-26 103,0 0,0"/>
<text text-anchor="start" x="5" y="-7.7" font-family="Courier New" font-size="14.00">depth</text>
<polygon fill="none" stroke="black" points="103,0 103,-26 199,-26 199,0 103,0"/>
<text text-anchor="start" x="146.88" y="-7.7" font-family="Courier New" font-size="14.00">0</text>
</g>
<!-- Node_140 -->
<g id="node4" class="node">
<title>Node_140</title>
<polygon fill="#f2f2f2" stroke="none" points="416,-78 217,-78 217,0 416,0 416,-78"/>
<polygon fill="none" stroke="black" points="217,-52 217,-78 416,-78 416,-52 217,-52"/>
<text text-anchor="start" x="221.62" y="-60.7" font-family="Courier New" font-weight="bold" font-size="14.00">LocalVariableTargetNode</text>
<polygon fill="none" stroke="black" points="217,-26 217,-52 320,-52 320,-26 217,-26"/>
<text text-anchor="start" x="222" y="-33.7" font-family="Courier New" font-size="14.00">name</text>
<polygon fill="none" stroke="black" points="320,-26 320,-52 416,-52 416,-26 320,-26"/>
<text text-anchor="start" x="351.5" y="-33.7" font-family="Courier New" font-size="14.00">:bar</text>
<polygon fill="none" stroke="black" points="217,0 217,-26 320,-26 320,0 217,0"/>
<text text-anchor="start" x="222" y="-7.7" font-family="Courier New" font-size="14.00">depth</text>
<polygon fill="none" stroke="black" points="320,0 320,-26 416,-26 416,0 320,0"/>
<text text-anchor="start" x="363.88" y="-7.7" font-family="Courier New" font-size="14.00">0</text>
</g>
<!-- Node_80_lefts&#45;&gt;Node_120 -->
<g id="edge4" class="edge">
<title>Node_80_lefts&#45;&gt;Node_120</title>
<path fill="none" stroke="black" d="M206.29,-113.96C201.5,-110.65 183.21,-97.98 163.09,-84.04"/>
<polygon fill="black" stroke="black" points="165.29,-80.61 155.07,-77.8 161.3,-86.37 165.29,-80.61"/>
</g>
<!-- Node_80_lefts&#45;&gt;Node_140 -->
<g id="edge5" class="edge">
<title>Node_80_lefts&#45;&gt;Node_140</title>
<path fill="none" stroke="black" d="M208.72,-113.96C213.57,-110.63 232.18,-97.87 252.59,-83.85"/>
<polygon fill="black" stroke="black" points="254.16,-86.34 260.42,-77.8 250.2,-80.57 254.16,-86.34"/>
</g>
</g>
</svg>
