<?xml version="1.0" encoding="UTF-8" standalone="no"?>
<!DOCTYPE svg PUBLIC "-//W3C//DTD SVG 1.1//EN"
 "http://www.w3.org/Graphics/SVG/1.1/DTD/svg11.dtd">
<!-- Generated by graphviz version 8.1.0 (20230707.0739)
 -->
<!-- Title: Prism Pages: 1 -->
<svg width="362pt" height="356pt"
 viewBox="0.00 0.00 361.50 356.00" xmlns="http://www.w3.org/2000/svg" xmlns:xlink="http://www.w3.org/1999/xlink">
<g id="graph0" class="graph" transform="scale(1 1) rotate(0) translate(4 352)">
<title>Prism</title>
<polygon fill="white" stroke="none" points="-4,4 -4,-352 357.5,-352 357.5,4 -4,4"/>
<!-- Node_60 -->
<g id="node1" class="node">
<title>Node_60</title>
<polygon fill="#f2f2f2" stroke="none" points="306,-348 97,-348 97,-140 306,-140 306,-348"/>
<polygon fill="none" stroke="black" points="97,-322 97,-348 306,-348 306,-322 97,-322"/>
<text text-anchor="start" x="110.75" y="-330.7" font-family="Courier New" font-weight="bold" font-size="14.00">IndexOperatorWriteNode</text>
<polygon fill="none" stroke="black" points="97,-296 97,-322 206,-322 206,-296 97,-296"/>
<text text-anchor="start" x="102" y="-303.7" font-family="Courier New" font-size="14.00">flags</text>
<polygon fill="none" stroke="black" points="206,-296 206,-322 306,-322 306,-296 206,-296"/>
<polygon fill="none" stroke="black" points="97,-270 97,-296 306,-296 306,-270 97,-270"/>
<text text-anchor="start" x="102" y="-277.7" font-family="Courier New" font-size="14.00">receiver</text>
<polygon fill="none" stroke="black" points="97,-244 97,-270 206,-270 206,-244 97,-244"/>
<text text-anchor="start" x="102" y="-251.7" font-family="Courier New" font-size="14.00">opening_loc</text>
<polygon fill="none" stroke="black" points="206,-244 206,-270 306,-270 306,-244 206,-244"/>
<text text-anchor="start" x="210.62" y="-251.7" font-family="Courier New" font-size="14.00">(1,3)&#45;(1,4)</text>
<polygon fill="none" stroke="black" points="97,-218 97,-244 206,-244 206,-218 97,-218"/>
<text text-anchor="start" x="102" y="-225.7" font-family="Courier New" font-size="14.00">closing_loc</text>
<polygon fill="none" stroke="black" points="206,-218 206,-244 306,-244 306,-218 206,-218"/>
<text text-anchor="start" x="210.62" y="-225.7" font-family="Courier New" font-size="14.00">(1,4)&#45;(1,5)</text>
<polygon fill="none" stroke="black" points="97,-192 97,-218 206,-218 206,-192 97,-192"/>
<text text-anchor="start" x="102" y="-199.7" font-family="Courier New" font-size="14.00">operator</text>
<polygon fill="none" stroke="black" points="206,-192 206,-218 306,-218 306,-192 206,-192"/>
<text text-anchor="start" x="247.75" y="-199.7" font-family="Courier New" font-size="14.00">:+</text>
<polygon fill="none" stroke="black" points="97,-166 97,-192 206,-192 206,-166 97,-166"/>
<text text-anchor="start" x="102" y="-173.7" font-family="Courier New" font-size="14.00">operator_loc</text>
<polygon fill="none" stroke="black" points="206,-166 206,-192 306,-192 306,-166 206,-166"/>
<text text-anchor="start" x="210.62" y="-173.7" font-family="Courier New" font-size="14.00">(1,6)&#45;(1,8)</text>
<polygon fill="none" stroke="black" points="97,-140 97,-166 306,-166 306,-140 97,-140"/>
<text text-anchor="start" x="102" y="-147.7" font-family="Courier New" font-size="14.00">value</text>
</g>
<!-- Node_80 -->
<g id="node2" class="node">
<title>Node_80</title>
<polygon fill="#f2f2f2" stroke="none" points="217,-104 0,-104 0,0 217,0 217,-104"/>
<polygon fill="none" stroke="black" points="0,-78 0,-104 217,-104 217,-78 0,-78"/>
<text text-anchor="start" x="75.5" y="-86.7" font-family="Courier New" font-weight="bold" font-size="14.00">CallNode</text>
<polygon fill="none" stroke="black" points="0,-52 0,-78 100,-78 100,-52 0,-52"/>
<text text-anchor="start" x="5" y="-59.7" font-family="Courier New" font-size="14.00">flags</text>
<polygon fill="none" stroke="black" points="100,-52 100,-78 217,-78 217,-52 100,-52"/>
<text text-anchor="start" x="104.88" y="-59.7" font-family="Courier New" font-size="14.00">variable_call</text>
<polygon fill="none" stroke="black" points="0,-26 0,-52 100,-52 100,-26 0,-26"/>
<text text-anchor="start" x="5" y="-33.7" font-family="Courier New" font-size="14.00">name</text>
<polygon fill="none" stroke="black" points="100,-26 100,-52 217,-52 217,-26 100,-26"/>
<text text-anchor="start" x="142" y="-33.7" font-family="Courier New" font-size="14.00">:foo</text>
<polygon fill="none" stroke="black" points="0,0 0,-26 100,-26 100,0 0,0"/>
<text text-anchor="start" x="4.62" y="-7.7" font-family="Courier New" font-size="14.00">message_loc</text>
<polygon fill="none" stroke="black" points="100,0 100,-26 217,-26 217,0 100,0"/>
<text text-anchor="start" x="113.12" y="-7.7" font-family="Courier New" font-size="14.00">(1,0)&#45;(1,3)</text>
</g>
<!-- Node_60&#45;&gt;Node_80 -->
<g id="edge1" class="edge">
<title>Node_60:receiver&#45;&gt;Node_80</title>
<path fill="none" stroke="black" d="M95.5,-283C27.69,-283 55.4,-182.12 81.85,-113.98"/>
<polygon fill="black" stroke="black" points="85.47,-115.35 85.9,-104.76 78.96,-112.77 85.47,-115.35"/>
</g>
<!-- Node_100 -->
<g id="node3" class="node">
<title>Node_100</title>
<polygon fill="#f2f2f2" stroke="none" points="353.5,-78 235.5,-78 235.5,-26 353.5,-26 353.5,-78"/>
<polygon fill="none" stroke="black" points="235.5,-52 235.5,-78 353.5,-78 353.5,-52 235.5,-52"/>
<text text-anchor="start" x="249.12" y="-60.7" font-family="Courier New" font-weight="bold" font-size="14.00">IntegerNode</text>
<polygon fill="none" stroke="black" points="235.5,-26 235.5,-52 286.5,-52 286.5,-26 235.5,-26"/>
<text text-anchor="start" x="240.38" y="-33.7" font-family="Courier New" font-size="14.00">flags</text>
<polygon fill="none" stroke="black" points="286.5,-26 286.5,-52 353.5,-52 353.5,-26 286.5,-26"/>
<text text-anchor="start" x="291.12" y="-33.7" font-family="Courier New" font-size="14.00">decimal</text>
</g>
<!-- Node_60&#45;&gt;Node_100 -->
<g id="edge2" class="edge">
<title>Node_60:value&#45;&gt;Node_100</title>
<path fill="none" stroke="black" d="M307.5,-153C334.51,-153 324.24,-116.67 311.81,-87.8"/>
<polygon fill="black" stroke="black" points="314.68,-86.66 307.39,-78.98 308.3,-89.53 314.68,-86.66"/>
</g>
</g>
</svg>
