<?xml version="1.0" encoding="UTF-8" standalone="no"?>
<!DOCTYPE svg PUBLIC "-//W3C//DTD SVG 1.1//EN"
 "http://www.w3.org/Graphics/SVG/1.1/DTD/svg11.dtd">
<!-- Generated by graphviz version 8.1.0 (20230707.0739)
 -->
<!-- Title: Prism Pages: 1 -->
<svg width="285pt" height="406pt"
 viewBox="0.00 0.00 285.38 405.60" xmlns="http://www.w3.org/2000/svg" xmlns:xlink="http://www.w3.org/1999/xlink">
<g id="graph0" class="graph" transform="scale(1 1) rotate(0) translate(4 401.6)">
<title>Prism</title>
<polygon fill="white" stroke="none" points="-4,4 -4,-401.6 281.38,-401.6 281.38,4 -4,4"/>
<!-- Node_60 -->
<g id="node1" class="node">
<title>Node_60</title>
<polygon fill="#f2f2f2" stroke="none" points="266.95,-397.6 16.95,-397.6 16.95,-215.6 266.95,-215.6 266.95,-397.6"/>
<polygon fill="none" stroke="black" points="16.95,-371.6 16.95,-397.6 266.95,-397.6 266.95,-371.6 16.95,-371.6"/>
<text text-anchor="start" x="67.7" y="-380.3" font-family="Courier New" font-weight="bold" font-size="14.00">SingletonClassNode</text>
<polygon fill="none" stroke="black" points="16.95,-345.6 16.95,-371.6 166.95,-371.6 166.95,-345.6 16.95,-345.6"/>
<text text-anchor="start" x="21.95" y="-353.3" font-family="Courier New" font-size="14.00">locals</text>
<polygon fill="none" stroke="black" points="166.95,-345.6 166.95,-371.6 266.95,-371.6 266.95,-345.6 166.95,-345.6"/>
<text text-anchor="start" x="208.7" y="-353.3" font-family="Courier New" font-size="14.00">[]</text>
<polygon fill="none" stroke="black" points="16.95,-319.6 16.95,-345.6 166.95,-345.6 166.95,-319.6 16.95,-319.6"/>
<text text-anchor="start" x="21.82" y="-327.3" font-family="Courier New" font-size="14.00">class_keyword_loc</text>
<polygon fill="none" stroke="black" points="166.95,-319.6 166.95,-345.6 266.95,-345.6 266.95,-319.6 166.95,-319.6"/>
<text text-anchor="start" x="171.57" y="-327.3" font-family="Courier New" font-size="14.00">(1,0)&#45;(1,5)</text>
<polygon fill="none" stroke="black" points="16.95,-293.6 16.95,-319.6 166.95,-319.6 166.95,-293.6 16.95,-293.6"/>
<text text-anchor="start" x="21.95" y="-301.3" font-family="Courier New" font-size="14.00">operator_loc</text>
<polygon fill="none" stroke="black" points="166.95,-293.6 166.95,-319.6 266.95,-319.6 266.95,-293.6 166.95,-293.6"/>
<text text-anchor="start" x="171.57" y="-301.3" font-family="Courier New" font-size="14.00">(1,6)&#45;(1,8)</text>
<polygon fill="none" stroke="black" points="16.95,-267.6 16.95,-293.6 266.95,-293.6 266.95,-267.6 16.95,-267.6"/>
<text text-anchor="start" x="21.95" y="-275.3" font-family="Courier New" font-size="14.00">expression</text>
<polygon fill="none" stroke="black" points="16.95,-241.6 16.95,-267.6 266.95,-267.6 266.95,-241.6 16.95,-241.6"/>
<text text-anchor="start" x="21.95" y="-249.3" font-family="Courier New" font-size="14.00">body</text>
<polygon fill="none" stroke="black" points="16.95,-215.6 16.95,-241.6 166.95,-241.6 166.95,-215.6 16.95,-215.6"/>
<text text-anchor="start" x="21.95" y="-223.3" font-family="Courier New" font-size="14.00">end_keyword_loc</text>
<polygon fill="none" stroke="black" points="166.95,-215.6 166.95,-241.6 266.95,-241.6 266.95,-215.6 166.95,-215.6"/>
<text text-anchor="start" x="171.57" y="-223.3" font-family="Courier New" font-size="14.00">(3,0)&#45;(3,3)</text>
</g>
<!-- Node_80 -->
<g id="node2" class="node">
<title>Node_80</title>
<polygon fill="#f2f2f2" stroke="none" points="121.45,-166.85 44.45,-166.85 44.45,-140.35 121.45,-140.35 121.45,-166.85"/>
<polygon fill="none" stroke="black" points="44.45,-140.35 44.45,-166.85 121.45,-166.85 121.45,-140.35 44.45,-140.35"/>
<text text-anchor="start" x="49.95" y="-149.55" font-family="Courier New" font-weight="bold" font-size="14.00">SelfNode</text>
</g>
<!-- Node_60&#45;&gt;Node_80 -->
<g id="edge1" class="edge">
<title>Node_60:expression&#45;&gt;Node_80</title>
<path fill="none" stroke="black" d="M15.95,-280.6C-12.94,-280.6 5.16,-241.98 16.95,-215.6 24.67,-198.3 39.91,-183.69 53.81,-173.11"/>
<polygon fill="black" stroke="black" points="55.57,-175.43 61.65,-166.75 51.49,-169.75 55.57,-175.43"/>
</g>
<!-- Node_100 -->
<g id="node3" class="node">
<title>Node_100</title>
<polygon fill="#f2f2f2" stroke="none" points="264.45,-179.6 139.45,-179.6 139.45,-127.6 264.45,-127.6 264.45,-179.6"/>
<polygon fill="none" stroke="black" points="139.45,-153.6 139.45,-179.6 264.45,-179.6 264.45,-153.6 139.45,-153.6"/>
<text text-anchor="start" x="144.2" y="-162.3" font-family="Courier New" font-weight="bold" font-size="14.00">StatementsNode</text>
<polygon fill="none" stroke="black" points="139.45,-127.6 139.45,-153.6 264.45,-153.6 264.45,-127.6 139.45,-127.6"/>
<text text-anchor="start" x="144.45" y="-135.3" font-family="Courier New" font-size="14.00">body</text>
</g>
<!-- Node_60&#45;&gt;Node_100 -->
<g id="edge2" class="edge">
<title>Node_60:body&#45;&gt;Node_100</title>
<path fill="none" stroke="black" d="M267.95,-254.6C285.29,-254.6 274.04,-231.42 266.95,-215.6 262.15,-204.9 254.49,-195.18 246.1,-186.81"/>
<polygon fill="black" stroke="black" points="248.94,-184.75 239.23,-180.51 244.18,-189.88 248.94,-184.75"/>
</g>
<!-- Node_100_body -->
<g id="node5" class="node">
<title>Node_100_body</title>
<ellipse fill="#f2f2f2" stroke="black" cx="201.95" cy="-89.8" rx="1.8" ry="1.8"/>
</g>
<!-- Node_100&#45;&gt;Node_100_body -->
<g id="edge3" class="edge">
<title>Node_100:body&#45;&gt;Node_100_body</title>
<path fill="none" stroke="black" d="M201.95,-127.6C201.95,-119.36 201.95,-110.09 201.95,-102.91"/>
<polygon fill="black" stroke="black" points="205.45,-102.94 201.95,-92.94 198.45,-102.94 205.45,-102.94"/>
</g>
<!-- Node_120 -->
<g id="node4" class="node">
<title>Node_120</title>
<polygon fill="#f2f2f2" stroke="none" points="260.95,-52 142.95,-52 142.95,0 260.95,0 260.95,-52"/>
<polygon fill="none" stroke="black" points="142.95,-26 142.95,-52 260.95,-52 260.95,-26 142.95,-26"/>
<text text-anchor="start" x="156.57" y="-34.7" font-family="Courier New" font-weight="bold" font-size="14.00">IntegerNode</text>
<polygon fill="none" stroke="black" points="142.95,0 142.95,-26 193.95,-26 193.95,0 142.95,0"/>
<text text-anchor="start" x="147.82" y="-7.7" font-family="Courier New" font-size="14.00">flags</text>
<polygon fill="none" stroke="black" points="193.95,0 193.95,-26 260.95,-26 260.95,0 193.95,0"/>
<text text-anchor="start" x="198.57" y="-7.7" font-family="Courier New" font-size="14.00">decimal</text>
</g>
<!-- Node_100_body&#45;&gt;Node_120 -->
<g id="edge4" class="edge">
<title>Node_100_body&#45;&gt;Node_120</title>
<path fill="none" stroke="black" d="M201.95,-87.73C201.95,-84.45 201.95,-74.09 201.95,-62.84"/>
<polygon fill="black" stroke="black" points="205.45,-62.97 201.95,-52.97 198.45,-62.98 205.45,-62.97"/>
</g>
</g>
</svg>
