<?xml version="1.0" encoding="UTF-8" standalone="no"?>
<!DOCTYPE svg PUBLIC "-//W3C//DTD SVG 1.1//EN"
 "http://www.w3.org/Graphics/SVG/1.1/DTD/svg11.dtd">
<!-- Generated by graphviz version 8.1.0 (20230707.0739)
 -->
<!-- Title: Prism Pages: 1 -->
<svg width="480pt" height="340pt"
 viewBox="0.00 0.00 479.50 340.00" xmlns="http://www.w3.org/2000/svg" xmlns:xlink="http://www.w3.org/1999/xlink">
<g id="graph0" class="graph" transform="scale(1 1) rotate(0) translate(4 336)">
<title>Prism</title>
<polygon fill="white" stroke="none" points="-4,4 -4,-336 475.5,-336 475.5,4 -4,4"/>
<!-- Node_60 -->
<g id="node1" class="node">
<title>Node_60</title>
<polygon fill="#f2f2f2" stroke="none" points="331,-332 122,-332 122,-228 331,-228 331,-332"/>
<polygon fill="none" stroke="black" points="122,-306 122,-332 331,-332 331,-306 122,-306"/>
<text text-anchor="start" x="152.25" y="-314.7" font-family="Courier New" font-weight="bold" font-size="14.00">MatchPredicateNode</text>
<polygon fill="none" stroke="black" points="122,-280 122,-306 331,-306 331,-280 122,-280"/>
<text text-anchor="start" x="127" y="-287.7" font-family="Courier New" font-size="14.00">value</text>
<polygon fill="none" stroke="black" points="122,-254 122,-280 331,-280 331,-254 122,-254"/>
<text text-anchor="start" x="127" y="-261.7" font-family="Courier New" font-size="14.00">pattern</text>
<polygon fill="none" stroke="black" points="122,-228 122,-254 231,-254 231,-228 122,-228"/>
<text text-anchor="start" x="127" y="-235.7" font-family="Courier New" font-size="14.00">operator_loc</text>
<polygon fill="none" stroke="black" points="231,-228 231,-254 331,-254 331,-228 231,-228"/>
<text text-anchor="start" x="235.62" y="-235.7" font-family="Courier New" font-size="14.00">(1,4)&#45;(1,6)</text>
</g>
<!-- Node_80 -->
<g id="node2" class="node">
<title>Node_80</title>
<polygon fill="#f2f2f2" stroke="none" points="217,-192 0,-192 0,-88 217,-88 217,-192"/>
<polygon fill="none" stroke="black" points="0,-166 0,-192 217,-192 217,-166 0,-166"/>
<text text-anchor="start" x="75.5" y="-174.7" font-family="Courier New" font-weight="bold" font-size="14.00">CallNode</text>
<polygon fill="none" stroke="black" points="0,-140 0,-166 100,-166 100,-140 0,-140"/>
<text text-anchor="start" x="5" y="-147.7" font-family="Courier New" font-size="14.00">flags</text>
<polygon fill="none" stroke="black" points="100,-140 100,-166 217,-166 217,-140 100,-140"/>
<text text-anchor="start" x="104.88" y="-147.7" font-family="Courier New" font-size="14.00">variable_call</text>
<polygon fill="none" stroke="black" points="0,-114 0,-140 100,-140 100,-114 0,-114"/>
<text text-anchor="start" x="5" y="-121.7" font-family="Courier New" font-size="14.00">name</text>
<polygon fill="none" stroke="black" points="100,-114 100,-140 217,-140 217,-114 100,-114"/>
<text text-anchor="start" x="142" y="-121.7" font-family="Courier New" font-size="14.00">:foo</text>
<polygon fill="none" stroke="black" points="0,-88 0,-114 100,-114 100,-88 0,-88"/>
<text text-anchor="start" x="4.62" y="-95.7" font-family="Courier New" font-size="14.00">message_loc</text>
<polygon fill="none" stroke="black" points="100,-88 100,-114 217,-114 217,-88 100,-88"/>
<text text-anchor="start" x="113.12" y="-95.7" font-family="Courier New" font-size="14.00">(1,0)&#45;(1,3)</text>
</g>
<!-- Node_60&#45;&gt;Node_80 -->
<g id="edge1" class="edge">
<title>Node_60:value&#45;&gt;Node_80</title>
<path fill="none" stroke="black" d="M120.5,-293C82.19,-293 83.36,-244.41 91.62,-202.18"/>
<polygon fill="black" stroke="black" points="95.21,-203.12 93.85,-192.61 88.36,-201.67 95.21,-203.12"/>
</g>
<!-- Node_100 -->
<g id="node3" class="node">
<title>Node_100</title>
<polygon fill="#f2f2f2" stroke="none" points="453.5,-192 235.5,-192 235.5,-88 453.5,-88 453.5,-192"/>
<polygon fill="none" stroke="black" points="235.5,-166 235.5,-192 453.5,-192 453.5,-166 235.5,-166"/>
<text text-anchor="start" x="253.75" y="-174.7" font-family="Courier New" font-weight="bold" font-size="14.00">AlternationPatternNode</text>
<polygon fill="none" stroke="black" points="235.5,-140 235.5,-166 453.5,-166 453.5,-140 235.5,-140"/>
<text text-anchor="start" x="240.5" y="-147.7" font-family="Courier New" font-size="14.00">left</text>
<polygon fill="none" stroke="black" points="235.5,-114 235.5,-140 453.5,-140 453.5,-114 235.5,-114"/>
<text text-anchor="start" x="240.5" y="-121.7" font-family="Courier New" font-size="14.00">right</text>
<polygon fill="none" stroke="black" points="235.5,-88 235.5,-114 344.5,-114 344.5,-88 235.5,-88"/>
<text text-anchor="start" x="240.5" y="-95.7" font-family="Courier New" font-size="14.00">operator_loc</text>
<polygon fill="none" stroke="black" points="344.5,-88 344.5,-114 453.5,-114 453.5,-88 344.5,-88"/>
<text text-anchor="start" x="349.5" y="-95.7" font-family="Courier New" font-size="14.00">(1,9)&#45;(1,10)</text>
</g>
<!-- Node_60&#45;&gt;Node_100 -->
<g id="edge2" class="edge">
<title>Node_60:pattern&#45;&gt;Node_100</title>
<path fill="none" stroke="black" d="M332.5,-267C361.03,-267 363.71,-234.6 359.42,-202.65"/>
<polygon fill="black" stroke="black" points="362.74,-202.22 357.72,-192.89 355.82,-203.31 362.74,-202.22"/>
</g>
<!-- Node_120 -->
<g id="node4" class="node">
<title>Node_120</title>
<polygon fill="#f2f2f2" stroke="none" points="335.5,-52 217.5,-52 217.5,0 335.5,0 335.5,-52"/>
<polygon fill="none" stroke="black" points="217.5,-26 217.5,-52 335.5,-52 335.5,-26 217.5,-26"/>
<text text-anchor="start" x="231.12" y="-34.7" font-family="Courier New" font-weight="bold" font-size="14.00">IntegerNode</text>
<polygon fill="none" stroke="black" points="217.5,0 217.5,-26 268.5,-26 268.5,0 217.5,0"/>
<text text-anchor="start" x="222.38" y="-7.7" font-family="Courier New" font-size="14.00">flags</text>
<polygon fill="none" stroke="black" points="268.5,0 268.5,-26 335.5,-26 335.5,0 268.5,0"/>
<text text-anchor="start" x="273.12" y="-7.7" font-family="Courier New" font-size="14.00">decimal</text>
</g>
<!-- Node_100&#45;&gt;Node_120 -->
<g id="edge3" class="edge">
<title>Node_100:left&#45;&gt;Node_120</title>
<path fill="none" stroke="black" d="M234.5,-153C220.05,-153 231.18,-101.79 235.5,-88 238.44,-78.62 243.32,-69.37 248.71,-61.01"/>
<polygon fill="black" stroke="black" points="252.13,-63.21 254.93,-52.99 246.37,-59.23 252.13,-63.21"/>
</g>
<!-- Node_140 -->
<g id="node5" class="node">
<title>Node_140</title>
<polygon fill="#f2f2f2" stroke="none" points="471.5,-52 353.5,-52 353.5,0 471.5,0 471.5,-52"/>
<polygon fill="none" stroke="black" points="353.5,-26 353.5,-52 471.5,-52 471.5,-26 353.5,-26"/>
<text text-anchor="start" x="367.12" y="-34.7" font-family="Courier New" font-weight="bold" font-size="14.00">IntegerNode</text>
<polygon fill="none" stroke="black" points="353.5,0 353.5,-26 404.5,-26 404.5,0 353.5,0"/>
<text text-anchor="start" x="358.38" y="-7.7" font-family="Courier New" font-size="14.00">flags</text>
<polygon fill="none" stroke="black" points="404.5,0 404.5,-26 471.5,-26 471.5,0 404.5,0"/>
<text text-anchor="start" x="409.12" y="-7.7" font-family="Courier New" font-size="14.00">decimal</text>
</g>
<!-- Node_100&#45;&gt;Node_140 -->
<g id="edge4" class="edge">
<title>Node_100:right&#45;&gt;Node_140</title>
<path fill="none" stroke="black" d="M454.5,-127C483.94,-127 461.76,-89.71 440.03,-60.67"/>
<polygon fill="black" stroke="black" points="442.22,-58.78 433.36,-52.98 436.67,-63.04 442.22,-58.78"/>
</g>
</g>
</svg>
