<?xml version="1.0" encoding="UTF-8" standalone="no"?>
<!DOCTYPE svg PUBLIC "-//W3C//DTD SVG 1.1//EN"
 "http://www.w3.org/Graphics/SVG/1.1/DTD/svg11.dtd">
<!-- Generated by graphviz version 8.1.0 (20230707.0739)
 -->
<!-- Title: Prism Pages: 1 -->
<svg width="557pt" height="480pt"
 viewBox="0.00 0.00 557.00 480.00" xmlns="http://www.w3.org/2000/svg" xmlns:xlink="http://www.w3.org/1999/xlink">
<g id="graph0" class="graph" transform="scale(1 1) rotate(0) translate(4 476)">
<title>Prism</title>
<polygon fill="white" stroke="none" points="-4,4 -4,-476 553,-476 553,4 -4,4"/>
<!-- Node_60 -->
<g id="node1" class="node">
<title>Node_60</title>
<polygon fill="#f2f2f2" stroke="none" points="348,-472 130,-472 130,-368 348,-368 348,-472"/>
<polygon fill="none" stroke="black" points="130,-446 130,-472 348,-472 348,-446 130,-446"/>
<text text-anchor="start" x="164.75" y="-454.7" font-family="Courier New" font-weight="bold" font-size="14.00">MatchPredicateNode</text>
<polygon fill="none" stroke="black" points="130,-420 130,-446 348,-446 348,-420 130,-420"/>
<text text-anchor="start" x="135" y="-427.7" font-family="Courier New" font-size="14.00">value</text>
<polygon fill="none" stroke="black" points="130,-394 130,-420 348,-420 348,-394 130,-394"/>
<text text-anchor="start" x="135" y="-401.7" font-family="Courier New" font-size="14.00">pattern</text>
<polygon fill="none" stroke="black" points="130,-368 130,-394 239,-394 239,-368 130,-368"/>
<text text-anchor="start" x="135" y="-375.7" font-family="Courier New" font-size="14.00">operator_loc</text>
<polygon fill="none" stroke="black" points="239,-368 239,-394 348,-394 348,-368 239,-368"/>
<text text-anchor="start" x="244" y="-375.7" font-family="Courier New" font-size="14.00">(1,9)&#45;(1,11)</text>
</g>
<!-- Node_80 -->
<g id="node2" class="node">
<title>Node_80</title>
<polygon fill="#f2f2f2" stroke="none" points="230.5,-306 13.5,-306 13.5,-202 230.5,-202 230.5,-306"/>
<polygon fill="none" stroke="black" points="13.5,-280 13.5,-306 230.5,-306 230.5,-280 13.5,-280"/>
<text text-anchor="start" x="89" y="-288.7" font-family="Courier New" font-weight="bold" font-size="14.00">CallNode</text>
<polygon fill="none" stroke="black" points="13.5,-254 13.5,-280 113.5,-280 113.5,-254 13.5,-254"/>
<text text-anchor="start" x="18.5" y="-261.7" font-family="Courier New" font-size="14.00">flags</text>
<polygon fill="none" stroke="black" points="113.5,-254 113.5,-280 230.5,-280 230.5,-254 113.5,-254"/>
<text text-anchor="start" x="118.38" y="-261.7" font-family="Courier New" font-size="14.00">variable_call</text>
<polygon fill="none" stroke="black" points="13.5,-228 13.5,-254 113.5,-254 113.5,-228 13.5,-228"/>
<text text-anchor="start" x="18.5" y="-235.7" font-family="Courier New" font-size="14.00">name</text>
<polygon fill="none" stroke="black" points="113.5,-228 113.5,-254 230.5,-254 230.5,-228 113.5,-228"/>
<text text-anchor="start" x="134.88" y="-235.7" font-family="Courier New" font-size="14.00">:integers</text>
<polygon fill="none" stroke="black" points="13.5,-202 13.5,-228 113.5,-228 113.5,-202 13.5,-202"/>
<text text-anchor="start" x="18.12" y="-209.7" font-family="Courier New" font-size="14.00">message_loc</text>
<polygon fill="none" stroke="black" points="113.5,-202 113.5,-228 230.5,-228 230.5,-202 113.5,-202"/>
<text text-anchor="start" x="126.62" y="-209.7" font-family="Courier New" font-size="14.00">(1,0)&#45;(1,8)</text>
</g>
<!-- Node_60&#45;&gt;Node_80 -->
<g id="edge1" class="edge">
<title>Node_60:value&#45;&gt;Node_80</title>
<path fill="none" stroke="black" d="M129,-433C80.97,-433 88.64,-367.49 102.1,-315.96"/>
<polygon fill="black" stroke="black" points="105.69,-317.1 104.95,-306.53 98.94,-315.26 105.69,-317.1"/>
</g>
<!-- Node_100 -->
<g id="node3" class="node">
<title>Node_100</title>
<polygon fill="#f2f2f2" stroke="none" points="465.5,-332 248.5,-332 248.5,-176 465.5,-176 465.5,-332"/>
<polygon fill="none" stroke="black" points="248.5,-306 248.5,-332 465.5,-332 465.5,-306 248.5,-306"/>
<text text-anchor="start" x="295.12" y="-314.7" font-family="Courier New" font-weight="bold" font-size="14.00">FindPatternNode</text>
<polygon fill="none" stroke="black" points="248.5,-280 248.5,-306 465.5,-306 465.5,-280 248.5,-280"/>
<text text-anchor="start" x="253.5" y="-287.7" font-family="Courier New" font-size="14.00">left</text>
<polygon fill="none" stroke="black" points="248.5,-254 248.5,-280 465.5,-280 465.5,-254 248.5,-254"/>
<text text-anchor="start" x="253.5" y="-261.7" font-family="Courier New" font-size="14.00">requireds</text>
<polygon fill="none" stroke="black" points="248.5,-228 248.5,-254 465.5,-254 465.5,-228 248.5,-228"/>
<text text-anchor="start" x="253.5" y="-235.7" font-family="Courier New" font-size="14.00">right</text>
<polygon fill="none" stroke="black" points="248.5,-202 248.5,-228 348.5,-228 348.5,-202 248.5,-202"/>
<text text-anchor="start" x="253.12" y="-209.7" font-family="Courier New" font-size="14.00">opening_loc</text>
<polygon fill="none" stroke="black" points="348.5,-202 348.5,-228 465.5,-228 465.5,-202 348.5,-202"/>
<text text-anchor="start" x="353.38" y="-209.7" font-family="Courier New" font-size="14.00">(1,12)&#45;(1,13)</text>
<polygon fill="none" stroke="black" points="248.5,-176 248.5,-202 348.5,-202 348.5,-176 248.5,-176"/>
<text text-anchor="start" x="253.12" y="-183.7" font-family="Courier New" font-size="14.00">closing_loc</text>
<polygon fill="none" stroke="black" points="348.5,-176 348.5,-202 465.5,-202 465.5,-176 348.5,-176"/>
<text text-anchor="start" x="353.38" y="-183.7" font-family="Courier New" font-size="14.00">(1,20)&#45;(1,21)</text>
</g>
<!-- Node_60&#45;&gt;Node_100 -->
<g id="edge2" class="edge">
<title>Node_60:pattern&#45;&gt;Node_100</title>
<path fill="none" stroke="black" d="M349,-407C379.41,-407 384.1,-376.28 380.04,-342.46"/>
<polygon fill="black" stroke="black" points="383.41,-342.29 378.52,-332.89 376.48,-343.29 383.41,-342.29"/>
</g>
<!-- Node_120 -->
<g id="node4" class="node">
<title>Node_120</title>
<polygon fill="#f2f2f2" stroke="none" points="226,-140 0,-140 0,-88 226,-88 226,-140"/>
<polygon fill="none" stroke="black" points="0,-114 0,-140 226,-140 226,-114 0,-114"/>
<text text-anchor="start" x="75.88" y="-122.7" font-family="Courier New" font-weight="bold" font-size="14.00">SplatNode</text>
<polygon fill="none" stroke="black" points="0,-88 0,-114 109,-114 109,-88 0,-88"/>
<text text-anchor="start" x="5" y="-95.7" font-family="Courier New" font-size="14.00">operator_loc</text>
<polygon fill="none" stroke="black" points="109,-88 109,-114 226,-114 226,-88 109,-88"/>
<text text-anchor="start" x="113.88" y="-95.7" font-family="Courier New" font-size="14.00">(1,13)&#45;(1,14)</text>
</g>
<!-- Node_100&#45;&gt;Node_120 -->
<g id="edge3" class="edge">
<title>Node_100:left&#45;&gt;Node_120</title>
<path fill="none" stroke="black" d="M247,-293C233.98,-293 247.26,-186.81 240,-176 231.47,-163.3 219.52,-153.16 206.34,-145.09"/>
<polygon fill="black" stroke="black" points="208.47,-141.71 198.04,-139.83 205.02,-147.8 208.47,-141.71"/>
</g>
<!-- Node_160 -->
<g id="node6" class="node">
<title>Node_160</title>
<polygon fill="#f2f2f2" stroke="none" points="470,-140 244,-140 244,-88 470,-88 470,-140"/>
<polygon fill="none" stroke="black" points="244,-114 244,-140 470,-140 470,-114 244,-114"/>
<text text-anchor="start" x="319.88" y="-122.7" font-family="Courier New" font-weight="bold" font-size="14.00">SplatNode</text>
<polygon fill="none" stroke="black" points="244,-88 244,-114 353,-114 353,-88 244,-88"/>
<text text-anchor="start" x="249" y="-95.7" font-family="Courier New" font-size="14.00">operator_loc</text>
<polygon fill="none" stroke="black" points="353,-88 353,-114 470,-114 470,-88 353,-88"/>
<text text-anchor="start" x="357.88" y="-95.7" font-family="Courier New" font-size="14.00">(1,19)&#45;(1,20)</text>
</g>
<!-- Node_100&#45;&gt;Node_160 -->
<g id="edge6" class="edge">
<title>Node_100:right&#45;&gt;Node_160</title>
<path fill="none" stroke="black" d="M467,-241C495.89,-241 480.8,-200.81 466,-176 458.69,-163.76 447.95,-153.78 436.02,-145.71"/>
<polygon fill="black" stroke="black" points="438.04,-142.22 427.7,-139.91 434.34,-148.17 438.04,-142.22"/>
</g>
<!-- Node_100_requireds -->
<g id="node7" class="node">
<title>Node_100_requireds</title>
<ellipse fill="#f2f2f2" stroke="black" cx="490" cy="-114" rx="1.8" ry="1.8"/>
</g>
<!-- Node_100&#45;&gt;Node_100_requireds -->
<g id="edge4" class="edge">
<title>Node_100:requireds&#45;&gt;Node_100_requireds</title>
<path fill="none" stroke="black" d="M467,-267C523.98,-267 501.92,-161.28 493.02,-126.18"/>
<polygon fill="black" stroke="black" points="496.25,-125.72 490.28,-116.97 489.49,-127.54 496.25,-125.72"/>
</g>
<!-- Node_140 -->
<g id="node5" class="node">
<title>Node_140</title>
<polygon fill="#f2f2f2" stroke="none" points="549,-52 431,-52 431,0 549,0 549,-52"/>
<polygon fill="none" stroke="black" points="431,-26 431,-52 549,-52 549,-26 431,-26"/>
<text text-anchor="start" x="444.62" y="-34.7" font-family="Courier New" font-weight="bold" font-size="14.00">IntegerNode</text>
<polygon fill="none" stroke="black" points="431,0 431,-26 482,-26 482,0 431,0"/>
<text text-anchor="start" x="435.88" y="-7.7" font-family="Courier New" font-size="14.00">flags</text>
<polygon fill="none" stroke="black" points="482,0 482,-26 549,-26 549,0 482,0"/>
<text text-anchor="start" x="486.62" y="-7.7" font-family="Courier New" font-size="14.00">decimal</text>
</g>
<!-- Node_100_requireds&#45;&gt;Node_140 -->
<g id="edge5" class="edge">
<title>Node_100_requireds&#45;&gt;Node_140</title>
<path fill="none" stroke="black" d="M490,-111.78C490,-106.32 490,-83.36 490,-62.72"/>
<polygon fill="black" stroke="black" points="493.5,-62.93 490,-52.93 486.5,-62.93 493.5,-62.93"/>
</g>
</g>
</svg>
