<?xml version="1.0" encoding="UTF-8" standalone="no"?>
<!DOCTYPE svg PUBLIC "-//W3C//DTD SVG 1.1//EN"
 "http://www.w3.org/Graphics/SVG/1.1/DTD/svg11.dtd">
<!-- Generated by graphviz version 8.1.0 (20230707.0739)
 -->
<!-- Title: Prism Pages: 1 -->
<svg width="361pt" height="458pt"
 viewBox="0.00 0.00 360.50 457.60" xmlns="http://www.w3.org/2000/svg" xmlns:xlink="http://www.w3.org/1999/xlink">
<g id="graph0" class="graph" transform="scale(1 1) rotate(0) translate(4 453.6)">
<title>Prism</title>
<polygon fill="white" stroke="none" points="-4,4 -4,-453.6 356.5,-453.6 356.5,4 -4,4"/>
<!-- Node_60 -->
<g id="node1" class="node">
<title>Node_60</title>
<polygon fill="#f2f2f2" stroke="none" points="325.5,-449.6 75.5,-449.6 75.5,-267.6 325.5,-267.6 325.5,-449.6"/>
<polygon fill="none" stroke="black" points="75.5,-423.6 75.5,-449.6 325.5,-449.6 325.5,-423.6 75.5,-423.6"/>
<text text-anchor="start" x="167.5" y="-432.3" font-family="Courier New" font-weight="bold" font-size="14.00">CallNode</text>
<polygon fill="none" stroke="black" points="75.5,-397.6 75.5,-423.6 225.5,-423.6 225.5,-397.6 75.5,-397.6"/>
<text text-anchor="start" x="80.5" y="-405.3" font-family="Courier New" font-size="14.00">flags</text>
<polygon fill="none" stroke="black" points="225.5,-397.6 225.5,-423.6 325.5,-423.6 325.5,-397.6 225.5,-397.6"/>
<polygon fill="none" stroke="black" points="75.5,-371.6 75.5,-397.6 325.5,-397.6 325.5,-371.6 75.5,-371.6"/>
<text text-anchor="start" x="80.5" y="-379.3" font-family="Courier New" font-size="14.00">receiver</text>
<polygon fill="none" stroke="black" points="75.5,-345.6 75.5,-371.6 225.5,-371.6 225.5,-345.6 75.5,-345.6"/>
<text text-anchor="start" x="80.38" y="-353.3" font-family="Courier New" font-size="14.00">call_operator_loc</text>
<polygon fill="none" stroke="black" points="225.5,-345.6 225.5,-371.6 325.5,-371.6 325.5,-345.6 225.5,-345.6"/>
<text text-anchor="start" x="230.12" y="-353.3" font-family="Courier New" font-size="14.00">(1,3)&#45;(1,4)</text>
<polygon fill="none" stroke="black" points="75.5,-319.6 75.5,-345.6 225.5,-345.6 225.5,-319.6 75.5,-319.6"/>
<text text-anchor="start" x="80.5" y="-327.3" font-family="Courier New" font-size="14.00">name</text>
<polygon fill="none" stroke="black" points="225.5,-319.6 225.5,-345.6 325.5,-345.6 325.5,-319.6 225.5,-319.6"/>
<text text-anchor="start" x="254.88" y="-327.3" font-family="Courier New" font-size="14.00">:bar=</text>
<polygon fill="none" stroke="black" points="75.5,-293.6 75.5,-319.6 225.5,-319.6 225.5,-293.6 75.5,-293.6"/>
<text text-anchor="start" x="80.5" y="-301.3" font-family="Courier New" font-size="14.00">message_loc</text>
<polygon fill="none" stroke="black" points="225.5,-293.6 225.5,-319.6 325.5,-319.6 325.5,-293.6 225.5,-293.6"/>
<text text-anchor="start" x="230.12" y="-301.3" font-family="Courier New" font-size="14.00">(1,4)&#45;(1,7)</text>
<polygon fill="none" stroke="black" points="75.5,-267.6 75.5,-293.6 325.5,-293.6 325.5,-267.6 75.5,-267.6"/>
<text text-anchor="start" x="80.5" y="-275.3" font-family="Courier New" font-size="14.00">arguments</text>
</g>
<!-- Node_80 -->
<g id="node2" class="node">
<title>Node_80</title>
<polygon fill="#f2f2f2" stroke="none" points="217,-231.6 0,-231.6 0,-127.6 217,-127.6 217,-231.6"/>
<polygon fill="none" stroke="black" points="0,-205.6 0,-231.6 217,-231.6 217,-205.6 0,-205.6"/>
<text text-anchor="start" x="75.5" y="-214.3" font-family="Courier New" font-weight="bold" font-size="14.00">CallNode</text>
<polygon fill="none" stroke="black" points="0,-179.6 0,-205.6 100,-205.6 100,-179.6 0,-179.6"/>
<text text-anchor="start" x="5" y="-187.3" font-family="Courier New" font-size="14.00">flags</text>
<polygon fill="none" stroke="black" points="100,-179.6 100,-205.6 217,-205.6 217,-179.6 100,-179.6"/>
<text text-anchor="start" x="104.88" y="-187.3" font-family="Courier New" font-size="14.00">variable_call</text>
<polygon fill="none" stroke="black" points="0,-153.6 0,-179.6 100,-179.6 100,-153.6 0,-153.6"/>
<text text-anchor="start" x="5" y="-161.3" font-family="Courier New" font-size="14.00">name</text>
<polygon fill="none" stroke="black" points="100,-153.6 100,-179.6 217,-179.6 217,-153.6 100,-153.6"/>
<text text-anchor="start" x="142" y="-161.3" font-family="Courier New" font-size="14.00">:foo</text>
<polygon fill="none" stroke="black" points="0,-127.6 0,-153.6 100,-153.6 100,-127.6 0,-127.6"/>
<text text-anchor="start" x="4.62" y="-135.3" font-family="Courier New" font-size="14.00">message_loc</text>
<polygon fill="none" stroke="black" points="100,-127.6 100,-153.6 217,-153.6 217,-127.6 100,-127.6"/>
<text text-anchor="start" x="113.12" y="-135.3" font-family="Courier New" font-size="14.00">(1,0)&#45;(1,3)</text>
</g>
<!-- Node_60&#45;&gt;Node_80 -->
<g id="edge1" class="edge">
<title>Node_60:receiver&#45;&gt;Node_80</title>
<path fill="none" stroke="black" d="M74.5,-384.6C15.83,-384.6 45.91,-301.49 75.35,-241.36"/>
<polygon fill="black" stroke="black" points="78.91,-243.06 80.24,-232.55 72.64,-239.94 78.91,-243.06"/>
</g>
<!-- Node_100 -->
<g id="node3" class="node">
<title>Node_100</title>
<polygon fill="#f2f2f2" stroke="none" points="352,-218.6 235,-218.6 235,-140.6 352,-140.6 352,-218.6"/>
<polygon fill="none" stroke="black" points="235,-192.6 235,-218.6 352,-218.6 352,-192.6 235,-192.6"/>
<text text-anchor="start" x="239.88" y="-201.3" font-family="Courier New" font-weight="bold" font-size="14.00">ArgumentsNode</text>
<polygon fill="none" stroke="black" points="235,-166.6 235,-192.6 314,-192.6 314,-166.6 235,-166.6"/>
<text text-anchor="start" x="240" y="-174.3" font-family="Courier New" font-size="14.00">flags</text>
<polygon fill="none" stroke="black" points="314,-166.6 314,-192.6 352,-192.6 352,-166.6 314,-166.6"/>
<polygon fill="none" stroke="black" points="235,-140.6 235,-166.6 352,-166.6 352,-140.6 235,-140.6"/>
<text text-anchor="start" x="240" y="-148.3" font-family="Courier New" font-size="14.00">arguments</text>
</g>
<!-- Node_60&#45;&gt;Node_100 -->
<g id="edge2" class="edge">
<title>Node_60:arguments&#45;&gt;Node_100</title>
<path fill="none" stroke="black" d="M326.5,-280.6C350.87,-280.6 340.92,-253.49 325.78,-227.5"/>
<polygon fill="black" stroke="black" points="328.43,-226.14 320.25,-219.41 322.45,-229.77 328.43,-226.14"/>
</g>
<!-- Node_100_arguments -->
<g id="node5" class="node">
<title>Node_100_arguments</title>
<ellipse fill="#f2f2f2" stroke="black" cx="293.5" cy="-89.8" rx="1.8" ry="1.8"/>
</g>
<!-- Node_100&#45;&gt;Node_100_arguments -->
<g id="edge3" class="edge">
<title>Node_100:arguments&#45;&gt;Node_100_arguments</title>
<path fill="none" stroke="black" d="M293.5,-139.6C293.5,-127 293.5,-112.56 293.5,-102.68"/>
<polygon fill="black" stroke="black" points="297,-103.01 293.5,-93.01 290,-103.01 297,-103.01"/>
</g>
<!-- Node_120 -->
<g id="node4" class="node">
<title>Node_120</title>
<polygon fill="#f2f2f2" stroke="none" points="352.5,-52 234.5,-52 234.5,0 352.5,0 352.5,-52"/>
<polygon fill="none" stroke="black" points="234.5,-26 234.5,-52 352.5,-52 352.5,-26 234.5,-26"/>
<text text-anchor="start" x="248.12" y="-34.7" font-family="Courier New" font-weight="bold" font-size="14.00">IntegerNode</text>
<polygon fill="none" stroke="black" points="234.5,0 234.5,-26 285.5,-26 285.5,0 234.5,0"/>
<text text-anchor="start" x="239.38" y="-7.7" font-family="Courier New" font-size="14.00">flags</text>
<polygon fill="none" stroke="black" points="285.5,0 285.5,-26 352.5,-26 352.5,0 285.5,0"/>
<text text-anchor="start" x="290.12" y="-7.7" font-family="Courier New" font-size="14.00">decimal</text>
</g>
<!-- Node_100_arguments&#45;&gt;Node_120 -->
<g id="edge4" class="edge">
<title>Node_100_arguments&#45;&gt;Node_120</title>
<path fill="none" stroke="black" d="M293.5,-87.73C293.5,-84.45 293.5,-74.09 293.5,-62.84"/>
<polygon fill="black" stroke="black" points="297,-62.97 293.5,-52.97 290,-62.98 297,-62.97"/>
</g>
</g>
</svg>
