<?xml version="1.0" encoding="UTF-8" standalone="no"?>
<!DOCTYPE svg PUBLIC "-//W3C//DTD SVG 1.1//EN"
 "http://www.w3.org/Graphics/SVG/1.1/DTD/svg11.dtd">
<!-- Generated by graphviz version 8.1.0 (20230707.0739)
 -->
<!-- Title: Prism Pages: 1 -->
<svg width="265pt" height="226pt"
 viewBox="0.00 0.00 264.66 226.00" xmlns="http://www.w3.org/2000/svg" xmlns:xlink="http://www.w3.org/1999/xlink">
<g id="graph0" class="graph" transform="scale(1 1) rotate(0) translate(4 222)">
<title>Prism</title>
<polygon fill="white" stroke="none" points="-4,4 -4,-222 260.66,-222 260.66,4 -4,4"/>
<!-- Node_60 -->
<g id="node1" class="node">
<title>Node_60</title>
<polygon fill="#f2f2f2" stroke="none" points="234.16,-218 25.16,-218 25.16,-88 234.16,-88 234.16,-218"/>
<polygon fill="none" stroke="black" points="25.16,-192 25.16,-218 234.16,-218 234.16,-192 25.16,-192"/>
<text text-anchor="start" x="92.54" y="-200.7" font-family="Courier New" font-weight="bold" font-size="14.00">RangeNode</text>
<polygon fill="none" stroke="black" points="25.16,-166 25.16,-192 234.16,-192 234.16,-166 25.16,-166"/>
<text text-anchor="start" x="30.16" y="-173.7" font-family="Courier New" font-size="14.00">left</text>
<polygon fill="none" stroke="black" points="25.16,-140 25.16,-166 234.16,-166 234.16,-140 25.16,-140"/>
<text text-anchor="start" x="30.16" y="-147.7" font-family="Courier New" font-size="14.00">right</text>
<polygon fill="none" stroke="black" points="25.16,-114 25.16,-140 134.16,-140 134.16,-114 25.16,-114"/>
<text text-anchor="start" x="30.16" y="-121.7" font-family="Courier New" font-size="14.00">operator_loc</text>
<polygon fill="none" stroke="black" points="134.16,-114 134.16,-140 234.16,-140 234.16,-114 134.16,-114"/>
<text text-anchor="start" x="138.79" y="-121.7" font-family="Courier New" font-size="14.00">(1,1)&#45;(1,3)</text>
<polygon fill="none" stroke="black" points="25.16,-88 25.16,-114 134.16,-114 134.16,-88 25.16,-88"/>
<text text-anchor="start" x="30.16" y="-95.7" font-family="Courier New" font-size="14.00">flags</text>
<polygon fill="none" stroke="black" points="134.16,-88 134.16,-114 234.16,-114 234.16,-88 134.16,-88"/>
</g>
<!-- Node_80 -->
<g id="node2" class="node">
<title>Node_80</title>
<polygon fill="#f2f2f2" stroke="none" points="120.66,-52 2.66,-52 2.66,0 120.66,0 120.66,-52"/>
<polygon fill="none" stroke="black" points="2.66,-26 2.66,-52 120.66,-52 120.66,-26 2.66,-26"/>
<text text-anchor="start" x="16.29" y="-34.7" font-family="Courier New" font-weight="bold" font-size="14.00">IntegerNode</text>
<polygon fill="none" stroke="black" points="2.66,0 2.66,-26 53.66,-26 53.66,0 2.66,0"/>
<text text-anchor="start" x="7.54" y="-7.7" font-family="Courier New" font-size="14.00">flags</text>
<polygon fill="none" stroke="black" points="53.66,0 53.66,-26 120.66,-26 120.66,0 53.66,0"/>
<text text-anchor="start" x="58.29" y="-7.7" font-family="Courier New" font-size="14.00">decimal</text>
</g>
<!-- Node_60&#45;&gt;Node_80 -->
<g id="edge1" class="edge">
<title>Node_60:left&#45;&gt;Node_80</title>
<path fill="none" stroke="black" d="M23.66,-179C-24.72,-179 12.47,-105.64 39.67,-60.85"/>
<polygon fill="black" stroke="black" points="43.01,-63.11 45.3,-52.76 37.06,-59.42 43.01,-63.11"/>
</g>
<!-- Node_100 -->
<g id="node3" class="node">
<title>Node_100</title>
<polygon fill="#f2f2f2" stroke="none" points="256.66,-52 138.66,-52 138.66,0 256.66,0 256.66,-52"/>
<polygon fill="none" stroke="black" points="138.66,-26 138.66,-52 256.66,-52 256.66,-26 138.66,-26"/>
<text text-anchor="start" x="152.29" y="-34.7" font-family="Courier New" font-weight="bold" font-size="14.00">IntegerNode</text>
<polygon fill="none" stroke="black" points="138.66,0 138.66,-26 189.66,-26 189.66,0 138.66,0"/>
<text text-anchor="start" x="143.54" y="-7.7" font-family="Courier New" font-size="14.00">flags</text>
<polygon fill="none" stroke="black" points="189.66,0 189.66,-26 256.66,-26 256.66,0 189.66,0"/>
<text text-anchor="start" x="194.29" y="-7.7" font-family="Courier New" font-size="14.00">decimal</text>
</g>
<!-- Node_60&#45;&gt;Node_100 -->
<g id="edge2" class="edge">
<title>Node_60:right&#45;&gt;Node_100</title>
<path fill="none" stroke="black" d="M235.66,-153C274.21,-153 245.45,-98.28 221.35,-60.96"/>
<polygon fill="black" stroke="black" points="223.8,-59.31 215.37,-52.89 217.95,-63.17 223.8,-59.31"/>
</g>
</g>
</svg>
