<?xml version="1.0" encoding="UTF-8" standalone="no"?>
<!DOCTYPE svg PUBLIC "-//W3C//DTD SVG 1.1//EN"
 "http://www.w3.org/Graphics/SVG/1.1/DTD/svg11.dtd">
<!-- Generated by graphviz version 8.1.0 (20230707.0739)
 -->
<!-- Title: Prism Pages: 1 -->
<svg width="406pt" height="646pt"
 viewBox="0.00 0.00 406.00 646.00" xmlns="http://www.w3.org/2000/svg" xmlns:xlink="http://www.w3.org/1999/xlink">
<g id="graph0" class="graph" transform="scale(1 1) rotate(0) translate(4 642)">
<title>Prism</title>
<polygon fill="white" stroke="none" points="-4,4 -4,-642 402,-642 402,4 -4,4"/>
<!-- Node_60 -->
<g id="node1" class="node">
<title>Node_60</title>
<polygon fill="#f2f2f2" stroke="none" points="315,-638 82,-638 82,-508 315,-508 315,-638"/>
<polygon fill="none" stroke="black" points="82,-612 82,-638 315,-638 315,-612 82,-612"/>
<text text-anchor="start" x="173.75" y="-620.7" font-family="Courier New" font-weight="bold" font-size="14.00">IfNode</text>
<polygon fill="none" stroke="black" points="82,-586 82,-612 215,-612 215,-586 82,-586"/>
<text text-anchor="start" x="87" y="-593.7" font-family="Courier New" font-size="14.00">if_keyword_loc</text>
<polygon fill="none" stroke="black" points="215,-586 215,-612 315,-612 315,-586 215,-586"/>
<text text-anchor="start" x="219.62" y="-593.7" font-family="Courier New" font-size="14.00">(1,0)&#45;(1,2)</text>
<polygon fill="none" stroke="black" points="82,-560 82,-586 315,-586 315,-560 82,-560"/>
<text text-anchor="start" x="87" y="-567.7" font-family="Courier New" font-size="14.00">predicate</text>
<polygon fill="none" stroke="black" points="82,-534 82,-560 315,-560 315,-534 82,-534"/>
<text text-anchor="start" x="87" y="-541.7" font-family="Courier New" font-size="14.00">statements</text>
<polygon fill="none" stroke="black" points="82,-508 82,-534 215,-534 215,-508 82,-508"/>
<text text-anchor="start" x="86.62" y="-515.7" font-family="Courier New" font-size="14.00">end_keyword_loc</text>
<polygon fill="none" stroke="black" points="215,-508 215,-534 315,-534 315,-508 215,-508"/>
<text text-anchor="start" x="219.62" y="-515.7" font-family="Courier New" font-size="14.00">(3,0)&#45;(3,3)</text>
</g>
<!-- Node_80 -->
<g id="node2" class="node">
<title>Node_80</title>
<polygon fill="#f2f2f2" stroke="none" points="208.5,-472 8.5,-472 8.5,-368 208.5,-368 208.5,-472"/>
<polygon fill="none" stroke="black" points="8.5,-446 8.5,-472 208.5,-472 208.5,-446 8.5,-446"/>
<text text-anchor="start" x="46.62" y="-454.7" font-family="Courier New" font-weight="bold" font-size="14.00">ParenthesesNode</text>
<polygon fill="none" stroke="black" points="8.5,-420 8.5,-446 208.5,-446 208.5,-420 8.5,-420"/>
<text text-anchor="start" x="13.5" y="-427.7" font-family="Courier New" font-size="14.00">body</text>
<polygon fill="none" stroke="black" points="8.5,-394 8.5,-420 108.5,-420 108.5,-394 8.5,-394"/>
<text text-anchor="start" x="13.12" y="-401.7" font-family="Courier New" font-size="14.00">opening_loc</text>
<polygon fill="none" stroke="black" points="108.5,-394 108.5,-420 208.5,-420 208.5,-394 108.5,-394"/>
<text text-anchor="start" x="113.12" y="-401.7" font-family="Courier New" font-size="14.00">(1,3)&#45;(1,4)</text>
<polygon fill="none" stroke="black" points="8.5,-368 8.5,-394 108.5,-394 108.5,-368 8.5,-368"/>
<text text-anchor="start" x="13.12" y="-375.7" font-family="Courier New" font-size="14.00">closing_loc</text>
<polygon fill="none" stroke="black" points="108.5,-368 108.5,-394 208.5,-394 208.5,-368 108.5,-368"/>
<text text-anchor="start" x="113.12" y="-375.7" font-family="Courier New" font-size="14.00">(1,7)&#45;(1,8)</text>
</g>
<!-- Node_60&#45;&gt;Node_80 -->
<g id="edge1" class="edge">
<title>Node_60:predicate&#45;&gt;Node_80</title>
<path fill="none" stroke="black" d="M80.5,-573C41.42,-573 55.87,-523.79 75.59,-481.38"/>
<polygon fill="black" stroke="black" points="79.11,-483.14 80.28,-472.61 72.8,-480.12 79.11,-483.14"/>
</g>
<!-- Node_100 -->
<g id="node5" class="node">
<title>Node_100</title>
<polygon fill="#f2f2f2" stroke="none" points="352,-446 227,-446 227,-394 352,-394 352,-446"/>
<polygon fill="none" stroke="black" points="227,-420 227,-446 352,-446 352,-420 227,-420"/>
<text text-anchor="start" x="231.75" y="-428.7" font-family="Courier New" font-weight="bold" font-size="14.00">StatementsNode</text>
<polygon fill="none" stroke="black" points="227,-394 227,-420 352,-420 352,-394 227,-394"/>
<text text-anchor="start" x="232" y="-401.7" font-family="Courier New" font-size="14.00">body</text>
</g>
<!-- Node_60&#45;&gt;Node_100 -->
<g id="edge2" class="edge">
<title>Node_60:statements&#45;&gt;Node_100</title>
<path fill="none" stroke="black" d="M316.5,-547C354.08,-547 330.71,-492.74 310.21,-455.44"/>
<polygon fill="black" stroke="black" points="312.78,-453.88 304.82,-446.89 306.69,-457.32 312.78,-453.88"/>
</g>
<!-- Node_120 -->
<g id="node3" class="node">
<title>Node_120</title>
<polygon fill="#f2f2f2" stroke="none" points="171,-332 46,-332 46,-280 171,-280 171,-332"/>
<polygon fill="none" stroke="black" points="46,-306 46,-332 171,-332 171,-306 46,-306"/>
<text text-anchor="start" x="50.75" y="-314.7" font-family="Courier New" font-weight="bold" font-size="14.00">StatementsNode</text>
<polygon fill="none" stroke="black" points="46,-280 46,-306 171,-306 171,-280 46,-280"/>
<text text-anchor="start" x="51" y="-287.7" font-family="Courier New" font-size="14.00">body</text>
</g>
<!-- Node_80&#45;&gt;Node_120 -->
<g id="edge3" class="edge">
<title>Node_80:body&#45;&gt;Node_120</title>
<path fill="none" stroke="black" d="M209.5,-433C223.95,-433 215.67,-380.54 208.5,-368 201.58,-355.9 191.21,-345.91 179.71,-337.76"/>
<polygon fill="black" stroke="black" points="182.03,-334.44 171.75,-331.89 178.19,-340.29 182.03,-334.44"/>
</g>
<!-- Node_120_body -->
<g id="node7" class="node">
<title>Node_120_body</title>
<ellipse fill="#f2f2f2" stroke="black" cx="108.5" cy="-192" rx="1.8" ry="1.8"/>
</g>
<!-- Node_120&#45;&gt;Node_120_body -->
<g id="edge4" class="edge">
<title>Node_120:body&#45;&gt;Node_120_body</title>
<path fill="none" stroke="black" d="M108.5,-280C108.5,-253.31 108.5,-222.01 108.5,-205.18"/>
<polygon fill="black" stroke="black" points="112,-205.23 108.5,-195.23 105,-205.23 112,-205.23"/>
</g>
<!-- Node_140 -->
<g id="node4" class="node">
<title>Node_140</title>
<polygon fill="#f2f2f2" stroke="none" points="217,-104 0,-104 0,0 217,0 217,-104"/>
<polygon fill="none" stroke="black" points="0,-78 0,-104 217,-104 217,-78 0,-78"/>
<text text-anchor="start" x="75.5" y="-86.7" font-family="Courier New" font-weight="bold" font-size="14.00">CallNode</text>
<polygon fill="none" stroke="black" points="0,-52 0,-78 100,-78 100,-52 0,-52"/>
<text text-anchor="start" x="5" y="-59.7" font-family="Courier New" font-size="14.00">flags</text>
<polygon fill="none" stroke="black" points="100,-52 100,-78 217,-78 217,-52 100,-52"/>
<text text-anchor="start" x="104.88" y="-59.7" font-family="Courier New" font-size="14.00">variable_call</text>
<polygon fill="none" stroke="black" points="0,-26 0,-52 100,-52 100,-26 0,-26"/>
<text text-anchor="start" x="5" y="-33.7" font-family="Courier New" font-size="14.00">name</text>
<polygon fill="none" stroke="black" points="100,-26 100,-52 217,-52 217,-26 100,-26"/>
<text text-anchor="start" x="142" y="-33.7" font-family="Courier New" font-size="14.00">:foo</text>
<polygon fill="none" stroke="black" points="0,0 0,-26 100,-26 100,0 0,0"/>
<text text-anchor="start" x="4.62" y="-7.7" font-family="Courier New" font-size="14.00">message_loc</text>
<polygon fill="none" stroke="black" points="100,0 100,-26 217,-26 217,0 100,0"/>
<text text-anchor="start" x="113.12" y="-7.7" font-family="Courier New" font-size="14.00">(1,4)&#45;(1,7)</text>
</g>
<!-- Node_100_body -->
<g id="node8" class="node">
<title>Node_100_body</title>
<ellipse fill="#f2f2f2" stroke="black" cx="289.5" cy="-306" rx="1.8" ry="1.8"/>
</g>
<!-- Node_100&#45;&gt;Node_100_body -->
<g id="edge6" class="edge">
<title>Node_100:body&#45;&gt;Node_100_body</title>
<path fill="none" stroke="black" d="M289.5,-393C289.5,-366.61 289.5,-335.68 289.5,-319.04"/>
<polygon fill="black" stroke="black" points="293,-319.21 289.5,-309.21 286,-319.21 293,-319.21"/>
</g>
<!-- Node_160 -->
<g id="node6" class="node">
<title>Node_160</title>
<polygon fill="#f2f2f2" stroke="none" points="398,-244 181,-244 181,-140 398,-140 398,-244"/>
<polygon fill="none" stroke="black" points="181,-218 181,-244 398,-244 398,-218 181,-218"/>
<text text-anchor="start" x="256.5" y="-226.7" font-family="Courier New" font-weight="bold" font-size="14.00">CallNode</text>
<polygon fill="none" stroke="black" points="181,-192 181,-218 281,-218 281,-192 181,-192"/>
<text text-anchor="start" x="186" y="-199.7" font-family="Courier New" font-size="14.00">flags</text>
<polygon fill="none" stroke="black" points="281,-192 281,-218 398,-218 398,-192 281,-192"/>
<text text-anchor="start" x="285.88" y="-199.7" font-family="Courier New" font-size="14.00">variable_call</text>
<polygon fill="none" stroke="black" points="181,-166 181,-192 281,-192 281,-166 181,-166"/>
<text text-anchor="start" x="186" y="-173.7" font-family="Courier New" font-size="14.00">name</text>
<polygon fill="none" stroke="black" points="281,-166 281,-192 398,-192 398,-166 281,-166"/>
<text text-anchor="start" x="323" y="-173.7" font-family="Courier New" font-size="14.00">:baz</text>
<polygon fill="none" stroke="black" points="181,-140 181,-166 281,-166 281,-140 181,-140"/>
<text text-anchor="start" x="185.62" y="-147.7" font-family="Courier New" font-size="14.00">message_loc</text>
<polygon fill="none" stroke="black" points="281,-140 281,-166 398,-166 398,-140 281,-140"/>
<text text-anchor="start" x="294.12" y="-147.7" font-family="Courier New" font-size="14.00">(2,2)&#45;(2,5)</text>
</g>
<!-- Node_120_body&#45;&gt;Node_140 -->
<g id="edge5" class="edge">
<title>Node_120_body&#45;&gt;Node_140</title>
<path fill="none" stroke="black" d="M108.5,-190.12C108.5,-184.09 108.5,-148.18 108.5,-114.62"/>
<polygon fill="black" stroke="black" points="112,-114.85 108.5,-104.85 105,-114.85 112,-114.85"/>
</g>
<!-- Node_100_body&#45;&gt;Node_160 -->
<g id="edge7" class="edge">
<title>Node_100_body&#45;&gt;Node_160</title>
<path fill="none" stroke="black" d="M289.5,-303.74C289.5,-298.43 289.5,-277.07 289.5,-254.51"/>
<polygon fill="black" stroke="black" points="293,-254.76 289.5,-244.76 286,-254.76 293,-254.76"/>
</g>
</g>
</svg>
