<?xml version="1.0" encoding="UTF-8" standalone="no"?>
<!DOCTYPE svg PUBLIC "-//W3C//DTD SVG 1.1//EN"
 "http://www.w3.org/Graphics/SVG/1.1/DTD/svg11.dtd">
<!-- Generated by graphviz version 8.1.0 (20230707.0739)
 -->
<!-- Title: Prism Pages: 1 -->
<svg width="543pt" height="982pt"
 viewBox="0.00 0.00 542.64 981.60" xmlns="http://www.w3.org/2000/svg" xmlns:xlink="http://www.w3.org/1999/xlink">
<g id="graph0" class="graph" transform="scale(1 1) rotate(0) translate(4 977.6)">
<title>Prism</title>
<polygon fill="white" stroke="none" points="-4,4 -4,-977.6 538.64,-977.6 538.64,4 -4,4"/>
<!-- Node_60 -->
<g id="node1" class="node">
<title>Node_60</title>
<polygon fill="#f2f2f2" stroke="none" points="346.14,-973.6 79.14,-973.6 79.14,-765.6 346.14,-765.6 346.14,-973.6"/>
<polygon fill="none" stroke="black" points="79.14,-947.6 79.14,-973.6 346.14,-973.6 346.14,-947.6 79.14,-947.6"/>
<text text-anchor="start" x="171.39" y="-956.3" font-family="Courier New" font-weight="bold" font-size="14.00">LambdaNode</text>
<polygon fill="none" stroke="black" points="79.14,-921.6 79.14,-947.6 229.14,-947.6 229.14,-921.6 79.14,-921.6"/>
<text text-anchor="start" x="84.14" y="-929.3" font-family="Courier New" font-size="14.00">locals</text>
<polygon fill="none" stroke="black" points="229.14,-921.6 229.14,-947.6 346.14,-947.6 346.14,-921.6 229.14,-921.6"/>
<text text-anchor="start" x="262.89" y="-929.3" font-family="Courier New" font-size="14.00">[:foo]</text>
<polygon fill="none" stroke="black" points="79.14,-895.6 79.14,-921.6 229.14,-921.6 229.14,-895.6 79.14,-895.6"/>
<text text-anchor="start" x="84.01" y="-903.3" font-family="Courier New" font-size="14.00">locals_body_index</text>
<polygon fill="none" stroke="black" points="229.14,-895.6 229.14,-921.6 346.14,-921.6 346.14,-895.6 229.14,-895.6"/>
<text text-anchor="start" x="283.51" y="-903.3" font-family="Courier New" font-size="14.00">1</text>
<polygon fill="none" stroke="black" points="79.14,-869.6 79.14,-895.6 229.14,-895.6 229.14,-869.6 79.14,-869.6"/>
<text text-anchor="start" x="84.14" y="-877.3" font-family="Courier New" font-size="14.00">operator_loc</text>
<polygon fill="none" stroke="black" points="229.14,-869.6 229.14,-895.6 346.14,-895.6 346.14,-869.6 229.14,-869.6"/>
<text text-anchor="start" x="242.26" y="-877.3" font-family="Courier New" font-size="14.00">(1,0)&#45;(1,2)</text>
<polygon fill="none" stroke="black" points="79.14,-843.6 79.14,-869.6 229.14,-869.6 229.14,-843.6 79.14,-843.6"/>
<text text-anchor="start" x="84.14" y="-851.3" font-family="Courier New" font-size="14.00">opening_loc</text>
<polygon fill="none" stroke="black" points="229.14,-843.6 229.14,-869.6 346.14,-869.6 346.14,-843.6 229.14,-843.6"/>
<text text-anchor="start" x="238.14" y="-851.3" font-family="Courier New" font-size="14.00">(1,9)&#45;(1,10)</text>
<polygon fill="none" stroke="black" points="79.14,-817.6 79.14,-843.6 229.14,-843.6 229.14,-817.6 79.14,-817.6"/>
<text text-anchor="start" x="84.14" y="-825.3" font-family="Courier New" font-size="14.00">closing_loc</text>
<polygon fill="none" stroke="black" points="229.14,-817.6 229.14,-843.6 346.14,-843.6 346.14,-817.6 229.14,-817.6"/>
<text text-anchor="start" x="234.01" y="-825.3" font-family="Courier New" font-size="14.00">(1,19)&#45;(1,20)</text>
<polygon fill="none" stroke="black" points="79.14,-791.6 79.14,-817.6 346.14,-817.6 346.14,-791.6 79.14,-791.6"/>
<text text-anchor="start" x="84.14" y="-799.3" font-family="Courier New" font-size="14.00">parameters</text>
<polygon fill="none" stroke="black" points="79.14,-765.6 79.14,-791.6 346.14,-791.6 346.14,-765.6 79.14,-765.6"/>
<text text-anchor="start" x="84.14" y="-773.3" font-family="Courier New" font-size="14.00">body</text>
</g>
<!-- Node_80 -->
<g id="node2" class="node">
<title>Node_80</title>
<polygon fill="#f2f2f2" stroke="none" points="222.64,-729.6 22.64,-729.6 22.64,-599.6 222.64,-599.6 222.64,-729.6"/>
<polygon fill="none" stroke="black" points="22.64,-703.6 22.64,-729.6 222.64,-729.6 222.64,-703.6 22.64,-703.6"/>
<text text-anchor="start" x="44.26" y="-712.3" font-family="Courier New" font-weight="bold" font-size="14.00">BlockParametersNode</text>
<polygon fill="none" stroke="black" points="22.64,-677.6 22.64,-703.6 222.64,-703.6 222.64,-677.6 22.64,-677.6"/>
<text text-anchor="start" x="27.64" y="-685.3" font-family="Courier New" font-size="14.00">parameters</text>
<polygon fill="none" stroke="black" points="22.64,-651.6 22.64,-677.6 122.64,-677.6 122.64,-651.6 22.64,-651.6"/>
<text text-anchor="start" x="27.64" y="-659.3" font-family="Courier New" font-size="14.00">locals</text>
<polygon fill="none" stroke="black" points="122.64,-651.6 122.64,-677.6 222.64,-677.6 222.64,-651.6 122.64,-651.6"/>
<text text-anchor="start" x="164.39" y="-659.3" font-family="Courier New" font-size="14.00">[]</text>
<polygon fill="none" stroke="black" points="22.64,-625.6 22.64,-651.6 122.64,-651.6 122.64,-625.6 22.64,-625.6"/>
<text text-anchor="start" x="27.26" y="-633.3" font-family="Courier New" font-size="14.00">opening_loc</text>
<polygon fill="none" stroke="black" points="122.64,-625.6 122.64,-651.6 222.64,-651.6 222.64,-625.6 122.64,-625.6"/>
<text text-anchor="start" x="127.26" y="-633.3" font-family="Courier New" font-size="14.00">(1,3)&#45;(1,4)</text>
<polygon fill="none" stroke="black" points="22.64,-599.6 22.64,-625.6 122.64,-625.6 122.64,-599.6 22.64,-599.6"/>
<text text-anchor="start" x="27.26" y="-607.3" font-family="Courier New" font-size="14.00">closing_loc</text>
<polygon fill="none" stroke="black" points="122.64,-599.6 122.64,-625.6 222.64,-625.6 222.64,-599.6 122.64,-599.6"/>
<text text-anchor="start" x="127.26" y="-607.3" font-family="Courier New" font-size="14.00">(1,7)&#45;(1,8)</text>
</g>
<!-- Node_60&#45;&gt;Node_80 -->
<g id="edge1" class="edge">
<title>Node_60:parameters&#45;&gt;Node_80</title>
<path fill="none" stroke="black" d="M77.64,-804.6C46.34,-804.6 55.67,-772.3 73.73,-738.85"/>
<polygon fill="black" stroke="black" points="77.19,-740.84 79.03,-730.4 71.08,-737.41 77.19,-740.84"/>
</g>
<!-- Node_100 -->
<g id="node5" class="node">
<title>Node_100</title>
<polygon fill="#f2f2f2" stroke="none" points="368.14,-690.6 243.14,-690.6 243.14,-638.6 368.14,-638.6 368.14,-690.6"/>
<polygon fill="none" stroke="black" points="243.14,-664.6 243.14,-690.6 368.14,-690.6 368.14,-664.6 243.14,-664.6"/>
<text text-anchor="start" x="247.89" y="-673.3" font-family="Courier New" font-weight="bold" font-size="14.00">StatementsNode</text>
<polygon fill="none" stroke="black" points="243.14,-638.6 243.14,-664.6 368.14,-664.6 368.14,-638.6 243.14,-638.6"/>
<text text-anchor="start" x="248.14" y="-646.3" font-family="Courier New" font-size="14.00">body</text>
</g>
<!-- Node_60&#45;&gt;Node_100 -->
<g id="edge2" class="edge">
<title>Node_60:body&#45;&gt;Node_100</title>
<path fill="none" stroke="black" d="M347.64,-778.6C381.93,-778.6 355.12,-732.31 331.37,-698.98"/>
<polygon fill="black" stroke="black" points="333.84,-697.42 325.13,-691.4 328.18,-701.54 333.84,-697.42"/>
</g>
<!-- Node_120 -->
<g id="node3" class="node">
<title>Node_120</title>
<polygon fill="#f2f2f2" stroke="none" points="180.14,-563.6 55.14,-563.6 55.14,-433.6 180.14,-433.6 180.14,-563.6"/>
<polygon fill="none" stroke="black" points="55.14,-537.6 55.14,-563.6 180.14,-563.6 180.14,-537.6 55.14,-537.6"/>
<text text-anchor="start" x="59.89" y="-546.3" font-family="Courier New" font-weight="bold" font-size="14.00">ParametersNode</text>
<polygon fill="none" stroke="black" points="55.14,-511.6 55.14,-537.6 180.14,-537.6 180.14,-511.6 55.14,-511.6"/>
<text text-anchor="start" x="60.14" y="-519.3" font-family="Courier New" font-size="14.00">requireds</text>
<polygon fill="none" stroke="black" points="55.14,-485.6 55.14,-511.6 146.14,-511.6 146.14,-485.6 55.14,-485.6"/>
<text text-anchor="start" x="60.14" y="-493.3" font-family="Courier New" font-size="14.00">optionals</text>
<polygon fill="none" stroke="black" points="146.14,-485.6 146.14,-511.6 180.14,-511.6 180.14,-485.6 146.14,-485.6"/>
<text text-anchor="start" x="154.89" y="-493.3" font-family="Courier New" font-size="14.00">[]</text>
<polygon fill="none" stroke="black" points="55.14,-459.6 55.14,-485.6 146.14,-485.6 146.14,-459.6 55.14,-459.6"/>
<text text-anchor="start" x="60.14" y="-467.3" font-family="Courier New" font-size="14.00">posts</text>
<polygon fill="none" stroke="black" points="146.14,-459.6 146.14,-485.6 180.14,-485.6 180.14,-459.6 146.14,-459.6"/>
<text text-anchor="start" x="154.89" y="-467.3" font-family="Courier New" font-size="14.00">[]</text>
<polygon fill="none" stroke="black" points="55.14,-433.6 55.14,-459.6 146.14,-459.6 146.14,-433.6 55.14,-433.6"/>
<text text-anchor="start" x="60.14" y="-441.3" font-family="Courier New" font-size="14.00">keywords</text>
<polygon fill="none" stroke="black" points="146.14,-433.6 146.14,-459.6 180.14,-459.6 180.14,-433.6 146.14,-433.6"/>
<text text-anchor="start" x="154.89" y="-441.3" font-family="Courier New" font-size="14.00">[]</text>
</g>
<!-- Node_80&#45;&gt;Node_120 -->
<g id="edge3" class="edge">
<title>Node_80:parameters&#45;&gt;Node_120</title>
<path fill="none" stroke="black" d="M21.64,-690.6C-18.81,-690.6 7.43,-637.08 22.64,-599.6 28.62,-584.86 37.89,-571.03 48.35,-558.64"/>
<polygon fill="black" stroke="black" points="50.37,-561.51 54.37,-551.7 45.12,-556.87 50.37,-561.51"/>
</g>
<!-- Node_120_requireds -->
<g id="node10" class="node">
<title>Node_120_requireds</title>
<ellipse fill="#f2f2f2" stroke="black" cx="107.64" cy="-319.6" rx="1.8" ry="1.8"/>
</g>
<!-- Node_120&#45;&gt;Node_120_requireds -->
<g id="edge4" class="edge">
<title>Node_120:requireds&#45;&gt;Node_120_requireds</title>
<path fill="none" stroke="black" d="M53.64,-524.6C-27.69,-524.6 72.62,-371.22 100.72,-330.45"/>
<polygon fill="black" stroke="black" points="104.11,-332.71 106.98,-322.51 98.38,-328.69 104.11,-332.71"/>
</g>
<!-- Node_140 -->
<g id="node4" class="node">
<title>Node_140</title>
<polygon fill="#f2f2f2" stroke="none" points="198.14,-192.6 15.14,-192.6 15.14,-140.6 198.14,-140.6 198.14,-192.6"/>
<polygon fill="none" stroke="black" points="15.14,-166.6 15.14,-192.6 198.14,-192.6 198.14,-166.6 15.14,-166.6"/>
<text text-anchor="start" x="20.01" y="-175.3" font-family="Courier New" font-weight="bold" font-size="14.00">RequiredParameterNode</text>
<polygon fill="none" stroke="black" points="15.14,-140.6 15.14,-166.6 106.14,-166.6 106.14,-140.6 15.14,-140.6"/>
<text text-anchor="start" x="20.14" y="-148.3" font-family="Courier New" font-size="14.00">name</text>
<polygon fill="none" stroke="black" points="106.14,-140.6 106.14,-166.6 198.14,-166.6 198.14,-140.6 106.14,-140.6"/>
<text text-anchor="start" x="135.64" y="-148.3" font-family="Courier New" font-size="14.00">:foo</text>
</g>
<!-- Node_100_body -->
<g id="node11" class="node">
<title>Node_100_body</title>
<ellipse fill="#f2f2f2" stroke="black" cx="306.64" cy="-498.6" rx="1.8" ry="1.8"/>
</g>
<!-- Node_100&#45;&gt;Node_100_body -->
<g id="edge6" class="edge">
<title>Node_100:body&#45;&gt;Node_100_body</title>
<path fill="none" stroke="black" d="M305.64,-637.6C305.64,-591.05 306.21,-535.66 306.49,-511.67"/>
<polygon fill="black" stroke="black" points="310,-511.75 306.62,-501.71 303,-511.66 310,-511.75"/>
</g>
<!-- Node_160 -->
<g id="node6" class="node">
<title>Node_160</title>
<polygon fill="#f2f2f2" stroke="none" points="416.14,-397.6 199.14,-397.6 199.14,-241.6 416.14,-241.6 416.14,-397.6"/>
<polygon fill="none" stroke="black" points="199.14,-371.6 199.14,-397.6 416.14,-397.6 416.14,-371.6 199.14,-371.6"/>
<text text-anchor="start" x="274.64" y="-380.3" font-family="Courier New" font-weight="bold" font-size="14.00">CallNode</text>
<polygon fill="none" stroke="black" points="199.14,-345.6 199.14,-371.6 299.14,-371.6 299.14,-345.6 199.14,-345.6"/>
<text text-anchor="start" x="204.14" y="-353.3" font-family="Courier New" font-size="14.00">flags</text>
<polygon fill="none" stroke="black" points="299.14,-345.6 299.14,-371.6 416.14,-371.6 416.14,-345.6 299.14,-345.6"/>
<polygon fill="none" stroke="black" points="199.14,-319.6 199.14,-345.6 416.14,-345.6 416.14,-319.6 199.14,-319.6"/>
<text text-anchor="start" x="204.14" y="-327.3" font-family="Courier New" font-size="14.00">receiver</text>
<polygon fill="none" stroke="black" points="199.14,-293.6 199.14,-319.6 299.14,-319.6 299.14,-293.6 199.14,-293.6"/>
<text text-anchor="start" x="204.14" y="-301.3" font-family="Courier New" font-size="14.00">name</text>
<polygon fill="none" stroke="black" points="299.14,-293.6 299.14,-319.6 416.14,-319.6 416.14,-293.6 299.14,-293.6"/>
<text text-anchor="start" x="349.39" y="-301.3" font-family="Courier New" font-size="14.00">:*</text>
<polygon fill="none" stroke="black" points="199.14,-267.6 199.14,-293.6 299.14,-293.6 299.14,-267.6 199.14,-267.6"/>
<text text-anchor="start" x="203.76" y="-275.3" font-family="Courier New" font-size="14.00">message_loc</text>
<polygon fill="none" stroke="black" points="299.14,-267.6 299.14,-293.6 416.14,-293.6 416.14,-267.6 299.14,-267.6"/>
<text text-anchor="start" x="304.01" y="-275.3" font-family="Courier New" font-size="14.00">(1,15)&#45;(1,16)</text>
<polygon fill="none" stroke="black" points="199.14,-241.6 199.14,-267.6 416.14,-267.6 416.14,-241.6 199.14,-241.6"/>
<text text-anchor="start" x="204.14" y="-249.3" font-family="Courier New" font-size="14.00">arguments</text>
</g>
<!-- Node_180 -->
<g id="node7" class="node">
<title>Node_180</title>
<polygon fill="#f2f2f2" stroke="none" points="399.14,-205.6 216.14,-205.6 216.14,-127.6 399.14,-127.6 399.14,-205.6"/>
<polygon fill="none" stroke="black" points="216.14,-179.6 216.14,-205.6 399.14,-205.6 399.14,-179.6 216.14,-179.6"/>
<text text-anchor="start" x="221.01" y="-188.3" font-family="Courier New" font-weight="bold" font-size="14.00">LocalVariableReadNode</text>
<polygon fill="none" stroke="black" points="216.14,-153.6 216.14,-179.6 311.14,-179.6 311.14,-153.6 216.14,-153.6"/>
<text text-anchor="start" x="221.14" y="-161.3" font-family="Courier New" font-size="14.00">name</text>
<polygon fill="none" stroke="black" points="311.14,-153.6 311.14,-179.6 399.14,-179.6 399.14,-153.6 311.14,-153.6"/>
<text text-anchor="start" x="338.64" y="-161.3" font-family="Courier New" font-size="14.00">:foo</text>
<polygon fill="none" stroke="black" points="216.14,-127.6 216.14,-153.6 311.14,-153.6 311.14,-127.6 216.14,-127.6"/>
<text text-anchor="start" x="221.14" y="-135.3" font-family="Courier New" font-size="14.00">depth</text>
<polygon fill="none" stroke="black" points="311.14,-127.6 311.14,-153.6 399.14,-153.6 399.14,-127.6 311.14,-127.6"/>
<text text-anchor="start" x="351.01" y="-135.3" font-family="Courier New" font-size="14.00">0</text>
</g>
<!-- Node_160&#45;&gt;Node_180 -->
<g id="edge8" class="edge">
<title>Node_160:receiver&#45;&gt;Node_180</title>
<path fill="none" stroke="black" d="M417.64,-332.6C458.08,-332.6 435.77,-277.24 416.64,-241.6 410.68,-230.5 402.24,-220.75 392.66,-212.29"/>
<polygon fill="black" stroke="black" points="395.32,-209.12 385.38,-205.48 390.88,-214.53 395.32,-209.12"/>
</g>
<!-- Node_200 -->
<g id="node8" class="node">
<title>Node_200</title>
<polygon fill="#f2f2f2" stroke="none" points="534.14,-205.6 417.14,-205.6 417.14,-127.6 534.14,-127.6 534.14,-205.6"/>
<polygon fill="none" stroke="black" points="417.14,-179.6 417.14,-205.6 534.14,-205.6 534.14,-179.6 417.14,-179.6"/>
<text text-anchor="start" x="422.01" y="-188.3" font-family="Courier New" font-weight="bold" font-size="14.00">ArgumentsNode</text>
<polygon fill="none" stroke="black" points="417.14,-153.6 417.14,-179.6 496.14,-179.6 496.14,-153.6 417.14,-153.6"/>
<text text-anchor="start" x="422.14" y="-161.3" font-family="Courier New" font-size="14.00">flags</text>
<polygon fill="none" stroke="black" points="496.14,-153.6 496.14,-179.6 534.14,-179.6 534.14,-153.6 496.14,-153.6"/>
<polygon fill="none" stroke="black" points="417.14,-127.6 417.14,-153.6 534.14,-153.6 534.14,-127.6 417.14,-127.6"/>
<text text-anchor="start" x="422.14" y="-135.3" font-family="Courier New" font-size="14.00">arguments</text>
</g>
<!-- Node_160&#45;&gt;Node_200 -->
<g id="edge9" class="edge">
<title>Node_160:arguments&#45;&gt;Node_200</title>
<path fill="none" stroke="black" d="M417.64,-254.6C439.22,-254.6 453.27,-235.83 462.12,-215.73"/>
<polygon fill="black" stroke="black" points="465.74,-217.09 466.18,-206.51 459.24,-214.51 465.74,-217.09"/>
</g>
<!-- Node_200_arguments -->
<g id="node12" class="node">
<title>Node_200_arguments</title>
<ellipse fill="#f2f2f2" stroke="black" cx="475.64" cy="-89.8" rx="1.8" ry="1.8"/>
</g>
<!-- Node_200&#45;&gt;Node_200_arguments -->
<g id="edge10" class="edge">
<title>Node_200:arguments&#45;&gt;Node_200_arguments</title>
<path fill="none" stroke="black" d="M475.64,-127.6C475.64,-119.36 475.64,-110.09 475.64,-102.91"/>
<polygon fill="black" stroke="black" points="479.14,-102.94 475.64,-92.94 472.14,-102.94 479.14,-102.94"/>
</g>
<!-- Node_220 -->
<g id="node9" class="node">
<title>Node_220</title>
<polygon fill="#f2f2f2" stroke="none" points="534.64,-52 416.64,-52 416.64,0 534.64,0 534.64,-52"/>
<polygon fill="none" stroke="black" points="416.64,-26 416.64,-52 534.64,-52 534.64,-26 416.64,-26"/>
<text text-anchor="start" x="430.26" y="-34.7" font-family="Courier New" font-weight="bold" font-size="14.00">IntegerNode</text>
<polygon fill="none" stroke="black" points="416.64,0 416.64,-26 467.64,-26 467.64,0 416.64,0"/>
<text text-anchor="start" x="421.51" y="-7.7" font-family="Courier New" font-size="14.00">flags</text>
<polygon fill="none" stroke="black" points="467.64,0 467.64,-26 534.64,-26 534.64,0 467.64,0"/>
<text text-anchor="start" x="472.26" y="-7.7" font-family="Courier New" font-size="14.00">decimal</text>
</g>
<!-- Node_120_requireds&#45;&gt;Node_140 -->
<g id="edge5" class="edge">
<title>Node_120_requireds&#45;&gt;Node_140</title>
<path fill="none" stroke="black" d="M107.63,-317.64C107.57,-309.03 107.15,-244.77 106.87,-203.18"/>
<polygon fill="black" stroke="black" points="110.37,-203.35 106.8,-193.38 103.37,-203.4 110.37,-203.35"/>
</g>
<!-- Node_100_body&#45;&gt;Node_160 -->
<g id="edge7" class="edge">
<title>Node_100_body&#45;&gt;Node_160</title>
<path fill="none" stroke="black" d="M306.64,-496.47C306.68,-489.25 306.91,-448.64 307.14,-408.27"/>
<polygon fill="black" stroke="black" points="310.65,-408.49 307.2,-398.47 303.65,-408.45 310.65,-408.49"/>
</g>
<!-- Node_200_arguments&#45;&gt;Node_220 -->
<g id="edge11" class="edge">
<title>Node_200_arguments&#45;&gt;Node_220</title>
<path fill="none" stroke="black" d="M475.64,-87.73C475.64,-84.45 475.64,-74.09 475.64,-62.84"/>
<polygon fill="black" stroke="black" points="479.14,-62.97 475.64,-52.97 472.14,-62.98 479.14,-62.97"/>
</g>
</g>
</svg>
