<?xml version="1.0" encoding="UTF-8" standalone="no"?>
<!DOCTYPE svg PUBLIC "-//W3C//DTD SVG 1.1//EN"
 "http://www.w3.org/Graphics/SVG/1.1/DTD/svg11.dtd">
<!-- Generated by graphviz version 8.1.0 (20230707.0739)
 -->
<!-- Title: Prism Pages: 1 -->
<svg width="459pt" height="480pt"
 viewBox="0.00 0.00 458.50 480.00" xmlns="http://www.w3.org/2000/svg" xmlns:xlink="http://www.w3.org/1999/xlink">
<g id="graph0" class="graph" transform="scale(1 1) rotate(0) translate(4 476)">
<title>Prism</title>
<polygon fill="white" stroke="none" points="-4,4 -4,-476 454.5,-476 454.5,4 -4,4"/>
<!-- Node_60 -->
<g id="node1" class="node">
<title>Node_60</title>
<polygon fill="#f2f2f2" stroke="none" points="333.5,-472 107.5,-472 107.5,-316 333.5,-316 333.5,-472"/>
<polygon fill="none" stroke="black" points="107.5,-446 107.5,-472 333.5,-472 333.5,-446 107.5,-446"/>
<text text-anchor="start" x="162.75" y="-454.7" font-family="Courier New" font-weight="bold" font-size="14.00">MultiWriteNode</text>
<polygon fill="none" stroke="black" points="107.5,-420 107.5,-446 333.5,-446 333.5,-420 107.5,-420"/>
<text text-anchor="start" x="112.5" y="-427.7" font-family="Courier New" font-size="14.00">lefts</text>
<polygon fill="none" stroke="black" points="107.5,-394 107.5,-420 333.5,-420 333.5,-394 107.5,-394"/>
<text text-anchor="start" x="112.5" y="-401.7" font-family="Courier New" font-size="14.00">rest</text>
<polygon fill="none" stroke="black" points="107.5,-368 107.5,-394 216.5,-394 216.5,-368 107.5,-368"/>
<text text-anchor="start" x="112.5" y="-375.7" font-family="Courier New" font-size="14.00">rights</text>
<polygon fill="none" stroke="black" points="216.5,-368 216.5,-394 333.5,-394 333.5,-368 216.5,-368"/>
<text text-anchor="start" x="266.75" y="-375.7" font-family="Courier New" font-size="14.00">[]</text>
<polygon fill="none" stroke="black" points="107.5,-342 107.5,-368 216.5,-368 216.5,-342 107.5,-342"/>
<text text-anchor="start" x="112.5" y="-349.7" font-family="Courier New" font-size="14.00">operator_loc</text>
<polygon fill="none" stroke="black" points="216.5,-342 216.5,-368 333.5,-368 333.5,-342 216.5,-342"/>
<text text-anchor="start" x="221.38" y="-349.7" font-family="Courier New" font-size="14.00">(1,10)&#45;(1,11)</text>
<polygon fill="none" stroke="black" points="107.5,-316 107.5,-342 333.5,-342 333.5,-316 107.5,-316"/>
<text text-anchor="start" x="112.5" y="-323.7" font-family="Courier New" font-size="14.00">value</text>
</g>
<!-- Node_100 -->
<g id="node5" class="node">
<title>Node_100</title>
<polygon fill="#f2f2f2" stroke="none" points="143,-267.25 0,-267.25 0,-240.75 143,-240.75 143,-267.25"/>
<polygon fill="none" stroke="black" points="0,-240.75 0,-267.25 143,-267.25 143,-240.75 0,-240.75"/>
<text text-anchor="start" x="5.5" y="-249.95" font-family="Courier New" font-weight="bold" font-size="14.00">ImplicitRestNode</text>
</g>
<!-- Node_60&#45;&gt;Node_100 -->
<g id="edge3" class="edge">
<title>Node_60:rest&#45;&gt;Node_100</title>
<path fill="none" stroke="black" d="M106.5,-407C54.15,-407 60.91,-320.32 67.35,-277.87"/>
<polygon fill="black" stroke="black" points="70.94,-278.62 69.11,-268.18 64.03,-277.48 70.94,-278.62"/>
</g>
<!-- Node_120 -->
<g id="node6" class="node">
<title>Node_120</title>
<polygon fill="#f2f2f2" stroke="none" points="279.5,-280 161.5,-280 161.5,-228 279.5,-228 279.5,-280"/>
<polygon fill="none" stroke="black" points="161.5,-254 161.5,-280 279.5,-280 279.5,-254 161.5,-254"/>
<text text-anchor="start" x="175.12" y="-262.7" font-family="Courier New" font-weight="bold" font-size="14.00">IntegerNode</text>
<polygon fill="none" stroke="black" points="161.5,-228 161.5,-254 212.5,-254 212.5,-228 161.5,-228"/>
<text text-anchor="start" x="166.38" y="-235.7" font-family="Courier New" font-size="14.00">flags</text>
<polygon fill="none" stroke="black" points="212.5,-228 212.5,-254 279.5,-254 279.5,-228 212.5,-228"/>
<text text-anchor="start" x="217.12" y="-235.7" font-family="Courier New" font-size="14.00">decimal</text>
</g>
<!-- Node_60&#45;&gt;Node_120 -->
<g id="edge4" class="edge">
<title>Node_60:value&#45;&gt;Node_120</title>
<path fill="none" stroke="black" d="M220.5,-316C220.5,-307.85 220.5,-299.08 220.5,-290.8"/>
<polygon fill="black" stroke="black" points="224,-290.93 220.5,-280.93 217,-290.93 224,-290.93"/>
</g>
<!-- Node_60_lefts -->
<g id="node7" class="node">
<title>Node_60_lefts</title>
<ellipse fill="#f2f2f2" stroke="black" cx="299.5" cy="-254" rx="1.8" ry="1.8"/>
</g>
<!-- Node_60&#45;&gt;Node_60_lefts -->
<g id="edge1" class="edge">
<title>Node_60:lefts&#45;&gt;Node_60_lefts</title>
<path fill="none" stroke="black" d="M334.5,-433C403.24,-433 329.32,-303.61 306.04,-265.46"/>
<polygon fill="black" stroke="black" points="308.49,-263.77 300.23,-257.14 302.55,-267.48 308.49,-263.77"/>
</g>
<!-- Node_80 -->
<g id="node2" class="node">
<title>Node_80</title>
<polygon fill="#f2f2f2" stroke="none" points="408,-192 191,-192 191,-88 408,-88 408,-192"/>
<polygon fill="none" stroke="black" points="191,-166 191,-192 408,-192 408,-166 191,-166"/>
<text text-anchor="start" x="208.75" y="-174.7" font-family="Courier New" font-weight="bold" font-size="14.00">ConstantPathTargetNode</text>
<polygon fill="none" stroke="black" points="191,-140 191,-166 408,-166 408,-140 191,-140"/>
<text text-anchor="start" x="196" y="-147.7" font-family="Courier New" font-size="14.00">parent</text>
<polygon fill="none" stroke="black" points="191,-114 191,-140 408,-140 408,-114 191,-114"/>
<text text-anchor="start" x="196" y="-121.7" font-family="Courier New" font-size="14.00">child</text>
<polygon fill="none" stroke="black" points="191,-88 191,-114 308,-114 308,-88 191,-88"/>
<text text-anchor="start" x="195.88" y="-95.7" font-family="Courier New" font-size="14.00">delimiter_loc</text>
<polygon fill="none" stroke="black" points="308,-88 308,-114 408,-114 408,-88 308,-88"/>
<text text-anchor="start" x="312.62" y="-95.7" font-family="Courier New" font-size="14.00">(1,3)&#45;(1,5)</text>
</g>
<!-- Node_140 -->
<g id="node3" class="node">
<title>Node_140</title>
<polygon fill="#f2f2f2" stroke="none" points="290.5,-52 148.5,-52 148.5,0 290.5,0 290.5,-52"/>
<polygon fill="none" stroke="black" points="148.5,-26 148.5,-52 290.5,-52 290.5,-26 148.5,-26"/>
<text text-anchor="start" x="153.5" y="-34.7" font-family="Courier New" font-weight="bold" font-size="14.00">ConstantReadNode</text>
<polygon fill="none" stroke="black" points="148.5,0 148.5,-26 219.5,-26 219.5,0 148.5,0"/>
<text text-anchor="start" x="153.5" y="-7.7" font-family="Courier New" font-size="14.00">name</text>
<polygon fill="none" stroke="black" points="219.5,0 219.5,-26 290.5,-26 290.5,0 219.5,0"/>
<text text-anchor="start" x="238.5" y="-7.7" font-family="Courier New" font-size="14.00">:Foo</text>
</g>
<!-- Node_80&#45;&gt;Node_140 -->
<g id="edge5" class="edge">
<title>Node_80:parent&#45;&gt;Node_140</title>
<path fill="none" stroke="black" d="M189.5,-153C151.56,-153 176.66,-98.28 198.18,-60.96"/>
<polygon fill="black" stroke="black" points="201.46,-63.28 203.53,-52.89 195.44,-59.73 201.46,-63.28"/>
</g>
<!-- Node_160 -->
<g id="node4" class="node">
<title>Node_160</title>
<polygon fill="#f2f2f2" stroke="none" points="450.5,-52 308.5,-52 308.5,0 450.5,0 450.5,-52"/>
<polygon fill="none" stroke="black" points="308.5,-26 308.5,-52 450.5,-52 450.5,-26 308.5,-26"/>
<text text-anchor="start" x="313.5" y="-34.7" font-family="Courier New" font-weight="bold" font-size="14.00">ConstantReadNode</text>
<polygon fill="none" stroke="black" points="308.5,0 308.5,-26 379.5,-26 379.5,0 308.5,0"/>
<text text-anchor="start" x="313.5" y="-7.7" font-family="Courier New" font-size="14.00">name</text>
<polygon fill="none" stroke="black" points="379.5,0 379.5,-26 450.5,-26 450.5,0 379.5,0"/>
<text text-anchor="start" x="398.5" y="-7.7" font-family="Courier New" font-size="14.00">:Bar</text>
</g>
<!-- Node_80&#45;&gt;Node_160 -->
<g id="edge6" class="edge">
<title>Node_80:child&#45;&gt;Node_160</title>
<path fill="none" stroke="black" d="M409.5,-127C437.71,-127 420.53,-90.03 402.72,-61.05"/>
<polygon fill="black" stroke="black" points="405.28,-59.55 396.97,-52.98 399.37,-63.3 405.28,-59.55"/>
</g>
<!-- Node_60_lefts&#45;&gt;Node_80 -->
<g id="edge2" class="edge">
<title>Node_60_lefts&#45;&gt;Node_80</title>
<path fill="none" stroke="black" d="M299.5,-251.74C299.5,-246.43 299.5,-225.07 299.5,-202.51"/>
<polygon fill="black" stroke="black" points="303,-202.76 299.5,-192.76 296,-202.76 303,-202.76"/>
</g>
</g>
</svg>
