<?xml version="1.0" encoding="UTF-8" standalone="no"?>
<!DOCTYPE svg PUBLIC "-//W3C//DTD SVG 1.1//EN"
 "http://www.w3.org/Graphics/SVG/1.1/DTD/svg11.dtd">
<!-- Generated by graphviz version 8.1.0 (20230707.0739)
 -->
<!-- Title: Prism Pages: 1 -->
<svg width="775pt" height="812pt"
 viewBox="0.00 0.00 775.18 812.00" xmlns="http://www.w3.org/2000/svg" xmlns:xlink="http://www.w3.org/1999/xlink">
<g id="graph0" class="graph" transform="scale(1 1) rotate(0) translate(4 808)">
<title>Prism</title>
<polygon fill="white" stroke="none" points="-4,4 -4,-808 771.18,-808 771.18,4 -4,4"/>
<!-- Node_60 -->
<g id="node1" class="node">
<title>Node_60</title>
<polygon fill="#f2f2f2" stroke="none" points="328.5,-804 69.5,-804 69.5,-622 328.5,-622 328.5,-804"/>
<polygon fill="none" stroke="black" points="69.5,-778 69.5,-804 328.5,-804 328.5,-778 69.5,-778"/>
<text text-anchor="start" x="174.25" y="-786.7" font-family="Courier New" font-weight="bold" font-size="14.00">IfNode</text>
<polygon fill="none" stroke="black" points="69.5,-752 69.5,-778 211.5,-778 211.5,-752 69.5,-752"/>
<text text-anchor="start" x="74.5" y="-759.7" font-family="Courier New" font-size="14.00">if_keyword_loc</text>
<polygon fill="none" stroke="black" points="211.5,-752 211.5,-778 328.5,-778 328.5,-752 211.5,-752"/>
<text text-anchor="start" x="224.62" y="-759.7" font-family="Courier New" font-size="14.00">(1,0)&#45;(1,2)</text>
<polygon fill="none" stroke="black" points="69.5,-726 69.5,-752 328.5,-752 328.5,-726 69.5,-726"/>
<text text-anchor="start" x="74.5" y="-733.7" font-family="Courier New" font-size="14.00">predicate</text>
<polygon fill="none" stroke="black" points="69.5,-700 69.5,-726 211.5,-726 211.5,-700 69.5,-700"/>
<text text-anchor="start" x="74.5" y="-707.7" font-family="Courier New" font-size="14.00">then_keyword_loc</text>
<polygon fill="none" stroke="black" points="211.5,-700 211.5,-726 328.5,-726 328.5,-700 211.5,-700"/>
<text text-anchor="start" x="224.62" y="-707.7" font-family="Courier New" font-size="14.00">(1,5)&#45;(1,9)</text>
<polygon fill="none" stroke="black" points="69.5,-674 69.5,-700 328.5,-700 328.5,-674 69.5,-674"/>
<text text-anchor="start" x="74.5" y="-681.7" font-family="Courier New" font-size="14.00">statements</text>
<polygon fill="none" stroke="black" points="69.5,-648 69.5,-674 328.5,-674 328.5,-648 69.5,-648"/>
<text text-anchor="start" x="74.5" y="-655.7" font-family="Courier New" font-size="14.00">consequent</text>
<polygon fill="none" stroke="black" points="69.5,-622 69.5,-648 211.5,-648 211.5,-622 69.5,-622"/>
<text text-anchor="start" x="74.5" y="-629.7" font-family="Courier New" font-size="14.00">end_keyword_loc</text>
<polygon fill="none" stroke="black" points="211.5,-622 211.5,-648 328.5,-648 328.5,-622 211.5,-622"/>
<text text-anchor="start" x="216.38" y="-629.7" font-family="Courier New" font-size="14.00">(1,34)&#45;(1,37)</text>
</g>
<!-- Node_80 -->
<g id="node2" class="node">
<title>Node_80</title>
<polygon fill="#f2f2f2" stroke="none" points="118,-521 0,-521 0,-469 118,-469 118,-521"/>
<polygon fill="none" stroke="black" points="0,-495 0,-521 118,-521 118,-495 0,-495"/>
<text text-anchor="start" x="13.62" y="-503.7" font-family="Courier New" font-weight="bold" font-size="14.00">IntegerNode</text>
<polygon fill="none" stroke="black" points="0,-469 0,-495 51,-495 51,-469 0,-469"/>
<text text-anchor="start" x="4.88" y="-476.7" font-family="Courier New" font-size="14.00">flags</text>
<polygon fill="none" stroke="black" points="51,-469 51,-495 118,-495 118,-469 51,-469"/>
<text text-anchor="start" x="55.62" y="-476.7" font-family="Courier New" font-size="14.00">decimal</text>
</g>
<!-- Node_60&#45;&gt;Node_80 -->
<g id="edge1" class="edge">
<title>Node_60:predicate&#45;&gt;Node_80</title>
<path fill="none" stroke="black" d="M68,-739C-14.35,-739 23.57,-597.91 46.29,-530.75"/>
<polygon fill="black" stroke="black" points="49.83,-532.23 49.78,-521.64 43.21,-529.95 49.83,-532.23"/>
</g>
<!-- Node_100 -->
<g id="node3" class="node">
<title>Node_100</title>
<polygon fill="#f2f2f2" stroke="none" points="261.5,-521 136.5,-521 136.5,-469 261.5,-469 261.5,-521"/>
<polygon fill="none" stroke="black" points="136.5,-495 136.5,-521 261.5,-521 261.5,-495 136.5,-495"/>
<text text-anchor="start" x="141.25" y="-503.7" font-family="Courier New" font-weight="bold" font-size="14.00">StatementsNode</text>
<polygon fill="none" stroke="black" points="136.5,-469 136.5,-495 261.5,-495 261.5,-469 136.5,-469"/>
<text text-anchor="start" x="141.5" y="-476.7" font-family="Courier New" font-size="14.00">body</text>
</g>
<!-- Node_60&#45;&gt;Node_100 -->
<g id="edge2" class="edge">
<title>Node_60:statements&#45;&gt;Node_100</title>
<path fill="none" stroke="black" d="M330,-687C358.89,-687 342.94,-647.31 329,-622 314.91,-596.41 295.81,-605.44 274,-586 254.95,-569.02 236.55,-547.07 222.75,-529.09"/>
<polygon fill="black" stroke="black" points="225.18,-527.5 216.36,-521.63 219.59,-531.72 225.18,-527.5"/>
</g>
<!-- Node_120 -->
<g id="node5" class="node">
<title>Node_120</title>
<polygon fill="#f2f2f2" stroke="none" points="542.5,-586 283.5,-586 283.5,-404 542.5,-404 542.5,-586"/>
<polygon fill="none" stroke="black" points="283.5,-560 283.5,-586 542.5,-586 542.5,-560 283.5,-560"/>
<text text-anchor="start" x="388.25" y="-568.7" font-family="Courier New" font-weight="bold" font-size="14.00">IfNode</text>
<polygon fill="none" stroke="black" points="283.5,-534 283.5,-560 425.5,-560 425.5,-534 283.5,-534"/>
<text text-anchor="start" x="288.5" y="-541.7" font-family="Courier New" font-size="14.00">if_keyword_loc</text>
<polygon fill="none" stroke="black" points="425.5,-534 425.5,-560 542.5,-560 542.5,-534 425.5,-534"/>
<text text-anchor="start" x="430.38" y="-541.7" font-family="Courier New" font-size="14.00">(1,12)&#45;(1,17)</text>
<polygon fill="none" stroke="black" points="283.5,-508 283.5,-534 542.5,-534 542.5,-508 283.5,-508"/>
<text text-anchor="start" x="288.5" y="-515.7" font-family="Courier New" font-size="14.00">predicate</text>
<polygon fill="none" stroke="black" points="283.5,-482 283.5,-508 425.5,-508 425.5,-482 283.5,-482"/>
<text text-anchor="start" x="288.5" y="-489.7" font-family="Courier New" font-size="14.00">then_keyword_loc</text>
<polygon fill="none" stroke="black" points="425.5,-482 425.5,-508 542.5,-508 542.5,-482 425.5,-482"/>
<text text-anchor="start" x="430.38" y="-489.7" font-family="Courier New" font-size="14.00">(1,20)&#45;(1,24)</text>
<polygon fill="none" stroke="black" points="283.5,-456 283.5,-482 542.5,-482 542.5,-456 283.5,-456"/>
<text text-anchor="start" x="288.5" y="-463.7" font-family="Courier New" font-size="14.00">statements</text>
<polygon fill="none" stroke="black" points="283.5,-430 283.5,-456 542.5,-456 542.5,-430 283.5,-430"/>
<text text-anchor="start" x="288.5" y="-437.7" font-family="Courier New" font-size="14.00">consequent</text>
<polygon fill="none" stroke="black" points="283.5,-404 283.5,-430 425.5,-430 425.5,-404 283.5,-404"/>
<text text-anchor="start" x="288.5" y="-411.7" font-family="Courier New" font-size="14.00">end_keyword_loc</text>
<polygon fill="none" stroke="black" points="425.5,-404 425.5,-430 542.5,-430 542.5,-404 425.5,-404"/>
<text text-anchor="start" x="430.38" y="-411.7" font-family="Courier New" font-size="14.00">(1,34)&#45;(1,37)</text>
</g>
<!-- Node_60&#45;&gt;Node_120 -->
<g id="edge3" class="edge">
<title>Node_60:consequent&#45;&gt;Node_120</title>
<path fill="none" stroke="black" d="M330,-661C365.17,-661 385.44,-630.72 397.12,-596.1"/>
<polygon fill="black" stroke="black" points="400.71,-597.33 400.33,-586.74 394.02,-595.26 400.71,-597.33"/>
</g>
<!-- Node_100_body -->
<g id="node12" class="node">
<title>Node_100_body</title>
<ellipse fill="#f2f2f2" stroke="black" cx="197" cy="-316" rx="1.8" ry="1.8"/>
</g>
<!-- Node_100&#45;&gt;Node_100_body -->
<g id="edge4" class="edge">
<title>Node_100:body&#45;&gt;Node_100_body</title>
<path fill="none" stroke="black" d="M199,-468C199,-416.33 197.81,-354.72 197.27,-329.1"/>
<polygon fill="black" stroke="black" points="200.75,-329.13 197.03,-319.21 193.75,-329.28 200.75,-329.13"/>
</g>
<!-- Node_140 -->
<g id="node4" class="node">
<title>Node_140</title>
<polygon fill="#f2f2f2" stroke="none" points="256,-228 138,-228 138,-176 256,-176 256,-228"/>
<polygon fill="none" stroke="black" points="138,-202 138,-228 256,-228 256,-202 138,-202"/>
<text text-anchor="start" x="151.62" y="-210.7" font-family="Courier New" font-weight="bold" font-size="14.00">IntegerNode</text>
<polygon fill="none" stroke="black" points="138,-176 138,-202 189,-202 189,-176 138,-176"/>
<text text-anchor="start" x="142.88" y="-183.7" font-family="Courier New" font-size="14.00">flags</text>
<polygon fill="none" stroke="black" points="189,-176 189,-202 256,-202 256,-176 189,-176"/>
<text text-anchor="start" x="193.62" y="-183.7" font-family="Courier New" font-size="14.00">decimal</text>
</g>
<!-- Node_160 -->
<g id="node6" class="node">
<title>Node_160</title>
<polygon fill="#f2f2f2" stroke="none" points="335,-342 217,-342 217,-290 335,-290 335,-342"/>
<polygon fill="none" stroke="black" points="217,-316 217,-342 335,-342 335,-316 217,-316"/>
<text text-anchor="start" x="230.62" y="-324.7" font-family="Courier New" font-weight="bold" font-size="14.00">IntegerNode</text>
<polygon fill="none" stroke="black" points="217,-290 217,-316 268,-316 268,-290 217,-290"/>
<text text-anchor="start" x="221.88" y="-297.7" font-family="Courier New" font-size="14.00">flags</text>
<polygon fill="none" stroke="black" points="268,-290 268,-316 335,-316 335,-290 268,-290"/>
<text text-anchor="start" x="272.62" y="-297.7" font-family="Courier New" font-size="14.00">decimal</text>
</g>
<!-- Node_120&#45;&gt;Node_160 -->
<g id="edge6" class="edge">
<title>Node_120:predicate&#45;&gt;Node_160</title>
<path fill="none" stroke="black" d="M282,-521C265.35,-521 269.92,-411.02 273.52,-352.56"/>
<polygon fill="black" stroke="black" points="277.07,-352.81 274.22,-342.61 270.09,-352.36 277.07,-352.81"/>
</g>
<!-- Node_180 -->
<g id="node7" class="node">
<title>Node_180</title>
<polygon fill="#f2f2f2" stroke="none" points="478.5,-342 353.5,-342 353.5,-290 478.5,-290 478.5,-342"/>
<polygon fill="none" stroke="black" points="353.5,-316 353.5,-342 478.5,-342 478.5,-316 353.5,-316"/>
<text text-anchor="start" x="358.25" y="-324.7" font-family="Courier New" font-weight="bold" font-size="14.00">StatementsNode</text>
<polygon fill="none" stroke="black" points="353.5,-290 353.5,-316 478.5,-316 478.5,-290 353.5,-290"/>
<text text-anchor="start" x="358.5" y="-297.7" font-family="Courier New" font-size="14.00">body</text>
</g>
<!-- Node_120&#45;&gt;Node_180 -->
<g id="edge7" class="edge">
<title>Node_120:statements&#45;&gt;Node_180</title>
<path fill="none" stroke="black" d="M544,-469C572.89,-469 557.04,-429.25 543,-404 528.62,-378.14 511.47,-384.64 487,-368 477.68,-361.66 467.79,-354.71 458.45,-348.03"/>
<polygon fill="black" stroke="black" points="460.86,-344.74 450.7,-341.74 456.78,-350.42 460.86,-344.74"/>
</g>
<!-- Node_200 -->
<g id="node9" class="node">
<title>Node_200</title>
<polygon fill="#f2f2f2" stroke="none" points="755.5,-368 496.5,-368 496.5,-264 755.5,-264 755.5,-368"/>
<polygon fill="none" stroke="black" points="496.5,-342 496.5,-368 755.5,-368 755.5,-342 496.5,-342"/>
<text text-anchor="start" x="593" y="-350.7" font-family="Courier New" font-weight="bold" font-size="14.00">ElseNode</text>
<polygon fill="none" stroke="black" points="496.5,-316 496.5,-342 638.5,-342 638.5,-316 496.5,-316"/>
<text text-anchor="start" x="501.5" y="-323.7" font-family="Courier New" font-size="14.00">else_keyword_loc</text>
<polygon fill="none" stroke="black" points="638.5,-316 638.5,-342 755.5,-342 755.5,-316 638.5,-316"/>
<text text-anchor="start" x="643.38" y="-323.7" font-family="Courier New" font-size="14.00">(1,27)&#45;(1,31)</text>
<polygon fill="none" stroke="black" points="496.5,-290 496.5,-316 755.5,-316 755.5,-290 496.5,-290"/>
<text text-anchor="start" x="501.5" y="-297.7" font-family="Courier New" font-size="14.00">statements</text>
<polygon fill="none" stroke="black" points="496.5,-264 496.5,-290 638.5,-290 638.5,-264 496.5,-264"/>
<text text-anchor="start" x="501.5" y="-271.7" font-family="Courier New" font-size="14.00">end_keyword_loc</text>
<polygon fill="none" stroke="black" points="638.5,-264 638.5,-290 755.5,-290 755.5,-264 638.5,-264"/>
<text text-anchor="start" x="643.38" y="-271.7" font-family="Courier New" font-size="14.00">(1,34)&#45;(1,37)</text>
</g>
<!-- Node_120&#45;&gt;Node_200 -->
<g id="edge8" class="edge">
<title>Node_120:consequent&#45;&gt;Node_200</title>
<path fill="none" stroke="black" d="M544,-443C578.03,-443 598.67,-410.31 610.73,-378.24"/>
<polygon fill="black" stroke="black" points="614.35,-379.48 614.35,-368.89 607.74,-377.17 614.35,-379.48"/>
</g>
<!-- Node_180_body -->
<g id="node13" class="node">
<title>Node_180_body</title>
<ellipse fill="#f2f2f2" stroke="black" cx="416" cy="-202" rx="1.8" ry="1.8"/>
</g>
<!-- Node_180&#45;&gt;Node_180_body -->
<g id="edge9" class="edge">
<title>Node_180:body&#45;&gt;Node_180_body</title>
<path fill="none" stroke="black" d="M416,-289C416,-262.61 416,-231.68 416,-215.04"/>
<polygon fill="black" stroke="black" points="419.5,-215.21 416,-205.21 412.5,-215.21 419.5,-215.21"/>
</g>
<!-- Node_220 -->
<g id="node8" class="node">
<title>Node_220</title>
<polygon fill="#f2f2f2" stroke="none" points="475,-140 357,-140 357,-88 475,-88 475,-140"/>
<polygon fill="none" stroke="black" points="357,-114 357,-140 475,-140 475,-114 357,-114"/>
<text text-anchor="start" x="370.62" y="-122.7" font-family="Courier New" font-weight="bold" font-size="14.00">IntegerNode</text>
<polygon fill="none" stroke="black" points="357,-88 357,-114 408,-114 408,-88 357,-88"/>
<text text-anchor="start" x="361.88" y="-95.7" font-family="Courier New" font-size="14.00">flags</text>
<polygon fill="none" stroke="black" points="408,-88 408,-114 475,-114 475,-88 408,-88"/>
<text text-anchor="start" x="412.62" y="-95.7" font-family="Courier New" font-size="14.00">decimal</text>
</g>
<!-- Node_240 -->
<g id="node10" class="node">
<title>Node_240</title>
<polygon fill="#f2f2f2" stroke="none" points="688.5,-228 563.5,-228 563.5,-176 688.5,-176 688.5,-228"/>
<polygon fill="none" stroke="black" points="563.5,-202 563.5,-228 688.5,-228 688.5,-202 563.5,-202"/>
<text text-anchor="start" x="568.25" y="-210.7" font-family="Courier New" font-weight="bold" font-size="14.00">StatementsNode</text>
<polygon fill="none" stroke="black" points="563.5,-176 563.5,-202 688.5,-202 688.5,-176 563.5,-176"/>
<text text-anchor="start" x="568.5" y="-183.7" font-family="Courier New" font-size="14.00">body</text>
</g>
<!-- Node_200&#45;&gt;Node_240 -->
<g id="edge11" class="edge">
<title>Node_200:statements&#45;&gt;Node_240</title>
<path fill="none" stroke="black" d="M757,-303C774.34,-303 765.49,-278.51 756,-264 742.69,-243.64 720.65,-229.94 698.46,-220.78"/>
<polygon fill="black" stroke="black" points="699.88,-217.19 689.29,-216.88 697.37,-223.73 699.88,-217.19"/>
</g>
<!-- Node_240_body -->
<g id="node14" class="node">
<title>Node_240_body</title>
<ellipse fill="#f2f2f2" stroke="black" cx="626" cy="-114" rx="1.8" ry="1.8"/>
</g>
<!-- Node_240&#45;&gt;Node_240_body -->
<g id="edge12" class="edge">
<title>Node_240:body&#45;&gt;Node_240_body</title>
<path fill="none" stroke="black" d="M626,-176C626,-158.92 626,-139.14 626,-126.85"/>
<polygon fill="black" stroke="black" points="629.5,-126.86 626,-116.86 622.5,-126.86 629.5,-126.86"/>
</g>
<!-- Node_260 -->
<g id="node11" class="node">
<title>Node_260</title>
<polygon fill="#f2f2f2" stroke="none" points="685,-52 567,-52 567,0 685,0 685,-52"/>
<polygon fill="none" stroke="black" points="567,-26 567,-52 685,-52 685,-26 567,-26"/>
<text text-anchor="start" x="580.62" y="-34.7" font-family="Courier New" font-weight="bold" font-size="14.00">IntegerNode</text>
<polygon fill="none" stroke="black" points="567,0 567,-26 618,-26 618,0 567,0"/>
<text text-anchor="start" x="571.88" y="-7.7" font-family="Courier New" font-size="14.00">flags</text>
<polygon fill="none" stroke="black" points="618,0 618,-26 685,-26 685,0 618,0"/>
<text text-anchor="start" x="622.62" y="-7.7" font-family="Courier New" font-size="14.00">decimal</text>
</g>
<!-- Node_100_body&#45;&gt;Node_140 -->
<g id="edge5" class="edge">
<title>Node_100_body&#45;&gt;Node_140</title>
<path fill="none" stroke="black" d="M197,-313.74C197,-306.37 197,-268.07 197,-238.55"/>
<polygon fill="black" stroke="black" points="200.5,-238.75 197,-228.75 193.5,-238.75 200.5,-238.75"/>
</g>
<!-- Node_180_body&#45;&gt;Node_220 -->
<g id="edge10" class="edge">
<title>Node_180_body&#45;&gt;Node_220</title>
<path fill="none" stroke="black" d="M416,-199.78C416,-194.32 416,-171.36 416,-150.72"/>
<polygon fill="black" stroke="black" points="419.5,-150.93 416,-140.93 412.5,-150.93 419.5,-150.93"/>
</g>
<!-- Node_240_body&#45;&gt;Node_260 -->
<g id="edge13" class="edge">
<title>Node_240_body&#45;&gt;Node_260</title>
<path fill="none" stroke="black" d="M626,-111.78C626,-106.32 626,-83.36 626,-62.72"/>
<polygon fill="black" stroke="black" points="629.5,-62.93 626,-52.93 622.5,-62.93 629.5,-62.93"/>
</g>
</g>
</svg>
