<?xml version="1.0" encoding="UTF-8" standalone="no"?>
<!DOCTYPE svg PUBLIC "-//W3C//DTD SVG 1.1//EN"
 "http://www.w3.org/Graphics/SVG/1.1/DTD/svg11.dtd">
<!-- Generated by graphviz version 8.1.0 (20230707.0739)
 -->
<!-- Title: Prism Pages: 1 -->
<svg width="596pt" height="406pt"
 viewBox="0.00 0.00 595.81 405.60" xmlns="http://www.w3.org/2000/svg" xmlns:xlink="http://www.w3.org/1999/xlink">
<g id="graph0" class="graph" transform="scale(1 1) rotate(0) translate(4 401.6)">
<title>Prism</title>
<polygon fill="white" stroke="none" points="-4,4 -4,-401.6 591.81,-401.6 591.81,4 -4,4"/>
<!-- Node_60 -->
<g id="node1" class="node">
<title>Node_60</title>
<polygon fill="#f2f2f2" stroke="none" points="471.5,-397.6 254.5,-397.6 254.5,-293.6 471.5,-293.6 471.5,-397.6"/>
<polygon fill="none" stroke="black" points="254.5,-371.6 254.5,-397.6 471.5,-397.6 471.5,-371.6 254.5,-371.6"/>
<text text-anchor="start" x="330" y="-380.3" font-family="Courier New" font-weight="bold" font-size="14.00">HashNode</text>
<polygon fill="none" stroke="black" points="254.5,-345.6 254.5,-371.6 354.5,-371.6 354.5,-345.6 254.5,-345.6"/>
<text text-anchor="start" x="259.12" y="-353.3" font-family="Courier New" font-size="14.00">opening_loc</text>
<polygon fill="none" stroke="black" points="354.5,-345.6 354.5,-371.6 471.5,-371.6 471.5,-345.6 354.5,-345.6"/>
<text text-anchor="start" x="367.62" y="-353.3" font-family="Courier New" font-size="14.00">(1,0)&#45;(1,1)</text>
<polygon fill="none" stroke="black" points="254.5,-319.6 254.5,-345.6 471.5,-345.6 471.5,-319.6 254.5,-319.6"/>
<text text-anchor="start" x="259.5" y="-327.3" font-family="Courier New" font-size="14.00">elements</text>
<polygon fill="none" stroke="black" points="254.5,-293.6 254.5,-319.6 354.5,-319.6 354.5,-293.6 254.5,-293.6"/>
<text text-anchor="start" x="259.12" y="-301.3" font-family="Courier New" font-size="14.00">closing_loc</text>
<polygon fill="none" stroke="black" points="354.5,-293.6 354.5,-319.6 471.5,-319.6 471.5,-293.6 354.5,-293.6"/>
<text text-anchor="start" x="359.38" y="-301.3" font-family="Courier New" font-size="14.00">(1,16)&#45;(1,17)</text>
</g>
<!-- Node_60_elements -->
<g id="node7" class="node">
<title>Node_60_elements</title>
<ellipse fill="#f2f2f2" stroke="black" cx="363" cy="-255.8" rx="1.8" ry="1.8"/>
</g>
<!-- Node_60&#45;&gt;Node_60_elements -->
<g id="edge1" class="edge">
<title>Node_60:elements&#45;&gt;Node_60_elements</title>
<path fill="none" stroke="black" d="M473,-332.6C490.34,-332.6 482.29,-307.55 472,-293.6 449.23,-262.72 399.24,-257.46 375.72,-256.76"/>
<polygon fill="black" stroke="black" points="375.98,-253.26 365.97,-256.73 375.96,-260.26 375.98,-253.26"/>
</g>
<!-- Node_80 -->
<g id="node2" class="node">
<title>Node_80</title>
<polygon fill="#f2f2f2" stroke="none" points="319,-218 235,-218 235,-140 319,-140 319,-218"/>
<polygon fill="none" stroke="black" points="235,-192 235,-218 319,-218 319,-192 235,-192"/>
<text text-anchor="start" x="239.88" y="-200.7" font-family="Courier New" font-weight="bold" font-size="14.00">AssocNode</text>
<polygon fill="none" stroke="black" points="235,-166 235,-192 319,-192 319,-166 235,-166"/>
<text text-anchor="start" x="240" y="-173.7" font-family="Courier New" font-size="14.00">key</text>
<polygon fill="none" stroke="black" points="235,-140 235,-166 319,-166 319,-140 235,-140"/>
<text text-anchor="start" x="240" y="-147.7" font-family="Courier New" font-size="14.00">value</text>
</g>
<!-- Node_120 -->
<g id="node3" class="node">
<title>Node_120</title>
<polygon fill="#f2f2f2" stroke="none" points="200,-104 0,-104 0,0 200,0 200,-104"/>
<polygon fill="none" stroke="black" points="0,-78 0,-104 200,-104 200,-78 0,-78"/>
<text text-anchor="start" x="58.75" y="-86.7" font-family="Courier New" font-weight="bold" font-size="14.00">SymbolNode</text>
<polygon fill="none" stroke="black" points="0,-52 0,-78 100,-78 100,-52 0,-52"/>
<text text-anchor="start" x="5" y="-59.7" font-family="Courier New" font-size="14.00">value_loc</text>
<polygon fill="none" stroke="black" points="100,-52 100,-78 200,-78 200,-52 100,-52"/>
<text text-anchor="start" x="104.62" y="-59.7" font-family="Courier New" font-size="14.00">(1,2)&#45;(1,5)</text>
<polygon fill="none" stroke="black" points="0,-26 0,-52 100,-52 100,-26 0,-26"/>
<text text-anchor="start" x="4.62" y="-33.7" font-family="Courier New" font-size="14.00">closing_loc</text>
<polygon fill="none" stroke="black" points="100,-26 100,-52 200,-52 200,-26 100,-26"/>
<text text-anchor="start" x="104.62" y="-33.7" font-family="Courier New" font-size="14.00">(1,5)&#45;(1,6)</text>
<polygon fill="none" stroke="black" points="0,0 0,-26 100,-26 100,0 0,0"/>
<text text-anchor="start" x="5" y="-7.7" font-family="Courier New" font-size="14.00">unescaped</text>
<polygon fill="none" stroke="black" points="100,0 100,-26 200,-26 200,0 100,0"/>
<text text-anchor="start" x="129.38" y="-7.7" font-family="Courier New" font-size="14.00">&quot;foo&quot;</text>
</g>
<!-- Node_80&#45;&gt;Node_120 -->
<g id="edge4" class="edge">
<title>Node_80:key&#45;&gt;Node_120</title>
<path fill="none" stroke="black" d="M234,-179C191.64,-179 157.2,-145.17 133.85,-112.57"/>
<polygon fill="black" stroke="black" points="136.42,-111.13 127.86,-104.89 130.65,-115.1 136.42,-111.13"/>
</g>
<!-- Node_140 -->
<g id="node4" class="node">
<title>Node_140</title>
<polygon fill="#f2f2f2" stroke="none" points="336,-78 218,-78 218,-26 336,-26 336,-78"/>
<polygon fill="none" stroke="black" points="218,-52 218,-78 336,-78 336,-52 218,-52"/>
<text text-anchor="start" x="231.62" y="-60.7" font-family="Courier New" font-weight="bold" font-size="14.00">IntegerNode</text>
<polygon fill="none" stroke="black" points="218,-26 218,-52 269,-52 269,-26 218,-26"/>
<text text-anchor="start" x="222.88" y="-33.7" font-family="Courier New" font-size="14.00">flags</text>
<polygon fill="none" stroke="black" points="269,-26 269,-52 336,-52 336,-26 269,-26"/>
<text text-anchor="start" x="273.62" y="-33.7" font-family="Courier New" font-size="14.00">decimal</text>
</g>
<!-- Node_80&#45;&gt;Node_140 -->
<g id="edge5" class="edge">
<title>Node_80:value&#45;&gt;Node_140</title>
<path fill="none" stroke="black" d="M277,-140C277,-123.11 277,-104.37 277,-88.62"/>
<polygon fill="black" stroke="black" points="280.5,-88.75 277,-78.75 273.5,-88.75 280.5,-88.75"/>
</g>
<!-- Node_100 -->
<g id="node5" class="node">
<title>Node_100</title>
<polygon fill="#f2f2f2" stroke="none" points="569,-218 343,-218 343,-140 569,-140 569,-218"/>
<polygon fill="none" stroke="black" points="343,-192 343,-218 569,-218 569,-192 343,-192"/>
<text text-anchor="start" x="398.25" y="-200.7" font-family="Courier New" font-weight="bold" font-size="14.00">AssocSplatNode</text>
<polygon fill="none" stroke="black" points="343,-166 343,-192 569,-192 569,-166 343,-166"/>
<text text-anchor="start" x="348" y="-173.7" font-family="Courier New" font-size="14.00">value</text>
<polygon fill="none" stroke="black" points="343,-140 343,-166 452,-166 452,-140 343,-140"/>
<text text-anchor="start" x="348" y="-147.7" font-family="Courier New" font-size="14.00">operator_loc</text>
<polygon fill="none" stroke="black" points="452,-140 452,-166 569,-166 569,-140 452,-140"/>
<text text-anchor="start" x="456.88" y="-147.7" font-family="Courier New" font-size="14.00">(1,10)&#45;(1,12)</text>
</g>
<!-- Node_160 -->
<g id="node6" class="node">
<title>Node_160</title>
<polygon fill="#f2f2f2" stroke="none" points="571.5,-104 354.5,-104 354.5,0 571.5,0 571.5,-104"/>
<polygon fill="none" stroke="black" points="354.5,-78 354.5,-104 571.5,-104 571.5,-78 354.5,-78"/>
<text text-anchor="start" x="430" y="-86.7" font-family="Courier New" font-weight="bold" font-size="14.00">CallNode</text>
<polygon fill="none" stroke="black" points="354.5,-52 354.5,-78 454.5,-78 454.5,-52 354.5,-52"/>
<text text-anchor="start" x="359.5" y="-59.7" font-family="Courier New" font-size="14.00">name</text>
<polygon fill="none" stroke="black" points="454.5,-52 454.5,-78 571.5,-78 571.5,-52 454.5,-52"/>
<text text-anchor="start" x="496.5" y="-59.7" font-family="Courier New" font-size="14.00">:bar</text>
<polygon fill="none" stroke="black" points="354.5,-26 354.5,-52 454.5,-52 454.5,-26 354.5,-26"/>
<text text-anchor="start" x="359.12" y="-33.7" font-family="Courier New" font-size="14.00">message_loc</text>
<polygon fill="none" stroke="black" points="454.5,-26 454.5,-52 571.5,-52 571.5,-26 454.5,-26"/>
<text text-anchor="start" x="459.38" y="-33.7" font-family="Courier New" font-size="14.00">(1,12)&#45;(1,15)</text>
<polygon fill="none" stroke="black" points="354.5,0 354.5,-26 454.5,-26 454.5,0 354.5,0"/>
<text text-anchor="start" x="359.5" y="-7.7" font-family="Courier New" font-size="14.00">flags</text>
<polygon fill="none" stroke="black" points="454.5,0 454.5,-26 571.5,-26 571.5,0 454.5,0"/>
<text text-anchor="start" x="459.38" y="-7.7" font-family="Courier New" font-size="14.00">variable_call</text>
</g>
<!-- Node_100&#45;&gt;Node_160 -->
<g id="edge6" class="edge">
<title>Node_100:value&#45;&gt;Node_160</title>
<path fill="none" stroke="black" d="M570,-179C608.72,-179 576.91,-144.01 538.16,-110.91"/>
<polygon fill="black" stroke="black" points="540.72,-107.64 530.81,-103.89 536.21,-113 540.72,-107.64"/>
</g>
<!-- Node_60_elements&#45;&gt;Node_80 -->
<g id="edge2" class="edge">
<title>Node_60_elements&#45;&gt;Node_80</title>
<path fill="none" stroke="black" d="M362.03,-253.96C358.16,-250.59 343.2,-237.58 326.88,-223.39"/>
<polygon fill="black" stroke="black" points="329.65,-220.28 319.8,-216.36 325.05,-225.56 329.65,-220.28"/>
</g>
<!-- Node_60_elements&#45;&gt;Node_100 -->
<g id="edge3" class="edge">
<title>Node_60_elements&#45;&gt;Node_100</title>
<path fill="none" stroke="black" d="M364.04,-253.96C368.11,-250.69 383.49,-238.32 400.54,-224.6"/>
<polygon fill="black" stroke="black" points="402.41,-226.79 408.01,-217.8 398.02,-221.34 402.41,-226.79"/>
</g>
</g>
</svg>
