<?xml version="1.0" encoding="UTF-8" standalone="no"?>
<!DOCTYPE svg PUBLIC "-//W3C//DTD SVG 1.1//EN"
 "http://www.w3.org/Graphics/SVG/1.1/DTD/svg11.dtd">
<!-- Generated by graphviz version 8.1.0 (20230707.0739)
 -->
<!-- Title: Prism Pages: 1 -->
<svg width="301pt" height="380pt"
 viewBox="0.00 0.00 301.10 379.60" xmlns="http://www.w3.org/2000/svg" xmlns:xlink="http://www.w3.org/1999/xlink">
<g id="graph0" class="graph" transform="scale(1 1) rotate(0) translate(4 375.6)">
<title>Prism</title>
<polygon fill="white" stroke="none" points="-4,4 -4,-375.6 297.1,-375.6 297.1,4 -4,4"/>
<!-- Node_60 -->
<g id="node1" class="node">
<title>Node_60</title>
<polygon fill="#f2f2f2" stroke="none" points="282.24,-371.6 23.24,-371.6 23.24,-215.6 282.24,-215.6 282.24,-371.6"/>
<polygon fill="none" stroke="black" points="23.24,-345.6 23.24,-371.6 282.24,-371.6 282.24,-345.6 23.24,-345.6"/>
<text text-anchor="start" x="111.49" y="-354.3" font-family="Courier New" font-weight="bold" font-size="14.00">UnlessNode</text>
<polygon fill="none" stroke="black" points="23.24,-319.6 23.24,-345.6 165.24,-345.6 165.24,-319.6 23.24,-319.6"/>
<text text-anchor="start" x="28.24" y="-327.3" font-family="Courier New" font-size="14.00">keyword_loc</text>
<polygon fill="none" stroke="black" points="165.24,-319.6 165.24,-345.6 282.24,-345.6 282.24,-319.6 165.24,-319.6"/>
<text text-anchor="start" x="178.36" y="-327.3" font-family="Courier New" font-size="14.00">(1,0)&#45;(1,6)</text>
<polygon fill="none" stroke="black" points="23.24,-293.6 23.24,-319.6 282.24,-319.6 282.24,-293.6 23.24,-293.6"/>
<text text-anchor="start" x="28.24" y="-301.3" font-family="Courier New" font-size="14.00">predicate</text>
<polygon fill="none" stroke="black" points="23.24,-267.6 23.24,-293.6 165.24,-293.6 165.24,-267.6 23.24,-267.6"/>
<text text-anchor="start" x="28.24" y="-275.3" font-family="Courier New" font-size="14.00">then_keyword_loc</text>
<polygon fill="none" stroke="black" points="165.24,-267.6 165.24,-293.6 282.24,-293.6 282.24,-267.6 165.24,-267.6"/>
<text text-anchor="start" x="174.24" y="-275.3" font-family="Courier New" font-size="14.00">(1,9)&#45;(1,13)</text>
<polygon fill="none" stroke="black" points="23.24,-241.6 23.24,-267.6 282.24,-267.6 282.24,-241.6 23.24,-241.6"/>
<text text-anchor="start" x="28.24" y="-249.3" font-family="Courier New" font-size="14.00">statements</text>
<polygon fill="none" stroke="black" points="23.24,-215.6 23.24,-241.6 165.24,-241.6 165.24,-215.6 23.24,-215.6"/>
<text text-anchor="start" x="28.24" y="-223.3" font-family="Courier New" font-size="14.00">end_keyword_loc</text>
<polygon fill="none" stroke="black" points="165.24,-215.6 165.24,-241.6 282.24,-241.6 282.24,-215.6 165.24,-215.6"/>
<text text-anchor="start" x="170.11" y="-223.3" font-family="Courier New" font-size="14.00">(1,16)&#45;(1,19)</text>
</g>
<!-- Node_80 -->
<g id="node2" class="node">
<title>Node_80</title>
<polygon fill="#f2f2f2" stroke="none" points="141.74,-179.6 23.74,-179.6 23.74,-127.6 141.74,-127.6 141.74,-179.6"/>
<polygon fill="none" stroke="black" points="23.74,-153.6 23.74,-179.6 141.74,-179.6 141.74,-153.6 23.74,-153.6"/>
<text text-anchor="start" x="37.36" y="-162.3" font-family="Courier New" font-weight="bold" font-size="14.00">IntegerNode</text>
<polygon fill="none" stroke="black" points="23.74,-127.6 23.74,-153.6 74.74,-153.6 74.74,-127.6 23.74,-127.6"/>
<text text-anchor="start" x="28.61" y="-135.3" font-family="Courier New" font-size="14.00">flags</text>
<polygon fill="none" stroke="black" points="74.74,-127.6 74.74,-153.6 141.74,-153.6 141.74,-127.6 74.74,-127.6"/>
<text text-anchor="start" x="79.36" y="-135.3" font-family="Courier New" font-size="14.00">decimal</text>
</g>
<!-- Node_60&#45;&gt;Node_80 -->
<g id="edge1" class="edge">
<title>Node_60:predicate&#45;&gt;Node_80</title>
<path fill="none" stroke="black" d="M21.74,-306.6C-18.71,-306.6 7.21,-252.95 22.74,-215.6 27.1,-205.1 34.22,-195.43 42.05,-187.02"/>
<polygon fill="black" stroke="black" points="44.12,-189.91 48.72,-180.37 39.17,-184.96 44.12,-189.91"/>
</g>
<!-- Node_100 -->
<g id="node3" class="node">
<title>Node_100</title>
<polygon fill="#f2f2f2" stroke="none" points="285.24,-179.6 160.24,-179.6 160.24,-127.6 285.24,-127.6 285.24,-179.6"/>
<polygon fill="none" stroke="black" points="160.24,-153.6 160.24,-179.6 285.24,-179.6 285.24,-153.6 160.24,-153.6"/>
<text text-anchor="start" x="164.99" y="-162.3" font-family="Courier New" font-weight="bold" font-size="14.00">StatementsNode</text>
<polygon fill="none" stroke="black" points="160.24,-127.6 160.24,-153.6 285.24,-153.6 285.24,-127.6 160.24,-127.6"/>
<text text-anchor="start" x="165.24" y="-135.3" font-family="Courier New" font-size="14.00">body</text>
</g>
<!-- Node_60&#45;&gt;Node_100 -->
<g id="edge2" class="edge">
<title>Node_60:statements&#45;&gt;Node_100</title>
<path fill="none" stroke="black" d="M283.74,-254.6C301.08,-254.6 289.51,-231.56 282.74,-215.6 278.29,-205.13 271.14,-195.47 263.3,-187.07"/>
<polygon fill="black" stroke="black" points="266.19,-185.01 256.64,-180.42 261.24,-189.96 266.19,-185.01"/>
</g>
<!-- Node_100_body -->
<g id="node5" class="node">
<title>Node_100_body</title>
<ellipse fill="#f2f2f2" stroke="black" cx="222.74" cy="-89.8" rx="1.8" ry="1.8"/>
</g>
<!-- Node_100&#45;&gt;Node_100_body -->
<g id="edge3" class="edge">
<title>Node_100:body&#45;&gt;Node_100_body</title>
<path fill="none" stroke="black" d="M222.74,-127.6C222.74,-119.36 222.74,-110.09 222.74,-102.91"/>
<polygon fill="black" stroke="black" points="226.24,-102.94 222.74,-92.94 219.24,-102.94 226.24,-102.94"/>
</g>
<!-- Node_120 -->
<g id="node4" class="node">
<title>Node_120</title>
<polygon fill="#f2f2f2" stroke="none" points="281.74,-52 163.74,-52 163.74,0 281.74,0 281.74,-52"/>
<polygon fill="none" stroke="black" points="163.74,-26 163.74,-52 281.74,-52 281.74,-26 163.74,-26"/>
<text text-anchor="start" x="177.36" y="-34.7" font-family="Courier New" font-weight="bold" font-size="14.00">IntegerNode</text>
<polygon fill="none" stroke="black" points="163.74,0 163.74,-26 214.74,-26 214.74,0 163.74,0"/>
<text text-anchor="start" x="168.61" y="-7.7" font-family="Courier New" font-size="14.00">flags</text>
<polygon fill="none" stroke="black" points="214.74,0 214.74,-26 281.74,-26 281.74,0 214.74,0"/>
<text text-anchor="start" x="219.36" y="-7.7" font-family="Courier New" font-size="14.00">decimal</text>
</g>
<!-- Node_100_body&#45;&gt;Node_120 -->
<g id="edge4" class="edge">
<title>Node_100_body&#45;&gt;Node_120</title>
<path fill="none" stroke="black" d="M222.74,-87.73C222.74,-84.45 222.74,-74.09 222.74,-62.84"/>
<polygon fill="black" stroke="black" points="226.24,-62.97 222.74,-52.97 219.24,-62.98 226.24,-62.97"/>
</g>
</g>
</svg>
