<?xml version="1.0" encoding="UTF-8" standalone="no"?>
<!DOCTYPE svg PUBLIC "-//W3C//DTD SVG 1.1//EN"
 "http://www.w3.org/Graphics/SVG/1.1/DTD/svg11.dtd">
<!-- Generated by graphviz version 8.1.0 (20230707.0739)
 -->
<!-- Title: Prism Pages: 1 -->
<svg width="420pt" height="226pt"
 viewBox="0.00 0.00 420.00 226.00" xmlns="http://www.w3.org/2000/svg" xmlns:xlink="http://www.w3.org/1999/xlink">
<g id="graph0" class="graph" transform="scale(1 1) rotate(0) translate(4 222)">
<title>Prism</title>
<polygon fill="white" stroke="none" points="-4,4 -4,-222 416,-222 416,4 -4,4"/>
<!-- Node_60 -->
<g id="node1" class="node">
<title>Node_60</title>
<polygon fill="#f2f2f2" stroke="none" points="303.5,-218 103.5,-218 103.5,-114 303.5,-114 303.5,-218"/>
<polygon fill="none" stroke="black" points="103.5,-192 103.5,-218 303.5,-218 303.5,-192 103.5,-192"/>
<text text-anchor="start" x="141.62" y="-200.7" font-family="Courier New" font-weight="bold" font-size="14.00">AliasMethodNode</text>
<polygon fill="none" stroke="black" points="103.5,-166 103.5,-192 303.5,-192 303.5,-166 103.5,-166"/>
<text text-anchor="start" x="108.5" y="-173.7" font-family="Courier New" font-size="14.00">new_name</text>
<polygon fill="none" stroke="black" points="103.5,-140 103.5,-166 303.5,-166 303.5,-140 103.5,-140"/>
<text text-anchor="start" x="108.5" y="-147.7" font-family="Courier New" font-size="14.00">old_name</text>
<polygon fill="none" stroke="black" points="103.5,-114 103.5,-140 203.5,-140 203.5,-114 103.5,-114"/>
<text text-anchor="start" x="108.12" y="-121.7" font-family="Courier New" font-size="14.00">keyword_loc</text>
<polygon fill="none" stroke="black" points="203.5,-114 203.5,-140 303.5,-140 303.5,-114 203.5,-114"/>
<text text-anchor="start" x="208.12" y="-121.7" font-family="Courier New" font-size="14.00">(1,0)&#45;(1,5)</text>
</g>
<!-- Node_80 -->
<g id="node2" class="node">
<title>Node_80</title>
<polygon fill="#f2f2f2" stroke="none" points="193,-78 0,-78 0,0 193,0 193,-78"/>
<polygon fill="none" stroke="black" points="0,-52 0,-78 193,-78 193,-52 0,-52"/>
<text text-anchor="start" x="55.25" y="-60.7" font-family="Courier New" font-weight="bold" font-size="14.00">SymbolNode</text>
<polygon fill="none" stroke="black" points="0,-26 0,-52 84,-52 84,-26 0,-26"/>
<text text-anchor="start" x="4.88" y="-33.7" font-family="Courier New" font-size="14.00">value_loc</text>
<polygon fill="none" stroke="black" points="84,-26 84,-52 193,-52 193,-26 84,-26"/>
<text text-anchor="start" x="89" y="-33.7" font-family="Courier New" font-size="14.00">(1,6)&#45;(1,14)</text>
<polygon fill="none" stroke="black" points="0,0 0,-26 84,-26 84,0 0,0"/>
<text text-anchor="start" x="4.88" y="-7.7" font-family="Courier New" font-size="14.00">unescaped</text>
<polygon fill="none" stroke="black" points="84,0 84,-26 193,-26 193,0 84,0"/>
<text text-anchor="start" x="97.25" y="-7.7" font-family="Courier New" font-size="14.00">&quot;new_name&quot;</text>
</g>
<!-- Node_60&#45;&gt;Node_80 -->
<g id="edge1" class="edge">
<title>Node_60:new_name&#45;&gt;Node_80</title>
<path fill="none" stroke="black" d="M102.5,-179C65.25,-179 70.7,-128.56 80.93,-88.44"/>
<polygon fill="black" stroke="black" points="84.52,-89.55 83.75,-78.98 77.77,-87.72 84.52,-89.55"/>
</g>
<!-- Node_100 -->
<g id="node3" class="node">
<title>Node_100</title>
<polygon fill="#f2f2f2" stroke="none" points="412,-78 211,-78 211,0 412,0 412,-78"/>
<polygon fill="none" stroke="black" points="211,-52 211,-78 412,-78 412,-52 211,-52"/>
<text text-anchor="start" x="270.25" y="-60.7" font-family="Courier New" font-weight="bold" font-size="14.00">SymbolNode</text>
<polygon fill="none" stroke="black" points="211,-26 211,-52 295,-52 295,-26 211,-26"/>
<text text-anchor="start" x="215.88" y="-33.7" font-family="Courier New" font-size="14.00">value_loc</text>
<polygon fill="none" stroke="black" points="295,-26 295,-52 412,-52 412,-26 295,-26"/>
<text text-anchor="start" x="299.88" y="-33.7" font-family="Courier New" font-size="14.00">(1,15)&#45;(1,23)</text>
<polygon fill="none" stroke="black" points="211,0 211,-26 295,-26 295,0 211,0"/>
<text text-anchor="start" x="215.88" y="-7.7" font-family="Courier New" font-size="14.00">unescaped</text>
<polygon fill="none" stroke="black" points="295,0 295,-26 412,-26 412,0 295,0"/>
<text text-anchor="start" x="312.25" y="-7.7" font-family="Courier New" font-size="14.00">&quot;old_name&quot;</text>
</g>
<!-- Node_60&#45;&gt;Node_100 -->
<g id="edge2" class="edge">
<title>Node_60:old_name&#45;&gt;Node_100</title>
<path fill="none" stroke="black" d="M304.5,-153C332.02,-153 331.53,-119.21 325.44,-88.58"/>
<polygon fill="black" stroke="black" points="328.67,-87.95 323.09,-78.94 321.83,-89.46 328.67,-87.95"/>
</g>
</g>
</svg>
