<?xml version="1.0" encoding="UTF-8" standalone="no"?>
<!DOCTYPE svg PUBLIC "-//W3C//DTD SVG 1.1//EN"
 "http://www.w3.org/Graphics/SVG/1.1/DTD/svg11.dtd">
<!-- Generated by graphviz version 8.1.0 (20230707.0739)
 -->
<!-- Title: Prism Pages: 1 -->
<svg width="316pt" height="304pt"
 viewBox="0.00 0.00 315.59 304.00" xmlns="http://www.w3.org/2000/svg" xmlns:xlink="http://www.w3.org/1999/xlink">
<g id="graph0" class="graph" transform="scale(1 1) rotate(0) translate(4 300)">
<title>Prism</title>
<polygon fill="white" stroke="none" points="-4,4 -4,-300 311.59,-300 311.59,4 -4,4"/>
<!-- Node_60 -->
<g id="node1" class="node">
<title>Node_60</title>
<polygon fill="#f2f2f2" stroke="none" points="283,-296 0,-296 0,-140 283,-140 283,-296"/>
<polygon fill="none" stroke="black" points="0,-270 0,-296 283,-296 283,-270 0,-270"/>
<text text-anchor="start" x="108.5" y="-278.7" font-family="Courier New" font-weight="bold" font-size="14.00">CallNode</text>
<polygon fill="none" stroke="black" points="0,-244 0,-270 150,-270 150,-244 0,-244"/>
<text text-anchor="start" x="5" y="-251.7" font-family="Courier New" font-size="14.00">flags</text>
<polygon fill="none" stroke="black" points="150,-244 150,-270 283,-270 283,-244 150,-244"/>
<text text-anchor="start" x="154.62" y="-251.7" font-family="Courier New" font-size="14.00">safe_navigation</text>
<polygon fill="none" stroke="black" points="0,-218 0,-244 283,-244 283,-218 0,-218"/>
<text text-anchor="start" x="5" y="-225.7" font-family="Courier New" font-size="14.00">receiver</text>
<polygon fill="none" stroke="black" points="0,-192 0,-218 150,-218 150,-192 0,-192"/>
<text text-anchor="start" x="4.88" y="-199.7" font-family="Courier New" font-size="14.00">call_operator_loc</text>
<polygon fill="none" stroke="black" points="150,-192 150,-218 283,-218 283,-192 150,-192"/>
<text text-anchor="start" x="171.12" y="-199.7" font-family="Courier New" font-size="14.00">(1,3)&#45;(1,5)</text>
<polygon fill="none" stroke="black" points="0,-166 0,-192 150,-192 150,-166 0,-166"/>
<text text-anchor="start" x="5" y="-173.7" font-family="Courier New" font-size="14.00">name</text>
<polygon fill="none" stroke="black" points="150,-166 150,-192 283,-192 283,-166 150,-166"/>
<text text-anchor="start" x="200" y="-173.7" font-family="Courier New" font-size="14.00">:bar</text>
<polygon fill="none" stroke="black" points="0,-140 0,-166 150,-166 150,-140 0,-140"/>
<text text-anchor="start" x="5" y="-147.7" font-family="Courier New" font-size="14.00">message_loc</text>
<polygon fill="none" stroke="black" points="150,-140 150,-166 283,-166 283,-140 150,-140"/>
<text text-anchor="start" x="171.12" y="-147.7" font-family="Courier New" font-size="14.00">(1,5)&#45;(1,8)</text>
</g>
<!-- Node_80 -->
<g id="node2" class="node">
<title>Node_80</title>
<polygon fill="#f2f2f2" stroke="none" points="250,-104 33,-104 33,0 250,0 250,-104"/>
<polygon fill="none" stroke="black" points="33,-78 33,-104 250,-104 250,-78 33,-78"/>
<text text-anchor="start" x="108.5" y="-86.7" font-family="Courier New" font-weight="bold" font-size="14.00">CallNode</text>
<polygon fill="none" stroke="black" points="33,-52 33,-78 133,-78 133,-52 33,-52"/>
<text text-anchor="start" x="38" y="-59.7" font-family="Courier New" font-size="14.00">flags</text>
<polygon fill="none" stroke="black" points="133,-52 133,-78 250,-78 250,-52 133,-52"/>
<text text-anchor="start" x="137.88" y="-59.7" font-family="Courier New" font-size="14.00">variable_call</text>
<polygon fill="none" stroke="black" points="33,-26 33,-52 133,-52 133,-26 33,-26"/>
<text text-anchor="start" x="38" y="-33.7" font-family="Courier New" font-size="14.00">name</text>
<polygon fill="none" stroke="black" points="133,-26 133,-52 250,-52 250,-26 133,-26"/>
<text text-anchor="start" x="175" y="-33.7" font-family="Courier New" font-size="14.00">:foo</text>
<polygon fill="none" stroke="black" points="33,0 33,-26 133,-26 133,0 33,0"/>
<text text-anchor="start" x="37.62" y="-7.7" font-family="Courier New" font-size="14.00">message_loc</text>
<polygon fill="none" stroke="black" points="133,0 133,-26 250,-26 250,0 133,0"/>
<text text-anchor="start" x="146.12" y="-7.7" font-family="Courier New" font-size="14.00">(1,0)&#45;(1,3)</text>
</g>
<!-- Node_60&#45;&gt;Node_80 -->
<g id="edge1" class="edge">
<title>Node_60:receiver&#45;&gt;Node_80</title>
<path fill="none" stroke="black" d="M284.5,-231C324.95,-231 303.46,-175.18 283.5,-140 276.91,-128.39 268.09,-118.14 258.04,-109.14"/>
<polygon fill="black" stroke="black" points="260.65,-105.92 250.74,-102.18 256.16,-111.29 260.65,-105.92"/>
</g>
</g>
</svg>
