<?xml version="1.0" encoding="UTF-8" standalone="no"?>
<!DOCTYPE svg PUBLIC "-//W3C//DTD SVG 1.1//EN"
 "http://www.w3.org/Graphics/SVG/1.1/DTD/svg11.dtd">
<!-- Generated by graphviz version 8.1.0 (20230707.0739)
 -->
<!-- Title: Prism Pages: 1 -->
<svg width="191pt" height="266pt"
 viewBox="0.00 0.00 191.00 265.60" xmlns="http://www.w3.org/2000/svg" xmlns:xlink="http://www.w3.org/1999/xlink">
<g id="graph0" class="graph" transform="scale(1 1) rotate(0) translate(4 261.6)">
<title>Prism</title>
<polygon fill="white" stroke="none" points="-4,4 -4,-261.6 187,-261.6 187,4 -4,4"/>
<!-- Node_60 -->
<g id="node1" class="node">
<title>Node_60</title>
<polygon fill="#f2f2f2" stroke="none" points="154,-257.6 29,-257.6 29,-127.6 154,-127.6 154,-257.6"/>
<polygon fill="none" stroke="black" points="29,-231.6 29,-257.6 154,-257.6 154,-231.6 29,-231.6"/>
<text text-anchor="start" x="33.75" y="-240.3" font-family="Courier New" font-weight="bold" font-size="14.00">ParametersNode</text>
<polygon fill="none" stroke="black" points="29,-205.6 29,-231.6 154,-231.6 154,-205.6 29,-205.6"/>
<text text-anchor="start" x="34" y="-213.3" font-family="Courier New" font-size="14.00">requireds</text>
<polygon fill="none" stroke="black" points="29,-179.6 29,-205.6 120,-205.6 120,-179.6 29,-179.6"/>
<text text-anchor="start" x="34" y="-187.3" font-family="Courier New" font-size="14.00">optionals</text>
<polygon fill="none" stroke="black" points="120,-179.6 120,-205.6 154,-205.6 154,-179.6 120,-179.6"/>
<text text-anchor="start" x="128.75" y="-187.3" font-family="Courier New" font-size="14.00">[]</text>
<polygon fill="none" stroke="black" points="29,-153.6 29,-179.6 120,-179.6 120,-153.6 29,-153.6"/>
<text text-anchor="start" x="34" y="-161.3" font-family="Courier New" font-size="14.00">posts</text>
<polygon fill="none" stroke="black" points="120,-153.6 120,-179.6 154,-179.6 154,-153.6 120,-153.6"/>
<text text-anchor="start" x="128.75" y="-161.3" font-family="Courier New" font-size="14.00">[]</text>
<polygon fill="none" stroke="black" points="29,-127.6 29,-153.6 120,-153.6 120,-127.6 29,-127.6"/>
<text text-anchor="start" x="34" y="-135.3" font-family="Courier New" font-size="14.00">keywords</text>
<polygon fill="none" stroke="black" points="120,-127.6 120,-153.6 154,-153.6 154,-127.6 120,-127.6"/>
<text text-anchor="start" x="128.75" y="-135.3" font-family="Courier New" font-size="14.00">[]</text>
</g>
<!-- Node_60_requireds -->
<g id="node3" class="node">
<title>Node_60_requireds</title>
<ellipse fill="#f2f2f2" stroke="black" cx="91.5" cy="-89.8" rx="1.8" ry="1.8"/>
</g>
<!-- Node_60&#45;&gt;Node_60_requireds -->
<g id="edge1" class="edge">
<title>Node_60:requireds&#45;&gt;Node_60_requireds</title>
<path fill="none" stroke="black" d="M155.5,-218.6C195.95,-218.6 174.83,-162.57 154.5,-127.6 143.5,-108.68 118.65,-98.54 103.66,-93.94"/>
<polygon fill="black" stroke="black" points="104.64,-90.31 94.08,-91.13 102.84,-97.08 104.64,-90.31"/>
</g>
<!-- Node_80 -->
<g id="node2" class="node">
<title>Node_80</title>
<polygon fill="#f2f2f2" stroke="none" points="183,-52 0,-52 0,0 183,0 183,-52"/>
<polygon fill="none" stroke="black" points="0,-26 0,-52 183,-52 183,-26 0,-26"/>
<text text-anchor="start" x="4.88" y="-34.7" font-family="Courier New" font-weight="bold" font-size="14.00">RequiredParameterNode</text>
<polygon fill="none" stroke="black" points="0,0 0,-26 91,-26 91,0 0,0"/>
<text text-anchor="start" x="5" y="-7.7" font-family="Courier New" font-size="14.00">name</text>
<polygon fill="none" stroke="black" points="91,0 91,-26 183,-26 183,0 91,0"/>
<text text-anchor="start" x="120.5" y="-7.7" font-family="Courier New" font-size="14.00">:bar</text>
</g>
<!-- Node_60_requireds&#45;&gt;Node_80 -->
<g id="edge2" class="edge">
<title>Node_60_requireds&#45;&gt;Node_80</title>
<path fill="none" stroke="black" d="M91.5,-87.73C91.5,-84.45 91.5,-74.09 91.5,-62.84"/>
<polygon fill="black" stroke="black" points="95,-62.97 91.5,-52.97 88,-62.98 95,-62.97"/>
</g>
</g>
</svg>
