<?xml version="1.0" encoding="UTF-8" standalone="no"?>
<!DOCTYPE svg PUBLIC "-//W3C//DTD SVG 1.1//EN"
 "http://www.w3.org/Graphics/SVG/1.1/DTD/svg11.dtd">
<!-- Generated by graphviz version 8.1.0 (20230707.0739)
 -->
<!-- Title: Prism Pages: 1 -->
<svg width="352pt" height="542pt"
 viewBox="0.00 0.00 351.50 542.00" xmlns="http://www.w3.org/2000/svg" xmlns:xlink="http://www.w3.org/1999/xlink">
<g id="graph0" class="graph" transform="scale(1 1) rotate(0) translate(4 538)">
<title>Prism</title>
<polygon fill="white" stroke="none" points="-4,4 -4,-538 347.5,-538 347.5,4 -4,4"/>
<!-- Node_60 -->
<g id="node1" class="node">
<title>Node_60</title>
<polygon fill="#f2f2f2" stroke="none" points="277.5,-534 27.5,-534 27.5,-404 277.5,-404 277.5,-534"/>
<polygon fill="none" stroke="black" points="27.5,-508 27.5,-534 277.5,-534 277.5,-508 27.5,-508"/>
<text text-anchor="start" x="115.38" y="-516.7" font-family="Courier New" font-weight="bold" font-size="14.00">BeginNode</text>
<polygon fill="none" stroke="black" points="27.5,-482 27.5,-508 177.5,-508 177.5,-482 27.5,-482"/>
<text text-anchor="start" x="32.38" y="-489.7" font-family="Courier New" font-size="14.00">begin_keyword_loc</text>
<polygon fill="none" stroke="black" points="177.5,-482 177.5,-508 277.5,-508 277.5,-482 177.5,-482"/>
<text text-anchor="start" x="182.12" y="-489.7" font-family="Courier New" font-size="14.00">(1,0)&#45;(1,5)</text>
<polygon fill="none" stroke="black" points="27.5,-456 27.5,-482 277.5,-482 277.5,-456 27.5,-456"/>
<text text-anchor="start" x="32.5" y="-463.7" font-family="Courier New" font-size="14.00">statements</text>
<polygon fill="none" stroke="black" points="27.5,-430 27.5,-456 277.5,-456 277.5,-430 27.5,-430"/>
<text text-anchor="start" x="32.5" y="-437.7" font-family="Courier New" font-size="14.00">rescue_clause</text>
<polygon fill="none" stroke="black" points="27.5,-404 27.5,-430 177.5,-430 177.5,-404 27.5,-404"/>
<text text-anchor="start" x="32.5" y="-411.7" font-family="Courier New" font-size="14.00">end_keyword_loc</text>
<polygon fill="none" stroke="black" points="177.5,-404 177.5,-430 277.5,-430 277.5,-404 177.5,-404"/>
<text text-anchor="start" x="182.12" y="-411.7" font-family="Courier New" font-size="14.00">(5,0)&#45;(5,3)</text>
</g>
<!-- Node_80 -->
<g id="node2" class="node">
<title>Node_80</title>
<polygon fill="#f2f2f2" stroke="none" points="125,-342 0,-342 0,-290 125,-290 125,-342"/>
<polygon fill="none" stroke="black" points="0,-316 0,-342 125,-342 125,-316 0,-316"/>
<text text-anchor="start" x="4.75" y="-324.7" font-family="Courier New" font-weight="bold" font-size="14.00">StatementsNode</text>
<polygon fill="none" stroke="black" points="0,-290 0,-316 125,-316 125,-290 0,-290"/>
<text text-anchor="start" x="5" y="-297.7" font-family="Courier New" font-size="14.00">body</text>
</g>
<!-- Node_60&#45;&gt;Node_80 -->
<g id="edge1" class="edge">
<title>Node_60:statements&#45;&gt;Node_80</title>
<path fill="none" stroke="black" d="M26.5,-469C-21.63,-469 14.28,-395.94 40.83,-351.13"/>
<polygon fill="black" stroke="black" points="44.32,-353.13 46.49,-342.76 38.32,-349.51 44.32,-353.13"/>
</g>
<!-- Node_100 -->
<g id="node4" class="node">
<title>Node_100</title>
<polygon fill="#f2f2f2" stroke="none" points="343.5,-368 143.5,-368 143.5,-264 343.5,-264 343.5,-368"/>
<polygon fill="none" stroke="black" points="143.5,-342 143.5,-368 343.5,-368 343.5,-342 143.5,-342"/>
<text text-anchor="start" x="202.25" y="-350.7" font-family="Courier New" font-weight="bold" font-size="14.00">RescueNode</text>
<polygon fill="none" stroke="black" points="143.5,-316 143.5,-342 243.5,-342 243.5,-316 143.5,-316"/>
<text text-anchor="start" x="148.12" y="-323.7" font-family="Courier New" font-size="14.00">keyword_loc</text>
<polygon fill="none" stroke="black" points="243.5,-316 243.5,-342 343.5,-342 343.5,-316 243.5,-316"/>
<text text-anchor="start" x="248.12" y="-323.7" font-family="Courier New" font-size="14.00">(3,0)&#45;(3,6)</text>
<polygon fill="none" stroke="black" points="143.5,-290 143.5,-316 243.5,-316 243.5,-290 143.5,-290"/>
<text text-anchor="start" x="148.5" y="-297.7" font-family="Courier New" font-size="14.00">exceptions</text>
<polygon fill="none" stroke="black" points="243.5,-290 243.5,-316 343.5,-316 343.5,-290 243.5,-290"/>
<text text-anchor="start" x="285.25" y="-297.7" font-family="Courier New" font-size="14.00">[]</text>
<polygon fill="none" stroke="black" points="143.5,-264 143.5,-290 343.5,-290 343.5,-264 143.5,-264"/>
<text text-anchor="start" x="148.5" y="-271.7" font-family="Courier New" font-size="14.00">statements</text>
</g>
<!-- Node_60&#45;&gt;Node_100 -->
<g id="edge2" class="edge">
<title>Node_60:rescue_clause&#45;&gt;Node_100</title>
<path fill="none" stroke="black" d="M278.5,-443C308.36,-443 298.3,-409.74 281.46,-377.4"/>
<polygon fill="black" stroke="black" points="284.14,-376.01 276.31,-368.89 277.99,-379.35 284.14,-376.01"/>
</g>
<!-- Node_80_body -->
<g id="node7" class="node">
<title>Node_80_body</title>
<ellipse fill="#f2f2f2" stroke="black" cx="62.5" cy="-202" rx="1.8" ry="1.8"/>
</g>
<!-- Node_80&#45;&gt;Node_80_body -->
<g id="edge3" class="edge">
<title>Node_80:body&#45;&gt;Node_80_body</title>
<path fill="none" stroke="black" d="M62.5,-289C62.5,-262.61 62.5,-231.68 62.5,-215.04"/>
<polygon fill="black" stroke="black" points="66,-215.21 62.5,-205.21 59,-215.21 66,-215.21"/>
</g>
<!-- Node_120 -->
<g id="node3" class="node">
<title>Node_120</title>
<polygon fill="#f2f2f2" stroke="none" points="121.5,-140 3.5,-140 3.5,-88 121.5,-88 121.5,-140"/>
<polygon fill="none" stroke="black" points="3.5,-114 3.5,-140 121.5,-140 121.5,-114 3.5,-114"/>
<text text-anchor="start" x="17.12" y="-122.7" font-family="Courier New" font-weight="bold" font-size="14.00">IntegerNode</text>
<polygon fill="none" stroke="black" points="3.5,-88 3.5,-114 54.5,-114 54.5,-88 3.5,-88"/>
<text text-anchor="start" x="8.38" y="-95.7" font-family="Courier New" font-size="14.00">flags</text>
<polygon fill="none" stroke="black" points="54.5,-88 54.5,-114 121.5,-114 121.5,-88 54.5,-88"/>
<text text-anchor="start" x="59.12" y="-95.7" font-family="Courier New" font-size="14.00">decimal</text>
</g>
<!-- Node_140 -->
<g id="node5" class="node">
<title>Node_140</title>
<polygon fill="#f2f2f2" stroke="none" points="306,-228 181,-228 181,-176 306,-176 306,-228"/>
<polygon fill="none" stroke="black" points="181,-202 181,-228 306,-228 306,-202 181,-202"/>
<text text-anchor="start" x="185.75" y="-210.7" font-family="Courier New" font-weight="bold" font-size="14.00">StatementsNode</text>
<polygon fill="none" stroke="black" points="181,-176 181,-202 306,-202 306,-176 181,-176"/>
<text text-anchor="start" x="186" y="-183.7" font-family="Courier New" font-size="14.00">body</text>
</g>
<!-- Node_100&#45;&gt;Node_140 -->
<g id="edge5" class="edge">
<title>Node_100:statements&#45;&gt;Node_140</title>
<path fill="none" stroke="black" d="M243.5,-264C243.5,-255.85 243.5,-247.08 243.5,-238.8"/>
<polygon fill="black" stroke="black" points="247,-238.93 243.5,-228.93 240,-238.93 247,-238.93"/>
</g>
<!-- Node_140_body -->
<g id="node8" class="node">
<title>Node_140_body</title>
<ellipse fill="#f2f2f2" stroke="black" cx="243.5" cy="-114" rx="1.8" ry="1.8"/>
</g>
<!-- Node_140&#45;&gt;Node_140_body -->
<g id="edge6" class="edge">
<title>Node_140:body&#45;&gt;Node_140_body</title>
<path fill="none" stroke="black" d="M243.5,-176C243.5,-158.92 243.5,-139.14 243.5,-126.85"/>
<polygon fill="black" stroke="black" points="247,-126.86 243.5,-116.86 240,-126.86 247,-126.86"/>
</g>
<!-- Node_160 -->
<g id="node6" class="node">
<title>Node_160</title>
<polygon fill="#f2f2f2" stroke="none" points="302.5,-52 184.5,-52 184.5,0 302.5,0 302.5,-52"/>
<polygon fill="none" stroke="black" points="184.5,-26 184.5,-52 302.5,-52 302.5,-26 184.5,-26"/>
<text text-anchor="start" x="198.12" y="-34.7" font-family="Courier New" font-weight="bold" font-size="14.00">IntegerNode</text>
<polygon fill="none" stroke="black" points="184.5,0 184.5,-26 235.5,-26 235.5,0 184.5,0"/>
<text text-anchor="start" x="189.38" y="-7.7" font-family="Courier New" font-size="14.00">flags</text>
<polygon fill="none" stroke="black" points="235.5,0 235.5,-26 302.5,-26 302.5,0 235.5,0"/>
<text text-anchor="start" x="240.12" y="-7.7" font-family="Courier New" font-size="14.00">decimal</text>
</g>
<!-- Node_80_body&#45;&gt;Node_120 -->
<g id="edge4" class="edge">
<title>Node_80_body&#45;&gt;Node_120</title>
<path fill="none" stroke="black" d="M62.5,-199.78C62.5,-194.32 62.5,-171.36 62.5,-150.72"/>
<polygon fill="black" stroke="black" points="66,-150.93 62.5,-140.93 59,-150.93 66,-150.93"/>
</g>
<!-- Node_140_body&#45;&gt;Node_160 -->
<g id="edge7" class="edge">
<title>Node_140_body&#45;&gt;Node_160</title>
<path fill="none" stroke="black" d="M243.5,-111.78C243.5,-106.32 243.5,-83.36 243.5,-62.72"/>
<polygon fill="black" stroke="black" points="247,-62.93 243.5,-52.93 240,-62.93 247,-62.93"/>
</g>
</g>
</svg>
