<?xml version="1.0" encoding="UTF-8" standalone="no"?>
<!DOCTYPE svg PUBLIC "-//W3C//DTD SVG 1.1//EN"
 "http://www.w3.org/Graphics/SVG/1.1/DTD/svg11.dtd">
<!-- Generated by graphviz version 8.1.0 (20230707.0739)
 -->
<!-- Title: Prism Pages: 1 -->
<svg width="224pt" height="354pt"
 viewBox="0.00 0.00 223.87 353.60" xmlns="http://www.w3.org/2000/svg" xmlns:xlink="http://www.w3.org/1999/xlink">
<g id="graph0" class="graph" transform="scale(1 1) rotate(0) translate(4 349.6)">
<title>Prism</title>
<polygon fill="white" stroke="none" points="-4,4 -4,-349.6 219.87,-349.6 219.87,4 -4,4"/>
<!-- Node_60 -->
<g id="node1" class="node">
<title>Node_60</title>
<polygon fill="#f2f2f2" stroke="none" points="204.5,-345.6 4.5,-345.6 4.5,-241.6 204.5,-241.6 204.5,-345.6"/>
<polygon fill="none" stroke="black" points="4.5,-319.6 4.5,-345.6 204.5,-345.6 204.5,-319.6 4.5,-319.6"/>
<text text-anchor="start" x="13.75" y="-328.3" font-family="Courier New" font-weight="bold" font-size="14.00">InterpolatedStringNode</text>
<polygon fill="none" stroke="black" points="4.5,-293.6 4.5,-319.6 104.5,-319.6 104.5,-293.6 4.5,-293.6"/>
<text text-anchor="start" x="9.12" y="-301.3" font-family="Courier New" font-size="14.00">opening_loc</text>
<polygon fill="none" stroke="black" points="104.5,-293.6 104.5,-319.6 204.5,-319.6 204.5,-293.6 104.5,-293.6"/>
<text text-anchor="start" x="109.12" y="-301.3" font-family="Courier New" font-size="14.00">(1,0)&#45;(1,1)</text>
<polygon fill="none" stroke="black" points="4.5,-267.6 4.5,-293.6 204.5,-293.6 204.5,-267.6 4.5,-267.6"/>
<text text-anchor="start" x="9.5" y="-275.3" font-family="Courier New" font-size="14.00">parts</text>
<polygon fill="none" stroke="black" points="4.5,-241.6 4.5,-267.6 104.5,-267.6 104.5,-241.6 4.5,-241.6"/>
<text text-anchor="start" x="9.12" y="-249.3" font-family="Courier New" font-size="14.00">closing_loc</text>
<polygon fill="none" stroke="black" points="104.5,-241.6 104.5,-267.6 204.5,-267.6 204.5,-241.6 104.5,-241.6"/>
<text text-anchor="start" x="109.12" y="-249.3" font-family="Courier New" font-size="14.00">(1,6)&#45;(1,7)</text>
</g>
<!-- Node_60_parts -->
<g id="node4" class="node">
<title>Node_60_parts</title>
<ellipse fill="#f2f2f2" stroke="black" cx="104.5" cy="-203.8" rx="1.8" ry="1.8"/>
</g>
<!-- Node_60&#45;&gt;Node_60_parts -->
<g id="edge1" class="edge">
<title>Node_60:parts&#45;&gt;Node_60_parts</title>
<path fill="none" stroke="black" d="M205.5,-280.6C222.84,-280.6 214.6,-255.69 204.5,-241.6 184.09,-213.12 139.14,-206.64 117.14,-205.19"/>
<polygon fill="black" stroke="black" points="117.44,-201.67 107.31,-204.79 117.18,-208.66 117.44,-201.67"/>
</g>
<!-- Node_80 -->
<g id="node2" class="node">
<title>Node_80</title>
<polygon fill="#f2f2f2" stroke="none" points="209,-166 0,-166 0,-88 209,-88 209,-166"/>
<polygon fill="none" stroke="black" points="0,-140 0,-166 209,-166 209,-140 0,-140"/>
<text text-anchor="start" x="22" y="-148.7" font-family="Courier New" font-weight="bold" font-size="14.00">EmbeddedVariableNode</text>
<polygon fill="none" stroke="black" points="0,-114 0,-140 109,-140 109,-114 0,-114"/>
<text text-anchor="start" x="5" y="-121.7" font-family="Courier New" font-size="14.00">operator_loc</text>
<polygon fill="none" stroke="black" points="109,-114 109,-140 209,-140 209,-114 109,-114"/>
<text text-anchor="start" x="113.62" y="-121.7" font-family="Courier New" font-size="14.00">(1,1)&#45;(1,2)</text>
<polygon fill="none" stroke="black" points="0,-88 0,-114 209,-114 209,-88 0,-88"/>
<text text-anchor="start" x="5" y="-95.7" font-family="Courier New" font-size="14.00">variable</text>
</g>
<!-- Node_100 -->
<g id="node3" class="node">
<title>Node_100</title>
<polygon fill="#f2f2f2" stroke="none" points="208.5,-52 0.5,-52 0.5,0 208.5,0 208.5,-52"/>
<polygon fill="none" stroke="black" points="0.5,-26 0.5,-52 208.5,-52 208.5,-26 0.5,-26"/>
<text text-anchor="start" x="5.5" y="-34.7" font-family="Courier New" font-weight="bold" font-size="14.00">InstanceVariableReadNode</text>
<polygon fill="none" stroke="black" points="0.5,0 0.5,-26 100.5,-26 100.5,0 0.5,0"/>
<text text-anchor="start" x="5.5" y="-7.7" font-family="Courier New" font-size="14.00">name</text>
<polygon fill="none" stroke="black" points="100.5,0 100.5,-26 208.5,-26 208.5,0 100.5,0"/>
<text text-anchor="start" x="133.88" y="-7.7" font-family="Courier New" font-size="14.00">:@foo</text>
</g>
<!-- Node_80&#45;&gt;Node_100 -->
<g id="edge3" class="edge">
<title>Node_80:variable&#45;&gt;Node_100</title>
<path fill="none" stroke="black" d="M104.5,-88C104.5,-79.85 104.5,-71.08 104.5,-62.8"/>
<polygon fill="black" stroke="black" points="108,-62.93 104.5,-52.93 101,-62.93 108,-62.93"/>
</g>
<!-- Node_60_parts&#45;&gt;Node_80 -->
<g id="edge2" class="edge">
<title>Node_60_parts&#45;&gt;Node_80</title>
<path fill="none" stroke="black" d="M104.5,-201.5C104.5,-198.06 104.5,-188.15 104.5,-176.69"/>
<polygon fill="black" stroke="black" points="108,-176.87 104.5,-166.87 101,-176.87 108,-176.87"/>
</g>
</g>
</svg>
