<?xml version="1.0" encoding="UTF-8" standalone="no"?>
<!DOCTYPE svg PUBLIC "-//W3C//DTD SVG 1.1//EN"
 "http://www.w3.org/Graphics/SVG/1.1/DTD/svg11.dtd">
<!-- Generated by graphviz version 8.1.0 (20230707.0739)
 -->
<!-- Title: Prism Pages: 1 -->
<svg width="386pt" height="252pt"
 viewBox="0.00 0.00 385.50 252.00" xmlns="http://www.w3.org/2000/svg" xmlns:xlink="http://www.w3.org/1999/xlink">
<g id="graph0" class="graph" transform="scale(1 1) rotate(0) translate(4 248)">
<title>Prism</title>
<polygon fill="white" stroke="none" points="-4,4 -4,-248 381.5,-248 381.5,4 -4,4"/>
<!-- Node_60 -->
<g id="node1" class="node">
<title>Node_60</title>
<polygon fill="#f2f2f2" stroke="none" points="312,-244 103,-244 103,-140 312,-140 312,-244"/>
<polygon fill="none" stroke="black" points="103,-218 103,-244 312,-244 312,-218 103,-218"/>
<text text-anchor="start" x="133.25" y="-226.7" font-family="Courier New" font-weight="bold" font-size="14.00">MatchPredicateNode</text>
<polygon fill="none" stroke="black" points="103,-192 103,-218 312,-218 312,-192 103,-192"/>
<text text-anchor="start" x="108" y="-199.7" font-family="Courier New" font-size="14.00">value</text>
<polygon fill="none" stroke="black" points="103,-166 103,-192 312,-192 312,-166 103,-166"/>
<text text-anchor="start" x="108" y="-173.7" font-family="Courier New" font-size="14.00">pattern</text>
<polygon fill="none" stroke="black" points="103,-140 103,-166 212,-166 212,-140 103,-140"/>
<text text-anchor="start" x="108" y="-147.7" font-family="Courier New" font-size="14.00">operator_loc</text>
<polygon fill="none" stroke="black" points="212,-140 212,-166 312,-166 312,-140 212,-140"/>
<text text-anchor="start" x="216.62" y="-147.7" font-family="Courier New" font-size="14.00">(1,4)&#45;(1,6)</text>
</g>
<!-- Node_80 -->
<g id="node2" class="node">
<title>Node_80</title>
<polygon fill="#f2f2f2" stroke="none" points="217,-104 0,-104 0,0 217,0 217,-104"/>
<polygon fill="none" stroke="black" points="0,-78 0,-104 217,-104 217,-78 0,-78"/>
<text text-anchor="start" x="75.5" y="-86.7" font-family="Courier New" font-weight="bold" font-size="14.00">CallNode</text>
<polygon fill="none" stroke="black" points="0,-52 0,-78 100,-78 100,-52 0,-52"/>
<text text-anchor="start" x="5" y="-59.7" font-family="Courier New" font-size="14.00">flags</text>
<polygon fill="none" stroke="black" points="100,-52 100,-78 217,-78 217,-52 100,-52"/>
<text text-anchor="start" x="104.88" y="-59.7" font-family="Courier New" font-size="14.00">variable_call</text>
<polygon fill="none" stroke="black" points="0,-26 0,-52 100,-52 100,-26 0,-26"/>
<text text-anchor="start" x="5" y="-33.7" font-family="Courier New" font-size="14.00">name</text>
<polygon fill="none" stroke="black" points="100,-26 100,-52 217,-52 217,-26 100,-26"/>
<text text-anchor="start" x="142" y="-33.7" font-family="Courier New" font-size="14.00">:foo</text>
<polygon fill="none" stroke="black" points="0,0 0,-26 100,-26 100,0 0,0"/>
<text text-anchor="start" x="4.62" y="-7.7" font-family="Courier New" font-size="14.00">message_loc</text>
<polygon fill="none" stroke="black" points="100,0 100,-26 217,-26 217,0 100,0"/>
<text text-anchor="start" x="113.12" y="-7.7" font-family="Courier New" font-size="14.00">(1,0)&#45;(1,3)</text>
</g>
<!-- Node_60&#45;&gt;Node_80 -->
<g id="edge1" class="edge">
<title>Node_60:value&#45;&gt;Node_80</title>
<path fill="none" stroke="black" d="M101.5,-205C63.18,-205 70.53,-156.21 84.1,-113.91"/>
<polygon fill="black" stroke="black" points="87.69,-115.21 87.56,-104.61 81.06,-112.98 87.69,-115.21"/>
</g>
<!-- Node_100 -->
<g id="node3" class="node">
<title>Node_100</title>
<polygon fill="#f2f2f2" stroke="none" points="377.5,-78 235.5,-78 235.5,-26 377.5,-26 377.5,-78"/>
<polygon fill="none" stroke="black" points="235.5,-52 235.5,-78 377.5,-78 377.5,-52 235.5,-52"/>
<text text-anchor="start" x="240.5" y="-60.7" font-family="Courier New" font-weight="bold" font-size="14.00">ConstantReadNode</text>
<polygon fill="none" stroke="black" points="235.5,-26 235.5,-52 289.5,-52 289.5,-26 235.5,-26"/>
<text text-anchor="start" x="240.5" y="-33.7" font-family="Courier New" font-size="14.00">name</text>
<polygon fill="none" stroke="black" points="289.5,-26 289.5,-52 377.5,-52 377.5,-26 289.5,-26"/>
<text text-anchor="start" x="300.5" y="-33.7" font-family="Courier New" font-size="14.00">:Integer</text>
</g>
<!-- Node_60&#45;&gt;Node_100 -->
<g id="edge2" class="edge">
<title>Node_60:pattern&#45;&gt;Node_100</title>
<path fill="none" stroke="black" d="M313.5,-179C350.15,-179 335.91,-125.2 321.65,-87.92"/>
<polygon fill="black" stroke="black" points="324.61,-86.89 317.66,-78.89 318.1,-89.48 324.61,-86.89"/>
</g>
</g>
</svg>
