<?xml version="1.0" encoding="UTF-8" standalone="no"?>
<!DOCTYPE svg PUBLIC "-//W3C//DTD SVG 1.1//EN"
 "http://www.w3.org/Graphics/SVG/1.1/DTD/svg11.dtd">
<!-- Generated by graphviz version 8.1.0 (20230707.0739)
 -->
<!-- Title: Prism Pages: 1 -->
<svg width="301pt" height="252pt"
 viewBox="0.00 0.00 301.24 252.00" xmlns="http://www.w3.org/2000/svg" xmlns:xlink="http://www.w3.org/1999/xlink">
<g id="graph0" class="graph" transform="scale(1 1) rotate(0) translate(4 248)">
<title>Prism</title>
<polygon fill="white" stroke="none" points="-4,4 -4,-248 297.24,-248 297.24,4 -4,4"/>
<!-- Node_60 -->
<g id="node1" class="node">
<title>Node_60</title>
<polygon fill="#f2f2f2" stroke="none" points="282,-244 0,-244 0,-88 282,-88 282,-244"/>
<polygon fill="none" stroke="black" points="0,-218 0,-244 282,-244 282,-218 0,-218"/>
<text text-anchor="start" x="4.88" y="-226.7" font-family="Courier New" font-weight="bold" font-size="14.00">InstanceVariableOperatorWriteNode</text>
<polygon fill="none" stroke="black" points="0,-192 0,-218 145,-218 145,-192 0,-192"/>
<text text-anchor="start" x="5" y="-199.7" font-family="Courier New" font-size="14.00">name</text>
<polygon fill="none" stroke="black" points="145,-192 145,-218 282,-218 282,-192 145,-192"/>
<text text-anchor="start" x="192.88" y="-199.7" font-family="Courier New" font-size="14.00">:@foo</text>
<polygon fill="none" stroke="black" points="0,-166 0,-192 145,-192 145,-166 0,-166"/>
<text text-anchor="start" x="5" y="-173.7" font-family="Courier New" font-size="14.00">name_loc</text>
<polygon fill="none" stroke="black" points="145,-166 145,-192 282,-192 282,-166 145,-166"/>
<text text-anchor="start" x="168.12" y="-173.7" font-family="Courier New" font-size="14.00">(1,0)&#45;(1,4)</text>
<polygon fill="none" stroke="black" points="0,-140 0,-166 145,-166 145,-140 0,-140"/>
<text text-anchor="start" x="5" y="-147.7" font-family="Courier New" font-size="14.00">operator_loc</text>
<polygon fill="none" stroke="black" points="145,-140 145,-166 282,-166 282,-140 145,-140"/>
<text text-anchor="start" x="168.12" y="-147.7" font-family="Courier New" font-size="14.00">(1,5)&#45;(1,7)</text>
<polygon fill="none" stroke="black" points="0,-114 0,-140 282,-140 282,-114 0,-114"/>
<text text-anchor="start" x="5" y="-121.7" font-family="Courier New" font-size="14.00">value</text>
<polygon fill="none" stroke="black" points="0,-88 0,-114 145,-114 145,-88 0,-88"/>
<text text-anchor="start" x="5" y="-95.7" font-family="Courier New" font-size="14.00">operator</text>
<polygon fill="none" stroke="black" points="145,-88 145,-114 282,-114 282,-88 145,-88"/>
<text text-anchor="start" x="205.25" y="-95.7" font-family="Courier New" font-size="14.00">:+</text>
</g>
<!-- Node_80 -->
<g id="node2" class="node">
<title>Node_80</title>
<polygon fill="#f2f2f2" stroke="none" points="200,-52 82,-52 82,0 200,0 200,-52"/>
<polygon fill="none" stroke="black" points="82,-26 82,-52 200,-52 200,-26 82,-26"/>
<text text-anchor="start" x="95.62" y="-34.7" font-family="Courier New" font-weight="bold" font-size="14.00">IntegerNode</text>
<polygon fill="none" stroke="black" points="82,0 82,-26 133,-26 133,0 82,0"/>
<text text-anchor="start" x="86.88" y="-7.7" font-family="Courier New" font-size="14.00">flags</text>
<polygon fill="none" stroke="black" points="133,0 133,-26 200,-26 200,0 133,0"/>
<text text-anchor="start" x="137.62" y="-7.7" font-family="Courier New" font-size="14.00">decimal</text>
</g>
<!-- Node_60&#45;&gt;Node_80 -->
<g id="edge1" class="edge">
<title>Node_60:value&#45;&gt;Node_80</title>
<path fill="none" stroke="black" d="M283,-127C300.34,-127 291.71,-102.37 282,-88 265.52,-63.6 237.03,-48.9 209.96,-40.07"/>
<polygon fill="black" stroke="black" points="211.26,-36.51 200.68,-36.97 209.24,-43.21 211.26,-36.51"/>
</g>
</g>
</svg>
