<?xml version="1.0" encoding="UTF-8" standalone="no"?>
<!DOCTYPE svg PUBLIC "-//W3C//DTD SVG 1.1//EN"
 "http://www.w3.org/Graphics/SVG/1.1/DTD/svg11.dtd">
<!-- Generated by graphviz version 8.1.0 (20230707.0739)
 -->
<!-- Title: Prism Pages: 1 -->
<svg width="739pt" height="418pt"
 viewBox="0.00 0.00 739.00 418.00" xmlns="http://www.w3.org/2000/svg" xmlns:xlink="http://www.w3.org/1999/xlink">
<g id="graph0" class="graph" transform="scale(1 1) rotate(0) translate(4 414)">
<title>Prism</title>
<polygon fill="white" stroke="none" points="-4,4 -4,-414 735,-414 735,4 -4,4"/>
<!-- Node_60 -->
<g id="node1" class="node">
<title>Node_60</title>
<polygon fill="#f2f2f2" stroke="none" points="512.5,-410 286.5,-410 286.5,-254 512.5,-254 512.5,-410"/>
<polygon fill="none" stroke="black" points="286.5,-384 286.5,-410 512.5,-410 512.5,-384 286.5,-384"/>
<text text-anchor="start" x="341.75" y="-392.7" font-family="Courier New" font-weight="bold" font-size="14.00">MultiWriteNode</text>
<polygon fill="none" stroke="black" points="286.5,-358 286.5,-384 512.5,-384 512.5,-358 286.5,-358"/>
<text text-anchor="start" x="291.5" y="-365.7" font-family="Courier New" font-size="14.00">lefts</text>
<polygon fill="none" stroke="black" points="286.5,-332 286.5,-358 512.5,-358 512.5,-332 286.5,-332"/>
<text text-anchor="start" x="291.5" y="-339.7" font-family="Courier New" font-size="14.00">rest</text>
<polygon fill="none" stroke="black" points="286.5,-306 286.5,-332 512.5,-332 512.5,-306 286.5,-306"/>
<text text-anchor="start" x="291.5" y="-313.7" font-family="Courier New" font-size="14.00">rights</text>
<polygon fill="none" stroke="black" points="286.5,-280 286.5,-306 395.5,-306 395.5,-280 286.5,-280"/>
<text text-anchor="start" x="291.5" y="-287.7" font-family="Courier New" font-size="14.00">operator_loc</text>
<polygon fill="none" stroke="black" points="395.5,-280 395.5,-306 512.5,-306 512.5,-280 395.5,-280"/>
<text text-anchor="start" x="400.38" y="-287.7" font-family="Courier New" font-size="14.00">(1,12)&#45;(1,13)</text>
<polygon fill="none" stroke="black" points="286.5,-254 286.5,-280 512.5,-280 512.5,-254 286.5,-254"/>
<text text-anchor="start" x="291.5" y="-261.7" font-family="Courier New" font-size="14.00">value</text>
</g>
<!-- Node_100 -->
<g id="node3" class="node">
<title>Node_100</title>
<polygon fill="#f2f2f2" stroke="none" points="209,-192 0,-192 0,-140 209,-140 209,-192"/>
<polygon fill="none" stroke="black" points="0,-166 0,-192 209,-192 209,-166 0,-166"/>
<text text-anchor="start" x="67.38" y="-174.7" font-family="Courier New" font-weight="bold" font-size="14.00">SplatNode</text>
<polygon fill="none" stroke="black" points="0,-140 0,-166 109,-166 109,-140 0,-140"/>
<text text-anchor="start" x="5" y="-147.7" font-family="Courier New" font-size="14.00">operator_loc</text>
<polygon fill="none" stroke="black" points="109,-140 109,-166 209,-166 209,-140 109,-140"/>
<text text-anchor="start" x="113.62" y="-147.7" font-family="Courier New" font-size="14.00">(1,5)&#45;(1,6)</text>
</g>
<!-- Node_60&#45;&gt;Node_100 -->
<g id="edge3" class="edge">
<title>Node_60:rest&#45;&gt;Node_100</title>
<path fill="none" stroke="black" d="M285.5,-345C204.52,-345 146.54,-253.29 120.26,-201.53"/>
<polygon fill="black" stroke="black" points="123,-200.17 115.43,-192.75 116.72,-203.27 123,-200.17"/>
</g>
<!-- Node_140 -->
<g id="node5" class="node">
<title>Node_140</title>
<polygon fill="#f2f2f2" stroke="none" points="444,-218 227,-218 227,-114 444,-114 444,-218"/>
<polygon fill="none" stroke="black" points="227,-192 227,-218 444,-218 444,-192 227,-192"/>
<text text-anchor="start" x="302.5" y="-200.7" font-family="Courier New" font-weight="bold" font-size="14.00">CallNode</text>
<polygon fill="none" stroke="black" points="227,-166 227,-192 327,-192 327,-166 227,-166"/>
<text text-anchor="start" x="232" y="-173.7" font-family="Courier New" font-size="14.00">flags</text>
<polygon fill="none" stroke="black" points="327,-166 327,-192 444,-192 444,-166 327,-166"/>
<text text-anchor="start" x="331.88" y="-173.7" font-family="Courier New" font-size="14.00">variable_call</text>
<polygon fill="none" stroke="black" points="227,-140 227,-166 327,-166 327,-140 227,-140"/>
<text text-anchor="start" x="232" y="-147.7" font-family="Courier New" font-size="14.00">name</text>
<polygon fill="none" stroke="black" points="327,-140 327,-166 444,-166 444,-140 327,-140"/>
<text text-anchor="start" x="369" y="-147.7" font-family="Courier New" font-size="14.00">:baz</text>
<polygon fill="none" stroke="black" points="227,-114 227,-140 327,-140 327,-114 227,-114"/>
<text text-anchor="start" x="231.62" y="-121.7" font-family="Courier New" font-size="14.00">message_loc</text>
<polygon fill="none" stroke="black" points="327,-114 327,-140 444,-140 444,-114 327,-114"/>
<text text-anchor="start" x="331.88" y="-121.7" font-family="Courier New" font-size="14.00">(1,14)&#45;(1,17)</text>
</g>
<!-- Node_60&#45;&gt;Node_140 -->
<g id="edge6" class="edge">
<title>Node_60:value&#45;&gt;Node_140</title>
<path fill="none" stroke="black" d="M399.5,-254C399.5,-244.7 397.1,-235.74 393.22,-227.33"/>
<polygon fill="black" stroke="black" points="395.88,-225.88 388.06,-218.74 389.72,-229.2 395.88,-225.88"/>
</g>
<!-- Node_60_lefts -->
<g id="node6" class="node">
<title>Node_60_lefts</title>
<ellipse fill="#f2f2f2" stroke="black" cx="463.5" cy="-166" rx="1.8" ry="1.8"/>
</g>
<!-- Node_60&#45;&gt;Node_60_lefts -->
<g id="edge1" class="edge">
<title>Node_60:lefts&#45;&gt;Node_60_lefts</title>
<path fill="none" stroke="black" d="M513.5,-371C594.44,-371 497.42,-217.62 470.2,-176.85"/>
<polygon fill="black" stroke="black" points="472.65,-175.22 464.13,-168.91 466.85,-179.15 472.65,-175.22"/>
</g>
<!-- Node_60_rights -->
<g id="node7" class="node">
<title>Node_60_rights</title>
<ellipse fill="#f2f2f2" stroke="black" cx="582.5" cy="-166" rx="1.8" ry="1.8"/>
</g>
<!-- Node_60&#45;&gt;Node_60_rights -->
<g id="edge4" class="edge">
<title>Node_60:rights&#45;&gt;Node_60_rights</title>
<path fill="none" stroke="black" d="M513.5,-319C575.1,-319 581.97,-214.22 582.54,-178.65"/>
<polygon fill="black" stroke="black" points="586.03,-178.97 582.53,-168.97 579.03,-178.97 586.03,-178.97"/>
</g>
<!-- Node_80 -->
<g id="node2" class="node">
<title>Node_80</title>
<polygon fill="#f2f2f2" stroke="none" points="514,-78 315,-78 315,0 514,0 514,-78"/>
<polygon fill="none" stroke="black" points="315,-52 315,-78 514,-78 514,-52 315,-52"/>
<text text-anchor="start" x="319.62" y="-60.7" font-family="Courier New" font-weight="bold" font-size="14.00">LocalVariableTargetNode</text>
<polygon fill="none" stroke="black" points="315,-26 315,-52 418,-52 418,-26 315,-26"/>
<text text-anchor="start" x="320" y="-33.7" font-family="Courier New" font-size="14.00">name</text>
<polygon fill="none" stroke="black" points="418,-26 418,-52 514,-52 514,-26 418,-26"/>
<text text-anchor="start" x="449.5" y="-33.7" font-family="Courier New" font-size="14.00">:foo</text>
<polygon fill="none" stroke="black" points="315,0 315,-26 418,-26 418,0 315,0"/>
<text text-anchor="start" x="320" y="-7.7" font-family="Courier New" font-size="14.00">depth</text>
<polygon fill="none" stroke="black" points="418,0 418,-26 514,-26 514,0 418,0"/>
<text text-anchor="start" x="461.88" y="-7.7" font-family="Courier New" font-size="14.00">0</text>
</g>
<!-- Node_120 -->
<g id="node4" class="node">
<title>Node_120</title>
<polygon fill="#f2f2f2" stroke="none" points="731,-78 532,-78 532,0 731,0 731,-78"/>
<polygon fill="none" stroke="black" points="532,-52 532,-78 731,-78 731,-52 532,-52"/>
<text text-anchor="start" x="536.62" y="-60.7" font-family="Courier New" font-weight="bold" font-size="14.00">LocalVariableTargetNode</text>
<polygon fill="none" stroke="black" points="532,-26 532,-52 635,-52 635,-26 532,-26"/>
<text text-anchor="start" x="537" y="-33.7" font-family="Courier New" font-size="14.00">name</text>
<polygon fill="none" stroke="black" points="635,-26 635,-52 731,-52 731,-26 635,-26"/>
<text text-anchor="start" x="666.5" y="-33.7" font-family="Courier New" font-size="14.00">:bar</text>
<polygon fill="none" stroke="black" points="532,0 532,-26 635,-26 635,0 532,0"/>
<text text-anchor="start" x="537" y="-7.7" font-family="Courier New" font-size="14.00">depth</text>
<polygon fill="none" stroke="black" points="635,0 635,-26 731,-26 731,0 635,0"/>
<text text-anchor="start" x="678.88" y="-7.7" font-family="Courier New" font-size="14.00">0</text>
</g>
<!-- Node_60_lefts&#45;&gt;Node_80 -->
<g id="edge2" class="edge">
<title>Node_60_lefts&#45;&gt;Node_80</title>
<path fill="none" stroke="black" d="M463.44,-164.26C463.02,-159.59 460.47,-133.74 453.5,-114 450.37,-105.14 446.34,-96.04 442.05,-87.38"/>
<polygon fill="black" stroke="black" points="444.83,-86.12 437.14,-78.83 438.6,-89.32 444.83,-86.12"/>
</g>
<!-- Node_60_rights&#45;&gt;Node_120 -->
<g id="edge5" class="edge">
<title>Node_60_rights&#45;&gt;Node_120</title>
<path fill="none" stroke="black" d="M582.81,-164.2C585.15,-158.25 600.1,-120.1 612.83,-87.63"/>
<polygon fill="black" stroke="black" points="616.3,-89.37 616.69,-78.78 609.78,-86.81 616.3,-89.37"/>
</g>
</g>
</svg>
