<?xml version="1.0" encoding="UTF-8" standalone="no"?>
<!DOCTYPE svg PUBLIC "-//W3C//DTD SVG 1.1//EN"
 "http://www.w3.org/Graphics/SVG/1.1/DTD/svg11.dtd">
<!-- Generated by graphviz version 8.1.0 (20230707.0739)
 -->
<!-- Title: Prism Pages: 1 -->
<svg width="930pt" height="673pt"
 viewBox="0.00 0.00 930.00 673.20" xmlns="http://www.w3.org/2000/svg" xmlns:xlink="http://www.w3.org/1999/xlink">
<g id="graph0" class="graph" transform="scale(1 1) rotate(0) translate(4 669.2)">
<title>Prism</title>
<polygon fill="white" stroke="none" points="-4,4 -4,-669.2 926,-669.2 926,4 -4,4"/>
<!-- Node_60 -->
<g id="node1" class="node">
<title>Node_60</title>
<polygon fill="#f2f2f2" stroke="none" points="560.5,-665.2 360.5,-665.2 360.5,-561.2 560.5,-561.2 560.5,-665.2"/>
<polygon fill="none" stroke="black" points="360.5,-639.2 360.5,-665.2 560.5,-665.2 560.5,-639.2 360.5,-639.2"/>
<text text-anchor="start" x="398.62" y="-647.9" font-family="Courier New" font-weight="bold" font-size="14.00">AliasMethodNode</text>
<polygon fill="none" stroke="black" points="360.5,-613.2 360.5,-639.2 560.5,-639.2 560.5,-613.2 360.5,-613.2"/>
<text text-anchor="start" x="365.5" y="-620.9" font-family="Courier New" font-size="14.00">new_name</text>
<polygon fill="none" stroke="black" points="360.5,-587.2 360.5,-613.2 560.5,-613.2 560.5,-587.2 360.5,-587.2"/>
<text text-anchor="start" x="365.5" y="-594.9" font-family="Courier New" font-size="14.00">old_name</text>
<polygon fill="none" stroke="black" points="360.5,-561.2 360.5,-587.2 460.5,-587.2 460.5,-561.2 360.5,-561.2"/>
<text text-anchor="start" x="365.12" y="-568.9" font-family="Courier New" font-size="14.00">keyword_loc</text>
<polygon fill="none" stroke="black" points="460.5,-561.2 460.5,-587.2 560.5,-587.2 560.5,-561.2 460.5,-561.2"/>
<text text-anchor="start" x="465.12" y="-568.9" font-family="Courier New" font-size="14.00">(3,0)&#45;(3,5)</text>
</g>
<!-- Node_80 -->
<g id="node2" class="node">
<title>Node_80</title>
<polygon fill="#f2f2f2" stroke="none" points="452,-525.2 235,-525.2 235,-421.2 452,-421.2 452,-525.2"/>
<polygon fill="none" stroke="black" points="235,-499.2 235,-525.2 452,-525.2 452,-499.2 235,-499.2"/>
<text text-anchor="start" x="252.75" y="-507.9" font-family="Courier New" font-weight="bold" font-size="14.00">InterpolatedSymbolNode</text>
<polygon fill="none" stroke="black" points="235,-473.2 235,-499.2 335,-499.2 335,-473.2 235,-473.2"/>
<text text-anchor="start" x="239.62" y="-480.9" font-family="Courier New" font-size="14.00">opening_loc</text>
<polygon fill="none" stroke="black" points="335,-473.2 335,-499.2 452,-499.2 452,-473.2 335,-473.2"/>
<text text-anchor="start" x="348.12" y="-480.9" font-family="Courier New" font-size="14.00">(3,6)&#45;(3,8)</text>
<polygon fill="none" stroke="black" points="235,-447.2 235,-473.2 452,-473.2 452,-447.2 235,-447.2"/>
<text text-anchor="start" x="240" y="-454.9" font-family="Courier New" font-size="14.00">parts</text>
<polygon fill="none" stroke="black" points="235,-421.2 235,-447.2 335,-447.2 335,-421.2 235,-421.2"/>
<text text-anchor="start" x="239.62" y="-428.9" font-family="Courier New" font-size="14.00">closing_loc</text>
<polygon fill="none" stroke="black" points="335,-421.2 335,-447.2 452,-447.2 452,-421.2 335,-421.2"/>
<text text-anchor="start" x="339.88" y="-428.9" font-family="Courier New" font-size="14.00">(3,26)&#45;(3,27)</text>
</g>
<!-- Node_60&#45;&gt;Node_80 -->
<g id="edge1" class="edge">
<title>Node_60:new_name&#45;&gt;Node_80</title>
<path fill="none" stroke="black" d="M359.5,-626.2C321.1,-626.2 321,-577.61 328.18,-535.38"/>
<polygon fill="black" stroke="black" points="331.75,-536.28 330.14,-525.81 324.87,-535.01 331.75,-536.28"/>
</g>
<!-- Node_100 -->
<g id="node7" class="node">
<title>Node_100</title>
<polygon fill="#f2f2f2" stroke="none" points="687,-525.2 470,-525.2 470,-421.2 687,-421.2 687,-525.2"/>
<polygon fill="none" stroke="black" points="470,-499.2 470,-525.2 687,-525.2 687,-499.2 470,-499.2"/>
<text text-anchor="start" x="487.75" y="-507.9" font-family="Courier New" font-weight="bold" font-size="14.00">InterpolatedSymbolNode</text>
<polygon fill="none" stroke="black" points="470,-473.2 470,-499.2 570,-499.2 570,-473.2 470,-473.2"/>
<text text-anchor="start" x="474.62" y="-480.9" font-family="Courier New" font-size="14.00">opening_loc</text>
<polygon fill="none" stroke="black" points="570,-473.2 570,-499.2 687,-499.2 687,-473.2 570,-473.2"/>
<text text-anchor="start" x="574.88" y="-480.9" font-family="Courier New" font-size="14.00">(3,28)&#45;(3,30)</text>
<polygon fill="none" stroke="black" points="470,-447.2 470,-473.2 687,-473.2 687,-447.2 470,-447.2"/>
<text text-anchor="start" x="475" y="-454.9" font-family="Courier New" font-size="14.00">parts</text>
<polygon fill="none" stroke="black" points="470,-421.2 470,-447.2 570,-447.2 570,-421.2 470,-421.2"/>
<text text-anchor="start" x="474.62" y="-428.9" font-family="Courier New" font-size="14.00">closing_loc</text>
<polygon fill="none" stroke="black" points="570,-421.2 570,-447.2 687,-447.2 687,-421.2 570,-421.2"/>
<text text-anchor="start" x="574.88" y="-428.9" font-family="Courier New" font-size="14.00">(3,48)&#45;(3,49)</text>
</g>
<!-- Node_60&#45;&gt;Node_100 -->
<g id="edge2" class="edge">
<title>Node_60:old_name&#45;&gt;Node_100</title>
<path fill="none" stroke="black" d="M561.5,-600.2C590.16,-600.2 594.12,-567.8 591.07,-535.85"/>
<polygon fill="black" stroke="black" points="594.44,-535.6 589.79,-526.09 587.49,-536.43 594.44,-535.6"/>
</g>
<!-- Node_80_parts -->
<g id="node12" class="node">
<title>Node_80_parts</title>
<ellipse fill="#f2f2f2" stroke="black" cx="343.5" cy="-383.4" rx="1.8" ry="1.8"/>
</g>
<!-- Node_80&#45;&gt;Node_80_parts -->
<g id="edge3" class="edge">
<title>Node_80:parts&#45;&gt;Node_80_parts</title>
<path fill="none" stroke="black" d="M453.5,-460.2C462.17,-460.2 457.65,-428.18 452.5,-421.2 429.73,-390.32 379.74,-385.06 356.22,-384.36"/>
<polygon fill="black" stroke="black" points="356.48,-380.86 346.47,-384.33 356.46,-387.86 356.48,-380.86"/>
</g>
<!-- Node_120 -->
<g id="node3" class="node">
<title>Node_120</title>
<polygon fill="#f2f2f2" stroke="none" points="217,-345.6 0,-345.6 0,-241.6 217,-241.6 217,-345.6"/>
<polygon fill="none" stroke="black" points="0,-319.6 0,-345.6 217,-345.6 217,-319.6 0,-319.6"/>
<text text-anchor="start" x="17.75" y="-328.3" font-family="Courier New" font-weight="bold" font-size="14.00">EmbeddedStatementsNode</text>
<polygon fill="none" stroke="black" points="0,-293.6 0,-319.6 100,-319.6 100,-293.6 0,-293.6"/>
<text text-anchor="start" x="4.62" y="-301.3" font-family="Courier New" font-size="14.00">opening_loc</text>
<polygon fill="none" stroke="black" points="100,-293.6 100,-319.6 217,-319.6 217,-293.6 100,-293.6"/>
<text text-anchor="start" x="109" y="-301.3" font-family="Courier New" font-size="14.00">(3,8)&#45;(3,10)</text>
<polygon fill="none" stroke="black" points="0,-267.6 0,-293.6 217,-293.6 217,-267.6 0,-267.6"/>
<text text-anchor="start" x="5" y="-275.3" font-family="Courier New" font-size="14.00">statements</text>
<polygon fill="none" stroke="black" points="0,-241.6 0,-267.6 100,-267.6 100,-241.6 0,-241.6"/>
<text text-anchor="start" x="4.62" y="-249.3" font-family="Courier New" font-size="14.00">closing_loc</text>
<polygon fill="none" stroke="black" points="100,-241.6 100,-267.6 217,-267.6 217,-241.6 100,-241.6"/>
<text text-anchor="start" x="104.88" y="-249.3" font-family="Courier New" font-size="14.00">(3,20)&#45;(3,21)</text>
</g>
<!-- Node_160 -->
<g id="node4" class="node">
<title>Node_160</title>
<polygon fill="#f2f2f2" stroke="none" points="171,-205.6 46,-205.6 46,-153.6 171,-153.6 171,-205.6"/>
<polygon fill="none" stroke="black" points="46,-179.6 46,-205.6 171,-205.6 171,-179.6 46,-179.6"/>
<text text-anchor="start" x="50.75" y="-188.3" font-family="Courier New" font-weight="bold" font-size="14.00">StatementsNode</text>
<polygon fill="none" stroke="black" points="46,-153.6 46,-179.6 171,-179.6 171,-153.6 46,-153.6"/>
<text text-anchor="start" x="51" y="-161.3" font-family="Courier New" font-size="14.00">body</text>
</g>
<!-- Node_120&#45;&gt;Node_160 -->
<g id="edge6" class="edge">
<title>Node_120:statements&#45;&gt;Node_160</title>
<path fill="none" stroke="black" d="M218.5,-280.6C227.17,-280.6 221.98,-249.02 217.5,-241.6 208.68,-226.99 194.99,-215.61 180.25,-206.83"/>
<polygon fill="black" stroke="black" points="182.42,-203.48 171.98,-201.71 179.03,-209.61 182.42,-203.48"/>
</g>
<!-- Node_160_body -->
<g id="node13" class="node">
<title>Node_160_body</title>
<ellipse fill="#f2f2f2" stroke="black" cx="108.5" cy="-115.8" rx="1.8" ry="1.8"/>
</g>
<!-- Node_160&#45;&gt;Node_160_body -->
<g id="edge7" class="edge">
<title>Node_160:body&#45;&gt;Node_160_body</title>
<path fill="none" stroke="black" d="M108.5,-153.6C108.5,-145.36 108.5,-136.09 108.5,-128.91"/>
<polygon fill="black" stroke="black" points="112,-128.94 108.5,-118.94 105,-128.94 112,-128.94"/>
</g>
<!-- Node_180 -->
<g id="node5" class="node">
<title>Node_180</title>
<polygon fill="#f2f2f2" stroke="none" points="200,-78 17,-78 17,0 200,0 200,-78"/>
<polygon fill="none" stroke="black" points="17,-52 17,-78 200,-78 200,-52 17,-52"/>
<text text-anchor="start" x="21.88" y="-60.7" font-family="Courier New" font-weight="bold" font-size="14.00">LocalVariableReadNode</text>
<polygon fill="none" stroke="black" points="17,-26 17,-52 84,-52 84,-26 17,-26"/>
<text text-anchor="start" x="22" y="-33.7" font-family="Courier New" font-size="14.00">name</text>
<polygon fill="none" stroke="black" points="84,-26 84,-52 200,-52 200,-26 84,-26"/>
<text text-anchor="start" x="96.62" y="-33.7" font-family="Courier New" font-size="14.00">:new_prefix</text>
<polygon fill="none" stroke="black" points="17,0 17,-26 84,-26 84,0 17,0"/>
<text text-anchor="start" x="22" y="-7.7" font-family="Courier New" font-size="14.00">depth</text>
<polygon fill="none" stroke="black" points="84,0 84,-26 200,-26 200,0 84,0"/>
<text text-anchor="start" x="137.88" y="-7.7" font-family="Courier New" font-size="14.00">0</text>
</g>
<!-- Node_140 -->
<g id="node6" class="node">
<title>Node_140</title>
<polygon fill="#f2f2f2" stroke="none" points="452,-345.6 235,-345.6 235,-241.6 452,-241.6 452,-345.6"/>
<polygon fill="none" stroke="black" points="235,-319.6 235,-345.6 452,-345.6 452,-319.6 235,-319.6"/>
<text text-anchor="start" x="302.25" y="-328.3" font-family="Courier New" font-weight="bold" font-size="14.00">StringNode</text>
<polygon fill="none" stroke="black" points="235,-293.6 235,-319.6 335,-319.6 335,-293.6 235,-293.6"/>
<text text-anchor="start" x="240" y="-301.3" font-family="Courier New" font-size="14.00">flags</text>
<polygon fill="none" stroke="black" points="335,-293.6 335,-319.6 452,-319.6 452,-293.6 335,-293.6"/>
<polygon fill="none" stroke="black" points="235,-267.6 235,-293.6 335,-293.6 335,-267.6 235,-267.6"/>
<text text-anchor="start" x="239.62" y="-275.3" font-family="Courier New" font-size="14.00">content_loc</text>
<polygon fill="none" stroke="black" points="335,-267.6 335,-293.6 452,-293.6 452,-267.6 335,-267.6"/>
<text text-anchor="start" x="339.88" y="-275.3" font-family="Courier New" font-size="14.00">(3,21)&#45;(3,26)</text>
<polygon fill="none" stroke="black" points="235,-241.6 235,-267.6 335,-267.6 335,-241.6 235,-241.6"/>
<text text-anchor="start" x="240" y="-249.3" font-family="Courier New" font-size="14.00">unescaped</text>
<polygon fill="none" stroke="black" points="335,-241.6 335,-267.6 452,-267.6 452,-241.6 335,-241.6"/>
<text text-anchor="start" x="364.62" y="-249.3" font-family="Courier New" font-size="14.00">&quot;_name&quot;</text>
</g>
<!-- Node_100_parts -->
<g id="node14" class="node">
<title>Node_100_parts</title>
<ellipse fill="#f2f2f2" stroke="black" cx="578.5" cy="-383.4" rx="1.8" ry="1.8"/>
</g>
<!-- Node_100&#45;&gt;Node_100_parts -->
<g id="edge9" class="edge">
<title>Node_100:parts&#45;&gt;Node_100_parts</title>
<path fill="none" stroke="black" d="M688.5,-460.2C705.84,-460.2 697.79,-435.15 687.5,-421.2 664.73,-390.32 614.74,-385.06 591.22,-384.36"/>
<polygon fill="black" stroke="black" points="591.48,-380.86 581.47,-384.33 591.46,-387.86 591.48,-380.86"/>
</g>
<!-- Node_200 -->
<g id="node8" class="node">
<title>Node_200</title>
<polygon fill="#f2f2f2" stroke="none" points="687,-345.6 470,-345.6 470,-241.6 687,-241.6 687,-345.6"/>
<polygon fill="none" stroke="black" points="470,-319.6 470,-345.6 687,-345.6 687,-319.6 470,-319.6"/>
<text text-anchor="start" x="487.75" y="-328.3" font-family="Courier New" font-weight="bold" font-size="14.00">EmbeddedStatementsNode</text>
<polygon fill="none" stroke="black" points="470,-293.6 470,-319.6 570,-319.6 570,-293.6 470,-293.6"/>
<text text-anchor="start" x="474.62" y="-301.3" font-family="Courier New" font-size="14.00">opening_loc</text>
<polygon fill="none" stroke="black" points="570,-293.6 570,-319.6 687,-319.6 687,-293.6 570,-293.6"/>
<text text-anchor="start" x="574.88" y="-301.3" font-family="Courier New" font-size="14.00">(3,30)&#45;(3,32)</text>
<polygon fill="none" stroke="black" points="470,-267.6 470,-293.6 687,-293.6 687,-267.6 470,-267.6"/>
<text text-anchor="start" x="475" y="-275.3" font-family="Courier New" font-size="14.00">statements</text>
<polygon fill="none" stroke="black" points="470,-241.6 470,-267.6 570,-267.6 570,-241.6 470,-241.6"/>
<text text-anchor="start" x="474.62" y="-249.3" font-family="Courier New" font-size="14.00">closing_loc</text>
<polygon fill="none" stroke="black" points="570,-241.6 570,-267.6 687,-267.6 687,-241.6 570,-241.6"/>
<text text-anchor="start" x="574.88" y="-249.3" font-family="Courier New" font-size="14.00">(3,42)&#45;(3,43)</text>
</g>
<!-- Node_240 -->
<g id="node9" class="node">
<title>Node_240</title>
<polygon fill="#f2f2f2" stroke="none" points="641,-205.6 516,-205.6 516,-153.6 641,-153.6 641,-205.6"/>
<polygon fill="none" stroke="black" points="516,-179.6 516,-205.6 641,-205.6 641,-179.6 516,-179.6"/>
<text text-anchor="start" x="520.75" y="-188.3" font-family="Courier New" font-weight="bold" font-size="14.00">StatementsNode</text>
<polygon fill="none" stroke="black" points="516,-153.6 516,-179.6 641,-179.6 641,-153.6 516,-153.6"/>
<text text-anchor="start" x="521" y="-161.3" font-family="Courier New" font-size="14.00">body</text>
</g>
<!-- Node_200&#45;&gt;Node_240 -->
<g id="edge12" class="edge">
<title>Node_200:statements&#45;&gt;Node_240</title>
<path fill="none" stroke="black" d="M688.5,-280.6C697.17,-280.6 691.98,-249.02 687.5,-241.6 678.68,-226.99 664.99,-215.61 650.25,-206.83"/>
<polygon fill="black" stroke="black" points="652.42,-203.48 641.98,-201.71 649.03,-209.61 652.42,-203.48"/>
</g>
<!-- Node_240_body -->
<g id="node15" class="node">
<title>Node_240_body</title>
<ellipse fill="#f2f2f2" stroke="black" cx="578.5" cy="-115.8" rx="1.8" ry="1.8"/>
</g>
<!-- Node_240&#45;&gt;Node_240_body -->
<g id="edge13" class="edge">
<title>Node_240:body&#45;&gt;Node_240_body</title>
<path fill="none" stroke="black" d="M578.5,-153.6C578.5,-145.36 578.5,-136.09 578.5,-128.91"/>
<polygon fill="black" stroke="black" points="582,-128.94 578.5,-118.94 575,-128.94 582,-128.94"/>
</g>
<!-- Node_260 -->
<g id="node10" class="node">
<title>Node_260</title>
<polygon fill="#f2f2f2" stroke="none" points="670,-78 487,-78 487,0 670,0 670,-78"/>
<polygon fill="none" stroke="black" points="487,-52 487,-78 670,-78 670,-52 487,-52"/>
<text text-anchor="start" x="491.88" y="-60.7" font-family="Courier New" font-weight="bold" font-size="14.00">LocalVariableReadNode</text>
<polygon fill="none" stroke="black" points="487,-26 487,-52 554,-52 554,-26 487,-26"/>
<text text-anchor="start" x="492" y="-33.7" font-family="Courier New" font-size="14.00">name</text>
<polygon fill="none" stroke="black" points="554,-26 554,-52 670,-52 670,-26 554,-26"/>
<text text-anchor="start" x="566.62" y="-33.7" font-family="Courier New" font-size="14.00">:old_prefix</text>
<polygon fill="none" stroke="black" points="487,0 487,-26 554,-26 554,0 487,0"/>
<text text-anchor="start" x="492" y="-7.7" font-family="Courier New" font-size="14.00">depth</text>
<polygon fill="none" stroke="black" points="554,0 554,-26 670,-26 670,0 554,0"/>
<text text-anchor="start" x="607.88" y="-7.7" font-family="Courier New" font-size="14.00">0</text>
</g>
<!-- Node_220 -->
<g id="node11" class="node">
<title>Node_220</title>
<polygon fill="#f2f2f2" stroke="none" points="922,-345.6 705,-345.6 705,-241.6 922,-241.6 922,-345.6"/>
<polygon fill="none" stroke="black" points="705,-319.6 705,-345.6 922,-345.6 922,-319.6 705,-319.6"/>
<text text-anchor="start" x="772.25" y="-328.3" font-family="Courier New" font-weight="bold" font-size="14.00">StringNode</text>
<polygon fill="none" stroke="black" points="705,-293.6 705,-319.6 805,-319.6 805,-293.6 705,-293.6"/>
<text text-anchor="start" x="710" y="-301.3" font-family="Courier New" font-size="14.00">flags</text>
<polygon fill="none" stroke="black" points="805,-293.6 805,-319.6 922,-319.6 922,-293.6 805,-293.6"/>
<polygon fill="none" stroke="black" points="705,-267.6 705,-293.6 805,-293.6 805,-267.6 705,-267.6"/>
<text text-anchor="start" x="709.62" y="-275.3" font-family="Courier New" font-size="14.00">content_loc</text>
<polygon fill="none" stroke="black" points="805,-267.6 805,-293.6 922,-293.6 922,-267.6 805,-267.6"/>
<text text-anchor="start" x="809.88" y="-275.3" font-family="Courier New" font-size="14.00">(3,43)&#45;(3,48)</text>
<polygon fill="none" stroke="black" points="705,-241.6 705,-267.6 805,-267.6 805,-241.6 705,-241.6"/>
<text text-anchor="start" x="710" y="-249.3" font-family="Courier New" font-size="14.00">unescaped</text>
<polygon fill="none" stroke="black" points="805,-241.6 805,-267.6 922,-267.6 922,-241.6 805,-241.6"/>
<text text-anchor="start" x="834.62" y="-249.3" font-family="Courier New" font-size="14.00">&quot;_name&quot;</text>
</g>
<!-- Node_80_parts&#45;&gt;Node_120 -->
<g id="edge4" class="edge">
<title>Node_80_parts&#45;&gt;Node_120</title>
<path fill="none" stroke="black" d="M341.81,-381.95C331.8,-379.26 279.12,-364.88 226.8,-345.97"/>
<polygon fill="black" stroke="black" points="228.29,-342.42 217.7,-342.26 225.87,-348.99 228.29,-342.42"/>
</g>
<!-- Node_80_parts&#45;&gt;Node_140 -->
<g id="edge5" class="edge">
<title>Node_80_parts&#45;&gt;Node_140</title>
<path fill="none" stroke="black" d="M343.5,-381.16C343.5,-377.81 343.5,-368.01 343.5,-356.16"/>
<polygon fill="black" stroke="black" points="347,-356.32 343.5,-346.32 340,-356.32 347,-356.32"/>
</g>
<!-- Node_160_body&#45;&gt;Node_180 -->
<g id="edge8" class="edge">
<title>Node_160_body&#45;&gt;Node_180</title>
<path fill="none" stroke="black" d="M108.5,-113.5C108.5,-110.06 108.5,-100.15 108.5,-88.69"/>
<polygon fill="black" stroke="black" points="112,-88.87 108.5,-78.87 105,-88.87 112,-88.87"/>
</g>
<!-- Node_100_parts&#45;&gt;Node_200 -->
<g id="edge10" class="edge">
<title>Node_100_parts&#45;&gt;Node_200</title>
<path fill="none" stroke="black" d="M578.5,-381.16C578.5,-377.81 578.5,-368.01 578.5,-356.16"/>
<polygon fill="black" stroke="black" points="582,-356.32 578.5,-346.32 575,-356.32 582,-356.32"/>
</g>
<!-- Node_100_parts&#45;&gt;Node_220 -->
<g id="edge11" class="edge">
<title>Node_100_parts&#45;&gt;Node_220</title>
<path fill="none" stroke="black" d="M580.19,-381.95C590.2,-379.26 642.88,-364.88 695.2,-345.97"/>
<polygon fill="black" stroke="black" points="696.13,-348.99 704.3,-342.26 693.71,-342.42 696.13,-348.99"/>
</g>
<!-- Node_240_body&#45;&gt;Node_260 -->
<g id="edge14" class="edge">
<title>Node_240_body&#45;&gt;Node_260</title>
<path fill="none" stroke="black" d="M578.5,-113.5C578.5,-110.06 578.5,-100.15 578.5,-88.69"/>
<polygon fill="black" stroke="black" points="582,-88.87 578.5,-78.87 575,-88.87 582,-88.87"/>
</g>
</g>
</svg>
