<?xml version="1.0" encoding="UTF-8" standalone="no"?>
<!DOCTYPE svg PUBLIC "-//W3C//DTD SVG 1.1//EN"
 "http://www.w3.org/Graphics/SVG/1.1/DTD/svg11.dtd">
<!-- Generated by graphviz version 8.1.0 (20230707.0739)
 -->
<!-- Title: Prism Pages: 1 -->
<svg width="460pt" height="304pt"
 viewBox="0.00 0.00 460.00 304.00" xmlns="http://www.w3.org/2000/svg" xmlns:xlink="http://www.w3.org/1999/xlink">
<g id="graph0" class="graph" transform="scale(1 1) rotate(0) translate(4 300)">
<title>Prism</title>
<polygon fill="white" stroke="none" points="-4,4 -4,-300 456,-300 456,4 -4,4"/>
<!-- Node_60 -->
<g id="node1" class="node">
<title>Node_60</title>
<polygon fill="#f2f2f2" stroke="none" points="330,-296 121,-296 121,-192 330,-192 330,-296"/>
<polygon fill="none" stroke="black" points="121,-270 121,-296 330,-296 330,-270 121,-270"/>
<text text-anchor="start" x="151.25" y="-278.7" font-family="Courier New" font-weight="bold" font-size="14.00">RescueModifierNode</text>
<polygon fill="none" stroke="black" points="121,-244 121,-270 330,-270 330,-244 121,-244"/>
<text text-anchor="start" x="126" y="-251.7" font-family="Courier New" font-size="14.00">expression</text>
<polygon fill="none" stroke="black" points="121,-218 121,-244 221,-244 221,-218 121,-218"/>
<text text-anchor="start" x="125.62" y="-225.7" font-family="Courier New" font-size="14.00">keyword_loc</text>
<polygon fill="none" stroke="black" points="221,-218 221,-244 330,-244 330,-218 221,-218"/>
<text text-anchor="start" x="226" y="-225.7" font-family="Courier New" font-size="14.00">(1,4)&#45;(1,10)</text>
<polygon fill="none" stroke="black" points="121,-192 121,-218 330,-218 330,-192 121,-192"/>
<text text-anchor="start" x="126" y="-199.7" font-family="Courier New" font-size="14.00">rescue_expression</text>
</g>
<!-- Node_80 -->
<g id="node2" class="node">
<title>Node_80</title>
<polygon fill="#f2f2f2" stroke="none" points="217,-130 0,-130 0,-26 217,-26 217,-130"/>
<polygon fill="none" stroke="black" points="0,-104 0,-130 217,-130 217,-104 0,-104"/>
<text text-anchor="start" x="75.5" y="-112.7" font-family="Courier New" font-weight="bold" font-size="14.00">CallNode</text>
<polygon fill="none" stroke="black" points="0,-78 0,-104 100,-104 100,-78 0,-78"/>
<text text-anchor="start" x="5" y="-85.7" font-family="Courier New" font-size="14.00">flags</text>
<polygon fill="none" stroke="black" points="100,-78 100,-104 217,-104 217,-78 100,-78"/>
<text text-anchor="start" x="104.88" y="-85.7" font-family="Courier New" font-size="14.00">variable_call</text>
<polygon fill="none" stroke="black" points="0,-52 0,-78 100,-78 100,-52 0,-52"/>
<text text-anchor="start" x="5" y="-59.7" font-family="Courier New" font-size="14.00">name</text>
<polygon fill="none" stroke="black" points="100,-52 100,-78 217,-78 217,-52 100,-52"/>
<text text-anchor="start" x="142" y="-59.7" font-family="Courier New" font-size="14.00">:foo</text>
<polygon fill="none" stroke="black" points="0,-26 0,-52 100,-52 100,-26 0,-26"/>
<text text-anchor="start" x="4.62" y="-33.7" font-family="Courier New" font-size="14.00">message_loc</text>
<polygon fill="none" stroke="black" points="100,-26 100,-52 217,-52 217,-26 100,-26"/>
<text text-anchor="start" x="113.12" y="-33.7" font-family="Courier New" font-size="14.00">(1,0)&#45;(1,3)</text>
</g>
<!-- Node_60&#45;&gt;Node_80 -->
<g id="edge1" class="edge">
<title>Node_60:expression&#45;&gt;Node_80</title>
<path fill="none" stroke="black" d="M119.5,-257C71.42,-257 77.62,-191.49 89.95,-139.96"/>
<polygon fill="black" stroke="black" points="93.52,-141.08 92.57,-130.53 86.74,-139.38 93.52,-141.08"/>
</g>
<!-- Node_100 -->
<g id="node3" class="node">
<title>Node_100</title>
<polygon fill="#f2f2f2" stroke="none" points="452,-156 235,-156 235,0 452,0 452,-156"/>
<polygon fill="none" stroke="black" points="235,-130 235,-156 452,-156 452,-130 235,-130"/>
<text text-anchor="start" x="302.25" y="-138.7" font-family="Courier New" font-weight="bold" font-size="14.00">StringNode</text>
<polygon fill="none" stroke="black" points="235,-104 235,-130 335,-130 335,-104 235,-104"/>
<text text-anchor="start" x="240" y="-111.7" font-family="Courier New" font-size="14.00">flags</text>
<polygon fill="none" stroke="black" points="335,-104 335,-130 452,-130 452,-104 335,-104"/>
<polygon fill="none" stroke="black" points="235,-78 235,-104 335,-104 335,-78 235,-78"/>
<text text-anchor="start" x="239.62" y="-85.7" font-family="Courier New" font-size="14.00">opening_loc</text>
<polygon fill="none" stroke="black" points="335,-78 335,-104 452,-104 452,-78 335,-78"/>
<text text-anchor="start" x="339.88" y="-85.7" font-family="Courier New" font-size="14.00">(1,11)&#45;(1,12)</text>
<polygon fill="none" stroke="black" points="235,-52 235,-78 335,-78 335,-52 235,-52"/>
<text text-anchor="start" x="239.62" y="-59.7" font-family="Courier New" font-size="14.00">content_loc</text>
<polygon fill="none" stroke="black" points="335,-52 335,-78 452,-78 452,-52 335,-52"/>
<text text-anchor="start" x="339.88" y="-59.7" font-family="Courier New" font-size="14.00">(1,12)&#45;(1,18)</text>
<polygon fill="none" stroke="black" points="235,-26 235,-52 335,-52 335,-26 235,-26"/>
<text text-anchor="start" x="239.62" y="-33.7" font-family="Courier New" font-size="14.00">closing_loc</text>
<polygon fill="none" stroke="black" points="335,-26 335,-52 452,-52 452,-26 335,-26"/>
<text text-anchor="start" x="339.88" y="-33.7" font-family="Courier New" font-size="14.00">(1,18)&#45;(1,19)</text>
<polygon fill="none" stroke="black" points="235,0 235,-26 335,-26 335,0 235,0"/>
<text text-anchor="start" x="240" y="-7.7" font-family="Courier New" font-size="14.00">unescaped</text>
<polygon fill="none" stroke="black" points="335,0 335,-26 452,-26 452,0 335,0"/>
<text text-anchor="start" x="360.5" y="-7.7" font-family="Courier New" font-size="14.00">&quot;error!&quot;</text>
</g>
<!-- Node_60&#45;&gt;Node_100 -->
<g id="edge2" class="edge">
<title>Node_60:rescue_expression&#45;&gt;Node_100</title>
<path fill="none" stroke="black" d="M331.5,-205C352.08,-205 359.21,-188.13 359.97,-166.74"/>
<polygon fill="black" stroke="black" points="363.46,-166.89 359.87,-156.92 356.46,-166.96 363.46,-166.89"/>
</g>
</g>
</svg>
