<?xml version="1.0" encoding="UTF-8" standalone="no"?>
<!DOCTYPE svg PUBLIC "-//W3C//DTD SVG 1.1//EN"
 "http://www.w3.org/Graphics/SVG/1.1/DTD/svg11.dtd">
<!-- Generated by graphviz version 8.1.0 (20230707.0739)
 -->
<!-- Title: Prism Pages: 1 -->
<svg width="226pt" height="304pt"
 viewBox="0.00 0.00 226.00 304.00" xmlns="http://www.w3.org/2000/svg" xmlns:xlink="http://www.w3.org/1999/xlink">
<g id="graph0" class="graph" transform="scale(1 1) rotate(0) translate(4 300)">
<title>Prism</title>
<polygon fill="white" stroke="none" points="-4,4 -4,-300 222,-300 222,4 -4,4"/>
<!-- Node_60 -->
<g id="node1" class="node">
<title>Node_60</title>
<polygon fill="#f2f2f2" stroke="none" points="171.5,-296 46.5,-296 46.5,-140 171.5,-140 171.5,-296"/>
<polygon fill="none" stroke="black" points="46.5,-270 46.5,-296 171.5,-296 171.5,-270 46.5,-270"/>
<text text-anchor="start" x="51.25" y="-278.7" font-family="Courier New" font-weight="bold" font-size="14.00">ParametersNode</text>
<polygon fill="none" stroke="black" points="46.5,-244 46.5,-270 137.5,-270 137.5,-244 46.5,-244"/>
<text text-anchor="start" x="51.5" y="-251.7" font-family="Courier New" font-size="14.00">requireds</text>
<polygon fill="none" stroke="black" points="137.5,-244 137.5,-270 171.5,-270 171.5,-244 137.5,-244"/>
<text text-anchor="start" x="146.25" y="-251.7" font-family="Courier New" font-size="14.00">[]</text>
<polygon fill="none" stroke="black" points="46.5,-218 46.5,-244 137.5,-244 137.5,-218 46.5,-218"/>
<text text-anchor="start" x="51.5" y="-225.7" font-family="Courier New" font-size="14.00">optionals</text>
<polygon fill="none" stroke="black" points="137.5,-218 137.5,-244 171.5,-244 171.5,-218 137.5,-218"/>
<text text-anchor="start" x="146.25" y="-225.7" font-family="Courier New" font-size="14.00">[]</text>
<polygon fill="none" stroke="black" points="46.5,-192 46.5,-218 137.5,-218 137.5,-192 46.5,-192"/>
<text text-anchor="start" x="51.5" y="-199.7" font-family="Courier New" font-size="14.00">posts</text>
<polygon fill="none" stroke="black" points="137.5,-192 137.5,-218 171.5,-218 171.5,-192 137.5,-192"/>
<text text-anchor="start" x="146.25" y="-199.7" font-family="Courier New" font-size="14.00">[]</text>
<polygon fill="none" stroke="black" points="46.5,-166 46.5,-192 137.5,-192 137.5,-166 46.5,-166"/>
<text text-anchor="start" x="51.5" y="-173.7" font-family="Courier New" font-size="14.00">keywords</text>
<polygon fill="none" stroke="black" points="137.5,-166 137.5,-192 171.5,-192 171.5,-166 137.5,-166"/>
<text text-anchor="start" x="146.25" y="-173.7" font-family="Courier New" font-size="14.00">[]</text>
<polygon fill="none" stroke="black" points="46.5,-140 46.5,-166 171.5,-166 171.5,-140 46.5,-140"/>
<text text-anchor="start" x="51.5" y="-147.7" font-family="Courier New" font-size="14.00">block</text>
</g>
<!-- Node_80 -->
<g id="node2" class="node">
<title>Node_80</title>
<polygon fill="#f2f2f2" stroke="none" points="218,-104 0,-104 0,0 218,0 218,-104"/>
<polygon fill="none" stroke="black" points="0,-78 0,-104 218,-104 218,-78 0,-78"/>
<text text-anchor="start" x="34.75" y="-86.7" font-family="Courier New" font-weight="bold" font-size="14.00">BlockParameterNode</text>
<polygon fill="none" stroke="black" points="0,-52 0,-78 109,-78 109,-52 0,-52"/>
<text text-anchor="start" x="5" y="-59.7" font-family="Courier New" font-size="14.00">name</text>
<polygon fill="none" stroke="black" points="109,-52 109,-78 218,-78 218,-52 109,-52"/>
<text text-anchor="start" x="147" y="-59.7" font-family="Courier New" font-size="14.00">:bar</text>
<polygon fill="none" stroke="black" points="0,-26 0,-52 109,-52 109,-26 0,-26"/>
<text text-anchor="start" x="5" y="-33.7" font-family="Courier New" font-size="14.00">name_loc</text>
<polygon fill="none" stroke="black" points="109,-26 109,-52 218,-52 218,-26 109,-26"/>
<text text-anchor="start" x="114" y="-33.7" font-family="Courier New" font-size="14.00">(1,9)&#45;(1,12)</text>
<polygon fill="none" stroke="black" points="0,0 0,-26 109,-26 109,0 0,0"/>
<text text-anchor="start" x="5" y="-7.7" font-family="Courier New" font-size="14.00">operator_loc</text>
<polygon fill="none" stroke="black" points="109,0 109,-26 218,-26 218,0 109,0"/>
<text text-anchor="start" x="118.12" y="-7.7" font-family="Courier New" font-size="14.00">(1,8)&#45;(1,9)</text>
</g>
<!-- Node_60&#45;&gt;Node_80 -->
<g id="edge1" class="edge">
<title>Node_60:block&#45;&gt;Node_80</title>
<path fill="none" stroke="black" d="M109,-140C109,-131.72 109,-122.99 109,-114.39"/>
<polygon fill="black" stroke="black" points="112.5,-114.6 109,-104.6 105.5,-114.6 112.5,-114.6"/>
</g>
</g>
</svg>
