<?xml version="1.0" encoding="UTF-8" standalone="no"?>
<!DOCTYPE svg PUBLIC "-//W3C//DTD SVG 1.1//EN"
 "http://www.w3.org/Graphics/SVG/1.1/DTD/svg11.dtd">
<!-- Generated by graphviz version 8.1.0 (20230707.0739)
 -->
<!-- Title: Prism Pages: 1 -->
<svg width="319pt" height="562pt"
 viewBox="0.00 0.00 318.72 561.60" xmlns="http://www.w3.org/2000/svg" xmlns:xlink="http://www.w3.org/1999/xlink">
<g id="graph0" class="graph" transform="scale(1 1) rotate(0) translate(4 557.6)">
<title>Prism</title>
<polygon fill="white" stroke="none" points="-4,4 -4,-557.6 314.72,-557.6 314.72,4 -4,4"/>
<!-- Node_60 -->
<g id="node1" class="node">
<title>Node_60</title>
<polygon fill="#f2f2f2" stroke="none" points="267,-553.6 0,-553.6 0,-293.6 267,-293.6 267,-553.6"/>
<polygon fill="none" stroke="black" points="0,-527.6 0,-553.6 267,-553.6 267,-527.6 0,-527.6"/>
<text text-anchor="start" x="104.62" y="-536.3" font-family="Courier New" font-weight="bold" font-size="14.00">DefNode</text>
<polygon fill="none" stroke="black" points="0,-501.6 0,-527.6 150,-527.6 150,-501.6 0,-501.6"/>
<text text-anchor="start" x="5" y="-509.3" font-family="Courier New" font-size="14.00">name</text>
<polygon fill="none" stroke="black" points="150,-501.6 150,-527.6 267,-527.6 267,-501.6 150,-501.6"/>
<text text-anchor="start" x="192" y="-509.3" font-family="Courier New" font-size="14.00">:foo</text>
<polygon fill="none" stroke="black" points="0,-475.6 0,-501.6 150,-501.6 150,-475.6 0,-475.6"/>
<text text-anchor="start" x="5" y="-483.3" font-family="Courier New" font-size="14.00">name_loc</text>
<polygon fill="none" stroke="black" points="150,-475.6 150,-501.6 267,-501.6 267,-475.6 150,-475.6"/>
<text text-anchor="start" x="163.12" y="-483.3" font-family="Courier New" font-size="14.00">(1,4)&#45;(1,7)</text>
<polygon fill="none" stroke="black" points="0,-449.6 0,-475.6 267,-475.6 267,-449.6 0,-449.6"/>
<text text-anchor="start" x="5" y="-457.3" font-family="Courier New" font-size="14.00">parameters</text>
<polygon fill="none" stroke="black" points="0,-423.6 0,-449.6 150,-449.6 150,-423.6 0,-423.6"/>
<text text-anchor="start" x="5" y="-431.3" font-family="Courier New" font-size="14.00">locals</text>
<polygon fill="none" stroke="black" points="150,-423.6 150,-449.6 267,-449.6 267,-423.6 150,-423.6"/>
<text text-anchor="start" x="183.75" y="-431.3" font-family="Courier New" font-size="14.00">[:bar]</text>
<polygon fill="none" stroke="black" points="0,-397.6 0,-423.6 150,-423.6 150,-397.6 0,-397.6"/>
<text text-anchor="start" x="4.88" y="-405.3" font-family="Courier New" font-size="14.00">locals_body_index</text>
<polygon fill="none" stroke="black" points="150,-397.6 150,-423.6 267,-423.6 267,-397.6 150,-397.6"/>
<text text-anchor="start" x="204.38" y="-405.3" font-family="Courier New" font-size="14.00">1</text>
<polygon fill="none" stroke="black" points="0,-371.6 0,-397.6 150,-397.6 150,-371.6 0,-371.6"/>
<text text-anchor="start" x="5" y="-379.3" font-family="Courier New" font-size="14.00">def_keyword_loc</text>
<polygon fill="none" stroke="black" points="150,-371.6 150,-397.6 267,-397.6 267,-371.6 150,-371.6"/>
<text text-anchor="start" x="163.12" y="-379.3" font-family="Courier New" font-size="14.00">(1,0)&#45;(1,3)</text>
<polygon fill="none" stroke="black" points="0,-345.6 0,-371.6 150,-371.6 150,-345.6 0,-345.6"/>
<text text-anchor="start" x="5" y="-353.3" font-family="Courier New" font-size="14.00">lparen_loc</text>
<polygon fill="none" stroke="black" points="150,-345.6 150,-371.6 267,-371.6 267,-345.6 150,-345.6"/>
<text text-anchor="start" x="163.12" y="-353.3" font-family="Courier New" font-size="14.00">(1,7)&#45;(1,8)</text>
<polygon fill="none" stroke="black" points="0,-319.6 0,-345.6 150,-345.6 150,-319.6 0,-319.6"/>
<text text-anchor="start" x="5" y="-327.3" font-family="Courier New" font-size="14.00">rparen_loc</text>
<polygon fill="none" stroke="black" points="150,-319.6 150,-345.6 267,-345.6 267,-319.6 150,-319.6"/>
<text text-anchor="start" x="154.88" y="-327.3" font-family="Courier New" font-size="14.00">(1,11)&#45;(1,12)</text>
<polygon fill="none" stroke="black" points="0,-293.6 0,-319.6 150,-319.6 150,-293.6 0,-293.6"/>
<text text-anchor="start" x="5" y="-301.3" font-family="Courier New" font-size="14.00">end_keyword_loc</text>
<polygon fill="none" stroke="black" points="150,-293.6 150,-319.6 267,-319.6 267,-293.6 150,-293.6"/>
<text text-anchor="start" x="163.12" y="-301.3" font-family="Courier New" font-size="14.00">(2,0)&#45;(2,3)</text>
</g>
<!-- Node_80 -->
<g id="node2" class="node">
<title>Node_80</title>
<polygon fill="#f2f2f2" stroke="none" points="196,-257.6 71,-257.6 71,-127.6 196,-127.6 196,-257.6"/>
<polygon fill="none" stroke="black" points="71,-231.6 71,-257.6 196,-257.6 196,-231.6 71,-231.6"/>
<text text-anchor="start" x="75.75" y="-240.3" font-family="Courier New" font-weight="bold" font-size="14.00">ParametersNode</text>
<polygon fill="none" stroke="black" points="71,-205.6 71,-231.6 196,-231.6 196,-205.6 71,-205.6"/>
<text text-anchor="start" x="76" y="-213.3" font-family="Courier New" font-size="14.00">requireds</text>
<polygon fill="none" stroke="black" points="71,-179.6 71,-205.6 162,-205.6 162,-179.6 71,-179.6"/>
<text text-anchor="start" x="76" y="-187.3" font-family="Courier New" font-size="14.00">optionals</text>
<polygon fill="none" stroke="black" points="162,-179.6 162,-205.6 196,-205.6 196,-179.6 162,-179.6"/>
<text text-anchor="start" x="170.75" y="-187.3" font-family="Courier New" font-size="14.00">[]</text>
<polygon fill="none" stroke="black" points="71,-153.6 71,-179.6 162,-179.6 162,-153.6 71,-153.6"/>
<text text-anchor="start" x="76" y="-161.3" font-family="Courier New" font-size="14.00">posts</text>
<polygon fill="none" stroke="black" points="162,-153.6 162,-179.6 196,-179.6 196,-153.6 162,-153.6"/>
<text text-anchor="start" x="170.75" y="-161.3" font-family="Courier New" font-size="14.00">[]</text>
<polygon fill="none" stroke="black" points="71,-127.6 71,-153.6 162,-153.6 162,-127.6 71,-127.6"/>
<text text-anchor="start" x="76" y="-135.3" font-family="Courier New" font-size="14.00">keywords</text>
<polygon fill="none" stroke="black" points="162,-127.6 162,-153.6 196,-153.6 196,-127.6 162,-127.6"/>
<text text-anchor="start" x="170.75" y="-135.3" font-family="Courier New" font-size="14.00">[]</text>
</g>
<!-- Node_60&#45;&gt;Node_80 -->
<g id="edge1" class="edge">
<title>Node_60:parameters&#45;&gt;Node_80</title>
<path fill="none" stroke="black" d="M268.5,-462.6C343.61,-462.6 301.37,-360.64 267.5,-293.6 253.92,-266.72 229.33,-245.2 204.9,-229.11"/>
<polygon fill="black" stroke="black" points="207.24,-225.82 196.92,-223.43 203.5,-231.74 207.24,-225.82"/>
</g>
<!-- Node_80_requireds -->
<g id="node4" class="node">
<title>Node_80_requireds</title>
<ellipse fill="#f2f2f2" stroke="black" cx="133.5" cy="-89.8" rx="1.8" ry="1.8"/>
</g>
<!-- Node_80&#45;&gt;Node_80_requireds -->
<g id="edge2" class="edge">
<title>Node_80:requireds&#45;&gt;Node_80_requireds</title>
<path fill="none" stroke="black" d="M197.5,-218.6C237.95,-218.6 216.83,-162.57 196.5,-127.6 185.5,-108.68 160.65,-98.54 145.66,-93.94"/>
<polygon fill="black" stroke="black" points="146.64,-90.31 136.08,-91.13 144.84,-97.08 146.64,-90.31"/>
</g>
<!-- Node_100 -->
<g id="node3" class="node">
<title>Node_100</title>
<polygon fill="#f2f2f2" stroke="none" points="225,-52 42,-52 42,0 225,0 225,-52"/>
<polygon fill="none" stroke="black" points="42,-26 42,-52 225,-52 225,-26 42,-26"/>
<text text-anchor="start" x="46.88" y="-34.7" font-family="Courier New" font-weight="bold" font-size="14.00">RequiredParameterNode</text>
<polygon fill="none" stroke="black" points="42,0 42,-26 133,-26 133,0 42,0"/>
<text text-anchor="start" x="47" y="-7.7" font-family="Courier New" font-size="14.00">name</text>
<polygon fill="none" stroke="black" points="133,0 133,-26 225,-26 225,0 133,0"/>
<text text-anchor="start" x="162.5" y="-7.7" font-family="Courier New" font-size="14.00">:bar</text>
</g>
<!-- Node_80_requireds&#45;&gt;Node_100 -->
<g id="edge3" class="edge">
<title>Node_80_requireds&#45;&gt;Node_100</title>
<path fill="none" stroke="black" d="M133.5,-87.73C133.5,-84.45 133.5,-74.09 133.5,-62.84"/>
<polygon fill="black" stroke="black" points="137,-62.97 133.5,-52.97 130,-62.98 137,-62.97"/>
</g>
</g>
</svg>
