<?xml version="1.0" encoding="UTF-8" standalone="no"?>
<!DOCTYPE svg PUBLIC "-//W3C//DTD SVG 1.1//EN"
 "http://www.w3.org/Graphics/SVG/1.1/DTD/svg11.dtd">
<!-- Generated by graphviz version 8.1.0 (20230707.0739)
 -->
<!-- Title: Prism Pages: 1 -->
<svg width="375pt" height="418pt"
 viewBox="0.00 0.00 374.50 418.00" xmlns="http://www.w3.org/2000/svg" xmlns:xlink="http://www.w3.org/1999/xlink">
<g id="graph0" class="graph" transform="scale(1 1) rotate(0) translate(4 414)">
<title>Prism</title>
<polygon fill="white" stroke="none" points="-4,4 -4,-414 370.5,-414 370.5,4 -4,4"/>
<!-- Node_60 -->
<g id="node1" class="node">
<title>Node_60</title>
<polygon fill="#f2f2f2" stroke="none" points="241.5,-410 116.5,-410 116.5,-254 241.5,-254 241.5,-410"/>
<polygon fill="none" stroke="black" points="116.5,-384 116.5,-410 241.5,-410 241.5,-384 116.5,-384"/>
<text text-anchor="start" x="121.25" y="-392.7" font-family="Courier New" font-weight="bold" font-size="14.00">ParametersNode</text>
<polygon fill="none" stroke="black" points="116.5,-358 116.5,-384 207.5,-384 207.5,-358 116.5,-358"/>
<text text-anchor="start" x="121.5" y="-365.7" font-family="Courier New" font-size="14.00">requireds</text>
<polygon fill="none" stroke="black" points="207.5,-358 207.5,-384 241.5,-384 241.5,-358 207.5,-358"/>
<text text-anchor="start" x="216.25" y="-365.7" font-family="Courier New" font-size="14.00">[]</text>
<polygon fill="none" stroke="black" points="116.5,-332 116.5,-358 207.5,-358 207.5,-332 116.5,-332"/>
<text text-anchor="start" x="121.5" y="-339.7" font-family="Courier New" font-size="14.00">optionals</text>
<polygon fill="none" stroke="black" points="207.5,-332 207.5,-358 241.5,-358 241.5,-332 207.5,-332"/>
<text text-anchor="start" x="216.25" y="-339.7" font-family="Courier New" font-size="14.00">[]</text>
<polygon fill="none" stroke="black" points="116.5,-306 116.5,-332 207.5,-332 207.5,-306 116.5,-306"/>
<text text-anchor="start" x="121.5" y="-313.7" font-family="Courier New" font-size="14.00">posts</text>
<polygon fill="none" stroke="black" points="207.5,-306 207.5,-332 241.5,-332 241.5,-306 207.5,-306"/>
<text text-anchor="start" x="216.25" y="-313.7" font-family="Courier New" font-size="14.00">[]</text>
<polygon fill="none" stroke="black" points="116.5,-280 116.5,-306 241.5,-306 241.5,-280 116.5,-280"/>
<text text-anchor="start" x="121.5" y="-287.7" font-family="Courier New" font-size="14.00">keywords</text>
<polygon fill="none" stroke="black" points="116.5,-254 116.5,-280 241.5,-280 241.5,-254 116.5,-254"/>
<text text-anchor="start" x="121.5" y="-261.7" font-family="Courier New" font-size="14.00">keyword_rest</text>
</g>
<!-- Node_100 -->
<g id="node3" class="node">
<title>Node_100</title>
<polygon fill="#f2f2f2" stroke="none" points="226,-218 0,-218 0,-114 226,-114 226,-218"/>
<polygon fill="none" stroke="black" points="0,-192 0,-218 226,-218 226,-192 0,-192"/>
<text text-anchor="start" x="14" y="-200.7" font-family="Courier New" font-weight="bold" font-size="14.00">KeywordRestParameterNode</text>
<polygon fill="none" stroke="black" points="0,-166 0,-192 109,-192 109,-166 0,-166"/>
<text text-anchor="start" x="5" y="-173.7" font-family="Courier New" font-size="14.00">name</text>
<polygon fill="none" stroke="black" points="109,-166 109,-192 226,-192 226,-166 109,-166"/>
<text text-anchor="start" x="151" y="-173.7" font-family="Courier New" font-size="14.00">:baz</text>
<polygon fill="none" stroke="black" points="0,-140 0,-166 109,-166 109,-140 0,-140"/>
<text text-anchor="start" x="5" y="-147.7" font-family="Courier New" font-size="14.00">name_loc</text>
<polygon fill="none" stroke="black" points="109,-140 109,-166 226,-166 226,-140 109,-140"/>
<text text-anchor="start" x="113.88" y="-147.7" font-family="Courier New" font-size="14.00">(1,16)&#45;(1,19)</text>
<polygon fill="none" stroke="black" points="0,-114 0,-140 109,-140 109,-114 0,-114"/>
<text text-anchor="start" x="5" y="-121.7" font-family="Courier New" font-size="14.00">operator_loc</text>
<polygon fill="none" stroke="black" points="109,-114 109,-140 226,-140 226,-114 109,-114"/>
<text text-anchor="start" x="113.88" y="-121.7" font-family="Courier New" font-size="14.00">(1,14)&#45;(1,16)</text>
</g>
<!-- Node_60&#45;&gt;Node_100 -->
<g id="edge3" class="edge">
<title>Node_60:keyword_rest&#45;&gt;Node_100</title>
<path fill="none" stroke="black" d="M115,-267C96.21,-267 92.95,-249.13 95.44,-228.5"/>
<polygon fill="black" stroke="black" points="99.02,-229.31 97.15,-218.88 92.11,-228.19 99.02,-229.31"/>
</g>
<!-- Node_60_keywords -->
<g id="node4" class="node">
<title>Node_60_keywords</title>
<ellipse fill="#f2f2f2" stroke="black" cx="246" cy="-166" rx="1.8" ry="1.8"/>
</g>
<!-- Node_60&#45;&gt;Node_60_keywords -->
<g id="edge1" class="edge">
<title>Node_60:keywords&#45;&gt;Node_60_keywords</title>
<path fill="none" stroke="black" d="M243,-293C288.88,-293 261.61,-208.47 250.25,-177.88"/>
<polygon fill="black" stroke="black" points="253.22,-176.86 246.33,-168.8 246.69,-179.39 253.22,-176.86"/>
</g>
<!-- Node_80 -->
<g id="node2" class="node">
<title>Node_80</title>
<polygon fill="#f2f2f2" stroke="none" points="366.5,-78 125.5,-78 125.5,0 366.5,0 366.5,-78"/>
<polygon fill="none" stroke="black" points="125.5,-52 125.5,-78 366.5,-78 366.5,-52 125.5,-52"/>
<text text-anchor="start" x="130.5" y="-60.7" font-family="Courier New" font-weight="bold" font-size="14.00">RequiredKeywordParameterNode</text>
<polygon fill="none" stroke="black" points="125.5,-26 125.5,-52 229.5,-52 229.5,-26 125.5,-26"/>
<text text-anchor="start" x="130.5" y="-33.7" font-family="Courier New" font-size="14.00">name</text>
<polygon fill="none" stroke="black" points="229.5,-26 229.5,-52 366.5,-52 366.5,-26 229.5,-26"/>
<text text-anchor="start" x="281.5" y="-33.7" font-family="Courier New" font-size="14.00">:bar</text>
<polygon fill="none" stroke="black" points="125.5,0 125.5,-26 229.5,-26 229.5,0 125.5,0"/>
<text text-anchor="start" x="130.5" y="-7.7" font-family="Courier New" font-size="14.00">name_loc</text>
<polygon fill="none" stroke="black" points="229.5,0 229.5,-26 366.5,-26 366.5,0 229.5,0"/>
<text text-anchor="start" x="248.5" y="-7.7" font-family="Courier New" font-size="14.00">(1,8)&#45;(1,12)</text>
</g>
<!-- Node_60_keywords&#45;&gt;Node_80 -->
<g id="edge2" class="edge">
<title>Node_60_keywords&#45;&gt;Node_80</title>
<path fill="none" stroke="black" d="M246,-164.2C246,-158.3 246,-120.75 246,-88.47"/>
<polygon fill="black" stroke="black" points="249.5,-88.78 246,-78.78 242.5,-88.78 249.5,-88.78"/>
</g>
</g>
</svg>
