<?xml version="1.0" encoding="UTF-8" standalone="no"?>
<!DOCTYPE svg PUBLIC "-//W3C//DTD SVG 1.1//EN"
 "http://www.w3.org/Graphics/SVG/1.1/DTD/svg11.dtd">
<!-- Generated by graphviz version 8.1.0 (20230707.0739)
 -->
<!-- Title: Prism Pages: 1 -->
<svg width="232pt" height="226pt"
 viewBox="0.00 0.00 232.00 226.00" xmlns="http://www.w3.org/2000/svg" xmlns:xlink="http://www.w3.org/1999/xlink">
<g id="graph0" class="graph" transform="scale(1 1) rotate(0) translate(4 222)">
<title>Prism</title>
<polygon fill="white" stroke="none" points="-4,4 -4,-222 228,-222 228,4 -4,4"/>
<!-- Node_60 -->
<g id="node1" class="node">
<title>Node_60</title>
<polygon fill="#f2f2f2" stroke="none" points="224,-218 0,-218 0,-88 224,-88 224,-218"/>
<polygon fill="none" stroke="black" points="0,-192 0,-218 224,-218 224,-192 0,-192"/>
<text text-anchor="start" x="4.75" y="-200.7" font-family="Courier New" font-weight="bold" font-size="14.00">GlobalVariableAndWriteNode</text>
<polygon fill="none" stroke="black" points="0,-166 0,-192 116,-192 116,-166 0,-166"/>
<text text-anchor="start" x="5" y="-173.7" font-family="Courier New" font-size="14.00">name</text>
<polygon fill="none" stroke="black" points="116,-166 116,-192 224,-192 224,-166 116,-166"/>
<text text-anchor="start" x="149.38" y="-173.7" font-family="Courier New" font-size="14.00">:$foo</text>
<polygon fill="none" stroke="black" points="0,-140 0,-166 116,-166 116,-140 0,-140"/>
<text text-anchor="start" x="5" y="-147.7" font-family="Courier New" font-size="14.00">name_loc</text>
<polygon fill="none" stroke="black" points="116,-140 116,-166 224,-166 224,-140 116,-140"/>
<text text-anchor="start" x="124.62" y="-147.7" font-family="Courier New" font-size="14.00">(1,0)&#45;(1,4)</text>
<polygon fill="none" stroke="black" points="0,-114 0,-140 116,-140 116,-114 0,-114"/>
<text text-anchor="start" x="5" y="-121.7" font-family="Courier New" font-size="14.00">operator_loc</text>
<polygon fill="none" stroke="black" points="116,-114 116,-140 224,-140 224,-114 116,-114"/>
<text text-anchor="start" x="124.62" y="-121.7" font-family="Courier New" font-size="14.00">(1,5)&#45;(1,8)</text>
<polygon fill="none" stroke="black" points="0,-88 0,-114 224,-114 224,-88 0,-88"/>
<text text-anchor="start" x="5" y="-95.7" font-family="Courier New" font-size="14.00">value</text>
</g>
<!-- Node_80 -->
<g id="node2" class="node">
<title>Node_80</title>
<polygon fill="#f2f2f2" stroke="none" points="171,-52 53,-52 53,0 171,0 171,-52"/>
<polygon fill="none" stroke="black" points="53,-26 53,-52 171,-52 171,-26 53,-26"/>
<text text-anchor="start" x="66.62" y="-34.7" font-family="Courier New" font-weight="bold" font-size="14.00">IntegerNode</text>
<polygon fill="none" stroke="black" points="53,0 53,-26 104,-26 104,0 53,0"/>
<text text-anchor="start" x="57.88" y="-7.7" font-family="Courier New" font-size="14.00">flags</text>
<polygon fill="none" stroke="black" points="104,0 104,-26 171,-26 171,0 104,0"/>
<text text-anchor="start" x="108.62" y="-7.7" font-family="Courier New" font-size="14.00">decimal</text>
</g>
<!-- Node_60&#45;&gt;Node_80 -->
<g id="edge1" class="edge">
<title>Node_60:value&#45;&gt;Node_80</title>
<path fill="none" stroke="black" d="M112,-88C112,-79.85 112,-71.08 112,-62.8"/>
<polygon fill="black" stroke="black" points="115.5,-62.93 112,-52.93 108.5,-62.93 115.5,-62.93"/>
</g>
</g>
</svg>
