<?xml version="1.0" encoding="UTF-8" standalone="no"?>
<!DOCTYPE svg PUBLIC "-//W3C//DTD SVG 1.1//EN"
 "http://www.w3.org/Graphics/SVG/1.1/DTD/svg11.dtd">
<!-- Generated by graphviz version 8.1.0 (20230707.0739)
 -->
<!-- Title: Prism Pages: 1 -->
<svg width="276pt" height="252pt"
 viewBox="0.00 0.00 276.11 252.00" xmlns="http://www.w3.org/2000/svg" xmlns:xlink="http://www.w3.org/1999/xlink">
<g id="graph0" class="graph" transform="scale(1 1) rotate(0) translate(4 248)">
<title>Prism</title>
<polygon fill="white" stroke="none" points="-4,4 -4,-248 272.11,-248 272.11,4 -4,4"/>
<!-- Node_60 -->
<g id="node1" class="node">
<title>Node_60</title>
<polygon fill="#f2f2f2" stroke="none" points="250,-244 0,-244 0,-88 250,-88 250,-244"/>
<polygon fill="none" stroke="black" points="0,-218 0,-244 250,-244 250,-218 0,-218"/>
<text text-anchor="start" x="87.88" y="-226.7" font-family="Courier New" font-weight="bold" font-size="14.00">ClassNode</text>
<polygon fill="none" stroke="black" points="0,-192 0,-218 150,-218 150,-192 0,-192"/>
<text text-anchor="start" x="5" y="-199.7" font-family="Courier New" font-size="14.00">locals</text>
<polygon fill="none" stroke="black" points="150,-192 150,-218 250,-218 250,-192 150,-192"/>
<text text-anchor="start" x="191.75" y="-199.7" font-family="Courier New" font-size="14.00">[]</text>
<polygon fill="none" stroke="black" points="0,-166 0,-192 150,-192 150,-166 0,-166"/>
<text text-anchor="start" x="4.88" y="-173.7" font-family="Courier New" font-size="14.00">class_keyword_loc</text>
<polygon fill="none" stroke="black" points="150,-166 150,-192 250,-192 250,-166 150,-166"/>
<text text-anchor="start" x="154.62" y="-173.7" font-family="Courier New" font-size="14.00">(1,0)&#45;(1,5)</text>
<polygon fill="none" stroke="black" points="0,-140 0,-166 250,-166 250,-140 0,-140"/>
<text text-anchor="start" x="5" y="-147.7" font-family="Courier New" font-size="14.00">constant_path</text>
<polygon fill="none" stroke="black" points="0,-114 0,-140 150,-140 150,-114 0,-114"/>
<text text-anchor="start" x="5" y="-121.7" font-family="Courier New" font-size="14.00">end_keyword_loc</text>
<polygon fill="none" stroke="black" points="150,-114 150,-140 250,-140 250,-114 150,-114"/>
<text text-anchor="start" x="154.62" y="-121.7" font-family="Courier New" font-size="14.00">(2,0)&#45;(2,3)</text>
<polygon fill="none" stroke="black" points="0,-88 0,-114 150,-114 150,-88 0,-88"/>
<text text-anchor="start" x="5" y="-95.7" font-family="Courier New" font-size="14.00">name</text>
<polygon fill="none" stroke="black" points="150,-88 150,-114 250,-114 250,-88 150,-88"/>
<text text-anchor="start" x="183.5" y="-95.7" font-family="Courier New" font-size="14.00">:Foo</text>
</g>
<!-- Node_80 -->
<g id="node2" class="node">
<title>Node_80</title>
<polygon fill="#f2f2f2" stroke="none" points="196,-52 54,-52 54,0 196,0 196,-52"/>
<polygon fill="none" stroke="black" points="54,-26 54,-52 196,-52 196,-26 54,-26"/>
<text text-anchor="start" x="59" y="-34.7" font-family="Courier New" font-weight="bold" font-size="14.00">ConstantReadNode</text>
<polygon fill="none" stroke="black" points="54,0 54,-26 125,-26 125,0 54,0"/>
<text text-anchor="start" x="59" y="-7.7" font-family="Courier New" font-size="14.00">name</text>
<polygon fill="none" stroke="black" points="125,0 125,-26 196,-26 196,0 125,0"/>
<text text-anchor="start" x="144" y="-7.7" font-family="Courier New" font-size="14.00">:Foo</text>
</g>
<!-- Node_60&#45;&gt;Node_80 -->
<g id="edge1" class="edge">
<title>Node_60:constant_path&#45;&gt;Node_80</title>
<path fill="none" stroke="black" d="M251,-153C279.89,-153 265.5,-112.39 250,-88 239.51,-71.49 223.14,-59.32 205.67,-50.4"/>
<polygon fill="black" stroke="black" points="207.42,-46.88 196.88,-45.77 204.42,-53.21 207.42,-46.88"/>
</g>
</g>
</svg>
