<?xml version="1.0" encoding="UTF-8" standalone="no"?>
<!DOCTYPE svg PUBLIC "-//W3C//DTD SVG 1.1//EN"
 "http://www.w3.org/Graphics/SVG/1.1/DTD/svg11.dtd">
<!-- Generated by graphviz version 8.1.0 (20230707.0739)
 -->
<!-- Title: Prism Pages: 1 -->
<svg width="662pt" height="855pt"
 viewBox="0.00 0.00 662.00 855.20" xmlns="http://www.w3.org/2000/svg" xmlns:xlink="http://www.w3.org/1999/xlink">
<g id="graph0" class="graph" transform="scale(1 1) rotate(0) translate(4 851.2)">
<title>Prism</title>
<polygon fill="white" stroke="none" points="-4,4 -4,-851.2 658,-851.2 658,4 -4,4"/>
<!-- Node_60 -->
<g id="node1" class="node">
<title>Node_60</title>
<polygon fill="#f2f2f2" stroke="none" points="556.5,-847.2 323.5,-847.2 323.5,-717.2 556.5,-717.2 556.5,-847.2"/>
<polygon fill="none" stroke="black" points="323.5,-821.2 323.5,-847.2 556.5,-847.2 556.5,-821.2 323.5,-821.2"/>
<text text-anchor="start" x="415.25" y="-829.9" font-family="Courier New" font-weight="bold" font-size="14.00">IfNode</text>
<polygon fill="none" stroke="black" points="323.5,-795.2 323.5,-821.2 456.5,-821.2 456.5,-795.2 323.5,-795.2"/>
<text text-anchor="start" x="328.5" y="-802.9" font-family="Courier New" font-size="14.00">if_keyword_loc</text>
<polygon fill="none" stroke="black" points="456.5,-795.2 456.5,-821.2 556.5,-821.2 556.5,-795.2 456.5,-795.2"/>
<text text-anchor="start" x="461.12" y="-802.9" font-family="Courier New" font-size="14.00">(1,0)&#45;(1,2)</text>
<polygon fill="none" stroke="black" points="323.5,-769.2 323.5,-795.2 556.5,-795.2 556.5,-769.2 323.5,-769.2"/>
<text text-anchor="start" x="328.5" y="-776.9" font-family="Courier New" font-size="14.00">predicate</text>
<polygon fill="none" stroke="black" points="323.5,-743.2 323.5,-769.2 556.5,-769.2 556.5,-743.2 323.5,-743.2"/>
<text text-anchor="start" x="328.5" y="-750.9" font-family="Courier New" font-size="14.00">statements</text>
<polygon fill="none" stroke="black" points="323.5,-717.2 323.5,-743.2 456.5,-743.2 456.5,-717.2 323.5,-717.2"/>
<text text-anchor="start" x="328.12" y="-724.9" font-family="Courier New" font-size="14.00">end_keyword_loc</text>
<polygon fill="none" stroke="black" points="456.5,-717.2 456.5,-743.2 556.5,-743.2 556.5,-717.2 456.5,-717.2"/>
<text text-anchor="start" x="461.12" y="-724.9" font-family="Courier New" font-size="14.00">(3,0)&#45;(3,3)</text>
</g>
<!-- Node_80 -->
<g id="node2" class="node">
<title>Node_80</title>
<polygon fill="#f2f2f2" stroke="none" points="462.5,-681.2 213.5,-681.2 213.5,-551.2 462.5,-551.2 462.5,-681.2"/>
<polygon fill="none" stroke="black" points="213.5,-655.2 213.5,-681.2 462.5,-681.2 462.5,-655.2 213.5,-655.2"/>
<text text-anchor="start" x="218.38" y="-663.9" font-family="Courier New" font-weight="bold" font-size="14.00">InterpolatedMatchLastLineNode</text>
<polygon fill="none" stroke="black" points="213.5,-629.2 213.5,-655.2 329.5,-655.2 329.5,-629.2 213.5,-629.2"/>
<text text-anchor="start" x="218.5" y="-636.9" font-family="Courier New" font-size="14.00">flags</text>
<polygon fill="none" stroke="black" points="329.5,-629.2 329.5,-655.2 462.5,-655.2 462.5,-629.2 329.5,-629.2"/>
<polygon fill="none" stroke="black" points="213.5,-603.2 213.5,-629.2 329.5,-629.2 329.5,-603.2 213.5,-603.2"/>
<text text-anchor="start" x="218.5" y="-610.9" font-family="Courier New" font-size="14.00">opening_loc</text>
<polygon fill="none" stroke="black" points="329.5,-603.2 329.5,-629.2 462.5,-629.2 462.5,-603.2 329.5,-603.2"/>
<text text-anchor="start" x="350.62" y="-610.9" font-family="Courier New" font-size="14.00">(1,3)&#45;(1,4)</text>
<polygon fill="none" stroke="black" points="213.5,-577.2 213.5,-603.2 462.5,-603.2 462.5,-577.2 213.5,-577.2"/>
<text text-anchor="start" x="218.5" y="-584.9" font-family="Courier New" font-size="14.00">parts</text>
<polygon fill="none" stroke="black" points="213.5,-551.2 213.5,-577.2 329.5,-577.2 329.5,-551.2 213.5,-551.2"/>
<text text-anchor="start" x="218.5" y="-558.9" font-family="Courier New" font-size="14.00">closing_loc</text>
<polygon fill="none" stroke="black" points="329.5,-551.2 329.5,-577.2 462.5,-577.2 462.5,-551.2 329.5,-551.2"/>
<text text-anchor="start" x="342.38" y="-558.9" font-family="Courier New" font-size="14.00">(1,17)&#45;(1,18)</text>
</g>
<!-- Node_60&#45;&gt;Node_80 -->
<g id="edge1" class="edge">
<title>Node_60:predicate&#45;&gt;Node_80</title>
<path fill="none" stroke="black" d="M322,-782.2C282.62,-782.2 289.91,-735.06 305.23,-691.17"/>
<polygon fill="black" stroke="black" points="308.8,-692.59 308.94,-681.99 302.22,-690.19 308.8,-692.59"/>
</g>
<!-- Node_100 -->
<g id="node7" class="node">
<title>Node_100</title>
<polygon fill="#f2f2f2" stroke="none" points="610.5,-642.2 485.5,-642.2 485.5,-590.2 610.5,-590.2 610.5,-642.2"/>
<polygon fill="none" stroke="black" points="485.5,-616.2 485.5,-642.2 610.5,-642.2 610.5,-616.2 485.5,-616.2"/>
<text text-anchor="start" x="490.25" y="-624.9" font-family="Courier New" font-weight="bold" font-size="14.00">StatementsNode</text>
<polygon fill="none" stroke="black" points="485.5,-590.2 485.5,-616.2 610.5,-616.2 610.5,-590.2 485.5,-590.2"/>
<text text-anchor="start" x="490.5" y="-597.9" font-family="Courier New" font-size="14.00">body</text>
</g>
<!-- Node_60&#45;&gt;Node_100 -->
<g id="edge2" class="edge">
<title>Node_60:statements&#45;&gt;Node_100</title>
<path fill="none" stroke="black" d="M558,-756.2C599.71,-756.2 580.71,-693.17 563.85,-652"/>
<polygon fill="black" stroke="black" points="566.76,-650.9 559.65,-643.05 560.32,-653.62 566.76,-650.9"/>
</g>
<!-- Node_80_parts -->
<g id="node11" class="node">
<title>Node_80_parts</title>
<ellipse fill="#f2f2f2" stroke="black" cx="327" cy="-513.4" rx="1.8" ry="1.8"/>
</g>
<!-- Node_80&#45;&gt;Node_80_parts -->
<g id="edge3" class="edge">
<title>Node_80:parts&#45;&gt;Node_80_parts</title>
<path fill="none" stroke="black" d="M212,-590.2C194.66,-590.2 202.62,-565.09 213,-551.2 237.04,-519.05 289.64,-514.46 314.07,-514.15"/>
<polygon fill="black" stroke="black" points="313.9,-517.66 323.94,-514.29 313.99,-510.66 313.9,-517.66"/>
</g>
<!-- Node_120 -->
<g id="node3" class="node">
<title>Node_120</title>
<polygon fill="#f2f2f2" stroke="none" points="200,-462.6 0,-462.6 0,-358.6 200,-358.6 200,-462.6"/>
<polygon fill="none" stroke="black" points="0,-436.6 0,-462.6 200,-462.6 200,-436.6 0,-436.6"/>
<text text-anchor="start" x="58.75" y="-445.3" font-family="Courier New" font-weight="bold" font-size="14.00">StringNode</text>
<polygon fill="none" stroke="black" points="0,-410.6 0,-436.6 100,-436.6 100,-410.6 0,-410.6"/>
<text text-anchor="start" x="5" y="-418.3" font-family="Courier New" font-size="14.00">flags</text>
<polygon fill="none" stroke="black" points="100,-410.6 100,-436.6 200,-436.6 200,-410.6 100,-410.6"/>
<polygon fill="none" stroke="black" points="0,-384.6 0,-410.6 100,-410.6 100,-384.6 0,-384.6"/>
<text text-anchor="start" x="4.62" y="-392.3" font-family="Courier New" font-size="14.00">content_loc</text>
<polygon fill="none" stroke="black" points="100,-384.6 100,-410.6 200,-410.6 200,-384.6 100,-384.6"/>
<text text-anchor="start" x="104.62" y="-392.3" font-family="Courier New" font-size="14.00">(1,4)&#45;(1,6)</text>
<polygon fill="none" stroke="black" points="0,-358.6 0,-384.6 100,-384.6 100,-358.6 0,-358.6"/>
<text text-anchor="start" x="5" y="-366.3" font-family="Courier New" font-size="14.00">unescaped</text>
<polygon fill="none" stroke="black" points="100,-358.6 100,-384.6 200,-384.6 200,-358.6 100,-358.6"/>
<text text-anchor="start" x="133.5" y="-366.3" font-family="Courier New" font-size="14.00">&quot;^T&quot;</text>
</g>
<!-- Node_140 -->
<g id="node4" class="node">
<title>Node_140</title>
<polygon fill="#f2f2f2" stroke="none" points="435.5,-462.6 218.5,-462.6 218.5,-358.6 435.5,-358.6 435.5,-462.6"/>
<polygon fill="none" stroke="black" points="218.5,-436.6 218.5,-462.6 435.5,-462.6 435.5,-436.6 218.5,-436.6"/>
<text text-anchor="start" x="236.25" y="-445.3" font-family="Courier New" font-weight="bold" font-size="14.00">EmbeddedStatementsNode</text>
<polygon fill="none" stroke="black" points="218.5,-410.6 218.5,-436.6 318.5,-436.6 318.5,-410.6 218.5,-410.6"/>
<text text-anchor="start" x="223.12" y="-418.3" font-family="Courier New" font-size="14.00">opening_loc</text>
<polygon fill="none" stroke="black" points="318.5,-410.6 318.5,-436.6 435.5,-436.6 435.5,-410.6 318.5,-410.6"/>
<text text-anchor="start" x="331.62" y="-418.3" font-family="Courier New" font-size="14.00">(1,6)&#45;(1,8)</text>
<polygon fill="none" stroke="black" points="218.5,-384.6 218.5,-410.6 435.5,-410.6 435.5,-384.6 218.5,-384.6"/>
<text text-anchor="start" x="223.5" y="-392.3" font-family="Courier New" font-size="14.00">statements</text>
<polygon fill="none" stroke="black" points="218.5,-358.6 218.5,-384.6 318.5,-384.6 318.5,-358.6 218.5,-358.6"/>
<text text-anchor="start" x="223.12" y="-366.3" font-family="Courier New" font-size="14.00">closing_loc</text>
<polygon fill="none" stroke="black" points="318.5,-358.6 318.5,-384.6 435.5,-384.6 435.5,-358.6 318.5,-358.6"/>
<text text-anchor="start" x="323.38" y="-366.3" font-family="Courier New" font-size="14.00">(1,16)&#45;(1,17)</text>
</g>
<!-- Node_160 -->
<g id="node5" class="node">
<title>Node_160</title>
<polygon fill="#f2f2f2" stroke="none" points="389.5,-296.6 264.5,-296.6 264.5,-244.6 389.5,-244.6 389.5,-296.6"/>
<polygon fill="none" stroke="black" points="264.5,-270.6 264.5,-296.6 389.5,-296.6 389.5,-270.6 264.5,-270.6"/>
<text text-anchor="start" x="269.25" y="-279.3" font-family="Courier New" font-weight="bold" font-size="14.00">StatementsNode</text>
<polygon fill="none" stroke="black" points="264.5,-244.6 264.5,-270.6 389.5,-270.6 389.5,-244.6 264.5,-244.6"/>
<text text-anchor="start" x="269.5" y="-252.3" font-family="Courier New" font-size="14.00">body</text>
</g>
<!-- Node_140&#45;&gt;Node_160 -->
<g id="edge6" class="edge">
<title>Node_140:statements&#45;&gt;Node_160</title>
<path fill="none" stroke="black" d="M437,-397.6C445.67,-397.6 439.86,-366.36 436,-358.6 424.59,-335.65 403.99,-316.81 383.74,-302.6"/>
<polygon fill="black" stroke="black" points="386.05,-299.27 375.8,-296.6 382.15,-305.08 386.05,-299.27"/>
</g>
<!-- Node_160_body -->
<g id="node12" class="node">
<title>Node_160_body</title>
<ellipse fill="#f2f2f2" stroke="black" cx="327" cy="-193.8" rx="1.8" ry="1.8"/>
</g>
<!-- Node_160&#45;&gt;Node_160_body -->
<g id="edge7" class="edge">
<title>Node_160:body&#45;&gt;Node_160_body</title>
<path fill="none" stroke="black" d="M327,-243.6C327,-231 327,-216.56 327,-206.68"/>
<polygon fill="black" stroke="black" points="330.5,-207.01 327,-197.01 323.5,-207.01 330.5,-207.01"/>
</g>
<!-- Node_180 -->
<g id="node6" class="node">
<title>Node_180</title>
<polygon fill="#f2f2f2" stroke="none" points="435.5,-156 218.5,-156 218.5,0 435.5,0 435.5,-156"/>
<polygon fill="none" stroke="black" points="218.5,-130 218.5,-156 435.5,-156 435.5,-130 218.5,-130"/>
<text text-anchor="start" x="285.75" y="-138.7" font-family="Courier New" font-weight="bold" font-size="14.00">StringNode</text>
<polygon fill="none" stroke="black" points="218.5,-104 218.5,-130 318.5,-130 318.5,-104 218.5,-104"/>
<text text-anchor="start" x="223.5" y="-111.7" font-family="Courier New" font-size="14.00">flags</text>
<polygon fill="none" stroke="black" points="318.5,-104 318.5,-130 435.5,-130 435.5,-104 318.5,-104"/>
<polygon fill="none" stroke="black" points="218.5,-78 218.5,-104 318.5,-104 318.5,-78 218.5,-78"/>
<text text-anchor="start" x="223.12" y="-85.7" font-family="Courier New" font-size="14.00">opening_loc</text>
<polygon fill="none" stroke="black" points="318.5,-78 318.5,-104 435.5,-104 435.5,-78 318.5,-78"/>
<text text-anchor="start" x="331.62" y="-85.7" font-family="Courier New" font-size="14.00">(1,8)&#45;(1,9)</text>
<polygon fill="none" stroke="black" points="218.5,-52 218.5,-78 318.5,-78 318.5,-52 218.5,-52"/>
<text text-anchor="start" x="223.12" y="-59.7" font-family="Courier New" font-size="14.00">content_loc</text>
<polygon fill="none" stroke="black" points="318.5,-52 318.5,-78 435.5,-78 435.5,-52 318.5,-52"/>
<text text-anchor="start" x="327.5" y="-59.7" font-family="Courier New" font-size="14.00">(1,9)&#45;(1,15)</text>
<polygon fill="none" stroke="black" points="218.5,-26 218.5,-52 318.5,-52 318.5,-26 218.5,-26"/>
<text text-anchor="start" x="223.12" y="-33.7" font-family="Courier New" font-size="14.00">closing_loc</text>
<polygon fill="none" stroke="black" points="318.5,-26 318.5,-52 435.5,-52 435.5,-26 318.5,-26"/>
<text text-anchor="start" x="323.38" y="-33.7" font-family="Courier New" font-size="14.00">(1,15)&#45;(1,16)</text>
<polygon fill="none" stroke="black" points="218.5,0 218.5,-26 318.5,-26 318.5,0 218.5,0"/>
<text text-anchor="start" x="223.5" y="-7.7" font-family="Courier New" font-size="14.00">unescaped</text>
<polygon fill="none" stroke="black" points="318.5,0 318.5,-26 435.5,-26 435.5,0 318.5,0"/>
<text text-anchor="start" x="344" y="-7.7" font-family="Courier New" font-size="14.00">&quot;his|he&quot;</text>
</g>
<!-- Node_100_body -->
<g id="node13" class="node">
<title>Node_100_body</title>
<ellipse fill="#f2f2f2" stroke="black" cx="551" cy="-513.4" rx="1.8" ry="1.8"/>
</g>
<!-- Node_100&#45;&gt;Node_100_body -->
<g id="edge9" class="edge">
<title>Node_100:body&#45;&gt;Node_100_body</title>
<path fill="none" stroke="black" d="M548,-589.2C548,-566.82 549.36,-540.71 550.25,-526.01"/>
<polygon fill="black" stroke="black" points="553.78,-526.66 550.93,-516.45 546.79,-526.21 553.78,-526.66"/>
</g>
<!-- Node_200 -->
<g id="node8" class="node">
<title>Node_200</title>
<polygon fill="#f2f2f2" stroke="none" points="654,-475.6 454,-475.6 454,-345.6 654,-345.6 654,-475.6"/>
<polygon fill="none" stroke="black" points="454,-449.6 454,-475.6 654,-475.6 654,-449.6 454,-449.6"/>
<text text-anchor="start" x="521" y="-458.3" font-family="Courier New" font-weight="bold" font-size="14.00">CallNode</text>
<polygon fill="none" stroke="black" points="454,-423.6 454,-449.6 554,-449.6 554,-423.6 454,-423.6"/>
<text text-anchor="start" x="459" y="-431.3" font-family="Courier New" font-size="14.00">flags</text>
<polygon fill="none" stroke="black" points="554,-423.6 554,-449.6 654,-449.6 654,-423.6 554,-423.6"/>
<polygon fill="none" stroke="black" points="454,-397.6 454,-423.6 554,-423.6 554,-397.6 454,-397.6"/>
<text text-anchor="start" x="459" y="-405.3" font-family="Courier New" font-size="14.00">name</text>
<polygon fill="none" stroke="black" points="554,-397.6 554,-423.6 654,-423.6 654,-397.6 554,-397.6"/>
<text text-anchor="start" x="583.38" y="-405.3" font-family="Courier New" font-size="14.00">:puts</text>
<polygon fill="none" stroke="black" points="454,-371.6 454,-397.6 554,-397.6 554,-371.6 454,-371.6"/>
<text text-anchor="start" x="458.62" y="-379.3" font-family="Courier New" font-size="14.00">message_loc</text>
<polygon fill="none" stroke="black" points="554,-371.6 554,-397.6 654,-397.6 654,-371.6 554,-371.6"/>
<text text-anchor="start" x="558.62" y="-379.3" font-family="Courier New" font-size="14.00">(2,2)&#45;(2,6)</text>
<polygon fill="none" stroke="black" points="454,-345.6 454,-371.6 654,-371.6 654,-345.6 454,-345.6"/>
<text text-anchor="start" x="459" y="-353.3" font-family="Courier New" font-size="14.00">arguments</text>
</g>
<!-- Node_220 -->
<g id="node9" class="node">
<title>Node_220</title>
<polygon fill="#f2f2f2" stroke="none" points="612.5,-309.6 495.5,-309.6 495.5,-231.6 612.5,-231.6 612.5,-309.6"/>
<polygon fill="none" stroke="black" points="495.5,-283.6 495.5,-309.6 612.5,-309.6 612.5,-283.6 495.5,-283.6"/>
<text text-anchor="start" x="500.38" y="-292.3" font-family="Courier New" font-weight="bold" font-size="14.00">ArgumentsNode</text>
<polygon fill="none" stroke="black" points="495.5,-257.6 495.5,-283.6 574.5,-283.6 574.5,-257.6 495.5,-257.6"/>
<text text-anchor="start" x="500.5" y="-265.3" font-family="Courier New" font-size="14.00">flags</text>
<polygon fill="none" stroke="black" points="574.5,-257.6 574.5,-283.6 612.5,-283.6 612.5,-257.6 574.5,-257.6"/>
<polygon fill="none" stroke="black" points="495.5,-231.6 495.5,-257.6 612.5,-257.6 612.5,-231.6 495.5,-231.6"/>
<text text-anchor="start" x="500.5" y="-239.3" font-family="Courier New" font-size="14.00">arguments</text>
</g>
<!-- Node_200&#45;&gt;Node_220 -->
<g id="edge11" class="edge">
<title>Node_200:arguments&#45;&gt;Node_220</title>
<path fill="none" stroke="black" d="M554,-345.6C554,-337.38 554,-328.65 554,-320.17"/>
<polygon fill="black" stroke="black" points="557.5,-320.25 554,-310.25 550.5,-320.25 557.5,-320.25"/>
</g>
<!-- Node_220_arguments -->
<g id="node14" class="node">
<title>Node_220_arguments</title>
<ellipse fill="#f2f2f2" stroke="black" cx="554" cy="-193.8" rx="1.8" ry="1.8"/>
</g>
<!-- Node_220&#45;&gt;Node_220_arguments -->
<g id="edge12" class="edge">
<title>Node_220:arguments&#45;&gt;Node_220_arguments</title>
<path fill="none" stroke="black" d="M554,-231.6C554,-223.36 554,-214.09 554,-206.91"/>
<polygon fill="black" stroke="black" points="557.5,-206.94 554,-196.94 550.5,-206.94 557.5,-206.94"/>
</g>
<!-- Node_240 -->
<g id="node10" class="node">
<title>Node_240</title>
<polygon fill="#f2f2f2" stroke="none" points="649.5,-104 458.5,-104 458.5,-52 649.5,-52 649.5,-104"/>
<polygon fill="none" stroke="black" points="458.5,-78 458.5,-104 649.5,-104 649.5,-78 458.5,-78"/>
<text text-anchor="start" x="463.25" y="-86.7" font-family="Courier New" font-weight="bold" font-size="14.00">GlobalVariableReadNode</text>
<polygon fill="none" stroke="black" points="458.5,-52 458.5,-78 558.5,-78 558.5,-52 458.5,-52"/>
<text text-anchor="start" x="463.5" y="-59.7" font-family="Courier New" font-size="14.00">name</text>
<polygon fill="none" stroke="black" points="558.5,-52 558.5,-78 649.5,-78 649.5,-52 558.5,-52"/>
<text text-anchor="start" x="591.62" y="-59.7" font-family="Courier New" font-size="14.00">:$_</text>
</g>
<!-- Node_80_parts&#45;&gt;Node_120 -->
<g id="edge4" class="edge">
<title>Node_80_parts&#45;&gt;Node_120</title>
<path fill="none" stroke="black" d="M325.28,-512.02C314.45,-509.6 254.53,-495.75 209,-475.6 203.34,-473.1 197.61,-470.37 191.89,-467.5"/>
<polygon fill="black" stroke="black" points="193.77,-464.01 183.28,-462.54 190.56,-470.24 193.77,-464.01"/>
</g>
<!-- Node_80_parts&#45;&gt;Node_140 -->
<g id="edge5" class="edge">
<title>Node_80_parts&#45;&gt;Node_140</title>
<path fill="none" stroke="black" d="M327,-511.27C327,-507 327,-491.24 327,-473.47"/>
<polygon fill="black" stroke="black" points="330.5,-473.54 327,-463.54 323.5,-473.54 330.5,-473.54"/>
</g>
<!-- Node_160_body&#45;&gt;Node_180 -->
<g id="edge8" class="edge">
<title>Node_160_body&#45;&gt;Node_180</title>
<path fill="none" stroke="black" d="M327,-191.52C327,-188.2 327,-178.71 327,-166.57"/>
<polygon fill="black" stroke="black" points="330.5,-166.81 327,-156.81 323.5,-166.81 330.5,-166.81"/>
</g>
<!-- Node_100_body&#45;&gt;Node_200 -->
<g id="edge10" class="edge">
<title>Node_100_body&#45;&gt;Node_200</title>
<path fill="none" stroke="black" d="M551.03,-511.27C551.13,-508.06 551.42,-498.33 551.78,-486.14"/>
<polygon fill="black" stroke="black" points="555.3,-486.5 552.1,-476.4 548.31,-486.29 555.3,-486.5"/>
</g>
<!-- Node_220_arguments&#45;&gt;Node_240 -->
<g id="edge13" class="edge">
<title>Node_220_arguments&#45;&gt;Node_240</title>
<path fill="none" stroke="black" d="M554,-191.52C554,-184.01 554,-144.89 554,-114.86"/>
<polygon fill="black" stroke="black" points="557.5,-114.89 554,-104.89 550.5,-114.89 557.5,-114.89"/>
</g>
</g>
</svg>
