<?xml version="1.0" encoding="UTF-8" standalone="no"?>
<!DOCTYPE svg PUBLIC "-//W3C//DTD SVG 1.1//EN"
 "http://www.w3.org/Graphics/SVG/1.1/DTD/svg11.dtd">
<!-- Generated by graphviz version 8.1.0 (20230707.0739)
 -->
<!-- Title: Prism Pages: 1 -->
<svg width="285pt" height="252pt"
 viewBox="0.00 0.00 284.69 252.00" xmlns="http://www.w3.org/2000/svg" xmlns:xlink="http://www.w3.org/1999/xlink">
<g id="graph0" class="graph" transform="scale(1 1) rotate(0) translate(4 248)">
<title>Prism</title>
<polygon fill="white" stroke="none" points="-4,4 -4,-248 280.69,-248 280.69,4 -4,4"/>
<!-- Node_60 -->
<g id="node1" class="node">
<title>Node_60</title>
<polygon fill="#f2f2f2" stroke="none" points="265,-244 0,-244 0,-88 265,-88 265,-244"/>
<polygon fill="none" stroke="black" points="0,-218 0,-244 265,-244 265,-218 0,-218"/>
<text text-anchor="start" x="4.62" y="-226.7" font-family="Courier New" font-weight="bold" font-size="14.00">GlobalVariableOperatorWriteNode</text>
<polygon fill="none" stroke="black" points="0,-192 0,-218 137,-218 137,-192 0,-192"/>
<text text-anchor="start" x="5" y="-199.7" font-family="Courier New" font-size="14.00">name</text>
<polygon fill="none" stroke="black" points="137,-192 137,-218 265,-218 265,-192 137,-192"/>
<text text-anchor="start" x="180.38" y="-199.7" font-family="Courier New" font-size="14.00">:$foo</text>
<polygon fill="none" stroke="black" points="0,-166 0,-192 137,-192 137,-166 0,-166"/>
<text text-anchor="start" x="5" y="-173.7" font-family="Courier New" font-size="14.00">name_loc</text>
<polygon fill="none" stroke="black" points="137,-166 137,-192 265,-192 265,-166 137,-166"/>
<text text-anchor="start" x="155.62" y="-173.7" font-family="Courier New" font-size="14.00">(1,0)&#45;(1,4)</text>
<polygon fill="none" stroke="black" points="0,-140 0,-166 137,-166 137,-140 0,-140"/>
<text text-anchor="start" x="5" y="-147.7" font-family="Courier New" font-size="14.00">operator_loc</text>
<polygon fill="none" stroke="black" points="137,-140 137,-166 265,-166 265,-140 137,-140"/>
<text text-anchor="start" x="155.62" y="-147.7" font-family="Courier New" font-size="14.00">(1,5)&#45;(1,7)</text>
<polygon fill="none" stroke="black" points="0,-114 0,-140 265,-140 265,-114 0,-114"/>
<text text-anchor="start" x="5" y="-121.7" font-family="Courier New" font-size="14.00">value</text>
<polygon fill="none" stroke="black" points="0,-88 0,-114 137,-114 137,-88 0,-88"/>
<text text-anchor="start" x="5" y="-95.7" font-family="Courier New" font-size="14.00">operator</text>
<polygon fill="none" stroke="black" points="137,-88 137,-114 265,-114 265,-88 137,-88"/>
<text text-anchor="start" x="192.75" y="-95.7" font-family="Courier New" font-size="14.00">:+</text>
</g>
<!-- Node_80 -->
<g id="node2" class="node">
<title>Node_80</title>
<polygon fill="#f2f2f2" stroke="none" points="191.5,-52 73.5,-52 73.5,0 191.5,0 191.5,-52"/>
<polygon fill="none" stroke="black" points="73.5,-26 73.5,-52 191.5,-52 191.5,-26 73.5,-26"/>
<text text-anchor="start" x="87.12" y="-34.7" font-family="Courier New" font-weight="bold" font-size="14.00">IntegerNode</text>
<polygon fill="none" stroke="black" points="73.5,0 73.5,-26 124.5,-26 124.5,0 73.5,0"/>
<text text-anchor="start" x="78.38" y="-7.7" font-family="Courier New" font-size="14.00">flags</text>
<polygon fill="none" stroke="black" points="124.5,0 124.5,-26 191.5,-26 191.5,0 124.5,0"/>
<text text-anchor="start" x="129.12" y="-7.7" font-family="Courier New" font-size="14.00">decimal</text>
</g>
<!-- Node_60&#45;&gt;Node_80 -->
<g id="edge1" class="edge">
<title>Node_60:value&#45;&gt;Node_80</title>
<path fill="none" stroke="black" d="M266.5,-127C283.84,-127 275.05,-102.47 265.5,-88 250.87,-65.83 226.01,-51.59 201.7,-42.51"/>
<polygon fill="black" stroke="black" points="202.95,-38.89 192.36,-38.92 200.66,-45.5 202.95,-38.89"/>
</g>
</g>
</svg>
