<?xml version="1.0" encoding="UTF-8" standalone="no"?>
<!DOCTYPE svg PUBLIC "-//W3C//DTD SVG 1.1//EN"
 "http://www.w3.org/Graphics/SVG/1.1/DTD/svg11.dtd">
<!-- Generated by graphviz version 8.1.0 (20230707.0739)
 -->
<!-- Title: Prism Pages: 1 -->
<svg width="276pt" height="546pt"
 viewBox="0.00 0.00 276.11 545.60" xmlns="http://www.w3.org/2000/svg" xmlns:xlink="http://www.w3.org/1999/xlink">
<g id="graph0" class="graph" transform="scale(1 1) rotate(0) translate(4 541.6)">
<title>Prism</title>
<polygon fill="white" stroke="none" points="-4,4 -4,-541.6 272.11,-541.6 272.11,4 -4,4"/>
<!-- Node_60 -->
<g id="node1" class="node">
<title>Node_60</title>
<polygon fill="#f2f2f2" stroke="none" points="225,-537.6 25,-537.6 25,-407.6 225,-407.6 225,-537.6"/>
<polygon fill="none" stroke="black" points="25,-511.6 25,-537.6 225,-537.6 225,-511.6 25,-511.6"/>
<text text-anchor="start" x="92" y="-520.3" font-family="Courier New" font-weight="bold" font-size="14.00">CallNode</text>
<polygon fill="none" stroke="black" points="25,-485.6 25,-511.6 125,-511.6 125,-485.6 25,-485.6"/>
<text text-anchor="start" x="30" y="-493.3" font-family="Courier New" font-size="14.00">flags</text>
<polygon fill="none" stroke="black" points="125,-485.6 125,-511.6 225,-511.6 225,-485.6 125,-485.6"/>
<polygon fill="none" stroke="black" points="25,-459.6 25,-485.6 125,-485.6 125,-459.6 25,-459.6"/>
<text text-anchor="start" x="30" y="-467.3" font-family="Courier New" font-size="14.00">name</text>
<polygon fill="none" stroke="black" points="125,-459.6 125,-485.6 225,-485.6 225,-459.6 125,-459.6"/>
<text text-anchor="start" x="158.5" y="-467.3" font-family="Courier New" font-size="14.00">:foo</text>
<polygon fill="none" stroke="black" points="25,-433.6 25,-459.6 125,-459.6 125,-433.6 25,-433.6"/>
<text text-anchor="start" x="29.62" y="-441.3" font-family="Courier New" font-size="14.00">message_loc</text>
<polygon fill="none" stroke="black" points="125,-433.6 125,-459.6 225,-459.6 225,-433.6 125,-433.6"/>
<text text-anchor="start" x="129.62" y="-441.3" font-family="Courier New" font-size="14.00">(1,0)&#45;(1,3)</text>
<polygon fill="none" stroke="black" points="25,-407.6 25,-433.6 225,-433.6 225,-407.6 25,-407.6"/>
<text text-anchor="start" x="30" y="-415.3" font-family="Courier New" font-size="14.00">block</text>
</g>
<!-- Node_80 -->
<g id="node2" class="node">
<title>Node_80</title>
<polygon fill="#f2f2f2" stroke="none" points="250,-371.6 0,-371.6 0,-215.6 250,-215.6 250,-371.6"/>
<polygon fill="none" stroke="black" points="0,-345.6 0,-371.6 250,-371.6 250,-345.6 0,-345.6"/>
<text text-anchor="start" x="87.88" y="-354.3" font-family="Courier New" font-weight="bold" font-size="14.00">BlockNode</text>
<polygon fill="none" stroke="black" points="0,-319.6 0,-345.6 150,-345.6 150,-319.6 0,-319.6"/>
<text text-anchor="start" x="5" y="-327.3" font-family="Courier New" font-size="14.00">locals</text>
<polygon fill="none" stroke="black" points="150,-319.6 150,-345.6 250,-345.6 250,-319.6 150,-319.6"/>
<text text-anchor="start" x="191.75" y="-327.3" font-family="Courier New" font-size="14.00">[]</text>
<polygon fill="none" stroke="black" points="0,-293.6 0,-319.6 150,-319.6 150,-293.6 0,-293.6"/>
<text text-anchor="start" x="4.88" y="-301.3" font-family="Courier New" font-size="14.00">locals_body_index</text>
<polygon fill="none" stroke="black" points="150,-293.6 150,-319.6 250,-319.6 250,-293.6 150,-293.6"/>
<text text-anchor="start" x="195.88" y="-301.3" font-family="Courier New" font-size="14.00">0</text>
<polygon fill="none" stroke="black" points="0,-267.6 0,-293.6 250,-293.6 250,-267.6 0,-267.6"/>
<text text-anchor="start" x="5" y="-275.3" font-family="Courier New" font-size="14.00">body</text>
<polygon fill="none" stroke="black" points="0,-241.6 0,-267.6 150,-267.6 150,-241.6 0,-241.6"/>
<text text-anchor="start" x="5" y="-249.3" font-family="Courier New" font-size="14.00">opening_loc</text>
<polygon fill="none" stroke="black" points="150,-241.6 150,-267.6 250,-267.6 250,-241.6 150,-241.6"/>
<text text-anchor="start" x="154.62" y="-249.3" font-family="Courier New" font-size="14.00">(1,4)&#45;(1,6)</text>
<polygon fill="none" stroke="black" points="0,-215.6 0,-241.6 150,-241.6 150,-215.6 0,-215.6"/>
<text text-anchor="start" x="5" y="-223.3" font-family="Courier New" font-size="14.00">closing_loc</text>
<polygon fill="none" stroke="black" points="150,-215.6 150,-241.6 250,-241.6 250,-215.6 150,-215.6"/>
<text text-anchor="start" x="154.62" y="-223.3" font-family="Courier New" font-size="14.00">(3,0)&#45;(3,3)</text>
</g>
<!-- Node_60&#45;&gt;Node_80 -->
<g id="edge1" class="edge">
<title>Node_60:block&#45;&gt;Node_80</title>
<path fill="none" stroke="black" d="M125,-407.6C125,-399.39 125,-390.85 125,-382.3"/>
<polygon fill="black" stroke="black" points="128.5,-382.49 125,-372.49 121.5,-382.49 128.5,-382.49"/>
</g>
<!-- Node_100 -->
<g id="node3" class="node">
<title>Node_100</title>
<polygon fill="#f2f2f2" stroke="none" points="187.5,-179.6 62.5,-179.6 62.5,-127.6 187.5,-127.6 187.5,-179.6"/>
<polygon fill="none" stroke="black" points="62.5,-153.6 62.5,-179.6 187.5,-179.6 187.5,-153.6 62.5,-153.6"/>
<text text-anchor="start" x="67.25" y="-162.3" font-family="Courier New" font-weight="bold" font-size="14.00">StatementsNode</text>
<polygon fill="none" stroke="black" points="62.5,-127.6 62.5,-153.6 187.5,-153.6 187.5,-127.6 62.5,-127.6"/>
<text text-anchor="start" x="67.5" y="-135.3" font-family="Courier New" font-size="14.00">body</text>
</g>
<!-- Node_80&#45;&gt;Node_100 -->
<g id="edge2" class="edge">
<title>Node_80:body&#45;&gt;Node_100</title>
<path fill="none" stroke="black" d="M251,-280.6C279.89,-280.6 265.5,-239.99 250,-215.6 237.87,-196.51 217.88,-183.22 197.41,-174.05"/>
<polygon fill="black" stroke="black" points="198.93,-170.47 188.35,-169.87 196.24,-176.94 198.93,-170.47"/>
</g>
<!-- Node_100_body -->
<g id="node5" class="node">
<title>Node_100_body</title>
<ellipse fill="#f2f2f2" stroke="black" cx="125" cy="-89.8" rx="1.8" ry="1.8"/>
</g>
<!-- Node_100&#45;&gt;Node_100_body -->
<g id="edge3" class="edge">
<title>Node_100:body&#45;&gt;Node_100_body</title>
<path fill="none" stroke="black" d="M125,-127.6C125,-119.36 125,-110.09 125,-102.91"/>
<polygon fill="black" stroke="black" points="128.5,-102.94 125,-92.94 121.5,-102.94 128.5,-102.94"/>
</g>
<!-- Node_120 -->
<g id="node4" class="node">
<title>Node_120</title>
<polygon fill="#f2f2f2" stroke="none" points="184,-52 66,-52 66,0 184,0 184,-52"/>
<polygon fill="none" stroke="black" points="66,-26 66,-52 184,-52 184,-26 66,-26"/>
<text text-anchor="start" x="79.62" y="-34.7" font-family="Courier New" font-weight="bold" font-size="14.00">IntegerNode</text>
<polygon fill="none" stroke="black" points="66,0 66,-26 117,-26 117,0 66,0"/>
<text text-anchor="start" x="70.88" y="-7.7" font-family="Courier New" font-size="14.00">flags</text>
<polygon fill="none" stroke="black" points="117,0 117,-26 184,-26 184,0 117,0"/>
<text text-anchor="start" x="121.62" y="-7.7" font-family="Courier New" font-size="14.00">decimal</text>
</g>
<!-- Node_100_body&#45;&gt;Node_120 -->
<g id="edge4" class="edge">
<title>Node_100_body&#45;&gt;Node_120</title>
<path fill="none" stroke="black" d="M125,-87.73C125,-84.45 125,-74.09 125,-62.84"/>
<polygon fill="black" stroke="black" points="128.5,-62.97 125,-52.97 121.5,-62.98 128.5,-62.97"/>
</g>
</g>
</svg>
