<?xml version="1.0" encoding="UTF-8" standalone="no"?>
<!DOCTYPE svg PUBLIC "-//W3C//DTD SVG 1.1//EN"
 "http://www.w3.org/Graphics/SVG/1.1/DTD/svg11.dtd">
<!-- Generated by graphviz version 8.1.0 (20230707.0739)
 -->
<!-- Title: Prism Pages: 1 -->
<svg width="517pt" height="1184pt"
 viewBox="0.00 0.00 516.50 1183.60" xmlns="http://www.w3.org/2000/svg" xmlns:xlink="http://www.w3.org/1999/xlink">
<g id="graph0" class="graph" transform="scale(1 1) rotate(0) translate(4 1179.6)">
<title>Prism</title>
<polygon fill="white" stroke="none" points="-4,4 -4,-1179.6 512.5,-1179.6 512.5,4 -4,4"/>
<!-- Node_60 -->
<g id="node1" class="node">
<title>Node_60</title>
<polygon fill="#f2f2f2" stroke="none" points="442.5,-1175.6 192.5,-1175.6 192.5,-1071.6 442.5,-1071.6 442.5,-1175.6"/>
<polygon fill="none" stroke="black" points="192.5,-1149.6 192.5,-1175.6 442.5,-1175.6 442.5,-1149.6 192.5,-1149.6"/>
<text text-anchor="start" x="280.38" y="-1158.3" font-family="Courier New" font-weight="bold" font-size="14.00">BeginNode</text>
<polygon fill="none" stroke="black" points="192.5,-1123.6 192.5,-1149.6 342.5,-1149.6 342.5,-1123.6 192.5,-1123.6"/>
<text text-anchor="start" x="197.38" y="-1131.3" font-family="Courier New" font-size="14.00">begin_keyword_loc</text>
<polygon fill="none" stroke="black" points="342.5,-1123.6 342.5,-1149.6 442.5,-1149.6 442.5,-1123.6 342.5,-1123.6"/>
<text text-anchor="start" x="347.12" y="-1131.3" font-family="Courier New" font-size="14.00">(1,0)&#45;(1,5)</text>
<polygon fill="none" stroke="black" points="192.5,-1097.6 192.5,-1123.6 442.5,-1123.6 442.5,-1097.6 192.5,-1097.6"/>
<text text-anchor="start" x="197.5" y="-1105.3" font-family="Courier New" font-size="14.00">rescue_clause</text>
<polygon fill="none" stroke="black" points="192.5,-1071.6 192.5,-1097.6 342.5,-1097.6 342.5,-1071.6 192.5,-1071.6"/>
<text text-anchor="start" x="197.5" y="-1079.3" font-family="Courier New" font-size="14.00">end_keyword_loc</text>
<polygon fill="none" stroke="black" points="342.5,-1071.6 342.5,-1097.6 442.5,-1097.6 442.5,-1071.6 342.5,-1071.6"/>
<text text-anchor="start" x="347.12" y="-1079.3" font-family="Courier New" font-size="14.00">(5,0)&#45;(5,3)</text>
</g>
<!-- Node_80 -->
<g id="node2" class="node">
<title>Node_80</title>
<polygon fill="#f2f2f2" stroke="none" points="430.5,-1035.6 204.5,-1035.6 204.5,-879.6 430.5,-879.6 430.5,-1035.6"/>
<polygon fill="none" stroke="black" points="204.5,-1009.6 204.5,-1035.6 430.5,-1035.6 430.5,-1009.6 204.5,-1009.6"/>
<text text-anchor="start" x="276.25" y="-1018.3" font-family="Courier New" font-weight="bold" font-size="14.00">RescueNode</text>
<polygon fill="none" stroke="black" points="204.5,-983.6 204.5,-1009.6 313.5,-1009.6 313.5,-983.6 204.5,-983.6"/>
<text text-anchor="start" x="209.5" y="-991.3" font-family="Courier New" font-size="14.00">keyword_loc</text>
<polygon fill="none" stroke="black" points="313.5,-983.6 313.5,-1009.6 430.5,-1009.6 430.5,-983.6 313.5,-983.6"/>
<text text-anchor="start" x="326.62" y="-991.3" font-family="Courier New" font-size="14.00">(2,0)&#45;(2,6)</text>
<polygon fill="none" stroke="black" points="204.5,-957.6 204.5,-983.6 430.5,-983.6 430.5,-957.6 204.5,-957.6"/>
<text text-anchor="start" x="209.5" y="-965.3" font-family="Courier New" font-size="14.00">exceptions</text>
<polygon fill="none" stroke="black" points="204.5,-931.6 204.5,-957.6 313.5,-957.6 313.5,-931.6 204.5,-931.6"/>
<text text-anchor="start" x="209.5" y="-939.3" font-family="Courier New" font-size="14.00">operator_loc</text>
<polygon fill="none" stroke="black" points="313.5,-931.6 313.5,-957.6 430.5,-957.6 430.5,-931.6 313.5,-931.6"/>
<text text-anchor="start" x="318.38" y="-939.3" font-family="Courier New" font-size="14.00">(2,14)&#45;(2,16)</text>
<polygon fill="none" stroke="black" points="204.5,-905.6 204.5,-931.6 430.5,-931.6 430.5,-905.6 204.5,-905.6"/>
<text text-anchor="start" x="209.5" y="-913.3" font-family="Courier New" font-size="14.00">reference</text>
<polygon fill="none" stroke="black" points="204.5,-879.6 204.5,-905.6 430.5,-905.6 430.5,-879.6 204.5,-879.6"/>
<text text-anchor="start" x="209.5" y="-887.3" font-family="Courier New" font-size="14.00">consequent</text>
</g>
<!-- Node_60&#45;&gt;Node_80 -->
<g id="edge1" class="edge">
<title>Node_60:rescue_clause&#45;&gt;Node_80</title>
<path fill="none" stroke="black" d="M443.5,-1110.6C484.31,-1110.6 459.91,-1077.72 422.12,-1042.55"/>
<polygon fill="black" stroke="black" points="425.14,-1040.65 415.4,-1036.49 420.42,-1045.82 425.14,-1040.65"/>
</g>
<!-- Node_120 -->
<g id="node4" class="node">
<title>Node_120</title>
<polygon fill="#f2f2f2" stroke="none" points="199,-830.6 0,-830.6 0,-752.6 199,-752.6 199,-830.6"/>
<polygon fill="none" stroke="black" points="0,-804.6 0,-830.6 199,-830.6 199,-804.6 0,-804.6"/>
<text text-anchor="start" x="4.62" y="-813.3" font-family="Courier New" font-weight="bold" font-size="14.00">LocalVariableTargetNode</text>
<polygon fill="none" stroke="black" points="0,-778.6 0,-804.6 95,-804.6 95,-778.6 0,-778.6"/>
<text text-anchor="start" x="5" y="-786.3" font-family="Courier New" font-size="14.00">name</text>
<polygon fill="none" stroke="black" points="95,-778.6 95,-804.6 199,-804.6 199,-778.6 95,-778.6"/>
<text text-anchor="start" x="122.25" y="-786.3" font-family="Courier New" font-size="14.00">:error</text>
<polygon fill="none" stroke="black" points="0,-752.6 0,-778.6 95,-778.6 95,-752.6 0,-752.6"/>
<text text-anchor="start" x="5" y="-760.3" font-family="Courier New" font-size="14.00">depth</text>
<polygon fill="none" stroke="black" points="95,-752.6 95,-778.6 199,-778.6 199,-752.6 95,-752.6"/>
<text text-anchor="start" x="142.88" y="-760.3" font-family="Courier New" font-size="14.00">0</text>
</g>
<!-- Node_80&#45;&gt;Node_120 -->
<g id="edge4" class="edge">
<title>Node_80:reference&#45;&gt;Node_120</title>
<path fill="none" stroke="black" d="M203.5,-918.6C161.24,-918.6 132.94,-875.92 116.67,-840.24"/>
<polygon fill="black" stroke="black" points="119.59,-839.18 112.4,-831.4 113.17,-841.97 119.59,-839.18"/>
</g>
<!-- Node_140 -->
<g id="node5" class="node">
<title>Node_140</title>
<polygon fill="#f2f2f2" stroke="none" points="417.5,-843.6 217.5,-843.6 217.5,-739.6 417.5,-739.6 417.5,-843.6"/>
<polygon fill="none" stroke="black" points="217.5,-817.6 217.5,-843.6 417.5,-843.6 417.5,-817.6 217.5,-817.6"/>
<text text-anchor="start" x="276.25" y="-826.3" font-family="Courier New" font-weight="bold" font-size="14.00">RescueNode</text>
<polygon fill="none" stroke="black" points="217.5,-791.6 217.5,-817.6 317.5,-817.6 317.5,-791.6 217.5,-791.6"/>
<text text-anchor="start" x="222.12" y="-799.3" font-family="Courier New" font-size="14.00">keyword_loc</text>
<polygon fill="none" stroke="black" points="317.5,-791.6 317.5,-817.6 417.5,-817.6 417.5,-791.6 317.5,-791.6"/>
<text text-anchor="start" x="322.12" y="-799.3" font-family="Courier New" font-size="14.00">(3,0)&#45;(3,6)</text>
<polygon fill="none" stroke="black" points="217.5,-765.6 217.5,-791.6 417.5,-791.6 417.5,-765.6 217.5,-765.6"/>
<text text-anchor="start" x="222.5" y="-773.3" font-family="Courier New" font-size="14.00">exceptions</text>
<polygon fill="none" stroke="black" points="217.5,-739.6 217.5,-765.6 417.5,-765.6 417.5,-739.6 217.5,-739.6"/>
<text text-anchor="start" x="222.5" y="-747.3" font-family="Courier New" font-size="14.00">statements</text>
</g>
<!-- Node_80&#45;&gt;Node_140 -->
<g id="edge5" class="edge">
<title>Node_80:consequent&#45;&gt;Node_140</title>
<path fill="none" stroke="black" d="M317.5,-879.6C317.5,-871.32 317.5,-862.59 317.5,-853.99"/>
<polygon fill="black" stroke="black" points="321,-854.2 317.5,-844.2 314,-854.2 321,-854.2"/>
</g>
<!-- Node_80_exceptions -->
<g id="node11" class="node">
<title>Node_80_exceptions</title>
<ellipse fill="#f2f2f2" stroke="black" cx="437.5" cy="-791.6" rx="1.8" ry="1.8"/>
</g>
<!-- Node_80&#45;&gt;Node_80_exceptions -->
<g id="edge2" class="edge">
<title>Node_80:exceptions&#45;&gt;Node_80_exceptions</title>
<path fill="none" stroke="black" d="M431.5,-970.6C498.55,-970.6 456.32,-842.9 441.83,-803.82"/>
<polygon fill="black" stroke="black" points="444.81,-802.82 437.96,-794.74 438.27,-805.33 444.81,-802.82"/>
</g>
<!-- Node_100 -->
<g id="node3" class="node">
<title>Node_100</title>
<polygon fill="#f2f2f2" stroke="none" points="508.5,-703.6 366.5,-703.6 366.5,-651.6 508.5,-651.6 508.5,-703.6"/>
<polygon fill="none" stroke="black" points="366.5,-677.6 366.5,-703.6 508.5,-703.6 508.5,-677.6 366.5,-677.6"/>
<text text-anchor="start" x="371.5" y="-686.3" font-family="Courier New" font-weight="bold" font-size="14.00">ConstantReadNode</text>
<polygon fill="none" stroke="black" points="366.5,-651.6 366.5,-677.6 425.5,-677.6 425.5,-651.6 366.5,-651.6"/>
<text text-anchor="start" x="371.5" y="-659.3" font-family="Courier New" font-size="14.00">name</text>
<polygon fill="none" stroke="black" points="425.5,-651.6 425.5,-677.6 508.5,-677.6 508.5,-651.6 425.5,-651.6"/>
<text text-anchor="start" x="438.12" y="-659.3" font-family="Courier New" font-size="14.00">:Error1</text>
</g>
<!-- Node_180 -->
<g id="node7" class="node">
<title>Node_180</title>
<polygon fill="#f2f2f2" stroke="none" points="311,-703.6 186,-703.6 186,-651.6 311,-651.6 311,-703.6"/>
<polygon fill="none" stroke="black" points="186,-677.6 186,-703.6 311,-703.6 311,-677.6 186,-677.6"/>
<text text-anchor="start" x="190.75" y="-686.3" font-family="Courier New" font-weight="bold" font-size="14.00">StatementsNode</text>
<polygon fill="none" stroke="black" points="186,-651.6 186,-677.6 311,-677.6 311,-651.6 186,-651.6"/>
<text text-anchor="start" x="191" y="-659.3" font-family="Courier New" font-size="14.00">body</text>
</g>
<!-- Node_140&#45;&gt;Node_180 -->
<g id="edge8" class="edge">
<title>Node_140:statements&#45;&gt;Node_180</title>
<path fill="none" stroke="black" d="M216.5,-752.6C207.06,-752.6 216.46,-732.05 227.46,-712.6"/>
<polygon fill="black" stroke="black" points="230.9,-714.64 232.91,-704.24 224.86,-711.12 230.9,-714.64"/>
</g>
<!-- Node_140_exceptions -->
<g id="node12" class="node">
<title>Node_140_exceptions</title>
<ellipse fill="#f2f2f2" stroke="black" cx="332.5" cy="-677.6" rx="1.8" ry="1.8"/>
</g>
<!-- Node_140&#45;&gt;Node_140_exceptions -->
<g id="edge6" class="edge">
<title>Node_140:exceptions&#45;&gt;Node_140_exceptions</title>
<path fill="none" stroke="black" d="M418.5,-778.6C427.17,-778.6 421.87,-747.09 417.5,-739.6 401.83,-712.74 382.01,-722.74 357.5,-703.6 351.46,-698.88 345.36,-692.82 340.7,-687.85"/>
<polygon fill="black" stroke="black" points="343.65,-685.77 334.37,-680.64 338.43,-690.43 343.65,-685.77"/>
</g>
<!-- Node_160 -->
<g id="node6" class="node">
<title>Node_160</title>
<polygon fill="#f2f2f2" stroke="none" points="406.5,-615.6 264.5,-615.6 264.5,-563.6 406.5,-563.6 406.5,-615.6"/>
<polygon fill="none" stroke="black" points="264.5,-589.6 264.5,-615.6 406.5,-615.6 406.5,-589.6 264.5,-589.6"/>
<text text-anchor="start" x="269.5" y="-598.3" font-family="Courier New" font-weight="bold" font-size="14.00">ConstantReadNode</text>
<polygon fill="none" stroke="black" points="264.5,-563.6 264.5,-589.6 323.5,-589.6 323.5,-563.6 264.5,-563.6"/>
<text text-anchor="start" x="269.5" y="-571.3" font-family="Courier New" font-size="14.00">name</text>
<polygon fill="none" stroke="black" points="323.5,-563.6 323.5,-589.6 406.5,-589.6 406.5,-563.6 323.5,-563.6"/>
<text text-anchor="start" x="336.12" y="-571.3" font-family="Courier New" font-size="14.00">:Error2</text>
</g>
<!-- Node_180_body -->
<g id="node13" class="node">
<title>Node_180_body</title>
<ellipse fill="#f2f2f2" stroke="black" cx="244.5" cy="-589.6" rx="1.8" ry="1.8"/>
</g>
<!-- Node_180&#45;&gt;Node_180_body -->
<g id="edge9" class="edge">
<title>Node_180:body&#45;&gt;Node_180_body</title>
<path fill="none" stroke="black" d="M248.5,-651.6C248.5,-634.29 246.88,-614.27 245.7,-602.02"/>
<polygon fill="black" stroke="black" points="249.11,-602.04 244.6,-592.46 242.15,-602.77 249.11,-602.04"/>
</g>
<!-- Node_200 -->
<g id="node8" class="node">
<title>Node_200</title>
<polygon fill="#f2f2f2" stroke="none" points="353,-527.6 136,-527.6 136,-345.6 353,-345.6 353,-527.6"/>
<polygon fill="none" stroke="black" points="136,-501.6 136,-527.6 353,-527.6 353,-501.6 136,-501.6"/>
<text text-anchor="start" x="211.5" y="-510.3" font-family="Courier New" font-weight="bold" font-size="14.00">CallNode</text>
<polygon fill="none" stroke="black" points="136,-475.6 136,-501.6 236,-501.6 236,-475.6 136,-475.6"/>
<text text-anchor="start" x="141" y="-483.3" font-family="Courier New" font-size="14.00">flags</text>
<polygon fill="none" stroke="black" points="236,-475.6 236,-501.6 353,-501.6 353,-475.6 236,-475.6"/>
<polygon fill="none" stroke="black" points="136,-449.6 136,-475.6 236,-475.6 236,-449.6 136,-449.6"/>
<text text-anchor="start" x="141" y="-457.3" font-family="Courier New" font-size="14.00">name</text>
<polygon fill="none" stroke="black" points="236,-449.6 236,-475.6 353,-475.6 353,-449.6 236,-449.6"/>
<text text-anchor="start" x="273.88" y="-457.3" font-family="Courier New" font-size="14.00">:warn</text>
<polygon fill="none" stroke="black" points="136,-423.6 136,-449.6 236,-449.6 236,-423.6 136,-423.6"/>
<text text-anchor="start" x="140.62" y="-431.3" font-family="Courier New" font-size="14.00">message_loc</text>
<polygon fill="none" stroke="black" points="236,-423.6 236,-449.6 353,-449.6 353,-423.6 236,-423.6"/>
<text text-anchor="start" x="249.12" y="-431.3" font-family="Courier New" font-size="14.00">(4,2)&#45;(4,6)</text>
<polygon fill="none" stroke="black" points="136,-397.6 136,-423.6 236,-423.6 236,-397.6 136,-397.6"/>
<text text-anchor="start" x="140.62" y="-405.3" font-family="Courier New" font-size="14.00">opening_loc</text>
<polygon fill="none" stroke="black" points="236,-397.6 236,-423.6 353,-423.6 353,-397.6 236,-397.6"/>
<text text-anchor="start" x="249.12" y="-405.3" font-family="Courier New" font-size="14.00">(4,6)&#45;(4,7)</text>
<polygon fill="none" stroke="black" points="136,-371.6 136,-397.6 353,-397.6 353,-371.6 136,-371.6"/>
<text text-anchor="start" x="141" y="-379.3" font-family="Courier New" font-size="14.00">arguments</text>
<polygon fill="none" stroke="black" points="136,-345.6 136,-371.6 236,-371.6 236,-345.6 136,-345.6"/>
<text text-anchor="start" x="140.62" y="-353.3" font-family="Courier New" font-size="14.00">closing_loc</text>
<polygon fill="none" stroke="black" points="236,-345.6 236,-371.6 353,-371.6 353,-345.6 236,-345.6"/>
<text text-anchor="start" x="240.88" y="-353.3" font-family="Courier New" font-size="14.00">(4,14)&#45;(4,15)</text>
</g>
<!-- Node_220 -->
<g id="node9" class="node">
<title>Node_220</title>
<polygon fill="#f2f2f2" stroke="none" points="303,-309.6 186,-309.6 186,-231.6 303,-231.6 303,-309.6"/>
<polygon fill="none" stroke="black" points="186,-283.6 186,-309.6 303,-309.6 303,-283.6 186,-283.6"/>
<text text-anchor="start" x="190.88" y="-292.3" font-family="Courier New" font-weight="bold" font-size="14.00">ArgumentsNode</text>
<polygon fill="none" stroke="black" points="186,-257.6 186,-283.6 265,-283.6 265,-257.6 186,-257.6"/>
<text text-anchor="start" x="191" y="-265.3" font-family="Courier New" font-size="14.00">flags</text>
<polygon fill="none" stroke="black" points="265,-257.6 265,-283.6 303,-283.6 303,-257.6 265,-257.6"/>
<polygon fill="none" stroke="black" points="186,-231.6 186,-257.6 303,-257.6 303,-231.6 186,-231.6"/>
<text text-anchor="start" x="191" y="-239.3" font-family="Courier New" font-size="14.00">arguments</text>
</g>
<!-- Node_200&#45;&gt;Node_220 -->
<g id="edge11" class="edge">
<title>Node_200:arguments&#45;&gt;Node_220</title>
<path fill="none" stroke="black" d="M354.5,-384.6C371.84,-384.6 361.81,-360.82 353.5,-345.6 344.02,-328.24 328.5,-314.16 312.11,-303.13"/>
<polygon fill="black" stroke="black" points="314.27,-299.72 303.95,-297.32 310.51,-305.63 314.27,-299.72"/>
</g>
<!-- Node_220_arguments -->
<g id="node14" class="node">
<title>Node_220_arguments</title>
<ellipse fill="#f2f2f2" stroke="black" cx="244.5" cy="-193.8" rx="1.8" ry="1.8"/>
</g>
<!-- Node_220&#45;&gt;Node_220_arguments -->
<g id="edge12" class="edge">
<title>Node_220:arguments&#45;&gt;Node_220_arguments</title>
<path fill="none" stroke="black" d="M244.5,-231.6C244.5,-223.36 244.5,-214.09 244.5,-206.91"/>
<polygon fill="black" stroke="black" points="248,-206.94 244.5,-196.94 241,-206.94 248,-206.94"/>
</g>
<!-- Node_240 -->
<g id="node10" class="node">
<title>Node_240</title>
<polygon fill="#f2f2f2" stroke="none" points="353,-156 136,-156 136,0 353,0 353,-156"/>
<polygon fill="none" stroke="black" points="136,-130 136,-156 353,-156 353,-130 136,-130"/>
<text text-anchor="start" x="203.25" y="-138.7" font-family="Courier New" font-weight="bold" font-size="14.00">StringNode</text>
<polygon fill="none" stroke="black" points="136,-104 136,-130 236,-130 236,-104 136,-104"/>
<text text-anchor="start" x="141" y="-111.7" font-family="Courier New" font-size="14.00">flags</text>
<polygon fill="none" stroke="black" points="236,-104 236,-130 353,-130 353,-104 236,-104"/>
<polygon fill="none" stroke="black" points="136,-78 136,-104 236,-104 236,-78 136,-78"/>
<text text-anchor="start" x="140.62" y="-85.7" font-family="Courier New" font-size="14.00">opening_loc</text>
<polygon fill="none" stroke="black" points="236,-78 236,-104 353,-104 353,-78 236,-78"/>
<text text-anchor="start" x="249.12" y="-85.7" font-family="Courier New" font-size="14.00">(4,7)&#45;(4,8)</text>
<polygon fill="none" stroke="black" points="136,-52 136,-78 236,-78 236,-52 136,-52"/>
<text text-anchor="start" x="140.62" y="-59.7" font-family="Courier New" font-size="14.00">content_loc</text>
<polygon fill="none" stroke="black" points="236,-52 236,-78 353,-78 353,-52 236,-52"/>
<text text-anchor="start" x="245" y="-59.7" font-family="Courier New" font-size="14.00">(4,8)&#45;(4,13)</text>
<polygon fill="none" stroke="black" points="136,-26 136,-52 236,-52 236,-26 136,-26"/>
<text text-anchor="start" x="140.62" y="-33.7" font-family="Courier New" font-size="14.00">closing_loc</text>
<polygon fill="none" stroke="black" points="236,-26 236,-52 353,-52 353,-26 236,-26"/>
<text text-anchor="start" x="240.88" y="-33.7" font-family="Courier New" font-size="14.00">(4,13)&#45;(4,14)</text>
<polygon fill="none" stroke="black" points="136,0 136,-26 236,-26 236,0 136,0"/>
<text text-anchor="start" x="141" y="-7.7" font-family="Courier New" font-size="14.00">unescaped</text>
<polygon fill="none" stroke="black" points="236,0 236,-26 353,-26 353,0 236,0"/>
<text text-anchor="start" x="265.62" y="-7.7" font-family="Courier New" font-size="14.00">&quot;error&quot;</text>
</g>
<!-- Node_80_exceptions&#45;&gt;Node_100 -->
<g id="edge3" class="edge">
<title>Node_80_exceptions&#45;&gt;Node_100</title>
<path fill="none" stroke="black" d="M437.5,-789.34C437.5,-781.97 437.5,-743.67 437.5,-714.15"/>
<polygon fill="black" stroke="black" points="441,-714.35 437.5,-704.35 434,-714.35 441,-714.35"/>
</g>
<!-- Node_140_exceptions&#45;&gt;Node_160 -->
<g id="edge7" class="edge">
<title>Node_140_exceptions&#45;&gt;Node_160</title>
<path fill="none" stroke="black" d="M332.54,-675.38C332.73,-669.92 333.53,-646.96 334.25,-626.32"/>
<polygon fill="black" stroke="black" points="337.78,-626.64 334.63,-616.53 330.78,-626.4 337.78,-626.64"/>
</g>
<!-- Node_180_body&#45;&gt;Node_200 -->
<g id="edge10" class="edge">
<title>Node_180_body&#45;&gt;Node_200</title>
<path fill="none" stroke="black" d="M244.5,-587.64C244.5,-583.06 244.5,-562.77 244.5,-538.52"/>
<polygon fill="black" stroke="black" points="248,-538.53 244.5,-528.53 241,-538.53 248,-538.53"/>
</g>
<!-- Node_220_arguments&#45;&gt;Node_240 -->
<g id="edge13" class="edge">
<title>Node_220_arguments&#45;&gt;Node_240</title>
<path fill="none" stroke="black" d="M244.5,-191.52C244.5,-188.2 244.5,-178.71 244.5,-166.57"/>
<polygon fill="black" stroke="black" points="248,-166.81 244.5,-156.81 241,-166.81 248,-166.81"/>
</g>
</g>
</svg>
