<?xml version="1.0" encoding="UTF-8" standalone="no"?>
<!DOCTYPE svg PUBLIC "-//W3C//DTD SVG 1.1//EN"
 "http://www.w3.org/Graphics/SVG/1.1/DTD/svg11.dtd">
<!-- Generated by graphviz version 8.1.0 (20230707.0739)
 -->
<!-- Title: Prism Pages: 1 -->
<svg width="245pt" height="252pt"
 viewBox="0.00 0.00 245.05 252.00" xmlns="http://www.w3.org/2000/svg" xmlns:xlink="http://www.w3.org/1999/xlink">
<g id="graph0" class="graph" transform="scale(1 1) rotate(0) translate(4 248)">
<title>Prism</title>
<polygon fill="white" stroke="none" points="-4,4 -4,-248 241.05,-248 241.05,4 -4,4"/>
<!-- Node_60 -->
<g id="node1" class="node">
<title>Node_60</title>
<polygon fill="#f2f2f2" stroke="none" points="226,-244 0,-244 0,-88 226,-88 226,-244"/>
<polygon fill="none" stroke="black" points="0,-218 0,-244 226,-244 226,-218 0,-218"/>
<text text-anchor="start" x="22.25" y="-226.7" font-family="Courier New" font-weight="bold" font-size="14.00">LocalVariableWriteNode</text>
<polygon fill="none" stroke="black" points="0,-192 0,-218 109,-218 109,-192 0,-192"/>
<text text-anchor="start" x="5" y="-199.7" font-family="Courier New" font-size="14.00">name</text>
<polygon fill="none" stroke="black" points="109,-192 109,-218 226,-218 226,-192 109,-192"/>
<text text-anchor="start" x="151" y="-199.7" font-family="Courier New" font-size="14.00">:foo</text>
<polygon fill="none" stroke="black" points="0,-166 0,-192 109,-192 109,-166 0,-166"/>
<text text-anchor="start" x="5" y="-173.7" font-family="Courier New" font-size="14.00">depth</text>
<polygon fill="none" stroke="black" points="109,-166 109,-192 226,-192 226,-166 109,-166"/>
<text text-anchor="start" x="163.38" y="-173.7" font-family="Courier New" font-size="14.00">1</text>
<polygon fill="none" stroke="black" points="0,-140 0,-166 109,-166 109,-140 0,-140"/>
<text text-anchor="start" x="5" y="-147.7" font-family="Courier New" font-size="14.00">name_loc</text>
<polygon fill="none" stroke="black" points="109,-140 109,-166 226,-166 226,-140 109,-140"/>
<text text-anchor="start" x="113.88" y="-147.7" font-family="Courier New" font-size="14.00">(1,15)&#45;(1,18)</text>
<polygon fill="none" stroke="black" points="0,-114 0,-140 226,-140 226,-114 0,-114"/>
<text text-anchor="start" x="5" y="-121.7" font-family="Courier New" font-size="14.00">value</text>
<polygon fill="none" stroke="black" points="0,-88 0,-114 109,-114 109,-88 0,-88"/>
<text text-anchor="start" x="5" y="-95.7" font-family="Courier New" font-size="14.00">operator_loc</text>
<polygon fill="none" stroke="black" points="109,-88 109,-114 226,-114 226,-88 109,-88"/>
<text text-anchor="start" x="113.88" y="-95.7" font-family="Courier New" font-size="14.00">(1,19)&#45;(1,20)</text>
</g>
<!-- Node_80 -->
<g id="node2" class="node">
<title>Node_80</title>
<polygon fill="#f2f2f2" stroke="none" points="172,-52 54,-52 54,0 172,0 172,-52"/>
<polygon fill="none" stroke="black" points="54,-26 54,-52 172,-52 172,-26 54,-26"/>
<text text-anchor="start" x="67.62" y="-34.7" font-family="Courier New" font-weight="bold" font-size="14.00">IntegerNode</text>
<polygon fill="none" stroke="black" points="54,0 54,-26 105,-26 105,0 54,0"/>
<text text-anchor="start" x="58.88" y="-7.7" font-family="Courier New" font-size="14.00">flags</text>
<polygon fill="none" stroke="black" points="105,0 105,-26 172,-26 172,0 105,0"/>
<text text-anchor="start" x="109.62" y="-7.7" font-family="Courier New" font-size="14.00">decimal</text>
</g>
<!-- Node_60&#45;&gt;Node_80 -->
<g id="edge1" class="edge">
<title>Node_60:value&#45;&gt;Node_80</title>
<path fill="none" stroke="black" d="M227,-127C244.34,-127 235.07,-102.78 226,-88 215.66,-71.17 198.95,-58.68 181.51,-49.55"/>
<polygon fill="black" stroke="black" points="183.3,-46.04 172.78,-44.81 180.24,-52.34 183.3,-46.04"/>
</g>
</g>
</svg>
