<?xml version="1.0" encoding="UTF-8" standalone="no"?>
<!DOCTYPE svg PUBLIC "-//W3C//DTD SVG 1.1//EN"
 "http://www.w3.org/Graphics/SVG/1.1/DTD/svg11.dtd">
<!-- Generated by graphviz version 8.1.0 (20230707.0739)
 -->
<!-- Title: Prism Pages: 1 -->
<svg width="240pt" height="444pt"
 viewBox="0.00 0.00 240.29 444.00" xmlns="http://www.w3.org/2000/svg" xmlns:xlink="http://www.w3.org/1999/xlink">
<g id="graph0" class="graph" transform="scale(1 1) rotate(0) translate(4 440)">
<title>Prism</title>
<polygon fill="white" stroke="none" points="-4,4 -4,-440 236.29,-440 236.29,4 -4,4"/>
<!-- Node_60 -->
<g id="node1" class="node">
<title>Node_60</title>
<polygon fill="#f2f2f2" stroke="none" points="208.5,-436 8.5,-436 8.5,-254 208.5,-254 208.5,-436"/>
<polygon fill="none" stroke="black" points="8.5,-410 8.5,-436 208.5,-436 208.5,-410 8.5,-410"/>
<text text-anchor="start" x="75.5" y="-418.7" font-family="Courier New" font-weight="bold" font-size="14.00">CallNode</text>
<polygon fill="none" stroke="black" points="8.5,-384 8.5,-410 108.5,-410 108.5,-384 8.5,-384"/>
<text text-anchor="start" x="13.5" y="-391.7" font-family="Courier New" font-size="14.00">flags</text>
<polygon fill="none" stroke="black" points="108.5,-384 108.5,-410 208.5,-410 208.5,-384 108.5,-384"/>
<polygon fill="none" stroke="black" points="8.5,-358 8.5,-384 108.5,-384 108.5,-358 8.5,-358"/>
<text text-anchor="start" x="13.5" y="-365.7" font-family="Courier New" font-size="14.00">name</text>
<polygon fill="none" stroke="black" points="108.5,-358 108.5,-384 208.5,-384 208.5,-358 108.5,-358"/>
<text text-anchor="start" x="142" y="-365.7" font-family="Courier New" font-size="14.00">:foo</text>
<polygon fill="none" stroke="black" points="8.5,-332 8.5,-358 108.5,-358 108.5,-332 8.5,-332"/>
<text text-anchor="start" x="13.12" y="-339.7" font-family="Courier New" font-size="14.00">message_loc</text>
<polygon fill="none" stroke="black" points="108.5,-332 108.5,-358 208.5,-358 208.5,-332 108.5,-332"/>
<text text-anchor="start" x="113.12" y="-339.7" font-family="Courier New" font-size="14.00">(1,0)&#45;(1,3)</text>
<polygon fill="none" stroke="black" points="8.5,-306 8.5,-332 108.5,-332 108.5,-306 8.5,-306"/>
<text text-anchor="start" x="13.12" y="-313.7" font-family="Courier New" font-size="14.00">opening_loc</text>
<polygon fill="none" stroke="black" points="108.5,-306 108.5,-332 208.5,-332 208.5,-306 108.5,-306"/>
<text text-anchor="start" x="113.12" y="-313.7" font-family="Courier New" font-size="14.00">(1,3)&#45;(1,4)</text>
<polygon fill="none" stroke="black" points="8.5,-280 8.5,-306 108.5,-306 108.5,-280 8.5,-280"/>
<text text-anchor="start" x="13.12" y="-287.7" font-family="Courier New" font-size="14.00">closing_loc</text>
<polygon fill="none" stroke="black" points="108.5,-280 108.5,-306 208.5,-306 208.5,-280 108.5,-280"/>
<text text-anchor="start" x="113.12" y="-287.7" font-family="Courier New" font-size="14.00">(1,8)&#45;(1,9)</text>
<polygon fill="none" stroke="black" points="8.5,-254 8.5,-280 208.5,-280 208.5,-254 8.5,-254"/>
<text text-anchor="start" x="13.5" y="-261.7" font-family="Courier New" font-size="14.00">block</text>
</g>
<!-- Node_80 -->
<g id="node2" class="node">
<title>Node_80</title>
<polygon fill="#f2f2f2" stroke="none" points="213,-218 4,-218 4,-140 213,-140 213,-218"/>
<polygon fill="none" stroke="black" points="4,-192 4,-218 213,-218 213,-192 4,-192"/>
<text text-anchor="start" x="38.38" y="-200.7" font-family="Courier New" font-weight="bold" font-size="14.00">BlockArgumentNode</text>
<polygon fill="none" stroke="black" points="4,-166 4,-192 213,-192 213,-166 4,-166"/>
<text text-anchor="start" x="9" y="-173.7" font-family="Courier New" font-size="14.00">expression</text>
<polygon fill="none" stroke="black" points="4,-140 4,-166 113,-166 113,-140 4,-140"/>
<text text-anchor="start" x="9" y="-147.7" font-family="Courier New" font-size="14.00">operator_loc</text>
<polygon fill="none" stroke="black" points="113,-140 113,-166 213,-166 213,-140 113,-140"/>
<text text-anchor="start" x="117.62" y="-147.7" font-family="Courier New" font-size="14.00">(1,4)&#45;(1,5)</text>
</g>
<!-- Node_60&#45;&gt;Node_80 -->
<g id="edge1" class="edge">
<title>Node_60:block&#45;&gt;Node_80</title>
<path fill="none" stroke="black" d="M108.5,-254C108.5,-245.78 108.5,-237.05 108.5,-228.57"/>
<polygon fill="black" stroke="black" points="112,-228.65 108.5,-218.65 105,-228.65 112,-228.65"/>
</g>
<!-- Node_100 -->
<g id="node3" class="node">
<title>Node_100</title>
<polygon fill="#f2f2f2" stroke="none" points="217,-104 0,-104 0,0 217,0 217,-104"/>
<polygon fill="none" stroke="black" points="0,-78 0,-104 217,-104 217,-78 0,-78"/>
<text text-anchor="start" x="75.5" y="-86.7" font-family="Courier New" font-weight="bold" font-size="14.00">CallNode</text>
<polygon fill="none" stroke="black" points="0,-52 0,-78 100,-78 100,-52 0,-52"/>
<text text-anchor="start" x="5" y="-59.7" font-family="Courier New" font-size="14.00">flags</text>
<polygon fill="none" stroke="black" points="100,-52 100,-78 217,-78 217,-52 100,-52"/>
<text text-anchor="start" x="104.88" y="-59.7" font-family="Courier New" font-size="14.00">variable_call</text>
<polygon fill="none" stroke="black" points="0,-26 0,-52 100,-52 100,-26 0,-26"/>
<text text-anchor="start" x="5" y="-33.7" font-family="Courier New" font-size="14.00">name</text>
<polygon fill="none" stroke="black" points="100,-26 100,-52 217,-52 217,-26 100,-26"/>
<text text-anchor="start" x="142" y="-33.7" font-family="Courier New" font-size="14.00">:bar</text>
<polygon fill="none" stroke="black" points="0,0 0,-26 100,-26 100,0 0,0"/>
<text text-anchor="start" x="4.62" y="-7.7" font-family="Courier New" font-size="14.00">message_loc</text>
<polygon fill="none" stroke="black" points="100,0 100,-26 217,-26 217,0 100,0"/>
<text text-anchor="start" x="113.12" y="-7.7" font-family="Courier New" font-size="14.00">(1,5)&#45;(1,8)</text>
</g>
<!-- Node_80&#45;&gt;Node_100 -->
<g id="edge2" class="edge">
<title>Node_80:expression&#45;&gt;Node_100</title>
<path fill="none" stroke="black" d="M214.5,-179C253.06,-179 221.55,-144.01 183.1,-110.91"/>
<polygon fill="black" stroke="black" points="185.71,-107.68 175.82,-103.89 181.18,-113.02 185.71,-107.68"/>
</g>
</g>
</svg>
