<?xml version="1.0" encoding="UTF-8" standalone="no"?>
<!DOCTYPE svg PUBLIC "-//W3C//DTD SVG 1.1//EN"
 "http://www.w3.org/Graphics/SVG/1.1/DTD/svg11.dtd">
<!-- Generated by graphviz version 8.1.0 (20230707.0739)
 -->
<!-- Title: Prism Pages: 1 -->
<svg width="352pt" height="813pt"
 viewBox="0.00 0.00 352.00 813.20" xmlns="http://www.w3.org/2000/svg" xmlns:xlink="http://www.w3.org/1999/xlink">
<g id="graph0" class="graph" transform="scale(1 1) rotate(0) translate(4 809.2)">
<title>Prism</title>
<polygon fill="white" stroke="none" points="-4,4 -4,-809.2 348,-809.2 348,4 -4,4"/>
<!-- Node_60 -->
<g id="node1" class="node">
<title>Node_60</title>
<polygon fill="#f2f2f2" stroke="none" points="286,-805.2 86,-805.2 86,-623.2 286,-623.2 286,-805.2"/>
<polygon fill="none" stroke="black" points="86,-779.2 86,-805.2 286,-805.2 286,-779.2 86,-779.2"/>
<text text-anchor="start" x="153" y="-787.9" font-family="Courier New" font-weight="bold" font-size="14.00">CallNode</text>
<polygon fill="none" stroke="black" points="86,-753.2 86,-779.2 186,-779.2 186,-753.2 86,-753.2"/>
<text text-anchor="start" x="91" y="-760.9" font-family="Courier New" font-size="14.00">flags</text>
<polygon fill="none" stroke="black" points="186,-753.2 186,-779.2 286,-779.2 286,-753.2 186,-753.2"/>
<polygon fill="none" stroke="black" points="86,-727.2 86,-753.2 186,-753.2 186,-727.2 86,-727.2"/>
<text text-anchor="start" x="91" y="-734.9" font-family="Courier New" font-size="14.00">name</text>
<polygon fill="none" stroke="black" points="186,-727.2 186,-753.2 286,-753.2 286,-727.2 186,-727.2"/>
<text text-anchor="start" x="219.5" y="-734.9" font-family="Courier New" font-size="14.00">:foo</text>
<polygon fill="none" stroke="black" points="86,-701.2 86,-727.2 186,-727.2 186,-701.2 86,-701.2"/>
<text text-anchor="start" x="90.62" y="-708.9" font-family="Courier New" font-size="14.00">message_loc</text>
<polygon fill="none" stroke="black" points="186,-701.2 186,-727.2 286,-727.2 286,-701.2 186,-701.2"/>
<text text-anchor="start" x="190.62" y="-708.9" font-family="Courier New" font-size="14.00">(1,0)&#45;(1,3)</text>
<polygon fill="none" stroke="black" points="86,-675.2 86,-701.2 186,-701.2 186,-675.2 86,-675.2"/>
<text text-anchor="start" x="90.62" y="-682.9" font-family="Courier New" font-size="14.00">opening_loc</text>
<polygon fill="none" stroke="black" points="186,-675.2 186,-701.2 286,-701.2 286,-675.2 186,-675.2"/>
<text text-anchor="start" x="190.62" y="-682.9" font-family="Courier New" font-size="14.00">(1,3)&#45;(1,4)</text>
<polygon fill="none" stroke="black" points="86,-649.2 86,-675.2 286,-675.2 286,-649.2 86,-649.2"/>
<text text-anchor="start" x="91" y="-656.9" font-family="Courier New" font-size="14.00">arguments</text>
<polygon fill="none" stroke="black" points="86,-623.2 86,-649.2 186,-649.2 186,-623.2 86,-623.2"/>
<text text-anchor="start" x="90.62" y="-630.9" font-family="Courier New" font-size="14.00">closing_loc</text>
<polygon fill="none" stroke="black" points="186,-623.2 186,-649.2 286,-649.2 286,-623.2 186,-623.2"/>
<text text-anchor="start" x="190.62" y="-630.9" font-family="Courier New" font-size="14.00">(1,8)&#45;(1,9)</text>
</g>
<!-- Node_80 -->
<g id="node2" class="node">
<title>Node_80</title>
<polygon fill="#f2f2f2" stroke="none" points="244.5,-587.2 127.5,-587.2 127.5,-509.2 244.5,-509.2 244.5,-587.2"/>
<polygon fill="none" stroke="black" points="127.5,-561.2 127.5,-587.2 244.5,-587.2 244.5,-561.2 127.5,-561.2"/>
<text text-anchor="start" x="132.38" y="-569.9" font-family="Courier New" font-weight="bold" font-size="14.00">ArgumentsNode</text>
<polygon fill="none" stroke="black" points="127.5,-535.2 127.5,-561.2 206.5,-561.2 206.5,-535.2 127.5,-535.2"/>
<text text-anchor="start" x="132.5" y="-542.9" font-family="Courier New" font-size="14.00">flags</text>
<polygon fill="none" stroke="black" points="206.5,-535.2 206.5,-561.2 244.5,-561.2 244.5,-535.2 206.5,-535.2"/>
<polygon fill="none" stroke="black" points="127.5,-509.2 127.5,-535.2 244.5,-535.2 244.5,-509.2 127.5,-509.2"/>
<text text-anchor="start" x="132.5" y="-516.9" font-family="Courier New" font-size="14.00">arguments</text>
</g>
<!-- Node_60&#45;&gt;Node_80 -->
<g id="edge1" class="edge">
<title>Node_60:arguments&#45;&gt;Node_80</title>
<path fill="none" stroke="black" d="M287,-662.2C304.34,-662.2 294,-638.58 286,-623.2 278.36,-608.5 266.31,-595.97 253.2,-585.63"/>
<polygon fill="black" stroke="black" points="255.58,-582.29 245.46,-579.14 251.41,-587.91 255.58,-582.29"/>
</g>
<!-- Node_80_arguments -->
<g id="node8" class="node">
<title>Node_80_arguments</title>
<ellipse fill="#f2f2f2" stroke="black" cx="186" cy="-471.4" rx="1.8" ry="1.8"/>
</g>
<!-- Node_80&#45;&gt;Node_80_arguments -->
<g id="edge2" class="edge">
<title>Node_80:arguments&#45;&gt;Node_80_arguments</title>
<path fill="none" stroke="black" d="M186,-509.2C186,-500.96 186,-491.69 186,-484.51"/>
<polygon fill="black" stroke="black" points="189.5,-484.54 186,-474.54 182.5,-484.54 189.5,-484.54"/>
</g>
<!-- Node_100 -->
<g id="node3" class="node">
<title>Node_100</title>
<polygon fill="#f2f2f2" stroke="none" points="252.5,-433.6 119.5,-433.6 119.5,-381.6 252.5,-381.6 252.5,-433.6"/>
<polygon fill="none" stroke="black" points="119.5,-407.6 119.5,-433.6 252.5,-433.6 252.5,-407.6 119.5,-407.6"/>
<text text-anchor="start" x="124.12" y="-416.3" font-family="Courier New" font-weight="bold" font-size="14.00">KeywordHashNode</text>
<polygon fill="none" stroke="black" points="119.5,-381.6 119.5,-407.6 252.5,-407.6 252.5,-381.6 119.5,-381.6"/>
<text text-anchor="start" x="124.5" y="-389.3" font-family="Courier New" font-size="14.00">elements</text>
</g>
<!-- Node_100_elements -->
<g id="node9" class="node">
<title>Node_100_elements</title>
<ellipse fill="#f2f2f2" stroke="black" cx="186" cy="-343.8" rx="1.8" ry="1.8"/>
</g>
<!-- Node_100&#45;&gt;Node_100_elements -->
<g id="edge4" class="edge">
<title>Node_100:elements&#45;&gt;Node_100_elements</title>
<path fill="none" stroke="black" d="M186,-381.6C186,-373.36 186,-364.09 186,-356.91"/>
<polygon fill="black" stroke="black" points="189.5,-356.94 186,-346.94 182.5,-356.94 189.5,-356.94"/>
</g>
<!-- Node_120 -->
<g id="node4" class="node">
<title>Node_120</title>
<polygon fill="#f2f2f2" stroke="none" points="228,-306 144,-306 144,-228 228,-228 228,-306"/>
<polygon fill="none" stroke="black" points="144,-280 144,-306 228,-306 228,-280 144,-280"/>
<text text-anchor="start" x="148.88" y="-288.7" font-family="Courier New" font-weight="bold" font-size="14.00">AssocNode</text>
<polygon fill="none" stroke="black" points="144,-254 144,-280 228,-280 228,-254 144,-254"/>
<text text-anchor="start" x="149" y="-261.7" font-family="Courier New" font-size="14.00">key</text>
<polygon fill="none" stroke="black" points="144,-228 144,-254 228,-254 228,-228 144,-228"/>
<text text-anchor="start" x="149" y="-235.7" font-family="Courier New" font-size="14.00">value</text>
</g>
<!-- Node_140 -->
<g id="node5" class="node">
<title>Node_140</title>
<polygon fill="#f2f2f2" stroke="none" points="200,-192 0,-192 0,-88 200,-88 200,-192"/>
<polygon fill="none" stroke="black" points="0,-166 0,-192 200,-192 200,-166 0,-166"/>
<text text-anchor="start" x="58.75" y="-174.7" font-family="Courier New" font-weight="bold" font-size="14.00">SymbolNode</text>
<polygon fill="none" stroke="black" points="0,-140 0,-166 100,-166 100,-140 0,-140"/>
<text text-anchor="start" x="5" y="-147.7" font-family="Courier New" font-size="14.00">value_loc</text>
<polygon fill="none" stroke="black" points="100,-140 100,-166 200,-166 200,-140 100,-140"/>
<text text-anchor="start" x="104.62" y="-147.7" font-family="Courier New" font-size="14.00">(1,4)&#45;(1,7)</text>
<polygon fill="none" stroke="black" points="0,-114 0,-140 100,-140 100,-114 0,-114"/>
<text text-anchor="start" x="4.62" y="-121.7" font-family="Courier New" font-size="14.00">closing_loc</text>
<polygon fill="none" stroke="black" points="100,-114 100,-140 200,-140 200,-114 100,-114"/>
<text text-anchor="start" x="104.62" y="-121.7" font-family="Courier New" font-size="14.00">(1,7)&#45;(1,8)</text>
<polygon fill="none" stroke="black" points="0,-88 0,-114 100,-114 100,-88 0,-88"/>
<text text-anchor="start" x="5" y="-95.7" font-family="Courier New" font-size="14.00">unescaped</text>
<polygon fill="none" stroke="black" points="100,-88 100,-114 200,-114 200,-88 100,-88"/>
<text text-anchor="start" x="129.38" y="-95.7" font-family="Courier New" font-size="14.00">&quot;Bar&quot;</text>
</g>
<!-- Node_120&#45;&gt;Node_140 -->
<g id="edge6" class="edge">
<title>Node_120:key&#45;&gt;Node_140</title>
<path fill="none" stroke="black" d="M143,-267C112.99,-267 102.36,-234.6 99.17,-202.65"/>
<polygon fill="black" stroke="black" points="102.6,-202.59 98.36,-192.89 95.62,-203.12 102.6,-202.59"/>
</g>
<!-- Node_160 -->
<g id="node6" class="node">
<title>Node_160</title>
<polygon fill="#f2f2f2" stroke="none" points="327.5,-166 218.5,-166 218.5,-114 327.5,-114 327.5,-166"/>
<polygon fill="none" stroke="black" points="218.5,-140 218.5,-166 327.5,-166 327.5,-140 218.5,-140"/>
<text text-anchor="start" x="223.5" y="-148.7" font-family="Courier New" font-weight="bold" font-size="14.00">ImplicitNode</text>
<polygon fill="none" stroke="black" points="218.5,-114 218.5,-140 327.5,-140 327.5,-114 218.5,-114"/>
<text text-anchor="start" x="223.5" y="-121.7" font-family="Courier New" font-size="14.00">value</text>
</g>
<!-- Node_120&#45;&gt;Node_160 -->
<g id="edge7" class="edge">
<title>Node_120:value&#45;&gt;Node_160</title>
<path fill="none" stroke="black" d="M229,-241C258.01,-241 268.06,-205.3 271.45,-176.56"/>
<polygon fill="black" stroke="black" points="275,-177.26 272.45,-166.98 268.03,-176.6 275,-177.26"/>
</g>
<!-- Node_180 -->
<g id="node7" class="node">
<title>Node_180</title>
<polygon fill="#f2f2f2" stroke="none" points="344,-52 202,-52 202,0 344,0 344,-52"/>
<polygon fill="none" stroke="black" points="202,-26 202,-52 344,-52 344,-26 202,-26"/>
<text text-anchor="start" x="207" y="-34.7" font-family="Courier New" font-weight="bold" font-size="14.00">ConstantReadNode</text>
<polygon fill="none" stroke="black" points="202,0 202,-26 273,-26 273,0 202,0"/>
<text text-anchor="start" x="207" y="-7.7" font-family="Courier New" font-size="14.00">name</text>
<polygon fill="none" stroke="black" points="273,0 273,-26 344,-26 344,0 273,0"/>
<text text-anchor="start" x="292" y="-7.7" font-family="Courier New" font-size="14.00">:Bar</text>
</g>
<!-- Node_160&#45;&gt;Node_180 -->
<g id="edge8" class="edge">
<title>Node_160:value&#45;&gt;Node_180</title>
<path fill="none" stroke="black" d="M273,-113C273,-96.42 273,-78.04 273,-62.55"/>
<polygon fill="black" stroke="black" points="276.5,-62.84 273,-52.84 269.5,-62.84 276.5,-62.84"/>
</g>
<!-- Node_80_arguments&#45;&gt;Node_100 -->
<g id="edge3" class="edge">
<title>Node_80_arguments&#45;&gt;Node_100</title>
<path fill="none" stroke="black" d="M186,-469.33C186,-466.05 186,-455.69 186,-444.44"/>
<polygon fill="black" stroke="black" points="189.5,-444.57 186,-434.57 182.5,-444.58 189.5,-444.57"/>
</g>
<!-- Node_100_elements&#45;&gt;Node_120 -->
<g id="edge5" class="edge">
<title>Node_100_elements&#45;&gt;Node_120</title>
<path fill="none" stroke="black" d="M186,-341.5C186,-338.06 186,-328.15 186,-316.69"/>
<polygon fill="black" stroke="black" points="189.5,-316.87 186,-306.87 182.5,-316.87 189.5,-316.87"/>
</g>
</g>
</svg>
