<?xml version="1.0" encoding="UTF-8" standalone="no"?>
<!DOCTYPE svg PUBLIC "-//W3C//DTD SVG 1.1//EN"
 "http://www.w3.org/Graphics/SVG/1.1/DTD/svg11.dtd">
<!-- Generated by graphviz version 8.1.0 (20230707.0739)
 -->
<!-- Title: Prism Pages: 1 -->
<svg width="258pt" height="226pt"
 viewBox="0.00 0.00 258.00 226.00" xmlns="http://www.w3.org/2000/svg" xmlns:xlink="http://www.w3.org/1999/xlink">
<g id="graph0" class="graph" transform="scale(1 1) rotate(0) translate(4 222)">
<title>Prism</title>
<polygon fill="white" stroke="none" points="-4,4 -4,-222 254,-222 254,4 -4,4"/>
<!-- Node_60 -->
<g id="node1" class="node">
<title>Node_60</title>
<polygon fill="#f2f2f2" stroke="none" points="208,-218 42,-218 42,-166 208,-166 208,-218"/>
<polygon fill="none" stroke="black" points="42,-192 42,-218 208,-218 208,-192 42,-192"/>
<text text-anchor="start" x="46.62" y="-200.7" font-family="Courier New" font-weight="bold" font-size="14.00">ForwardingSuperNode</text>
<polygon fill="none" stroke="black" points="42,-166 42,-192 208,-192 208,-166 42,-166"/>
<text text-anchor="start" x="47" y="-173.7" font-family="Courier New" font-size="14.00">block</text>
</g>
<!-- Node_80 -->
<g id="node2" class="node">
<title>Node_80</title>
<polygon fill="#f2f2f2" stroke="none" points="250,-130 0,-130 0,0 250,0 250,-130"/>
<polygon fill="none" stroke="black" points="0,-104 0,-130 250,-130 250,-104 0,-104"/>
<text text-anchor="start" x="87.88" y="-112.7" font-family="Courier New" font-weight="bold" font-size="14.00">BlockNode</text>
<polygon fill="none" stroke="black" points="0,-78 0,-104 150,-104 150,-78 0,-78"/>
<text text-anchor="start" x="5" y="-85.7" font-family="Courier New" font-size="14.00">locals</text>
<polygon fill="none" stroke="black" points="150,-78 150,-104 250,-104 250,-78 150,-78"/>
<text text-anchor="start" x="191.75" y="-85.7" font-family="Courier New" font-size="14.00">[]</text>
<polygon fill="none" stroke="black" points="0,-52 0,-78 150,-78 150,-52 0,-52"/>
<text text-anchor="start" x="4.88" y="-59.7" font-family="Courier New" font-size="14.00">locals_body_index</text>
<polygon fill="none" stroke="black" points="150,-52 150,-78 250,-78 250,-52 150,-52"/>
<text text-anchor="start" x="195.88" y="-59.7" font-family="Courier New" font-size="14.00">0</text>
<polygon fill="none" stroke="black" points="0,-26 0,-52 150,-52 150,-26 0,-26"/>
<text text-anchor="start" x="5" y="-33.7" font-family="Courier New" font-size="14.00">opening_loc</text>
<polygon fill="none" stroke="black" points="150,-26 150,-52 250,-52 250,-26 150,-26"/>
<text text-anchor="start" x="154.62" y="-33.7" font-family="Courier New" font-size="14.00">(1,6)&#45;(1,7)</text>
<polygon fill="none" stroke="black" points="0,0 0,-26 150,-26 150,0 0,0"/>
<text text-anchor="start" x="5" y="-7.7" font-family="Courier New" font-size="14.00">closing_loc</text>
<polygon fill="none" stroke="black" points="150,0 150,-26 250,-26 250,0 150,0"/>
<text text-anchor="start" x="154.62" y="-7.7" font-family="Courier New" font-size="14.00">(1,7)&#45;(1,8)</text>
</g>
<!-- Node_60&#45;&gt;Node_80 -->
<g id="edge1" class="edge">
<title>Node_60:block&#45;&gt;Node_80</title>
<path fill="none" stroke="black" d="M125,-166C125,-157.76 125,-149.14 125,-140.56"/>
<polygon fill="black" stroke="black" points="128.5,-140.75 125,-130.75 121.5,-140.75 128.5,-140.75"/>
</g>
</g>
</svg>
