<?xml version="1.0" encoding="UTF-8" standalone="no"?>
<!DOCTYPE svg PUBLIC "-//W3C//DTD SVG 1.1//EN"
 "http://www.w3.org/Graphics/SVG/1.1/DTD/svg11.dtd">
<!-- Generated by graphviz version 8.1.0 (20230707.0739)
 -->
<!-- Title: Prism Pages: 1 -->
<svg width="454pt" height="458pt"
 viewBox="0.00 0.00 453.50 457.60" xmlns="http://www.w3.org/2000/svg" xmlns:xlink="http://www.w3.org/1999/xlink">
<g id="graph0" class="graph" transform="scale(1 1) rotate(0) translate(4 453.6)">
<title>Prism</title>
<polygon fill="white" stroke="none" points="-4,4 -4,-453.6 449.5,-453.6 449.5,4 -4,4"/>
<!-- Node_60 -->
<g id="node1" class="node">
<title>Node_60</title>
<polygon fill="#f2f2f2" stroke="none" points="393.5,-449.6 68.5,-449.6 68.5,-215.6 393.5,-215.6 393.5,-449.6"/>
<polygon fill="none" stroke="black" points="68.5,-423.6 68.5,-449.6 393.5,-449.6 393.5,-423.6 68.5,-423.6"/>
<text text-anchor="start" x="193.88" y="-432.3" font-family="Courier New" font-weight="bold" font-size="14.00">ClassNode</text>
<polygon fill="none" stroke="black" points="68.5,-397.6 68.5,-423.6 276.5,-423.6 276.5,-397.6 68.5,-397.6"/>
<text text-anchor="start" x="73.5" y="-405.3" font-family="Courier New" font-size="14.00">locals</text>
<polygon fill="none" stroke="black" points="276.5,-397.6 276.5,-423.6 393.5,-423.6 393.5,-397.6 276.5,-397.6"/>
<text text-anchor="start" x="326.75" y="-405.3" font-family="Courier New" font-size="14.00">[]</text>
<polygon fill="none" stroke="black" points="68.5,-371.6 68.5,-397.6 276.5,-397.6 276.5,-371.6 68.5,-371.6"/>
<text text-anchor="start" x="73.5" y="-379.3" font-family="Courier New" font-size="14.00">class_keyword_loc</text>
<polygon fill="none" stroke="black" points="276.5,-371.6 276.5,-397.6 393.5,-397.6 393.5,-371.6 276.5,-371.6"/>
<text text-anchor="start" x="289.62" y="-379.3" font-family="Courier New" font-size="14.00">(1,0)&#45;(1,5)</text>
<polygon fill="none" stroke="black" points="68.5,-345.6 68.5,-371.6 393.5,-371.6 393.5,-345.6 68.5,-345.6"/>
<text text-anchor="start" x="73.5" y="-353.3" font-family="Courier New" font-size="14.00">constant_path</text>
<polygon fill="none" stroke="black" points="68.5,-319.6 68.5,-345.6 276.5,-345.6 276.5,-319.6 68.5,-319.6"/>
<text text-anchor="start" x="73.5" y="-327.3" font-family="Courier New" font-size="14.00">inheritance_operator_loc</text>
<polygon fill="none" stroke="black" points="276.5,-319.6 276.5,-345.6 393.5,-345.6 393.5,-319.6 276.5,-319.6"/>
<text text-anchor="start" x="281.38" y="-327.3" font-family="Courier New" font-size="14.00">(1,10)&#45;(1,11)</text>
<polygon fill="none" stroke="black" points="68.5,-293.6 68.5,-319.6 393.5,-319.6 393.5,-293.6 68.5,-293.6"/>
<text text-anchor="start" x="73.5" y="-301.3" font-family="Courier New" font-size="14.00">superclass</text>
<polygon fill="none" stroke="black" points="68.5,-267.6 68.5,-293.6 393.5,-293.6 393.5,-267.6 68.5,-267.6"/>
<text text-anchor="start" x="73.5" y="-275.3" font-family="Courier New" font-size="14.00">body</text>
<polygon fill="none" stroke="black" points="68.5,-241.6 68.5,-267.6 276.5,-267.6 276.5,-241.6 68.5,-241.6"/>
<text text-anchor="start" x="73.5" y="-249.3" font-family="Courier New" font-size="14.00">end_keyword_loc</text>
<polygon fill="none" stroke="black" points="276.5,-241.6 276.5,-267.6 393.5,-267.6 393.5,-241.6 276.5,-241.6"/>
<text text-anchor="start" x="289.62" y="-249.3" font-family="Courier New" font-size="14.00">(3,0)&#45;(3,3)</text>
<polygon fill="none" stroke="black" points="68.5,-215.6 68.5,-241.6 276.5,-241.6 276.5,-215.6 68.5,-215.6"/>
<text text-anchor="start" x="73.5" y="-223.3" font-family="Courier New" font-size="14.00">name</text>
<polygon fill="none" stroke="black" points="276.5,-215.6 276.5,-241.6 393.5,-241.6 393.5,-215.6 276.5,-215.6"/>
<text text-anchor="start" x="318.5" y="-223.3" font-family="Courier New" font-size="14.00">:Foo</text>
</g>
<!-- Node_80 -->
<g id="node2" class="node">
<title>Node_80</title>
<polygon fill="#f2f2f2" stroke="none" points="142,-179.6 0,-179.6 0,-127.6 142,-127.6 142,-179.6"/>
<polygon fill="none" stroke="black" points="0,-153.6 0,-179.6 142,-179.6 142,-153.6 0,-153.6"/>
<text text-anchor="start" x="5" y="-162.3" font-family="Courier New" font-weight="bold" font-size="14.00">ConstantReadNode</text>
<polygon fill="none" stroke="black" points="0,-127.6 0,-153.6 71,-153.6 71,-127.6 0,-127.6"/>
<text text-anchor="start" x="5" y="-135.3" font-family="Courier New" font-size="14.00">name</text>
<polygon fill="none" stroke="black" points="71,-127.6 71,-153.6 142,-153.6 142,-127.6 71,-127.6"/>
<text text-anchor="start" x="90" y="-135.3" font-family="Courier New" font-size="14.00">:Foo</text>
</g>
<!-- Node_60&#45;&gt;Node_80 -->
<g id="edge1" class="edge">
<title>Node_60:constant_path&#45;&gt;Node_80</title>
<path fill="none" stroke="black" d="M67,-358.6C0.14,-358.6 34.05,-247.7 56.48,-189.44"/>
<polygon fill="black" stroke="black" points="60.1,-190.79 60.5,-180.21 53.58,-188.23 60.1,-190.79"/>
</g>
<!-- Node_100 -->
<g id="node3" class="node">
<title>Node_100</title>
<polygon fill="#f2f2f2" stroke="none" points="302,-179.6 160,-179.6 160,-127.6 302,-127.6 302,-179.6"/>
<polygon fill="none" stroke="black" points="160,-153.6 160,-179.6 302,-179.6 302,-153.6 160,-153.6"/>
<text text-anchor="start" x="165" y="-162.3" font-family="Courier New" font-weight="bold" font-size="14.00">ConstantReadNode</text>
<polygon fill="none" stroke="black" points="160,-127.6 160,-153.6 231,-153.6 231,-127.6 160,-127.6"/>
<text text-anchor="start" x="165" y="-135.3" font-family="Courier New" font-size="14.00">name</text>
<polygon fill="none" stroke="black" points="231,-127.6 231,-153.6 302,-153.6 302,-127.6 231,-127.6"/>
<text text-anchor="start" x="250" y="-135.3" font-family="Courier New" font-size="14.00">:Bar</text>
</g>
<!-- Node_60&#45;&gt;Node_100 -->
<g id="edge2" class="edge">
<title>Node_60:superclass&#45;&gt;Node_100</title>
<path fill="none" stroke="black" d="M395,-306.6C435.45,-306.6 417.23,-248.71 394,-215.6 388.62,-207.94 350.25,-193.4 312.1,-180.44"/>
<polygon fill="black" stroke="black" points="313.49,-176.88 302.9,-177.01 311.26,-183.51 313.49,-176.88"/>
</g>
<!-- Node_120 -->
<g id="node4" class="node">
<title>Node_120</title>
<polygon fill="#f2f2f2" stroke="none" points="445.5,-179.6 320.5,-179.6 320.5,-127.6 445.5,-127.6 445.5,-179.6"/>
<polygon fill="none" stroke="black" points="320.5,-153.6 320.5,-179.6 445.5,-179.6 445.5,-153.6 320.5,-153.6"/>
<text text-anchor="start" x="325.25" y="-162.3" font-family="Courier New" font-weight="bold" font-size="14.00">StatementsNode</text>
<polygon fill="none" stroke="black" points="320.5,-127.6 320.5,-153.6 445.5,-153.6 445.5,-127.6 320.5,-127.6"/>
<text text-anchor="start" x="325.5" y="-135.3" font-family="Courier New" font-size="14.00">body</text>
</g>
<!-- Node_60&#45;&gt;Node_120 -->
<g id="edge3" class="edge">
<title>Node_60:body&#45;&gt;Node_120</title>
<path fill="none" stroke="black" d="M395,-280.6C431.76,-280.6 415.36,-226.8 399.57,-189.52"/>
<polygon fill="black" stroke="black" points="402.4,-188.25 395.18,-180.49 395.99,-191.06 402.4,-188.25"/>
</g>
<!-- Node_120_body -->
<g id="node6" class="node">
<title>Node_120_body</title>
<ellipse fill="#f2f2f2" stroke="black" cx="383" cy="-89.8" rx="1.8" ry="1.8"/>
</g>
<!-- Node_120&#45;&gt;Node_120_body -->
<g id="edge4" class="edge">
<title>Node_120:body&#45;&gt;Node_120_body</title>
<path fill="none" stroke="black" d="M383,-127.6C383,-119.36 383,-110.09 383,-102.91"/>
<polygon fill="black" stroke="black" points="386.5,-102.94 383,-92.94 379.5,-102.94 386.5,-102.94"/>
</g>
<!-- Node_140 -->
<g id="node5" class="node">
<title>Node_140</title>
<polygon fill="#f2f2f2" stroke="none" points="442,-52 324,-52 324,0 442,0 442,-52"/>
<polygon fill="none" stroke="black" points="324,-26 324,-52 442,-52 442,-26 324,-26"/>
<text text-anchor="start" x="337.62" y="-34.7" font-family="Courier New" font-weight="bold" font-size="14.00">IntegerNode</text>
<polygon fill="none" stroke="black" points="324,0 324,-26 375,-26 375,0 324,0"/>
<text text-anchor="start" x="328.88" y="-7.7" font-family="Courier New" font-size="14.00">flags</text>
<polygon fill="none" stroke="black" points="375,0 375,-26 442,-26 442,0 375,0"/>
<text text-anchor="start" x="379.62" y="-7.7" font-family="Courier New" font-size="14.00">decimal</text>
</g>
<!-- Node_120_body&#45;&gt;Node_140 -->
<g id="edge5" class="edge">
<title>Node_120_body&#45;&gt;Node_140</title>
<path fill="none" stroke="black" d="M383,-87.73C383,-84.45 383,-74.09 383,-62.84"/>
<polygon fill="black" stroke="black" points="386.5,-62.97 383,-52.97 379.5,-62.98 386.5,-62.97"/>
</g>
</g>
</svg>
