<?xml version="1.0" encoding="UTF-8" standalone="no"?>
<!DOCTYPE svg PUBLIC "-//W3C//DTD SVG 1.1//EN"
 "http://www.w3.org/Graphics/SVG/1.1/DTD/svg11.dtd">
<!-- Generated by graphviz version 8.1.0 (20230707.0739)
 -->
<!-- Title: Prism Pages: 1 -->
<svg width="679pt" height="713pt"
 viewBox="0.00 0.00 678.50 712.80" xmlns="http://www.w3.org/2000/svg" xmlns:xlink="http://www.w3.org/1999/xlink">
<g id="graph0" class="graph" transform="scale(1 1) rotate(0) translate(4 708.8)">
<title>Prism</title>
<polygon fill="white" stroke="none" points="-4,4 -4,-708.8 674.5,-708.8 674.5,4 -4,4"/>
<!-- Node_60 -->
<g id="node1" class="node">
<title>Node_60</title>
<polygon fill="#f2f2f2" stroke="none" points="435.5,-704.8 218.5,-704.8 218.5,-574.8 435.5,-574.8 435.5,-704.8"/>
<polygon fill="none" stroke="black" points="218.5,-678.8 218.5,-704.8 435.5,-704.8 435.5,-678.8 218.5,-678.8"/>
<text text-anchor="start" x="289.88" y="-687.5" font-family="Courier New" font-weight="bold" font-size="14.00">ArrayNode</text>
<polygon fill="none" stroke="black" points="218.5,-652.8 218.5,-678.8 318.5,-678.8 318.5,-652.8 218.5,-652.8"/>
<text text-anchor="start" x="223.5" y="-660.5" font-family="Courier New" font-size="14.00">flags</text>
<polygon fill="none" stroke="black" points="318.5,-652.8 318.5,-678.8 435.5,-678.8 435.5,-652.8 318.5,-652.8"/>
<polygon fill="none" stroke="black" points="218.5,-626.8 218.5,-652.8 435.5,-652.8 435.5,-626.8 218.5,-626.8"/>
<text text-anchor="start" x="223.5" y="-634.5" font-family="Courier New" font-size="14.00">elements</text>
<polygon fill="none" stroke="black" points="218.5,-600.8 218.5,-626.8 318.5,-626.8 318.5,-600.8 218.5,-600.8"/>
<text text-anchor="start" x="223.12" y="-608.5" font-family="Courier New" font-size="14.00">opening_loc</text>
<polygon fill="none" stroke="black" points="318.5,-600.8 318.5,-626.8 435.5,-626.8 435.5,-600.8 318.5,-600.8"/>
<text text-anchor="start" x="331.62" y="-608.5" font-family="Courier New" font-size="14.00">(1,0)&#45;(1,3)</text>
<polygon fill="none" stroke="black" points="218.5,-574.8 218.5,-600.8 318.5,-600.8 318.5,-574.8 218.5,-574.8"/>
<text text-anchor="start" x="223.12" y="-582.5" font-family="Courier New" font-size="14.00">closing_loc</text>
<polygon fill="none" stroke="black" points="318.5,-574.8 318.5,-600.8 435.5,-600.8 435.5,-574.8 318.5,-574.8"/>
<text text-anchor="start" x="323.38" y="-582.5" font-family="Courier New" font-size="14.00">(1,19)&#45;(1,20)</text>
</g>
<!-- Node_60_elements -->
<g id="node8" class="node">
<title>Node_60_elements</title>
<ellipse fill="#f2f2f2" stroke="black" cx="327" cy="-537" rx="1.8" ry="1.8"/>
</g>
<!-- Node_60&#45;&gt;Node_60_elements -->
<g id="edge1" class="edge">
<title>Node_60:elements&#45;&gt;Node_60_elements</title>
<path fill="none" stroke="black" d="M437,-639.8C465.89,-639.8 453.03,-598.14 436,-574.8 413.38,-543.8 363.32,-538.6 339.75,-537.94"/>
<polygon fill="black" stroke="black" points="339.98,-534.44 329.97,-537.92 339.97,-541.44 339.98,-534.44"/>
</g>
<!-- Node_80 -->
<g id="node2" class="node">
<title>Node_80</title>
<polygon fill="#f2f2f2" stroke="none" points="422.5,-499.2 231.5,-499.2 231.5,-447.2 422.5,-447.2 422.5,-499.2"/>
<polygon fill="none" stroke="black" points="231.5,-473.2 231.5,-499.2 422.5,-499.2 422.5,-473.2 231.5,-473.2"/>
<text text-anchor="start" x="236.25" y="-481.9" font-family="Courier New" font-weight="bold" font-size="14.00">InterpolatedStringNode</text>
<polygon fill="none" stroke="black" points="231.5,-447.2 231.5,-473.2 422.5,-473.2 422.5,-447.2 231.5,-447.2"/>
<text text-anchor="start" x="236.5" y="-454.9" font-family="Courier New" font-size="14.00">parts</text>
</g>
<!-- Node_80_parts -->
<g id="node9" class="node">
<title>Node_80_parts</title>
<ellipse fill="#f2f2f2" stroke="black" cx="327" cy="-409.4" rx="1.8" ry="1.8"/>
</g>
<!-- Node_80&#45;&gt;Node_80_parts -->
<g id="edge3" class="edge">
<title>Node_80:parts&#45;&gt;Node_80_parts</title>
<path fill="none" stroke="black" d="M327,-447.2C327,-438.96 327,-429.69 327,-422.51"/>
<polygon fill="black" stroke="black" points="330.5,-422.54 327,-412.54 323.5,-422.54 330.5,-422.54"/>
</g>
<!-- Node_100 -->
<g id="node3" class="node">
<title>Node_100</title>
<polygon fill="#f2f2f2" stroke="none" points="200,-371.6 0,-371.6 0,-267.6 200,-267.6 200,-371.6"/>
<polygon fill="none" stroke="black" points="0,-345.6 0,-371.6 200,-371.6 200,-345.6 0,-345.6"/>
<text text-anchor="start" x="58.75" y="-354.3" font-family="Courier New" font-weight="bold" font-size="14.00">StringNode</text>
<polygon fill="none" stroke="black" points="0,-319.6 0,-345.6 100,-345.6 100,-319.6 0,-319.6"/>
<text text-anchor="start" x="5" y="-327.3" font-family="Courier New" font-size="14.00">flags</text>
<polygon fill="none" stroke="black" points="100,-319.6 100,-345.6 200,-345.6 200,-319.6 100,-319.6"/>
<polygon fill="none" stroke="black" points="0,-293.6 0,-319.6 100,-319.6 100,-293.6 0,-293.6"/>
<text text-anchor="start" x="4.62" y="-301.3" font-family="Courier New" font-size="14.00">content_loc</text>
<polygon fill="none" stroke="black" points="100,-293.6 100,-319.6 200,-319.6 200,-293.6 100,-293.6"/>
<text text-anchor="start" x="104.62" y="-301.3" font-family="Courier New" font-size="14.00">(1,3)&#45;(1,8)</text>
<polygon fill="none" stroke="black" points="0,-267.6 0,-293.6 100,-293.6 100,-267.6 0,-267.6"/>
<text text-anchor="start" x="5" y="-275.3" font-family="Courier New" font-size="14.00">unescaped</text>
<polygon fill="none" stroke="black" points="100,-267.6 100,-293.6 200,-293.6 200,-267.6 100,-267.6"/>
<text text-anchor="start" x="125.25" y="-275.3" font-family="Courier New" font-size="14.00">&quot;foo &quot;</text>
</g>
<!-- Node_120 -->
<g id="node4" class="node">
<title>Node_120</title>
<polygon fill="#f2f2f2" stroke="none" points="435.5,-371.6 218.5,-371.6 218.5,-267.6 435.5,-267.6 435.5,-371.6"/>
<polygon fill="none" stroke="black" points="218.5,-345.6 218.5,-371.6 435.5,-371.6 435.5,-345.6 218.5,-345.6"/>
<text text-anchor="start" x="236.25" y="-354.3" font-family="Courier New" font-weight="bold" font-size="14.00">EmbeddedStatementsNode</text>
<polygon fill="none" stroke="black" points="218.5,-319.6 218.5,-345.6 318.5,-345.6 318.5,-319.6 218.5,-319.6"/>
<text text-anchor="start" x="223.12" y="-327.3" font-family="Courier New" font-size="14.00">opening_loc</text>
<polygon fill="none" stroke="black" points="318.5,-319.6 318.5,-345.6 435.5,-345.6 435.5,-319.6 318.5,-319.6"/>
<text text-anchor="start" x="327.5" y="-327.3" font-family="Courier New" font-size="14.00">(1,8)&#45;(1,10)</text>
<polygon fill="none" stroke="black" points="218.5,-293.6 218.5,-319.6 435.5,-319.6 435.5,-293.6 218.5,-293.6"/>
<text text-anchor="start" x="223.5" y="-301.3" font-family="Courier New" font-size="14.00">statements</text>
<polygon fill="none" stroke="black" points="218.5,-267.6 218.5,-293.6 318.5,-293.6 318.5,-267.6 218.5,-267.6"/>
<text text-anchor="start" x="223.12" y="-275.3" font-family="Courier New" font-size="14.00">closing_loc</text>
<polygon fill="none" stroke="black" points="318.5,-267.6 318.5,-293.6 435.5,-293.6 435.5,-267.6 318.5,-267.6"/>
<text text-anchor="start" x="323.38" y="-275.3" font-family="Courier New" font-size="14.00">(1,13)&#45;(1,14)</text>
</g>
<!-- Node_160 -->
<g id="node5" class="node">
<title>Node_160</title>
<polygon fill="#f2f2f2" stroke="none" points="389.5,-231.6 264.5,-231.6 264.5,-179.6 389.5,-179.6 389.5,-231.6"/>
<polygon fill="none" stroke="black" points="264.5,-205.6 264.5,-231.6 389.5,-231.6 389.5,-205.6 264.5,-205.6"/>
<text text-anchor="start" x="269.25" y="-214.3" font-family="Courier New" font-weight="bold" font-size="14.00">StatementsNode</text>
<polygon fill="none" stroke="black" points="264.5,-179.6 264.5,-205.6 389.5,-205.6 389.5,-179.6 264.5,-179.6"/>
<text text-anchor="start" x="269.5" y="-187.3" font-family="Courier New" font-size="14.00">body</text>
</g>
<!-- Node_120&#45;&gt;Node_160 -->
<g id="edge7" class="edge">
<title>Node_120:statements&#45;&gt;Node_160</title>
<path fill="none" stroke="black" d="M437,-306.6C445.67,-306.6 440.48,-275.02 436,-267.6 427.18,-252.99 413.49,-241.61 398.75,-232.83"/>
<polygon fill="black" stroke="black" points="400.92,-229.48 390.48,-227.71 397.53,-235.61 400.92,-229.48"/>
</g>
<!-- Node_160_body -->
<g id="node10" class="node">
<title>Node_160_body</title>
<ellipse fill="#f2f2f2" stroke="black" cx="327" cy="-141.8" rx="1.8" ry="1.8"/>
</g>
<!-- Node_160&#45;&gt;Node_160_body -->
<g id="edge8" class="edge">
<title>Node_160:body&#45;&gt;Node_160_body</title>
<path fill="none" stroke="black" d="M327,-179.6C327,-171.36 327,-162.09 327,-154.91"/>
<polygon fill="black" stroke="black" points="330.5,-154.94 327,-144.94 323.5,-154.94 330.5,-154.94"/>
</g>
<!-- Node_180 -->
<g id="node6" class="node">
<title>Node_180</title>
<polygon fill="#f2f2f2" stroke="none" points="435.5,-104 218.5,-104 218.5,0 435.5,0 435.5,-104"/>
<polygon fill="none" stroke="black" points="218.5,-78 218.5,-104 435.5,-104 435.5,-78 218.5,-78"/>
<text text-anchor="start" x="294" y="-86.7" font-family="Courier New" font-weight="bold" font-size="14.00">CallNode</text>
<polygon fill="none" stroke="black" points="218.5,-52 218.5,-78 318.5,-78 318.5,-52 218.5,-52"/>
<text text-anchor="start" x="223.5" y="-59.7" font-family="Courier New" font-size="14.00">flags</text>
<polygon fill="none" stroke="black" points="318.5,-52 318.5,-78 435.5,-78 435.5,-52 318.5,-52"/>
<text text-anchor="start" x="323.38" y="-59.7" font-family="Courier New" font-size="14.00">variable_call</text>
<polygon fill="none" stroke="black" points="218.5,-26 218.5,-52 318.5,-52 318.5,-26 218.5,-26"/>
<text text-anchor="start" x="223.5" y="-33.7" font-family="Courier New" font-size="14.00">name</text>
<polygon fill="none" stroke="black" points="318.5,-26 318.5,-52 435.5,-52 435.5,-26 318.5,-26"/>
<text text-anchor="start" x="360.5" y="-33.7" font-family="Courier New" font-size="14.00">:bar</text>
<polygon fill="none" stroke="black" points="218.5,0 218.5,-26 318.5,-26 318.5,0 218.5,0"/>
<text text-anchor="start" x="223.12" y="-7.7" font-family="Courier New" font-size="14.00">message_loc</text>
<polygon fill="none" stroke="black" points="318.5,0 318.5,-26 435.5,-26 435.5,0 318.5,0"/>
<text text-anchor="start" x="323.38" y="-7.7" font-family="Courier New" font-size="14.00">(1,10)&#45;(1,13)</text>
</g>
<!-- Node_140 -->
<g id="node7" class="node">
<title>Node_140</title>
<polygon fill="#f2f2f2" stroke="none" points="670.5,-371.6 453.5,-371.6 453.5,-267.6 670.5,-267.6 670.5,-371.6"/>
<polygon fill="none" stroke="black" points="453.5,-345.6 453.5,-371.6 670.5,-371.6 670.5,-345.6 453.5,-345.6"/>
<text text-anchor="start" x="520.75" y="-354.3" font-family="Courier New" font-weight="bold" font-size="14.00">StringNode</text>
<polygon fill="none" stroke="black" points="453.5,-319.6 453.5,-345.6 553.5,-345.6 553.5,-319.6 453.5,-319.6"/>
<text text-anchor="start" x="458.5" y="-327.3" font-family="Courier New" font-size="14.00">flags</text>
<polygon fill="none" stroke="black" points="553.5,-319.6 553.5,-345.6 670.5,-345.6 670.5,-319.6 553.5,-319.6"/>
<polygon fill="none" stroke="black" points="453.5,-293.6 453.5,-319.6 553.5,-319.6 553.5,-293.6 453.5,-293.6"/>
<text text-anchor="start" x="458.12" y="-301.3" font-family="Courier New" font-size="14.00">content_loc</text>
<polygon fill="none" stroke="black" points="553.5,-293.6 553.5,-319.6 670.5,-319.6 670.5,-293.6 553.5,-293.6"/>
<text text-anchor="start" x="558.38" y="-301.3" font-family="Courier New" font-size="14.00">(1,14)&#45;(1,19)</text>
<polygon fill="none" stroke="black" points="453.5,-267.6 453.5,-293.6 553.5,-293.6 553.5,-267.6 453.5,-267.6"/>
<text text-anchor="start" x="458.5" y="-275.3" font-family="Courier New" font-size="14.00">unescaped</text>
<polygon fill="none" stroke="black" points="553.5,-267.6 553.5,-293.6 670.5,-293.6 670.5,-267.6 553.5,-267.6"/>
<text text-anchor="start" x="587.25" y="-275.3" font-family="Courier New" font-size="14.00">&quot; baz&quot;</text>
</g>
<!-- Node_60_elements&#45;&gt;Node_80 -->
<g id="edge2" class="edge">
<title>Node_60_elements&#45;&gt;Node_80</title>
<path fill="none" stroke="black" d="M327,-534.93C327,-531.65 327,-521.29 327,-510.04"/>
<polygon fill="black" stroke="black" points="330.5,-510.17 327,-500.17 323.5,-510.18 330.5,-510.17"/>
</g>
<!-- Node_80_parts&#45;&gt;Node_100 -->
<g id="edge4" class="edge">
<title>Node_80_parts&#45;&gt;Node_100</title>
<path fill="none" stroke="black" d="M325.32,-407.96C315.37,-405.34 263,-391.3 210.1,-371.48"/>
<polygon fill="black" stroke="black" points="211.47,-367.87 200.88,-367.58 208.98,-374.41 211.47,-367.87"/>
</g>
<!-- Node_80_parts&#45;&gt;Node_120 -->
<g id="edge5" class="edge">
<title>Node_80_parts&#45;&gt;Node_120</title>
<path fill="none" stroke="black" d="M327,-407.16C327,-403.81 327,-394.01 327,-382.16"/>
<polygon fill="black" stroke="black" points="330.5,-382.32 327,-372.32 323.5,-382.32 330.5,-382.32"/>
</g>
<!-- Node_80_parts&#45;&gt;Node_140 -->
<g id="edge6" class="edge">
<title>Node_80_parts&#45;&gt;Node_140</title>
<path fill="none" stroke="black" d="M328.69,-407.95C338.7,-405.26 391.38,-390.88 443.7,-371.97"/>
<polygon fill="black" stroke="black" points="444.63,-374.99 452.8,-368.26 442.21,-368.42 444.63,-374.99"/>
</g>
<!-- Node_160_body&#45;&gt;Node_180 -->
<g id="edge9" class="edge">
<title>Node_160_body&#45;&gt;Node_180</title>
<path fill="none" stroke="black" d="M327,-139.56C327,-136.21 327,-126.41 327,-114.56"/>
<polygon fill="black" stroke="black" points="330.5,-114.72 327,-104.72 323.5,-114.72 330.5,-114.72"/>
</g>
</g>
</svg>
