<?xml version="1.0" encoding="UTF-8" standalone="no"?>
<!DOCTYPE svg PUBLIC "-//W3C//DTD SVG 1.1//EN"
 "http://www.w3.org/Graphics/SVG/1.1/DTD/svg11.dtd">
<!-- Generated by graphviz version 8.1.0 (20230707.0739)
 -->
<!-- Title: Prism Pages: 1 -->
<svg width="408pt" height="200pt"
 viewBox="0.00 0.00 408.00 200.00" xmlns="http://www.w3.org/2000/svg" xmlns:xlink="http://www.w3.org/1999/xlink">
<g id="graph0" class="graph" transform="scale(1 1) rotate(0) translate(4 196)">
<title>Prism</title>
<polygon fill="white" stroke="none" points="-4,4 -4,-196 404,-196 404,4 -4,4"/>
<!-- Node_60 -->
<g id="node1" class="node">
<title>Node_60</title>
<polygon fill="#f2f2f2" stroke="none" points="299.5,-192 99.5,-192 99.5,-88 299.5,-88 299.5,-192"/>
<polygon fill="none" stroke="black" points="99.5,-166 99.5,-192 299.5,-192 299.5,-166 99.5,-166"/>
<text text-anchor="start" x="104.62" y="-174.7" font-family="Courier New" font-weight="bold" font-size="14.00">AliasGlobalVariableNode</text>
<polygon fill="none" stroke="black" points="99.5,-140 99.5,-166 299.5,-166 299.5,-140 99.5,-140"/>
<text text-anchor="start" x="104.5" y="-147.7" font-family="Courier New" font-size="14.00">new_name</text>
<polygon fill="none" stroke="black" points="99.5,-114 99.5,-140 299.5,-140 299.5,-114 99.5,-114"/>
<text text-anchor="start" x="104.5" y="-121.7" font-family="Courier New" font-size="14.00">old_name</text>
<polygon fill="none" stroke="black" points="99.5,-88 99.5,-114 199.5,-114 199.5,-88 99.5,-88"/>
<text text-anchor="start" x="104.12" y="-95.7" font-family="Courier New" font-size="14.00">keyword_loc</text>
<polygon fill="none" stroke="black" points="199.5,-88 199.5,-114 299.5,-114 299.5,-88 199.5,-88"/>
<text text-anchor="start" x="204.12" y="-95.7" font-family="Courier New" font-size="14.00">(1,0)&#45;(1,5)</text>
</g>
<!-- Node_80 -->
<g id="node2" class="node">
<title>Node_80</title>
<polygon fill="#f2f2f2" stroke="none" points="191,-52 0,-52 0,0 191,0 191,-52"/>
<polygon fill="none" stroke="black" points="0,-26 0,-52 191,-52 191,-26 0,-26"/>
<text text-anchor="start" x="4.75" y="-34.7" font-family="Courier New" font-weight="bold" font-size="14.00">GlobalVariableReadNode</text>
<polygon fill="none" stroke="black" points="0,0 0,-26 71,-26 71,0 0,0"/>
<text text-anchor="start" x="5" y="-7.7" font-family="Courier New" font-size="14.00">name</text>
<polygon fill="none" stroke="black" points="71,0 71,-26 191,-26 191,0 71,0"/>
<text text-anchor="start" x="89.75" y="-7.7" font-family="Courier New" font-size="14.00">:$new_name</text>
</g>
<!-- Node_60&#45;&gt;Node_80 -->
<g id="edge1" class="edge">
<title>Node_60:new_name&#45;&gt;Node_80</title>
<path fill="none" stroke="black" d="M98.5,-153C61.9,-153 71.85,-99.2 83.14,-61.92"/>
<polygon fill="black" stroke="black" points="86.63,-63.48 86.32,-52.89 79.96,-61.36 86.63,-63.48"/>
</g>
<!-- Node_100 -->
<g id="node3" class="node">
<title>Node_100</title>
<polygon fill="#f2f2f2" stroke="none" points="400,-52 209,-52 209,0 400,0 400,-52"/>
<polygon fill="none" stroke="black" points="209,-26 209,-52 400,-52 400,-26 209,-26"/>
<text text-anchor="start" x="213.75" y="-34.7" font-family="Courier New" font-weight="bold" font-size="14.00">GlobalVariableReadNode</text>
<polygon fill="none" stroke="black" points="209,0 209,-26 280,-26 280,0 209,0"/>
<text text-anchor="start" x="214" y="-7.7" font-family="Courier New" font-size="14.00">name</text>
<polygon fill="none" stroke="black" points="280,0 280,-26 400,-26 400,0 280,0"/>
<text text-anchor="start" x="298.75" y="-7.7" font-family="Courier New" font-size="14.00">:$old_name</text>
</g>
<!-- Node_60&#45;&gt;Node_100 -->
<g id="edge2" class="edge">
<title>Node_60:old_name&#45;&gt;Node_100</title>
<path fill="none" stroke="black" d="M300.5,-127C327.08,-127 323.32,-91.3 315.99,-62.56"/>
<polygon fill="black" stroke="black" points="319.11,-61.68 313.07,-52.98 312.36,-63.55 319.11,-61.68"/>
</g>
</g>
</svg>
