<?xml version="1.0" encoding="UTF-8" standalone="no"?>
<!DOCTYPE svg PUBLIC "-//W3C//DTD SVG 1.1//EN"
 "http://www.w3.org/Graphics/SVG/1.1/DTD/svg11.dtd">
<!-- Generated by graphviz version 8.1.0 (20230707.0739)
 -->
<!-- Title: Prism Pages: 1 -->
<svg width="398pt" height="266pt"
 viewBox="0.00 0.00 398.00 265.60" xmlns="http://www.w3.org/2000/svg" xmlns:xlink="http://www.w3.org/1999/xlink">
<g id="graph0" class="graph" transform="scale(1 1) rotate(0) translate(4 261.6)">
<title>Prism</title>
<polygon fill="white" stroke="none" points="-4,4 -4,-261.6 394,-261.6 394,4 -4,4"/>
<!-- Node_60 -->
<g id="node1" class="node">
<title>Node_60</title>
<polygon fill="#f2f2f2" stroke="none" points="295,-257.6 95,-257.6 95,-127.6 295,-127.6 295,-257.6"/>
<polygon fill="none" stroke="black" points="95,-231.6 95,-257.6 295,-257.6 295,-231.6 95,-231.6"/>
<text text-anchor="start" x="157.88" y="-240.3" font-family="Courier New" font-weight="bold" font-size="14.00">ArrayNode</text>
<polygon fill="none" stroke="black" points="95,-205.6 95,-231.6 295,-231.6 295,-205.6 95,-205.6"/>
<text text-anchor="start" x="100" y="-213.3" font-family="Courier New" font-size="14.00">elements</text>
<polygon fill="none" stroke="black" points="95,-179.6 95,-205.6 195,-205.6 195,-179.6 95,-179.6"/>
<text text-anchor="start" x="99.62" y="-187.3" font-family="Courier New" font-size="14.00">opening_loc</text>
<polygon fill="none" stroke="black" points="195,-179.6 195,-205.6 295,-205.6 295,-179.6 195,-179.6"/>
<text text-anchor="start" x="199.62" y="-187.3" font-family="Courier New" font-size="14.00">(1,0)&#45;(1,1)</text>
<polygon fill="none" stroke="black" points="95,-153.6 95,-179.6 195,-179.6 195,-153.6 95,-153.6"/>
<text text-anchor="start" x="99.62" y="-161.3" font-family="Courier New" font-size="14.00">closing_loc</text>
<polygon fill="none" stroke="black" points="195,-153.6 195,-179.6 295,-179.6 295,-153.6 195,-153.6"/>
<text text-anchor="start" x="199.62" y="-161.3" font-family="Courier New" font-size="14.00">(1,6)&#45;(1,7)</text>
<polygon fill="none" stroke="black" points="95,-127.6 95,-153.6 195,-153.6 195,-127.6 95,-127.6"/>
<text text-anchor="start" x="100" y="-135.3" font-family="Courier New" font-size="14.00">flags</text>
<polygon fill="none" stroke="black" points="195,-127.6 195,-153.6 295,-153.6 295,-127.6 195,-127.6"/>
</g>
<!-- Node_60_elements -->
<g id="node5" class="node">
<title>Node_60_elements</title>
<ellipse fill="#f2f2f2" stroke="black" cx="195" cy="-89.8" rx="1.8" ry="1.8"/>
</g>
<!-- Node_60&#45;&gt;Node_60_elements -->
<g id="edge1" class="edge">
<title>Node_60:elements&#45;&gt;Node_60_elements</title>
<path fill="none" stroke="black" d="M296,-218.6C336.45,-218.6 318.32,-160.65 295,-127.6 274.8,-98.97 229.75,-92.56 207.68,-91.16"/>
<polygon fill="black" stroke="black" points="207.94,-87.64 197.82,-90.79 207.69,-94.63 207.94,-87.64"/>
</g>
<!-- Node_80 -->
<g id="node2" class="node">
<title>Node_80</title>
<polygon fill="#f2f2f2" stroke="none" points="118,-52 0,-52 0,0 118,0 118,-52"/>
<polygon fill="none" stroke="black" points="0,-26 0,-52 118,-52 118,-26 0,-26"/>
<text text-anchor="start" x="13.62" y="-34.7" font-family="Courier New" font-weight="bold" font-size="14.00">IntegerNode</text>
<polygon fill="none" stroke="black" points="0,0 0,-26 51,-26 51,0 0,0"/>
<text text-anchor="start" x="4.88" y="-7.7" font-family="Courier New" font-size="14.00">flags</text>
<polygon fill="none" stroke="black" points="51,0 51,-26 118,-26 118,0 51,0"/>
<text text-anchor="start" x="55.62" y="-7.7" font-family="Courier New" font-size="14.00">decimal</text>
</g>
<!-- Node_100 -->
<g id="node3" class="node">
<title>Node_100</title>
<polygon fill="#f2f2f2" stroke="none" points="254,-52 136,-52 136,0 254,0 254,-52"/>
<polygon fill="none" stroke="black" points="136,-26 136,-52 254,-52 254,-26 136,-26"/>
<text text-anchor="start" x="149.62" y="-34.7" font-family="Courier New" font-weight="bold" font-size="14.00">IntegerNode</text>
<polygon fill="none" stroke="black" points="136,0 136,-26 187,-26 187,0 136,0"/>
<text text-anchor="start" x="140.88" y="-7.7" font-family="Courier New" font-size="14.00">flags</text>
<polygon fill="none" stroke="black" points="187,0 187,-26 254,-26 254,0 187,0"/>
<text text-anchor="start" x="191.62" y="-7.7" font-family="Courier New" font-size="14.00">decimal</text>
</g>
<!-- Node_120 -->
<g id="node4" class="node">
<title>Node_120</title>
<polygon fill="#f2f2f2" stroke="none" points="390,-52 272,-52 272,0 390,0 390,-52"/>
<polygon fill="none" stroke="black" points="272,-26 272,-52 390,-52 390,-26 272,-26"/>
<text text-anchor="start" x="285.62" y="-34.7" font-family="Courier New" font-weight="bold" font-size="14.00">IntegerNode</text>
<polygon fill="none" stroke="black" points="272,0 272,-26 323,-26 323,0 272,0"/>
<text text-anchor="start" x="276.88" y="-7.7" font-family="Courier New" font-size="14.00">flags</text>
<polygon fill="none" stroke="black" points="323,0 323,-26 390,-26 390,0 323,0"/>
<text text-anchor="start" x="327.62" y="-7.7" font-family="Courier New" font-size="14.00">decimal</text>
</g>
<!-- Node_60_elements&#45;&gt;Node_80 -->
<g id="edge2" class="edge">
<title>Node_60_elements&#45;&gt;Node_80</title>
<path fill="none" stroke="black" d="M193.47,-88.11C186.26,-84.83 154.65,-70.47 123.9,-56.49"/>
<polygon fill="black" stroke="black" points="125.53,-52.93 114.97,-51.98 122.63,-59.3 125.53,-52.93"/>
</g>
<!-- Node_60_elements&#45;&gt;Node_100 -->
<g id="edge3" class="edge">
<title>Node_60_elements&#45;&gt;Node_100</title>
<path fill="none" stroke="black" d="M195,-87.73C195,-84.45 195,-74.09 195,-62.84"/>
<polygon fill="black" stroke="black" points="198.5,-62.97 195,-52.97 191.5,-62.98 198.5,-62.97"/>
</g>
<!-- Node_60_elements&#45;&gt;Node_120 -->
<g id="edge4" class="edge">
<title>Node_60_elements&#45;&gt;Node_120</title>
<path fill="none" stroke="black" d="M196.53,-88.11C203.74,-84.83 235.35,-70.47 266.1,-56.49"/>
<polygon fill="black" stroke="black" points="267.37,-59.3 275.03,-51.98 264.47,-52.93 267.37,-59.3"/>
</g>
</g>
</svg>
