<?xml version="1.0" encoding="UTF-8" standalone="no"?>
<!DOCTYPE svg PUBLIC "-//W3C//DTD SVG 1.1//EN"
 "http://www.w3.org/Graphics/SVG/1.1/DTD/svg11.dtd">
<!-- Generated by graphviz version 8.1.0 (20230707.0739)
 -->
<!-- Title: Prism Pages: 1 -->
<svg width="467pt" height="646pt"
 viewBox="0.00 0.00 466.67 646.00" xmlns="http://www.w3.org/2000/svg" xmlns:xlink="http://www.w3.org/1999/xlink">
<g id="graph0" class="graph" transform="scale(1 1) rotate(0) translate(4 642)">
<title>Prism</title>
<polygon fill="white" stroke="none" points="-4,4 -4,-642 462.67,-642 462.67,4 -4,4"/>
<!-- Node_60 -->
<g id="node1" class="node">
<title>Node_60</title>
<polygon fill="#f2f2f2" stroke="none" points="338.5,-638 88.5,-638 88.5,-508 338.5,-508 338.5,-638"/>
<polygon fill="none" stroke="black" points="88.5,-612 88.5,-638 338.5,-638 338.5,-612 88.5,-612"/>
<text text-anchor="start" x="176.38" y="-620.7" font-family="Courier New" font-weight="bold" font-size="14.00">BeginNode</text>
<polygon fill="none" stroke="black" points="88.5,-586 88.5,-612 238.5,-612 238.5,-586 88.5,-586"/>
<text text-anchor="start" x="93.38" y="-593.7" font-family="Courier New" font-size="14.00">begin_keyword_loc</text>
<polygon fill="none" stroke="black" points="238.5,-586 238.5,-612 338.5,-612 338.5,-586 238.5,-586"/>
<text text-anchor="start" x="243.12" y="-593.7" font-family="Courier New" font-size="14.00">(1,0)&#45;(1,5)</text>
<polygon fill="none" stroke="black" points="88.5,-560 88.5,-586 338.5,-586 338.5,-560 88.5,-560"/>
<text text-anchor="start" x="93.5" y="-567.7" font-family="Courier New" font-size="14.00">statements</text>
<polygon fill="none" stroke="black" points="88.5,-534 88.5,-560 338.5,-560 338.5,-534 88.5,-534"/>
<text text-anchor="start" x="93.5" y="-541.7" font-family="Courier New" font-size="14.00">ensure_clause</text>
<polygon fill="none" stroke="black" points="88.5,-508 88.5,-534 238.5,-534 238.5,-508 88.5,-508"/>
<text text-anchor="start" x="93.5" y="-515.7" font-family="Courier New" font-size="14.00">end_keyword_loc</text>
<polygon fill="none" stroke="black" points="238.5,-508 238.5,-534 338.5,-534 338.5,-508 238.5,-508"/>
<text text-anchor="start" x="243.12" y="-515.7" font-family="Courier New" font-size="14.00">(5,0)&#45;(5,3)</text>
</g>
<!-- Node_80 -->
<g id="node2" class="node">
<title>Node_80</title>
<polygon fill="#f2f2f2" stroke="none" points="171,-446 46,-446 46,-394 171,-394 171,-446"/>
<polygon fill="none" stroke="black" points="46,-420 46,-446 171,-446 171,-420 46,-420"/>
<text text-anchor="start" x="50.75" y="-428.7" font-family="Courier New" font-weight="bold" font-size="14.00">StatementsNode</text>
<polygon fill="none" stroke="black" points="46,-394 46,-420 171,-420 171,-394 46,-394"/>
<text text-anchor="start" x="51" y="-401.7" font-family="Courier New" font-size="14.00">body</text>
</g>
<!-- Node_60&#45;&gt;Node_80 -->
<g id="edge1" class="edge">
<title>Node_60:statements&#45;&gt;Node_80</title>
<path fill="none" stroke="black" d="M87.5,-573C40.32,-573 68.47,-500.25 90.3,-455.41"/>
<polygon fill="black" stroke="black" points="93.78,-457.27 95.11,-446.76 87.52,-454.15 93.78,-457.27"/>
</g>
<!-- Node_100 -->
<g id="node4" class="node">
<title>Node_100</title>
<polygon fill="#f2f2f2" stroke="none" points="447.5,-472 189.5,-472 189.5,-368 447.5,-368 447.5,-472"/>
<polygon fill="none" stroke="black" points="189.5,-446 189.5,-472 447.5,-472 447.5,-446 189.5,-446"/>
<text text-anchor="start" x="277.25" y="-454.7" font-family="Courier New" font-weight="bold" font-size="14.00">EnsureNode</text>
<polygon fill="none" stroke="black" points="189.5,-420 189.5,-446 347.5,-446 347.5,-420 189.5,-420"/>
<text text-anchor="start" x="194.25" y="-427.7" font-family="Courier New" font-size="14.00">ensure_keyword_loc</text>
<polygon fill="none" stroke="black" points="347.5,-420 347.5,-446 447.5,-446 447.5,-420 347.5,-420"/>
<text text-anchor="start" x="352.12" y="-427.7" font-family="Courier New" font-size="14.00">(3,0)&#45;(3,6)</text>
<polygon fill="none" stroke="black" points="189.5,-394 189.5,-420 447.5,-420 447.5,-394 189.5,-394"/>
<text text-anchor="start" x="194.5" y="-401.7" font-family="Courier New" font-size="14.00">statements</text>
<polygon fill="none" stroke="black" points="189.5,-368 189.5,-394 347.5,-394 347.5,-368 189.5,-368"/>
<text text-anchor="start" x="194.5" y="-375.7" font-family="Courier New" font-size="14.00">end_keyword_loc</text>
<polygon fill="none" stroke="black" points="347.5,-368 347.5,-394 447.5,-394 447.5,-368 347.5,-368"/>
<text text-anchor="start" x="352.12" y="-375.7" font-family="Courier New" font-size="14.00">(5,0)&#45;(5,3)</text>
</g>
<!-- Node_60&#45;&gt;Node_100 -->
<g id="edge2" class="edge">
<title>Node_60:ensure_clause&#45;&gt;Node_100</title>
<path fill="none" stroke="black" d="M339.5,-547C368.54,-547 362.38,-514.03 349.42,-481.82"/>
<polygon fill="black" stroke="black" points="352.34,-480.73 345.22,-472.89 345.89,-483.46 352.34,-480.73"/>
</g>
<!-- Node_80_body -->
<g id="node7" class="node">
<title>Node_80_body</title>
<ellipse fill="#f2f2f2" stroke="black" cx="108.5" cy="-306" rx="1.8" ry="1.8"/>
</g>
<!-- Node_80&#45;&gt;Node_80_body -->
<g id="edge3" class="edge">
<title>Node_80:body&#45;&gt;Node_80_body</title>
<path fill="none" stroke="black" d="M108.5,-393C108.5,-366.61 108.5,-335.68 108.5,-319.04"/>
<polygon fill="black" stroke="black" points="112,-319.21 108.5,-309.21 105,-319.21 112,-319.21"/>
</g>
<!-- Node_120 -->
<g id="node3" class="node">
<title>Node_120</title>
<polygon fill="#f2f2f2" stroke="none" points="217,-244 0,-244 0,-140 217,-140 217,-244"/>
<polygon fill="none" stroke="black" points="0,-218 0,-244 217,-244 217,-218 0,-218"/>
<text text-anchor="start" x="75.5" y="-226.7" font-family="Courier New" font-weight="bold" font-size="14.00">CallNode</text>
<polygon fill="none" stroke="black" points="0,-192 0,-218 100,-218 100,-192 0,-192"/>
<text text-anchor="start" x="5" y="-199.7" font-family="Courier New" font-size="14.00">flags</text>
<polygon fill="none" stroke="black" points="100,-192 100,-218 217,-218 217,-192 100,-192"/>
<text text-anchor="start" x="104.88" y="-199.7" font-family="Courier New" font-size="14.00">variable_call</text>
<polygon fill="none" stroke="black" points="0,-166 0,-192 100,-192 100,-166 0,-166"/>
<text text-anchor="start" x="5" y="-173.7" font-family="Courier New" font-size="14.00">name</text>
<polygon fill="none" stroke="black" points="100,-166 100,-192 217,-192 217,-166 100,-166"/>
<text text-anchor="start" x="142" y="-173.7" font-family="Courier New" font-size="14.00">:foo</text>
<polygon fill="none" stroke="black" points="0,-140 0,-166 100,-166 100,-140 0,-140"/>
<text text-anchor="start" x="4.62" y="-147.7" font-family="Courier New" font-size="14.00">message_loc</text>
<polygon fill="none" stroke="black" points="100,-140 100,-166 217,-166 217,-140 100,-140"/>
<text text-anchor="start" x="113.12" y="-147.7" font-family="Courier New" font-size="14.00">(2,2)&#45;(2,5)</text>
</g>
<!-- Node_140 -->
<g id="node5" class="node">
<title>Node_140</title>
<polygon fill="#f2f2f2" stroke="none" points="381,-332 256,-332 256,-280 381,-280 381,-332"/>
<polygon fill="none" stroke="black" points="256,-306 256,-332 381,-332 381,-306 256,-306"/>
<text text-anchor="start" x="260.75" y="-314.7" font-family="Courier New" font-weight="bold" font-size="14.00">StatementsNode</text>
<polygon fill="none" stroke="black" points="256,-280 256,-306 381,-306 381,-280 256,-280"/>
<text text-anchor="start" x="261" y="-287.7" font-family="Courier New" font-size="14.00">body</text>
</g>
<!-- Node_100&#45;&gt;Node_140 -->
<g id="edge5" class="edge">
<title>Node_100:statements&#45;&gt;Node_140</title>
<path fill="none" stroke="black" d="M448.5,-407C465.84,-407 456.96,-382.53 447.5,-368 434.43,-347.93 412.82,-334.32 391,-325.15"/>
<polygon fill="black" stroke="black" points="392.58,-321.62 381.99,-321.24 390.04,-328.14 392.58,-321.62"/>
</g>
<!-- Node_140_body -->
<g id="node8" class="node">
<title>Node_140_body</title>
<ellipse fill="#f2f2f2" stroke="black" cx="318.5" cy="-192" rx="1.8" ry="1.8"/>
</g>
<!-- Node_140&#45;&gt;Node_140_body -->
<g id="edge6" class="edge">
<title>Node_140:body&#45;&gt;Node_140_body</title>
<path fill="none" stroke="black" d="M318.5,-280C318.5,-253.31 318.5,-222.01 318.5,-205.18"/>
<polygon fill="black" stroke="black" points="322,-205.23 318.5,-195.23 315,-205.23 322,-205.23"/>
</g>
<!-- Node_160 -->
<g id="node6" class="node">
<title>Node_160</title>
<polygon fill="#f2f2f2" stroke="none" points="427,-104 210,-104 210,0 427,0 427,-104"/>
<polygon fill="none" stroke="black" points="210,-78 210,-104 427,-104 427,-78 210,-78"/>
<text text-anchor="start" x="285.5" y="-86.7" font-family="Courier New" font-weight="bold" font-size="14.00">CallNode</text>
<polygon fill="none" stroke="black" points="210,-52 210,-78 310,-78 310,-52 210,-52"/>
<text text-anchor="start" x="215" y="-59.7" font-family="Courier New" font-size="14.00">flags</text>
<polygon fill="none" stroke="black" points="310,-52 310,-78 427,-78 427,-52 310,-52"/>
<text text-anchor="start" x="314.88" y="-59.7" font-family="Courier New" font-size="14.00">variable_call</text>
<polygon fill="none" stroke="black" points="210,-26 210,-52 310,-52 310,-26 210,-26"/>
<text text-anchor="start" x="215" y="-33.7" font-family="Courier New" font-size="14.00">name</text>
<polygon fill="none" stroke="black" points="310,-26 310,-52 427,-52 427,-26 310,-26"/>
<text text-anchor="start" x="352" y="-33.7" font-family="Courier New" font-size="14.00">:bar</text>
<polygon fill="none" stroke="black" points="210,0 210,-26 310,-26 310,0 210,0"/>
<text text-anchor="start" x="214.62" y="-7.7" font-family="Courier New" font-size="14.00">message_loc</text>
<polygon fill="none" stroke="black" points="310,0 310,-26 427,-26 427,0 310,0"/>
<text text-anchor="start" x="323.12" y="-7.7" font-family="Courier New" font-size="14.00">(4,2)&#45;(4,5)</text>
</g>
<!-- Node_80_body&#45;&gt;Node_120 -->
<g id="edge4" class="edge">
<title>Node_80_body&#45;&gt;Node_120</title>
<path fill="none" stroke="black" d="M108.5,-303.74C108.5,-298.43 108.5,-277.07 108.5,-254.51"/>
<polygon fill="black" stroke="black" points="112,-254.76 108.5,-244.76 105,-254.76 112,-254.76"/>
</g>
<!-- Node_140_body&#45;&gt;Node_160 -->
<g id="edge7" class="edge">
<title>Node_140_body&#45;&gt;Node_160</title>
<path fill="none" stroke="black" d="M318.5,-190.12C318.5,-184.09 318.5,-148.18 318.5,-114.62"/>
<polygon fill="black" stroke="black" points="322,-114.85 318.5,-104.85 315,-114.85 322,-114.85"/>
</g>
</g>
</svg>
