<?xml version="1.0" encoding="UTF-8" standalone="no"?>
<!DOCTYPE svg PUBLIC "-//W3C//DTD SVG 1.1//EN"
 "http://www.w3.org/Graphics/SVG/1.1/DTD/svg11.dtd">
<!-- Generated by graphviz version 8.1.0 (20230707.0739)
 -->
<!-- Title: Prism Pages: 1 -->
<svg width="344pt" height="725pt"
 viewBox="0.00 0.00 344.00 725.20" xmlns="http://www.w3.org/2000/svg" xmlns:xlink="http://www.w3.org/1999/xlink">
<g id="graph0" class="graph" transform="scale(1 1) rotate(0) translate(4 721.2)">
<title>Prism</title>
<polygon fill="white" stroke="none" points="-4,4 -4,-721.2 340,-721.2 340,4 -4,4"/>
<!-- Node_60 -->
<g id="node1" class="node">
<title>Node_60</title>
<polygon fill="#f2f2f2" stroke="none" points="296.5,-717.2 79.5,-717.2 79.5,-535.2 296.5,-535.2 296.5,-717.2"/>
<polygon fill="none" stroke="black" points="79.5,-691.2 79.5,-717.2 296.5,-717.2 296.5,-691.2 79.5,-691.2"/>
<text text-anchor="start" x="155" y="-699.9" font-family="Courier New" font-weight="bold" font-size="14.00">CallNode</text>
<polygon fill="none" stroke="black" points="79.5,-665.2 79.5,-691.2 179.5,-691.2 179.5,-665.2 79.5,-665.2"/>
<text text-anchor="start" x="84.5" y="-672.9" font-family="Courier New" font-size="14.00">flags</text>
<polygon fill="none" stroke="black" points="179.5,-665.2 179.5,-691.2 296.5,-691.2 296.5,-665.2 179.5,-665.2"/>
<polygon fill="none" stroke="black" points="79.5,-639.2 79.5,-665.2 179.5,-665.2 179.5,-639.2 79.5,-639.2"/>
<text text-anchor="start" x="84.5" y="-646.9" font-family="Courier New" font-size="14.00">name</text>
<polygon fill="none" stroke="black" points="179.5,-639.2 179.5,-665.2 296.5,-665.2 296.5,-639.2 179.5,-639.2"/>
<text text-anchor="start" x="221.5" y="-646.9" font-family="Courier New" font-size="14.00">:foo</text>
<polygon fill="none" stroke="black" points="79.5,-613.2 79.5,-639.2 179.5,-639.2 179.5,-613.2 79.5,-613.2"/>
<text text-anchor="start" x="84.12" y="-620.9" font-family="Courier New" font-size="14.00">message_loc</text>
<polygon fill="none" stroke="black" points="179.5,-613.2 179.5,-639.2 296.5,-639.2 296.5,-613.2 179.5,-613.2"/>
<text text-anchor="start" x="192.62" y="-620.9" font-family="Courier New" font-size="14.00">(1,0)&#45;(1,3)</text>
<polygon fill="none" stroke="black" points="79.5,-587.2 79.5,-613.2 179.5,-613.2 179.5,-587.2 79.5,-587.2"/>
<text text-anchor="start" x="84.12" y="-594.9" font-family="Courier New" font-size="14.00">opening_loc</text>
<polygon fill="none" stroke="black" points="179.5,-587.2 179.5,-613.2 296.5,-613.2 296.5,-587.2 179.5,-587.2"/>
<text text-anchor="start" x="192.62" y="-594.9" font-family="Courier New" font-size="14.00">(1,3)&#45;(1,4)</text>
<polygon fill="none" stroke="black" points="79.5,-561.2 79.5,-587.2 296.5,-587.2 296.5,-561.2 79.5,-561.2"/>
<text text-anchor="start" x="84.5" y="-568.9" font-family="Courier New" font-size="14.00">arguments</text>
<polygon fill="none" stroke="black" points="79.5,-535.2 79.5,-561.2 179.5,-561.2 179.5,-535.2 79.5,-535.2"/>
<text text-anchor="start" x="84.12" y="-542.9" font-family="Courier New" font-size="14.00">closing_loc</text>
<polygon fill="none" stroke="black" points="179.5,-535.2 179.5,-561.2 296.5,-561.2 296.5,-535.2 179.5,-535.2"/>
<text text-anchor="start" x="184.38" y="-542.9" font-family="Courier New" font-size="14.00">(1,10)&#45;(1,11)</text>
</g>
<!-- Node_80 -->
<g id="node2" class="node">
<title>Node_80</title>
<polygon fill="#f2f2f2" stroke="none" points="246.5,-499.2 129.5,-499.2 129.5,-421.2 246.5,-421.2 246.5,-499.2"/>
<polygon fill="none" stroke="black" points="129.5,-473.2 129.5,-499.2 246.5,-499.2 246.5,-473.2 129.5,-473.2"/>
<text text-anchor="start" x="134.38" y="-481.9" font-family="Courier New" font-weight="bold" font-size="14.00">ArgumentsNode</text>
<polygon fill="none" stroke="black" points="129.5,-447.2 129.5,-473.2 208.5,-473.2 208.5,-447.2 129.5,-447.2"/>
<text text-anchor="start" x="134.5" y="-454.9" font-family="Courier New" font-size="14.00">flags</text>
<polygon fill="none" stroke="black" points="208.5,-447.2 208.5,-473.2 246.5,-473.2 246.5,-447.2 208.5,-447.2"/>
<polygon fill="none" stroke="black" points="129.5,-421.2 129.5,-447.2 246.5,-447.2 246.5,-421.2 129.5,-421.2"/>
<text text-anchor="start" x="134.5" y="-428.9" font-family="Courier New" font-size="14.00">arguments</text>
</g>
<!-- Node_60&#45;&gt;Node_80 -->
<g id="edge1" class="edge">
<title>Node_60:arguments&#45;&gt;Node_80</title>
<path fill="none" stroke="black" d="M298,-574.2C315.34,-574.2 305.31,-550.42 297,-535.2 287.52,-517.84 272,-503.76 255.61,-492.73"/>
<polygon fill="black" stroke="black" points="257.77,-489.32 247.45,-486.92 254.01,-495.23 257.77,-489.32"/>
</g>
<!-- Node_80_arguments -->
<g id="node7" class="node">
<title>Node_80_arguments</title>
<ellipse fill="#f2f2f2" stroke="black" cx="188" cy="-383.4" rx="1.8" ry="1.8"/>
</g>
<!-- Node_80&#45;&gt;Node_80_arguments -->
<g id="edge2" class="edge">
<title>Node_80:arguments&#45;&gt;Node_80_arguments</title>
<path fill="none" stroke="black" d="M188,-421.2C188,-412.96 188,-403.69 188,-396.51"/>
<polygon fill="black" stroke="black" points="191.5,-396.54 188,-386.54 184.5,-396.54 191.5,-396.54"/>
</g>
<!-- Node_100 -->
<g id="node3" class="node">
<title>Node_100</title>
<polygon fill="#f2f2f2" stroke="none" points="254.5,-345.6 121.5,-345.6 121.5,-293.6 254.5,-293.6 254.5,-345.6"/>
<polygon fill="none" stroke="black" points="121.5,-319.6 121.5,-345.6 254.5,-345.6 254.5,-319.6 121.5,-319.6"/>
<text text-anchor="start" x="126.12" y="-328.3" font-family="Courier New" font-weight="bold" font-size="14.00">KeywordHashNode</text>
<polygon fill="none" stroke="black" points="121.5,-293.6 121.5,-319.6 254.5,-319.6 254.5,-293.6 121.5,-293.6"/>
<text text-anchor="start" x="126.5" y="-301.3" font-family="Courier New" font-size="14.00">elements</text>
</g>
<!-- Node_100_elements -->
<g id="node8" class="node">
<title>Node_100_elements</title>
<ellipse fill="#f2f2f2" stroke="black" cx="188" cy="-255.8" rx="1.8" ry="1.8"/>
</g>
<!-- Node_100&#45;&gt;Node_100_elements -->
<g id="edge4" class="edge">
<title>Node_100:elements&#45;&gt;Node_100_elements</title>
<path fill="none" stroke="black" d="M188,-293.6C188,-285.36 188,-276.09 188,-268.91"/>
<polygon fill="black" stroke="black" points="191.5,-268.94 188,-258.94 184.5,-268.94 191.5,-268.94"/>
</g>
<!-- Node_120 -->
<g id="node4" class="node">
<title>Node_120</title>
<polygon fill="#f2f2f2" stroke="none" points="230,-218 146,-218 146,-140 230,-140 230,-218"/>
<polygon fill="none" stroke="black" points="146,-192 146,-218 230,-218 230,-192 146,-192"/>
<text text-anchor="start" x="150.88" y="-200.7" font-family="Courier New" font-weight="bold" font-size="14.00">AssocNode</text>
<polygon fill="none" stroke="black" points="146,-166 146,-192 230,-192 230,-166 146,-166"/>
<text text-anchor="start" x="151" y="-173.7" font-family="Courier New" font-size="14.00">key</text>
<polygon fill="none" stroke="black" points="146,-140 146,-166 230,-166 230,-140 146,-140"/>
<text text-anchor="start" x="151" y="-147.7" font-family="Courier New" font-size="14.00">value</text>
</g>
<!-- Node_140 -->
<g id="node5" class="node">
<title>Node_140</title>
<polygon fill="#f2f2f2" stroke="none" points="200,-104 0,-104 0,0 200,0 200,-104"/>
<polygon fill="none" stroke="black" points="0,-78 0,-104 200,-104 200,-78 0,-78"/>
<text text-anchor="start" x="58.75" y="-86.7" font-family="Courier New" font-weight="bold" font-size="14.00">SymbolNode</text>
<polygon fill="none" stroke="black" points="0,-52 0,-78 100,-78 100,-52 0,-52"/>
<text text-anchor="start" x="5" y="-59.7" font-family="Courier New" font-size="14.00">value_loc</text>
<polygon fill="none" stroke="black" points="100,-52 100,-78 200,-78 200,-52 100,-52"/>
<text text-anchor="start" x="104.62" y="-59.7" font-family="Courier New" font-size="14.00">(1,4)&#45;(1,7)</text>
<polygon fill="none" stroke="black" points="0,-26 0,-52 100,-52 100,-26 0,-26"/>
<text text-anchor="start" x="4.62" y="-33.7" font-family="Courier New" font-size="14.00">closing_loc</text>
<polygon fill="none" stroke="black" points="100,-26 100,-52 200,-52 200,-26 100,-26"/>
<text text-anchor="start" x="104.62" y="-33.7" font-family="Courier New" font-size="14.00">(1,7)&#45;(1,8)</text>
<polygon fill="none" stroke="black" points="0,0 0,-26 100,-26 100,0 0,0"/>
<text text-anchor="start" x="5" y="-7.7" font-family="Courier New" font-size="14.00">unescaped</text>
<polygon fill="none" stroke="black" points="100,0 100,-26 200,-26 200,0 100,0"/>
<text text-anchor="start" x="129.38" y="-7.7" font-family="Courier New" font-size="14.00">&quot;bar&quot;</text>
</g>
<!-- Node_120&#45;&gt;Node_140 -->
<g id="edge6" class="edge">
<title>Node_120:key&#45;&gt;Node_140</title>
<path fill="none" stroke="black" d="M145,-179C114.84,-179 103.7,-146.6 100.04,-114.65"/>
<polygon fill="black" stroke="black" points="103.46,-114.53 99.07,-104.89 96.48,-115.16 103.46,-114.53"/>
</g>
<!-- Node_160 -->
<g id="node6" class="node">
<title>Node_160</title>
<polygon fill="#f2f2f2" stroke="none" points="336,-78 218,-78 218,-26 336,-26 336,-78"/>
<polygon fill="none" stroke="black" points="218,-52 218,-78 336,-78 336,-52 218,-52"/>
<text text-anchor="start" x="231.62" y="-60.7" font-family="Courier New" font-weight="bold" font-size="14.00">IntegerNode</text>
<polygon fill="none" stroke="black" points="218,-26 218,-52 269,-52 269,-26 218,-26"/>
<text text-anchor="start" x="222.88" y="-33.7" font-family="Courier New" font-size="14.00">flags</text>
<polygon fill="none" stroke="black" points="269,-26 269,-52 336,-52 336,-26 269,-26"/>
<text text-anchor="start" x="273.62" y="-33.7" font-family="Courier New" font-size="14.00">decimal</text>
</g>
<!-- Node_120&#45;&gt;Node_160 -->
<g id="edge7" class="edge">
<title>Node_120:value&#45;&gt;Node_160</title>
<path fill="none" stroke="black" d="M231,-153C260.23,-153 270.95,-117.3 274.85,-88.56"/>
<polygon fill="black" stroke="black" points="278.4,-89.3 276.03,-78.98 271.44,-88.53 278.4,-89.3"/>
</g>
<!-- Node_80_arguments&#45;&gt;Node_100 -->
<g id="edge3" class="edge">
<title>Node_80_arguments&#45;&gt;Node_100</title>
<path fill="none" stroke="black" d="M188,-381.33C188,-378.05 188,-367.69 188,-356.44"/>
<polygon fill="black" stroke="black" points="191.5,-356.57 188,-346.57 184.5,-356.58 191.5,-356.57"/>
</g>
<!-- Node_100_elements&#45;&gt;Node_120 -->
<g id="edge5" class="edge">
<title>Node_100_elements&#45;&gt;Node_120</title>
<path fill="none" stroke="black" d="M188,-253.5C188,-250.06 188,-240.15 188,-228.69"/>
<polygon fill="black" stroke="black" points="191.5,-228.87 188,-218.87 184.5,-228.87 191.5,-228.87"/>
</g>
</g>
</svg>
