<?xml version="1.0" encoding="UTF-8" standalone="no"?>
<!DOCTYPE svg PUBLIC "-//W3C//DTD SVG 1.1//EN"
 "http://www.w3.org/Graphics/SVG/1.1/DTD/svg11.dtd">
<!-- Generated by graphviz version 8.1.0 (20230707.0739)
 -->
<!-- Title: Prism Pages: 1 -->
<svg width="660pt" height="682pt"
 viewBox="0.00 0.00 660.41 682.00" xmlns="http://www.w3.org/2000/svg" xmlns:xlink="http://www.w3.org/1999/xlink">
<g id="graph0" class="graph" transform="scale(1 1) rotate(0) translate(4 678)">
<title>Prism</title>
<polygon fill="white" stroke="none" points="-4,4 -4,-678 656.41,-678 656.41,4 -4,4"/>
<!-- Node_60 -->
<g id="node1" class="node">
<title>Node_60</title>
<polygon fill="#f2f2f2" stroke="none" points="344.18,-674 85.18,-674 85.18,-544 344.18,-544 344.18,-674"/>
<polygon fill="none" stroke="black" points="85.18,-648 85.18,-674 344.18,-674 344.18,-648 85.18,-648"/>
<text text-anchor="start" x="181.68" y="-656.7" font-family="Courier New" font-weight="bold" font-size="14.00">CaseNode</text>
<polygon fill="none" stroke="black" points="85.18,-622 85.18,-648 344.18,-648 344.18,-622 85.18,-622"/>
<text text-anchor="start" x="90.18" y="-629.7" font-family="Courier New" font-size="14.00">conditions</text>
<polygon fill="none" stroke="black" points="85.18,-596 85.18,-622 344.18,-622 344.18,-596 85.18,-596"/>
<text text-anchor="start" x="90.18" y="-603.7" font-family="Courier New" font-size="14.00">consequent</text>
<polygon fill="none" stroke="black" points="85.18,-570 85.18,-596 227.18,-596 227.18,-570 85.18,-570"/>
<text text-anchor="start" x="90.18" y="-577.7" font-family="Courier New" font-size="14.00">case_keyword_loc</text>
<polygon fill="none" stroke="black" points="227.18,-570 227.18,-596 344.18,-596 344.18,-570 227.18,-570"/>
<text text-anchor="start" x="240.3" y="-577.7" font-family="Courier New" font-size="14.00">(1,0)&#45;(1,4)</text>
<polygon fill="none" stroke="black" points="85.18,-544 85.18,-570 227.18,-570 227.18,-544 85.18,-544"/>
<text text-anchor="start" x="90.18" y="-551.7" font-family="Courier New" font-size="14.00">end_keyword_loc</text>
<polygon fill="none" stroke="black" points="227.18,-544 227.18,-570 344.18,-570 344.18,-544 227.18,-544"/>
<text text-anchor="start" x="232.05" y="-551.7" font-family="Courier New" font-size="14.00">(1,40)&#45;(1,43)</text>
</g>
<!-- Node_120 -->
<g id="node10" class="node">
<title>Node_120</title>
<polygon fill="#f2f2f2" stroke="none" points="270.18,-508 11.18,-508 11.18,-404 270.18,-404 270.18,-508"/>
<polygon fill="none" stroke="black" points="11.18,-482 11.18,-508 270.18,-508 270.18,-482 11.18,-482"/>
<text text-anchor="start" x="107.68" y="-490.7" font-family="Courier New" font-weight="bold" font-size="14.00">ElseNode</text>
<polygon fill="none" stroke="black" points="11.18,-456 11.18,-482 153.18,-482 153.18,-456 11.18,-456"/>
<text text-anchor="start" x="16.18" y="-463.7" font-family="Courier New" font-size="14.00">else_keyword_loc</text>
<polygon fill="none" stroke="black" points="153.18,-456 153.18,-482 270.18,-482 270.18,-456 153.18,-456"/>
<text text-anchor="start" x="158.05" y="-463.7" font-family="Courier New" font-size="14.00">(1,33)&#45;(1,37)</text>
<polygon fill="none" stroke="black" points="11.18,-430 11.18,-456 270.18,-456 270.18,-430 11.18,-430"/>
<text text-anchor="start" x="16.18" y="-437.7" font-family="Courier New" font-size="14.00">statements</text>
<polygon fill="none" stroke="black" points="11.18,-404 11.18,-430 153.18,-430 153.18,-404 11.18,-404"/>
<text text-anchor="start" x="16.18" y="-411.7" font-family="Courier New" font-size="14.00">end_keyword_loc</text>
<polygon fill="none" stroke="black" points="153.18,-404 153.18,-430 270.18,-430 270.18,-404 153.18,-404"/>
<text text-anchor="start" x="158.05" y="-411.7" font-family="Courier New" font-size="14.00">(1,40)&#45;(1,43)</text>
</g>
<!-- Node_60&#45;&gt;Node_120 -->
<g id="edge4" class="edge">
<title>Node_60:consequent&#45;&gt;Node_120</title>
<path fill="none" stroke="black" d="M83.68,-609C42.37,-609 67.05,-559.17 95.69,-516.57"/>
<polygon fill="black" stroke="black" points="99.07,-518.84 101.84,-508.61 93.3,-514.88 99.07,-518.84"/>
</g>
<!-- Node_60_conditions -->
<g id="node13" class="node">
<title>Node_60_conditions</title>
<ellipse fill="#f2f2f2" stroke="black" cx="305.68" cy="-456" rx="1.8" ry="1.8"/>
</g>
<!-- Node_60&#45;&gt;Node_60_conditions -->
<g id="edge1" class="edge">
<title>Node_60:conditions&#45;&gt;Node_60_conditions</title>
<path fill="none" stroke="black" d="M345.68,-635C415.11,-635 336.3,-504.47 312.22,-466.97"/>
<polygon fill="black" stroke="black" points="314.84,-465.59 306.44,-459.14 308.98,-469.42 314.84,-465.59"/>
</g>
<!-- Node_80 -->
<g id="node2" class="node">
<title>Node_80</title>
<polygon fill="#f2f2f2" stroke="none" points="405.68,-368 205.68,-368 205.68,-264 405.68,-264 405.68,-368"/>
<polygon fill="none" stroke="black" points="205.68,-342 205.68,-368 405.68,-368 405.68,-342 205.68,-342"/>
<text text-anchor="start" x="272.68" y="-350.7" font-family="Courier New" font-weight="bold" font-size="14.00">WhenNode</text>
<polygon fill="none" stroke="black" points="205.68,-316 205.68,-342 305.68,-342 305.68,-316 205.68,-316"/>
<text text-anchor="start" x="210.3" y="-323.7" font-family="Courier New" font-size="14.00">keyword_loc</text>
<polygon fill="none" stroke="black" points="305.68,-316 305.68,-342 405.68,-342 405.68,-316 305.68,-316"/>
<text text-anchor="start" x="310.3" y="-323.7" font-family="Courier New" font-size="14.00">(1,5)&#45;(1,9)</text>
<polygon fill="none" stroke="black" points="205.68,-290 205.68,-316 405.68,-316 405.68,-290 205.68,-290"/>
<text text-anchor="start" x="210.68" y="-297.7" font-family="Courier New" font-size="14.00">conditions</text>
<polygon fill="none" stroke="black" points="205.68,-264 205.68,-290 405.68,-290 405.68,-264 205.68,-264"/>
<text text-anchor="start" x="210.68" y="-271.7" font-family="Courier New" font-size="14.00">statements</text>
</g>
<!-- Node_160 -->
<g id="node4" class="node">
<title>Node_160</title>
<polygon fill="#f2f2f2" stroke="none" points="343.18,-228 218.18,-228 218.18,-176 343.18,-176 343.18,-228"/>
<polygon fill="none" stroke="black" points="218.18,-202 218.18,-228 343.18,-228 343.18,-202 218.18,-202"/>
<text text-anchor="start" x="222.93" y="-210.7" font-family="Courier New" font-weight="bold" font-size="14.00">StatementsNode</text>
<polygon fill="none" stroke="black" points="218.18,-176 218.18,-202 343.18,-202 343.18,-176 218.18,-176"/>
<text text-anchor="start" x="223.18" y="-183.7" font-family="Courier New" font-size="14.00">body</text>
</g>
<!-- Node_80&#45;&gt;Node_160 -->
<g id="edge7" class="edge">
<title>Node_80:statements&#45;&gt;Node_160</title>
<path fill="none" stroke="black" d="M305.68,-264C305.68,-255.23 303.44,-246.24 300.3,-237.95"/>
<polygon fill="black" stroke="black" points="303.13,-236.68 295.94,-228.9 296.7,-239.47 303.13,-236.68"/>
</g>
<!-- Node_80_conditions -->
<g id="node14" class="node">
<title>Node_80_conditions</title>
<ellipse fill="#f2f2f2" stroke="black" cx="362.68" cy="-202" rx="1.8" ry="1.8"/>
</g>
<!-- Node_80&#45;&gt;Node_80_conditions -->
<g id="edge5" class="edge">
<title>Node_80:conditions&#45;&gt;Node_80_conditions</title>
<path fill="none" stroke="black" d="M406.68,-303C415.35,-303 408.4,-272.23 405.68,-264 398.66,-242.82 381.63,-222.54 371.23,-211.52"/>
<polygon fill="black" stroke="black" points="374.03,-209.37 364.49,-204.76 369.07,-214.31 374.03,-209.37"/>
</g>
<!-- Node_140 -->
<g id="node3" class="node">
<title>Node_140</title>
<polygon fill="#f2f2f2" stroke="none" points="421.68,-140 303.68,-140 303.68,-88 421.68,-88 421.68,-140"/>
<polygon fill="none" stroke="black" points="303.68,-114 303.68,-140 421.68,-140 421.68,-114 303.68,-114"/>
<text text-anchor="start" x="317.3" y="-122.7" font-family="Courier New" font-weight="bold" font-size="14.00">IntegerNode</text>
<polygon fill="none" stroke="black" points="303.68,-88 303.68,-114 354.68,-114 354.68,-88 303.68,-88"/>
<text text-anchor="start" x="308.55" y="-95.7" font-family="Courier New" font-size="14.00">flags</text>
<polygon fill="none" stroke="black" points="354.68,-88 354.68,-114 421.68,-114 421.68,-88 354.68,-88"/>
<text text-anchor="start" x="359.3" y="-95.7" font-family="Courier New" font-size="14.00">decimal</text>
</g>
<!-- Node_160_body -->
<g id="node15" class="node">
<title>Node_160_body</title>
<ellipse fill="#f2f2f2" stroke="black" cx="280.68" cy="-114" rx="1.8" ry="1.8"/>
</g>
<!-- Node_160&#45;&gt;Node_160_body -->
<g id="edge8" class="edge">
<title>Node_160:body&#45;&gt;Node_160_body</title>
<path fill="none" stroke="black" d="M280.68,-176C280.68,-158.92 280.68,-139.14 280.68,-126.85"/>
<polygon fill="black" stroke="black" points="284.18,-126.86 280.68,-116.86 277.18,-126.86 284.18,-126.86"/>
</g>
<!-- Node_180 -->
<g id="node5" class="node">
<title>Node_180</title>
<polygon fill="#f2f2f2" stroke="none" points="339.68,-52 221.68,-52 221.68,0 339.68,0 339.68,-52"/>
<polygon fill="none" stroke="black" points="221.68,-26 221.68,-52 339.68,-52 339.68,-26 221.68,-26"/>
<text text-anchor="start" x="235.3" y="-34.7" font-family="Courier New" font-weight="bold" font-size="14.00">IntegerNode</text>
<polygon fill="none" stroke="black" points="221.68,0 221.68,-26 272.68,-26 272.68,0 221.68,0"/>
<text text-anchor="start" x="226.55" y="-7.7" font-family="Courier New" font-size="14.00">flags</text>
<polygon fill="none" stroke="black" points="272.68,0 272.68,-26 339.68,-26 339.68,0 272.68,0"/>
<text text-anchor="start" x="277.3" y="-7.7" font-family="Courier New" font-size="14.00">decimal</text>
</g>
<!-- Node_100 -->
<g id="node6" class="node">
<title>Node_100</title>
<polygon fill="#f2f2f2" stroke="none" points="641.18,-368 424.18,-368 424.18,-264 641.18,-264 641.18,-368"/>
<polygon fill="none" stroke="black" points="424.18,-342 424.18,-368 641.18,-368 641.18,-342 424.18,-342"/>
<text text-anchor="start" x="499.68" y="-350.7" font-family="Courier New" font-weight="bold" font-size="14.00">WhenNode</text>
<polygon fill="none" stroke="black" points="424.18,-316 424.18,-342 524.18,-342 524.18,-316 424.18,-316"/>
<text text-anchor="start" x="428.8" y="-323.7" font-family="Courier New" font-size="14.00">keyword_loc</text>
<polygon fill="none" stroke="black" points="524.18,-316 524.18,-342 641.18,-342 641.18,-316 524.18,-316"/>
<text text-anchor="start" x="529.05" y="-323.7" font-family="Courier New" font-size="14.00">(1,19)&#45;(1,23)</text>
<polygon fill="none" stroke="black" points="424.18,-290 424.18,-316 641.18,-316 641.18,-290 424.18,-290"/>
<text text-anchor="start" x="429.18" y="-297.7" font-family="Courier New" font-size="14.00">conditions</text>
<polygon fill="none" stroke="black" points="424.18,-264 424.18,-290 641.18,-290 641.18,-264 424.18,-264"/>
<text text-anchor="start" x="429.18" y="-271.7" font-family="Courier New" font-size="14.00">statements</text>
</g>
<!-- Node_220 -->
<g id="node8" class="node">
<title>Node_220</title>
<polygon fill="#f2f2f2" stroke="none" points="538.18,-228 413.18,-228 413.18,-176 538.18,-176 538.18,-228"/>
<polygon fill="none" stroke="black" points="413.18,-202 413.18,-228 538.18,-228 538.18,-202 413.18,-202"/>
<text text-anchor="start" x="417.93" y="-210.7" font-family="Courier New" font-weight="bold" font-size="14.00">StatementsNode</text>
<polygon fill="none" stroke="black" points="413.18,-176 413.18,-202 538.18,-202 538.18,-176 413.18,-176"/>
<text text-anchor="start" x="418.18" y="-183.7" font-family="Courier New" font-size="14.00">body</text>
</g>
<!-- Node_100&#45;&gt;Node_220 -->
<g id="edge12" class="edge">
<title>Node_100:statements&#45;&gt;Node_220</title>
<path fill="none" stroke="black" d="M532.68,-264C532.68,-253.46 528.07,-243.98 521.49,-235.82"/>
<polygon fill="black" stroke="black" points="524.39,-233.73 515.01,-228.79 519.27,-238.5 524.39,-233.73"/>
</g>
<!-- Node_100_conditions -->
<g id="node16" class="node">
<title>Node_100_conditions</title>
<ellipse fill="#f2f2f2" stroke="black" cx="557.68" cy="-202" rx="1.8" ry="1.8"/>
</g>
<!-- Node_100&#45;&gt;Node_100_conditions -->
<g id="edge10" class="edge">
<title>Node_100:conditions&#45;&gt;Node_100_conditions</title>
<path fill="none" stroke="black" d="M642.68,-303C660.01,-303 649.75,-279.35 641.68,-264 626.01,-234.22 588.52,-215.43 569.37,-207.44"/>
<polygon fill="black" stroke="black" points="570.83,-203.87 560.24,-203.53 568.31,-210.4 570.83,-203.87"/>
</g>
<!-- Node_200 -->
<g id="node7" class="node">
<title>Node_200</title>
<polygon fill="#f2f2f2" stroke="none" points="616.68,-140 498.68,-140 498.68,-88 616.68,-88 616.68,-140"/>
<polygon fill="none" stroke="black" points="498.68,-114 498.68,-140 616.68,-140 616.68,-114 498.68,-114"/>
<text text-anchor="start" x="512.3" y="-122.7" font-family="Courier New" font-weight="bold" font-size="14.00">IntegerNode</text>
<polygon fill="none" stroke="black" points="498.68,-88 498.68,-114 549.68,-114 549.68,-88 498.68,-88"/>
<text text-anchor="start" x="503.55" y="-95.7" font-family="Courier New" font-size="14.00">flags</text>
<polygon fill="none" stroke="black" points="549.68,-88 549.68,-114 616.68,-114 616.68,-88 549.68,-88"/>
<text text-anchor="start" x="554.3" y="-95.7" font-family="Courier New" font-size="14.00">decimal</text>
</g>
<!-- Node_220_body -->
<g id="node17" class="node">
<title>Node_220_body</title>
<ellipse fill="#f2f2f2" stroke="black" cx="475.68" cy="-114" rx="1.8" ry="1.8"/>
</g>
<!-- Node_220&#45;&gt;Node_220_body -->
<g id="edge13" class="edge">
<title>Node_220:body&#45;&gt;Node_220_body</title>
<path fill="none" stroke="black" d="M475.68,-176C475.68,-158.92 475.68,-139.14 475.68,-126.85"/>
<polygon fill="black" stroke="black" points="479.18,-126.86 475.68,-116.86 472.18,-126.86 479.18,-126.86"/>
</g>
<!-- Node_240 -->
<g id="node9" class="node">
<title>Node_240</title>
<polygon fill="#f2f2f2" stroke="none" points="534.68,-52 416.68,-52 416.68,0 534.68,0 534.68,-52"/>
<polygon fill="none" stroke="black" points="416.68,-26 416.68,-52 534.68,-52 534.68,-26 416.68,-26"/>
<text text-anchor="start" x="430.3" y="-34.7" font-family="Courier New" font-weight="bold" font-size="14.00">IntegerNode</text>
<polygon fill="none" stroke="black" points="416.68,0 416.68,-26 467.68,-26 467.68,0 416.68,0"/>
<text text-anchor="start" x="421.55" y="-7.7" font-family="Courier New" font-size="14.00">flags</text>
<polygon fill="none" stroke="black" points="467.68,0 467.68,-26 534.68,-26 534.68,0 467.68,0"/>
<text text-anchor="start" x="472.3" y="-7.7" font-family="Courier New" font-size="14.00">decimal</text>
</g>
<!-- Node_260 -->
<g id="node11" class="node">
<title>Node_260</title>
<polygon fill="#f2f2f2" stroke="none" points="187.18,-342 62.18,-342 62.18,-290 187.18,-290 187.18,-342"/>
<polygon fill="none" stroke="black" points="62.18,-316 62.18,-342 187.18,-342 187.18,-316 62.18,-316"/>
<text text-anchor="start" x="66.93" y="-324.7" font-family="Courier New" font-weight="bold" font-size="14.00">StatementsNode</text>
<polygon fill="none" stroke="black" points="62.18,-290 62.18,-316 187.18,-316 187.18,-290 62.18,-290"/>
<text text-anchor="start" x="67.18" y="-297.7" font-family="Courier New" font-size="14.00">body</text>
</g>
<!-- Node_120&#45;&gt;Node_260 -->
<g id="edge15" class="edge">
<title>Node_120:statements&#45;&gt;Node_260</title>
<path fill="none" stroke="black" d="M9.68,-443C-7.66,-443 2.79,-419.44 10.68,-404 22.62,-380.62 44.06,-361.74 65.15,-347.62"/>
<polygon fill="black" stroke="black" points="66.61,-350.21 73.14,-341.86 62.83,-344.31 66.61,-350.21"/>
</g>
<!-- Node_260_body -->
<g id="node18" class="node">
<title>Node_260_body</title>
<ellipse fill="#f2f2f2" stroke="black" cx="124.68" cy="-202" rx="1.8" ry="1.8"/>
</g>
<!-- Node_260&#45;&gt;Node_260_body -->
<g id="edge16" class="edge">
<title>Node_260:body&#45;&gt;Node_260_body</title>
<path fill="none" stroke="black" d="M124.68,-289C124.68,-262.61 124.68,-231.68 124.68,-215.04"/>
<polygon fill="black" stroke="black" points="128.18,-215.21 124.68,-205.21 121.18,-215.21 128.18,-215.21"/>
</g>
<!-- Node_280 -->
<g id="node12" class="node">
<title>Node_280</title>
<polygon fill="#f2f2f2" stroke="none" points="183.68,-140 65.68,-140 65.68,-88 183.68,-88 183.68,-140"/>
<polygon fill="none" stroke="black" points="65.68,-114 65.68,-140 183.68,-140 183.68,-114 65.68,-114"/>
<text text-anchor="start" x="79.3" y="-122.7" font-family="Courier New" font-weight="bold" font-size="14.00">IntegerNode</text>
<polygon fill="none" stroke="black" points="65.68,-88 65.68,-114 116.68,-114 116.68,-88 65.68,-88"/>
<text text-anchor="start" x="70.55" y="-95.7" font-family="Courier New" font-size="14.00">flags</text>
<polygon fill="none" stroke="black" points="116.68,-88 116.68,-114 183.68,-114 183.68,-88 116.68,-88"/>
<text text-anchor="start" x="121.3" y="-95.7" font-family="Courier New" font-size="14.00">decimal</text>
</g>
<!-- Node_60_conditions&#45;&gt;Node_80 -->
<g id="edge2" class="edge">
<title>Node_60_conditions&#45;&gt;Node_80</title>
<path fill="none" stroke="black" d="M305.68,-454.12C305.68,-448.09 305.68,-412.18 305.68,-378.62"/>
<polygon fill="black" stroke="black" points="309.18,-378.85 305.68,-368.85 302.18,-378.85 309.18,-378.85"/>
</g>
<!-- Node_60_conditions&#45;&gt;Node_100 -->
<g id="edge3" class="edge">
<title>Node_60_conditions&#45;&gt;Node_100</title>
<path fill="none" stroke="black" d="M306.69,-454.38C315.57,-448.99 381.27,-409.04 439.56,-373.61"/>
<polygon fill="black" stroke="black" points="441.12,-376.15 447.84,-367.96 437.48,-370.17 441.12,-376.15"/>
</g>
<!-- Node_80_conditions&#45;&gt;Node_140 -->
<g id="edge6" class="edge">
<title>Node_80_conditions&#45;&gt;Node_140</title>
<path fill="none" stroke="black" d="M362.68,-199.78C362.68,-194.32 362.68,-171.36 362.68,-150.72"/>
<polygon fill="black" stroke="black" points="366.18,-150.93 362.68,-140.93 359.18,-150.93 366.18,-150.93"/>
</g>
<!-- Node_160_body&#45;&gt;Node_180 -->
<g id="edge9" class="edge">
<title>Node_160_body&#45;&gt;Node_180</title>
<path fill="none" stroke="black" d="M280.68,-111.78C280.68,-106.32 280.68,-83.36 280.68,-62.72"/>
<polygon fill="black" stroke="black" points="284.18,-62.93 280.68,-52.93 277.18,-62.93 284.18,-62.93"/>
</g>
<!-- Node_100_conditions&#45;&gt;Node_200 -->
<g id="edge11" class="edge">
<title>Node_100_conditions&#45;&gt;Node_200</title>
<path fill="none" stroke="black" d="M557.68,-199.78C557.68,-194.32 557.68,-171.36 557.68,-150.72"/>
<polygon fill="black" stroke="black" points="561.18,-150.93 557.68,-140.93 554.18,-150.93 561.18,-150.93"/>
</g>
<!-- Node_220_body&#45;&gt;Node_240 -->
<g id="edge14" class="edge">
<title>Node_220_body&#45;&gt;Node_240</title>
<path fill="none" stroke="black" d="M475.68,-111.78C475.68,-106.32 475.68,-83.36 475.68,-62.72"/>
<polygon fill="black" stroke="black" points="479.18,-62.93 475.68,-52.93 472.18,-62.93 479.18,-62.93"/>
</g>
<!-- Node_260_body&#45;&gt;Node_280 -->
<g id="edge17" class="edge">
<title>Node_260_body&#45;&gt;Node_280</title>
<path fill="none" stroke="black" d="M124.68,-199.78C124.68,-194.32 124.68,-171.36 124.68,-150.72"/>
<polygon fill="black" stroke="black" points="128.18,-150.93 124.68,-140.93 121.18,-150.93 128.18,-150.93"/>
</g>
</g>
</svg>
