<?xml version="1.0" encoding="UTF-8" standalone="no"?>
<!DOCTYPE svg PUBLIC "-//W3C//DTD SVG 1.1//EN"
 "http://www.w3.org/Graphics/SVG/1.1/DTD/svg11.dtd">
<!-- Generated by graphviz version 8.1.0 (20230707.0739)
 -->
<!-- Title: Prism Pages: 1 -->
<svg width="293pt" height="598pt"
 viewBox="0.00 0.00 293.13 597.60" xmlns="http://www.w3.org/2000/svg" xmlns:xlink="http://www.w3.org/1999/xlink">
<g id="graph0" class="graph" transform="scale(1 1) rotate(0) translate(4 593.6)">
<title>Prism</title>
<polygon fill="white" stroke="none" points="-4,4 -4,-593.6 289.13,-593.6 289.13,4 -4,4"/>
<!-- Node_60 -->
<g id="node1" class="node">
<title>Node_60</title>
<polygon fill="#f2f2f2" stroke="none" points="233.5,-589.6 33.5,-589.6 33.5,-459.6 233.5,-459.6 233.5,-589.6"/>
<polygon fill="none" stroke="black" points="33.5,-563.6 33.5,-589.6 233.5,-589.6 233.5,-563.6 33.5,-563.6"/>
<text text-anchor="start" x="100.5" y="-572.3" font-family="Courier New" font-weight="bold" font-size="14.00">CallNode</text>
<polygon fill="none" stroke="black" points="33.5,-537.6 33.5,-563.6 133.5,-563.6 133.5,-537.6 33.5,-537.6"/>
<text text-anchor="start" x="38.5" y="-545.3" font-family="Courier New" font-size="14.00">flags</text>
<polygon fill="none" stroke="black" points="133.5,-537.6 133.5,-563.6 233.5,-563.6 233.5,-537.6 133.5,-537.6"/>
<polygon fill="none" stroke="black" points="33.5,-511.6 33.5,-537.6 133.5,-537.6 133.5,-511.6 33.5,-511.6"/>
<text text-anchor="start" x="38.5" y="-519.3" font-family="Courier New" font-size="14.00">name</text>
<polygon fill="none" stroke="black" points="133.5,-511.6 133.5,-537.6 233.5,-537.6 233.5,-511.6 133.5,-511.6"/>
<text text-anchor="start" x="167" y="-519.3" font-family="Courier New" font-size="14.00">:foo</text>
<polygon fill="none" stroke="black" points="33.5,-485.6 33.5,-511.6 133.5,-511.6 133.5,-485.6 33.5,-485.6"/>
<text text-anchor="start" x="38.12" y="-493.3" font-family="Courier New" font-size="14.00">message_loc</text>
<polygon fill="none" stroke="black" points="133.5,-485.6 133.5,-511.6 233.5,-511.6 233.5,-485.6 133.5,-485.6"/>
<text text-anchor="start" x="138.12" y="-493.3" font-family="Courier New" font-size="14.00">(1,0)&#45;(1,3)</text>
<polygon fill="none" stroke="black" points="33.5,-459.6 33.5,-485.6 233.5,-485.6 233.5,-459.6 33.5,-459.6"/>
<text text-anchor="start" x="38.5" y="-467.3" font-family="Courier New" font-size="14.00">block</text>
</g>
<!-- Node_80 -->
<g id="node2" class="node">
<title>Node_80</title>
<polygon fill="#f2f2f2" stroke="none" points="267,-423.6 0,-423.6 0,-267.6 267,-267.6 267,-423.6"/>
<polygon fill="none" stroke="black" points="0,-397.6 0,-423.6 267,-423.6 267,-397.6 0,-397.6"/>
<text text-anchor="start" x="96.38" y="-406.3" font-family="Courier New" font-weight="bold" font-size="14.00">BlockNode</text>
<polygon fill="none" stroke="black" points="0,-371.6 0,-397.6 150,-397.6 150,-371.6 0,-371.6"/>
<text text-anchor="start" x="5" y="-379.3" font-family="Courier New" font-size="14.00">locals</text>
<polygon fill="none" stroke="black" points="150,-371.6 150,-397.6 267,-397.6 267,-371.6 150,-371.6"/>
<text text-anchor="start" x="183.75" y="-379.3" font-family="Courier New" font-size="14.00">[:bar]</text>
<polygon fill="none" stroke="black" points="0,-345.6 0,-371.6 150,-371.6 150,-345.6 0,-345.6"/>
<text text-anchor="start" x="4.88" y="-353.3" font-family="Courier New" font-size="14.00">locals_body_index</text>
<polygon fill="none" stroke="black" points="150,-345.6 150,-371.6 267,-371.6 267,-345.6 150,-345.6"/>
<text text-anchor="start" x="204.38" y="-353.3" font-family="Courier New" font-size="14.00">1</text>
<polygon fill="none" stroke="black" points="0,-319.6 0,-345.6 267,-345.6 267,-319.6 0,-319.6"/>
<text text-anchor="start" x="5" y="-327.3" font-family="Courier New" font-size="14.00">parameters</text>
<polygon fill="none" stroke="black" points="0,-293.6 0,-319.6 150,-319.6 150,-293.6 0,-293.6"/>
<text text-anchor="start" x="5" y="-301.3" font-family="Courier New" font-size="14.00">opening_loc</text>
<polygon fill="none" stroke="black" points="150,-293.6 150,-319.6 267,-319.6 267,-293.6 150,-293.6"/>
<text text-anchor="start" x="163.12" y="-301.3" font-family="Courier New" font-size="14.00">(1,4)&#45;(1,5)</text>
<polygon fill="none" stroke="black" points="0,-267.6 0,-293.6 150,-293.6 150,-267.6 0,-267.6"/>
<text text-anchor="start" x="5" y="-275.3" font-family="Courier New" font-size="14.00">closing_loc</text>
<polygon fill="none" stroke="black" points="150,-267.6 150,-293.6 267,-293.6 267,-267.6 150,-267.6"/>
<text text-anchor="start" x="154.88" y="-275.3" font-family="Courier New" font-size="14.00">(1,14)&#45;(1,15)</text>
</g>
<!-- Node_60&#45;&gt;Node_80 -->
<g id="edge1" class="edge">
<title>Node_60:block&#45;&gt;Node_80</title>
<path fill="none" stroke="black" d="M133.5,-459.6C133.5,-451.39 133.5,-442.85 133.5,-434.3"/>
<polygon fill="black" stroke="black" points="137,-434.49 133.5,-424.49 130,-434.49 137,-434.49"/>
</g>
<!-- Node_100 -->
<g id="node3" class="node">
<title>Node_100</title>
<polygon fill="#f2f2f2" stroke="none" points="242,-231.6 25,-231.6 25,-127.6 242,-127.6 242,-231.6"/>
<polygon fill="none" stroke="black" points="25,-205.6 25,-231.6 242,-231.6 242,-205.6 25,-205.6"/>
<text text-anchor="start" x="55.12" y="-214.3" font-family="Courier New" font-weight="bold" font-size="14.00">BlockParametersNode</text>
<polygon fill="none" stroke="black" points="25,-179.6 25,-205.6 242,-205.6 242,-179.6 25,-179.6"/>
<text text-anchor="start" x="30" y="-187.3" font-family="Courier New" font-size="14.00">locals</text>
<polygon fill="none" stroke="black" points="25,-153.6 25,-179.6 125,-179.6 125,-153.6 25,-153.6"/>
<text text-anchor="start" x="29.62" y="-161.3" font-family="Courier New" font-size="14.00">opening_loc</text>
<polygon fill="none" stroke="black" points="125,-153.6 125,-179.6 242,-179.6 242,-153.6 125,-153.6"/>
<text text-anchor="start" x="138.12" y="-161.3" font-family="Courier New" font-size="14.00">(1,6)&#45;(1,7)</text>
<polygon fill="none" stroke="black" points="25,-127.6 25,-153.6 125,-153.6 125,-127.6 25,-127.6"/>
<text text-anchor="start" x="29.62" y="-135.3" font-family="Courier New" font-size="14.00">closing_loc</text>
<polygon fill="none" stroke="black" points="125,-127.6 125,-153.6 242,-153.6 242,-127.6 125,-127.6"/>
<text text-anchor="start" x="129.88" y="-135.3" font-family="Courier New" font-size="14.00">(1,12)&#45;(1,13)</text>
</g>
<!-- Node_80&#45;&gt;Node_100 -->
<g id="edge2" class="edge">
<title>Node_80:parameters&#45;&gt;Node_100</title>
<path fill="none" stroke="black" d="M268.5,-332.6C297.39,-332.6 281.48,-292.88 267.5,-267.6 261.58,-256.9 253.73,-247.3 244.78,-238.75"/>
<polygon fill="black" stroke="black" points="247.45,-236.55 237.66,-232.5 242.79,-241.77 247.45,-236.55"/>
</g>
<!-- Node_100_locals -->
<g id="node5" class="node">
<title>Node_100_locals</title>
<ellipse fill="#f2f2f2" stroke="black" cx="133.5" cy="-89.8" rx="1.8" ry="1.8"/>
</g>
<!-- Node_100&#45;&gt;Node_100_locals -->
<g id="edge3" class="edge">
<title>Node_100:locals&#45;&gt;Node_100_locals</title>
<path fill="none" stroke="black" d="M243.5,-192.6C272.39,-192.6 259.53,-150.94 242.5,-127.6 219.88,-96.6 169.82,-91.4 146.25,-90.74"/>
<polygon fill="black" stroke="black" points="146.48,-87.24 136.47,-90.72 146.47,-94.24 146.48,-87.24"/>
</g>
<!-- Node_120 -->
<g id="node4" class="node">
<title>Node_120</title>
<polygon fill="#f2f2f2" stroke="none" points="229,-52 38,-52 38,0 229,0 229,-52"/>
<polygon fill="none" stroke="black" points="38,-26 38,-52 229,-52 229,-26 38,-26"/>
<text text-anchor="start" x="42.75" y="-34.7" font-family="Courier New" font-weight="bold" font-size="14.00">BlockLocalVariableNode</text>
<polygon fill="none" stroke="black" points="38,0 38,-26 133,-26 133,0 38,0"/>
<text text-anchor="start" x="43" y="-7.7" font-family="Courier New" font-size="14.00">name</text>
<polygon fill="none" stroke="black" points="133,0 133,-26 229,-26 229,0 133,0"/>
<text text-anchor="start" x="164.5" y="-7.7" font-family="Courier New" font-size="14.00">:bar</text>
</g>
<!-- Node_100_locals&#45;&gt;Node_120 -->
<g id="edge4" class="edge">
<title>Node_100_locals&#45;&gt;Node_120</title>
<path fill="none" stroke="black" d="M133.5,-87.73C133.5,-84.45 133.5,-74.09 133.5,-62.84"/>
<polygon fill="black" stroke="black" points="137,-62.97 133.5,-52.97 130,-62.98 137,-62.97"/>
</g>
</g>
</svg>
