<?xml version="1.0" encoding="UTF-8" standalone="no"?>
<!DOCTYPE svg PUBLIC "-//W3C//DTD SVG 1.1//EN"
 "http://www.w3.org/Graphics/SVG/1.1/DTD/svg11.dtd">
<!-- Generated by graphviz version 8.1.0 (20230707.0739)
 -->
<!-- Title: Prism Pages: 1 -->
<svg width="270pt" height="380pt"
 viewBox="0.00 0.00 269.50 379.60" xmlns="http://www.w3.org/2000/svg" xmlns:xlink="http://www.w3.org/1999/xlink">
<g id="graph0" class="graph" transform="scale(1 1) rotate(0) translate(4 375.6)">
<title>Prism</title>
<polygon fill="white" stroke="none" points="-4,4 -4,-375.6 265.5,-375.6 265.5,4 -4,4"/>
<!-- Node_60 -->
<g id="node1" class="node">
<title>Node_60</title>
<polygon fill="#f2f2f2" stroke="none" points="237.5,-371.6 20.5,-371.6 20.5,-215.6 237.5,-215.6 237.5,-371.6"/>
<polygon fill="none" stroke="black" points="20.5,-345.6 20.5,-371.6 237.5,-371.6 237.5,-345.6 20.5,-345.6"/>
<text text-anchor="start" x="91.88" y="-354.3" font-family="Courier New" font-weight="bold" font-size="14.00">WhileNode</text>
<polygon fill="none" stroke="black" points="20.5,-319.6 20.5,-345.6 120.5,-345.6 120.5,-319.6 20.5,-319.6"/>
<text text-anchor="start" x="25.5" y="-327.3" font-family="Courier New" font-size="14.00">flags</text>
<polygon fill="none" stroke="black" points="120.5,-319.6 120.5,-345.6 237.5,-345.6 237.5,-319.6 120.5,-319.6"/>
<polygon fill="none" stroke="black" points="20.5,-293.6 20.5,-319.6 120.5,-319.6 120.5,-293.6 20.5,-293.6"/>
<text text-anchor="start" x="25.12" y="-301.3" font-family="Courier New" font-size="14.00">keyword_loc</text>
<polygon fill="none" stroke="black" points="120.5,-293.6 120.5,-319.6 237.5,-319.6 237.5,-293.6 120.5,-293.6"/>
<text text-anchor="start" x="133.62" y="-301.3" font-family="Courier New" font-size="14.00">(1,0)&#45;(1,5)</text>
<polygon fill="none" stroke="black" points="20.5,-267.6 20.5,-293.6 120.5,-293.6 120.5,-267.6 20.5,-267.6"/>
<text text-anchor="start" x="25.12" y="-275.3" font-family="Courier New" font-size="14.00">closing_loc</text>
<polygon fill="none" stroke="black" points="120.5,-267.6 120.5,-293.6 237.5,-293.6 237.5,-267.6 120.5,-267.6"/>
<text text-anchor="start" x="125.38" y="-275.3" font-family="Courier New" font-size="14.00">(1,13)&#45;(1,16)</text>
<polygon fill="none" stroke="black" points="20.5,-241.6 20.5,-267.6 237.5,-267.6 237.5,-241.6 20.5,-241.6"/>
<text text-anchor="start" x="25.5" y="-249.3" font-family="Courier New" font-size="14.00">predicate</text>
<polygon fill="none" stroke="black" points="20.5,-215.6 20.5,-241.6 237.5,-241.6 237.5,-215.6 20.5,-215.6"/>
<text text-anchor="start" x="25.5" y="-223.3" font-family="Courier New" font-size="14.00">statements</text>
</g>
<!-- Node_80 -->
<g id="node2" class="node">
<title>Node_80</title>
<polygon fill="#f2f2f2" stroke="none" points="118,-179.6 0,-179.6 0,-127.6 118,-127.6 118,-179.6"/>
<polygon fill="none" stroke="black" points="0,-153.6 0,-179.6 118,-179.6 118,-153.6 0,-153.6"/>
<text text-anchor="start" x="13.62" y="-162.3" font-family="Courier New" font-weight="bold" font-size="14.00">IntegerNode</text>
<polygon fill="none" stroke="black" points="0,-127.6 0,-153.6 51,-153.6 51,-127.6 0,-127.6"/>
<text text-anchor="start" x="4.88" y="-135.3" font-family="Courier New" font-size="14.00">flags</text>
<polygon fill="none" stroke="black" points="51,-127.6 51,-153.6 118,-153.6 118,-127.6 51,-127.6"/>
<text text-anchor="start" x="55.62" y="-135.3" font-family="Courier New" font-size="14.00">decimal</text>
</g>
<!-- Node_60&#45;&gt;Node_80 -->
<g id="edge1" class="edge">
<title>Node_60:predicate&#45;&gt;Node_80</title>
<path fill="none" stroke="black" d="M19,-254.6C-10.23,-254.6 11.15,-217.31 32.24,-188.27"/>
<polygon fill="black" stroke="black" points="35.55,-190.69 38.71,-180.58 29.93,-186.51 35.55,-190.69"/>
</g>
<!-- Node_100 -->
<g id="node3" class="node">
<title>Node_100</title>
<polygon fill="#f2f2f2" stroke="none" points="261.5,-179.6 136.5,-179.6 136.5,-127.6 261.5,-127.6 261.5,-179.6"/>
<polygon fill="none" stroke="black" points="136.5,-153.6 136.5,-179.6 261.5,-179.6 261.5,-153.6 136.5,-153.6"/>
<text text-anchor="start" x="141.25" y="-162.3" font-family="Courier New" font-weight="bold" font-size="14.00">StatementsNode</text>
<polygon fill="none" stroke="black" points="136.5,-127.6 136.5,-153.6 261.5,-153.6 261.5,-127.6 136.5,-127.6"/>
<text text-anchor="start" x="141.5" y="-135.3" font-family="Courier New" font-size="14.00">body</text>
</g>
<!-- Node_60&#45;&gt;Node_100 -->
<g id="edge2" class="edge">
<title>Node_60:statements&#45;&gt;Node_100</title>
<path fill="none" stroke="black" d="M239,-228.6C259.06,-228.6 246.07,-207.29 229.73,-187.54"/>
<polygon fill="black" stroke="black" points="231.77,-185.55 222.61,-180.24 226.46,-190.11 231.77,-185.55"/>
</g>
<!-- Node_100_body -->
<g id="node5" class="node">
<title>Node_100_body</title>
<ellipse fill="#f2f2f2" stroke="black" cx="199" cy="-89.8" rx="1.8" ry="1.8"/>
</g>
<!-- Node_100&#45;&gt;Node_100_body -->
<g id="edge3" class="edge">
<title>Node_100:body&#45;&gt;Node_100_body</title>
<path fill="none" stroke="black" d="M199,-127.6C199,-119.36 199,-110.09 199,-102.91"/>
<polygon fill="black" stroke="black" points="202.5,-102.94 199,-92.94 195.5,-102.94 202.5,-102.94"/>
</g>
<!-- Node_120 -->
<g id="node4" class="node">
<title>Node_120</title>
<polygon fill="#f2f2f2" stroke="none" points="258,-52 140,-52 140,0 258,0 258,-52"/>
<polygon fill="none" stroke="black" points="140,-26 140,-52 258,-52 258,-26 140,-26"/>
<text text-anchor="start" x="153.62" y="-34.7" font-family="Courier New" font-weight="bold" font-size="14.00">IntegerNode</text>
<polygon fill="none" stroke="black" points="140,0 140,-26 191,-26 191,0 140,0"/>
<text text-anchor="start" x="144.88" y="-7.7" font-family="Courier New" font-size="14.00">flags</text>
<polygon fill="none" stroke="black" points="191,0 191,-26 258,-26 258,0 191,0"/>
<text text-anchor="start" x="195.62" y="-7.7" font-family="Courier New" font-size="14.00">decimal</text>
</g>
<!-- Node_100_body&#45;&gt;Node_120 -->
<g id="edge4" class="edge">
<title>Node_100_body&#45;&gt;Node_120</title>
<path fill="none" stroke="black" d="M199,-87.73C199,-84.45 199,-74.09 199,-62.84"/>
<polygon fill="black" stroke="black" points="202.5,-62.97 199,-52.97 195.5,-62.98 202.5,-62.97"/>
</g>
</g>
</svg>
