<?xml version="1.0" encoding="UTF-8" standalone="no"?>
<!DOCTYPE svg PUBLIC "-//W3C//DTD SVG 1.1//EN"
 "http://www.w3.org/Graphics/SVG/1.1/DTD/svg11.dtd">
<!-- Generated by graphviz version 8.1.0 (20230707.0739)
 -->
<!-- Title: Prism Pages: 1 -->
<svg width="423pt" height="777pt"
 viewBox="0.00 0.00 422.50 777.20" xmlns="http://www.w3.org/2000/svg" xmlns:xlink="http://www.w3.org/1999/xlink">
<g id="graph0" class="graph" transform="scale(1 1) rotate(0) translate(4 773.2)">
<title>Prism</title>
<polygon fill="white" stroke="none" points="-4,4 -4,-773.2 418.5,-773.2 418.5,4 -4,4"/>
<!-- Node_60 -->
<g id="node1" class="node">
<title>Node_60</title>
<polygon fill="#f2f2f2" stroke="none" points="317,-769.2 50,-769.2 50,-561.2 317,-561.2 317,-769.2"/>
<polygon fill="none" stroke="black" points="50,-743.2 50,-769.2 317,-769.2 317,-743.2 50,-743.2"/>
<text text-anchor="start" x="142.25" y="-751.9" font-family="Courier New" font-weight="bold" font-size="14.00">LambdaNode</text>
<polygon fill="none" stroke="black" points="50,-717.2 50,-743.2 200,-743.2 200,-717.2 50,-717.2"/>
<text text-anchor="start" x="55" y="-724.9" font-family="Courier New" font-size="14.00">locals</text>
<polygon fill="none" stroke="black" points="200,-717.2 200,-743.2 317,-743.2 317,-717.2 200,-717.2"/>
<text text-anchor="start" x="237.88" y="-724.9" font-family="Courier New" font-size="14.00">[:_1]</text>
<polygon fill="none" stroke="black" points="50,-691.2 50,-717.2 200,-717.2 200,-691.2 50,-691.2"/>
<text text-anchor="start" x="54.88" y="-698.9" font-family="Courier New" font-size="14.00">locals_body_index</text>
<polygon fill="none" stroke="black" points="200,-691.2 200,-717.2 317,-717.2 317,-691.2 200,-691.2"/>
<text text-anchor="start" x="254.38" y="-698.9" font-family="Courier New" font-size="14.00">1</text>
<polygon fill="none" stroke="black" points="50,-665.2 50,-691.2 200,-691.2 200,-665.2 50,-665.2"/>
<text text-anchor="start" x="55" y="-672.9" font-family="Courier New" font-size="14.00">operator_loc</text>
<polygon fill="none" stroke="black" points="200,-665.2 200,-691.2 317,-691.2 317,-665.2 200,-665.2"/>
<text text-anchor="start" x="213.12" y="-672.9" font-family="Courier New" font-size="14.00">(1,0)&#45;(1,2)</text>
<polygon fill="none" stroke="black" points="50,-639.2 50,-665.2 200,-665.2 200,-639.2 50,-639.2"/>
<text text-anchor="start" x="55" y="-646.9" font-family="Courier New" font-size="14.00">opening_loc</text>
<polygon fill="none" stroke="black" points="200,-639.2 200,-665.2 317,-665.2 317,-639.2 200,-639.2"/>
<text text-anchor="start" x="213.12" y="-646.9" font-family="Courier New" font-size="14.00">(1,3)&#45;(1,4)</text>
<polygon fill="none" stroke="black" points="50,-613.2 50,-639.2 200,-639.2 200,-613.2 50,-613.2"/>
<text text-anchor="start" x="55" y="-620.9" font-family="Courier New" font-size="14.00">closing_loc</text>
<polygon fill="none" stroke="black" points="200,-613.2 200,-639.2 317,-639.2 317,-613.2 200,-613.2"/>
<text text-anchor="start" x="204.88" y="-620.9" font-family="Courier New" font-size="14.00">(1,12)&#45;(1,13)</text>
<polygon fill="none" stroke="black" points="50,-587.2 50,-613.2 317,-613.2 317,-587.2 50,-587.2"/>
<text text-anchor="start" x="55" y="-594.9" font-family="Courier New" font-size="14.00">parameters</text>
<polygon fill="none" stroke="black" points="50,-561.2 50,-587.2 317,-587.2 317,-561.2 50,-561.2"/>
<text text-anchor="start" x="55" y="-568.9" font-family="Courier New" font-size="14.00">body</text>
</g>
<!-- Node_80 -->
<g id="node2" class="node">
<title>Node_80</title>
<polygon fill="#f2f2f2" stroke="none" points="191,-525.2 0,-525.2 0,-473.2 191,-473.2 191,-525.2"/>
<polygon fill="none" stroke="black" points="0,-499.2 0,-525.2 191,-525.2 191,-499.2 0,-499.2"/>
<text text-anchor="start" x="4.75" y="-507.9" font-family="Courier New" font-weight="bold" font-size="14.00">NumberedParametersNode</text>
<polygon fill="none" stroke="black" points="0,-473.2 0,-499.2 120,-499.2 120,-473.2 0,-473.2"/>
<text text-anchor="start" x="5" y="-480.9" font-family="Courier New" font-size="14.00">maximum</text>
<polygon fill="none" stroke="black" points="120,-473.2 120,-499.2 191,-499.2 191,-473.2 120,-473.2"/>
<text text-anchor="start" x="151.38" y="-480.9" font-family="Courier New" font-size="14.00">1</text>
</g>
<!-- Node_60&#45;&gt;Node_80 -->
<g id="edge1" class="edge">
<title>Node_60:parameters&#45;&gt;Node_80</title>
<path fill="none" stroke="black" d="M48.5,-600.2C18.38,-600.2 42.88,-562.59 66.34,-533.5"/>
<polygon fill="black" stroke="black" points="69.54,-536.12 73.2,-526.18 64.14,-531.66 69.54,-536.12"/>
</g>
<!-- Node_100 -->
<g id="node3" class="node">
<title>Node_100</title>
<polygon fill="#f2f2f2" stroke="none" points="334,-525.2 209,-525.2 209,-473.2 334,-473.2 334,-525.2"/>
<polygon fill="none" stroke="black" points="209,-499.2 209,-525.2 334,-525.2 334,-499.2 209,-499.2"/>
<text text-anchor="start" x="213.75" y="-507.9" font-family="Courier New" font-weight="bold" font-size="14.00">StatementsNode</text>
<polygon fill="none" stroke="black" points="209,-473.2 209,-499.2 334,-499.2 334,-473.2 209,-473.2"/>
<text text-anchor="start" x="214" y="-480.9" font-family="Courier New" font-size="14.00">body</text>
</g>
<!-- Node_60&#45;&gt;Node_100 -->
<g id="edge2" class="edge">
<title>Node_60:body&#45;&gt;Node_100</title>
<path fill="none" stroke="black" d="M318.5,-574.2C339.59,-574.2 324.07,-552.51 305.4,-532.61"/>
<polygon fill="black" stroke="black" points="308.34,-530.59 298.87,-525.84 303.31,-535.46 308.34,-530.59"/>
</g>
<!-- Node_100_body -->
<g id="node8" class="node">
<title>Node_100_body</title>
<ellipse fill="#f2f2f2" stroke="black" cx="271.5" cy="-435.4" rx="1.8" ry="1.8"/>
</g>
<!-- Node_100&#45;&gt;Node_100_body -->
<g id="edge3" class="edge">
<title>Node_100:body&#45;&gt;Node_100_body</title>
<path fill="none" stroke="black" d="M271.5,-473.2C271.5,-464.96 271.5,-455.69 271.5,-448.51"/>
<polygon fill="black" stroke="black" points="275,-448.54 271.5,-438.54 268,-448.54 275,-448.54"/>
</g>
<!-- Node_120 -->
<g id="node4" class="node">
<title>Node_120</title>
<polygon fill="#f2f2f2" stroke="none" points="371.5,-397.6 171.5,-397.6 171.5,-241.6 371.5,-241.6 371.5,-397.6"/>
<polygon fill="none" stroke="black" points="171.5,-371.6 171.5,-397.6 371.5,-397.6 371.5,-371.6 171.5,-371.6"/>
<text text-anchor="start" x="238.5" y="-380.3" font-family="Courier New" font-weight="bold" font-size="14.00">CallNode</text>
<polygon fill="none" stroke="black" points="171.5,-345.6 171.5,-371.6 271.5,-371.6 271.5,-345.6 171.5,-345.6"/>
<text text-anchor="start" x="176.5" y="-353.3" font-family="Courier New" font-size="14.00">flags</text>
<polygon fill="none" stroke="black" points="271.5,-345.6 271.5,-371.6 371.5,-371.6 371.5,-345.6 271.5,-345.6"/>
<polygon fill="none" stroke="black" points="171.5,-319.6 171.5,-345.6 371.5,-345.6 371.5,-319.6 171.5,-319.6"/>
<text text-anchor="start" x="176.5" y="-327.3" font-family="Courier New" font-size="14.00">receiver</text>
<polygon fill="none" stroke="black" points="171.5,-293.6 171.5,-319.6 271.5,-319.6 271.5,-293.6 171.5,-293.6"/>
<text text-anchor="start" x="176.5" y="-301.3" font-family="Courier New" font-size="14.00">name</text>
<polygon fill="none" stroke="black" points="271.5,-293.6 271.5,-319.6 371.5,-319.6 371.5,-293.6 271.5,-293.6"/>
<text text-anchor="start" x="313.25" y="-301.3" font-family="Courier New" font-size="14.00">:*</text>
<polygon fill="none" stroke="black" points="171.5,-267.6 171.5,-293.6 271.5,-293.6 271.5,-267.6 171.5,-267.6"/>
<text text-anchor="start" x="176.12" y="-275.3" font-family="Courier New" font-size="14.00">message_loc</text>
<polygon fill="none" stroke="black" points="271.5,-267.6 271.5,-293.6 371.5,-293.6 371.5,-267.6 271.5,-267.6"/>
<text text-anchor="start" x="276.12" y="-275.3" font-family="Courier New" font-size="14.00">(1,8)&#45;(1,9)</text>
<polygon fill="none" stroke="black" points="171.5,-241.6 171.5,-267.6 371.5,-267.6 371.5,-241.6 171.5,-241.6"/>
<text text-anchor="start" x="176.5" y="-249.3" font-family="Courier New" font-size="14.00">arguments</text>
</g>
<!-- Node_140 -->
<g id="node5" class="node">
<title>Node_140</title>
<polygon fill="#f2f2f2" stroke="none" points="279,-205.6 96,-205.6 96,-127.6 279,-127.6 279,-205.6"/>
<polygon fill="none" stroke="black" points="96,-179.6 96,-205.6 279,-205.6 279,-179.6 96,-179.6"/>
<text text-anchor="start" x="100.88" y="-188.3" font-family="Courier New" font-weight="bold" font-size="14.00">LocalVariableReadNode</text>
<polygon fill="none" stroke="black" points="96,-153.6 96,-179.6 196,-179.6 196,-153.6 96,-153.6"/>
<text text-anchor="start" x="101" y="-161.3" font-family="Courier New" font-size="14.00">name</text>
<polygon fill="none" stroke="black" points="196,-153.6 196,-179.6 279,-179.6 279,-153.6 196,-153.6"/>
<text text-anchor="start" x="225.12" y="-161.3" font-family="Courier New" font-size="14.00">:_1</text>
<polygon fill="none" stroke="black" points="96,-127.6 96,-153.6 196,-153.6 196,-127.6 96,-127.6"/>
<text text-anchor="start" x="101" y="-135.3" font-family="Courier New" font-size="14.00">depth</text>
<polygon fill="none" stroke="black" points="196,-127.6 196,-153.6 279,-153.6 279,-127.6 196,-127.6"/>
<text text-anchor="start" x="233.38" y="-135.3" font-family="Courier New" font-size="14.00">0</text>
</g>
<!-- Node_120&#45;&gt;Node_140 -->
<g id="edge5" class="edge">
<title>Node_120:receiver&#45;&gt;Node_140</title>
<path fill="none" stroke="black" d="M170.5,-332.6C123.05,-332.6 143.73,-264.24 164.49,-215.52"/>
<polygon fill="black" stroke="black" points="168.09,-217.02 168.89,-206.45 161.68,-214.21 168.09,-217.02"/>
</g>
<!-- Node_160 -->
<g id="node6" class="node">
<title>Node_160</title>
<polygon fill="#f2f2f2" stroke="none" points="414,-205.6 297,-205.6 297,-127.6 414,-127.6 414,-205.6"/>
<polygon fill="none" stroke="black" points="297,-179.6 297,-205.6 414,-205.6 414,-179.6 297,-179.6"/>
<text text-anchor="start" x="301.88" y="-188.3" font-family="Courier New" font-weight="bold" font-size="14.00">ArgumentsNode</text>
<polygon fill="none" stroke="black" points="297,-153.6 297,-179.6 376,-179.6 376,-153.6 297,-153.6"/>
<text text-anchor="start" x="302" y="-161.3" font-family="Courier New" font-size="14.00">flags</text>
<polygon fill="none" stroke="black" points="376,-153.6 376,-179.6 414,-179.6 414,-153.6 376,-153.6"/>
<polygon fill="none" stroke="black" points="297,-127.6 297,-153.6 414,-153.6 414,-127.6 297,-127.6"/>
<text text-anchor="start" x="302" y="-135.3" font-family="Courier New" font-size="14.00">arguments</text>
</g>
<!-- Node_120&#45;&gt;Node_160 -->
<g id="edge6" class="edge">
<title>Node_120:arguments&#45;&gt;Node_160</title>
<path fill="none" stroke="black" d="M372.5,-254.6C390.88,-254.6 388.41,-235.66 380.54,-215.45"/>
<polygon fill="black" stroke="black" points="383.45,-214.34 376.31,-206.51 377,-217.08 383.45,-214.34"/>
</g>
<!-- Node_160_arguments -->
<g id="node9" class="node">
<title>Node_160_arguments</title>
<ellipse fill="#f2f2f2" stroke="black" cx="355.5" cy="-89.8" rx="1.8" ry="1.8"/>
</g>
<!-- Node_160&#45;&gt;Node_160_arguments -->
<g id="edge7" class="edge">
<title>Node_160:arguments&#45;&gt;Node_160_arguments</title>
<path fill="none" stroke="black" d="M355.5,-127.6C355.5,-119.36 355.5,-110.09 355.5,-102.91"/>
<polygon fill="black" stroke="black" points="359,-102.94 355.5,-92.94 352,-102.94 359,-102.94"/>
</g>
<!-- Node_180 -->
<g id="node7" class="node">
<title>Node_180</title>
<polygon fill="#f2f2f2" stroke="none" points="414.5,-52 296.5,-52 296.5,0 414.5,0 414.5,-52"/>
<polygon fill="none" stroke="black" points="296.5,-26 296.5,-52 414.5,-52 414.5,-26 296.5,-26"/>
<text text-anchor="start" x="310.12" y="-34.7" font-family="Courier New" font-weight="bold" font-size="14.00">IntegerNode</text>
<polygon fill="none" stroke="black" points="296.5,0 296.5,-26 347.5,-26 347.5,0 296.5,0"/>
<text text-anchor="start" x="301.38" y="-7.7" font-family="Courier New" font-size="14.00">flags</text>
<polygon fill="none" stroke="black" points="347.5,0 347.5,-26 414.5,-26 414.5,0 347.5,0"/>
<text text-anchor="start" x="352.12" y="-7.7" font-family="Courier New" font-size="14.00">decimal</text>
</g>
<!-- Node_100_body&#45;&gt;Node_120 -->
<g id="edge4" class="edge">
<title>Node_100_body&#45;&gt;Node_120</title>
<path fill="none" stroke="black" d="M271.5,-433.12C271.5,-429.8 271.5,-420.31 271.5,-408.17"/>
<polygon fill="black" stroke="black" points="275,-408.41 271.5,-398.41 268,-408.41 275,-408.41"/>
</g>
<!-- Node_160_arguments&#45;&gt;Node_180 -->
<g id="edge8" class="edge">
<title>Node_160_arguments&#45;&gt;Node_180</title>
<path fill="none" stroke="black" d="M355.5,-87.73C355.5,-84.45 355.5,-74.09 355.5,-62.84"/>
<polygon fill="black" stroke="black" points="359,-62.97 355.5,-52.97 352,-62.98 359,-62.97"/>
</g>
</g>
</svg>
