<?xml version="1.0" encoding="UTF-8" standalone="no"?>
<!DOCTYPE svg PUBLIC "-//W3C//DTD SVG 1.1//EN"
 "http://www.w3.org/Graphics/SVG/1.1/DTD/svg11.dtd">
<!-- Generated by graphviz version 8.1.0 (20230707.0739)
 -->
<!-- Title: Prism Pages: 1 -->
<svg width="387pt" height="340pt"
 viewBox="0.00 0.00 386.50 340.00" xmlns="http://www.w3.org/2000/svg" xmlns:xlink="http://www.w3.org/1999/xlink">
<g id="graph0" class="graph" transform="scale(1 1) rotate(0) translate(4 336)">
<title>Prism</title>
<polygon fill="white" stroke="none" points="-4,4 -4,-336 382.5,-336 382.5,4 -4,4"/>
<!-- Node_60 -->
<g id="node1" class="node">
<title>Node_60</title>
<polygon fill="#f2f2f2" stroke="none" points="325,-332 116,-332 116,-176 325,-176 325,-332"/>
<polygon fill="none" stroke="black" points="116,-306 116,-332 325,-332 325,-306 116,-306"/>
<text text-anchor="start" x="162.75" y="-314.7" font-family="Courier New" font-weight="bold" font-size="14.00">MultiWriteNode</text>
<polygon fill="none" stroke="black" points="116,-280 116,-306 325,-306 325,-280 116,-280"/>
<text text-anchor="start" x="121" y="-287.7" font-family="Courier New" font-size="14.00">lefts</text>
<polygon fill="none" stroke="black" points="116,-254 116,-280 325,-280 325,-254 116,-254"/>
<text text-anchor="start" x="121" y="-261.7" font-family="Courier New" font-size="14.00">rest</text>
<polygon fill="none" stroke="black" points="116,-228 116,-254 225,-254 225,-228 116,-228"/>
<text text-anchor="start" x="121" y="-235.7" font-family="Courier New" font-size="14.00">rights</text>
<polygon fill="none" stroke="black" points="225,-228 225,-254 325,-254 325,-228 225,-228"/>
<text text-anchor="start" x="266.75" y="-235.7" font-family="Courier New" font-size="14.00">[]</text>
<polygon fill="none" stroke="black" points="116,-202 116,-228 225,-228 225,-202 116,-202"/>
<text text-anchor="start" x="121" y="-209.7" font-family="Courier New" font-size="14.00">operator_loc</text>
<polygon fill="none" stroke="black" points="225,-202 225,-228 325,-228 325,-202 225,-202"/>
<text text-anchor="start" x="229.62" y="-209.7" font-family="Courier New" font-size="14.00">(1,5)&#45;(1,6)</text>
<polygon fill="none" stroke="black" points="116,-176 116,-202 325,-202 325,-176 116,-176"/>
<text text-anchor="start" x="121" y="-183.7" font-family="Courier New" font-size="14.00">value</text>
</g>
<!-- Node_100 -->
<g id="node3" class="node">
<title>Node_100</title>
<polygon fill="#f2f2f2" stroke="none" points="143,-127.25 0,-127.25 0,-100.75 143,-100.75 143,-127.25"/>
<polygon fill="none" stroke="black" points="0,-100.75 0,-127.25 143,-127.25 143,-100.75 0,-100.75"/>
<text text-anchor="start" x="5.5" y="-109.95" font-family="Courier New" font-weight="bold" font-size="14.00">ImplicitRestNode</text>
</g>
<!-- Node_60&#45;&gt;Node_100 -->
<g id="edge3" class="edge">
<title>Node_60:rest&#45;&gt;Node_100</title>
<path fill="none" stroke="black" d="M114.5,-267C61.48,-267 64.02,-180.32 68.44,-137.87"/>
<polygon fill="black" stroke="black" points="72,-138.52 69.69,-128.18 65.05,-137.71 72,-138.52"/>
</g>
<!-- Node_120 -->
<g id="node4" class="node">
<title>Node_120</title>
<polygon fill="#f2f2f2" stroke="none" points="279.5,-140 161.5,-140 161.5,-88 279.5,-88 279.5,-140"/>
<polygon fill="none" stroke="black" points="161.5,-114 161.5,-140 279.5,-140 279.5,-114 161.5,-114"/>
<text text-anchor="start" x="175.12" y="-122.7" font-family="Courier New" font-weight="bold" font-size="14.00">IntegerNode</text>
<polygon fill="none" stroke="black" points="161.5,-88 161.5,-114 212.5,-114 212.5,-88 161.5,-88"/>
<text text-anchor="start" x="166.38" y="-95.7" font-family="Courier New" font-size="14.00">flags</text>
<polygon fill="none" stroke="black" points="212.5,-88 212.5,-114 279.5,-114 279.5,-88 212.5,-88"/>
<text text-anchor="start" x="217.12" y="-95.7" font-family="Courier New" font-size="14.00">decimal</text>
</g>
<!-- Node_60&#45;&gt;Node_120 -->
<g id="edge4" class="edge">
<title>Node_60:value&#45;&gt;Node_120</title>
<path fill="none" stroke="black" d="M220.5,-176C220.5,-167.85 220.5,-159.08 220.5,-150.8"/>
<polygon fill="black" stroke="black" points="224,-150.93 220.5,-140.93 217,-150.93 224,-150.93"/>
</g>
<!-- Node_60_lefts -->
<g id="node5" class="node">
<title>Node_60_lefts</title>
<ellipse fill="#f2f2f2" stroke="black" cx="299.5" cy="-114" rx="1.8" ry="1.8"/>
</g>
<!-- Node_60&#45;&gt;Node_60_lefts -->
<g id="edge1" class="edge">
<title>Node_60:lefts&#45;&gt;Node_60_lefts</title>
<path fill="none" stroke="black" d="M326.5,-293C394.72,-293 326.98,-163.61 305.53,-125.46"/>
<polygon fill="black" stroke="black" points="308.19,-124.06 300.18,-117.14 302.12,-127.55 308.19,-124.06"/>
</g>
<!-- Node_80 -->
<g id="node2" class="node">
<title>Node_80</title>
<polygon fill="#f2f2f2" stroke="none" points="378.5,-52 220.5,-52 220.5,0 378.5,0 378.5,-52"/>
<polygon fill="none" stroke="black" points="220.5,-26 220.5,-52 378.5,-52 378.5,-26 220.5,-26"/>
<text text-anchor="start" x="225.25" y="-34.7" font-family="Courier New" font-weight="bold" font-size="14.00">ConstantTargetNode</text>
<polygon fill="none" stroke="black" points="220.5,0 220.5,-26 299.5,-26 299.5,0 220.5,0"/>
<text text-anchor="start" x="225.5" y="-7.7" font-family="Courier New" font-size="14.00">name</text>
<polygon fill="none" stroke="black" points="299.5,0 299.5,-26 378.5,-26 378.5,0 299.5,0"/>
<text text-anchor="start" x="322.5" y="-7.7" font-family="Courier New" font-size="14.00">:Foo</text>
</g>
<!-- Node_60_lefts&#45;&gt;Node_80 -->
<g id="edge2" class="edge">
<title>Node_60_lefts&#45;&gt;Node_80</title>
<path fill="none" stroke="black" d="M299.5,-111.78C299.5,-106.32 299.5,-83.36 299.5,-62.72"/>
<polygon fill="black" stroke="black" points="303,-62.93 299.5,-52.93 296,-62.93 303,-62.93"/>
</g>
</g>
</svg>
