<?xml version="1.0" encoding="UTF-8" standalone="no"?>
<!DOCTYPE svg PUBLIC "-//W3C//DTD SVG 1.1//EN"
 "http://www.w3.org/Graphics/SVG/1.1/DTD/svg11.dtd">
<!-- Generated by graphviz version 8.1.0 (20230707.0739)
 -->
<!-- Title: Prism Pages: 1 -->
<svg width="593pt" height="702pt"
 viewBox="0.00 0.00 593.00 701.60" xmlns="http://www.w3.org/2000/svg" xmlns:xlink="http://www.w3.org/1999/xlink">
<g id="graph0" class="graph" transform="scale(1 1) rotate(0) translate(4 697.6)">
<title>Prism</title>
<polygon fill="white" stroke="none" points="-4,4 -4,-697.6 589,-697.6 589,4 -4,4"/>
<!-- Node_60 -->
<g id="node1" class="node">
<title>Node_60</title>
<polygon fill="#f2f2f2" stroke="none" points="448,-693.6 323,-693.6 323,-615.6 448,-615.6 448,-693.6"/>
<polygon fill="none" stroke="black" points="323,-667.6 323,-693.6 448,-693.6 448,-667.6 323,-667.6"/>
<text text-anchor="start" x="327.75" y="-676.3" font-family="Courier New" font-weight="bold" font-size="14.00">MatchWriteNode</text>
<polygon fill="none" stroke="black" points="323,-641.6 323,-667.6 448,-667.6 448,-641.6 323,-641.6"/>
<text text-anchor="start" x="328" y="-649.3" font-family="Courier New" font-size="14.00">call</text>
<polygon fill="none" stroke="black" points="323,-615.6 323,-641.6 448,-641.6 448,-615.6 323,-615.6"/>
<text text-anchor="start" x="328" y="-623.3" font-family="Courier New" font-size="14.00">targets</text>
</g>
<!-- Node_80 -->
<g id="node2" class="node">
<title>Node_80</title>
<polygon fill="#f2f2f2" stroke="none" points="418,-579.6 201,-579.6 201,-423.6 418,-423.6 418,-579.6"/>
<polygon fill="none" stroke="black" points="201,-553.6 201,-579.6 418,-579.6 418,-553.6 201,-553.6"/>
<text text-anchor="start" x="276.5" y="-562.3" font-family="Courier New" font-weight="bold" font-size="14.00">CallNode</text>
<polygon fill="none" stroke="black" points="201,-527.6 201,-553.6 301,-553.6 301,-527.6 201,-527.6"/>
<text text-anchor="start" x="206" y="-535.3" font-family="Courier New" font-size="14.00">flags</text>
<polygon fill="none" stroke="black" points="301,-527.6 301,-553.6 418,-553.6 418,-527.6 301,-527.6"/>
<polygon fill="none" stroke="black" points="201,-501.6 201,-527.6 418,-527.6 418,-501.6 201,-501.6"/>
<text text-anchor="start" x="206" y="-509.3" font-family="Courier New" font-size="14.00">receiver</text>
<polygon fill="none" stroke="black" points="201,-475.6 201,-501.6 301,-501.6 301,-475.6 201,-475.6"/>
<text text-anchor="start" x="206" y="-483.3" font-family="Courier New" font-size="14.00">name</text>
<polygon fill="none" stroke="black" points="301,-475.6 301,-501.6 418,-501.6 418,-475.6 301,-475.6"/>
<text text-anchor="start" x="347.12" y="-483.3" font-family="Courier New" font-size="14.00">:=~</text>
<polygon fill="none" stroke="black" points="201,-449.6 201,-475.6 301,-475.6 301,-449.6 201,-449.6"/>
<text text-anchor="start" x="205.62" y="-457.3" font-family="Courier New" font-size="14.00">message_loc</text>
<polygon fill="none" stroke="black" points="301,-449.6 301,-475.6 418,-475.6 418,-449.6 301,-449.6"/>
<text text-anchor="start" x="305.88" y="-457.3" font-family="Courier New" font-size="14.00">(1,16)&#45;(1,18)</text>
<polygon fill="none" stroke="black" points="201,-423.6 201,-449.6 418,-449.6 418,-423.6 201,-423.6"/>
<text text-anchor="start" x="206" y="-431.3" font-family="Courier New" font-size="14.00">arguments</text>
</g>
<!-- Node_60&#45;&gt;Node_80 -->
<g id="edge1" class="edge">
<title>Node_60:call&#45;&gt;Node_80</title>
<path fill="none" stroke="black" d="M321.5,-654.6C291.03,-654.6 285.54,-623.88 288.71,-590.06"/>
<polygon fill="black" stroke="black" points="292.26,-590.83 289.96,-580.49 285.31,-590.01 292.26,-590.83"/>
</g>
<!-- Node_60_targets -->
<g id="node7" class="node">
<title>Node_60_targets</title>
<ellipse fill="#f2f2f2" stroke="black" cx="461.5" cy="-501.6" rx="1.8" ry="1.8"/>
</g>
<!-- Node_60&#45;&gt;Node_60_targets -->
<g id="edge2" class="edge">
<title>Node_60:targets&#45;&gt;Node_60_targets</title>
<path fill="none" stroke="black" d="M449.5,-628.6C495.58,-628.6 474.22,-544.07 464.99,-513.48"/>
<polygon fill="black" stroke="black" points="468.15,-512.87 461.78,-504.4 461.48,-515 468.15,-512.87"/>
</g>
<!-- Node_120 -->
<g id="node3" class="node">
<title>Node_120</title>
<polygon fill="#f2f2f2" stroke="none" points="233,-387.6 0,-387.6 0,-231.6 233,-231.6 233,-387.6"/>
<polygon fill="none" stroke="black" points="0,-361.6 0,-387.6 233,-387.6 233,-361.6 0,-361.6"/>
<text text-anchor="start" x="29.88" y="-370.3" font-family="Courier New" font-weight="bold" font-size="14.00">RegularExpressionNode</text>
<polygon fill="none" stroke="black" points="0,-335.6 0,-361.6 100,-361.6 100,-335.6 0,-335.6"/>
<text text-anchor="start" x="5" y="-343.3" font-family="Courier New" font-size="14.00">flags</text>
<polygon fill="none" stroke="black" points="100,-335.6 100,-361.6 233,-361.6 233,-335.6 100,-335.6"/>
<polygon fill="none" stroke="black" points="0,-309.6 0,-335.6 100,-335.6 100,-309.6 0,-309.6"/>
<text text-anchor="start" x="4.62" y="-317.3" font-family="Courier New" font-size="14.00">opening_loc</text>
<polygon fill="none" stroke="black" points="100,-309.6 100,-335.6 233,-335.6 233,-309.6 100,-309.6"/>
<text text-anchor="start" x="121.12" y="-317.3" font-family="Courier New" font-size="14.00">(1,0)&#45;(1,1)</text>
<polygon fill="none" stroke="black" points="0,-283.6 0,-309.6 100,-309.6 100,-283.6 0,-283.6"/>
<text text-anchor="start" x="4.62" y="-291.3" font-family="Courier New" font-size="14.00">content_loc</text>
<polygon fill="none" stroke="black" points="100,-283.6 100,-309.6 233,-309.6 233,-283.6 100,-283.6"/>
<text text-anchor="start" x="117" y="-291.3" font-family="Courier New" font-size="14.00">(1,1)&#45;(1,14)</text>
<polygon fill="none" stroke="black" points="0,-257.6 0,-283.6 100,-283.6 100,-257.6 0,-257.6"/>
<text text-anchor="start" x="4.62" y="-265.3" font-family="Courier New" font-size="14.00">closing_loc</text>
<polygon fill="none" stroke="black" points="100,-257.6 100,-283.6 233,-283.6 233,-257.6 100,-257.6"/>
<text text-anchor="start" x="112.88" y="-265.3" font-family="Courier New" font-size="14.00">(1,14)&#45;(1,15)</text>
<polygon fill="none" stroke="black" points="0,-231.6 0,-257.6 100,-257.6 100,-231.6 0,-231.6"/>
<text text-anchor="start" x="5" y="-239.3" font-family="Courier New" font-size="14.00">unescaped</text>
<polygon fill="none" stroke="black" points="100,-231.6 100,-257.6 233,-257.6 233,-231.6 100,-231.6"/>
<text text-anchor="start" x="104.62" y="-239.3" font-family="Courier New" font-size="14.00">&quot;(?&lt;value&gt;\d+)&quot;</text>
</g>
<!-- Node_80&#45;&gt;Node_120 -->
<g id="edge4" class="edge">
<title>Node_80:receiver&#45;&gt;Node_120</title>
<path fill="none" stroke="black" d="M199.5,-514.6C145.89,-514.6 126.1,-453.4 119.18,-398.05"/>
<polygon fill="black" stroke="black" points="122.58,-397.98 117.99,-388.43 115.62,-398.76 122.58,-397.98"/>
</g>
<!-- Node_140 -->
<g id="node4" class="node">
<title>Node_140</title>
<polygon fill="#f2f2f2" stroke="none" points="368,-348.6 251,-348.6 251,-270.6 368,-270.6 368,-348.6"/>
<polygon fill="none" stroke="black" points="251,-322.6 251,-348.6 368,-348.6 368,-322.6 251,-322.6"/>
<text text-anchor="start" x="255.88" y="-331.3" font-family="Courier New" font-weight="bold" font-size="14.00">ArgumentsNode</text>
<polygon fill="none" stroke="black" points="251,-296.6 251,-322.6 330,-322.6 330,-296.6 251,-296.6"/>
<text text-anchor="start" x="256" y="-304.3" font-family="Courier New" font-size="14.00">flags</text>
<polygon fill="none" stroke="black" points="330,-296.6 330,-322.6 368,-322.6 368,-296.6 330,-296.6"/>
<polygon fill="none" stroke="black" points="251,-270.6 251,-296.6 368,-296.6 368,-270.6 251,-270.6"/>
<text text-anchor="start" x="256" y="-278.3" font-family="Courier New" font-size="14.00">arguments</text>
</g>
<!-- Node_80&#45;&gt;Node_140 -->
<g id="edge5" class="edge">
<title>Node_80:arguments&#45;&gt;Node_140</title>
<path fill="none" stroke="black" d="M309.5,-423.6C309.5,-402.59 309.5,-379.39 309.5,-359.5"/>
<polygon fill="black" stroke="black" points="313,-359.52 309.5,-349.52 306,-359.52 313,-359.52"/>
</g>
<!-- Node_140_arguments -->
<g id="node8" class="node">
<title>Node_140_arguments</title>
<ellipse fill="#f2f2f2" stroke="black" cx="309.5" cy="-193.8" rx="1.8" ry="1.8"/>
</g>
<!-- Node_140&#45;&gt;Node_140_arguments -->
<g id="edge6" class="edge">
<title>Node_140:arguments&#45;&gt;Node_140_arguments</title>
<path fill="none" stroke="black" d="M309.5,-269.6C309.5,-247.24 309.5,-221.12 309.5,-206.41"/>
<polygon fill="black" stroke="black" points="313,-206.85 309.5,-196.85 306,-206.85 313,-206.85"/>
</g>
<!-- Node_160 -->
<g id="node5" class="node">
<title>Node_160</title>
<polygon fill="#f2f2f2" stroke="none" points="418,-156 201,-156 201,0 418,0 418,-156"/>
<polygon fill="none" stroke="black" points="201,-130 201,-156 418,-156 418,-130 201,-130"/>
<text text-anchor="start" x="268.25" y="-138.7" font-family="Courier New" font-weight="bold" font-size="14.00">StringNode</text>
<polygon fill="none" stroke="black" points="201,-104 201,-130 301,-130 301,-104 201,-104"/>
<text text-anchor="start" x="206" y="-111.7" font-family="Courier New" font-size="14.00">flags</text>
<polygon fill="none" stroke="black" points="301,-104 301,-130 418,-130 418,-104 301,-104"/>
<polygon fill="none" stroke="black" points="201,-78 201,-104 301,-104 301,-78 201,-78"/>
<text text-anchor="start" x="205.62" y="-85.7" font-family="Courier New" font-size="14.00">opening_loc</text>
<polygon fill="none" stroke="black" points="301,-78 301,-104 418,-104 418,-78 301,-78"/>
<text text-anchor="start" x="305.88" y="-85.7" font-family="Courier New" font-size="14.00">(1,19)&#45;(1,20)</text>
<polygon fill="none" stroke="black" points="201,-52 201,-78 301,-78 301,-52 201,-52"/>
<text text-anchor="start" x="205.62" y="-59.7" font-family="Courier New" font-size="14.00">content_loc</text>
<polygon fill="none" stroke="black" points="301,-52 301,-78 418,-78 418,-52 301,-52"/>
<text text-anchor="start" x="305.88" y="-59.7" font-family="Courier New" font-size="14.00">(1,20)&#45;(1,23)</text>
<polygon fill="none" stroke="black" points="201,-26 201,-52 301,-52 301,-26 201,-26"/>
<text text-anchor="start" x="205.62" y="-33.7" font-family="Courier New" font-size="14.00">closing_loc</text>
<polygon fill="none" stroke="black" points="301,-26 301,-52 418,-52 418,-26 301,-26"/>
<text text-anchor="start" x="305.88" y="-33.7" font-family="Courier New" font-size="14.00">(1,23)&#45;(1,24)</text>
<polygon fill="none" stroke="black" points="201,0 201,-26 301,-26 301,0 201,0"/>
<text text-anchor="start" x="206" y="-7.7" font-family="Courier New" font-size="14.00">unescaped</text>
<polygon fill="none" stroke="black" points="301,0 301,-26 418,-26 418,0 301,0"/>
<text text-anchor="start" x="338.88" y="-7.7" font-family="Courier New" font-size="14.00">&quot;123&quot;</text>
</g>
<!-- Node_100 -->
<g id="node6" class="node">
<title>Node_100</title>
<polygon fill="#f2f2f2" stroke="none" points="585,-348.6 386,-348.6 386,-270.6 585,-270.6 585,-348.6"/>
<polygon fill="none" stroke="black" points="386,-322.6 386,-348.6 585,-348.6 585,-322.6 386,-322.6"/>
<text text-anchor="start" x="390.62" y="-331.3" font-family="Courier New" font-weight="bold" font-size="14.00">LocalVariableTargetNode</text>
<polygon fill="none" stroke="black" points="386,-296.6 386,-322.6 481,-322.6 481,-296.6 386,-296.6"/>
<text text-anchor="start" x="391" y="-304.3" font-family="Courier New" font-size="14.00">name</text>
<polygon fill="none" stroke="black" points="481,-296.6 481,-322.6 585,-322.6 585,-296.6 481,-296.6"/>
<text text-anchor="start" x="508.25" y="-304.3" font-family="Courier New" font-size="14.00">:value</text>
<polygon fill="none" stroke="black" points="386,-270.6 386,-296.6 481,-296.6 481,-270.6 386,-270.6"/>
<text text-anchor="start" x="391" y="-278.3" font-family="Courier New" font-size="14.00">depth</text>
<polygon fill="none" stroke="black" points="481,-270.6 481,-296.6 585,-296.6 585,-270.6 481,-270.6"/>
<text text-anchor="start" x="528.88" y="-278.3" font-family="Courier New" font-size="14.00">0</text>
</g>
<!-- Node_60_targets&#45;&gt;Node_100 -->
<g id="edge3" class="edge">
<title>Node_60_targets&#45;&gt;Node_100</title>
<path fill="none" stroke="black" d="M461.65,-499.39C462.99,-488.82 472.74,-411.6 479.35,-359.25"/>
<polygon fill="black" stroke="black" points="482.93,-359.85 480.71,-349.49 475.99,-358.98 482.93,-359.85"/>
</g>
<!-- Node_140_arguments&#45;&gt;Node_160 -->
<g id="edge7" class="edge">
<title>Node_140_arguments&#45;&gt;Node_160</title>
<path fill="none" stroke="black" d="M309.5,-191.52C309.5,-188.2 309.5,-178.71 309.5,-166.57"/>
<polygon fill="black" stroke="black" points="313,-166.81 309.5,-156.81 306,-166.81 313,-166.81"/>
</g>
</g>
</svg>
