<?xml version="1.0" encoding="UTF-8" standalone="no"?>
<!DOCTYPE svg PUBLIC "-//W3C//DTD SVG 1.1//EN"
 "http://www.w3.org/Graphics/SVG/1.1/DTD/svg11.dtd">
<!-- Generated by graphviz version 8.1.0 (20230707.0739)
 -->
<!-- Title: Prism Pages: 1 -->
<svg width="150pt" height="60pt"
 viewBox="0.00 0.00 150.00 60.00" xmlns="http://www.w3.org/2000/svg" xmlns:xlink="http://www.w3.org/1999/xlink">
<g id="graph0" class="graph" transform="scale(1 1) rotate(0) translate(4 56)">
<title>Prism</title>
<polygon fill="white" stroke="none" points="-4,4 -4,-56 146,-56 146,4 -4,4"/>
<!-- Node_60 -->
<g id="node1" class="node">
<title>Node_60</title>
<polygon fill="#f2f2f2" stroke="none" points="142,-52 0,-52 0,0 142,0 142,-52"/>
<polygon fill="none" stroke="black" points="0,-26 0,-52 142,-52 142,-26 0,-26"/>
<text text-anchor="start" x="5" y="-34.7" font-family="Courier New" font-weight="bold" font-size="14.00">ConstantReadNode</text>
<polygon fill="none" stroke="black" points="0,0 0,-26 71,-26 71,0 0,0"/>
<text text-anchor="start" x="5" y="-7.7" font-family="Courier New" font-size="14.00">name</text>
<polygon fill="none" stroke="black" points="71,0 71,-26 142,-26 142,0 71,0"/>
<text text-anchor="start" x="90" y="-7.7" font-family="Courier New" font-size="14.00">:Foo</text>
</g>
</g>
</svg>
