<?xml version="1.0" encoding="UTF-8" standalone="no"?>
<!DOCTYPE svg PUBLIC "-//W3C//DTD SVG 1.1//EN"
 "http://www.w3.org/Graphics/SVG/1.1/DTD/svg11.dtd">
<!-- Generated by graphviz version 8.1.0 (20230707.0739)
 -->
<!-- Title: Prism Pages: 1 -->
<svg width="987pt" height="1939pt"
 viewBox="0.00 0.00 986.50 1939.20" xmlns="http://www.w3.org/2000/svg" xmlns:xlink="http://www.w3.org/1999/xlink">
<g id="graph0" class="graph" transform="scale(1 1) rotate(0) translate(4 1935.2)">
<title>Prism</title>
<polygon fill="white" stroke="none" points="-4,4 -4,-1935.2 982.5,-1935.2 982.5,4 -4,4"/>
<!-- Node_60 -->
<g id="node1" class="node">
<title>Node_60</title>
<polygon fill="#f2f2f2" stroke="none" points="458,-1931.2 208,-1931.2 208,-1723.2 458,-1723.2 458,-1931.2"/>
<polygon fill="none" stroke="black" points="208,-1905.2 208,-1931.2 458,-1931.2 458,-1905.2 208,-1905.2"/>
<text text-anchor="start" x="304.12" y="-1913.9" font-family="Courier New" font-weight="bold" font-size="14.00">DefNode</text>
<polygon fill="none" stroke="black" points="208,-1879.2 208,-1905.2 358,-1905.2 358,-1879.2 208,-1879.2"/>
<text text-anchor="start" x="213" y="-1886.9" font-family="Courier New" font-size="14.00">name</text>
<polygon fill="none" stroke="black" points="358,-1879.2 358,-1905.2 458,-1905.2 458,-1879.2 358,-1879.2"/>
<text text-anchor="start" x="391.5" y="-1886.9" font-family="Courier New" font-size="14.00">:foo</text>
<polygon fill="none" stroke="black" points="208,-1853.2 208,-1879.2 358,-1879.2 358,-1853.2 208,-1853.2"/>
<text text-anchor="start" x="213" y="-1860.9" font-family="Courier New" font-size="14.00">name_loc</text>
<polygon fill="none" stroke="black" points="358,-1853.2 358,-1879.2 458,-1879.2 458,-1853.2 358,-1853.2"/>
<text text-anchor="start" x="362.62" y="-1860.9" font-family="Courier New" font-size="14.00">(1,4)&#45;(1,7)</text>
<polygon fill="none" stroke="black" points="208,-1827.2 208,-1853.2 458,-1853.2 458,-1827.2 208,-1827.2"/>
<text text-anchor="start" x="213" y="-1834.9" font-family="Courier New" font-size="14.00">body</text>
<polygon fill="none" stroke="black" points="208,-1801.2 208,-1827.2 358,-1827.2 358,-1801.2 208,-1801.2"/>
<text text-anchor="start" x="213" y="-1808.9" font-family="Courier New" font-size="14.00">locals</text>
<polygon fill="none" stroke="black" points="358,-1801.2 358,-1827.2 458,-1827.2 458,-1801.2 358,-1801.2"/>
<text text-anchor="start" x="399.75" y="-1808.9" font-family="Courier New" font-size="14.00">[]</text>
<polygon fill="none" stroke="black" points="208,-1775.2 208,-1801.2 358,-1801.2 358,-1775.2 208,-1775.2"/>
<text text-anchor="start" x="212.88" y="-1782.9" font-family="Courier New" font-size="14.00">locals_body_index</text>
<polygon fill="none" stroke="black" points="358,-1775.2 358,-1801.2 458,-1801.2 458,-1775.2 358,-1775.2"/>
<text text-anchor="start" x="403.88" y="-1782.9" font-family="Courier New" font-size="14.00">0</text>
<polygon fill="none" stroke="black" points="208,-1749.2 208,-1775.2 358,-1775.2 358,-1749.2 208,-1749.2"/>
<text text-anchor="start" x="213" y="-1756.9" font-family="Courier New" font-size="14.00">def_keyword_loc</text>
<polygon fill="none" stroke="black" points="358,-1749.2 358,-1775.2 458,-1775.2 458,-1749.2 358,-1749.2"/>
<text text-anchor="start" x="362.62" y="-1756.9" font-family="Courier New" font-size="14.00">(1,0)&#45;(1,3)</text>
<polygon fill="none" stroke="black" points="208,-1723.2 208,-1749.2 358,-1749.2 358,-1723.2 208,-1723.2"/>
<text text-anchor="start" x="213" y="-1730.9" font-family="Courier New" font-size="14.00">end_keyword_loc</text>
<polygon fill="none" stroke="black" points="358,-1723.2 358,-1749.2 458,-1749.2 458,-1723.2 358,-1723.2"/>
<text text-anchor="start" x="362.62" y="-1730.9" font-family="Courier New" font-size="14.00">(5,0)&#45;(5,3)</text>
</g>
<!-- Node_80 -->
<g id="node2" class="node">
<title>Node_80</title>
<polygon fill="#f2f2f2" stroke="none" points="395.5,-1687.2 270.5,-1687.2 270.5,-1635.2 395.5,-1635.2 395.5,-1687.2"/>
<polygon fill="none" stroke="black" points="270.5,-1661.2 270.5,-1687.2 395.5,-1687.2 395.5,-1661.2 270.5,-1661.2"/>
<text text-anchor="start" x="275.25" y="-1669.9" font-family="Courier New" font-weight="bold" font-size="14.00">StatementsNode</text>
<polygon fill="none" stroke="black" points="270.5,-1635.2 270.5,-1661.2 395.5,-1661.2 395.5,-1635.2 270.5,-1635.2"/>
<text text-anchor="start" x="275.5" y="-1642.9" font-family="Courier New" font-size="14.00">body</text>
</g>
<!-- Node_60&#45;&gt;Node_80 -->
<g id="edge1" class="edge">
<title>Node_60:body&#45;&gt;Node_80</title>
<path fill="none" stroke="black" d="M459,-1840.2C511,-1840.2 485.74,-1767.18 458,-1723.2 445.93,-1704.07 425.96,-1690.77 405.49,-1681.6"/>
<polygon fill="black" stroke="black" points="407,-1678.02 396.42,-1677.42 404.32,-1684.49 407,-1678.02"/>
</g>
<!-- Node_80_body -->
<g id="node22" class="node">
<title>Node_80_body</title>
<ellipse fill="#f2f2f2" stroke="black" cx="333" cy="-1597.4" rx="1.8" ry="1.8"/>
</g>
<!-- Node_80&#45;&gt;Node_80_body -->
<g id="edge2" class="edge">
<title>Node_80:body&#45;&gt;Node_80_body</title>
<path fill="none" stroke="black" d="M333,-1635.2C333,-1626.96 333,-1617.69 333,-1610.51"/>
<polygon fill="black" stroke="black" points="336.5,-1610.54 333,-1600.54 329.5,-1610.54 336.5,-1610.54"/>
</g>
<!-- Node_100 -->
<g id="node3" class="node">
<title>Node_100</title>
<polygon fill="#f2f2f2" stroke="none" points="466.5,-1559.6 199.5,-1559.6 199.5,-1377.6 466.5,-1377.6 466.5,-1559.6"/>
<polygon fill="none" stroke="black" points="199.5,-1533.6 199.5,-1559.6 466.5,-1559.6 466.5,-1533.6 199.5,-1533.6"/>
<text text-anchor="start" x="300" y="-1542.3" font-family="Courier New" font-weight="bold" font-size="14.00">CallNode</text>
<polygon fill="none" stroke="black" points="199.5,-1507.6 199.5,-1533.6 349.5,-1533.6 349.5,-1507.6 199.5,-1507.6"/>
<text text-anchor="start" x="204.5" y="-1515.3" font-family="Courier New" font-size="14.00">flags</text>
<polygon fill="none" stroke="black" points="349.5,-1507.6 349.5,-1533.6 466.5,-1533.6 466.5,-1507.6 349.5,-1507.6"/>
<polygon fill="none" stroke="black" points="199.5,-1481.6 199.5,-1507.6 466.5,-1507.6 466.5,-1481.6 199.5,-1481.6"/>
<text text-anchor="start" x="204.5" y="-1489.3" font-family="Courier New" font-size="14.00">receiver</text>
<polygon fill="none" stroke="black" points="199.5,-1455.6 199.5,-1481.6 349.5,-1481.6 349.5,-1455.6 199.5,-1455.6"/>
<text text-anchor="start" x="204.38" y="-1463.3" font-family="Courier New" font-size="14.00">call_operator_loc</text>
<polygon fill="none" stroke="black" points="349.5,-1455.6 349.5,-1481.6 466.5,-1481.6 466.5,-1455.6 349.5,-1455.6"/>
<text text-anchor="start" x="354.38" y="-1463.3" font-family="Courier New" font-size="14.00">(2,11)&#45;(2,12)</text>
<polygon fill="none" stroke="black" points="199.5,-1429.6 199.5,-1455.6 349.5,-1455.6 349.5,-1429.6 199.5,-1429.6"/>
<text text-anchor="start" x="204.5" y="-1437.3" font-family="Courier New" font-size="14.00">name</text>
<polygon fill="none" stroke="black" points="349.5,-1429.6 349.5,-1455.6 466.5,-1455.6 466.5,-1429.6 349.5,-1429.6"/>
<text text-anchor="start" x="387.38" y="-1437.3" font-family="Courier New" font-size="14.00">:each</text>
<polygon fill="none" stroke="black" points="199.5,-1403.6 199.5,-1429.6 349.5,-1429.6 349.5,-1403.6 199.5,-1403.6"/>
<text text-anchor="start" x="204.5" y="-1411.3" font-family="Courier New" font-size="14.00">message_loc</text>
<polygon fill="none" stroke="black" points="349.5,-1403.6 349.5,-1429.6 466.5,-1429.6 466.5,-1403.6 349.5,-1403.6"/>
<text text-anchor="start" x="354.38" y="-1411.3" font-family="Courier New" font-size="14.00">(2,12)&#45;(2,16)</text>
<polygon fill="none" stroke="black" points="199.5,-1377.6 199.5,-1403.6 466.5,-1403.6 466.5,-1377.6 199.5,-1377.6"/>
<text text-anchor="start" x="204.5" y="-1385.3" font-family="Courier New" font-size="14.00">block</text>
</g>
<!-- Node_120 -->
<g id="node4" class="node">
<title>Node_120</title>
<polygon fill="#f2f2f2" stroke="none" points="311.5,-1315.6 94.5,-1315.6 94.5,-1185.6 311.5,-1185.6 311.5,-1315.6"/>
<polygon fill="none" stroke="black" points="94.5,-1289.6 94.5,-1315.6 311.5,-1315.6 311.5,-1289.6 94.5,-1289.6"/>
<text text-anchor="start" x="165.88" y="-1298.3" font-family="Courier New" font-weight="bold" font-size="14.00">ArrayNode</text>
<polygon fill="none" stroke="black" points="94.5,-1263.6 94.5,-1289.6 194.5,-1289.6 194.5,-1263.6 94.5,-1263.6"/>
<text text-anchor="start" x="99.5" y="-1271.3" font-family="Courier New" font-size="14.00">flags</text>
<polygon fill="none" stroke="black" points="194.5,-1263.6 194.5,-1289.6 311.5,-1289.6 311.5,-1263.6 194.5,-1263.6"/>
<polygon fill="none" stroke="black" points="94.5,-1237.6 94.5,-1263.6 311.5,-1263.6 311.5,-1237.6 94.5,-1237.6"/>
<text text-anchor="start" x="99.5" y="-1245.3" font-family="Courier New" font-size="14.00">elements</text>
<polygon fill="none" stroke="black" points="94.5,-1211.6 94.5,-1237.6 194.5,-1237.6 194.5,-1211.6 94.5,-1211.6"/>
<text text-anchor="start" x="99.12" y="-1219.3" font-family="Courier New" font-size="14.00">opening_loc</text>
<polygon fill="none" stroke="black" points="194.5,-1211.6 194.5,-1237.6 311.5,-1237.6 311.5,-1211.6 194.5,-1211.6"/>
<text text-anchor="start" x="207.62" y="-1219.3" font-family="Courier New" font-size="14.00">(2,2)&#45;(2,3)</text>
<polygon fill="none" stroke="black" points="94.5,-1185.6 94.5,-1211.6 194.5,-1211.6 194.5,-1185.6 94.5,-1185.6"/>
<text text-anchor="start" x="99.12" y="-1193.3" font-family="Courier New" font-size="14.00">closing_loc</text>
<polygon fill="none" stroke="black" points="194.5,-1185.6 194.5,-1211.6 311.5,-1211.6 311.5,-1185.6 194.5,-1185.6"/>
<text text-anchor="start" x="199.38" y="-1193.3" font-family="Courier New" font-size="14.00">(2,10)&#45;(2,11)</text>
</g>
<!-- Node_100&#45;&gt;Node_120 -->
<g id="edge4" class="edge">
<title>Node_100:receiver&#45;&gt;Node_120</title>
<path fill="none" stroke="black" d="M198,-1494.6C129.63,-1494.6 149.81,-1397.25 173.84,-1325.79"/>
<polygon fill="black" stroke="black" points="177.45,-1327.04 177.4,-1316.45 170.83,-1324.76 177.45,-1327.04"/>
</g>
<!-- Node_140 -->
<g id="node8" class="node">
<title>Node_140</title>
<polygon fill="#f2f2f2" stroke="none" points="604.5,-1341.6 337.5,-1341.6 337.5,-1159.6 604.5,-1159.6 604.5,-1341.6"/>
<polygon fill="none" stroke="black" points="337.5,-1315.6 337.5,-1341.6 604.5,-1341.6 604.5,-1315.6 337.5,-1315.6"/>
<text text-anchor="start" x="433.88" y="-1324.3" font-family="Courier New" font-weight="bold" font-size="14.00">BlockNode</text>
<polygon fill="none" stroke="black" points="337.5,-1289.6 337.5,-1315.6 487.5,-1315.6 487.5,-1289.6 337.5,-1289.6"/>
<text text-anchor="start" x="342.5" y="-1297.3" font-family="Courier New" font-size="14.00">locals</text>
<polygon fill="none" stroke="black" points="487.5,-1289.6 487.5,-1315.6 604.5,-1315.6 604.5,-1289.6 487.5,-1289.6"/>
<text text-anchor="start" x="529.5" y="-1297.3" font-family="Courier New" font-size="14.00">[:i]</text>
<polygon fill="none" stroke="black" points="337.5,-1263.6 337.5,-1289.6 487.5,-1289.6 487.5,-1263.6 337.5,-1263.6"/>
<text text-anchor="start" x="342.38" y="-1271.3" font-family="Courier New" font-size="14.00">locals_body_index</text>
<polygon fill="none" stroke="black" points="487.5,-1263.6 487.5,-1289.6 604.5,-1289.6 604.5,-1263.6 487.5,-1263.6"/>
<text text-anchor="start" x="541.88" y="-1271.3" font-family="Courier New" font-size="14.00">1</text>
<polygon fill="none" stroke="black" points="337.5,-1237.6 337.5,-1263.6 604.5,-1263.6 604.5,-1237.6 337.5,-1237.6"/>
<text text-anchor="start" x="342.5" y="-1245.3" font-family="Courier New" font-size="14.00">parameters</text>
<polygon fill="none" stroke="black" points="337.5,-1211.6 337.5,-1237.6 604.5,-1237.6 604.5,-1211.6 337.5,-1211.6"/>
<text text-anchor="start" x="342.5" y="-1219.3" font-family="Courier New" font-size="14.00">body</text>
<polygon fill="none" stroke="black" points="337.5,-1185.6 337.5,-1211.6 487.5,-1211.6 487.5,-1185.6 337.5,-1185.6"/>
<text text-anchor="start" x="342.5" y="-1193.3" font-family="Courier New" font-size="14.00">opening_loc</text>
<polygon fill="none" stroke="black" points="487.5,-1185.6 487.5,-1211.6 604.5,-1211.6 604.5,-1185.6 487.5,-1185.6"/>
<text text-anchor="start" x="492.38" y="-1193.3" font-family="Courier New" font-size="14.00">(2,17)&#45;(2,19)</text>
<polygon fill="none" stroke="black" points="337.5,-1159.6 337.5,-1185.6 487.5,-1185.6 487.5,-1159.6 337.5,-1159.6"/>
<text text-anchor="start" x="342.5" y="-1167.3" font-family="Courier New" font-size="14.00">closing_loc</text>
<polygon fill="none" stroke="black" points="487.5,-1159.6 487.5,-1185.6 604.5,-1185.6 604.5,-1159.6 487.5,-1159.6"/>
<text text-anchor="start" x="500.62" y="-1167.3" font-family="Courier New" font-size="14.00">(4,2)&#45;(4,5)</text>
</g>
<!-- Node_100&#45;&gt;Node_140 -->
<g id="edge5" class="edge">
<title>Node_100:block&#45;&gt;Node_140</title>
<path fill="none" stroke="black" d="M468,-1390.6C489.26,-1390.6 496.25,-1374.14 496.26,-1352.55"/>
<polygon fill="black" stroke="black" points="499.71,-1352.42 495.74,-1342.59 492.72,-1352.75 499.71,-1352.42"/>
</g>
<!-- Node_120_elements -->
<g id="node23" class="node">
<title>Node_120_elements</title>
<ellipse fill="#f2f2f2" stroke="black" cx="199" cy="-1058.6" rx="1.8" ry="1.8"/>
</g>
<!-- Node_120&#45;&gt;Node_120_elements -->
<g id="edge6" class="edge">
<title>Node_120:elements&#45;&gt;Node_120_elements</title>
<path fill="none" stroke="black" d="M93,-1250.6C8.09,-1250.6 152.79,-1104.5 190.41,-1067.86"/>
<polygon fill="black" stroke="black" points="192.33,-1070.91 197.1,-1061.45 187.47,-1065.87 192.33,-1070.91"/>
</g>
<!-- Node_160 -->
<g id="node5" class="node">
<title>Node_160</title>
<polygon fill="#f2f2f2" stroke="none" points="118,-918.6 0,-918.6 0,-866.6 118,-866.6 118,-918.6"/>
<polygon fill="none" stroke="black" points="0,-892.6 0,-918.6 118,-918.6 118,-892.6 0,-892.6"/>
<text text-anchor="start" x="13.62" y="-901.3" font-family="Courier New" font-weight="bold" font-size="14.00">IntegerNode</text>
<polygon fill="none" stroke="black" points="0,-866.6 0,-892.6 51,-892.6 51,-866.6 0,-866.6"/>
<text text-anchor="start" x="4.88" y="-874.3" font-family="Courier New" font-size="14.00">flags</text>
<polygon fill="none" stroke="black" points="51,-866.6 51,-892.6 118,-892.6 118,-866.6 51,-866.6"/>
<text text-anchor="start" x="55.62" y="-874.3" font-family="Courier New" font-size="14.00">decimal</text>
</g>
<!-- Node_180 -->
<g id="node6" class="node">
<title>Node_180</title>
<polygon fill="#f2f2f2" stroke="none" points="254,-918.6 136,-918.6 136,-866.6 254,-866.6 254,-918.6"/>
<polygon fill="none" stroke="black" points="136,-892.6 136,-918.6 254,-918.6 254,-892.6 136,-892.6"/>
<text text-anchor="start" x="149.62" y="-901.3" font-family="Courier New" font-weight="bold" font-size="14.00">IntegerNode</text>
<polygon fill="none" stroke="black" points="136,-866.6 136,-892.6 187,-892.6 187,-866.6 136,-866.6"/>
<text text-anchor="start" x="140.88" y="-874.3" font-family="Courier New" font-size="14.00">flags</text>
<polygon fill="none" stroke="black" points="187,-866.6 187,-892.6 254,-892.6 254,-866.6 187,-866.6"/>
<text text-anchor="start" x="191.62" y="-874.3" font-family="Courier New" font-size="14.00">decimal</text>
</g>
<!-- Node_200 -->
<g id="node7" class="node">
<title>Node_200</title>
<polygon fill="#f2f2f2" stroke="none" points="390,-918.6 272,-918.6 272,-866.6 390,-866.6 390,-918.6"/>
<polygon fill="none" stroke="black" points="272,-892.6 272,-918.6 390,-918.6 390,-892.6 272,-892.6"/>
<text text-anchor="start" x="285.62" y="-901.3" font-family="Courier New" font-weight="bold" font-size="14.00">IntegerNode</text>
<polygon fill="none" stroke="black" points="272,-866.6 272,-892.6 323,-892.6 323,-866.6 272,-866.6"/>
<text text-anchor="start" x="276.88" y="-874.3" font-family="Courier New" font-size="14.00">flags</text>
<polygon fill="none" stroke="black" points="323,-866.6 323,-892.6 390,-892.6 390,-866.6 323,-866.6"/>
<text text-anchor="start" x="327.62" y="-874.3" font-family="Courier New" font-size="14.00">decimal</text>
</g>
<!-- Node_220 -->
<g id="node9" class="node">
<title>Node_220</title>
<polygon fill="#f2f2f2" stroke="none" points="579.5,-1123.6 362.5,-1123.6 362.5,-993.6 579.5,-993.6 579.5,-1123.6"/>
<polygon fill="none" stroke="black" points="362.5,-1097.6 362.5,-1123.6 579.5,-1123.6 579.5,-1097.6 362.5,-1097.6"/>
<text text-anchor="start" x="392.62" y="-1106.3" font-family="Courier New" font-weight="bold" font-size="14.00">BlockParametersNode</text>
<polygon fill="none" stroke="black" points="362.5,-1071.6 362.5,-1097.6 579.5,-1097.6 579.5,-1071.6 362.5,-1071.6"/>
<text text-anchor="start" x="367.5" y="-1079.3" font-family="Courier New" font-size="14.00">parameters</text>
<polygon fill="none" stroke="black" points="362.5,-1045.6 362.5,-1071.6 462.5,-1071.6 462.5,-1045.6 362.5,-1045.6"/>
<text text-anchor="start" x="367.5" y="-1053.3" font-family="Courier New" font-size="14.00">locals</text>
<polygon fill="none" stroke="black" points="462.5,-1045.6 462.5,-1071.6 579.5,-1071.6 579.5,-1045.6 462.5,-1045.6"/>
<text text-anchor="start" x="512.75" y="-1053.3" font-family="Courier New" font-size="14.00">[]</text>
<polygon fill="none" stroke="black" points="362.5,-1019.6 362.5,-1045.6 462.5,-1045.6 462.5,-1019.6 362.5,-1019.6"/>
<text text-anchor="start" x="367.12" y="-1027.3" font-family="Courier New" font-size="14.00">opening_loc</text>
<polygon fill="none" stroke="black" points="462.5,-1019.6 462.5,-1045.6 579.5,-1045.6 579.5,-1019.6 462.5,-1019.6"/>
<text text-anchor="start" x="467.38" y="-1027.3" font-family="Courier New" font-size="14.00">(2,20)&#45;(2,21)</text>
<polygon fill="none" stroke="black" points="362.5,-993.6 362.5,-1019.6 462.5,-1019.6 462.5,-993.6 362.5,-993.6"/>
<text text-anchor="start" x="367.12" y="-1001.3" font-family="Courier New" font-size="14.00">closing_loc</text>
<polygon fill="none" stroke="black" points="462.5,-993.6 462.5,-1019.6 579.5,-1019.6 579.5,-993.6 462.5,-993.6"/>
<text text-anchor="start" x="467.38" y="-1001.3" font-family="Courier New" font-size="14.00">(2,22)&#45;(2,23)</text>
</g>
<!-- Node_140&#45;&gt;Node_220 -->
<g id="edge10" class="edge">
<title>Node_140:parameters&#45;&gt;Node_220</title>
<path fill="none" stroke="black" d="M606,-1250.6C646.45,-1250.6 623.33,-1195.65 605,-1159.6 599.81,-1149.4 593.04,-1139.97 585.31,-1131.31"/>
<polygon fill="black" stroke="black" points="588.37,-1129.4 578.94,-1124.58 583.3,-1134.23 588.37,-1129.4"/>
</g>
<!-- Node_240 -->
<g id="node12" class="node">
<title>Node_240</title>
<polygon fill="#f2f2f2" stroke="none" points="726.5,-1084.6 601.5,-1084.6 601.5,-1032.6 726.5,-1032.6 726.5,-1084.6"/>
<polygon fill="none" stroke="black" points="601.5,-1058.6 601.5,-1084.6 726.5,-1084.6 726.5,-1058.6 601.5,-1058.6"/>
<text text-anchor="start" x="606.25" y="-1067.3" font-family="Courier New" font-weight="bold" font-size="14.00">StatementsNode</text>
<polygon fill="none" stroke="black" points="601.5,-1032.6 601.5,-1058.6 726.5,-1058.6 726.5,-1032.6 601.5,-1032.6"/>
<text text-anchor="start" x="606.5" y="-1040.3" font-family="Courier New" font-size="14.00">body</text>
</g>
<!-- Node_140&#45;&gt;Node_240 -->
<g id="edge11" class="edge">
<title>Node_140:body&#45;&gt;Node_240</title>
<path fill="none" stroke="black" d="M606,-1224.6C660.39,-1224.6 667.06,-1143.81 666.16,-1095.29"/>
<polygon fill="black" stroke="black" points="669.63,-1095.19 665.82,-1085.3 662.64,-1095.41 669.63,-1095.19"/>
</g>
<!-- Node_260 -->
<g id="node10" class="node">
<title>Node_260</title>
<polygon fill="#f2f2f2" stroke="none" points="533.5,-957.6 408.5,-957.6 408.5,-827.6 533.5,-827.6 533.5,-957.6"/>
<polygon fill="none" stroke="black" points="408.5,-931.6 408.5,-957.6 533.5,-957.6 533.5,-931.6 408.5,-931.6"/>
<text text-anchor="start" x="413.25" y="-940.3" font-family="Courier New" font-weight="bold" font-size="14.00">ParametersNode</text>
<polygon fill="none" stroke="black" points="408.5,-905.6 408.5,-931.6 533.5,-931.6 533.5,-905.6 408.5,-905.6"/>
<text text-anchor="start" x="413.5" y="-913.3" font-family="Courier New" font-size="14.00">requireds</text>
<polygon fill="none" stroke="black" points="408.5,-879.6 408.5,-905.6 499.5,-905.6 499.5,-879.6 408.5,-879.6"/>
<text text-anchor="start" x="413.5" y="-887.3" font-family="Courier New" font-size="14.00">optionals</text>
<polygon fill="none" stroke="black" points="499.5,-879.6 499.5,-905.6 533.5,-905.6 533.5,-879.6 499.5,-879.6"/>
<text text-anchor="start" x="508.25" y="-887.3" font-family="Courier New" font-size="14.00">[]</text>
<polygon fill="none" stroke="black" points="408.5,-853.6 408.5,-879.6 499.5,-879.6 499.5,-853.6 408.5,-853.6"/>
<text text-anchor="start" x="413.5" y="-861.3" font-family="Courier New" font-size="14.00">posts</text>
<polygon fill="none" stroke="black" points="499.5,-853.6 499.5,-879.6 533.5,-879.6 533.5,-853.6 499.5,-853.6"/>
<text text-anchor="start" x="508.25" y="-861.3" font-family="Courier New" font-size="14.00">[]</text>
<polygon fill="none" stroke="black" points="408.5,-827.6 408.5,-853.6 499.5,-853.6 499.5,-827.6 408.5,-827.6"/>
<text text-anchor="start" x="413.5" y="-835.3" font-family="Courier New" font-size="14.00">keywords</text>
<polygon fill="none" stroke="black" points="499.5,-827.6 499.5,-853.6 533.5,-853.6 533.5,-827.6 499.5,-827.6"/>
<text text-anchor="start" x="508.25" y="-835.3" font-family="Courier New" font-size="14.00">[]</text>
</g>
<!-- Node_220&#45;&gt;Node_260 -->
<g id="edge12" class="edge">
<title>Node_220:parameters&#45;&gt;Node_260</title>
<path fill="none" stroke="black" d="M581,-1084.6C601.22,-1084.6 588.24,-1012.07 580,-993.6 571.4,-974.33 557.09,-957.12 541.62,-942.65"/>
<polygon fill="black" stroke="black" points="544.24,-940.39 534.45,-936.33 539.57,-945.61 544.24,-940.39"/>
</g>
<!-- Node_260_requireds -->
<g id="node24" class="node">
<title>Node_260_requireds</title>
<ellipse fill="#f2f2f2" stroke="black" cx="469" cy="-739.6" rx="1.8" ry="1.8"/>
</g>
<!-- Node_260&#45;&gt;Node_260_requireds -->
<g id="edge13" class="edge">
<title>Node_260:requireds&#45;&gt;Node_260_requireds</title>
<path fill="none" stroke="black" d="M407,-918.6C396.89,-918.6 404.9,-837.23 408,-827.6 418.62,-794.58 446.56,-763.12 460.64,-748.75"/>
<polygon fill="black" stroke="black" points="462.49,-751.85 467.19,-742.35 457.59,-746.85 462.49,-751.85"/>
</g>
<!-- Node_280 -->
<g id="node11" class="node">
<title>Node_280</title>
<polygon fill="#f2f2f2" stroke="none" points="558.5,-599.6 375.5,-599.6 375.5,-547.6 558.5,-547.6 558.5,-599.6"/>
<polygon fill="none" stroke="black" points="375.5,-573.6 375.5,-599.6 558.5,-599.6 558.5,-573.6 375.5,-573.6"/>
<text text-anchor="start" x="380.38" y="-582.3" font-family="Courier New" font-weight="bold" font-size="14.00">RequiredParameterNode</text>
<polygon fill="none" stroke="black" points="375.5,-547.6 375.5,-573.6 475.5,-573.6 475.5,-547.6 375.5,-547.6"/>
<text text-anchor="start" x="380.5" y="-555.3" font-family="Courier New" font-size="14.00">name</text>
<polygon fill="none" stroke="black" points="475.5,-547.6 475.5,-573.6 558.5,-573.6 558.5,-547.6 475.5,-547.6"/>
<text text-anchor="start" x="508.75" y="-555.3" font-family="Courier New" font-size="14.00">:i</text>
</g>
<!-- Node_240_body -->
<g id="node25" class="node">
<title>Node_240_body</title>
<ellipse fill="#f2f2f2" stroke="black" cx="671" cy="-892.6" rx="1.8" ry="1.8"/>
</g>
<!-- Node_240&#45;&gt;Node_240_body -->
<g id="edge15" class="edge">
<title>Node_240:body&#45;&gt;Node_240_body</title>
<path fill="none" stroke="black" d="M664,-1031.6C664,-984.99 668.03,-929.63 669.98,-905.66"/>
<polygon fill="black" stroke="black" points="673.55,-905.96 670.9,-895.7 666.57,-905.37 673.55,-905.96"/>
</g>
<!-- Node_300 -->
<g id="node13" class="node">
<title>Node_300</title>
<polygon fill="#f2f2f2" stroke="none" points="806,-791.6 564,-791.6 564,-687.6 806,-687.6 806,-791.6"/>
<polygon fill="none" stroke="black" points="564,-765.6 564,-791.6 806,-791.6 806,-765.6 564,-765.6"/>
<text text-anchor="start" x="660.25" y="-774.3" font-family="Courier New" font-weight="bold" font-size="14.00">IfNode</text>
<polygon fill="none" stroke="black" points="564,-739.6 564,-765.6 689,-765.6 689,-739.6 564,-739.6"/>
<text text-anchor="start" x="568.75" y="-747.3" font-family="Courier New" font-size="14.00">if_keyword_loc</text>
<polygon fill="none" stroke="black" points="689,-739.6 689,-765.6 806,-765.6 806,-739.6 689,-739.6"/>
<text text-anchor="start" x="693.88" y="-747.3" font-family="Courier New" font-size="14.00">(3,13)&#45;(3,15)</text>
<polygon fill="none" stroke="black" points="564,-713.6 564,-739.6 806,-739.6 806,-713.6 564,-713.6"/>
<text text-anchor="start" x="569" y="-721.3" font-family="Courier New" font-size="14.00">predicate</text>
<polygon fill="none" stroke="black" points="564,-687.6 564,-713.6 806,-713.6 806,-687.6 564,-687.6"/>
<text text-anchor="start" x="569" y="-695.3" font-family="Courier New" font-size="14.00">statements</text>
</g>
<!-- Node_320 -->
<g id="node14" class="node">
<title>Node_320</title>
<polygon fill="#f2f2f2" stroke="none" points="793.5,-651.6 576.5,-651.6 576.5,-495.6 793.5,-495.6 793.5,-651.6"/>
<polygon fill="none" stroke="black" points="576.5,-625.6 576.5,-651.6 793.5,-651.6 793.5,-625.6 576.5,-625.6"/>
<text text-anchor="start" x="652" y="-634.3" font-family="Courier New" font-weight="bold" font-size="14.00">CallNode</text>
<polygon fill="none" stroke="black" points="576.5,-599.6 576.5,-625.6 676.5,-625.6 676.5,-599.6 576.5,-599.6"/>
<text text-anchor="start" x="581.5" y="-607.3" font-family="Courier New" font-size="14.00">flags</text>
<polygon fill="none" stroke="black" points="676.5,-599.6 676.5,-625.6 793.5,-625.6 793.5,-599.6 676.5,-599.6"/>
<polygon fill="none" stroke="black" points="576.5,-573.6 576.5,-599.6 793.5,-599.6 793.5,-573.6 576.5,-573.6"/>
<text text-anchor="start" x="581.5" y="-581.3" font-family="Courier New" font-size="14.00">receiver</text>
<polygon fill="none" stroke="black" points="576.5,-547.6 576.5,-573.6 676.5,-573.6 676.5,-547.6 576.5,-547.6"/>
<text text-anchor="start" x="581.5" y="-555.3" font-family="Courier New" font-size="14.00">name</text>
<polygon fill="none" stroke="black" points="676.5,-547.6 676.5,-573.6 793.5,-573.6 793.5,-547.6 676.5,-547.6"/>
<text text-anchor="start" x="722.62" y="-555.3" font-family="Courier New" font-size="14.00">:==</text>
<polygon fill="none" stroke="black" points="576.5,-521.6 576.5,-547.6 676.5,-547.6 676.5,-521.6 576.5,-521.6"/>
<text text-anchor="start" x="581.12" y="-529.3" font-family="Courier New" font-size="14.00">message_loc</text>
<polygon fill="none" stroke="black" points="676.5,-521.6 676.5,-547.6 793.5,-547.6 793.5,-521.6 676.5,-521.6"/>
<text text-anchor="start" x="681.38" y="-529.3" font-family="Courier New" font-size="14.00">(3,18)&#45;(3,20)</text>
<polygon fill="none" stroke="black" points="576.5,-495.6 576.5,-521.6 793.5,-521.6 793.5,-495.6 576.5,-495.6"/>
<text text-anchor="start" x="581.5" y="-503.3" font-family="Courier New" font-size="14.00">arguments</text>
</g>
<!-- Node_300&#45;&gt;Node_320 -->
<g id="edge17" class="edge">
<title>Node_300:predicate&#45;&gt;Node_320</title>
<path fill="none" stroke="black" d="M807,-726.6C847.12,-726.6 823.91,-693.99 787.42,-658.99"/>
<polygon fill="black" stroke="black" points="790.13,-656.79 780.45,-652.49 785.34,-661.89 790.13,-656.79"/>
</g>
<!-- Node_340 -->
<g id="node18" class="node">
<title>Node_340</title>
<polygon fill="#f2f2f2" stroke="none" points="936.5,-599.6 811.5,-599.6 811.5,-547.6 936.5,-547.6 936.5,-599.6"/>
<polygon fill="none" stroke="black" points="811.5,-573.6 811.5,-599.6 936.5,-599.6 936.5,-573.6 811.5,-573.6"/>
<text text-anchor="start" x="816.25" y="-582.3" font-family="Courier New" font-weight="bold" font-size="14.00">StatementsNode</text>
<polygon fill="none" stroke="black" points="811.5,-547.6 811.5,-573.6 936.5,-573.6 936.5,-547.6 811.5,-547.6"/>
<text text-anchor="start" x="816.5" y="-555.3" font-family="Courier New" font-size="14.00">body</text>
</g>
<!-- Node_300&#45;&gt;Node_340 -->
<g id="edge18" class="edge">
<title>Node_300:statements&#45;&gt;Node_340</title>
<path fill="none" stroke="black" d="M807,-700.6C848.27,-700.6 864.2,-647.26 870.29,-609.99"/>
<polygon fill="black" stroke="black" points="873.84,-610.89 871.82,-600.49 866.92,-609.88 873.84,-610.89"/>
</g>
<!-- Node_360 -->
<g id="node15" class="node">
<title>Node_360</title>
<polygon fill="#f2f2f2" stroke="none" points="635.5,-459.6 452.5,-459.6 452.5,-381.6 635.5,-381.6 635.5,-459.6"/>
<polygon fill="none" stroke="black" points="452.5,-433.6 452.5,-459.6 635.5,-459.6 635.5,-433.6 452.5,-433.6"/>
<text text-anchor="start" x="457.38" y="-442.3" font-family="Courier New" font-weight="bold" font-size="14.00">LocalVariableReadNode</text>
<polygon fill="none" stroke="black" points="452.5,-407.6 452.5,-433.6 556.5,-433.6 556.5,-407.6 452.5,-407.6"/>
<text text-anchor="start" x="457.5" y="-415.3" font-family="Courier New" font-size="14.00">name</text>
<polygon fill="none" stroke="black" points="556.5,-407.6 556.5,-433.6 635.5,-433.6 635.5,-407.6 556.5,-407.6"/>
<text text-anchor="start" x="587.75" y="-415.3" font-family="Courier New" font-size="14.00">:i</text>
<polygon fill="none" stroke="black" points="452.5,-381.6 452.5,-407.6 556.5,-407.6 556.5,-381.6 452.5,-381.6"/>
<text text-anchor="start" x="457.5" y="-389.3" font-family="Courier New" font-size="14.00">depth</text>
<polygon fill="none" stroke="black" points="556.5,-381.6 556.5,-407.6 635.5,-407.6 635.5,-381.6 556.5,-381.6"/>
<text text-anchor="start" x="591.88" y="-389.3" font-family="Courier New" font-size="14.00">0</text>
</g>
<!-- Node_320&#45;&gt;Node_360 -->
<g id="edge19" class="edge">
<title>Node_320:receiver&#45;&gt;Node_360</title>
<path fill="none" stroke="black" d="M575,-586.6C564.85,-586.6 568.96,-505.56 567,-495.6 565.32,-487.06 563.02,-478.11 560.52,-469.5"/>
<polygon fill="black" stroke="black" points="563.65,-468.78 557.4,-460.23 556.95,-470.81 563.65,-468.78"/>
</g>
<!-- Node_380 -->
<g id="node16" class="node">
<title>Node_380</title>
<polygon fill="#f2f2f2" stroke="none" points="770.5,-459.6 653.5,-459.6 653.5,-381.6 770.5,-381.6 770.5,-459.6"/>
<polygon fill="none" stroke="black" points="653.5,-433.6 653.5,-459.6 770.5,-459.6 770.5,-433.6 653.5,-433.6"/>
<text text-anchor="start" x="658.38" y="-442.3" font-family="Courier New" font-weight="bold" font-size="14.00">ArgumentsNode</text>
<polygon fill="none" stroke="black" points="653.5,-407.6 653.5,-433.6 732.5,-433.6 732.5,-407.6 653.5,-407.6"/>
<text text-anchor="start" x="658.5" y="-415.3" font-family="Courier New" font-size="14.00">flags</text>
<polygon fill="none" stroke="black" points="732.5,-407.6 732.5,-433.6 770.5,-433.6 770.5,-407.6 732.5,-407.6"/>
<polygon fill="none" stroke="black" points="653.5,-381.6 653.5,-407.6 770.5,-407.6 770.5,-381.6 653.5,-381.6"/>
<text text-anchor="start" x="658.5" y="-389.3" font-family="Courier New" font-size="14.00">arguments</text>
</g>
<!-- Node_320&#45;&gt;Node_380 -->
<g id="edge20" class="edge">
<title>Node_320:arguments&#45;&gt;Node_380</title>
<path fill="none" stroke="black" d="M685,-495.6C685,-487.04 686.61,-478.25 689.05,-469.84"/>
<polygon fill="black" stroke="black" points="692.67,-471.04 692.52,-460.45 686.03,-468.83 692.67,-471.04"/>
</g>
<!-- Node_380_arguments -->
<g id="node26" class="node">
<title>Node_380_arguments</title>
<ellipse fill="#f2f2f2" stroke="black" cx="712" cy="-306.6" rx="1.8" ry="1.8"/>
</g>
<!-- Node_380&#45;&gt;Node_380_arguments -->
<g id="edge21" class="edge">
<title>Node_380:arguments&#45;&gt;Node_380_arguments</title>
<path fill="none" stroke="black" d="M712,-381.6C712,-359.71 712,-334.18 712,-319.55"/>
<polygon fill="black" stroke="black" points="715.5,-319.64 712,-309.64 708.5,-319.64 715.5,-319.64"/>
</g>
<!-- Node_400 -->
<g id="node17" class="node">
<title>Node_400</title>
<polygon fill="#f2f2f2" stroke="none" points="771,-218.6 653,-218.6 653,-166.6 771,-166.6 771,-218.6"/>
<polygon fill="none" stroke="black" points="653,-192.6 653,-218.6 771,-218.6 771,-192.6 653,-192.6"/>
<text text-anchor="start" x="666.62" y="-201.3" font-family="Courier New" font-weight="bold" font-size="14.00">IntegerNode</text>
<polygon fill="none" stroke="black" points="653,-166.6 653,-192.6 704,-192.6 704,-166.6 653,-166.6"/>
<text text-anchor="start" x="657.88" y="-174.3" font-family="Courier New" font-size="14.00">flags</text>
<polygon fill="none" stroke="black" points="704,-166.6 704,-192.6 771,-192.6 771,-166.6 704,-166.6"/>
<text text-anchor="start" x="708.62" y="-174.3" font-family="Courier New" font-size="14.00">decimal</text>
</g>
<!-- Node_340_body -->
<g id="node27" class="node">
<title>Node_340_body</title>
<ellipse fill="#f2f2f2" stroke="black" cx="874" cy="-420.6" rx="1.8" ry="1.8"/>
</g>
<!-- Node_340&#45;&gt;Node_340_body -->
<g id="edge23" class="edge">
<title>Node_340:body&#45;&gt;Node_340_body</title>
<path fill="none" stroke="black" d="M874,-546.6C874,-505.19 874,-456.06 874,-433.73"/>
<polygon fill="black" stroke="black" points="877.5,-433.83 874,-423.83 870.5,-433.83 877.5,-433.83"/>
</g>
<!-- Node_420 -->
<g id="node19" class="node">
<title>Node_420</title>
<polygon fill="#f2f2f2" stroke="none" points="978.5,-345.6 769.5,-345.6 769.5,-267.6 978.5,-267.6 978.5,-345.6"/>
<polygon fill="none" stroke="black" points="769.5,-319.6 769.5,-345.6 978.5,-345.6 978.5,-319.6 769.5,-319.6"/>
<text text-anchor="start" x="832.75" y="-328.3" font-family="Courier New" font-weight="bold" font-size="14.00">ReturnNode</text>
<polygon fill="none" stroke="black" points="769.5,-293.6 769.5,-319.6 869.5,-319.6 869.5,-293.6 769.5,-293.6"/>
<text text-anchor="start" x="774.12" y="-301.3" font-family="Courier New" font-size="14.00">keyword_loc</text>
<polygon fill="none" stroke="black" points="869.5,-293.6 869.5,-319.6 978.5,-319.6 978.5,-293.6 869.5,-293.6"/>
<text text-anchor="start" x="874.5" y="-301.3" font-family="Courier New" font-size="14.00">(3,4)&#45;(3,10)</text>
<polygon fill="none" stroke="black" points="769.5,-267.6 769.5,-293.6 978.5,-293.6 978.5,-267.6 769.5,-267.6"/>
<text text-anchor="start" x="774.5" y="-275.3" font-family="Courier New" font-size="14.00">arguments</text>
</g>
<!-- Node_440 -->
<g id="node20" class="node">
<title>Node_440</title>
<polygon fill="#f2f2f2" stroke="none" points="932.5,-231.6 815.5,-231.6 815.5,-153.6 932.5,-153.6 932.5,-231.6"/>
<polygon fill="none" stroke="black" points="815.5,-205.6 815.5,-231.6 932.5,-231.6 932.5,-205.6 815.5,-205.6"/>
<text text-anchor="start" x="820.38" y="-214.3" font-family="Courier New" font-weight="bold" font-size="14.00">ArgumentsNode</text>
<polygon fill="none" stroke="black" points="815.5,-179.6 815.5,-205.6 894.5,-205.6 894.5,-179.6 815.5,-179.6"/>
<text text-anchor="start" x="820.5" y="-187.3" font-family="Courier New" font-size="14.00">flags</text>
<polygon fill="none" stroke="black" points="894.5,-179.6 894.5,-205.6 932.5,-205.6 932.5,-179.6 894.5,-179.6"/>
<polygon fill="none" stroke="black" points="815.5,-153.6 815.5,-179.6 932.5,-179.6 932.5,-153.6 815.5,-153.6"/>
<text text-anchor="start" x="820.5" y="-161.3" font-family="Courier New" font-size="14.00">arguments</text>
</g>
<!-- Node_420&#45;&gt;Node_440 -->
<g id="edge25" class="edge">
<title>Node_420:arguments&#45;&gt;Node_440</title>
<path fill="none" stroke="black" d="M874,-267.6C874,-259.38 874,-250.65 874,-242.17"/>
<polygon fill="black" stroke="black" points="877.5,-242.25 874,-232.25 870.5,-242.25 877.5,-242.25"/>
</g>
<!-- Node_440_arguments -->
<g id="node28" class="node">
<title>Node_440_arguments</title>
<ellipse fill="#f2f2f2" stroke="black" cx="874" cy="-115.8" rx="1.8" ry="1.8"/>
</g>
<!-- Node_440&#45;&gt;Node_440_arguments -->
<g id="edge26" class="edge">
<title>Node_440:arguments&#45;&gt;Node_440_arguments</title>
<path fill="none" stroke="black" d="M874,-153.6C874,-145.36 874,-136.09 874,-128.91"/>
<polygon fill="black" stroke="black" points="877.5,-128.94 874,-118.94 870.5,-128.94 877.5,-128.94"/>
</g>
<!-- Node_460 -->
<g id="node21" class="node">
<title>Node_460</title>
<polygon fill="#f2f2f2" stroke="none" points="965.5,-78 782.5,-78 782.5,0 965.5,0 965.5,-78"/>
<polygon fill="none" stroke="black" points="782.5,-52 782.5,-78 965.5,-78 965.5,-52 782.5,-52"/>
<text text-anchor="start" x="787.38" y="-60.7" font-family="Courier New" font-weight="bold" font-size="14.00">LocalVariableReadNode</text>
<polygon fill="none" stroke="black" points="782.5,-26 782.5,-52 886.5,-52 886.5,-26 782.5,-26"/>
<text text-anchor="start" x="787.5" y="-33.7" font-family="Courier New" font-size="14.00">name</text>
<polygon fill="none" stroke="black" points="886.5,-26 886.5,-52 965.5,-52 965.5,-26 886.5,-26"/>
<text text-anchor="start" x="917.75" y="-33.7" font-family="Courier New" font-size="14.00">:i</text>
<polygon fill="none" stroke="black" points="782.5,0 782.5,-26 886.5,-26 886.5,0 782.5,0"/>
<text text-anchor="start" x="787.5" y="-7.7" font-family="Courier New" font-size="14.00">depth</text>
<polygon fill="none" stroke="black" points="886.5,0 886.5,-26 965.5,-26 965.5,0 886.5,0"/>
<text text-anchor="start" x="921.88" y="-7.7" font-family="Courier New" font-size="14.00">0</text>
</g>
<!-- Node_80_body&#45;&gt;Node_100 -->
<g id="edge3" class="edge">
<title>Node_80_body&#45;&gt;Node_100</title>
<path fill="none" stroke="black" d="M333,-1595.59C333,-1592.81 333,-1583.12 333,-1570.25"/>
<polygon fill="black" stroke="black" points="336.5,-1570.32 333,-1560.32 329.5,-1570.32 336.5,-1570.32"/>
</g>
<!-- Node_120_elements&#45;&gt;Node_160 -->
<g id="edge7" class="edge">
<title>Node_120_elements&#45;&gt;Node_160</title>
<path fill="none" stroke="black" d="M198.11,-1056.55C189.79,-1046.81 125.44,-971.44 87.24,-926.69"/>
<polygon fill="black" stroke="black" points="89.36,-924.77 80.21,-919.44 84.04,-929.32 89.36,-924.77"/>
</g>
<!-- Node_120_elements&#45;&gt;Node_180 -->
<g id="edge8" class="edge">
<title>Node_120_elements&#45;&gt;Node_180</title>
<path fill="none" stroke="black" d="M198.97,-1056.55C198.74,-1047 196.97,-974.23 195.87,-929.23"/>
<polygon fill="black" stroke="black" points="199.35,-929.35 195.61,-919.44 192.35,-929.52 199.35,-929.35"/>
</g>
<!-- Node_120_elements&#45;&gt;Node_200 -->
<g id="edge9" class="edge">
<title>Node_120_elements&#45;&gt;Node_200</title>
<path fill="none" stroke="black" d="M199.84,-1056.55C207.67,-1046.83 268.1,-971.75 304.14,-926.97"/>
<polygon fill="black" stroke="black" points="307.46,-929.43 311.01,-919.44 302.01,-925.04 307.46,-929.43"/>
</g>
<!-- Node_260_requireds&#45;&gt;Node_280 -->
<g id="edge14" class="edge">
<title>Node_260_requireds&#45;&gt;Node_280</title>
<path fill="none" stroke="black" d="M468.99,-737.55C468.87,-728 467.98,-655.23 467.43,-610.23"/>
<polygon fill="black" stroke="black" points="470.92,-610.4 467.3,-600.44 463.93,-610.48 470.92,-610.4"/>
</g>
<!-- Node_240_body&#45;&gt;Node_300 -->
<g id="edge16" class="edge">
<title>Node_240_body&#45;&gt;Node_300</title>
<path fill="none" stroke="black" d="M671.09,-890.64C671.73,-883.68 675.75,-840.35 679.3,-802.03"/>
<polygon fill="black" stroke="black" points="682.85,-802.67 680.29,-792.39 675.88,-802.02 682.85,-802.67"/>
</g>
<!-- Node_380_arguments&#45;&gt;Node_400 -->
<g id="edge22" class="edge">
<title>Node_380_arguments&#45;&gt;Node_400</title>
<path fill="none" stroke="black" d="M712,-304.34C712,-296.97 712,-258.67 712,-229.15"/>
<polygon fill="black" stroke="black" points="715.5,-229.35 712,-219.35 708.5,-229.35 715.5,-229.35"/>
</g>
<!-- Node_340_body&#45;&gt;Node_420 -->
<g id="edge24" class="edge">
<title>Node_340_body&#45;&gt;Node_420</title>
<path fill="none" stroke="black" d="M874,-418.34C874,-412.03 874,-383.02 874,-356.28"/>
<polygon fill="black" stroke="black" points="877.5,-356.42 874,-346.42 870.5,-356.42 877.5,-356.42"/>
</g>
<!-- Node_440_arguments&#45;&gt;Node_460 -->
<g id="edge27" class="edge">
<title>Node_440_arguments&#45;&gt;Node_460</title>
<path fill="none" stroke="black" d="M874,-113.5C874,-110.06 874,-100.15 874,-88.69"/>
<polygon fill="black" stroke="black" points="877.5,-88.87 874,-78.87 870.5,-88.87 877.5,-88.87"/>
</g>
</g>
</svg>
