<?xml version="1.0" encoding="UTF-8" standalone="no"?>
<!DOCTYPE svg PUBLIC "-//W3C//DTD SVG 1.1//EN"
 "http://www.w3.org/Graphics/SVG/1.1/DTD/svg11.dtd">
<!-- Generated by graphviz version 8.1.0 (20230707.0739)
 -->
<!-- Title: Prism Pages: 1 -->
<svg width="400pt" height="454pt"
 viewBox="0.00 0.00 399.50 454.00" xmlns="http://www.w3.org/2000/svg" xmlns:xlink="http://www.w3.org/1999/xlink">
<g id="graph0" class="graph" transform="scale(1 1) rotate(0) translate(4 450)">
<title>Prism</title>
<polygon fill="white" stroke="none" points="-4,4 -4,-450 395.5,-450 395.5,4 -4,4"/>
<!-- Node_60 -->
<g id="node1" class="node">
<title>Node_60</title>
<polygon fill="#f2f2f2" stroke="none" points="346.5,-446 121.5,-446 121.5,-342 346.5,-342 346.5,-446"/>
<polygon fill="none" stroke="black" points="121.5,-420 121.5,-446 346.5,-446 346.5,-420 121.5,-420"/>
<text text-anchor="start" x="209.25" y="-428.7" font-family="Courier New" font-weight="bold" font-size="14.00">IfNode</text>
<polygon fill="none" stroke="black" points="121.5,-394 121.5,-420 246.5,-420 246.5,-394 121.5,-394"/>
<text text-anchor="start" x="126.25" y="-401.7" font-family="Courier New" font-size="14.00">if_keyword_loc</text>
<polygon fill="none" stroke="black" points="246.5,-394 246.5,-420 346.5,-420 346.5,-394 246.5,-394"/>
<text text-anchor="start" x="251.12" y="-401.7" font-family="Courier New" font-size="14.00">(1,2)&#45;(1,4)</text>
<polygon fill="none" stroke="black" points="121.5,-368 121.5,-394 346.5,-394 346.5,-368 121.5,-368"/>
<text text-anchor="start" x="126.5" y="-375.7" font-family="Courier New" font-size="14.00">predicate</text>
<polygon fill="none" stroke="black" points="121.5,-342 121.5,-368 346.5,-368 346.5,-342 121.5,-342"/>
<text text-anchor="start" x="126.5" y="-349.7" font-family="Courier New" font-size="14.00">statements</text>
</g>
<!-- Node_80 -->
<g id="node2" class="node">
<title>Node_80</title>
<polygon fill="#f2f2f2" stroke="none" points="248,-306 30,-306 30,-176 248,-176 248,-306"/>
<polygon fill="none" stroke="black" points="30,-280 30,-306 248,-306 248,-280 30,-280"/>
<text text-anchor="start" x="89.5" y="-288.7" font-family="Courier New" font-weight="bold" font-size="14.00">FlipFlopNode</text>
<polygon fill="none" stroke="black" points="30,-254 30,-280 139,-280 139,-254 30,-254"/>
<text text-anchor="start" x="35" y="-261.7" font-family="Courier New" font-size="14.00">flags</text>
<polygon fill="none" stroke="black" points="139,-254 139,-280 248,-280 248,-254 139,-254"/>
<text text-anchor="start" x="148.12" y="-261.7" font-family="Courier New" font-size="14.00">exclude_end</text>
<polygon fill="none" stroke="black" points="30,-228 30,-254 248,-254 248,-228 30,-228"/>
<text text-anchor="start" x="35" y="-235.7" font-family="Courier New" font-size="14.00">left</text>
<polygon fill="none" stroke="black" points="30,-202 30,-228 248,-228 248,-202 30,-202"/>
<text text-anchor="start" x="35" y="-209.7" font-family="Courier New" font-size="14.00">right</text>
<polygon fill="none" stroke="black" points="30,-176 30,-202 139,-202 139,-176 30,-176"/>
<text text-anchor="start" x="35" y="-183.7" font-family="Courier New" font-size="14.00">operator_loc</text>
<polygon fill="none" stroke="black" points="139,-176 139,-202 248,-202 248,-176 139,-176"/>
<text text-anchor="start" x="144" y="-183.7" font-family="Courier New" font-size="14.00">(1,7)&#45;(1,10)</text>
</g>
<!-- Node_60&#45;&gt;Node_80 -->
<g id="edge1" class="edge">
<title>Node_60:predicate&#45;&gt;Node_80</title>
<path fill="none" stroke="black" d="M120,-381C90.2,-381 93.22,-349.25 104.5,-316.1"/>
<polygon fill="black" stroke="black" points="108.12,-317.4 108.24,-306.8 101.54,-315.01 108.12,-317.4"/>
</g>
<!-- Node_100 -->
<g id="node5" class="node">
<title>Node_100</title>
<polygon fill="#f2f2f2" stroke="none" points="391.5,-267 266.5,-267 266.5,-215 391.5,-215 391.5,-267"/>
<polygon fill="none" stroke="black" points="266.5,-241 266.5,-267 391.5,-267 391.5,-241 266.5,-241"/>
<text text-anchor="start" x="271.25" y="-249.7" font-family="Courier New" font-weight="bold" font-size="14.00">StatementsNode</text>
<polygon fill="none" stroke="black" points="266.5,-215 266.5,-241 391.5,-241 391.5,-215 266.5,-215"/>
<text text-anchor="start" x="271.5" y="-222.7" font-family="Courier New" font-size="14.00">body</text>
</g>
<!-- Node_60&#45;&gt;Node_100 -->
<g id="edge2" class="edge">
<title>Node_60:statements&#45;&gt;Node_100</title>
<path fill="none" stroke="black" d="M348,-355C380.32,-355 363.97,-309.49 347.7,-276.23"/>
<polygon fill="black" stroke="black" points="350.57,-275.15 342.93,-267.8 344.32,-278.3 350.57,-275.15"/>
</g>
<!-- Node_120 -->
<g id="node3" class="node">
<title>Node_120</title>
<polygon fill="#f2f2f2" stroke="none" points="118,-140 0,-140 0,-88 118,-88 118,-140"/>
<polygon fill="none" stroke="black" points="0,-114 0,-140 118,-140 118,-114 0,-114"/>
<text text-anchor="start" x="13.62" y="-122.7" font-family="Courier New" font-weight="bold" font-size="14.00">IntegerNode</text>
<polygon fill="none" stroke="black" points="0,-88 0,-114 51,-114 51,-88 0,-88"/>
<text text-anchor="start" x="4.88" y="-95.7" font-family="Courier New" font-size="14.00">flags</text>
<polygon fill="none" stroke="black" points="51,-88 51,-114 118,-114 118,-88 51,-88"/>
<text text-anchor="start" x="55.62" y="-95.7" font-family="Courier New" font-size="14.00">decimal</text>
</g>
<!-- Node_80&#45;&gt;Node_120 -->
<g id="edge3" class="edge">
<title>Node_80:left&#45;&gt;Node_120</title>
<path fill="none" stroke="black" d="M29,-241C-8.94,-241 16.16,-186.28 37.68,-148.96"/>
<polygon fill="black" stroke="black" points="40.96,-151.28 43.03,-140.89 34.94,-147.73 40.96,-151.28"/>
</g>
<!-- Node_140 -->
<g id="node4" class="node">
<title>Node_140</title>
<polygon fill="#f2f2f2" stroke="none" points="254,-140 136,-140 136,-88 254,-88 254,-140"/>
<polygon fill="none" stroke="black" points="136,-114 136,-140 254,-140 254,-114 136,-114"/>
<text text-anchor="start" x="149.62" y="-122.7" font-family="Courier New" font-weight="bold" font-size="14.00">IntegerNode</text>
<polygon fill="none" stroke="black" points="136,-88 136,-114 187,-114 187,-88 136,-88"/>
<text text-anchor="start" x="140.88" y="-95.7" font-family="Courier New" font-size="14.00">flags</text>
<polygon fill="none" stroke="black" points="187,-88 187,-114 254,-114 254,-88 187,-88"/>
<text text-anchor="start" x="191.62" y="-95.7" font-family="Courier New" font-size="14.00">decimal</text>
</g>
<!-- Node_80&#45;&gt;Node_140 -->
<g id="edge4" class="edge">
<title>Node_80:right&#45;&gt;Node_140</title>
<path fill="none" stroke="black" d="M249,-215C257.67,-215 251.14,-184.08 248,-176 244.08,-165.9 237.69,-156.34 230.7,-147.91"/>
<polygon fill="black" stroke="black" points="233.82,-146.03 224.56,-140.89 228.59,-150.69 233.82,-146.03"/>
</g>
<!-- Node_100_body -->
<g id="node7" class="node">
<title>Node_100_body</title>
<ellipse fill="#f2f2f2" stroke="black" cx="329" cy="-114" rx="1.8" ry="1.8"/>
</g>
<!-- Node_100&#45;&gt;Node_100_body -->
<g id="edge5" class="edge">
<title>Node_100:body&#45;&gt;Node_100_body</title>
<path fill="none" stroke="black" d="M329,-214C329,-182.47 329,-145.29 329,-126.75"/>
<polygon fill="black" stroke="black" points="332.5,-126.98 329,-116.98 325.5,-126.98 332.5,-126.98"/>
</g>
<!-- Node_160 -->
<g id="node6" class="node">
<title>Node_160</title>
<polygon fill="#f2f2f2" stroke="none" points="388,-52 270,-52 270,0 388,0 388,-52"/>
<polygon fill="none" stroke="black" points="270,-26 270,-52 388,-52 388,-26 270,-26"/>
<text text-anchor="start" x="283.62" y="-34.7" font-family="Courier New" font-weight="bold" font-size="14.00">IntegerNode</text>
<polygon fill="none" stroke="black" points="270,0 270,-26 321,-26 321,0 270,0"/>
<text text-anchor="start" x="274.88" y="-7.7" font-family="Courier New" font-size="14.00">flags</text>
<polygon fill="none" stroke="black" points="321,0 321,-26 388,-26 388,0 321,0"/>
<text text-anchor="start" x="325.62" y="-7.7" font-family="Courier New" font-size="14.00">decimal</text>
</g>
<!-- Node_100_body&#45;&gt;Node_160 -->
<g id="edge6" class="edge">
<title>Node_100_body&#45;&gt;Node_160</title>
<path fill="none" stroke="black" d="M329,-111.78C329,-106.32 329,-83.36 329,-62.72"/>
<polygon fill="black" stroke="black" points="332.5,-62.93 329,-52.93 325.5,-62.93 332.5,-62.93"/>
</g>
</g>
</svg>
