<?xml version="1.0" encoding="UTF-8" standalone="no"?>
<!DOCTYPE svg PUBLIC "-//W3C//DTD SVG 1.1//EN"
 "http://www.w3.org/Graphics/SVG/1.1/DTD/svg11.dtd">
<!-- Generated by graphviz version 8.1.0 (20230707.0739)
 -->
<!-- Title: Prism Pages: 1 -->
<svg width="284pt" height="252pt"
 viewBox="0.00 0.00 284.15 252.00" xmlns="http://www.w3.org/2000/svg" xmlns:xlink="http://www.w3.org/1999/xlink">
<g id="graph0" class="graph" transform="scale(1 1) rotate(0) translate(4 248)">
<title>Prism</title>
<polygon fill="white" stroke="none" points="-4,4 -4,-248 280.15,-248 280.15,4 -4,4"/>
<!-- Node_60 -->
<g id="node1" class="node">
<title>Node_60</title>
<polygon fill="#f2f2f2" stroke="none" points="258,-244 0,-244 0,-88 258,-88 258,-244"/>
<polygon fill="none" stroke="black" points="0,-218 0,-244 258,-244 258,-218 0,-218"/>
<text text-anchor="start" x="87.75" y="-226.7" font-family="Courier New" font-weight="bold" font-size="14.00">ModuleNode</text>
<polygon fill="none" stroke="black" points="0,-192 0,-218 158,-218 158,-192 0,-192"/>
<text text-anchor="start" x="5" y="-199.7" font-family="Courier New" font-size="14.00">locals</text>
<polygon fill="none" stroke="black" points="158,-192 158,-218 258,-218 258,-192 158,-192"/>
<text text-anchor="start" x="199.75" y="-199.7" font-family="Courier New" font-size="14.00">[]</text>
<polygon fill="none" stroke="black" points="0,-166 0,-192 158,-192 158,-166 0,-166"/>
<text text-anchor="start" x="4.75" y="-173.7" font-family="Courier New" font-size="14.00">module_keyword_loc</text>
<polygon fill="none" stroke="black" points="158,-166 158,-192 258,-192 258,-166 158,-166"/>
<text text-anchor="start" x="162.62" y="-173.7" font-family="Courier New" font-size="14.00">(1,0)&#45;(1,6)</text>
<polygon fill="none" stroke="black" points="0,-140 0,-166 258,-166 258,-140 0,-140"/>
<text text-anchor="start" x="5" y="-147.7" font-family="Courier New" font-size="14.00">constant_path</text>
<polygon fill="none" stroke="black" points="0,-114 0,-140 158,-140 158,-114 0,-114"/>
<text text-anchor="start" x="5" y="-121.7" font-family="Courier New" font-size="14.00">end_keyword_loc</text>
<polygon fill="none" stroke="black" points="158,-114 158,-140 258,-140 258,-114 158,-114"/>
<text text-anchor="start" x="162.62" y="-121.7" font-family="Courier New" font-size="14.00">(2,0)&#45;(2,3)</text>
<polygon fill="none" stroke="black" points="0,-88 0,-114 158,-114 158,-88 0,-88"/>
<text text-anchor="start" x="5" y="-95.7" font-family="Courier New" font-size="14.00">name</text>
<polygon fill="none" stroke="black" points="158,-88 158,-114 258,-114 258,-88 158,-88"/>
<text text-anchor="start" x="191.5" y="-95.7" font-family="Courier New" font-size="14.00">:Foo</text>
</g>
<!-- Node_80 -->
<g id="node2" class="node">
<title>Node_80</title>
<polygon fill="#f2f2f2" stroke="none" points="200,-52 58,-52 58,0 200,0 200,-52"/>
<polygon fill="none" stroke="black" points="58,-26 58,-52 200,-52 200,-26 58,-26"/>
<text text-anchor="start" x="63" y="-34.7" font-family="Courier New" font-weight="bold" font-size="14.00">ConstantReadNode</text>
<polygon fill="none" stroke="black" points="58,0 58,-26 129,-26 129,0 58,0"/>
<text text-anchor="start" x="63" y="-7.7" font-family="Courier New" font-size="14.00">name</text>
<polygon fill="none" stroke="black" points="129,0 129,-26 200,-26 200,0 129,0"/>
<text text-anchor="start" x="148" y="-7.7" font-family="Courier New" font-size="14.00">:Foo</text>
</g>
<!-- Node_60&#45;&gt;Node_80 -->
<g id="edge1" class="edge">
<title>Node_60:constant_path&#45;&gt;Node_80</title>
<path fill="none" stroke="black" d="M259,-153C287.89,-153 273.65,-112.29 258,-88 246.63,-70.35 228.66,-57.71 209.7,-48.68"/>
<polygon fill="black" stroke="black" points="211.28,-45.11 200.72,-44.28 208.46,-51.52 211.28,-45.11"/>
</g>
</g>
</svg>
