<?xml version="1.0" encoding="UTF-8" standalone="no"?>
<!DOCTYPE svg PUBLIC "-//W3C//DTD SVG 1.1//EN"
 "http://www.w3.org/Graphics/SVG/1.1/DTD/svg11.dtd">
<!-- Generated by graphviz version 8.1.0 (20230707.0739)
 -->
<!-- Title: Prism Pages: 1 -->
<svg width="283pt" height="252pt"
 viewBox="0.00 0.00 282.59 252.00" xmlns="http://www.w3.org/2000/svg" xmlns:xlink="http://www.w3.org/1999/xlink">
<g id="graph0" class="graph" transform="scale(1 1) rotate(0) translate(4 248)">
<title>Prism</title>
<polygon fill="white" stroke="none" points="-4,4 -4,-248 278.59,-248 278.59,4 -4,4"/>
<!-- Node_60 -->
<g id="node1" class="node">
<title>Node_60</title>
<polygon fill="#f2f2f2" stroke="none" points="250,-244 0,-244 0,-88 250,-88 250,-244"/>
<polygon fill="none" stroke="black" points="0,-218 0,-244 250,-244 250,-218 0,-218"/>
<text text-anchor="start" x="92" y="-226.7" font-family="Courier New" font-weight="bold" font-size="14.00">CallNode</text>
<polygon fill="none" stroke="black" points="0,-192 0,-218 150,-218 150,-192 0,-192"/>
<text text-anchor="start" x="5" y="-199.7" font-family="Courier New" font-size="14.00">flags</text>
<polygon fill="none" stroke="black" points="150,-192 150,-218 250,-218 250,-192 150,-192"/>
<polygon fill="none" stroke="black" points="0,-166 0,-192 250,-192 250,-166 0,-166"/>
<text text-anchor="start" x="5" y="-173.7" font-family="Courier New" font-size="14.00">receiver</text>
<polygon fill="none" stroke="black" points="0,-140 0,-166 150,-166 150,-140 0,-140"/>
<text text-anchor="start" x="4.88" y="-147.7" font-family="Courier New" font-size="14.00">call_operator_loc</text>
<polygon fill="none" stroke="black" points="150,-140 150,-166 250,-166 250,-140 150,-140"/>
<text text-anchor="start" x="154.62" y="-147.7" font-family="Courier New" font-size="14.00">(1,1)&#45;(1,2)</text>
<polygon fill="none" stroke="black" points="0,-114 0,-140 150,-140 150,-114 0,-114"/>
<text text-anchor="start" x="5" y="-121.7" font-family="Courier New" font-size="14.00">name</text>
<polygon fill="none" stroke="black" points="150,-114 150,-140 250,-140 250,-114 150,-114"/>
<text text-anchor="start" x="179.38" y="-121.7" font-family="Courier New" font-size="14.00">:to_s</text>
<polygon fill="none" stroke="black" points="0,-88 0,-114 150,-114 150,-88 0,-88"/>
<text text-anchor="start" x="5" y="-95.7" font-family="Courier New" font-size="14.00">message_loc</text>
<polygon fill="none" stroke="black" points="150,-88 150,-114 250,-114 250,-88 150,-88"/>
<text text-anchor="start" x="154.62" y="-95.7" font-family="Courier New" font-size="14.00">(1,2)&#45;(1,6)</text>
</g>
<!-- Node_80 -->
<g id="node2" class="node">
<title>Node_80</title>
<polygon fill="#f2f2f2" stroke="none" points="184,-52 66,-52 66,0 184,0 184,-52"/>
<polygon fill="none" stroke="black" points="66,-26 66,-52 184,-52 184,-26 66,-26"/>
<text text-anchor="start" x="79.62" y="-34.7" font-family="Courier New" font-weight="bold" font-size="14.00">IntegerNode</text>
<polygon fill="none" stroke="black" points="66,0 66,-26 117,-26 117,0 66,0"/>
<text text-anchor="start" x="70.88" y="-7.7" font-family="Courier New" font-size="14.00">flags</text>
<polygon fill="none" stroke="black" points="117,0 117,-26 184,-26 184,0 117,0"/>
<text text-anchor="start" x="121.62" y="-7.7" font-family="Courier New" font-size="14.00">decimal</text>
</g>
<!-- Node_60&#45;&gt;Node_80 -->
<g id="edge1" class="edge">
<title>Node_60:receiver&#45;&gt;Node_80</title>
<path fill="none" stroke="black" d="M251,-179C291.45,-179 271.62,-122.18 250,-88 237.18,-67.74 215.51,-54.01 193.77,-44.81"/>
<polygon fill="black" stroke="black" points="195.39,-41.29 184.81,-40.89 192.83,-47.81 195.39,-41.29"/>
</g>
</g>
</svg>
