<?xml version="1.0" encoding="UTF-8" standalone="no"?>
<!DOCTYPE svg PUBLIC "-//W3C//DTD SVG 1.1//EN"
 "http://www.w3.org/Graphics/SVG/1.1/DTD/svg11.dtd">
<!-- Generated by graphviz version 8.1.0 (20230707.0739)
 -->
<!-- Title: Prism Pages: 1 -->
<svg width="234pt" height="432pt"
 viewBox="0.00 0.00 234.00 431.60" xmlns="http://www.w3.org/2000/svg" xmlns:xlink="http://www.w3.org/1999/xlink">
<g id="graph0" class="graph" transform="scale(1 1) rotate(0) translate(4 427.6)">
<title>Prism</title>
<polygon fill="white" stroke="none" points="-4,4 -4,-427.6 230,-427.6 230,4 -4,4"/>
<!-- Node_60 -->
<g id="node1" class="node">
<title>Node_60</title>
<polygon fill="#f2f2f2" stroke="none" points="175.5,-423.6 50.5,-423.6 50.5,-293.6 175.5,-293.6 175.5,-423.6"/>
<polygon fill="none" stroke="black" points="50.5,-397.6 50.5,-423.6 175.5,-423.6 175.5,-397.6 50.5,-397.6"/>
<text text-anchor="start" x="55.25" y="-406.3" font-family="Courier New" font-weight="bold" font-size="14.00">ParametersNode</text>
<polygon fill="none" stroke="black" points="50.5,-371.6 50.5,-397.6 141.5,-397.6 141.5,-371.6 50.5,-371.6"/>
<text text-anchor="start" x="55.5" y="-379.3" font-family="Courier New" font-size="14.00">requireds</text>
<polygon fill="none" stroke="black" points="141.5,-371.6 141.5,-397.6 175.5,-397.6 175.5,-371.6 141.5,-371.6"/>
<text text-anchor="start" x="150.25" y="-379.3" font-family="Courier New" font-size="14.00">[]</text>
<polygon fill="none" stroke="black" points="50.5,-345.6 50.5,-371.6 175.5,-371.6 175.5,-345.6 50.5,-345.6"/>
<text text-anchor="start" x="55.5" y="-353.3" font-family="Courier New" font-size="14.00">optionals</text>
<polygon fill="none" stroke="black" points="50.5,-319.6 50.5,-345.6 141.5,-345.6 141.5,-319.6 50.5,-319.6"/>
<text text-anchor="start" x="55.5" y="-327.3" font-family="Courier New" font-size="14.00">posts</text>
<polygon fill="none" stroke="black" points="141.5,-319.6 141.5,-345.6 175.5,-345.6 175.5,-319.6 141.5,-319.6"/>
<text text-anchor="start" x="150.25" y="-327.3" font-family="Courier New" font-size="14.00">[]</text>
<polygon fill="none" stroke="black" points="50.5,-293.6 50.5,-319.6 141.5,-319.6 141.5,-293.6 50.5,-293.6"/>
<text text-anchor="start" x="55.5" y="-301.3" font-family="Courier New" font-size="14.00">keywords</text>
<polygon fill="none" stroke="black" points="141.5,-293.6 141.5,-319.6 175.5,-319.6 175.5,-293.6 141.5,-293.6"/>
<text text-anchor="start" x="150.25" y="-301.3" font-family="Courier New" font-size="14.00">[]</text>
</g>
<!-- Node_60_optionals -->
<g id="node4" class="node">
<title>Node_60_optionals</title>
<ellipse fill="#f2f2f2" stroke="black" cx="113" cy="-255.8" rx="1.8" ry="1.8"/>
</g>
<!-- Node_60&#45;&gt;Node_60_optionals -->
<g id="edge1" class="edge">
<title>Node_60:optionals&#45;&gt;Node_60_optionals</title>
<path fill="none" stroke="black" d="M177,-358.6C205.89,-358.6 190.58,-318.55 176,-293.6 164.96,-274.7 140.12,-264.55 125.14,-259.95"/>
<polygon fill="black" stroke="black" points="126.14,-256.32 115.57,-257.13 124.33,-263.09 126.14,-256.32"/>
</g>
<!-- Node_80 -->
<g id="node2" class="node">
<title>Node_80</title>
<polygon fill="#f2f2f2" stroke="none" points="226,-218 0,-218 0,-88 226,-88 226,-218"/>
<polygon fill="none" stroke="black" points="0,-192 0,-218 226,-218 226,-192 0,-192"/>
<text text-anchor="start" x="26.38" y="-200.7" font-family="Courier New" font-weight="bold" font-size="14.00">OptionalParameterNode</text>
<polygon fill="none" stroke="black" points="0,-166 0,-192 109,-192 109,-166 0,-166"/>
<text text-anchor="start" x="5" y="-173.7" font-family="Courier New" font-size="14.00">name</text>
<polygon fill="none" stroke="black" points="109,-166 109,-192 226,-192 226,-166 109,-166"/>
<text text-anchor="start" x="151" y="-173.7" font-family="Courier New" font-size="14.00">:bar</text>
<polygon fill="none" stroke="black" points="0,-140 0,-166 109,-166 109,-140 0,-140"/>
<text text-anchor="start" x="5" y="-147.7" font-family="Courier New" font-size="14.00">name_loc</text>
<polygon fill="none" stroke="black" points="109,-140 109,-166 226,-166 226,-140 109,-140"/>
<text text-anchor="start" x="118" y="-147.7" font-family="Courier New" font-size="14.00">(1,8)&#45;(1,11)</text>
<polygon fill="none" stroke="black" points="0,-114 0,-140 109,-140 109,-114 0,-114"/>
<text text-anchor="start" x="5" y="-121.7" font-family="Courier New" font-size="14.00">operator_loc</text>
<polygon fill="none" stroke="black" points="109,-114 109,-140 226,-140 226,-114 109,-114"/>
<text text-anchor="start" x="113.88" y="-121.7" font-family="Courier New" font-size="14.00">(1,12)&#45;(1,13)</text>
<polygon fill="none" stroke="black" points="0,-88 0,-114 226,-114 226,-88 0,-88"/>
<text text-anchor="start" x="5" y="-95.7" font-family="Courier New" font-size="14.00">value</text>
</g>
<!-- Node_100 -->
<g id="node3" class="node">
<title>Node_100</title>
<polygon fill="#f2f2f2" stroke="none" points="172,-52 54,-52 54,0 172,0 172,-52"/>
<polygon fill="none" stroke="black" points="54,-26 54,-52 172,-52 172,-26 54,-26"/>
<text text-anchor="start" x="67.62" y="-34.7" font-family="Courier New" font-weight="bold" font-size="14.00">IntegerNode</text>
<polygon fill="none" stroke="black" points="54,0 54,-26 105,-26 105,0 54,0"/>
<text text-anchor="start" x="58.88" y="-7.7" font-family="Courier New" font-size="14.00">flags</text>
<polygon fill="none" stroke="black" points="105,0 105,-26 172,-26 172,0 105,0"/>
<text text-anchor="start" x="109.62" y="-7.7" font-family="Courier New" font-size="14.00">decimal</text>
</g>
<!-- Node_80&#45;&gt;Node_100 -->
<g id="edge3" class="edge">
<title>Node_80:value&#45;&gt;Node_100</title>
<path fill="none" stroke="black" d="M113,-88C113,-79.85 113,-71.08 113,-62.8"/>
<polygon fill="black" stroke="black" points="116.5,-62.93 113,-52.93 109.5,-62.93 116.5,-62.93"/>
</g>
<!-- Node_60_optionals&#45;&gt;Node_80 -->
<g id="edge2" class="edge">
<title>Node_60_optionals&#45;&gt;Node_80</title>
<path fill="none" stroke="black" d="M113,-253.67C113,-250.46 113,-240.73 113,-228.54"/>
<polygon fill="black" stroke="black" points="116.5,-228.8 113,-218.8 109.5,-228.8 116.5,-228.8"/>
</g>
</g>
</svg>
