<?xml version="1.0" encoding="UTF-8" standalone="no"?>
<!DOCTYPE svg PUBLIC "-//W3C//DTD SVG 1.1//EN"
 "http://www.w3.org/Graphics/SVG/1.1/DTD/svg11.dtd">
<!-- Generated by graphviz version 8.1.0 (20230707.0739)
 -->
<!-- Title: Prism Pages: 1 -->
<svg width="558pt" height="620pt"
 viewBox="0.00 0.00 558.00 620.00" xmlns="http://www.w3.org/2000/svg" xmlns:xlink="http://www.w3.org/1999/xlink">
<g id="graph0" class="graph" transform="scale(1 1) rotate(0) translate(4 616)">
<title>Prism</title>
<polygon fill="white" stroke="none" points="-4,4 -4,-616 554,-616 554,4 -4,4"/>
<!-- Node_60 -->
<g id="node1" class="node">
<title>Node_60</title>
<polygon fill="#f2f2f2" stroke="none" points="380.5,-612 171.5,-612 171.5,-508 380.5,-508 380.5,-612"/>
<polygon fill="none" stroke="black" points="171.5,-586 171.5,-612 380.5,-612 380.5,-586 171.5,-586"/>
<text text-anchor="start" x="201.75" y="-594.7" font-family="Courier New" font-weight="bold" font-size="14.00">MatchPredicateNode</text>
<polygon fill="none" stroke="black" points="171.5,-560 171.5,-586 380.5,-586 380.5,-560 171.5,-560"/>
<text text-anchor="start" x="176.5" y="-567.7" font-family="Courier New" font-size="14.00">value</text>
<polygon fill="none" stroke="black" points="171.5,-534 171.5,-560 380.5,-560 380.5,-534 171.5,-534"/>
<text text-anchor="start" x="176.5" y="-541.7" font-family="Courier New" font-size="14.00">pattern</text>
<polygon fill="none" stroke="black" points="171.5,-508 171.5,-534 280.5,-534 280.5,-508 171.5,-508"/>
<text text-anchor="start" x="176.5" y="-515.7" font-family="Courier New" font-size="14.00">operator_loc</text>
<polygon fill="none" stroke="black" points="280.5,-508 280.5,-534 380.5,-534 380.5,-508 280.5,-508"/>
<text text-anchor="start" x="285.12" y="-515.7" font-family="Courier New" font-size="14.00">(1,4)&#45;(1,6)</text>
</g>
<!-- Node_80 -->
<g id="node2" class="node">
<title>Node_80</title>
<polygon fill="#f2f2f2" stroke="none" points="264.5,-472 47.5,-472 47.5,-368 264.5,-368 264.5,-472"/>
<polygon fill="none" stroke="black" points="47.5,-446 47.5,-472 264.5,-472 264.5,-446 47.5,-446"/>
<text text-anchor="start" x="123" y="-454.7" font-family="Courier New" font-weight="bold" font-size="14.00">CallNode</text>
<polygon fill="none" stroke="black" points="47.5,-420 47.5,-446 147.5,-446 147.5,-420 47.5,-420"/>
<text text-anchor="start" x="52.5" y="-427.7" font-family="Courier New" font-size="14.00">flags</text>
<polygon fill="none" stroke="black" points="147.5,-420 147.5,-446 264.5,-446 264.5,-420 147.5,-420"/>
<text text-anchor="start" x="152.38" y="-427.7" font-family="Courier New" font-size="14.00">variable_call</text>
<polygon fill="none" stroke="black" points="47.5,-394 47.5,-420 147.5,-420 147.5,-394 47.5,-394"/>
<text text-anchor="start" x="52.5" y="-401.7" font-family="Courier New" font-size="14.00">name</text>
<polygon fill="none" stroke="black" points="147.5,-394 147.5,-420 264.5,-420 264.5,-394 147.5,-394"/>
<text text-anchor="start" x="189.5" y="-401.7" font-family="Courier New" font-size="14.00">:foo</text>
<polygon fill="none" stroke="black" points="47.5,-368 47.5,-394 147.5,-394 147.5,-368 47.5,-368"/>
<text text-anchor="start" x="52.12" y="-375.7" font-family="Courier New" font-size="14.00">message_loc</text>
<polygon fill="none" stroke="black" points="147.5,-368 147.5,-394 264.5,-394 264.5,-368 147.5,-368"/>
<text text-anchor="start" x="160.62" y="-375.7" font-family="Courier New" font-size="14.00">(1,0)&#45;(1,3)</text>
</g>
<!-- Node_60&#45;&gt;Node_80 -->
<g id="edge1" class="edge">
<title>Node_60:value&#45;&gt;Node_80</title>
<path fill="none" stroke="black" d="M170,-573C131.64,-573 132.18,-524.41 139.9,-482.18"/>
<polygon fill="black" stroke="black" points="143.48,-483.1 142,-472.61 136.62,-481.74 143.48,-483.1"/>
</g>
<!-- Node_100 -->
<g id="node3" class="node">
<title>Node_100</title>
<polygon fill="#f2f2f2" stroke="none" points="509,-472 283,-472 283,-368 509,-368 509,-472"/>
<polygon fill="none" stroke="black" points="283,-446 283,-472 509,-472 509,-446 283,-446"/>
<text text-anchor="start" x="305.25" y="-454.7" font-family="Courier New" font-weight="bold" font-size="14.00">AlternationPatternNode</text>
<polygon fill="none" stroke="black" points="283,-420 283,-446 509,-446 509,-420 283,-420"/>
<text text-anchor="start" x="288" y="-427.7" font-family="Courier New" font-size="14.00">left</text>
<polygon fill="none" stroke="black" points="283,-394 283,-420 509,-420 509,-394 283,-394"/>
<text text-anchor="start" x="288" y="-401.7" font-family="Courier New" font-size="14.00">right</text>
<polygon fill="none" stroke="black" points="283,-368 283,-394 392,-394 392,-368 283,-368"/>
<text text-anchor="start" x="288" y="-375.7" font-family="Courier New" font-size="14.00">operator_loc</text>
<polygon fill="none" stroke="black" points="392,-368 392,-394 509,-394 509,-368 392,-368"/>
<text text-anchor="start" x="396.88" y="-375.7" font-family="Courier New" font-size="14.00">(1,20)&#45;(1,21)</text>
</g>
<!-- Node_60&#45;&gt;Node_100 -->
<g id="edge2" class="edge">
<title>Node_60:pattern&#45;&gt;Node_100</title>
<path fill="none" stroke="black" d="M382,-547C410.57,-547 413.77,-514.6 409.97,-482.65"/>
<polygon fill="black" stroke="black" points="413.32,-482.29 408.45,-472.89 406.39,-483.28 413.32,-482.29"/>
</g>
<!-- Node_120 -->
<g id="node4" class="node">
<title>Node_120</title>
<polygon fill="#f2f2f2" stroke="none" points="414,-332 188,-332 188,-228 414,-228 414,-332"/>
<polygon fill="none" stroke="black" points="188,-306 188,-332 414,-332 414,-306 188,-306"/>
<text text-anchor="start" x="210.25" y="-314.7" font-family="Courier New" font-weight="bold" font-size="14.00">AlternationPatternNode</text>
<polygon fill="none" stroke="black" points="188,-280 188,-306 414,-306 414,-280 188,-280"/>
<text text-anchor="start" x="193" y="-287.7" font-family="Courier New" font-size="14.00">left</text>
<polygon fill="none" stroke="black" points="188,-254 188,-280 414,-280 414,-254 188,-254"/>
<text text-anchor="start" x="193" y="-261.7" font-family="Courier New" font-size="14.00">right</text>
<polygon fill="none" stroke="black" points="188,-228 188,-254 297,-254 297,-228 188,-228"/>
<text text-anchor="start" x="193" y="-235.7" font-family="Courier New" font-size="14.00">operator_loc</text>
<polygon fill="none" stroke="black" points="297,-228 297,-254 414,-254 414,-228 297,-228"/>
<text text-anchor="start" x="301.88" y="-235.7" font-family="Courier New" font-size="14.00">(1,15)&#45;(1,16)</text>
</g>
<!-- Node_100&#45;&gt;Node_120 -->
<g id="edge3" class="edge">
<title>Node_100:left&#45;&gt;Node_120</title>
<path fill="none" stroke="black" d="M282,-433C267.55,-433 281.42,-382.36 283,-368 283.91,-359.7 285.25,-351.02 286.78,-342.49"/>
<polygon fill="black" stroke="black" points="290.38,-343.29 288.81,-332.81 283.51,-341.98 290.38,-343.29"/>
</g>
<!-- Node_140 -->
<g id="node10" class="node">
<title>Node_140</title>
<polygon fill="#f2f2f2" stroke="none" points="549.5,-306 432.5,-306 432.5,-254 549.5,-254 549.5,-306"/>
<polygon fill="none" stroke="black" points="432.5,-280 432.5,-306 549.5,-306 549.5,-280 432.5,-280"/>
<text text-anchor="start" x="437.38" y="-288.7" font-family="Courier New" font-weight="bold" font-size="14.00">ImaginaryNode</text>
<polygon fill="none" stroke="black" points="432.5,-254 432.5,-280 549.5,-280 549.5,-254 432.5,-254"/>
<text text-anchor="start" x="437.5" y="-261.7" font-family="Courier New" font-size="14.00">numeric</text>
</g>
<!-- Node_100&#45;&gt;Node_140 -->
<g id="edge4" class="edge">
<title>Node_100:right&#45;&gt;Node_140</title>
<path fill="none" stroke="black" d="M510,-407C547.16,-407 527.37,-352.74 509.37,-315.44"/>
<polygon fill="black" stroke="black" points="512.21,-314.29 504.63,-306.89 505.94,-317.41 512.21,-314.29"/>
</g>
<!-- Node_160 -->
<g id="node5" class="node">
<title>Node_160</title>
<polygon fill="#f2f2f2" stroke="none" points="257,-192 39,-192 39,-88 257,-88 257,-192"/>
<polygon fill="none" stroke="black" points="39,-166 39,-192 257,-192 257,-166 39,-166"/>
<text text-anchor="start" x="57.25" y="-174.7" font-family="Courier New" font-weight="bold" font-size="14.00">AlternationPatternNode</text>
<polygon fill="none" stroke="black" points="39,-140 39,-166 257,-166 257,-140 39,-140"/>
<text text-anchor="start" x="44" y="-147.7" font-family="Courier New" font-size="14.00">left</text>
<polygon fill="none" stroke="black" points="39,-114 39,-140 257,-140 257,-114 39,-114"/>
<text text-anchor="start" x="44" y="-121.7" font-family="Courier New" font-size="14.00">right</text>
<polygon fill="none" stroke="black" points="39,-88 39,-114 148,-114 148,-88 39,-88"/>
<text text-anchor="start" x="44" y="-95.7" font-family="Courier New" font-size="14.00">operator_loc</text>
<polygon fill="none" stroke="black" points="148,-88 148,-114 257,-114 257,-88 148,-88"/>
<text text-anchor="start" x="153" y="-95.7" font-family="Courier New" font-size="14.00">(1,9)&#45;(1,10)</text>
</g>
<!-- Node_120&#45;&gt;Node_160 -->
<g id="edge5" class="edge">
<title>Node_120:left&#45;&gt;Node_160</title>
<path fill="none" stroke="black" d="M187,-293C147.65,-293 140.29,-244.62 141.34,-202.45"/>
<polygon fill="black" stroke="black" points="144.88,-202.75 141.8,-192.61 137.88,-202.46 144.88,-202.75"/>
</g>
<!-- Node_180 -->
<g id="node8" class="node">
<title>Node_180</title>
<polygon fill="#f2f2f2" stroke="none" points="384.5,-166 275.5,-166 275.5,-114 384.5,-114 384.5,-166"/>
<polygon fill="none" stroke="black" points="275.5,-140 275.5,-166 384.5,-166 384.5,-140 275.5,-140"/>
<text text-anchor="start" x="280.5" y="-148.7" font-family="Courier New" font-weight="bold" font-size="14.00">RationalNode</text>
<polygon fill="none" stroke="black" points="275.5,-114 275.5,-140 384.5,-140 384.5,-114 275.5,-114"/>
<text text-anchor="start" x="280.5" y="-121.7" font-family="Courier New" font-size="14.00">numeric</text>
</g>
<!-- Node_120&#45;&gt;Node_180 -->
<g id="edge6" class="edge">
<title>Node_120:right&#45;&gt;Node_180</title>
<path fill="none" stroke="black" d="M415,-267C423.67,-267 417.35,-236 414,-228 405.08,-206.7 388.31,-187.64 372.09,-172.83"/>
<polygon fill="black" stroke="black" points="375.04,-169.88 365.21,-165.91 370.42,-175.14 375.04,-169.88"/>
</g>
<!-- Node_200 -->
<g id="node6" class="node">
<title>Node_200</title>
<polygon fill="#f2f2f2" stroke="none" points="118,-52 0,-52 0,0 118,0 118,-52"/>
<polygon fill="none" stroke="black" points="0,-26 0,-52 118,-52 118,-26 0,-26"/>
<text text-anchor="start" x="13.62" y="-34.7" font-family="Courier New" font-weight="bold" font-size="14.00">IntegerNode</text>
<polygon fill="none" stroke="black" points="0,0 0,-26 51,-26 51,0 0,0"/>
<text text-anchor="start" x="4.88" y="-7.7" font-family="Courier New" font-size="14.00">flags</text>
<polygon fill="none" stroke="black" points="51,0 51,-26 118,-26 118,0 51,0"/>
<text text-anchor="start" x="55.62" y="-7.7" font-family="Courier New" font-size="14.00">decimal</text>
</g>
<!-- Node_160&#45;&gt;Node_200 -->
<g id="edge7" class="edge">
<title>Node_160:left&#45;&gt;Node_200</title>
<path fill="none" stroke="black" d="M38,-153C0.75,-153 21.43,-98.74 40.05,-61.44"/>
<polygon fill="black" stroke="black" points="43.5,-63.39 44.95,-52.89 37.27,-60.19 43.5,-63.39"/>
</g>
<!-- Node_220 -->
<g id="node7" class="node">
<title>Node_220</title>
<polygon fill="#f2f2f2" stroke="none" points="221.62,-39.25 136.38,-39.25 136.38,-12.75 221.62,-12.75 221.62,-39.25"/>
<polygon fill="none" stroke="black" points="136.38,-12.75 136.38,-39.25 221.62,-39.25 221.62,-12.75 136.38,-12.75"/>
<text text-anchor="start" x="141.88" y="-21.95" font-family="Courier New" font-weight="bold" font-size="14.00">FloatNode</text>
</g>
<!-- Node_160&#45;&gt;Node_220 -->
<g id="edge8" class="edge">
<title>Node_160:right&#45;&gt;Node_220</title>
<path fill="none" stroke="black" d="M258,-127C266.67,-127 260.9,-95.74 257,-88 247.7,-69.52 229.89,-54.93 213.65,-44.66"/>
<polygon fill="black" stroke="black" points="215.72,-41.22 205.33,-39.11 212.14,-47.24 215.72,-41.22"/>
</g>
<!-- Node_240 -->
<g id="node9" class="node">
<title>Node_240</title>
<polygon fill="#f2f2f2" stroke="none" points="389,-52 271,-52 271,0 389,0 389,-52"/>
<polygon fill="none" stroke="black" points="271,-26 271,-52 389,-52 389,-26 271,-26"/>
<text text-anchor="start" x="284.62" y="-34.7" font-family="Courier New" font-weight="bold" font-size="14.00">IntegerNode</text>
<polygon fill="none" stroke="black" points="271,0 271,-26 322,-26 322,0 271,0"/>
<text text-anchor="start" x="275.88" y="-7.7" font-family="Courier New" font-size="14.00">flags</text>
<polygon fill="none" stroke="black" points="322,0 322,-26 389,-26 389,0 322,0"/>
<text text-anchor="start" x="326.62" y="-7.7" font-family="Courier New" font-size="14.00">decimal</text>
</g>
<!-- Node_180&#45;&gt;Node_240 -->
<g id="edge9" class="edge">
<title>Node_180:numeric&#45;&gt;Node_240</title>
<path fill="none" stroke="black" d="M330,-113C330,-96.42 330,-78.04 330,-62.55"/>
<polygon fill="black" stroke="black" points="333.5,-62.84 330,-52.84 326.5,-62.84 333.5,-62.84"/>
</g>
<!-- Node_260 -->
<g id="node11" class="node">
<title>Node_260</title>
<polygon fill="#f2f2f2" stroke="none" points="550,-166 432,-166 432,-114 550,-114 550,-166"/>
<polygon fill="none" stroke="black" points="432,-140 432,-166 550,-166 550,-140 432,-140"/>
<text text-anchor="start" x="445.62" y="-148.7" font-family="Courier New" font-weight="bold" font-size="14.00">IntegerNode</text>
<polygon fill="none" stroke="black" points="432,-114 432,-140 483,-140 483,-114 432,-114"/>
<text text-anchor="start" x="436.88" y="-121.7" font-family="Courier New" font-size="14.00">flags</text>
<polygon fill="none" stroke="black" points="483,-114 483,-140 550,-140 550,-114 483,-114"/>
<text text-anchor="start" x="487.62" y="-121.7" font-family="Courier New" font-size="14.00">decimal</text>
</g>
<!-- Node_140&#45;&gt;Node_260 -->
<g id="edge10" class="edge">
<title>Node_140:numeric&#45;&gt;Node_260</title>
<path fill="none" stroke="black" d="M491,-253C491,-227.5 491,-198.74 491,-176.74"/>
<polygon fill="black" stroke="black" points="494.5,-176.91 491,-166.91 487.5,-176.91 494.5,-176.91"/>
</g>
</g>
</svg>
