<?xml version="1.0" encoding="UTF-8" standalone="no"?>
<!DOCTYPE svg PUBLIC "-//W3C//DTD SVG 1.1//EN"
 "http://www.w3.org/Graphics/SVG/1.1/DTD/svg11.dtd">
<!-- Generated by graphviz version 8.1.0 (20230707.0739)
 -->
<!-- Title: Prism Pages: 1 -->
<svg width="263pt" height="406pt"
 viewBox="0.00 0.00 262.54 405.60" xmlns="http://www.w3.org/2000/svg" xmlns:xlink="http://www.w3.org/1999/xlink">
<g id="graph0" class="graph" transform="scale(1 1) rotate(0) translate(4 401.6)">
<title>Prism</title>
<polygon fill="white" stroke="none" points="-4,4 -4,-401.6 258.54,-401.6 258.54,4 -4,4"/>
<!-- Node_60 -->
<g id="node1" class="node">
<title>Node_60</title>
<polygon fill="#f2f2f2" stroke="none" points="227.54,-397.6 27.54,-397.6 27.54,-241.6 227.54,-241.6 227.54,-397.6"/>
<polygon fill="none" stroke="black" points="27.54,-371.6 27.54,-397.6 227.54,-397.6 227.54,-371.6 27.54,-371.6"/>
<text text-anchor="start" x="94.54" y="-380.3" font-family="Courier New" font-weight="bold" font-size="14.00">CallNode</text>
<polygon fill="none" stroke="black" points="27.54,-345.6 27.54,-371.6 127.54,-371.6 127.54,-345.6 27.54,-345.6"/>
<text text-anchor="start" x="32.54" y="-353.3" font-family="Courier New" font-size="14.00">flags</text>
<polygon fill="none" stroke="black" points="127.54,-345.6 127.54,-371.6 227.54,-371.6 227.54,-345.6 127.54,-345.6"/>
<polygon fill="none" stroke="black" points="27.54,-319.6 27.54,-345.6 227.54,-345.6 227.54,-319.6 27.54,-319.6"/>
<text text-anchor="start" x="32.54" y="-327.3" font-family="Courier New" font-size="14.00">receiver</text>
<polygon fill="none" stroke="black" points="27.54,-293.6 27.54,-319.6 127.54,-319.6 127.54,-293.6 27.54,-293.6"/>
<text text-anchor="start" x="32.54" y="-301.3" font-family="Courier New" font-size="14.00">name</text>
<polygon fill="none" stroke="black" points="127.54,-293.6 127.54,-319.6 227.54,-319.6 227.54,-293.6 127.54,-293.6"/>
<text text-anchor="start" x="169.29" y="-301.3" font-family="Courier New" font-size="14.00">:+</text>
<polygon fill="none" stroke="black" points="27.54,-267.6 27.54,-293.6 127.54,-293.6 127.54,-267.6 27.54,-267.6"/>
<text text-anchor="start" x="32.16" y="-275.3" font-family="Courier New" font-size="14.00">message_loc</text>
<polygon fill="none" stroke="black" points="127.54,-267.6 127.54,-293.6 227.54,-293.6 227.54,-267.6 127.54,-267.6"/>
<text text-anchor="start" x="132.16" y="-275.3" font-family="Courier New" font-size="14.00">(1,2)&#45;(1,3)</text>
<polygon fill="none" stroke="black" points="27.54,-241.6 27.54,-267.6 227.54,-267.6 227.54,-241.6 27.54,-241.6"/>
<text text-anchor="start" x="32.54" y="-249.3" font-family="Courier New" font-size="14.00">arguments</text>
</g>
<!-- Node_80 -->
<g id="node2" class="node">
<title>Node_80</title>
<polygon fill="#f2f2f2" stroke="none" points="118.54,-192.6 0.54,-192.6 0.54,-140.6 118.54,-140.6 118.54,-192.6"/>
<polygon fill="none" stroke="black" points="0.54,-166.6 0.54,-192.6 118.54,-192.6 118.54,-166.6 0.54,-166.6"/>
<text text-anchor="start" x="14.16" y="-175.3" font-family="Courier New" font-weight="bold" font-size="14.00">IntegerNode</text>
<polygon fill="none" stroke="black" points="0.54,-140.6 0.54,-166.6 51.54,-166.6 51.54,-140.6 0.54,-140.6"/>
<text text-anchor="start" x="5.41" y="-148.3" font-family="Courier New" font-size="14.00">flags</text>
<polygon fill="none" stroke="black" points="51.54,-140.6 51.54,-166.6 118.54,-166.6 118.54,-140.6 51.54,-140.6"/>
<text text-anchor="start" x="56.16" y="-148.3" font-family="Courier New" font-size="14.00">decimal</text>
</g>
<!-- Node_60&#45;&gt;Node_80 -->
<g id="edge1" class="edge">
<title>Node_60:receiver&#45;&gt;Node_80</title>
<path fill="none" stroke="black" d="M26.54,-332.6C-26.35,-332.6 12.06,-250.09 39.1,-201.77"/>
<polygon fill="black" stroke="black" points="42.58,-203.72 44.49,-193.3 36.5,-200.26 42.58,-203.72"/>
</g>
<!-- Node_100 -->
<g id="node3" class="node">
<title>Node_100</title>
<polygon fill="#f2f2f2" stroke="none" points="254.04,-205.6 137.04,-205.6 137.04,-127.6 254.04,-127.6 254.04,-205.6"/>
<polygon fill="none" stroke="black" points="137.04,-179.6 137.04,-205.6 254.04,-205.6 254.04,-179.6 137.04,-179.6"/>
<text text-anchor="start" x="141.91" y="-188.3" font-family="Courier New" font-weight="bold" font-size="14.00">ArgumentsNode</text>
<polygon fill="none" stroke="black" points="137.04,-153.6 137.04,-179.6 216.04,-179.6 216.04,-153.6 137.04,-153.6"/>
<text text-anchor="start" x="142.04" y="-161.3" font-family="Courier New" font-size="14.00">flags</text>
<polygon fill="none" stroke="black" points="216.04,-153.6 216.04,-179.6 254.04,-179.6 254.04,-153.6 216.04,-153.6"/>
<polygon fill="none" stroke="black" points="137.04,-127.6 137.04,-153.6 254.04,-153.6 254.04,-127.6 137.04,-127.6"/>
<text text-anchor="start" x="142.04" y="-135.3" font-family="Courier New" font-size="14.00">arguments</text>
</g>
<!-- Node_60&#45;&gt;Node_100 -->
<g id="edge2" class="edge">
<title>Node_60:arguments&#45;&gt;Node_100</title>
<path fill="none" stroke="black" d="M228.54,-254.6C248.1,-254.6 241.77,-235.14 229.67,-214.62"/>
<polygon fill="black" stroke="black" points="232.25,-213.14 223.99,-206.51 226.31,-216.84 232.25,-213.14"/>
</g>
<!-- Node_100_arguments -->
<g id="node5" class="node">
<title>Node_100_arguments</title>
<ellipse fill="#f2f2f2" stroke="black" cx="195.54" cy="-89.8" rx="1.8" ry="1.8"/>
</g>
<!-- Node_100&#45;&gt;Node_100_arguments -->
<g id="edge3" class="edge">
<title>Node_100:arguments&#45;&gt;Node_100_arguments</title>
<path fill="none" stroke="black" d="M195.54,-127.6C195.54,-119.36 195.54,-110.09 195.54,-102.91"/>
<polygon fill="black" stroke="black" points="199.04,-102.94 195.54,-92.94 192.04,-102.94 199.04,-102.94"/>
</g>
<!-- Node_120 -->
<g id="node4" class="node">
<title>Node_120</title>
<polygon fill="#f2f2f2" stroke="none" points="254.54,-52 136.54,-52 136.54,0 254.54,0 254.54,-52"/>
<polygon fill="none" stroke="black" points="136.54,-26 136.54,-52 254.54,-52 254.54,-26 136.54,-26"/>
<text text-anchor="start" x="150.16" y="-34.7" font-family="Courier New" font-weight="bold" font-size="14.00">IntegerNode</text>
<polygon fill="none" stroke="black" points="136.54,0 136.54,-26 187.54,-26 187.54,0 136.54,0"/>
<text text-anchor="start" x="141.41" y="-7.7" font-family="Courier New" font-size="14.00">flags</text>
<polygon fill="none" stroke="black" points="187.54,0 187.54,-26 254.54,-26 254.54,0 187.54,0"/>
<text text-anchor="start" x="192.16" y="-7.7" font-family="Courier New" font-size="14.00">decimal</text>
</g>
<!-- Node_100_arguments&#45;&gt;Node_120 -->
<g id="edge4" class="edge">
<title>Node_100_arguments&#45;&gt;Node_120</title>
<path fill="none" stroke="black" d="M195.54,-87.73C195.54,-84.45 195.54,-74.09 195.54,-62.84"/>
<polygon fill="black" stroke="black" points="199.04,-62.97 195.54,-52.97 192.04,-62.98 199.04,-62.97"/>
</g>
</g>
</svg>
