<?xml version="1.0" encoding="UTF-8" standalone="no"?>
<!DOCTYPE svg PUBLIC "-//W3C//DTD SVG 1.1//EN"
 "http://www.w3.org/Graphics/SVG/1.1/DTD/svg11.dtd">
<!-- Generated by graphviz version 8.1.0 (20230707.0739)
 -->
<!-- Title: Prism Pages: 1 -->
<svg width="274pt" height="520pt"
 viewBox="0.00 0.00 273.89 520.10" xmlns="http://www.w3.org/2000/svg" xmlns:xlink="http://www.w3.org/1999/xlink">
<g id="graph0" class="graph" transform="scale(1 1) rotate(0) translate(4 516.1)">
<title>Prism</title>
<polygon fill="white" stroke="none" points="-4,4 -4,-516.1 269.89,-516.1 269.89,4 -4,4"/>
<!-- Node_60 -->
<g id="node1" class="node">
<title>Node_60</title>
<polygon fill="#f2f2f2" stroke="none" points="190.89,-512.1 65.89,-512.1 65.89,-382.1 190.89,-382.1 190.89,-512.1"/>
<polygon fill="none" stroke="black" points="65.89,-486.1 65.89,-512.1 190.89,-512.1 190.89,-486.1 65.89,-486.1"/>
<text text-anchor="start" x="70.64" y="-494.8" font-family="Courier New" font-weight="bold" font-size="14.00">ParametersNode</text>
<polygon fill="none" stroke="black" points="65.89,-460.1 65.89,-486.1 190.89,-486.1 190.89,-460.1 65.89,-460.1"/>
<text text-anchor="start" x="70.89" y="-467.8" font-family="Courier New" font-size="14.00">requireds</text>
<polygon fill="none" stroke="black" points="65.89,-434.1 65.89,-460.1 156.89,-460.1 156.89,-434.1 65.89,-434.1"/>
<text text-anchor="start" x="70.89" y="-441.8" font-family="Courier New" font-size="14.00">optionals</text>
<polygon fill="none" stroke="black" points="156.89,-434.1 156.89,-460.1 190.89,-460.1 190.89,-434.1 156.89,-434.1"/>
<text text-anchor="start" x="165.64" y="-441.8" font-family="Courier New" font-size="14.00">[]</text>
<polygon fill="none" stroke="black" points="65.89,-408.1 65.89,-434.1 156.89,-434.1 156.89,-408.1 65.89,-408.1"/>
<text text-anchor="start" x="70.89" y="-415.8" font-family="Courier New" font-size="14.00">posts</text>
<polygon fill="none" stroke="black" points="156.89,-408.1 156.89,-434.1 190.89,-434.1 190.89,-408.1 156.89,-408.1"/>
<text text-anchor="start" x="165.64" y="-415.8" font-family="Courier New" font-size="14.00">[]</text>
<polygon fill="none" stroke="black" points="65.89,-382.1 65.89,-408.1 156.89,-408.1 156.89,-382.1 65.89,-382.1"/>
<text text-anchor="start" x="70.89" y="-389.8" font-family="Courier New" font-size="14.00">keywords</text>
<polygon fill="none" stroke="black" points="156.89,-382.1 156.89,-408.1 190.89,-408.1 190.89,-382.1 156.89,-382.1"/>
<text text-anchor="start" x="165.64" y="-389.8" font-family="Courier New" font-size="14.00">[]</text>
</g>
<!-- Node_60_requireds -->
<g id="node5" class="node">
<title>Node_60_requireds</title>
<ellipse fill="#f2f2f2" stroke="black" cx="128.39" cy="-344.3" rx="1.8" ry="1.8"/>
</g>
<!-- Node_60&#45;&gt;Node_60_requireds -->
<g id="edge1" class="edge">
<title>Node_60:requireds&#45;&gt;Node_60_requireds</title>
<path fill="none" stroke="black" d="M192.39,-473.1C232.84,-473.1 211.72,-417.07 191.39,-382.1 180.39,-363.18 155.54,-353.04 140.55,-348.44"/>
<polygon fill="black" stroke="black" points="141.53,-344.81 130.97,-345.63 139.73,-351.58 141.53,-344.81"/>
</g>
<!-- Node_80 -->
<g id="node2" class="node">
<title>Node_80</title>
<polygon fill="#f2f2f2" stroke="none" points="232.89,-306.5 23.89,-306.5 23.89,-150.5 232.89,-150.5 232.89,-306.5"/>
<polygon fill="none" stroke="black" points="23.89,-280.5 23.89,-306.5 232.89,-306.5 232.89,-280.5 23.89,-280.5"/>
<text text-anchor="start" x="66.51" y="-289.2" font-family="Courier New" font-weight="bold" font-size="14.00">MultiTargetNode</text>
<polygon fill="none" stroke="black" points="23.89,-254.5 23.89,-280.5 232.89,-280.5 232.89,-254.5 23.89,-254.5"/>
<text text-anchor="start" x="28.89" y="-262.2" font-family="Courier New" font-size="14.00">lefts</text>
<polygon fill="none" stroke="black" points="23.89,-228.5 23.89,-254.5 232.89,-254.5 232.89,-228.5 23.89,-228.5"/>
<text text-anchor="start" x="28.89" y="-236.2" font-family="Courier New" font-size="14.00">rest</text>
<polygon fill="none" stroke="black" points="23.89,-202.5 23.89,-228.5 115.89,-228.5 115.89,-202.5 23.89,-202.5"/>
<text text-anchor="start" x="28.89" y="-210.2" font-family="Courier New" font-size="14.00">rights</text>
<polygon fill="none" stroke="black" points="115.89,-202.5 115.89,-228.5 232.89,-228.5 232.89,-202.5 115.89,-202.5"/>
<text text-anchor="start" x="166.14" y="-210.2" font-family="Courier New" font-size="14.00">[]</text>
<polygon fill="none" stroke="black" points="23.89,-176.5 23.89,-202.5 115.89,-202.5 115.89,-176.5 23.89,-176.5"/>
<text text-anchor="start" x="28.64" y="-184.2" font-family="Courier New" font-size="14.00">lparen_loc</text>
<polygon fill="none" stroke="black" points="115.89,-176.5 115.89,-202.5 232.89,-202.5 232.89,-176.5 115.89,-176.5"/>
<text text-anchor="start" x="129.01" y="-184.2" font-family="Courier New" font-size="14.00">(1,8)&#45;(1,9)</text>
<polygon fill="none" stroke="black" points="23.89,-150.5 23.89,-176.5 115.89,-176.5 115.89,-150.5 23.89,-150.5"/>
<text text-anchor="start" x="28.64" y="-158.2" font-family="Courier New" font-size="14.00">rparen_loc</text>
<polygon fill="none" stroke="black" points="115.89,-150.5 115.89,-176.5 232.89,-176.5 232.89,-150.5 115.89,-150.5"/>
<text text-anchor="start" x="120.76" y="-158.2" font-family="Courier New" font-size="14.00">(1,13)&#45;(1,14)</text>
</g>
<!-- Node_120 -->
<g id="node4" class="node">
<title>Node_120</title>
<polygon fill="#f2f2f2" stroke="none" points="154.89,-114.5 11.89,-114.5 11.89,-88 154.89,-88 154.89,-114.5"/>
<polygon fill="none" stroke="black" points="11.89,-88 11.89,-114.5 154.89,-114.5 154.89,-88 11.89,-88"/>
<text text-anchor="start" x="17.39" y="-97.2" font-family="Courier New" font-weight="bold" font-size="14.00">ImplicitRestNode</text>
</g>
<!-- Node_80&#45;&gt;Node_120 -->
<g id="edge5" class="edge">
<title>Node_80:rest&#45;&gt;Node_120</title>
<path fill="none" stroke="black" d="M22.39,-241.5C-18.06,-241.5 5.71,-186.88 23.39,-150.5 29.32,-138.29 39.99,-128.17 50.7,-120.41"/>
<polygon fill="black" stroke="black" points="52.25,-122.92 58.61,-114.45 48.35,-117.1 52.25,-122.92"/>
</g>
<!-- Node_80_lefts -->
<g id="node6" class="node">
<title>Node_80_lefts</title>
<ellipse fill="#f2f2f2" stroke="black" cx="174.39" cy="-101.25" rx="1.8" ry="1.8"/>
</g>
<!-- Node_80&#45;&gt;Node_80_lefts -->
<g id="edge3" class="edge">
<title>Node_80:lefts&#45;&gt;Node_80_lefts</title>
<path fill="none" stroke="black" d="M234.39,-267.5C286.39,-267.5 255.86,-197.39 233.39,-150.5 223.41,-129.67 199.61,-114.81 185.47,-107.47"/>
<polygon fill="black" stroke="black" points="187.42,-104.04 176.88,-102.88 184.39,-110.35 187.42,-104.04"/>
</g>
<!-- Node_100 -->
<g id="node3" class="node">
<title>Node_100</title>
<polygon fill="#f2f2f2" stroke="none" points="265.89,-52 82.89,-52 82.89,0 265.89,0 265.89,-52"/>
<polygon fill="none" stroke="black" points="82.89,-26 82.89,-52 265.89,-52 265.89,-26 82.89,-26"/>
<text text-anchor="start" x="87.76" y="-34.7" font-family="Courier New" font-weight="bold" font-size="14.00">RequiredParameterNode</text>
<polygon fill="none" stroke="black" points="82.89,0 82.89,-26 173.89,-26 173.89,0 82.89,0"/>
<text text-anchor="start" x="87.89" y="-7.7" font-family="Courier New" font-size="14.00">name</text>
<polygon fill="none" stroke="black" points="173.89,0 173.89,-26 265.89,-26 265.89,0 173.89,0"/>
<text text-anchor="start" x="203.39" y="-7.7" font-family="Courier New" font-size="14.00">:bar</text>
</g>
<!-- Node_60_requireds&#45;&gt;Node_80 -->
<g id="edge2" class="edge">
<title>Node_60_requireds&#45;&gt;Node_80</title>
<path fill="none" stroke="black" d="M128.39,-342.02C128.39,-338.7 128.39,-329.21 128.39,-317.07"/>
<polygon fill="black" stroke="black" points="131.89,-317.31 128.39,-307.31 124.89,-317.31 131.89,-317.31"/>
</g>
<!-- Node_80_lefts&#45;&gt;Node_100 -->
<g id="edge4" class="edge">
<title>Node_80_lefts&#45;&gt;Node_100</title>
<path fill="none" stroke="black" d="M174.39,-98.98C174.39,-94.44 174.39,-78.47 174.39,-62.72"/>
<polygon fill="black" stroke="black" points="177.89,-63 174.39,-53 170.89,-63 177.89,-63"/>
</g>
</g>
</svg>
