<?xml version="1.0" encoding="UTF-8" standalone="no"?>
<!DOCTYPE svg PUBLIC "-//W3C//DTD SVG 1.1//EN"
 "http://www.w3.org/Graphics/SVG/1.1/DTD/svg11.dtd">
<!-- Generated by graphviz version 8.1.0 (20230707.0739)
 -->
<!-- Title: Prism Pages: 1 -->
<svg width="378pt" height="366pt"
 viewBox="0.00 0.00 378.31 366.00" xmlns="http://www.w3.org/2000/svg" xmlns:xlink="http://www.w3.org/1999/xlink">
<g id="graph0" class="graph" transform="scale(1 1) rotate(0) translate(4 362)">
<title>Prism</title>
<polygon fill="white" stroke="none" points="-4,4 -4,-362 374.31,-362 374.31,4 -4,4"/>
<!-- Node_60 -->
<g id="node1" class="node">
<title>Node_60</title>
<polygon fill="#f2f2f2" stroke="none" points="342.81,-358 93.81,-358 93.81,-228 342.81,-228 342.81,-358"/>
<polygon fill="none" stroke="black" points="93.81,-332 93.81,-358 342.81,-358 342.81,-332 93.81,-332"/>
<text text-anchor="start" x="98.69" y="-340.7" font-family="Courier New" font-weight="bold" font-size="14.00">ConstantPathOperatorWriteNode</text>
<polygon fill="none" stroke="black" points="93.81,-306 93.81,-332 342.81,-332 342.81,-306 93.81,-306"/>
<text text-anchor="start" x="98.81" y="-313.7" font-family="Courier New" font-size="14.00">target</text>
<polygon fill="none" stroke="black" points="93.81,-280 93.81,-306 213.81,-306 213.81,-280 93.81,-280"/>
<text text-anchor="start" x="98.81" y="-287.7" font-family="Courier New" font-size="14.00">operator_loc</text>
<polygon fill="none" stroke="black" points="213.81,-280 213.81,-306 342.81,-306 342.81,-280 213.81,-280"/>
<text text-anchor="start" x="224.69" y="-287.7" font-family="Courier New" font-size="14.00">(1,10)&#45;(1,12)</text>
<polygon fill="none" stroke="black" points="93.81,-254 93.81,-280 342.81,-280 342.81,-254 93.81,-254"/>
<text text-anchor="start" x="98.81" y="-261.7" font-family="Courier New" font-size="14.00">value</text>
<polygon fill="none" stroke="black" points="93.81,-228 93.81,-254 213.81,-254 213.81,-228 93.81,-228"/>
<text text-anchor="start" x="98.81" y="-235.7" font-family="Courier New" font-size="14.00">operator</text>
<polygon fill="none" stroke="black" points="213.81,-228 213.81,-254 342.81,-254 342.81,-228 213.81,-228"/>
<text text-anchor="start" x="270.06" y="-235.7" font-family="Courier New" font-size="14.00">:+</text>
</g>
<!-- Node_80 -->
<g id="node2" class="node">
<title>Node_80</title>
<polygon fill="#f2f2f2" stroke="none" points="233.81,-192 16.81,-192 16.81,-88 233.81,-88 233.81,-192"/>
<polygon fill="none" stroke="black" points="16.81,-166 16.81,-192 233.81,-192 233.81,-166 16.81,-166"/>
<text text-anchor="start" x="59.31" y="-174.7" font-family="Courier New" font-weight="bold" font-size="14.00">ConstantPathNode</text>
<polygon fill="none" stroke="black" points="16.81,-140 16.81,-166 233.81,-166 233.81,-140 16.81,-140"/>
<text text-anchor="start" x="21.81" y="-147.7" font-family="Courier New" font-size="14.00">parent</text>
<polygon fill="none" stroke="black" points="16.81,-114 16.81,-140 233.81,-140 233.81,-114 16.81,-114"/>
<text text-anchor="start" x="21.81" y="-121.7" font-family="Courier New" font-size="14.00">child</text>
<polygon fill="none" stroke="black" points="16.81,-88 16.81,-114 133.81,-114 133.81,-88 16.81,-88"/>
<text text-anchor="start" x="21.69" y="-95.7" font-family="Courier New" font-size="14.00">delimiter_loc</text>
<polygon fill="none" stroke="black" points="133.81,-88 133.81,-114 233.81,-114 233.81,-88 133.81,-88"/>
<text text-anchor="start" x="138.44" y="-95.7" font-family="Courier New" font-size="14.00">(1,4)&#45;(1,6)</text>
</g>
<!-- Node_60&#45;&gt;Node_80 -->
<g id="edge1" class="edge">
<title>Node_60:target&#45;&gt;Node_80</title>
<path fill="none" stroke="black" d="M92.31,-319C43.3,-319 66.25,-252.94 91.67,-201.31"/>
<polygon fill="black" stroke="black" points="95.23,-203.04 96.6,-192.53 88.98,-199.89 95.23,-203.04"/>
</g>
<!-- Node_100 -->
<g id="node5" class="node">
<title>Node_100</title>
<polygon fill="#f2f2f2" stroke="none" points="370.31,-166 252.31,-166 252.31,-114 370.31,-114 370.31,-166"/>
<polygon fill="none" stroke="black" points="252.31,-140 252.31,-166 370.31,-166 370.31,-140 252.31,-140"/>
<text text-anchor="start" x="265.94" y="-148.7" font-family="Courier New" font-weight="bold" font-size="14.00">IntegerNode</text>
<polygon fill="none" stroke="black" points="252.31,-114 252.31,-140 303.31,-140 303.31,-114 252.31,-114"/>
<text text-anchor="start" x="257.19" y="-121.7" font-family="Courier New" font-size="14.00">flags</text>
<polygon fill="none" stroke="black" points="303.31,-114 303.31,-140 370.31,-140 370.31,-114 303.31,-114"/>
<text text-anchor="start" x="307.94" y="-121.7" font-family="Courier New" font-size="14.00">decimal</text>
</g>
<!-- Node_60&#45;&gt;Node_100 -->
<g id="edge2" class="edge">
<title>Node_60:value&#45;&gt;Node_100</title>
<path fill="none" stroke="black" d="M344.31,-267C382.46,-267 356,-212.28 333.52,-174.96"/>
<polygon fill="black" stroke="black" points="336.15,-173.57 327.93,-166.89 330.2,-177.24 336.15,-173.57"/>
</g>
<!-- Node_120 -->
<g id="node3" class="node">
<title>Node_120</title>
<polygon fill="#f2f2f2" stroke="none" points="99.81,-39.25 22.81,-39.25 22.81,-12.75 99.81,-12.75 99.81,-39.25"/>
<polygon fill="none" stroke="black" points="22.81,-12.75 22.81,-39.25 99.81,-39.25 99.81,-12.75 22.81,-12.75"/>
<text text-anchor="start" x="28.31" y="-21.95" font-family="Courier New" font-weight="bold" font-size="14.00">SelfNode</text>
</g>
<!-- Node_80&#45;&gt;Node_120 -->
<g id="edge3" class="edge">
<title>Node_80:parent&#45;&gt;Node_120</title>
<path fill="none" stroke="black" d="M15.31,-153C-13.58,-153 7.08,-115.38 16.31,-88 21.43,-72.85 31.83,-58.34 41.34,-47.27"/>
<polygon fill="black" stroke="black" points="43.54,-49.95 47.66,-40.19 38.35,-45.25 43.54,-49.95"/>
</g>
<!-- Node_140 -->
<g id="node4" class="node">
<title>Node_140</title>
<polygon fill="#f2f2f2" stroke="none" points="260.31,-52 118.31,-52 118.31,0 260.31,0 260.31,-52"/>
<polygon fill="none" stroke="black" points="118.31,-26 118.31,-52 260.31,-52 260.31,-26 118.31,-26"/>
<text text-anchor="start" x="123.31" y="-34.7" font-family="Courier New" font-weight="bold" font-size="14.00">ConstantReadNode</text>
<polygon fill="none" stroke="black" points="118.31,0 118.31,-26 189.31,-26 189.31,0 118.31,0"/>
<text text-anchor="start" x="123.31" y="-7.7" font-family="Courier New" font-size="14.00">name</text>
<polygon fill="none" stroke="black" points="189.31,0 189.31,-26 260.31,-26 260.31,0 189.31,0"/>
<text text-anchor="start" x="208.31" y="-7.7" font-family="Courier New" font-size="14.00">:Foo</text>
</g>
<!-- Node_80&#45;&gt;Node_140 -->
<g id="edge4" class="edge">
<title>Node_80:child&#45;&gt;Node_140</title>
<path fill="none" stroke="black" d="M235.31,-127C243.98,-127 237.13,-96.2 234.31,-88 231.02,-78.4 225.63,-69.05 219.7,-60.67"/>
<polygon fill="black" stroke="black" points="221.96,-58.85 213.13,-52.99 216.38,-63.08 221.96,-58.85"/>
</g>
</g>
</svg>
