<?xml version="1.0" encoding="UTF-8" standalone="no"?>
<!DOCTYPE svg PUBLIC "-//W3C//DTD SVG 1.1//EN"
 "http://www.w3.org/Graphics/SVG/1.1/DTD/svg11.dtd">
<!-- Generated by graphviz version 8.1.0 (20230707.0739)
 -->
<!-- Title: Prism Pages: 1 -->
<svg width="262pt" height="200pt"
 viewBox="0.00 0.00 262.00 200.00" xmlns="http://www.w3.org/2000/svg" xmlns:xlink="http://www.w3.org/1999/xlink">
<g id="graph0" class="graph" transform="scale(1 1) rotate(0) translate(4 196)">
<title>Prism</title>
<polygon fill="white" stroke="none" points="-4,4 -4,-196 258,-196 258,4 -4,4"/>
<!-- Node_60 -->
<g id="node1" class="node">
<title>Node_60</title>
<polygon fill="#f2f2f2" stroke="none" points="231.5,-192 22.5,-192 22.5,-88 231.5,-88 231.5,-192"/>
<polygon fill="none" stroke="black" points="22.5,-166 22.5,-192 231.5,-192 231.5,-166 22.5,-166"/>
<text text-anchor="start" x="98.12" y="-174.7" font-family="Courier New" font-weight="bold" font-size="14.00">AndNode</text>
<polygon fill="none" stroke="black" points="22.5,-140 22.5,-166 231.5,-166 231.5,-140 22.5,-140"/>
<text text-anchor="start" x="27.5" y="-147.7" font-family="Courier New" font-size="14.00">left</text>
<polygon fill="none" stroke="black" points="22.5,-114 22.5,-140 231.5,-140 231.5,-114 22.5,-114"/>
<text text-anchor="start" x="27.5" y="-121.7" font-family="Courier New" font-size="14.00">right</text>
<polygon fill="none" stroke="black" points="22.5,-88 22.5,-114 131.5,-114 131.5,-88 22.5,-88"/>
<text text-anchor="start" x="27.5" y="-95.7" font-family="Courier New" font-size="14.00">operator_loc</text>
<polygon fill="none" stroke="black" points="131.5,-88 131.5,-114 231.5,-114 231.5,-88 131.5,-88"/>
<text text-anchor="start" x="136.12" y="-95.7" font-family="Courier New" font-size="14.00">(1,2)&#45;(1,5)</text>
</g>
<!-- Node_80 -->
<g id="node2" class="node">
<title>Node_80</title>
<polygon fill="#f2f2f2" stroke="none" points="118,-52 0,-52 0,0 118,0 118,-52"/>
<polygon fill="none" stroke="black" points="0,-26 0,-52 118,-52 118,-26 0,-26"/>
<text text-anchor="start" x="13.62" y="-34.7" font-family="Courier New" font-weight="bold" font-size="14.00">IntegerNode</text>
<polygon fill="none" stroke="black" points="0,0 0,-26 51,-26 51,0 0,0"/>
<text text-anchor="start" x="4.88" y="-7.7" font-family="Courier New" font-size="14.00">flags</text>
<polygon fill="none" stroke="black" points="51,0 51,-26 118,-26 118,0 51,0"/>
<text text-anchor="start" x="55.62" y="-7.7" font-family="Courier New" font-size="14.00">decimal</text>
</g>
<!-- Node_60&#45;&gt;Node_80 -->
<g id="edge1" class="edge">
<title>Node_60:left&#45;&gt;Node_80</title>
<path fill="none" stroke="black" d="M21,-153C-17.55,-153 11.21,-98.28 35.31,-60.96"/>
<polygon fill="black" stroke="black" points="38.71,-63.17 41.29,-52.89 32.86,-59.31 38.71,-63.17"/>
</g>
<!-- Node_100 -->
<g id="node3" class="node">
<title>Node_100</title>
<polygon fill="#f2f2f2" stroke="none" points="254,-52 136,-52 136,0 254,0 254,-52"/>
<polygon fill="none" stroke="black" points="136,-26 136,-52 254,-52 254,-26 136,-26"/>
<text text-anchor="start" x="149.62" y="-34.7" font-family="Courier New" font-weight="bold" font-size="14.00">IntegerNode</text>
<polygon fill="none" stroke="black" points="136,0 136,-26 187,-26 187,0 136,0"/>
<text text-anchor="start" x="140.88" y="-7.7" font-family="Courier New" font-size="14.00">flags</text>
<polygon fill="none" stroke="black" points="187,0 187,-26 254,-26 254,0 187,0"/>
<text text-anchor="start" x="191.62" y="-7.7" font-family="Courier New" font-size="14.00">decimal</text>
</g>
<!-- Node_60&#45;&gt;Node_100 -->
<g id="edge2" class="edge">
<title>Node_60:right&#45;&gt;Node_100</title>
<path fill="none" stroke="black" d="M233,-127C262.03,-127 241.44,-89.71 221,-60.67"/>
<polygon fill="black" stroke="black" points="223.41,-59.03 214.72,-52.98 217.74,-63.13 223.41,-59.03"/>
</g>
</g>
</svg>
