<?xml version="1.0" encoding="UTF-8" standalone="no"?>
<!DOCTYPE svg PUBLIC "-//W3C//DTD SVG 1.1//EN"
 "http://www.w3.org/Graphics/SVG/1.1/DTD/svg11.dtd">
<!-- Generated by graphviz version 8.1.0 (20230707.0739)
 -->
<!-- Title: Prism Pages: 1 -->
<svg width="502pt" height="842pt"
 viewBox="0.00 0.00 501.50 841.60" xmlns="http://www.w3.org/2000/svg" xmlns:xlink="http://www.w3.org/1999/xlink">
<g id="graph0" class="graph" transform="scale(1 1) rotate(0) translate(4 837.6)">
<title>Prism</title>
<polygon fill="white" stroke="none" points="-4,4 -4,-837.6 497.5,-837.6 497.5,4 -4,4"/>
<!-- Node_60 -->
<g id="node1" class="node">
<title>Node_60</title>
<polygon fill="#f2f2f2" stroke="none" points="379.5,-833.6 112.5,-833.6 112.5,-573.6 379.5,-573.6 379.5,-833.6"/>
<polygon fill="none" stroke="black" points="112.5,-807.6 112.5,-833.6 379.5,-833.6 379.5,-807.6 112.5,-807.6"/>
<text text-anchor="start" x="217.12" y="-816.3" font-family="Courier New" font-weight="bold" font-size="14.00">DefNode</text>
<polygon fill="none" stroke="black" points="112.5,-781.6 112.5,-807.6 262.5,-807.6 262.5,-781.6 112.5,-781.6"/>
<text text-anchor="start" x="117.5" y="-789.3" font-family="Courier New" font-size="14.00">name</text>
<polygon fill="none" stroke="black" points="262.5,-781.6 262.5,-807.6 379.5,-807.6 379.5,-781.6 262.5,-781.6"/>
<text text-anchor="start" x="304.5" y="-789.3" font-family="Courier New" font-size="14.00">:foo</text>
<polygon fill="none" stroke="black" points="112.5,-755.6 112.5,-781.6 262.5,-781.6 262.5,-755.6 112.5,-755.6"/>
<text text-anchor="start" x="117.5" y="-763.3" font-family="Courier New" font-size="14.00">name_loc</text>
<polygon fill="none" stroke="black" points="262.5,-755.6 262.5,-781.6 379.5,-781.6 379.5,-755.6 262.5,-755.6"/>
<text text-anchor="start" x="275.62" y="-763.3" font-family="Courier New" font-size="14.00">(1,4)&#45;(1,7)</text>
<polygon fill="none" stroke="black" points="112.5,-729.6 112.5,-755.6 379.5,-755.6 379.5,-729.6 112.5,-729.6"/>
<text text-anchor="start" x="117.5" y="-737.3" font-family="Courier New" font-size="14.00">parameters</text>
<polygon fill="none" stroke="black" points="112.5,-703.6 112.5,-729.6 262.5,-729.6 262.5,-703.6 112.5,-703.6"/>
<text text-anchor="start" x="117.5" y="-711.3" font-family="Courier New" font-size="14.00">locals</text>
<polygon fill="none" stroke="black" points="262.5,-703.6 262.5,-729.6 379.5,-729.6 379.5,-703.6 262.5,-703.6"/>
<text text-anchor="start" x="271.5" y="-711.3" font-family="Courier New" font-size="14.00">[:bar, :baz]</text>
<polygon fill="none" stroke="black" points="112.5,-677.6 112.5,-703.6 262.5,-703.6 262.5,-677.6 112.5,-677.6"/>
<text text-anchor="start" x="117.38" y="-685.3" font-family="Courier New" font-size="14.00">locals_body_index</text>
<polygon fill="none" stroke="black" points="262.5,-677.6 262.5,-703.6 379.5,-703.6 379.5,-677.6 262.5,-677.6"/>
<text text-anchor="start" x="316.88" y="-685.3" font-family="Courier New" font-size="14.00">2</text>
<polygon fill="none" stroke="black" points="112.5,-651.6 112.5,-677.6 262.5,-677.6 262.5,-651.6 112.5,-651.6"/>
<text text-anchor="start" x="117.5" y="-659.3" font-family="Courier New" font-size="14.00">def_keyword_loc</text>
<polygon fill="none" stroke="black" points="262.5,-651.6 262.5,-677.6 379.5,-677.6 379.5,-651.6 262.5,-651.6"/>
<text text-anchor="start" x="275.62" y="-659.3" font-family="Courier New" font-size="14.00">(1,0)&#45;(1,3)</text>
<polygon fill="none" stroke="black" points="112.5,-625.6 112.5,-651.6 262.5,-651.6 262.5,-625.6 112.5,-625.6"/>
<text text-anchor="start" x="117.5" y="-633.3" font-family="Courier New" font-size="14.00">lparen_loc</text>
<polygon fill="none" stroke="black" points="262.5,-625.6 262.5,-651.6 379.5,-651.6 379.5,-625.6 262.5,-625.6"/>
<text text-anchor="start" x="275.62" y="-633.3" font-family="Courier New" font-size="14.00">(1,7)&#45;(1,8)</text>
<polygon fill="none" stroke="black" points="112.5,-599.6 112.5,-625.6 262.5,-625.6 262.5,-599.6 112.5,-599.6"/>
<text text-anchor="start" x="117.5" y="-607.3" font-family="Courier New" font-size="14.00">rparen_loc</text>
<polygon fill="none" stroke="black" points="262.5,-599.6 262.5,-625.6 379.5,-625.6 379.5,-599.6 262.5,-599.6"/>
<text text-anchor="start" x="267.38" y="-607.3" font-family="Courier New" font-size="14.00">(1,21)&#45;(1,22)</text>
<polygon fill="none" stroke="black" points="112.5,-573.6 112.5,-599.6 262.5,-599.6 262.5,-573.6 112.5,-573.6"/>
<text text-anchor="start" x="117.5" y="-581.3" font-family="Courier New" font-size="14.00">end_keyword_loc</text>
<polygon fill="none" stroke="black" points="262.5,-573.6 262.5,-599.6 379.5,-599.6 379.5,-573.6 262.5,-573.6"/>
<text text-anchor="start" x="267.38" y="-581.3" font-family="Courier New" font-size="14.00">(1,23)&#45;(1,26)</text>
</g>
<!-- Node_80 -->
<g id="node2" class="node">
<title>Node_80</title>
<polygon fill="#f2f2f2" stroke="none" points="308.5,-537.6 183.5,-537.6 183.5,-407.6 308.5,-407.6 308.5,-537.6"/>
<polygon fill="none" stroke="black" points="183.5,-511.6 183.5,-537.6 308.5,-537.6 308.5,-511.6 183.5,-511.6"/>
<text text-anchor="start" x="188.25" y="-520.3" font-family="Courier New" font-weight="bold" font-size="14.00">ParametersNode</text>
<polygon fill="none" stroke="black" points="183.5,-485.6 183.5,-511.6 308.5,-511.6 308.5,-485.6 183.5,-485.6"/>
<text text-anchor="start" x="188.5" y="-493.3" font-family="Courier New" font-size="14.00">requireds</text>
<polygon fill="none" stroke="black" points="183.5,-459.6 183.5,-485.6 274.5,-485.6 274.5,-459.6 183.5,-459.6"/>
<text text-anchor="start" x="188.5" y="-467.3" font-family="Courier New" font-size="14.00">optionals</text>
<polygon fill="none" stroke="black" points="274.5,-459.6 274.5,-485.6 308.5,-485.6 308.5,-459.6 274.5,-459.6"/>
<text text-anchor="start" x="283.25" y="-467.3" font-family="Courier New" font-size="14.00">[]</text>
<polygon fill="none" stroke="black" points="183.5,-433.6 183.5,-459.6 274.5,-459.6 274.5,-433.6 183.5,-433.6"/>
<text text-anchor="start" x="188.5" y="-441.3" font-family="Courier New" font-size="14.00">posts</text>
<polygon fill="none" stroke="black" points="274.5,-433.6 274.5,-459.6 308.5,-459.6 308.5,-433.6 274.5,-433.6"/>
<text text-anchor="start" x="283.25" y="-441.3" font-family="Courier New" font-size="14.00">[]</text>
<polygon fill="none" stroke="black" points="183.5,-407.6 183.5,-433.6 274.5,-433.6 274.5,-407.6 183.5,-407.6"/>
<text text-anchor="start" x="188.5" y="-415.3" font-family="Courier New" font-size="14.00">keywords</text>
<polygon fill="none" stroke="black" points="274.5,-407.6 274.5,-433.6 308.5,-433.6 308.5,-407.6 274.5,-407.6"/>
<text text-anchor="start" x="283.25" y="-415.3" font-family="Courier New" font-size="14.00">[]</text>
</g>
<!-- Node_60&#45;&gt;Node_80 -->
<g id="edge1" class="edge">
<title>Node_60:parameters&#45;&gt;Node_80</title>
<path fill="none" stroke="black" d="M381,-742.6C456.11,-742.6 413.87,-640.64 380,-573.6 366.42,-546.72 341.83,-525.2 317.4,-509.11"/>
<polygon fill="black" stroke="black" points="319.74,-505.82 309.42,-503.43 316,-511.74 319.74,-505.82"/>
</g>
<!-- Node_80_requireds -->
<g id="node7" class="node">
<title>Node_80_requireds</title>
<ellipse fill="#f2f2f2" stroke="black" cx="246" cy="-369.8" rx="1.8" ry="1.8"/>
</g>
<!-- Node_80&#45;&gt;Node_80_requireds -->
<g id="edge2" class="edge">
<title>Node_80:requireds&#45;&gt;Node_80_requireds</title>
<path fill="none" stroke="black" d="M310,-498.6C350.45,-498.6 329.33,-442.57 309,-407.6 298,-388.68 273.15,-378.54 258.16,-373.94"/>
<polygon fill="black" stroke="black" points="259.14,-370.31 248.58,-371.13 257.34,-377.08 259.14,-370.31"/>
</g>
<!-- Node_100 -->
<g id="node3" class="node">
<title>Node_100</title>
<polygon fill="#f2f2f2" stroke="none" points="350.5,-332 141.5,-332 141.5,-176 350.5,-176 350.5,-332"/>
<polygon fill="none" stroke="black" points="141.5,-306 141.5,-332 350.5,-332 350.5,-306 141.5,-306"/>
<text text-anchor="start" x="184.12" y="-314.7" font-family="Courier New" font-weight="bold" font-size="14.00">MultiTargetNode</text>
<polygon fill="none" stroke="black" points="141.5,-280 141.5,-306 350.5,-306 350.5,-280 141.5,-280"/>
<text text-anchor="start" x="146.5" y="-287.7" font-family="Courier New" font-size="14.00">lefts</text>
<polygon fill="none" stroke="black" points="141.5,-254 141.5,-280 350.5,-280 350.5,-254 141.5,-254"/>
<text text-anchor="start" x="146.5" y="-261.7" font-family="Courier New" font-size="14.00">rest</text>
<polygon fill="none" stroke="black" points="141.5,-228 141.5,-254 350.5,-254 350.5,-228 141.5,-228"/>
<text text-anchor="start" x="146.5" y="-235.7" font-family="Courier New" font-size="14.00">rights</text>
<polygon fill="none" stroke="black" points="141.5,-202 141.5,-228 233.5,-228 233.5,-202 141.5,-202"/>
<text text-anchor="start" x="146.25" y="-209.7" font-family="Courier New" font-size="14.00">lparen_loc</text>
<polygon fill="none" stroke="black" points="233.5,-202 233.5,-228 350.5,-228 350.5,-202 233.5,-202"/>
<text text-anchor="start" x="246.62" y="-209.7" font-family="Courier New" font-size="14.00">(1,8)&#45;(1,9)</text>
<polygon fill="none" stroke="black" points="141.5,-176 141.5,-202 233.5,-202 233.5,-176 141.5,-176"/>
<text text-anchor="start" x="146.25" y="-183.7" font-family="Courier New" font-size="14.00">rparen_loc</text>
<polygon fill="none" stroke="black" points="233.5,-176 233.5,-202 350.5,-202 350.5,-176 233.5,-176"/>
<text text-anchor="start" x="238.38" y="-183.7" font-family="Courier New" font-size="14.00">(1,20)&#45;(1,21)</text>
</g>
<!-- Node_140 -->
<g id="node5" class="node">
<title>Node_140</title>
<polygon fill="#f2f2f2" stroke="none" points="226,-140 0,-140 0,-88 226,-88 226,-140"/>
<polygon fill="none" stroke="black" points="0,-114 0,-140 226,-140 226,-114 0,-114"/>
<text text-anchor="start" x="75.88" y="-122.7" font-family="Courier New" font-weight="bold" font-size="14.00">SplatNode</text>
<polygon fill="none" stroke="black" points="0,-88 0,-114 109,-114 109,-88 0,-88"/>
<text text-anchor="start" x="5" y="-95.7" font-family="Courier New" font-size="14.00">operator_loc</text>
<polygon fill="none" stroke="black" points="109,-88 109,-114 226,-114 226,-88 109,-88"/>
<text text-anchor="start" x="113.88" y="-95.7" font-family="Courier New" font-size="14.00">(1,14)&#45;(1,15)</text>
</g>
<!-- Node_100&#45;&gt;Node_140 -->
<g id="edge6" class="edge">
<title>Node_100:rest&#45;&gt;Node_140</title>
<path fill="none" stroke="black" d="M140,-267C92.93,-267 97.73,-195.47 105.39,-150.55"/>
<polygon fill="black" stroke="black" points="109.01,-151.23 107.37,-140.76 102.12,-149.96 109.01,-151.23"/>
</g>
<!-- Node_100_lefts -->
<g id="node8" class="node">
<title>Node_100_lefts</title>
<ellipse fill="#f2f2f2" stroke="black" cx="246" cy="-114" rx="1.8" ry="1.8"/>
</g>
<!-- Node_100&#45;&gt;Node_100_lefts -->
<g id="edge4" class="edge">
<title>Node_100:lefts&#45;&gt;Node_100_lefts</title>
<path fill="none" stroke="black" d="M352,-293C404,-293 377.13,-220.96 351,-176 330.57,-140.85 281.32,-124.04 258.28,-117.89"/>
<polygon fill="black" stroke="black" points="259.18,-114.26 248.64,-115.33 257.55,-121.07 259.18,-114.26"/>
</g>
<!-- Node_100_rights -->
<g id="node9" class="node">
<title>Node_100_rights</title>
<ellipse fill="#f2f2f2" stroke="black" cx="357" cy="-114" rx="1.8" ry="1.8"/>
</g>
<!-- Node_100&#45;&gt;Node_100_rights -->
<g id="edge7" class="edge">
<title>Node_100:rights&#45;&gt;Node_100_rights</title>
<path fill="none" stroke="black" d="M352,-241C397.91,-241 371.96,-156.47 361.08,-125.88"/>
<polygon fill="black" stroke="black" points="364.09,-124.95 357.32,-116.8 357.53,-127.4 364.09,-124.95"/>
</g>
<!-- Node_120 -->
<g id="node4" class="node">
<title>Node_120</title>
<polygon fill="#f2f2f2" stroke="none" points="292.5,-52 109.5,-52 109.5,0 292.5,0 292.5,-52"/>
<polygon fill="none" stroke="black" points="109.5,-26 109.5,-52 292.5,-52 292.5,-26 109.5,-26"/>
<text text-anchor="start" x="114.38" y="-34.7" font-family="Courier New" font-weight="bold" font-size="14.00">RequiredParameterNode</text>
<polygon fill="none" stroke="black" points="109.5,0 109.5,-26 200.5,-26 200.5,0 109.5,0"/>
<text text-anchor="start" x="114.5" y="-7.7" font-family="Courier New" font-size="14.00">name</text>
<polygon fill="none" stroke="black" points="200.5,0 200.5,-26 292.5,-26 292.5,0 200.5,0"/>
<text text-anchor="start" x="230" y="-7.7" font-family="Courier New" font-size="14.00">:bar</text>
</g>
<!-- Node_160 -->
<g id="node6" class="node">
<title>Node_160</title>
<polygon fill="#f2f2f2" stroke="none" points="493.5,-52 310.5,-52 310.5,0 493.5,0 493.5,-52"/>
<polygon fill="none" stroke="black" points="310.5,-26 310.5,-52 493.5,-52 493.5,-26 310.5,-26"/>
<text text-anchor="start" x="315.38" y="-34.7" font-family="Courier New" font-weight="bold" font-size="14.00">RequiredParameterNode</text>
<polygon fill="none" stroke="black" points="310.5,0 310.5,-26 401.5,-26 401.5,0 310.5,0"/>
<text text-anchor="start" x="315.5" y="-7.7" font-family="Courier New" font-size="14.00">name</text>
<polygon fill="none" stroke="black" points="401.5,0 401.5,-26 493.5,-26 493.5,0 401.5,0"/>
<text text-anchor="start" x="431" y="-7.7" font-family="Courier New" font-size="14.00">:baz</text>
</g>
<!-- Node_80_requireds&#45;&gt;Node_100 -->
<g id="edge3" class="edge">
<title>Node_80_requireds&#45;&gt;Node_100</title>
<path fill="none" stroke="black" d="M246,-367.52C246,-364.2 246,-354.71 246,-342.57"/>
<polygon fill="black" stroke="black" points="249.5,-342.81 246,-332.81 242.5,-342.81 249.5,-342.81"/>
</g>
<!-- Node_100_lefts&#45;&gt;Node_120 -->
<g id="edge5" class="edge">
<title>Node_100_lefts&#45;&gt;Node_120</title>
<path fill="none" stroke="black" d="M245.61,-112.03C244.26,-108.66 239.56,-97.17 235,-88 230.65,-79.24 225.66,-69.95 220.87,-61.33"/>
<polygon fill="black" stroke="black" points="223.55,-59.95 215.6,-52.94 217.45,-63.38 223.55,-59.95"/>
</g>
<!-- Node_100_rights&#45;&gt;Node_160 -->
<g id="edge8" class="edge">
<title>Node_100_rights&#45;&gt;Node_160</title>
<path fill="none" stroke="black" d="M357.51,-112.03C360.17,-106.95 372.87,-82.67 384.02,-61.35"/>
<polygon fill="black" stroke="black" points="387.46,-63.33 389,-52.85 381.26,-60.08 387.46,-63.33"/>
</g>
</g>
</svg>
