<?xml version="1.0" encoding="UTF-8" standalone="no"?>
<!DOCTYPE svg PUBLIC "-//W3C//DTD SVG 1.1//EN"
 "http://www.w3.org/Graphics/SVG/1.1/DTD/svg11.dtd">
<!-- Generated by graphviz version 8.1.0 (20230707.0739)
 -->
<!-- Title: Prism Pages: 1 -->
<svg width="624pt" height="672pt"
 viewBox="0.00 0.00 624.00 672.00" xmlns="http://www.w3.org/2000/svg" xmlns:xlink="http://www.w3.org/1999/xlink">
<g id="graph0" class="graph" transform="scale(1 1) rotate(0) translate(4 668)">
<title>Prism</title>
<polygon fill="white" stroke="none" points="-4,4 -4,-668 620,-668 620,4 -4,4"/>
<!-- Node_60 -->
<g id="node1" class="node">
<title>Node_60</title>
<polygon fill="#f2f2f2" stroke="none" points="330,-664 121,-664 121,-560 330,-560 330,-664"/>
<polygon fill="none" stroke="black" points="121,-638 121,-664 330,-664 330,-638 121,-638"/>
<text text-anchor="start" x="151.25" y="-646.7" font-family="Courier New" font-weight="bold" font-size="14.00">MatchPredicateNode</text>
<polygon fill="none" stroke="black" points="121,-612 121,-638 330,-638 330,-612 121,-612"/>
<text text-anchor="start" x="126" y="-619.7" font-family="Courier New" font-size="14.00">value</text>
<polygon fill="none" stroke="black" points="121,-586 121,-612 330,-612 330,-586 121,-586"/>
<text text-anchor="start" x="126" y="-593.7" font-family="Courier New" font-size="14.00">pattern</text>
<polygon fill="none" stroke="black" points="121,-560 121,-586 230,-586 230,-560 121,-560"/>
<text text-anchor="start" x="126" y="-567.7" font-family="Courier New" font-size="14.00">operator_loc</text>
<polygon fill="none" stroke="black" points="230,-560 230,-586 330,-586 330,-560 230,-560"/>
<text text-anchor="start" x="234.62" y="-567.7" font-family="Courier New" font-size="14.00">(1,7)&#45;(1,9)</text>
</g>
<!-- Node_80 -->
<g id="node2" class="node">
<title>Node_80</title>
<polygon fill="#f2f2f2" stroke="none" points="217,-511 0,-511 0,-407 217,-407 217,-511"/>
<polygon fill="none" stroke="black" points="0,-485 0,-511 217,-511 217,-485 0,-485"/>
<text text-anchor="start" x="75.5" y="-493.7" font-family="Courier New" font-weight="bold" font-size="14.00">CallNode</text>
<polygon fill="none" stroke="black" points="0,-459 0,-485 100,-485 100,-459 0,-459"/>
<text text-anchor="start" x="5" y="-466.7" font-family="Courier New" font-size="14.00">flags</text>
<polygon fill="none" stroke="black" points="100,-459 100,-485 217,-485 217,-459 100,-459"/>
<text text-anchor="start" x="104.88" y="-466.7" font-family="Courier New" font-size="14.00">variable_call</text>
<polygon fill="none" stroke="black" points="0,-433 0,-459 100,-459 100,-433 0,-433"/>
<text text-anchor="start" x="5" y="-440.7" font-family="Courier New" font-size="14.00">name</text>
<polygon fill="none" stroke="black" points="100,-433 100,-459 217,-459 217,-433 100,-433"/>
<text text-anchor="start" x="129.62" y="-440.7" font-family="Courier New" font-size="14.00">:person</text>
<polygon fill="none" stroke="black" points="0,-407 0,-433 100,-433 100,-407 0,-407"/>
<text text-anchor="start" x="4.62" y="-414.7" font-family="Courier New" font-size="14.00">message_loc</text>
<polygon fill="none" stroke="black" points="100,-407 100,-433 217,-433 217,-407 100,-407"/>
<text text-anchor="start" x="113.12" y="-414.7" font-family="Courier New" font-size="14.00">(1,0)&#45;(1,6)</text>
</g>
<!-- Node_60&#45;&gt;Node_80 -->
<g id="edge1" class="edge">
<title>Node_60:value&#45;&gt;Node_80</title>
<path fill="none" stroke="black" d="M119.5,-625C76.39,-625 80.07,-568.24 90.48,-521.3"/>
<polygon fill="black" stroke="black" points="94.05,-522.39 92.94,-511.85 87.24,-520.78 94.05,-522.39"/>
</g>
<!-- Node_100 -->
<g id="node3" class="node">
<title>Node_100</title>
<polygon fill="#f2f2f2" stroke="none" points="452,-524 235,-524 235,-394 452,-394 452,-524"/>
<polygon fill="none" stroke="black" points="235,-498 235,-524 452,-524 452,-498 235,-498"/>
<text text-anchor="start" x="281.62" y="-506.7" font-family="Courier New" font-weight="bold" font-size="14.00">HashPatternNode</text>
<polygon fill="none" stroke="black" points="235,-472 235,-498 452,-498 452,-472 235,-472"/>
<text text-anchor="start" x="240" y="-479.7" font-family="Courier New" font-size="14.00">constant</text>
<polygon fill="none" stroke="black" points="235,-446 235,-472 452,-472 452,-446 235,-446"/>
<text text-anchor="start" x="240" y="-453.7" font-family="Courier New" font-size="14.00">elements</text>
<polygon fill="none" stroke="black" points="235,-420 235,-446 335,-446 335,-420 235,-420"/>
<text text-anchor="start" x="239.62" y="-427.7" font-family="Courier New" font-size="14.00">opening_loc</text>
<polygon fill="none" stroke="black" points="335,-420 335,-446 452,-446 452,-420 335,-420"/>
<text text-anchor="start" x="339.88" y="-427.7" font-family="Courier New" font-size="14.00">(1,16)&#45;(1,17)</text>
<polygon fill="none" stroke="black" points="235,-394 235,-420 335,-420 335,-394 235,-394"/>
<text text-anchor="start" x="239.62" y="-401.7" font-family="Courier New" font-size="14.00">closing_loc</text>
<polygon fill="none" stroke="black" points="335,-394 335,-420 452,-420 452,-394 335,-394"/>
<text text-anchor="start" x="339.88" y="-401.7" font-family="Courier New" font-size="14.00">(1,30)&#45;(1,31)</text>
</g>
<!-- Node_60&#45;&gt;Node_100 -->
<g id="edge2" class="edge">
<title>Node_60:pattern&#45;&gt;Node_100</title>
<path fill="none" stroke="black" d="M331.5,-599C361.01,-599 365.15,-567.53 361.38,-534.53"/>
<polygon fill="black" stroke="black" points="364.74,-534.23 359.91,-524.8 357.8,-535.19 364.74,-534.23"/>
</g>
<!-- Node_120 -->
<g id="node4" class="node">
<title>Node_120</title>
<polygon fill="#f2f2f2" stroke="none" points="369.5,-358 227.5,-358 227.5,-306 369.5,-306 369.5,-358"/>
<polygon fill="none" stroke="black" points="227.5,-332 227.5,-358 369.5,-358 369.5,-332 227.5,-332"/>
<text text-anchor="start" x="232.5" y="-340.7" font-family="Courier New" font-weight="bold" font-size="14.00">ConstantReadNode</text>
<polygon fill="none" stroke="black" points="227.5,-306 227.5,-332 286.5,-332 286.5,-306 227.5,-306"/>
<text text-anchor="start" x="232.5" y="-313.7" font-family="Courier New" font-size="14.00">name</text>
<polygon fill="none" stroke="black" points="286.5,-306 286.5,-332 369.5,-332 369.5,-306 286.5,-306"/>
<text text-anchor="start" x="299.12" y="-313.7" font-family="Courier New" font-size="14.00">:Person</text>
</g>
<!-- Node_100&#45;&gt;Node_120 -->
<g id="edge3" class="edge">
<title>Node_100:constant&#45;&gt;Node_120</title>
<path fill="none" stroke="black" d="M233.5,-485C223.39,-485 230.47,-403.27 234.5,-394 239.14,-383.33 246.64,-373.63 254.91,-365.26"/>
<polygon fill="black" stroke="black" points="256.77,-368.37 261.65,-358.96 251.97,-363.28 256.77,-368.37"/>
</g>
<!-- Node_100_elements -->
<g id="node8" class="node">
<title>Node_100_elements</title>
<ellipse fill="#f2f2f2" stroke="black" cx="389.5" cy="-332" rx="1.8" ry="1.8"/>
</g>
<!-- Node_100&#45;&gt;Node_100_elements -->
<g id="edge4" class="edge">
<title>Node_100:elements&#45;&gt;Node_100_elements</title>
<path fill="none" stroke="black" d="M453.5,-459C482.39,-459 463.98,-420.52 452.5,-394 441.54,-368.68 414.52,-348.63 399.67,-339.09"/>
<polygon fill="black" stroke="black" points="402.06,-335.83 391.69,-333.65 398.43,-341.82 402.06,-335.83"/>
</g>
<!-- Node_140 -->
<g id="node5" class="node">
<title>Node_140</title>
<polygon fill="#f2f2f2" stroke="none" points="431.5,-270 347.5,-270 347.5,-192 431.5,-192 431.5,-270"/>
<polygon fill="none" stroke="black" points="347.5,-244 347.5,-270 431.5,-270 431.5,-244 347.5,-244"/>
<text text-anchor="start" x="352.38" y="-252.7" font-family="Courier New" font-weight="bold" font-size="14.00">AssocNode</text>
<polygon fill="none" stroke="black" points="347.5,-218 347.5,-244 431.5,-244 431.5,-218 347.5,-218"/>
<text text-anchor="start" x="352.5" y="-225.7" font-family="Courier New" font-size="14.00">key</text>
<polygon fill="none" stroke="black" points="347.5,-192 347.5,-218 431.5,-218 431.5,-192 347.5,-192"/>
<text text-anchor="start" x="352.5" y="-199.7" font-family="Courier New" font-size="14.00">value</text>
</g>
<!-- Node_160 -->
<g id="node6" class="node">
<title>Node_160</title>
<polygon fill="#f2f2f2" stroke="none" points="381,-143 164,-143 164,-13 381,-13 381,-143"/>
<polygon fill="none" stroke="black" points="164,-117 164,-143 381,-143 381,-117 164,-117"/>
<text text-anchor="start" x="231.25" y="-125.7" font-family="Courier New" font-weight="bold" font-size="14.00">SymbolNode</text>
<polygon fill="none" stroke="black" points="164,-91 164,-117 264,-117 264,-91 164,-91"/>
<text text-anchor="start" x="169" y="-98.7" font-family="Courier New" font-size="14.00">flags</text>
<polygon fill="none" stroke="black" points="264,-91 264,-117 381,-117 381,-91 264,-91"/>
<polygon fill="none" stroke="black" points="164,-65 164,-91 264,-91 264,-65 164,-65"/>
<text text-anchor="start" x="169" y="-72.7" font-family="Courier New" font-size="14.00">value_loc</text>
<polygon fill="none" stroke="black" points="264,-65 264,-91 381,-91 381,-65 264,-65"/>
<text text-anchor="start" x="268.88" y="-72.7" font-family="Courier New" font-size="14.00">(1,17)&#45;(1,21)</text>
<polygon fill="none" stroke="black" points="164,-39 164,-65 264,-65 264,-39 164,-39"/>
<text text-anchor="start" x="168.62" y="-46.7" font-family="Courier New" font-size="14.00">closing_loc</text>
<polygon fill="none" stroke="black" points="264,-39 264,-65 381,-65 381,-39 264,-39"/>
<text text-anchor="start" x="268.88" y="-46.7" font-family="Courier New" font-size="14.00">(1,21)&#45;(1,22)</text>
<polygon fill="none" stroke="black" points="164,-13 164,-39 264,-39 264,-13 164,-13"/>
<text text-anchor="start" x="169" y="-20.7" font-family="Courier New" font-size="14.00">unescaped</text>
<polygon fill="none" stroke="black" points="264,-13 264,-39 381,-39 381,-13 264,-13"/>
<text text-anchor="start" x="297.75" y="-20.7" font-family="Courier New" font-size="14.00">&quot;name&quot;</text>
</g>
<!-- Node_140&#45;&gt;Node_160 -->
<g id="edge6" class="edge">
<title>Node_140:key&#45;&gt;Node_160</title>
<path fill="none" stroke="black" d="M346.5,-231C308.24,-231 289.76,-191.59 280.83,-152.91"/>
<polygon fill="black" stroke="black" points="284.14,-152.65 278.66,-143.58 277.29,-154.09 284.14,-152.65"/>
</g>
<!-- Node_180 -->
<g id="node7" class="node">
<title>Node_180</title>
<polygon fill="#f2f2f2" stroke="none" points="616,-156 399,-156 399,0 616,0 616,-156"/>
<polygon fill="none" stroke="black" points="399,-130 399,-156 616,-156 616,-130 399,-130"/>
<text text-anchor="start" x="466.25" y="-138.7" font-family="Courier New" font-weight="bold" font-size="14.00">StringNode</text>
<polygon fill="none" stroke="black" points="399,-104 399,-130 499,-130 499,-104 399,-104"/>
<text text-anchor="start" x="404" y="-111.7" font-family="Courier New" font-size="14.00">flags</text>
<polygon fill="none" stroke="black" points="499,-104 499,-130 616,-130 616,-104 499,-104"/>
<polygon fill="none" stroke="black" points="399,-78 399,-104 499,-104 499,-78 399,-78"/>
<text text-anchor="start" x="403.62" y="-85.7" font-family="Courier New" font-size="14.00">opening_loc</text>
<polygon fill="none" stroke="black" points="499,-78 499,-104 616,-104 616,-78 499,-78"/>
<text text-anchor="start" x="503.88" y="-85.7" font-family="Courier New" font-size="14.00">(1,23)&#45;(1,24)</text>
<polygon fill="none" stroke="black" points="399,-52 399,-78 499,-78 499,-52 399,-52"/>
<text text-anchor="start" x="403.62" y="-59.7" font-family="Courier New" font-size="14.00">content_loc</text>
<polygon fill="none" stroke="black" points="499,-52 499,-78 616,-78 616,-52 499,-52"/>
<text text-anchor="start" x="503.88" y="-59.7" font-family="Courier New" font-size="14.00">(1,24)&#45;(1,29)</text>
<polygon fill="none" stroke="black" points="399,-26 399,-52 499,-52 499,-26 399,-26"/>
<text text-anchor="start" x="403.62" y="-33.7" font-family="Courier New" font-size="14.00">closing_loc</text>
<polygon fill="none" stroke="black" points="499,-26 499,-52 616,-52 616,-26 499,-26"/>
<text text-anchor="start" x="503.88" y="-33.7" font-family="Courier New" font-size="14.00">(1,29)&#45;(1,30)</text>
<polygon fill="none" stroke="black" points="399,0 399,-26 499,-26 499,0 399,0"/>
<text text-anchor="start" x="404" y="-7.7" font-family="Courier New" font-size="14.00">unescaped</text>
<polygon fill="none" stroke="black" points="499,0 499,-26 616,-26 616,0 499,0"/>
<text text-anchor="start" x="528.62" y="-7.7" font-family="Courier New" font-size="14.00">&quot;Kevin&quot;</text>
</g>
<!-- Node_140&#45;&gt;Node_180 -->
<g id="edge7" class="edge">
<title>Node_140:value&#45;&gt;Node_180</title>
<path fill="none" stroke="black" d="M432.5,-205C456.67,-205 473.23,-187.67 484.5,-165.86"/>
<polygon fill="black" stroke="black" points="488.08,-167.46 489.16,-156.92 481.74,-164.49 488.08,-167.46"/>
</g>
<!-- Node_100_elements&#45;&gt;Node_140 -->
<g id="edge5" class="edge">
<title>Node_100_elements&#45;&gt;Node_140</title>
<path fill="none" stroke="black" d="M389.5,-329.89C389.5,-324.76 389.5,-302.74 389.5,-280.87"/>
<polygon fill="black" stroke="black" points="393,-280.89 389.5,-270.89 386,-280.89 393,-280.89"/>
</g>
</g>
</svg>
