<?xml version="1.0" encoding="UTF-8" standalone="no"?>
<!DOCTYPE svg PUBLIC "-//W3C//DTD SVG 1.1//EN"
 "http://www.w3.org/Graphics/SVG/1.1/DTD/svg11.dtd">
<!-- Generated by graphviz version 8.1.0 (20230707.0739)
 -->
<!-- Title: Prism Pages: 1 -->
<svg width="246pt" height="354pt"
 viewBox="0.00 0.00 245.92 354.10" xmlns="http://www.w3.org/2000/svg" xmlns:xlink="http://www.w3.org/1999/xlink">
<g id="graph0" class="graph" transform="scale(1 1) rotate(0) translate(4 350.1)">
<title>Prism</title>
<polygon fill="white" stroke="none" points="-4,4 -4,-350.1 241.92,-350.1 241.92,4 -4,4"/>
<!-- Node_60 -->
<g id="node1" class="node">
<title>Node_60</title>
<polygon fill="#f2f2f2" stroke="none" points="215.42,-346.1 15.42,-346.1 15.42,-190.1 215.42,-190.1 215.42,-346.1"/>
<polygon fill="none" stroke="black" points="15.42,-320.1 15.42,-346.1 215.42,-346.1 215.42,-320.1 15.42,-320.1"/>
<text text-anchor="start" x="78.3" y="-328.8" font-family="Courier New" font-weight="bold" font-size="14.00">WhileNode</text>
<polygon fill="none" stroke="black" points="15.42,-294.1 15.42,-320.1 115.42,-320.1 115.42,-294.1 15.42,-294.1"/>
<text text-anchor="start" x="20.42" y="-301.8" font-family="Courier New" font-size="14.00">flags</text>
<polygon fill="none" stroke="black" points="115.42,-294.1 115.42,-320.1 215.42,-320.1 215.42,-294.1 115.42,-294.1"/>
<polygon fill="none" stroke="black" points="15.42,-268.1 15.42,-294.1 115.42,-294.1 115.42,-268.1 15.42,-268.1"/>
<text text-anchor="start" x="20.05" y="-275.8" font-family="Courier New" font-size="14.00">keyword_loc</text>
<polygon fill="none" stroke="black" points="115.42,-268.1 115.42,-294.1 215.42,-294.1 215.42,-268.1 115.42,-268.1"/>
<text text-anchor="start" x="120.05" y="-275.8" font-family="Courier New" font-size="14.00">(1,0)&#45;(1,5)</text>
<polygon fill="none" stroke="black" points="15.42,-242.1 15.42,-268.1 115.42,-268.1 115.42,-242.1 15.42,-242.1"/>
<text text-anchor="start" x="20.05" y="-249.8" font-family="Courier New" font-size="14.00">closing_loc</text>
<polygon fill="none" stroke="black" points="115.42,-242.1 115.42,-268.1 215.42,-268.1 215.42,-242.1 115.42,-242.1"/>
<text text-anchor="start" x="120.05" y="-249.8" font-family="Courier New" font-size="14.00">(3,0)&#45;(3,3)</text>
<polygon fill="none" stroke="black" points="15.42,-216.1 15.42,-242.1 215.42,-242.1 215.42,-216.1 15.42,-216.1"/>
<text text-anchor="start" x="20.42" y="-223.8" font-family="Courier New" font-size="14.00">predicate</text>
<polygon fill="none" stroke="black" points="15.42,-190.1 15.42,-216.1 215.42,-216.1 215.42,-190.1 15.42,-190.1"/>
<text text-anchor="start" x="20.42" y="-197.8" font-family="Courier New" font-size="14.00">statements</text>
</g>
<!-- Node_80 -->
<g id="node2" class="node">
<title>Node_80</title>
<polygon fill="#f2f2f2" stroke="none" points="94.92,-141.35 17.92,-141.35 17.92,-114.85 94.92,-114.85 94.92,-141.35"/>
<polygon fill="none" stroke="black" points="17.92,-114.85 17.92,-141.35 94.92,-141.35 94.92,-114.85 17.92,-114.85"/>
<text text-anchor="start" x="23.42" y="-124.05" font-family="Courier New" font-weight="bold" font-size="14.00">TrueNode</text>
</g>
<!-- Node_60&#45;&gt;Node_80 -->
<g id="edge1" class="edge">
<title>Node_60:predicate&#45;&gt;Node_80</title>
<path fill="none" stroke="black" d="M14.42,-229.1C-19.88,-229.1 15.9,-178.47 39.39,-149.26"/>
<polygon fill="black" stroke="black" points="42.56,-151.92 46.2,-141.96 37.15,-147.48 42.56,-151.92"/>
</g>
<!-- Node_100 -->
<g id="node3" class="node">
<title>Node_100</title>
<polygon fill="#f2f2f2" stroke="none" points="237.92,-154.1 112.92,-154.1 112.92,-102.1 237.92,-102.1 237.92,-154.1"/>
<polygon fill="none" stroke="black" points="112.92,-128.1 112.92,-154.1 237.92,-154.1 237.92,-128.1 112.92,-128.1"/>
<text text-anchor="start" x="117.67" y="-136.8" font-family="Courier New" font-weight="bold" font-size="14.00">StatementsNode</text>
<polygon fill="none" stroke="black" points="112.92,-102.1 112.92,-128.1 237.92,-128.1 237.92,-102.1 112.92,-102.1"/>
<text text-anchor="start" x="117.92" y="-109.8" font-family="Courier New" font-size="14.00">body</text>
</g>
<!-- Node_60&#45;&gt;Node_100 -->
<g id="edge2" class="edge">
<title>Node_60:statements&#45;&gt;Node_100</title>
<path fill="none" stroke="black" d="M216.42,-203.1C236.69,-203.1 223.2,-181.6 206.45,-161.78"/>
<polygon fill="black" stroke="black" points="208.64,-159.96 199.42,-154.74 203.37,-164.57 208.64,-159.96"/>
</g>
<!-- Node_100_body -->
<g id="node5" class="node">
<title>Node_100_body</title>
<ellipse fill="#f2f2f2" stroke="black" cx="175.42" cy="-64.3" rx="1.8" ry="1.8"/>
</g>
<!-- Node_100&#45;&gt;Node_100_body -->
<g id="edge3" class="edge">
<title>Node_100:body&#45;&gt;Node_100_body</title>
<path fill="none" stroke="black" d="M175.42,-102.1C175.42,-93.86 175.42,-84.59 175.42,-77.41"/>
<polygon fill="black" stroke="black" points="178.92,-77.44 175.42,-67.44 171.92,-77.44 178.92,-77.44"/>
</g>
<!-- Node_120 -->
<g id="node4" class="node">
<title>Node_120</title>
<polygon fill="#f2f2f2" stroke="none" points="213.92,-26.5 136.92,-26.5 136.92,0 213.92,0 213.92,-26.5"/>
<polygon fill="none" stroke="black" points="136.92,0 136.92,-26.5 213.92,-26.5 213.92,0 136.92,0"/>
<text text-anchor="start" x="142.42" y="-9.2" font-family="Courier New" font-weight="bold" font-size="14.00">RedoNode</text>
</g>
<!-- Node_100_body&#45;&gt;Node_120 -->
<g id="edge4" class="edge">
<title>Node_100_body&#45;&gt;Node_120</title>
<path fill="none" stroke="black" d="M175.42,-62.09C175.42,-58.53 175.42,-47.74 175.42,-37.3"/>
<polygon fill="black" stroke="black" points="178.92,-37.47 175.42,-27.47 171.92,-37.47 178.92,-37.47"/>
</g>
</g>
</svg>
