<svg version="1.1" xmlns="http://www.w3.org/2000/svg" viewBox="0 0 620.4089844712089 536.4927292132406" width="620.4089844712089" height="536.4927292132406">
  <!-- svg-source:excalidraw -->
  
  <defs>
    <style class="style-fonts">
      @font-face {
        font-family: "Virgil";
        src: url("https://excalidraw.com/Virgil.woff2");
      }
      @font-face {
        font-family: "Cascadia";
        src: url("https://excalidraw.com/Cascadia.woff2");
      }
    </style>
  </defs>
  <rect x="0" y="0" width="620.4089844712089" height="536.4927292132406" fill="#ffffff"></rect><g stroke-linecap="round" transform="translate(295.4576075744026 10) rotate(0 37.890625 132.67191397897386)"><path d="M1.49 0.88 C16.14 1.28, 31.12 2.24, 75.4 -1.51 M0.95 1 C19.69 -0.74, 38.61 -0.86, 75.58 -0.32 M77.11 1.39 C73.6 93.22, 75.18 185.01, 75.56 266.18 M75.08 0.54 C77.62 85.49, 77.06 170.6, 75.86 266.12 M74.28 264.97 C55.12 266.66, 34.26 265.87, -1.31 264.76 M74.95 264.59 C59.92 265.28, 42.79 264.86, 0.52 265.68 M0.27 264.27 C1.89 163.49, 0.76 59.26, -0.19 0.33 M-0.46 266.04 C-1.75 175.06, -1.39 85.2, 0.49 0.54" stroke="#000000" stroke-width="1" fill="none"></path></g><g stroke-linecap="round" transform="translate(303.1201331891516 208.6616506760074) rotate(0 30.92578125 27.623046875)"><path d="M0 0 C0 0, 0 0, 0 0 M0 0 C0 0, 0 0, 0 0 M-0.63 6.97 C1.8 5.1, 2.03 3.16, 4.23 0.83 M-0.21 6.4 C1.16 5.34, 2.29 3.76, 4.8 -0.03 M0.37 10.96 C3.61 7.15, 6.46 3.59, 10.58 -0.57 M-0.56 11.62 C3.19 8.3, 6.25 4.62, 10.14 -0.47 M-0.5 18.98 C3.93 12.47, 9.93 6.5, 15.67 -0.56 M0.14 19.4 C6.6 10.88, 12.51 5.15, 14.89 0 M1.12 22.17 C9.25 15.83, 12.95 6.78, 22.14 -1.26 M-0.07 23.42 C7.85 14.08, 16.95 6.23, 21.83 -0.53 M0.34 31.37 C7.09 19.28, 16.71 10.67, 24.88 1.47 M0.61 30.45 C7.95 21.82, 15.85 13.64, 25.96 0.3 M0.49 35.36 C10.02 25.75, 22.01 11.49, 30.85 0.61 M-1.07 36.41 C7.17 28.16, 15.82 19.13, 32.77 0.86 M-1.17 42.18 C14.78 28.21, 26.55 12.7, 35.58 1.22 M1.13 42.41 C8.39 31.77, 18.61 22.23, 36.49 0.3 M-1.66 50.71 C10.76 37.12, 21.49 20.65, 44.04 1.75 M0.58 49.83 C14.89 31.73, 30.94 15.56, 42.02 0.38 M-0.05 52.67 C13.28 36.29, 28.86 20.42, 47.12 1.33 M1.06 54.89 C16.37 35.7, 32.51 15.04, 47.31 0.29 M1.61 56.97 C21 33.97, 43.13 11.8, 54.53 1.09 M1.82 58.51 C19.27 39.34, 35.33 20.8, 53.28 0.54 M10 57.04 C21.98 43.64, 36.71 25.3, 59.28 -0.54 M8.16 58.15 C27.67 34.92, 45.99 13.87, 58.23 -0.23 M12.96 58.15 C33.33 36.57, 52.72 15.61, 61.93 2.28 M13.92 58.72 C31.03 36.64, 50.52 16.13, 63.09 1.36 M17.65 56.65 C31.15 45.16, 43.29 32.36, 64.43 5.09 M18.57 58.31 C28.94 45.61, 41.61 33.02, 63.19 7.28 M24.4 58.36 C33.82 46.54, 48.12 30.91, 62.17 13.62 M23.03 58.09 C31.49 47.91, 39.37 39.47, 63.34 13.13 M27.64 55.84 C37.87 45.98, 49.52 35.95, 62.62 18.44 M29.57 58.16 C41.22 41.54, 55.6 27.54, 62.36 18.29 M36.31 59.72 C39.52 47.86, 46.7 41.19, 63.62 27.27 M34.2 58.39 C40.87 51.28, 45.65 43.78, 62.41 24.75 M38.82 55.98 C47.2 52.03, 49.91 42.07, 63.65 32.98 M40.59 58.25 C47.33 48.84, 55.94 38.13, 63.2 30.72 M43.5 57.34 C50.11 50.73, 55.92 46.15, 64.3 39 M44.48 57.66 C49.2 52.6, 52.94 47.84, 63.4 36.43 M51.44 56.56 C56 54.25, 56.82 47.61, 64.33 43.32 M51.49 56.9 C54.04 54.66, 55.74 52.22, 62.9 43.77 M56.61 57.56 C57.67 55.02, 60.73 53.22, 62.66 48.58 M55.87 57.43 C57.68 55.8, 59.08 53.3, 63.32 49.95" stroke="#15aabf" stroke-width="0.5" fill="none"></path><path d="M0.88 -0.25 C24.15 -2.12, 48.46 -0.84, 60.35 -0.78 M1 -0.1 C15.97 -1.55, 32.17 -0.79, 61.53 0.51 M63.61 -1.82 C61.56 14.79, 59.77 28.92, 62.91 55.65 M62.53 0.53 C62.06 20.14, 62.21 40.74, 62.83 54.96 M61.48 55.12 C40.57 54.34, 17.42 53.47, -0.58 53.57 M61.1 55.77 C39.37 54.52, 15.92 55.26, 0.34 56.14 M-1.36 55.6 C1.49 41.82, 0.36 30.3, 0.42 0.78 M0.88 55.25 C-0.18 34.52, -0.1 13.48, 0.68 -0.78" stroke="#000000" stroke-width="1" fill="none"></path></g><g transform="translate(313.0459144391516 223.7846975510074) rotate(0 21 12.5)"><text x="21" y="18" font-family="Virgil, Segoe UI Emoji" font-size="20px" fill="#000000" text-anchor="middle" style="white-space: pre;" direction="ltr">main</text></g><g stroke-linecap="round" transform="translate(18.430366847826008 235.24754126033986) rotate(0 99 17.5)"><path d="M0.79 -1.66 C75.89 -0.13, 146.78 -0.53, 197.28 1.01 M-0.36 -0.96 C77.77 0, 156.18 0.71, 197.64 -0.54 M198.01 0.19 C196.53 13.15, 199.36 27.27, 199.36 33.41 M198.65 -0.18 C199.04 7.48, 199.21 14.49, 198.62 35.3 M199.08 34.56 C153.81 33.57, 108.44 33.2, 1.45 33.36 M198.55 34.79 C155.14 36.56, 112.33 36.93, -0.76 35.68 M1.87 33.93 C0.97 23.66, 0.66 13.57, 1.67 -0.95 M-0.45 35.47 C-0.67 27.14, 0.37 17.25, -0.86 -0.05" stroke="#000000" stroke-width="1" fill="none"></path></g><g transform="translate(85.43036684782601 240.24754126033986) rotate(0 32 12.5)"><text x="32" y="18" font-family="Virgil, Segoe UI Emoji" font-size="20px" fill="#000000" text-anchor="middle" style="white-space: pre;" direction="ltr">&lt;main&gt;</text></g><g stroke-linecap="round" transform="translate(10 183.75552359729772) rotate(0 105.96127717391323 48.08084239130426)"><path d="M1.54 -0.33 C59.6 0.86, 121.21 2.43, 213.6 1.75 M-0.42 -0.18 C61.15 2.25, 122.55 1.32, 212.66 0.77 M210.14 -0.28 C212.98 20.53, 213.28 38.65, 210.14 97.52 M212.72 0.1 C213.52 33.64, 213.16 68.17, 211.17 95.98 M212.19 95.01 C149.13 94.28, 88.63 94.31, -1.46 94.83 M212.05 96.62 C137.52 96.55, 61.86 96.36, 0.15 95.56 M0.74 95.93 C-0.47 66.37, 0.77 34.07, -1.15 1.76 M-0.36 96.78 C1.11 66.52, -0.43 38.41, 0.88 0.54" stroke="#000000" stroke-width="1" fill="none"></path></g><g stroke-linecap="round" transform="translate(18.060971467391937 194.7902552549058) rotate(0 99 17.5)"><path d="M-0.38 -1.51 C66.45 -2.45, 135.46 0.17, 199.99 -0.2 M-0.2 -0.32 C52.85 0.59, 104.14 1.79, 198.88 -0.91 M197.72 1.05 C198.44 11.87, 196.44 19.25, 199.36 36.06 M198.1 0.98 C197.65 13.38, 198.24 24.76, 197.81 34.94 M196.69 34.42 C126.19 36.75, 56.1 33.64, -1.51 36.05 M198.52 35.34 C128.55 34.51, 57.98 35.45, -0.68 35.18 M-0.24 35.42 C0.97 22.9, -0.76 6.31, 1.76 0 M0.62 35.68 C-0.95 25.2, -0.21 18, 0.54 0.61" stroke="#000000" stroke-width="1" fill="none"></path></g><g transform="translate(100.06097146739194 199.7902552549058) rotate(0 17 12.5)"><text x="17" y="18" font-family="Virgil, Segoe UI Emoji" font-size="20px" fill="#000000" text-anchor="middle" style="white-space: pre;" direction="ltr">foo</text></g><g stroke-linecap="round"><g transform="translate(216.1079675519777 224.83271449403583) rotate(0 40.486314411940384 -43.86770745801482)"><path d="M-0.9 -0.47 C12.57 -14.67, 67.82 -71.4, 81.88 -85.46 M0.82 -1.76 C14.01 -16.3, 66.96 -73.13, 80.7 -87.27" stroke="#000000" stroke-width="1" fill="none"></path></g><g transform="translate(216.1079675519777 224.83271449403583) rotate(0 40.486314411940384 -43.86770745801482)"><path d="M67.97 -60.47 C74.44 -68.42, 80.05 -81.18, 79.99 -89.2 M69.26 -60.11 C71.28 -65.81, 75.7 -74.49, 80.7 -87.17" stroke="#000000" stroke-width="1" fill="none"></path></g><g transform="translate(216.1079675519777 224.83271449403583) rotate(0 40.486314411940384 -43.86770745801482)"><path d="M53.08 -74.59 C65.29 -76.96, 76.67 -84.25, 79.99 -89.2 M54.37 -74.23 C60.11 -76.33, 68.29 -81.45, 80.7 -87.17" stroke="#000000" stroke-width="1" fill="none"></path></g></g><mask></mask><g stroke-linecap="round"><g transform="translate(217.45000009621072 267.8785260649529) rotate(0 39.37065124623496 -0.025600188767612053)"><path d="M-0.47 -0.43 C12.77 -0.01, 65.83 1.52, 79.21 1.65 M1.49 -1.71 C14.64 -1.51, 65.55 -0.43, 78.58 0.13" stroke="#000000" stroke-width="1" fill="none"></path></g><g transform="translate(217.45000009621072 267.8785260649529) rotate(0 39.37065124623496 -0.025600188767612053)"><path d="M49.37 10.54 C60.07 8.99, 65.97 3.65, 76.65 -0.83 M49.73 8.99 C58.92 7.63, 65.14 4.13, 78.67 -0.76" stroke="#000000" stroke-width="1" fill="none"></path></g><g transform="translate(217.45000009621072 267.8785260649529) rotate(0 39.37065124623496 -0.025600188767612053)"><path d="M49.99 -9.97 C60.36 -5.76, 66.08 -5.34, 76.65 -0.83 M50.35 -11.52 C59.3 -7.14, 65.35 -4.91, 78.67 -0.76" stroke="#000000" stroke-width="1" fill="none"></path></g></g><mask></mask><g stroke-linecap="round"><g transform="translate(218.9804905475994 234.8072370024529) rotate(0 39.52784562727652 16.33545493190786)"><path d="M-0.43 0.6 C12.97 6.15, 66.38 27.7, 79.49 32.79 M1.54 -0.12 C14.96 5.16, 66.5 25.9, 79.14 31.3" stroke="#000000" stroke-width="1" fill="none"></path></g><g transform="translate(218.9804905475994 234.8072370024529) rotate(0 39.52784562727652 16.33545493190786)"><path d="M50.17 31.94 C57.89 30.22, 61.92 28.78, 78.18 30.89 M48.63 30.87 C58.09 29.57, 65.25 30.91, 78.25 31.16" stroke="#000000" stroke-width="1" fill="none"></path></g><g transform="translate(218.9804905475994 234.8072370024529) rotate(0 39.52784562727652 16.33545493190786)"><path d="M58 12.97 C63.88 15.49, 66.16 18.31, 78.18 30.89 M56.45 11.9 C63.91 15.66, 68.98 22.09, 78.25 31.16" stroke="#000000" stroke-width="1" fill="none"></path></g></g><mask></mask><g stroke-linecap="round" transform="translate(302.46775749355265 20.438584658701984) rotate(0 30.92578125 27.623046875)"><path d="M1.9 1.99 C15.95 -1.02, 30.37 -1.27, 61.44 -0.64 M0.84 0.88 C20.82 0.34, 43.55 -0.56, 61.71 0.53 M60.07 1.36 C63.28 18.98, 61.87 36.99, 62.05 57.2 M61.1 -0.19 C62.13 15.52, 61.97 30.1, 61.2 54.95 M60.2 53.73 C49.52 55.85, 34.67 55.02, 1.05 55.92 M62.02 54.56 C37.94 56.6, 13.14 56.03, -0.12 55.46 M-1.15 57 C-0.46 35.63, 0.47 17.08, 1.25 1.36 M0.88 55.78 C1.09 43.72, 0.86 30.05, -0.95 0.13" stroke="#000000" stroke-width="1" fill="none"></path></g><g stroke-linecap="round"><g transform="translate(217.8320530475994 195.57549355672472) rotate(0 39.492836834376476 -59.40860602805469)"><path d="M1.14 1.19 C14.33 -18.91, 65.95 -99.79, 78.7 -120.01 M0.28 0.78 C13.34 -19.21, 64.41 -98.71, 77.69 -118.7" stroke="#000000" stroke-width="1" fill="none"></path></g><g transform="translate(217.8320530475994 195.57549355672472) rotate(0 39.492836834376476 -59.40860602805469)"><path d="M72.88 -89.68 C71.82 -99.18, 73.37 -105.38, 77.05 -117.67 M71.77 -90.39 C72.85 -97.16, 73.75 -105.12, 78.22 -118.5" stroke="#000000" stroke-width="1" fill="none"></path></g><g transform="translate(217.8320530475994 195.57549355672472) rotate(0 39.492836834376476 -59.40860602805469)"><path d="M55.69 -100.89 C59.23 -107.6, 65.31 -110.83, 77.05 -117.67 M54.58 -101.6 C60.14 -105.55, 65.59 -110.55, 78.22 -118.5" stroke="#000000" stroke-width="1" fill="none"></path></g></g><mask></mask><g stroke-linecap="round" transform="translate(302.6533421100994 147.14675523161895) rotate(0 30.92578125 27.623046875)"><path d="M0 0 C0 0, 0 0, 0 0 M0 0 C0 0, 0 0, 0 0 M-0.25 6.78 C1.96 4.84, 3.13 2.55, 4.2 0.95 M-0.53 6.27 C0.85 4.56, 2.33 3.52, 4.85 0.45 M-0.7 11.42 C3.75 6.99, 7.53 3.44, 9.77 0.1 M0.35 11.69 C2.7 9.1, 5.21 5.95, 10.27 0.66 M1.79 19.66 C3.4 14.01, 10.49 6.51, 14.97 0.96 M-1.08 19.37 C3.39 13.42, 6.56 10.33, 15.02 1.1 M-1.06 22.97 C2.98 20.27, 9.97 15.07, 20.33 0.73 M0.71 23.09 C5.05 17.31, 11.17 11.19, 21.85 -0.21 M-0.06 30.89 C5.89 24.68, 12.77 16.05, 26.26 0.92 M-0.76 30.19 C6.83 23.46, 12.17 15.28, 26.6 -0.38 M-1.19 36.45 C7.59 29.58, 14.97 19.95, 33.81 1.35 M-0.43 37.32 C9.52 26.12, 18.72 15.54, 32.37 -0.64 M-0.08 41.52 C13.37 27.78, 28.77 9.98, 36.97 -0.43 M1.03 42.5 C14.74 26.22, 27.16 11.04, 37.82 0.79 M1.7 48.45 C10.99 37.33, 24.44 21.99, 43.55 0.12 M-1.07 48.23 C14.93 30.48, 31.33 12.35, 43.08 0.43 M0.93 54.06 C20.08 30.8, 36.17 10.95, 47.65 1.84 M-0.21 54.02 C11.64 41.34, 24.1 26.77, 48.14 0.49 M3.77 58 C17.81 40.82, 33.25 25.28, 54.58 -0.78 M2.38 58.27 C22.2 37.11, 39.34 15.34, 52.79 0.63 M9.49 58.02 C20.15 41.42, 35.03 27.09, 57.31 1.67 M8.4 58.12 C21.05 44.03, 33.94 27.96, 59 0.86 M14.9 57.37 C29.84 39.72, 48.03 18.07, 64.75 -0.38 M12.83 58.32 C25.41 45.12, 37.6 30.99, 62.2 0.08 M20.5 56.01 C36.5 40.75, 53.01 21.28, 63.54 6.83 M19.15 57 C37.23 38.17, 53.5 16.82, 63 6.02 M24.33 56.98 C33.81 43.9, 46.79 33.38, 62.18 12.87 M23.08 57.6 C38.7 41.48, 54.37 22.69, 62.33 14.18 M30.9 55.68 C39.68 44.65, 53.47 28, 61.6 17.8 M30.48 56.61 C39.03 44.12, 50.37 32.84, 63.94 18.05 M35.64 59.21 C44.74 45.67, 53.19 34.2, 61.47 24.43 M33.79 58.52 C44.71 45.94, 52.82 35.83, 63.71 25.94 M41.78 55.67 C49.8 47.34, 55.1 39.23, 62.51 30.36 M39.93 57.58 C46.49 49.98, 54.15 41.68, 63.91 30.51 M44.87 57.47 C51.7 48.33, 59.21 43.08, 60.88 37.35 M44.68 58.7 C49.79 52.39, 52.48 49.17, 62.59 36.68 M49.78 58.52 C54.74 52.67, 59.31 50.22, 62.51 43.37 M50.63 57.29 C53.4 54.73, 56.71 50.32, 61.88 43.25 M55.11 58 C57.35 55.58, 57.83 54.79, 63.97 48.63 M55.61 57.91 C57.76 55.24, 60.55 52.32, 62.65 49.04" stroke="#ced4da" stroke-width="0.5" fill="none"></path><path d="M-0.2 -0.71 C19.74 -1.58, 42.93 -1.25, 62.88 -0.71 M-0.91 0 C15.31 -1.43, 30.29 -0.02, 62.05 0.68 M62.91 1.29 C61 13.77, 61.55 26.3, 61.27 56.48 M61.79 0.54 C61.22 18.38, 60.78 36.18, 61.01 55.97 M62.9 56.35 C47.94 55.06, 35.92 55.45, 1.79 53.72 M62.03 56.18 C38.56 55.19, 16.21 55.04, 0.39 56.08 M0 54.35 C1.25 40.57, 1.56 28.7, -1.57 -1.72 M0.61 55.96 C-0.1 38.22, -1.43 22.77, 0.72 -0.73" stroke="#000000" stroke-width="1" fill="none"></path></g><g stroke-linecap="round"><g transform="translate(333.1277344712089 175.47292710661895) rotate(0 38.05927421187562 -1.3421971429138466)"><path d="M-0.12 -0.43 C12.3 -1, 62.88 -1.98, 75.66 -2.26 M-1.64 -1.7 C11.03 -1.61, 64.88 -1.15, 77.76 -1.02" stroke="#000000" stroke-width="1" fill="none"></path></g><g transform="translate(333.1277344712089 175.47292710661895) rotate(0 38.05927421187562 -1.3421971429138466)"><path d="M48.77 7.06 C59.6 4.65, 71.1 2.13, 77.05 -2.1 M49.48 9.08 C59.36 5.26, 71.63 1.76, 78.44 -1.82" stroke="#000000" stroke-width="1" fill="none"></path></g><g transform="translate(333.1277344712089 175.47292710661895) rotate(0 38.05927421187562 -1.3421971429138466)"><path d="M48.95 -13.47 C59.91 -7.76, 71.34 -2.17, 77.05 -2.1 M49.67 -11.44 C59.65 -7.39, 71.85 -3.01, 78.44 -1.82" stroke="#000000" stroke-width="1" fill="none"></path></g></g><mask></mask><g transform="translate(421.4089844712089 151.42952432884067) rotate(0 94.5 25)"><text x="0" y="18" font-family="Virgil, Segoe UI Emoji" font-size="20px" fill="#000000" text-anchor="start" style="white-space: pre;" direction="ltr">slot allocated for</text><text x="0" y="43" font-family="Virgil, Segoe UI Emoji" font-size="20px" fill="#000000" text-anchor="start" style="white-space: pre;" direction="ltr">reified block object</text></g><g stroke-linecap="round" transform="translate(296.6360581433414 320.18663194444343) rotate(0 37.890625 100.92929245119558)"><path d="M-0.96 -0.41 C21.33 1.76, 43.22 -0.35, 77.46 1.75 M-0.89 -0.14 C16.38 0.13, 32.39 -0.87, 74.89 0.68 M77.22 0.17 C78.7 70.71, 78.05 143, 74.43 201.52 M75.92 -0.59 C76.5 58.58, 77.41 117.92, 75.04 201.18 M76.06 202.91 C49.74 203.49, 20.83 203.06, 0.34 200.5 M76.15 201.74 C51.9 201.84, 28.44 200.98, -0.58 202.74 M-0.65 202.98 C2.02 139.88, -0.74 80.64, 1.57 0.96 M-0.65 201.01 C-1.18 129.65, -1.94 56.36, 0.8 -0.32" stroke="#000000" stroke-width="1" fill="none"></path></g><g stroke-linecap="round" transform="translate(304.43313236920085 455.23717150934317) rotate(0 30.92578125 27.623046875)"><path d="M0 0 C0 0, 0 0, 0 0 M0 0 C0 0, 0 0, 0 0 M0.14 6.02 C0.72 4.88, 2.82 2.93, 5.11 -0.18 M-0.09 6.39 C1.02 4.93, 2.63 2.93, 4.64 0.15 M0.73 11.07 C2 9.1, 4.87 4.24, 10.33 0.4 M-0.24 12.06 C2.5 9.63, 5.45 6.25, 10.85 0.73 M1.5 16.99 C4.99 12.47, 10.02 6.68, 16.47 -1.58 M-0.69 18.88 C5.47 12.21, 11.36 4.56, 15.28 -0.34 M1.14 25.22 C4.67 18.85, 9.77 12.93, 21.6 0.82 M0.68 23.4 C5.17 19.23, 8.07 14.35, 21.87 -0.1 M0.82 29.9 C8.45 21.27, 15.68 12, 26.99 -1.23 M-0.35 29.96 C7.27 21.54, 13.58 13.46, 25.44 -0.18 M-1.71 38.63 C10.73 27.72, 17.41 16.31, 30.59 -0.44 M0.61 36.23 C11.01 23.79, 22.29 12.4, 32.88 -0.21 M1.8 41.75 C9.43 31.03, 20.21 22.62, 35.35 2.05 M-0.8 43.28 C11.71 30.57, 21.33 16.63, 37.58 1.17 M1.76 47.92 C12.8 35.29, 24.99 22.62, 42.2 -2.03 M-0.06 48.72 C10.54 38.26, 20.79 26.59, 43.31 0.19 M-0.95 54.17 C13.04 41.7, 25.18 26.52, 46.48 -0.74 M-0.48 55.25 C12.91 41.06, 23.75 27.12, 46.69 0.79 M4.09 58.2 C19.21 39.96, 34.43 21.66, 54.87 -0.67 M1.81 58.51 C18.72 38.92, 35.56 19.07, 53.03 0.44 M8.5 57.74 C23.96 40.67, 39.99 20.15, 57.83 0.43 M8.53 56.95 C26.94 37.27, 44.31 15.83, 58.79 1.01 M13.58 57.84 C28.73 40.83, 39.62 27.56, 61.86 -0.31 M13.67 58.69 C29.11 37.42, 47.71 17.6, 62.78 1.34 M20.44 58.17 C29.19 45.65, 40.4 35.05, 63.37 7.44 M18.58 57.3 C29.53 43.56, 40.3 31.74, 62 7.16 M23.87 59.35 C33.72 46.24, 45.98 36.35, 60.7 11.71 M23.86 57.68 C34.33 46.2, 45.83 33.97, 62.63 14.03 M29.24 56.21 C35.52 47.99, 44.39 42.69, 64.78 20.86 M29.15 57.92 C37.99 48.56, 44.75 40.73, 62.67 19.54 M32.96 57.19 C43.66 45.02, 56.24 35.92, 61.39 23.92 M33.61 58.09 C45.65 46.69, 55.51 34.75, 63.16 26.19 M39.38 57.58 C44.15 51.3, 49.93 47.58, 61.48 30.56 M39.83 58.16 C48.35 48.49, 55.67 40.28, 62.45 30.89 M45.29 58.87 C48.23 52.1, 53.91 46.15, 63.58 36.48 M44.17 58.76 C51.69 49.21, 58.7 41.71, 63.64 36.86 M52.59 57.99 C54.93 52.09, 58.35 46.07, 63.96 43.48 M50.76 57.12 C53.53 52.84, 56.9 49.43, 62.75 43.27 M54.68 58.41 C59.08 54.29, 60.73 51.99, 63.03 49.11 M55.79 57.76 C57.84 54.61, 60.87 52.05, 63.3 49.22" stroke="#15aabf" stroke-width="0.5" fill="none"></path><path d="M-0.41 -0.64 C17.38 -0.42, 31.62 1.97, 63.61 -1.82 M-0.14 0.53 C18.78 1.23, 36.37 -0.34, 62.53 0.53 M62.05 1.95 C61.17 21.37, 62.35 38.77, 61.48 55.12 M61.2 -0.29 C60.89 20.29, 60.91 38.31, 61.1 55.77 M62.9 55.92 C41.66 53.81, 19.26 55.68, -1.36 55.6 M61.73 55.46 C37.91 56.31, 12.72 54.9, 0.88 55.25 M1.25 56.6 C-1.83 39.41, -0.36 28.77, 1.07 1.22 M-0.95 55.37 C0.51 34.01, 0.02 15.11, -0.35 0.33" stroke="#000000" stroke-width="1" fill="none"></path></g><g transform="translate(314.35891361920085 470.36021838434317) rotate(0 21 12.5)"><text x="21" y="18" font-family="Virgil, Segoe UI Emoji" font-size="20px" fill="#000000" text-anchor="middle" style="white-space: pre;" direction="ltr">main</text></g><g stroke-linecap="round" transform="translate(19.743366027875254 481.8230620936756) rotate(0 99 17.5)"><path d="M1.03 -0.71 C48.8 2.31, 101.52 -1.19, 198.01 0.19 M0.2 0.68 C40.99 -1.93, 84.26 -0.52, 198.65 -0.18 M197.42 1.23 C198.63 11.79, 197.66 26.48, 199.08 34.56 M197.16 0.72 C196.95 10.2, 197.01 22.58, 198.55 34.79 M199.79 33.47 C137.17 36.01, 72.27 36.02, 1.87 33.93 M198.39 35.84 C130.84 34.84, 65.51 35.42, -0.45 35.47 M-1.57 33.28 C-0.32 27.51, 0.86 17.74, 1.43 0.77 M0.72 34.27 C0.56 27.91, -0.02 19.38, -0.32 0.19" stroke="#000000" stroke-width="1" fill="none"></path></g><g transform="translate(86.74336602787525 486.8230620936756) rotate(0 32 12.5)"><text x="32" y="18" font-family="Virgil, Segoe UI Emoji" font-size="20px" fill="#000000" text-anchor="middle" style="white-space: pre;" direction="ltr">&lt;main&gt;</text></g><g stroke-linecap="round" transform="translate(11.312999180049246 430.33104443063166) rotate(0 105.961277173913 48.080842391304486)"><path d="M-0.95 1.47 C58.38 -0.93, 113.67 0.83, 210.36 -0.25 M-0.7 -0.78 C75.35 -0.8, 150.07 -1.42, 212.63 0.09 M212.52 -1.51 C211.27 38.1, 212.73 76.01, 212.22 94.85 M211.1 -0.83 C210.36 26.57, 211.67 51.88, 212.06 96.69 M213.12 96.46 C140.02 95.05, 72.15 93.8, 0.65 95.95 M211.51 95.65 C144.64 97.72, 75.41 98.13, -0.32 96.71 M-0.1 97.91 C1.83 62, 2.18 26.18, -1.44 -1.9 M0.23 97.05 C-1.04 66.44, -1.01 36.23, 0.21 -0.73" stroke="#000000" stroke-width="1" fill="none"></path></g><g stroke-linecap="round" transform="translate(19.373970647441183 441.36577608824155) rotate(0 99 17.5)"><path d="M1.67 1.75 C67.74 1.08, 139.29 -0.71, 197.72 1.05 M-0.89 0.68 C63.94 2.22, 126.65 2.38, 198.1 0.98 M196.49 -0.37 C198.09 10.57, 197.78 19.28, 196.69 34.42 M197.17 -0.76 C198.78 8.12, 198.04 15.28, 198.52 35.34 M198.34 33.64 C121.25 38.21, 42.72 37.08, -0.24 35.42 M197.42 35.88 C130.9 33.62, 64.26 33.7, 0.62 35.68 M1.75 36.07 C1.52 28.67, 1.07 18.05, -1.9 0.25 M0.89 34.65 C0.59 21.67, 0.44 9.17, -0.73 -0.3" stroke="#000000" stroke-width="1" fill="none"></path></g><g transform="translate(101.37397064744118 446.36577608824155) rotate(0 17 12.5)"><text x="17" y="18" font-family="Virgil, Segoe UI Emoji" font-size="20px" fill="#000000" text-anchor="middle" style="white-space: pre;" direction="ltr">foo</text></g><g stroke-linecap="round"><g transform="translate(217.42096673202695 471.4082353273716) rotate(0 41.2298064591032 -42.500469482715744)"><path d="M1.05 -1.09 C14.88 -15.58, 68.95 -71.76, 82.31 -85.95 M0.15 0.95 C13.87 -12.8, 67.46 -70.03, 81.37 -84.36" stroke="#000000" stroke-width="1" fill="none"></path></g><g transform="translate(217.42096673202695 471.4082353273716) rotate(0 41.2298064591032 -42.500469482715744)"><path d="M67.55 -56.86 C72.27 -65.51, 74.76 -69.44, 81.77 -83 M69.89 -56.22 C72.07 -62.2, 74.99 -68.09, 81.08 -83.74" stroke="#000000" stroke-width="1" fill="none"></path></g><g transform="translate(217.42096673202695 471.4082353273716) rotate(0 41.2298064591032 -42.500469482715744)"><path d="M52.68 -71.01 C61.19 -76.31, 67.33 -76.76, 81.77 -83 M55.03 -70.37 C60.36 -73.34, 66.55 -76.1, 81.08 -83.74" stroke="#000000" stroke-width="1" fill="none"></path></g></g><mask></mask><g stroke-linecap="round"><g transform="translate(218.76299927625996 514.4540468982887) rotate(0 38.81395082585527 -0.3081390352381277)"><path d="M-1.09 0.01 C11.86 -0.26, 65.46 -0.75, 78.72 -0.56 M0.54 -1.04 C13.26 -0.68, 64.99 0.39, 77.83 0.42" stroke="#000000" stroke-width="1" fill="none"></path></g><g transform="translate(218.76299927625996 514.4540468982887) rotate(0 38.81395082585527 -0.3081390352381277)"><path d="M49.52 10.5 C58.51 6.5, 72.21 3.38, 79.18 -1.17 M50.15 10.14 C56.22 8.17, 62.37 5.7, 78.44 0.72" stroke="#000000" stroke-width="1" fill="none"></path></g><g transform="translate(218.76299927625996 514.4540468982887) rotate(0 38.81395082585527 -0.3081390352381277)"><path d="M49.78 -10.02 C58.85 -6.15, 72.45 -1.39, 79.18 -1.17 M50.42 -10.38 C56.57 -8.01, 62.66 -6.16, 78.44 0.72" stroke="#000000" stroke-width="1" fill="none"></path></g></g><mask></mask><g stroke-linecap="round"><g transform="translate(220.29348972764865 481.38275783578865) rotate(0 38.98945890978189 16.00435873278093)"><path d="M0.01 0.11 C12.71 5.53, 64.12 26.14, 77.28 31.43 M-1.45 -0.87 C11.52 4.83, 66.1 27.19, 79.43 32.88" stroke="#000000" stroke-width="1" fill="none"></path></g><g transform="translate(220.29348972764865 481.38275783578865) rotate(0 38.98945890978189 16.00435873278093)"><path d="M49.65 29.71 C60.79 33.08, 73.09 33.92, 77.84 31.1 M49.28 32.29 C60.59 32.78, 71.22 32.94, 79.73 32.13" stroke="#000000" stroke-width="1" fill="none"></path></g><g transform="translate(220.29348972764865 481.38275783578865) rotate(0 38.98945890978189 16.00435873278093)"><path d="M57.56 10.77 C65.46 21.49, 74.7 29.67, 77.84 31.1 M57.19 13.35 C65.69 20.86, 73.41 27.98, 79.73 32.13" stroke="#000000" stroke-width="1" fill="none"></path></g></g><mask></mask><g stroke-linecap="round"><g transform="translate(218.5026911165378 447.4079979590806) rotate(0 38.610988495350966 -31.019571658971927)"><path d="M-0.17 0.63 C12.97 -9.35, 65.95 -50.39, 78.94 -60.98 M-1.72 -0.08 C11.28 -10.31, 64.48 -52.34, 78.12 -62.67" stroke="#000000" stroke-width="1" fill="none"></path></g><g transform="translate(218.5026911165378 447.4079979590806) rotate(0 38.610988495350966 -31.019571658971927)"><path d="M63.19 -36.88 C68.66 -46.71, 70.47 -51.62, 79.17 -61.38 M63.11 -37.57 C67.06 -44.16, 70.2 -51.81, 78.06 -62.13" stroke="#000000" stroke-width="1" fill="none"></path></g><g transform="translate(218.5026911165378 447.4079979590806) rotate(0 38.610988495350966 -31.019571658971927)"><path d="M50.61 -53.09 C59.83 -57.89, 65.54 -57.78, 79.17 -61.38 M50.53 -53.78 C58.16 -55.81, 64.85 -58.89, 78.06 -62.13" stroke="#000000" stroke-width="1" fill="none"></path></g></g><mask></mask><g stroke-linecap="round" transform="translate(303.96634129014683 393.7222760649529) rotate(0 30.92578125 27.623046875)"><path d="M0 0 C0 0, 0 0, 0 0 M0 0 C0 0, 0 0, 0 0 M-0.53 6.58 C0.92 4.61, 1.12 3.56, 4.68 0.45 M-0.48 6.43 C0.69 4.71, 1.95 3.88, 4.81 0.25 M-0.58 13.44 C3.29 9.06, 7.2 6, 11.61 -0.77 M-0.13 12.3 C3.1 8.54, 7.55 3.09, 11.37 -0.07 M-1.32 19.99 C1.82 14.69, 6.53 8.73, 14.5 -1.35 M-0.59 18.84 C5 12.19, 11.34 5.7, 14.63 -0.09 M1.44 23.81 C3.64 18.21, 11.25 12.8, 21.67 -0.19 M0.27 24.39 C7.14 15.96, 15.66 5.98, 20.97 0.57 M0.71 29.13 C8.09 19.28, 16.2 9.31, 25.82 -0.31 M0.97 31.21 C10.44 18.47, 20.35 6.18, 26.69 1.04 M0.71 35.81 C8.83 29.49, 17.35 18.52, 30.89 -0.19 M-0.21 36.54 C12.06 24.18, 22.23 10.8, 31.87 0.67 M2.03 43.58 C9.61 29.31, 21.63 21.41, 36.41 -0.16 M0.65 42.65 C14.28 27.38, 27.22 9.96, 36.19 -0.24 M0.99 50.06 C13.3 36.17, 24.57 23.04, 42.02 1.17 M-0.05 49.73 C8.42 39.8, 16.86 28.74, 41.98 -0.88 M1.53 55.1 C18.83 32.41, 35.87 13.01, 47.56 0.72 M0.99 54.26 C12.67 39.9, 24.98 26.36, 47.83 0.84 M1.91 59.55 C22.53 35.15, 43 12.71, 53.62 -1.48 M2.22 58.68 C15.15 42.64, 28.52 27.99, 53.72 -0.17 M10.01 58.88 C28.65 34.66, 48.71 14.29, 57.6 -0.55 M9.09 57.08 C27.22 35.76, 46.73 12.06, 58.55 0.58 M11.41 56.96 C33.86 33.62, 51.36 14.23, 61.63 1.68 M13.6 57.85 C32.8 36.24, 51.04 14.32, 62.62 1.49 M19.19 55.65 C36.36 37.34, 52.1 18.05, 61.98 5.37 M18.7 57.28 C30.54 45.44, 39.27 31.86, 62.59 6.6 M23.35 59.54 C40.43 41.98, 54.36 24.34, 60.81 11.52 M23.2 57.28 C38.27 42.7, 53.04 26.62, 61.74 12.38 M31.42 55.61 C38.58 47.3, 44.6 40.53, 64.37 19 M28.91 57 C39.13 48.38, 46.83 36.54, 63.68 19.72 M36.48 58.95 C41.77 51.93, 47.74 45.49, 60.96 27.23 M34.21 57.5 C42.03 50.1, 48.28 40.96, 62.87 24.62 M41.74 56.4 C50.51 46.66, 55.78 37.58, 62.79 30.57 M39.17 57.4 C44.5 51.43, 50.52 45.33, 64.03 31.5 M44.59 56.31 C49.28 52.12, 55.45 46.66, 64.11 38.05 M45.1 57.55 C48.94 51.68, 54.74 47.15, 62.74 36.95 M49.35 56.26 C53.87 52.04, 60.19 45.88, 62.99 43.8 M51.59 56.73 C54.33 53.33, 57.26 49.8, 62.84 43.13 M55.08 56.91 C58.84 54.42, 61.2 51.74, 62.98 50.28 M56.2 57.88 C57.02 56.49, 59.06 54.61, 62.7 49.41" stroke="#15aabf" stroke-width="0.5" fill="none"></path><path d="M0.41 1.36 C11.46 -2.1, 27.46 0.73, 63.14 -0.36 M-0.29 0.62 C23.8 -1.36, 46.82 -0.66, 62.39 -0.22 M60.18 1.45 C59.85 15.75, 59.98 35.86, 62.96 54.82 M62.75 -0.76 C62.82 17.52, 61.46 34.88, 62.79 54.71 M62.63 56.92 C40.07 54.22, 21.95 55.38, -0.89 56.18 M61.07 54.38 C45.48 56.54, 29.74 56.28, 0.71 55.63 M1.44 53.79 C0.99 44.44, -0.18 30.74, -0.63 0.37 M0.68 54.95 C1.26 37.86, -0.06 20.52, 0.87 0.44" stroke="#000000" stroke-width="1" fill="none"></path></g><g transform="translate(313.89212254014683 408.8453229399529) rotate(0 21 12.5)"><text x="21" y="18" font-family="Virgil, Segoe UI Emoji" font-size="20px" fill="#000000" text-anchor="middle" style="white-space: pre;" direction="ltr">proc</text></g><g stroke-linecap="round" transform="translate(304.9233073878768 327.4852968982841) rotate(0 30.92578125 27.623046875)"><path d="M-1.59 -1.78 C23.17 0.64, 44.92 -0.78, 63.45 0.19 M0.3 -0.75 C24.4 -0.44, 49.72 -0.6, 62 -0.65 M60.21 -1.66 C59.88 16.01, 62.49 29.5, 62.13 56.29 M62.53 0.17 C61.66 18.61, 63.28 36.33, 62.22 55.13 M60.9 54.09 C43.75 55.76, 21.23 56.69, -0.72 56.49 M61.8 56.12 C39.63 55.32, 17.06 55.1, -0.72 54.3 M0.47 57.02 C-1.1 38.64, -1.03 21.08, 0.42 -1.47 M0.85 55.59 C-0.84 41.06, 0.49 25.88, -0.62 0.07" stroke="#000000" stroke-width="1" fill="none"></path></g><g stroke-linecap="round" transform="translate(303.0035373744968 81.5521371760592) rotate(0 30.92578125 27.623046875)"><path d="M0 0 C0 0, 0 0, 0 0 M0 0 C0 0, 0 0, 0 0 M-0.06 6.15 C1.45 5.15, 2.26 3.43, 4.98 -0.03 M-0.13 6.62 C1.35 4.32, 2.52 3.01, 4.71 0.6 M-1.4 12.61 C4.82 8.72, 5.48 5.09, 10.85 0.15 M0.85 12.37 C1.7 9.32, 3.89 7.78, 11.41 0.46 M-0.53 17.03 C2.04 12.18, 9.12 10.51, 14.1 0.85 M0.71 18.32 C6.95 11.95, 12.35 4.96, 16.19 0.92 M1.95 23.61 C6.69 19.1, 10.86 12.45, 22.87 1.92 M1.19 24.06 C6.21 15.35, 13.38 9.19, 21.51 0.41 M-0.69 29.39 C11.13 20.83, 18.73 7.02, 26.44 1.73 M0.19 29.58 C8.56 19.64, 19.79 9.18, 26.59 0.42 M-0.8 35.21 C6.06 29.51, 12.91 21.41, 31.87 1.53 M-0.62 36.74 C9.32 25.17, 19.13 14.23, 31.94 -0.87 M0.97 43.4 C7.45 33.62, 19.4 19.65, 36.52 0.94 M1 43.43 C11.95 29.44, 22.41 15.52, 35.95 0.35 M-0.58 49.35 C10.33 35.29, 20.39 22.4, 40.95 -0.82 M-0.43 48.7 C11.02 35.36, 22.62 21.49, 42.75 -0.63 M1.08 55.59 C18.13 35.56, 34.61 12.05, 49.38 -1.57 M1.15 55.31 C14.69 36.85, 28.61 21.58, 46.71 -0.18 M3.24 56.07 C15.41 41.38, 27.68 27.67, 54.61 1.09 M2.36 57.61 C17.12 39.49, 32.68 22.39, 52.27 -0.51 M9.67 59.5 C17.91 44.59, 28.97 33.22, 58.48 1.17 M9.04 57.34 C24.1 39.26, 37.5 22.93, 58.38 -0.81 M15.02 56.69 C25.29 43.93, 33.52 32.52, 64.15 2.27 M12.67 58.58 C30.18 41.02, 44.98 21.61, 63.72 1.34 M19.06 55.78 C32.94 41.06, 47.2 22.15, 61.89 7.97 M19.49 57.46 C28.51 46.47, 37.04 37.64, 62.53 7.84 M24.46 56.64 C31.48 47.42, 39.19 40, 61.18 14.29 M24.32 58.08 C34.85 44.75, 47.2 30.27, 61.62 13.07 M29.71 56.1 C41.52 46.08, 52.61 31.08, 61.33 20.34 M30.44 58.32 C35.68 47.98, 44.13 39.87, 62.98 18.07 M33.6 59.34 C46.86 45.28, 56.68 32.78, 61.76 24.63 M34 58.73 C42.82 47.58, 52.59 36.33, 63.03 25.4 M40.14 57.13 C45.58 49.55, 51.63 45.62, 64.29 29.08 M39.96 58.31 C47.13 49.14, 55.58 41.48, 62.87 30.67 M46.97 57.23 C49.27 49.53, 58.48 43.79, 63.6 36.38 M44.43 57.41 C50.3 51.27, 57.57 44.96, 63.69 38.41 M50.4 57.57 C53.37 54.4, 57.42 52.37, 61.59 42.22 M50.66 57.52 C53.94 53.26, 59.34 48.83, 63.02 43.69 M56.76 57.78 C59.11 54.57, 60.26 52.29, 63.86 48.61 M55.54 58.02 C58.08 55.5, 60.44 52.17, 63.3 49.82" stroke="#15aabf" stroke-width="0.5" fill="none"></path><path d="M1.48 0.86 C14.42 1.36, 25.06 1.22, 62.07 0.87 M-0.12 -0.69 C23.47 0.72, 45.99 0.59, 62.65 -0.85 M62.62 -1.62 C62.49 12.97, 61.39 26.59, 60.56 55.06 M61.15 0.39 C61.49 11.52, 61.83 22.18, 62.39 56.14 M62.83 54.34 C41.98 54.22, 20.85 55.99, -0.06 55.01 M62.33 55.94 C43.21 54.2, 22.56 54.11, -0.71 54.99 M-1.69 54.05 C1.01 45.71, -0.31 35.09, -1.42 1.07 M0.63 55.37 C0.18 40.86, 0.1 26.49, -0.91 0.51" stroke="#000000" stroke-width="1" fill="none"></path></g><g transform="translate(312.9293186244968 96.6751840510592) rotate(0 21 12.5)"><text x="21" y="18" font-family="Virgil, Segoe UI Emoji" font-size="20px" fill="#000000" text-anchor="middle" style="white-space: pre;" direction="ltr">proc</text></g></svg>