<svg version="1.1" xmlns="http://www.w3.org/2000/svg" viewBox="0 0 513.0068999003172 285.5452008928571" width="513.0068999003172" height="285.5452008928571">
  <!-- svg-source:excalidraw -->
  
  <defs>
    <style class="style-fonts">
      @font-face {
        font-family: "Virgil";
        src: url("https://excalidraw.com/Virgil.woff2");
      }
      @font-face {
        font-family: "Cascadia";
        src: url("https://excalidraw.com/Cascadia.woff2");
      }
    </style>
  </defs>
  <rect x="0" y="0" width="513.0068999003172" height="285.5452008928571" fill="#ffffff"></rect><g stroke-linecap="round" transform="translate(80.89060195385476 214.6741071428571) rotate(0 30.92578125 27.623046875)"><path d="M0 0 C0 0, 0 0, 0 0 M0 0 C0 0, 0 0, 0 0 M-0.35 5.81 C1.8 4.85, 3.05 2.6, 4.36 0.75 M-0.54 6.62 C0.75 4.72, 2.37 2.84, 4.72 0.39 M1.11 12.01 C3.75 8.74, 6.2 4.87, 11.83 -0.93 M0.89 11.88 C2.94 8.81, 6.28 5.53, 9.84 -0.11 M-1.75 16.59 C3.94 13.38, 11.43 6.55, 14.34 -0.61 M-0.14 18.24 C4.84 13.47, 8.66 6.55, 15.59 -0.58 M1.41 22.9 C5.91 18.4, 10.32 9.11, 22.54 1.73 M0.33 24.61 C9.01 14.48, 16.32 5.08, 20.35 0.64 M1.49 30.19 C8.11 21.9, 11.28 14.08, 26.65 0.69 M0.02 30.42 C6.89 23.85, 12.41 18.13, 26.23 1.06 M1.61 38.03 C5.77 28.12, 16.61 17.9, 33.66 1.74 M-0.04 37.06 C10.44 23.41, 22.88 10.62, 32.19 -0.64 M1.89 41.12 C12.05 30.86, 23.58 14.28, 38.83 1.56 M-0.07 43.34 C8.3 32.36, 16.48 22.76, 36.89 -0.38 M1.85 50.11 C15.35 30.91, 28.53 13.92, 41.37 -1.43 M0.85 48 C9.25 38.87, 17.8 29.15, 43.2 0.52 M-0.53 54.92 C8.95 44.97, 21.65 31.81, 47.67 1.51 M0.58 53.57 C14.83 36.2, 30.15 18.54, 47.26 -0.43 M1.02 58.26 C14.33 44.06, 25.35 35.41, 54.9 0.03 M3.63 57.69 C18.14 41.71, 33.22 22.81, 53 0.29 M7.46 56.25 C18.24 45.9, 32.48 33.46, 58.31 1.2 M8.4 58.26 C18.74 45.24, 29.95 34.54, 57.15 0.51 M13.65 58.97 C24.95 44.87, 37.73 27.01, 62.16 0.86 M14.26 57.77 C31.45 34.68, 51.48 12.77, 63.14 0.26 M17.29 59 C32.7 42.45, 44.08 27.55, 64.35 7.22 M19.28 58.36 C32.92 42.29, 46.4 27.75, 63.51 7.04 M23.48 58.98 C38.05 43.73, 49.39 25.62, 63.22 14.53 M24.68 57.16 C39.05 41.7, 52.64 24.83, 63.56 14.23 M28.39 58.2 C35.7 47.97, 44.57 41.88, 62.93 19.04 M29.32 57.44 C39.29 45.05, 50.63 33.61, 62.6 18.61 M34.47 57.14 C42.51 47.03, 51.18 38.55, 62.5 24.51 M34.77 56.88 C44.27 47.24, 53.45 35.41, 61.78 24.57 M42.13 56.03 C45.61 49.16, 51.08 45.06, 64.83 31.51 M39.81 56.74 C46.47 50.3, 54.75 41.44, 63.04 31.08 M44.93 59.44 C53.18 49.29, 57.94 45.15, 61.93 36 M45.49 58.13 C51.46 51.89, 55.73 46.43, 63.08 36.88 M49.4 58.67 C53.66 54.46, 59.61 47.69, 63.78 42.76 M51.55 57.2 C53.35 54.15, 56.81 51.08, 62.31 43.53 M56.73 57.37 C57.62 54.1, 62.2 50.2, 63.26 48.45 M55.84 57.5 C58.27 54.95, 60.1 52.95, 63.53 49.03" stroke="#40c057" stroke-width="0.5" fill="none"></path><path d="M1.52 -0.5 C19.66 1.24, 36.9 -1.3, 63.59 0.56 M-0.72 -0.71 C21.5 -1.11, 43.55 -0.48, 61.54 0.46 M60.04 -1.69 C63.1 15.69, 62.28 34.3, 61.76 56.12 M61.07 0.49 C60.6 14.36, 60.74 26.53, 60.91 55 M62.99 54.88 C40.52 55.17, 18.84 55.14, -0.75 53.79 M62.78 55.84 C47.24 54.69, 33.18 55.1, -0.09 55.84 M-1.62 56.85 C-1.02 35.17, 1.49 10.67, 1.41 -1.09 M-0.87 55.2 C0.49 37.8, 0.1 21.69, -0.47 0.61" stroke="#000000" stroke-width="1" fill="none"></path></g><g transform="translate(88.31638320385476 229.7971540178571) rotate(0 23.5 12.5)"><text x="23.5" y="18" font-family="Virgil, Segoe UI Emoji" font-size="20px" fill="#000000" text-anchor="middle" style="white-space: pre;" direction="ltr">"foo"</text></g><g stroke-linecap="round" transform="translate(79.91794570385476 83.15652901785711) rotate(0 30.92578125 27.623046875)"><path d="M0 0 C0 0, 0 0, 0 0 M0 0 C0 0, 0 0, 0 0 M0.02 6.86 C1.48 4.44, 2.94 2.42, 4.68 0.67 M-0.6 6.35 C1.79 3.62, 3.7 1.59, 4.8 0.5 M1.13 11.82 C4.07 7.28, 7.75 3.68, 9.99 -0.44 M0.18 12.05 C4.86 7.12, 7.6 2.35, 11.29 0.28 M-2.01 20.33 C4.61 14.82, 8.74 6.14, 15.76 1 M0.07 18.99 C3.36 12.71, 8.46 7.66, 15.42 0.19 M-0.01 25.27 C5.54 14.63, 15.75 9.5, 22.82 -0.51 M1.02 23.63 C6.89 15.76, 12.36 9.71, 20.75 0.75 M1.82 29.29 C4.73 21.54, 13.2 15.95, 24.54 -1.59 M0.97 30.15 C6.84 24.02, 11.99 17.45, 25.73 0.19 M-2.23 37.12 C8.26 26.71, 17.12 20.2, 32.87 -0.43 M-0.84 36.33 C10.12 25.1, 19.57 13.73, 32.14 0.47 M0.36 44.31 C7.88 32.17, 18.3 25.02, 35.29 1.68 M0.49 42.02 C14.93 25.02, 28.81 8.71, 37.31 0.61 M0.88 48.04 C14.49 29.73, 29.37 11.57, 40.62 0.86 M0.75 48.62 C9.89 38.08, 19.67 27.43, 41.65 -1.12 M-1.62 56.42 C14.43 39.57, 26.99 25.47, 48.08 1.29 M-0.4 54.04 C13.2 38.63, 27.79 22.24, 46.63 0.05 M3.5 56.09 C16.22 45.94, 28.79 30.52, 53.07 -0.32 M3.14 58.89 C17.71 40.05, 31.94 23.99, 52.4 -0.46 M6.88 58.75 C24.8 42.67, 37.96 25.2, 56.31 -0.11 M8.24 56.76 C19.35 45.73, 27.97 33.64, 57.72 0.75 M12.39 59.77 C27.94 38.32, 43.74 21.67, 64.9 2.24 M12.55 57.41 C31.95 35.64, 51.36 13.22, 62.93 -0.09 M20.05 56.69 C33.31 39.78, 48.38 25.74, 62.85 5.08 M19.29 56.99 C28.32 46.98, 37.14 36.78, 63.28 6.43 M24.58 58.81 C32.98 43.99, 45 35.39, 63.95 12.5 M24.65 58.23 C37.14 42.5, 51.44 28.06, 61.67 14.2 M29.09 55.75 C39.3 48.25, 45.8 38.89, 63.1 20.28 M29.33 56.7 C39.63 46.57, 47.39 36.22, 62.82 18.19 M34.29 56.03 C41.96 48.81, 48.18 41.09, 63.38 23.4 M34.57 58.01 C42.55 47.74, 50.01 38.3, 62.14 25.64 M40.15 55.59 C47.51 49.19, 56.95 40.44, 63.1 31.33 M39.66 58.01 C46.38 51.22, 50.56 45.7, 63.68 32 M47.09 56.42 C49.84 54.47, 52.75 46.44, 62.93 36.64 M46.01 58.07 C50.23 52.54, 56.05 44.83, 63.1 37.2 M49.81 58.87 C55.73 52.18, 59.42 47.82, 61.14 42.41 M50.66 57.24 C56.08 51.81, 59.7 46.43, 63.47 43.59 M54.75 57.41 C58.77 54.08, 60.73 51.3, 63.15 49.93 M56.04 57.58 C57.97 55.49, 61.06 51.9, 62.48 49.92" stroke="#40c057" stroke-width="0.5" fill="none"></path><path d="M0.42 1.26 C17.21 -1.12, 39.31 0.72, 63.02 1.4 M-0.66 -0.97 C19.2 0.1, 39.6 0.9, 61.96 0.96 M62.57 -1.48 C61.25 16.39, 61.26 33.72, 60.78 54.28 M60.87 0.75 C60.58 14.6, 60.48 30.34, 62.48 55.86 M62.93 54.82 C41.57 54.68, 16.9 53.68, -1.21 53.93 M62.07 54.8 C45.32 55.57, 26.73 56.21, 0.98 56.15 M-0.52 57.13 C2.44 33.81, 1.86 12.61, 0.17 -1.77 M0 54.84 C0.09 33.87, 0.01 12.06, 0.39 -0.87" stroke="#000000" stroke-width="1" fill="none"></path></g><g transform="translate(85.84372695385476 98.27957589285711) rotate(0 25 12.5)"><text x="25" y="18" font-family="Virgil, Segoe UI Emoji" font-size="20px" fill="#000000" text-anchor="middle" style="white-space: pre;" direction="ltr">"baz"</text></g><g stroke-linecap="round" transform="translate(73.22263320385476 10) rotate(0 37.556640625 132.77260044642856)"><path d="M1.26 -1.58 C26.98 1.58, 57.08 1.01, 76.52 0.45 M-0.97 -0.76 C16.78 0.18, 34.69 0.6, 76.07 -0.03 M73.94 -0.08 C73.31 55.55, 74.03 110.41, 74.35 265.18 M75.7 -0.67 C75.59 58.23, 75.94 118.44, 75.6 266 M74.69 267.36 C47.86 265.2, 20.06 264.75, -1.32 265.21 M74.67 266.52 C45.58 265.61, 16.71 266.68, 0.91 266.31 M1.49 267.12 C-2.21 208.47, -2.54 149.29, -1.4 1.52 M-0.32 265.24 C0.51 208.67, 0.58 152.85, -0.69 0.17" stroke="#000000" stroke-width="1" fill="none"></path></g><g stroke-linecap="round" transform="translate(79.79137874909186 146.3069196428571) rotate(0 30.92578125 27.623046875)"><path d="M0 0 C0 0, 0 0, 0 0 M0 0 C0 0, 0 0, 0 0 M-0.44 6.6 C0.28 5.39, 1.78 3.94, 5.77 -0.2 M-0.35 6.05 C1.39 4.29, 3.33 2.26, 5.02 0.6 M0.9 11.01 C4.39 7.56, 5.68 4.45, 12.22 1.47 M0.78 11.91 C2.28 8.58, 6.67 5.59, 10.77 -0.68 M-0.54 20.43 C2.03 13.6, 6.72 11.45, 15.09 0.3 M-0.95 17.64 C4.23 12.36, 8.48 8.05, 16.03 0.9 M-1.5 22.75 C6.64 19.94, 11.97 11.89, 21.46 0.05 M0.4 23.36 C6.6 16.35, 14.41 7.93, 20.74 0.67 M-1.55 28.99 C7.63 22.42, 13.01 11.52, 24.82 0.32 M0.84 30.91 C7.41 22.46, 14.62 12.72, 25.73 1.23 M0.63 36.07 C13.38 25.46, 24.07 10.06, 31.99 0.32 M0.4 36.43 C10.48 24.76, 20.64 14.12, 31.15 0.77 M-0.04 41.44 C10.49 33.78, 15.4 24.18, 38.66 -0.15 M0.55 41.76 C14.04 25.91, 28.51 10.75, 37.53 1.24 M-0.58 47.89 C13.83 30.16, 28.41 14.81, 41.11 1.81 M0.58 48.96 C8.99 39.51, 16.3 27.67, 42.31 -0.54 M1.04 54.8 C15.96 38.13, 31.4 20.63, 47.42 0.84 M-0.6 54.24 C9.88 43.24, 18.74 32.8, 46.88 -0.58 M3.78 59.79 C20.11 40.23, 34.25 21.51, 53.1 1.81 M3.27 57.19 C16.06 41.97, 29.33 25.26, 53.09 -0.58 M9.93 59.19 C20.58 44.77, 30.3 29.97, 56.3 0.43 M9.05 58.03 C25.85 36.93, 44.96 15.84, 58.3 0.38 M12.28 56.73 C30.17 37.49, 50.52 18.61, 64.88 2.54 M13.2 57.8 C27.96 41.43, 42.03 24.67, 63.26 -0.26 M19.11 55.97 C36.56 39.04, 51.5 17.97, 60.91 7.69 M19.62 57.58 C36.27 38.38, 52.96 18.32, 62.5 6.74 M22.69 55.93 C38.12 43.05, 52.61 25.18, 63.56 14.91 M24.03 57.71 C33.37 48.44, 40.33 38.23, 62.01 12.77 M31.03 57.64 C40.81 44.88, 52.22 33.18, 62.42 18.55 M30.46 57 C39.12 45.97, 49.25 34.14, 62.46 18.96 M35.01 56.7 C41.8 48.62, 50.17 38.9, 62.59 25.87 M34.37 56.97 C39.31 50.36, 45.43 44.8, 63.07 26.37 M40.1 57.85 C47.14 52.07, 50.67 45.84, 61.65 30.31 M41.09 57.03 C45.49 51.29, 51.4 46.15, 62.53 30.91 M45.56 59.51 C50.79 48.72, 58.55 41.57, 62.94 38.09 M44.92 58.78 C51.08 50.43, 57 43.97, 62.98 36.65 M51.95 56.49 C56.42 51.22, 58.16 45.84, 64.3 45.32 M51.54 57.14 C53.78 53.38, 58.21 49.68, 62.87 44.59 M56.47 56.79 C58.03 54.58, 59.83 53.87, 63.32 49.57 M55.6 58.19 C58.09 55.26, 58.86 54.08, 62.7 49.02" stroke="#40c057" stroke-width="0.5" fill="none"></path><path d="M-1.58 -1.27 C18.74 0.17, 35.17 1.01, 62.3 -1.44 M-0.76 -0.34 C13.84 1.06, 28.42 1.56, 61.82 -0.91 M61.75 -0.04 C61.95 12.77, 60.98 22.83, 61.39 53.69 M61.01 -0.69 C60.37 19.03, 61.93 39.17, 62.42 55.81 M63.66 54.79 C43.67 53.66, 25.79 53.8, -0.34 57.1 M62.83 55.21 C39.55 55.56, 18.41 55.87, 0.76 54.44 M1.99 54.59 C1.56 33.15, 0.31 11.46, 1.93 -1.74 M-0.39 55.77 C-0.47 39.54, 0.39 21.75, 0.21 -0.08" stroke="#000000" stroke-width="1" fill="none"></path></g><g transform="translate(87.21715999909186 161.4299665178571) rotate(0 23.5 12.5)"><text x="23.5" y="18" font-family="Virgil, Segoe UI Emoji" font-size="20px" fill="#000000" text-anchor="middle" style="white-space: pre;" direction="ltr">"bar"</text></g><g stroke-linecap="round" transform="translate(264.57700916462977 214.38560267857156) rotate(0 30.92578125 27.623046875)"><path d="M0 0 C0 0, 0 0, 0 0 M0 0 C0 0, 0 0, 0 0 M0.13 6.09 C1.49 5.55, 2.08 3.52, 4.31 0.27 M-0.23 6.21 C1.4 4.79, 2.96 3.06, 5.24 0.3 M-0.76 11.4 C3.46 9.34, 9.03 3.24, 10.71 -0.01 M0.06 12.7 C4.47 7.68, 7.51 2.2, 9.88 0.72 M-1.06 18.58 C4.77 12.95, 8.46 8.04, 16.01 1.43 M-1.03 18.25 C3.31 14.92, 7.44 9.97, 15.48 0.92 M2.06 25.64 C4.43 19.03, 9.44 14.78, 22.76 -0.98 M0.97 23.57 C7.83 16.19, 14.33 9, 22.17 -0.66 M0.4 28.78 C4.18 22.29, 11.93 16.89, 28.17 -0.38 M0.77 29.96 C9.85 18.37, 20.96 7.88, 25.26 0.41 M1.59 37.85 C10.64 23.95, 22.47 11.47, 30.73 -1.2 M-0.8 37.12 C12.24 22.51, 24.3 9.02, 32 0.79 M1.44 40.94 C12.49 31.63, 21.36 19.18, 37.57 -0.75 M-0.5 42.95 C13.37 28.73, 26.55 14.24, 37.38 -0.18 M-1.42 47.02 C12.94 34.17, 25.7 20.15, 44.27 -0.73 M0.54 48.04 C14.66 30.27, 31.01 12.51, 41.58 0.79 M1.56 55.13 C17.26 36.05, 32.79 15.77, 46.17 -0.82 M-0.38 53.69 C10.32 42.48, 19.74 31.72, 47.94 -0.7 M2.83 57.86 C20 36.67, 40.19 15.45, 54.17 1.73 M3.1 57.19 C21.17 36.81, 39.42 15.08, 52.45 0.43 M9.29 55.72 C26.59 33.72, 46.2 15.06, 58.07 -1.39 M8.6 57.13 C27.36 36.58, 45.79 15.33, 57.7 1.12 M13.58 59.68 C27.81 45.5, 40.61 29.09, 61.7 -0.44 M12.97 57.71 C27.33 41.19, 41.8 24.95, 63.7 0.14 M19.18 57.5 C31.06 39.55, 47.31 27.51, 63.63 5.9 M19 57.93 C34.7 38.06, 51.35 20.19, 63.21 7.42 M25.08 59.21 C32.77 48.02, 44.47 34.95, 64.12 14.06 M24.78 56.94 C36.95 42.96, 47.64 29.96, 62.38 12.48 M29.59 57.58 C43.33 42.5, 54.14 28.57, 62.59 17.43 M29.16 57.3 C42.06 41.96, 55.96 27.04, 62.88 18.08 M33.65 58.49 C41.87 47.2, 53.48 34.91, 62.83 25.73 M33.71 57.24 C43.08 49.22, 51.84 38.94, 62.72 24.46 M40.65 57.41 C47.23 47.93, 53.02 40.17, 62.12 32.17 M40.22 57.99 C50.26 46.5, 58.18 37.55, 64.1 30.33 M43.73 57.86 C49.86 51.43, 56.99 45.49, 64.58 37.96 M44.61 58.03 C49.63 52.24, 53.98 47.2, 62.32 38.24 M49.74 55.95 C53.76 54.08, 60.97 47.01, 62.33 43.49 M50.5 58.27 C55.12 52.52, 60.64 46.74, 61.76 43.53 M54.76 57.92 C58.93 55.07, 61.19 51.21, 63.52 49.09 M55.34 57.25 C58.11 55.18, 59.13 53.72, 63.32 49.65" stroke="#7950f2" stroke-width="0.5" fill="none"></path><path d="M0.56 1.16 C15.08 -0.08, 25.9 -1.96, 60.53 -1.93 M0.46 0.11 C14.81 0.17, 26.8 -0.65, 62.21 -0.74 M62.72 -1.07 C60.87 15.84, 60.28 33.59, 59.88 56.74 M61.6 0.62 C62.09 12.5, 62.04 23.67, 62.39 55.03 M60.4 54.04 C36.37 54.68, 15.38 56.19, 0.43 54.35 M62.45 56.22 C38.16 55.95, 11.85 55.99, -0.26 56.19 M-1.09 55.41 C-1.59 35.09, -1.56 11, 0.01 -0.81 M0.61 55.63 C-1.16 41.04, -0.36 26.18, -0.46 0.91" stroke="#000000" stroke-width="1" fill="none"></path></g><g stroke-linecap="round" transform="translate(264.45982166462977 141.6526227678571) rotate(0 30.92578125 27.623046875)"><path d="M1.4 0.45 C22.47 -1.78, 46.52 -2.29, 60.33 -0.67 M0.96 -0.03 C15.72 -0.91, 33.6 -0.81, 61.8 -0.02 M60.88 -0.46 C60.53 17.29, 60.12 34.12, 60.17 53.86 M62.47 0.57 C62.28 11.21, 62.25 22.58, 62.76 55.02 M60.53 54.91 C47.48 56.05, 29.82 53.98, 1.95 55.17 M62.76 56.01 C43.06 56.65, 25.62 56.79, 1 54.92 M-1.77 57.17 C-1.44 34.68, 0.31 13.48, -0.78 1.04 M-0.87 55.46 C-0.41 41.05, -0.79 28.22, 0.4 -0.1" stroke="#000000" stroke-width="1" fill="none"></path></g><g stroke-linecap="round"><g transform="translate(193.25279041462977 170.2287946428571) rotate(0 30.225464770756666 -0.09138355461516312)"><path d="M0.84 0.27 C10.51 0.05, 48.77 -0.43, 58.37 -0.63 M-0.18 -0.63 C9.84 -0.78, 50.44 0.39, 60.63 0.46" stroke="#000000" stroke-width="1" fill="none"></path></g><g transform="translate(193.25279041462977 170.2287946428571) rotate(0 30.225464770756666 -0.09138355461516312)"><path d="M33.06 8.63 C40.32 5.4, 49.01 2.05, 59.95 -0.16 M32.58 9.16 C41.45 6.83, 51.25 3.1, 60.61 0.41" stroke="#000000" stroke-width="1" fill="none"></path></g><g transform="translate(193.25279041462977 170.2287946428571) rotate(0 30.225464770756666 -0.09138355461516312)"><path d="M33.44 -11.63 C40.7 -8.21, 49.25 -4.91, 59.95 -0.16 M32.96 -11.09 C41.72 -6.41, 51.39 -3.13, 60.61 0.41" stroke="#000000" stroke-width="1" fill="none"></path></g></g><g stroke-linecap="round" transform="translate(256.90904041462977 134.3616071428571) rotate(0 37.556640625 70.591796875)"><path d="M-1.44 -1.42 C25.59 -2.1, 52.29 -0.84, 74.49 0.92 M-0.91 -0.85 C23.7 -0.72, 46.63 0, 75.07 0.44 M73.56 0.98 C72.46 36.28, 72.75 68.18, 73.24 140.68 M75.68 -0.18 C76.53 50.95, 76.89 102.09, 74.74 140.46 M76.97 142.37 C57.54 140.16, 41.06 140.98, -0.18 142.37 M74.3 141.99 C45 142.7, 16.39 141.42, 0.71 140.64 M-1.74 141.09 C1.26 96.83, 0.47 55.14, -0.94 1.21 M-0.08 140.95 C0.77 94.27, 1.63 45.44, 0.94 -0.21" stroke="#000000" stroke-width="1" fill="none"></path></g><g stroke-linecap="round" transform="translate(80.48588055507953 17.978794642856656) rotate(0 30.92578125 27.623046875)"><path d="M1.56 -1.86 C20.15 1.29, 36.42 0.01, 63.29 0.01 M0.9 -0.93 C20.23 0.27, 40.37 -0.8, 62.16 0.5 M61.98 1.46 C61.68 12.8, 60.79 29.32, 61.57 56.68 M62.81 -0.45 C61.24 20.37, 61.92 40.05, 61.78 55.12 M63.79 56.09 C49.74 54.29, 35.24 54.12, 0.91 54.39 M61.38 55.39 C38.27 54.37, 15.57 55.49, 0.9 55.53 M-0.93 56.27 C-2.33 38.25, -1.77 17.77, -0.37 -1.76 M-0.42 55.36 C0.34 41.3, 0.09 27.81, -0.66 0.68" stroke="#000000" stroke-width="1" fill="none"></path></g><g stroke-linecap="round"><g transform="translate(10.702101052179927 44.70782700699738) rotate(0 29.16641148887575 0.40001138046295637)"><path d="M-0.7 -0.72 C9.05 -0.38, 49.07 1.26, 59.03 1.33 M1.13 1.52 C10.66 1.61, 48.46 -0.09, 57.98 -0.22" stroke="#000000" stroke-width="1" fill="none"></path></g><g transform="translate(10.702101052179927 44.70782700699738) rotate(0 29.16641148887575 0.40001138046295637)"><path d="M29.27 10.42 C41.81 6.9, 48.56 2.11, 56.53 -1.98 M31.19 11.34 C39.13 6.93, 48.3 2.41, 57.16 0.02" stroke="#000000" stroke-width="1" fill="none"></path></g><g transform="translate(10.702101052179927 44.70782700699738) rotate(0 29.16641148887575 0.40001138046295637)"><path d="M28.66 -9.83 C41.29 -6.4, 48.25 -4.25, 56.53 -1.98 M30.58 -8.91 C38.58 -6.47, 47.95 -4.12, 57.16 0.02" stroke="#000000" stroke-width="1" fill="none"></path></g></g><g stroke-linecap="round"><g transform="translate(294.2446231146028 243.47014508928623) rotate(0 37.9778329642769 0.13421714442279153)"><path d="M0.13 -0.65 C13.16 -0.73, 64.47 -1.16, 77.22 -1.36 M-1.26 1.62 C11.69 1.77, 62.83 0.31, 76.23 -0.15" stroke="#000000" stroke-width="1" fill="none"></path></g><g transform="translate(294.2446231146028 243.47014508928623) rotate(0 37.9778329642769 0.13421714442279153)"><path d="M47.27 10.82 C53.48 7.33, 58.68 6.64, 77.63 0.6 M48.57 10.24 C55.03 8.05, 59.41 7.09, 76.43 0.16" stroke="#000000" stroke-width="1" fill="none"></path></g><g transform="translate(294.2446231146028 243.47014508928623) rotate(0 37.9778329642769 0.13421714442279153)"><path d="M46.65 -9.69 C52.84 -8.71, 58.18 -4.94, 77.63 0.6 M47.95 -10.27 C54.5 -8.05, 59.02 -4.6, 76.43 0.16" stroke="#000000" stroke-width="1" fill="none"></path></g></g><g transform="translate(382.00689990031714 231.590680803572) rotate(0 60.5 12.5)"><text x="0" y="18" font-family="Virgil, Segoe UI Emoji" font-size="20px" fill="#000000" text-anchor="start" style="white-space: pre;" direction="ltr">/foobarbaz/</text></g></svg>