<svg version="1.1" xmlns="http://www.w3.org/2000/svg" viewBox="0 0 329.16369598712754 161.18359375" width="329.16369598712754" height="161.18359375">
  <!-- svg-source:excalidraw -->
  
  <defs>
    <style class="style-fonts">
      @font-face {
        font-family: "Virgil";
        src: url("https://excalidraw.com/Virgil.woff2");
      }
      @font-face {
        font-family: "Cascadia";
        src: url("https://excalidraw.com/Cascadia.woff2");
      }
    </style>
  </defs>
  <rect x="0" y="0" width="329.16369598712754" height="161.18359375" fill="#ffffff"></rect><g stroke-linecap="round" transform="translate(251.71838348712754 90.19140625) rotate(0 30.92578125 27.623046875)"><path d="M0 0 C0 0, 0 0, 0 0 M0 0 C0 0, 0 0, 0 0 M-0.83 7.09 C2.23 4.15, 2.57 2.76, 5.36 0.37 M-0.54 6.58 C0.92 4.6, 2.55 3.54, 4.62 0.11 M-0.43 11.57 C5.44 7.73, 6.84 3.82, 11.64 0.45 M-0.63 11.89 C2.7 9.33, 4.83 5.71, 9.95 -0.02 M0.67 17 C3.45 12.82, 5.47 8.71, 17.6 2.03 M-0.81 17.87 C3.96 14.3, 8.08 8.85, 15.8 0.83 M-0.3 23.26 C5.74 20.85, 7.25 12.11, 19.96 -1.1 M0.71 24.83 C9.1 14.12, 16.79 5.56, 21.34 0.88 M0.12 29.76 C7.1 19.17, 18.71 8.8, 27.35 1.86 M0.29 30.52 C9.4 17.53, 20.29 6.54, 25.33 -0.62 M-0.82 37.81 C10.28 26.3, 19.39 12.49, 30.04 0 M0.01 36.87 C8.05 27.36, 17.95 16.19, 32.54 0.75 M-1.17 40.63 C14.94 26.54, 28.92 8.68, 37.91 0.8 M0.43 42.7 C8.37 33.33, 17.77 23.33, 36.35 0.1 M-1.19 47.62 C16.68 29.11, 30.06 13.07, 42.81 0.06 M0.63 49.59 C9.64 38.36, 18.66 27.93, 42.95 -0.23 M-1.66 54.96 C17.22 36.03, 31.61 20.61, 48.39 1.85 M-0.26 55.03 C13.75 41.15, 24.96 25.13, 48.08 0.88 M4.54 58.57 C22.17 35.98, 42.91 14.03, 52.35 0.4 M2.32 57.06 C16.68 41.38, 31.83 23.96, 53.21 -0.19 M9.48 58.1 C21.89 44.13, 32.13 31.35, 56.33 0.1 M7.29 56.75 C20.64 43.71, 33.82 29.34, 58.3 -0.2 M12.03 56.83 C30.63 41.79, 46.53 22.13, 63.5 2.15 M12.68 57.78 C32.44 36.56, 50.33 16.14, 63.34 0.18 M17.37 57.61 C33.45 43.32, 43.84 26.93, 61.78 7.55 M19.07 56.9 C33.78 39.49, 49.71 23.07, 62.43 6.97 M24.23 57.79 C36.55 44.37, 48.35 28.87, 61.3 14.14 M23.71 58.53 C35.94 42.26, 48.75 28.66, 63.21 12.5 M31.16 59.13 C37.34 47.7, 43.4 39.71, 62.39 19.96 M28.73 57.23 C41.63 43.36, 53.92 29.7, 63.65 18.37 M34.37 59.84 C42.76 51.96, 45.53 44.21, 63.22 24.1 M33.85 57.27 C42.57 47.37, 51.7 37.36, 61.74 24.9 M42.02 56.37 C50.56 48.03, 55.53 38.41, 63.51 31.43 M40.61 57.14 C46.05 50.78, 51.59 45.04, 63.96 31.43 M44.07 59.49 C49.52 50.75, 56.5 42.9, 64.3 38.48 M45.07 57.12 C51.03 50.32, 59.16 41.8, 63.09 36.83 M50.56 56.25 C53.39 54.67, 55.97 48.1, 63.54 42.35 M50.15 57.72 C54.03 54.33, 58.17 50.27, 62.67 43.81 M56.65 57.53 C58.67 54.87, 61.74 52.44, 63.36 49.78 M55.85 57.59 C58.52 54.33, 61.49 51.79, 62.52 49.57" stroke="#228be6" stroke-width="0.5" fill="none"></path><path d="M-1.71 1.09 C11.89 0.22, 29.65 -1.18, 63.2 -1.56 M-0.89 0.66 C11.9 0.67, 26.54 0.77, 60.97 -0.02 M63.79 -1.78 C59.93 15.89, 62.32 31.84, 62.08 53.35 M61.76 -0.66 C62.92 15.19, 62.6 30.89, 61.16 56.06 M60.16 55.41 C45.44 55.7, 29.97 56.6, 0.74 56.06 M62.11 55.64 C46.5 54.73, 29.54 54.43, -0.87 56.19 M0.75 54.88 C-0.32 37.64, 0.46 20.87, 1.66 -0.26 M-0.84 56.18 C-0.4 35.88, -1.08 15.98, 0.65 -0.75" stroke="#000000" stroke-width="1" fill="none"></path></g><g transform="translate(275.64416473712754 105.314453125) rotate(0 7 12.5)"><text x="7" y="18" font-family="Virgil, Segoe UI Emoji" font-size="20px" fill="#000000" text-anchor="middle" style="white-space: pre;" direction="ltr">5</text></g><g stroke-linecap="round" transform="translate(251.60119598712754 17.291015625) rotate(0 30.92578125 27.623046875)"><path d="M-1.24 1.69 C22.34 1.04, 43.9 -0.02, 63.45 0.44 M0.3 -0.49 C13.35 -0.9, 25.62 -0.57, 61.77 0.33 M61.88 -1.54 C61.34 13.59, 62.43 23.98, 61.89 53.74 M62.7 -0.61 C60.47 12.68, 60.74 24.56, 62.02 55.45 M62.85 53.5 C39.84 55.42, 17.64 54.53, 0.98 57.16 M61.34 56.24 C50.32 54.78, 37.44 55.59, 0.66 54.93 M1.89 56.15 C-0.31 38.12, -0.31 21.8, -1.95 -0.99 M0.79 56.15 C-0.29 37.99, 0.55 18.82, -1 -0.93" stroke="#000000" stroke-width="1" fill="none"></path></g><g stroke-linecap="round"><g transform="translate(180.39416473712754 45.8671875) rotate(0 29.52272997237742 -0.3054701856803206)"><path d="M-0.95 0.46 C9.17 0.45, 50.14 0.52, 60 0.65 M0.75 -0.34 C10.85 -0.78, 49.48 -1.21, 59.45 -1.26" stroke="#000000" stroke-width="1" fill="none"></path></g><g transform="translate(180.39416473712754 45.8671875) rotate(0 29.52272997237742 -0.3054701856803206)"><path d="M32.48 10.39 C38.95 5.14, 46.49 4.55, 59.2 -1.02 M31.8 9.41 C41.98 4.89, 51.99 1.61, 59.67 -1.17" stroke="#000000" stroke-width="1" fill="none"></path></g><g transform="translate(180.39416473712754 45.8671875) rotate(0 29.52272997237742 -0.3054701856803206)"><path d="M32.3 -9.87 C38.94 -10.29, 46.52 -6.06, 59.2 -1.02 M31.62 -10.85 C41.78 -8.26, 51.86 -4.45, 59.67 -1.17" stroke="#000000" stroke-width="1" fill="none"></path></g></g><g stroke-linecap="round" transform="translate(244.05041473712754 10) rotate(0 37.556640625 70.591796875)"><path d="M0.39 0.46 C20.35 1.6, 43.25 -1.47, 73.2 0.45 M-0.73 0.68 C23.9 -0.67, 47.63 1.05, 76.03 -0.72 M73.65 -0.32 C75.85 49.41, 74.31 94.45, 77.09 139.73 M75.96 0.36 C75.39 56.95, 76.62 113.42, 74.76 141.35 M74.01 142.63 C56.25 139.06, 35.51 142.78, 1.57 139.59 M74.21 141.72 C54.26 142.58, 33.87 142.61, -0.04 141.55 M1.71 139.79 C-0.34 89.16, 1.72 36.89, -0.86 -1.27 M0.92 141.58 C1.43 97.58, 0.46 55.36, 0.47 -0.83" stroke="#000000" stroke-width="1" fill="none"></path></g><g stroke-linecap="round" transform="translate(81.83667102195318 88.5048828125) rotate(0 30.92578125 27.623046875)"><path d="M1.89 -1.05 C18.01 -2, 34.93 1.13, 62.59 -1.81 M-0.66 -0.39 C15.85 0.87, 33.05 1.19, 62.7 0.37 M59.96 -0.29 C60.7 13.08, 60.16 21.9, 59.97 55.22 M61.59 -0.19 C61.77 20.44, 61.41 41.6, 62.64 55.81 M60.96 54.44 C41.52 55.59, 18.55 54.69, 0.01 56.26 M62.53 56 C40.95 56.34, 20.71 55.89, 0.62 56.04 M0.79 54.48 C-0.97 45.46, -1.26 32.91, 0.04 -1.99 M-0.63 54.81 C1.18 43.64, 0.81 33.31, 0.71 -0.98" stroke="#000000" stroke-width="1" fill="none"></path></g><g stroke-linecap="round"><g transform="translate(10.62963977195318 117.0810546875) rotate(0 29.848678283151287 0.4533415184731382)"><path d="M-0.63 0.26 C8.99 0.08, 48.06 0.02, 58.17 0.09 M1.24 -0.65 C11.18 -0.12, 50.58 1.68, 60.33 1.55" stroke="#000000" stroke-width="1" fill="none"></path></g><g transform="translate(10.62963977195318 117.0810546875) rotate(0 29.848678283151287 0.4533415184731382)"><path d="M32.72 9.33 C41.42 9.39, 51.84 3, 59.61 1.34 M31.79 11.74 C40.07 9.66, 47.93 6.56, 59.38 1.22" stroke="#000000" stroke-width="1" fill="none"></path></g><g transform="translate(10.62963977195318 117.0810546875) rotate(0 29.848678283151287 0.4533415184731382)"><path d="M33.15 -10.93 C41.89 -4.04, 52.17 -3.61, 59.61 1.34 M32.22 -8.52 C40.25 -5.28, 48 -3.05, 59.38 1.22" stroke="#000000" stroke-width="1" fill="none"></path></g></g><g stroke-linecap="round" transform="translate(74.57775848712754 82.359375) rotate(0 37.890625 34.412109375)"><path d="M1.64 0.86 C21.85 -0.59, 43.66 -0.91, 76.48 0.9 M-0.31 -0.07 C17.71 0.52, 34.95 0.11, 76.54 0.53 M77.01 -0.13 C75.1 18.4, 76.05 36.54, 74.56 67.97 M75.66 0.19 C74.55 16.42, 74.67 32.52, 76.07 69.09 M77.55 69.52 C53.35 69.94, 34.22 69, -0.08 68.08 M75.74 67.94 C48.68 68.26, 20.42 69.21, -0.3 69.01 M-1.73 70.18 C-0.48 39.94, 0.24 13.13, -1.47 1.7 M0.6 69.49 C0.63 45.16, -0.08 21.42, -0.28 -0.99" stroke="#000000" stroke-width="1" fill="none"></path></g></svg>