<svg version="1.1" xmlns="http://www.w3.org/2000/svg" viewBox="0 0 342.14835763938436 152.0930524553571" width="342.14835763938436" height="152.0930524553571">
  <!-- svg-source:excalidraw -->
  
  <defs>
    <style class="style-fonts">
      @font-face {
        font-family: "Virgil";
        src: url("https://excalidraw.com/Virgil.woff2");
      }
      @font-face {
        font-family: "Cascadia";
        src: url("https://excalidraw.com/Cascadia.woff2");
      }
    </style>
  </defs>
  <rect x="0" y="0" width="342.14835763938436" height="152.0930524553571" fill="#ffffff"></rect><g stroke-linecap="round" transform="translate(91.00069706208433 81.22195870535779) rotate(0 30.92578125 27.623046875)"><path d="M0 0 C0 0, 0 0, 0 0 M0 0 C0 0, 0 0, 0 0 M-0.51 6.1 C1.02 4.61, 3.85 2.35, 4.32 -0.16 M-0.06 6.08 C1.28 5.2, 2.69 3.53, 4.79 0.56 M-0.87 11.04 C1.52 10.23, 4.5 7.13, 9.51 -0.72 M-0.27 12.12 C4 7.64, 7.18 3.01, 10.37 0.08 M0.82 16.59 C3.05 14.41, 8.51 11.58, 14.02 -1.51 M-0.95 18.52 C6.02 12.08, 11.43 3.98, 14.9 1.02 M-1.5 24.07 C4.58 18.44, 11.18 14.27, 23.1 -0.82 M0.88 23.96 C7.16 17.24, 12.86 9.13, 22.1 -0.83 M1 30.19 C5.17 23.53, 13.59 15.69, 25.39 2.19 M-0.45 30.7 C9.6 19.84, 19.79 8.04, 26.32 1.14 M-0.04 35.19 C7.71 29.21, 12.37 19.88, 30.92 0.08 M-0.56 35.96 C7.27 28.09, 14.43 19.73, 32.1 0.71 M0.04 43.37 C13.39 28.15, 28.29 10.42, 36.09 -0.43 M-0.83 42.39 C12.89 26.93, 27.06 12.5, 36.15 0.09 M-0.62 49.92 C17.68 30.74, 33.67 10.52, 41.28 -1.96 M-1.05 49.58 C14.2 33.19, 26.07 19.28, 42.88 0.1 M-1.36 54.23 C15.77 39.98, 27.83 24.77, 48.12 2.16 M-0.59 54.99 C13.91 40.2, 25.66 23.15, 48.4 -0.58 M0.84 59.43 C19.71 39.69, 36.1 19.8, 53.11 0.42 M2.3 58.17 C14.67 43.47, 27.33 28.49, 54.08 0.82 M7.73 58.97 C24.99 37.07, 46.15 15.61, 56.84 1.68 M8.74 57.01 C27.27 35.07, 46.79 14.27, 58.61 0.36 M13.07 59.24 C32.83 38.32, 49.91 15.49, 65.02 0.51 M13.25 56.97 C23.15 47.24, 34.12 34.24, 62.79 0.33 M17.46 58.03 C28.11 46.93, 39.46 34.36, 63.04 6.78 M18.57 57.24 C33.45 39.39, 49.62 22.25, 63.02 7.58 M23.02 58.15 C38.68 38.67, 53.82 23.59, 60.79 13.33 M23.01 57 C36.76 43.38, 49.01 27.92, 61.96 12.8 M30.95 55.99 C40.86 45.71, 50.3 33.27, 64.06 17.95 M30.02 57.62 C42.64 44.23, 54.76 29.07, 62.68 19.15 M34.85 56.06 C43.26 51.74, 48.09 43.25, 61.54 26.88 M34.21 57.89 C41.68 49.29, 49.12 40.9, 63.62 25.42 M38.29 55.57 C44.82 49.92, 51.34 42.22, 63.88 30.1 M40.9 58.23 C45.14 50.47, 51.72 45.89, 62.46 32.02 M44.07 59.01 C52.53 49.85, 56.07 45.66, 62.9 37.92 M46.11 57.94 C49.94 50.42, 56.14 43.86, 63.09 37.16 M51.78 58.53 C55.15 50.89, 60.3 46.88, 62.58 44.25 M50.19 57.35 C54.79 53.7, 57.72 48.73, 63.48 42.95 M55.64 57.45 C59.16 54.76, 62.03 52.14, 62.2 48.45 M55.64 57.41 C56.98 55.56, 59.1 53.66, 62.68 49.41" stroke="#40c057" stroke-width="0.5" fill="none"></path><path d="M-0.43 -0.65 C18.18 0.15, 36.49 -0.68, 61.76 -1.04 M0.1 -0.96 C20.61 1.31, 39.75 -0.31, 62.77 0.02 M61.81 -0.57 C61.17 10.86, 60.39 22.96, 60.07 57.09 M62.74 0.25 C60.87 14.2, 60.8 27.62, 62.14 55.02 M62.69 56.56 C46.05 56, 27.36 53.98, -0.64 55.57 M62.49 55.69 C41.17 53.91, 19.3 54.06, -0.9 56.19 M-1.72 56.47 C0.7 36.67, 0.02 19.58, 1.59 -1.71 M-0.84 54.81 C0.36 42.55, 0.25 30.72, 0.94 -0.97" stroke="#000000" stroke-width="1" fill="none"></path></g><g transform="translate(98.42647831208433 96.34500558035779) rotate(0 23.5 12.5)"><text x="23.5" y="18" font-family="Virgil, Segoe UI Emoji" font-size="20px" fill="#000000" text-anchor="middle" style="white-space: pre;" direction="ltr">"foo"</text></g><g stroke-linecap="round" transform="translate(83.18136112458433 10.15625) rotate(0 37.556640625 65.96840122767856)"><path d="M0.78 -1.05 C19.98 -0.95, 40.5 1.93, 73.87 0.2 M0.49 -0.7 C16.22 -0.68, 29.82 0.02, 74.49 -0.02 M73.25 -1.62 C72.62 37.66, 73.32 71.05, 74.49 133.71 M74.22 0.46 C74.32 42.65, 73.86 85.8, 74.72 132.36 M75.64 130.92 C47.02 132.64, 21.04 131.46, -1.54 133.21 M74.89 131.23 C48.35 132.24, 23.66 131.64, 0.66 131.08 M0.22 132.27 C1 82.6, -2.25 36.89, 0.11 -1.67 M0.31 131.39 C0.38 97.11, -0.11 65.15, 0.31 0.16" stroke="#000000" stroke-width="1" fill="none"></path></g><g stroke-linecap="round" transform="translate(89.8342569133091 16.069614955356883) rotate(0 30.92578125 27.623046875)"><path d="M0.2 -1.93 C21.58 2.25, 40.24 -1.01, 63.69 0.04 M-0.02 -0.29 C13.22 -0.33, 26.58 -0.42, 60.96 0.92 M63.62 0.5 C60.05 14.82, 59.9 28.09, 62.43 54.79 M62.27 0.66 C62.73 16.14, 62.14 30.77, 61.53 55.41 M63.12 56.13 C41.64 53.04, 19.07 53.35, -1.81 57.14 M60.99 55.86 C42.14 55.36, 21.65 55.82, 0.79 54.39 M-1.67 54.38 C0.78 41.85, 0.55 30.18, 1.87 -1.95 M0.16 55 C0.47 35.27, -1.48 17.02, 0.54 0.4" stroke="#000000" stroke-width="1" fill="none"></path></g><g stroke-linecap="round"><g transform="translate(10.603575514592194 42.005998883928896) rotate(0 34.2413385980949 -1.7481735715175546)"><path d="M0.56 -0.36 C11.53 -0.69, 55.46 -0.95, 66.71 -1.07 M-0.6 -1.59 C10.68 -2.39, 57.7 -3.4, 69.09 -3.08" stroke="#000000" stroke-width="1" fill="none"></path></g><g transform="translate(10.603575514592194 42.005998883928896) rotate(0 34.2413385980949 -1.7481735715175546)"><path d="M40.31 6.17 C51.76 4.46, 62.27 1.03, 70.06 -2.11 M40.72 8.16 C51.57 3.88, 63.45 -0.52, 69.63 -2.75" stroke="#000000" stroke-width="1" fill="none"></path></g><g transform="translate(10.603575514592194 42.005998883928896) rotate(0 34.2413385980949 -1.7481735715175546)"><path d="M40.28 -14.35 C51.89 -8.39, 62.42 -4.13, 70.06 -2.11 M40.69 -12.36 C51.49 -8.49, 63.38 -4.74, 69.63 -2.75" stroke="#000000" stroke-width="1" fill="none"></path></g></g><g stroke-linecap="round" transform="translate(264.85441232688436 81.06570870535779) rotate(0 30.92578125 27.623046875)"><path d="M0 0 C0 0, 0 0, 0 0 M0 0 C0 0, 0 0, 0 0 M0.44 6.88 C1.62 5.2, 2.76 3.39, 4.32 -0.28 M-0.19 6.02 C1.73 4.45, 3.94 2.02, 4.97 0.07 M0.24 12.25 C2.18 7.27, 7.59 4.93, 9.84 0.51 M-0.5 12.2 C2.65 10.11, 5.15 7.33, 10.4 -0.11 M-1.23 17.86 C5.28 12.45, 7.09 6.27, 14.53 0.12 M0.23 19.38 C5.44 11.76, 11.59 6.2, 15.83 -0.45 M2.04 25.26 C5.5 18.02, 9.44 12.91, 22.59 -1.53 M0.04 24.53 C7.13 15.82, 14.46 7.59, 20.97 0.53 M-1.17 30.3 C6.92 25.46, 9.52 18.79, 28.07 0.8 M0.7 30.46 C6 24.04, 13.79 15.45, 25.34 0.75 M-1.37 36.8 C11.29 23.24, 24.72 10.84, 30.58 -1.39 M-0.52 36 C7.09 29.25, 13.52 22.09, 31.02 -0.54 M0.14 43.49 C11.9 30.13, 20.84 17.76, 38.21 -1.67 M0.33 43.5 C14.46 26.57, 29.27 8.92, 37.7 -0.59 M1.75 48.81 C15.24 34.47, 27.69 16.24, 43.3 -0.08 M0.15 49.36 C10.19 37.3, 19.54 25.7, 43.13 0.07 M0.53 54.18 C16.31 31.95, 34.53 14.21, 45.57 1.4 M0.71 53.94 C13.24 39.22, 27.57 24.67, 48.21 -0.12 M2.11 57.59 C14.74 44.1, 24.24 35.34, 51.81 1.42 M2.26 58.79 C20.94 37.36, 38.02 17.55, 53.5 -0.57 M7.04 58.19 C24.55 41.9, 39.4 22.64, 59.1 -0.16 M8.86 57.87 C22.28 41.04, 33.96 27.67, 58.26 -0.3 M14.04 56.83 C27.98 41.48, 42.61 27.81, 61.82 1.03 M13.38 57.82 C28.42 40.09, 43.56 23.76, 62.3 0.02 M16.92 56.61 C34.14 43.03, 46.26 25.09, 64.21 5.46 M19.28 57.11 C30.69 43.14, 43.5 28.35, 62.41 7.34 M25.11 58.46 C32.79 43.82, 45.22 34.69, 63.22 11.42 M23.03 57.28 C39.1 40.24, 55.25 23.58, 62.04 12.57 M31.4 55.67 C37.68 47.66, 44.94 36.09, 61.86 18.91 M28.65 58.16 C40.85 45.12, 50.45 33.25, 62.5 18.17 M35.08 58.51 C41.9 50.06, 47.94 40.88, 62.24 27.22 M34.69 58.1 C42.29 48.62, 52.01 38.42, 62.84 26.35 M41.67 56.72 C44.44 51.21, 51.91 40.77, 62.62 32.2 M40.85 57.17 C49.43 48.87, 56.28 38.42, 62.75 31.96 M46.08 56.16 C51.44 49.44, 58.16 42.26, 62.62 36.84 M44.92 57.39 C49.4 52.26, 54.46 47.6, 62.57 37.84 M52.13 57.3 C55.55 53.57, 59.1 47.38, 64.03 44.49 M51.31 57.89 C53.95 55.26, 55.43 51.18, 62.23 43.69 M56.21 58.87 C58.14 56.2, 60.16 53.23, 63.62 49.8 M56.09 57.57 C56.86 56.14, 59.23 54.26, 62.64 49.48" stroke="#12b886" stroke-width="0.5" fill="none"></path><path d="M1.27 -0.27 C16.51 -1.36, 33.24 -1.79, 61.41 0.73 M-0.49 -0.98 C15.04 -0.15, 29.51 0.52, 62.3 -0.32 M60.49 -0.23 C63.38 14.42, 60.71 27.03, 60.62 54.46 M61.1 -0.98 C61.84 15.18, 61.29 32.39, 61.66 54.54 M63.28 53.3 C43.82 54.75, 28.62 54.77, -0.54 56.49 M60.9 56.04 C46.17 54.89, 31.34 55.04, -0.73 55.41 M-1.73 53.99 C-1.77 35.07, -0.8 15.74, -1.86 -0.05 M0.77 54.48 C0.02 42.14, -0.72 29.12, 0.18 -0.43" stroke="#000000" stroke-width="1" fill="none"></path></g><g transform="translate(276.28019357688436 96.18875558035779) rotate(0 19.5 12.5)"><text x="19.5" y="18" font-family="Virgil, Segoe UI Emoji" font-size="20px" fill="#000000" text-anchor="middle" style="white-space: pre;" direction="ltr">:foo</text></g><g stroke-linecap="round" transform="translate(257.03507638938436 10) rotate(0 37.556640625 65.96840122767856)"><path d="M0.73 -0.93 C29.38 -1.26, 54.96 0.83, 73.79 1.38 M0.59 0.01 C25.04 1.41, 49.33 0.41, 74.74 0.04 M76.62 -0.09 C73.05 31.55, 72.98 66.29, 74.87 131.85 M75.13 -0.72 C73.58 45.79, 73.93 89.67, 74.75 132.72 M73.42 131.28 C50.02 130.57, 25.52 132.45, -1.2 130.92 M74.29 131.61 C52.14 132.36, 30.04 132.69, 0.67 132.31 M-1.56 132.05 C0.55 104.39, -0.71 74.64, -1.17 -0.52 M-0.12 132.17 C-1.88 98.73, -0.84 63.99, -0.42 0.18" stroke="#000000" stroke-width="1" fill="none"></path></g><g stroke-linecap="round" transform="translate(263.68797217810925 15.913364955356883) rotate(0 30.92578125 27.623046875)"><path d="M-0.93 1.67 C21.13 -0.67, 45.71 -1.55, 63.23 0.51 M0.01 0.6 C16.18 0.09, 30.68 -0.74, 61.89 -0.46 M61.76 -1.16 C59.8 11.58, 61 25.37, 61.76 56.1 M61.14 -0.54 C61.91 12.23, 60.61 24.49, 62.63 55.51 M61.2 54.68 C38.25 54.19, 17.16 53.53, -1.02 55.15 M61.52 54.45 C49.01 54.01, 36.68 55.41, 0.38 54.42 M0.12 54.65 C1.42 41.6, 0.29 30.5, -0.52 -0.88 M0.23 54.38 C0.98 34.6, -0.01 13.18, 0.18 -0.81" stroke="#000000" stroke-width="1" fill="none"></path></g><g stroke-linecap="round"><g transform="translate(184.45729077939222 41.849748883928896) rotate(0 34.123159371260556 -0.28274337016046047)"><path d="M-0.56 1 C10.55 0.67, 55.13 -1.05, 66.52 -1.57 M1.35 0.49 C12.85 0.3, 57.82 0.11, 68.81 -0.17" stroke="#000000" stroke-width="1" fill="none"></path></g><g transform="translate(184.45729077939222 41.849748883928896) rotate(0 34.123159371260556 -0.28274337016046047)"><path d="M42.43 9.1 C48.31 8.28, 55.46 5.88, 69.31 -1.16 M41.36 11.14 C46.8 7.99, 51.62 6.21, 68.35 -0.85" stroke="#000000" stroke-width="1" fill="none"></path></g><g transform="translate(184.45729077939222 41.849748883928896) rotate(0 34.123159371260556 -0.28274337016046047)"><path d="M42.16 -11.42 C48.19 -6.36, 55.42 -2.88, 69.31 -1.16 M41.08 -9.38 C46.7 -8.39, 51.58 -6.04, 68.35 -0.85" stroke="#000000" stroke-width="1" fill="none"></path></g></g></svg>