<svg version="1.1" xmlns="http://www.w3.org/2000/svg" viewBox="0 0 506.79832336290923 285.54520089285734" width="506.79832336290923" height="285.54520089285734">
  <!-- svg-source:excalidraw -->
  
  <defs>
    <style class="style-fonts">
      @font-face {
        font-family: "Virgil";
        src: url("https://excalidraw.com/Virgil.woff2");
      }
      @font-face {
        font-family: "Cascadia";
        src: url("https://excalidraw.com/Cascadia.woff2");
      }
    </style>
  </defs>
  <rect x="0" y="0" width="506.79832336290923" height="285.54520089285734" fill="#ffffff"></rect><g stroke-linecap="round" transform="translate(81.68202541644683 214.67410714285734) rotate(0 30.92578125 27.623046875)"><path d="M0 0 C0 0, 0 0, 0 0 M0 0 C0 0, 0 0, 0 0 M0.07 6.29 C0.93 4.84, 3.19 2.88, 4.37 0.67 M-0.17 6.53 C0.75 5.44, 2.2 3.49, 5.32 0.71 M-0.84 10.52 C5.31 6.44, 7.52 3.36, 11.44 0.35 M-0.18 11.8 C2.66 8.27, 5.66 5.41, 10.03 -0.43 M-0.16 17.21 C6.9 12.53, 13.29 6.23, 13.66 -0.5 M-0.31 18.12 C2.91 14.31, 6.04 11.02, 15.92 0.22 M-0.21 23.34 C7.33 17.85, 12.76 6.8, 20.8 -1.89 M0.58 23.54 C4.27 17.86, 9.42 14.32, 21.12 -0.87 M0.41 32.13 C7.19 19.97, 19.43 10.71, 24.6 1.64 M0.11 30.67 C9.11 20.73, 16.67 11.08, 25.6 0.38 M1.7 37.96 C8.75 26.24, 18.42 15.07, 32.68 1.42 M-1.24 36.17 C9.75 26.22, 19.76 14.8, 31.89 -0.09 M-1.42 42.66 C14.98 24.28, 28.62 9.82, 36.02 1.16 M0.01 42.24 C10.48 31.04, 20.79 17.85, 36.83 -0.23 M-0.45 50.22 C10.31 36.86, 19.38 25.14, 40.83 1.39 M-0.38 49.14 C10.61 36.24, 22.13 22.26, 43.12 -0.68 M1.78 55.95 C13.96 38.44, 26.38 25.61, 47.81 1.96 M0.39 55.24 C13.49 40.86, 25.37 27.31, 47.23 -0.44 M1.09 57.91 C20.32 37.79, 36.2 17.24, 51.98 -1.62 M2.82 58.26 C12.63 46.67, 22.74 33.79, 52.9 0.4 M6.49 59.41 C26.8 36.33, 49.68 13.36, 58.01 0.34 M9.26 56.61 C27.47 33.77, 47.97 10.93, 59.1 0.96 M11.49 59.39 C30.28 37.87, 48.01 20.47, 63.35 0.83 M13.96 57.66 C32.22 36.6, 50.22 15.67, 62.83 -0.43 M19.19 58.89 C37.36 37.32, 52.55 18.59, 62.93 5.69 M19.71 56.98 C27.98 44.67, 39.19 33.13, 62.5 7.08 M22.95 58.45 C37.87 40.3, 50.47 25.06, 64.13 13.11 M23.22 57.64 C33.96 46.26, 42.44 36.11, 62.51 13.34 M30.18 58.58 C38.1 48.83, 45.87 39.47, 64.23 19.47 M28.6 57.51 C43.31 43.75, 53.97 28.29, 63.4 18.78 M33.7 58.19 C43.85 47.81, 50.94 41.07, 63.65 26.76 M35.3 57.53 C45.23 46.26, 54.7 34.71, 62.7 24.7 M39.52 59 C46.31 51.73, 52.55 47.19, 63.03 29.7 M39.6 56.95 C48.57 48.66, 56.5 38.83, 62.71 30.25 M46.15 56.02 C49.79 51.32, 58.24 44.71, 64.6 36.26 M44.57 57.71 C49.6 52.17, 55.03 46.03, 63.51 37.77 M52.26 57.92 C52.7 55.59, 56.84 52.37, 61.46 42.89 M51.47 57.59 C54.76 52.64, 60.25 47.43, 62.73 43.78 M56.36 57.75 C58.52 55.78, 59.82 52.39, 62.17 50.14 M55.95 58.26 C57.42 55.8, 59.93 53.37, 63.49 48.94" stroke="#40c057" stroke-width="0.5" fill="none"></path><path d="M-1.1 -1.21 C20.55 1.52, 44.11 -1.93, 63.26 1.43 M-0.59 -0.02 C18.69 0.47, 35.35 -0.65, 61.94 -0.94 M63.03 -1.31 C59.62 16.55, 59.58 29.73, 61.24 55.94 M62.55 0.65 C62.69 18.18, 61.46 36.7, 61.01 54.69 M62.54 53.97 C38.5 54.64, 15.96 53.42, -0.39 56 M62.35 55.02 C47.2 54.98, 31.95 54.57, 0.86 54.72 M-0.1 53.31 C-1.79 33.94, 1.28 14.65, -1.94 0.91 M-0.33 55.13 C-0.35 41.98, -0.2 28.93, -0.35 -0.98" stroke="#000000" stroke-width="1" fill="none"></path></g><g transform="translate(89.10780666644683 229.79715401785734) rotate(0 23.5 12.5)"><text x="23.5" y="18" font-family="Virgil, Segoe UI Emoji" font-size="20px" fill="#000000" text-anchor="middle" style="white-space: pre;" direction="ltr">"foo"</text></g><g stroke-linecap="round" transform="translate(80.70936916644683 83.15652901785734) rotate(0 30.92578125 27.623046875)"><path d="M0 0 C0 0, 0 0, 0 0 M0 0 C0 0, 0 0, 0 0 M-0.57 6.65 C1.97 4.35, 2.8 2.45, 4.37 0 M-0.45 6.76 C1.17 4.58, 2.75 3.62, 5.29 0.68 M1.46 11.04 C3.55 8.28, 8.52 3.89, 9.89 0.87 M0.06 11.41 C4.36 7.15, 7.4 2.68, 11.18 -0.47 M0.99 19.13 C5.46 15.14, 5.7 8.75, 13.87 1.72 M-0.31 18.06 C3.3 14.31, 7.79 9.65, 16.02 0.5 M0.23 26.06 C4.75 16.21, 12.24 8.1, 19.6 0.95 M-0.16 23.22 C7.8 16.47, 14.94 6.26, 21.81 0.45 M-1.96 30.52 C7.09 24.63, 10.7 17.35, 26.54 -0.7 M0.7 30.02 C5.7 23.24, 10.79 17.33, 26.21 -0.31 M-0.99 37.49 C11.46 22.53, 25.48 9.11, 32.09 0.5 M-0.1 37.61 C9.26 27.59, 17.99 16.55, 32.79 -0.77 M0.37 40.75 C10.89 30.23, 21.37 18.36, 36.7 0.04 M-0.25 43.51 C12.25 27.96, 25.81 12.62, 36.14 0.04 M0.56 47.54 C8.67 36.74, 15.48 30.37, 41.72 -0.49 M-0.55 49.17 C14.71 30.94, 29.98 14.48, 42.32 -0.76 M0.42 53.72 C14.35 38.36, 30.41 21.18, 46.69 -0.86 M0.95 54.96 C14.77 38.78, 28.44 20.78, 47.83 -0.54 M3.09 57.26 C19.48 36.65, 35.6 17.75, 51.19 0.11 M2.51 58.46 C18.14 38.96, 33.9 21.97, 54.11 -0.96 M6.62 58.62 C21.19 45.33, 30.49 32.13, 60.07 1.13 M7.95 56.79 C25.64 37, 43.74 18.45, 58.46 -0.6 M13.25 57.29 C33.37 37.36, 50.91 15.36, 64.71 1.51 M13.59 57.85 C22.3 47.26, 32.62 33.98, 63.9 0 M20.47 56.08 C28.64 45.04, 38.23 33.72, 61.62 8.7 M17.97 56.61 C30.75 43.04, 42.98 29.31, 63.49 6.71 M23.73 56.68 C36.48 41.39, 53.56 25.4, 61.45 11.83 M24.23 57.38 C38.47 41.04, 53.8 23.8, 61.93 13.17 M30.24 58.03 C42.41 43.27, 55.28 29.44, 64.48 17.55 M30.52 58.1 C38.58 46.04, 49.43 35.26, 62.74 19.5 M36.26 56.79 C44.8 48.49, 53.7 38.31, 63.75 23.39 M35.02 57.62 C42.62 48.02, 50.78 38.2, 62.08 25.51 M40.97 57.75 C47.09 53.25, 50.52 44.01, 64.26 30.97 M40.38 57.98 C46.27 50.79, 51.87 43.01, 63.53 30.7 M43.71 58.31 C51.98 51.95, 58.66 43.15, 62.26 36.44 M44.72 57.7 C51.18 50.53, 57.29 45.08, 62.1 36.62 M49.95 58.71 C55.74 53.44, 58.33 46.33, 64.26 43.66 M50.12 57.98 C54.59 53.8, 58.24 48.81, 63 42.94 M55.96 58.6 C56.56 55.98, 58.55 54.26, 62.72 50.21 M55.5 58.08 C58.28 55.25, 60.8 51.94, 63.04 49.47" stroke="#40c057" stroke-width="0.5" fill="none"></path><path d="M-0.79 1.85 C23.23 -1.23, 44.98 1.8, 61.58 -0.95 M0.99 0.62 C20.01 -0.49, 40.25 -0.93, 61.5 -0.82 M60.07 1.9 C60.36 18.61, 61.56 37.08, 62.39 56.98 M62.21 0.13 C61.36 20.9, 61.4 40.06, 62.54 54.53 M61.34 54.55 C42.12 52.93, 22.43 55.61, -1.07 56.31 M62.44 55.5 C49.16 54.96, 36.18 54.58, 0.61 55.32 M-1.76 53.91 C1.35 32.82, -1.91 12.62, -1.15 1.59 M0.09 55.38 C0.42 38.39, -0.17 19.57, 0.35 -0.43" stroke="#000000" stroke-width="1" fill="none"></path></g><g transform="translate(86.63515041644683 98.27957589285734) rotate(0 25 12.5)"><text x="25" y="18" font-family="Virgil, Segoe UI Emoji" font-size="20px" fill="#000000" text-anchor="middle" style="white-space: pre;" direction="ltr">"baz"</text></g><g stroke-linecap="round" transform="translate(74.01405666644683 10) rotate(0 37.556640625 132.77260044642856)"><path d="M1.44 -1.6 C19.41 0.73, 35.74 -1.64, 75.61 -1.19 M-0.07 -0.5 C22.49 -1.41, 44.44 -1.28, 75.41 0.59 M73.67 0.33 C72.76 62.81, 73.67 125.89, 76.18 266.65 M74.42 0.47 C75.21 96.46, 76.42 193.24, 75.24 265.82 M74.9 263.62 C56.98 266.04, 38.54 266.34, -1.71 266.54 M75.69 265.4 C55.16 265.21, 34.09 265.81, 0.94 265.49 M1.05 265.03 C0.31 212.28, 0.94 158.82, 0.22 -0.52 M0.19 265.94 C-0.46 188.21, 0.1 112.09, -0.77 0.11" stroke="#000000" stroke-width="1" fill="none"></path></g><g stroke-linecap="round" transform="translate(80.58280221168394 146.30691964285734) rotate(0 30.92578125 27.623046875)"><path d="M0 0 C0 0, 0 0, 0 0 M0 0 C0 0, 0 0, 0 0 M-0.19 5.79 C1.4 4.18, 2.1 2.87, 5.16 0.62 M-0.51 6.73 C1.36 5.16, 2.67 3.55, 4.74 -0.02 M0.59 12.85 C4.61 6.71, 9.15 3.98, 10 -0.52 M-0.29 11.44 C2.88 9.05, 5.9 4.56, 10.62 -0.53 M0.95 16.48 C4.59 10.11, 12.41 4.23, 15.26 -0.32 M0.06 18.74 C4.27 13.8, 8.99 8.23, 15.38 -0.05 M-0.57 23.62 C4.46 15.41, 13.56 10.97, 21.88 -1.16 M1.11 23.94 C5.07 18.38, 11.8 10.98, 21.46 0.76 M1.5 28.83 C6.64 24.57, 9.59 16.55, 26.45 0.67 M-0.6 29.84 C9.93 19.28, 18.94 9.1, 27.22 0.83 M0.13 37.66 C9.62 27.42, 17.17 17.05, 29.92 -1.51 M0.52 36.88 C9.65 26.02, 19.13 13.39, 31.11 -0.03 M0.39 41.67 C12.86 29.25, 23.2 17.24, 36.63 -0.31 M0.24 42.48 C8.83 31.03, 18.69 19.76, 36.72 0.91 M-2.12 47.23 C16 31.69, 28.38 16.99, 42.01 0.31 M-1.11 49.52 C10.17 36.09, 21.06 23.89, 43.28 0.56 M1.79 54.86 C16.75 37.2, 28.44 21.36, 47.75 1.57 M1.21 54.28 C16.76 34.77, 34.01 14.81, 46.74 0.21 M0.71 56.77 C17.69 37.33, 35.72 20.8, 53.52 0.47 M2.01 57.69 C17.44 42.28, 30.61 23.79, 52.26 0.76 M9.08 57.42 C18.95 46.65, 30.57 33.29, 60.11 -1.68 M7.44 58.51 C22.83 42.33, 34.6 27.36, 57.25 0.93 M14.32 58.13 C28.65 42.04, 44.25 21.31, 64.52 0.06 M14.03 57.62 C28.9 39.9, 45.92 19.24, 63.27 1.24 M17.85 57.58 C34.64 37.11, 54.27 18.88, 64.47 5.88 M18.48 57.15 C28.59 47.76, 37.3 37.28, 62.39 7.24 M23.6 59.39 C35.23 44.03, 45.25 33.85, 61.26 12.89 M24.06 57.78 C37.02 42.57, 49.76 29.07, 62.92 13.9 M29.69 58.71 C41.13 45.95, 50.41 31.28, 61.12 19.06 M29.11 57.88 C42.42 42.2, 56.45 27.34, 62.59 19.16 M35.66 58.75 C46.98 46.14, 54.53 32.44, 64.28 24.77 M34.14 57.8 C43.77 45.82, 54.43 34.4, 62.41 26.16 M42.12 57.34 C46.61 49.4, 55.68 38.51, 61.99 30.05 M40.29 57.02 C46.64 49.35, 54.47 40.81, 63.63 30.14 M45.97 59.54 C47.98 52.47, 52.19 48.85, 61.7 37.24 M44.41 58.44 C50.06 51.77, 53.46 48.04, 63.68 37.71 M51.91 56.26 C52.76 55.58, 56.51 50.75, 63.95 44.18 M51.49 57.53 C53.32 54.73, 55.12 50.85, 63.07 43.81 M56.08 56.94 C58.68 54.93, 61.03 52.75, 63.34 50.45 M55.95 58.26 C57 55.72, 59.32 53.64, 62.96 49.29" stroke="#40c057" stroke-width="0.5" fill="none"></path><path d="M-1.6 1.41 C17.54 -0.72, 31.29 0.05, 60.66 -0.04 M-0.5 0.09 C23.71 -0.31, 48.49 0.33, 62.44 -0.66 M62.27 -0.61 C63.07 12.19, 64.11 24.67, 63.25 56.54 M62.45 -0.84 C61.36 19.27, 61.21 37.3, 62.2 54.61 M59.93 54.86 C45.64 54.11, 28.98 53.47, 0.99 54.79 M61.7 56.11 C39.15 56.22, 17.57 56.54, -0.05 54.28 M-0.66 53.3 C1.28 42.37, 1.96 32.08, -0.66 -0.23 M0.5 54.9 C-1.05 38.55, -0.51 20.17, 0.13 0.13" stroke="#000000" stroke-width="1" fill="none"></path></g><g transform="translate(88.00858346168394 161.42996651785734) rotate(0 23.5 12.5)"><text x="23.5" y="18" font-family="Virgil, Segoe UI Emoji" font-size="20px" fill="#000000" text-anchor="middle" style="white-space: pre;" direction="ltr">"bar"</text></g><g stroke-linecap="round" transform="translate(265.36843262722186 214.38560267857156) rotate(0 30.92578125 27.623046875)"><path d="M0 0 C0 0, 0 0, 0 0 M0 0 C0 0, 0 0, 0 0 M0.05 5.78 C1.21 3.98, 3.59 2.47, 4.62 1.09 M0.09 6.7 C1.8 4.63, 2.93 2.07, 5.32 0.11 M0.52 11.3 C3.89 9.83, 5.24 4.87, 10.48 -1.3 M-0.26 12.59 C3.26 7.67, 7.18 3.58, 11.08 0.24 M-0.96 16.69 C7.22 10.45, 11.53 4.01, 15.26 -0.42 M-0.24 18.85 C4.11 13.62, 7.8 8.59, 15.6 1.32 M-1.56 22.42 C5.83 20.11, 9.88 12.81, 20.41 -1.8 M-0.54 24.63 C7.21 15.85, 13.53 9.68, 20.28 -0.05 M1.36 30.78 C7.9 18.57, 18.23 10.1, 27.64 -0.63 M0.09 30.44 C7.44 22.55, 16.87 13.12, 25.88 0.6 M1.27 37.07 C8.98 26.3, 15.11 15.31, 32.21 1.37 M-0.24 37.78 C9.11 24.97, 19.31 13.22, 32.01 -0.99 M1.04 42.34 C10.04 31.96, 20.19 18.7, 36.1 2.24 M-0.34 41.78 C8.07 32.14, 16.31 24.35, 37.22 -0.43 M1.41 48.11 C13.05 35.18, 25.91 19.75, 41.66 0.37 M-0.67 48.71 C12.62 34.05, 26.87 19.74, 42.59 -0.56 M2.01 53.75 C11.45 39.95, 25.45 26.68, 48.86 1.01 M-0.39 54.88 C14.61 37.06, 30.22 18.75, 47.73 -0.12 M1.19 55.98 C17.5 42.36, 31.61 26.6, 52.91 0.87 M3.21 58.9 C16.33 41.01, 30.35 26.5, 52.32 0.37 M8.43 59.48 C27.67 37.12, 47.38 12.73, 57.49 -1.33 M9.05 57.87 C24.88 38.31, 41.7 18.89, 58.13 -0.12 M13.55 59.49 C31.72 35.4, 49.95 16.42, 63.78 0.44 M12.28 58.69 C24.33 43.38, 37.07 31.01, 63.91 -0.17 M17.65 56.26 C34.42 41.62, 47.77 25.38, 61 5.15 M19.04 58.14 C31.31 43.98, 43.51 29.37, 62.78 6.35 M23.66 56.72 C30.98 49.43, 39.69 37.48, 63.27 12.37 M23.89 57.2 C33.08 47.75, 42.99 36.78, 62.95 13.62 M30.02 58.96 C39.25 44.12, 49.99 31.62, 64.96 20.23 M29.34 57.23 C37.32 49.38, 43.5 41.17, 63.87 18.46 M35.9 58.85 C42.33 46.09, 55.84 34.13, 63.72 24.95 M33.84 57.18 C43.43 47.14, 51.65 38.7, 63.13 25.54 M38.84 58.57 C48.64 46.56, 56.34 36.26, 63.56 32.1 M39.39 57.84 C46.61 50.06, 54.24 41, 62.41 31.28 M43.99 57.2 C50.28 50.95, 56.28 43.22, 61.99 37.22 M45.5 57.03 C50.21 51.85, 57.52 44.86, 62.4 38.15 M49.86 59.06 C54.53 53.16, 60.02 48.69, 61.25 44.98 M50.76 57.8 C53.59 52.61, 58.72 48.68, 62.75 44.5 M56.46 57.48 C58.01 56.26, 59.11 55.35, 62.43 50.1 M55.26 57.81 C58.25 54.86, 60.69 51.81, 62.68 49.45" stroke="#40c057" stroke-width="0.5" fill="none"></path><path d="M1.43 -0.27 C22.06 0.06, 44.82 -0.47, 63.82 1.25 M-0.94 -0.35 C17.32 0.24, 36.87 -0.71, 60.96 0.95 M62.55 0.53 C63.7 12.9, 63.36 24.39, 62.58 55.5 M61.29 0.69 C61.47 11.91, 62.52 22.87, 61.6 54.9 M62.61 54.17 C45.03 53.42, 27.08 54.67, 1.17 55.76 M61.33 55.86 C39.81 56.72, 17.58 54.81, -0.88 54.58 M0.91 54.1 C1.77 35.3, -0.48 14.55, 0.17 0.27 M-0.98 55.6 C-0.71 36.38, -0.14 19.62, 0.21 0.14" stroke="#000000" stroke-width="1" fill="none"></path></g><g stroke-linecap="round" transform="translate(265.25124512722186 141.65262276785734) rotate(0 30.92578125 27.623046875)"><path d="M-0.95 0.49 C21.71 0.05, 47.78 1.33, 61.72 -0.99 M-0.82 0.29 C19.72 -0.44, 37.37 1.16, 60.94 0.21 M63.58 1.35 C63.44 16.18, 62.77 30.02, 60.11 56.43 M61.14 0.16 C61.89 11.31, 61.29 23.54, 61.74 54.28 M62.91 53.54 C45.49 54.46, 28.31 55.43, 1.15 54.95 M61.92 56.19 C37.92 54.66, 13.22 54.96, 0.66 54.92 M1.59 55.53 C-0.92 43.8, -0.08 33.1, 0.47 1 M-0.43 54.27 C0.67 40.73, 0.75 26.09, -0.87 0.62" stroke="#000000" stroke-width="1" fill="none"></path></g><g stroke-linecap="round"><g transform="translate(194.04421387722186 170.22879464285734) rotate(0 30.14539468607866 0.5677156789212177)"><path d="M-0.57 0.3 C9.04 0.36, 48.36 0.09, 58.52 0.2 M1.34 -0.6 C11.26 -0.32, 51.04 1.79, 60.86 1.73" stroke="#000000" stroke-width="1" fill="none"></path></g><g transform="translate(194.04421387722186 170.22879464285734) rotate(0 30.14539468607866 0.5677156789212177)"><path d="M33.25 9.9 C43.17 9.72, 54.89 4.14, 59.86 1.92 M33.05 11.68 C37.91 8.5, 45.3 6.56, 61.07 1.42" stroke="#000000" stroke-width="1" fill="none"></path></g><g transform="translate(194.04421387722186 170.22879464285734) rotate(0 30.14539468607866 0.5677156789212177)"><path d="M33.81 -10.35 C43.49 -3.02, 55.01 -1.08, 59.86 1.92 M33.61 -8.58 C38.29 -7.59, 45.55 -5.37, 61.07 1.42" stroke="#000000" stroke-width="1" fill="none"></path></g></g><g stroke-linecap="round" transform="translate(257.70046387722186 134.36160714285734) rotate(0 37.556640625 70.591796875)"><path d="M-1.19 -0.04 C23.48 1.06, 42.87 -1.18, 75.3 -1.89 M0.59 -0.66 C19.04 0.73, 38.94 -0.01, 74.81 0.35 M76.51 1.3 C77.06 46.38, 74.59 93.45, 73.44 140.06 M75.46 -0.64 C73.85 51.77, 74 103.28, 74.92 141.56 M76.1 140.73 C57.78 141.06, 39.25 140.24, 1.72 140.13 M75.06 140.22 C47.09 141.22, 21.48 141.56, -0.97 141.64 M-0.66 140.95 C-0.95 107.19, -0.65 73.65, -0.7 -1.96 M0.13 141.32 C0.83 93.97, -0.26 47.09, -0.61 0.39" stroke="#000000" stroke-width="1" fill="none"></path></g><g stroke-linecap="round" transform="translate(81.27730401767161 17.97879464285643) rotate(0 30.92578125 27.623046875)"><path d="M-0.04 1.97 C16.88 0.23, 30.27 0.55, 59.96 -0.69 M-0.66 -0.89 C14.46 -1.27, 27.23 -0.67, 62.2 0.27 M63.15 0.72 C62.48 19.61, 63.41 41.04, 60.73 56.63 M61.21 -0.26 C61.59 12.53, 60.97 25.07, 62.23 54.71 M61.39 56.42 C40.53 56.7, 17.88 57.27, -1.05 56.47 M60.88 54.37 C42.19 55.88, 23.54 54.24, 0.46 54.67 M-0.23 55.42 C0.19 34.75, 0.92 12.62, -1.96 0.71 M0.13 55.46 C0.68 40.2, 1.16 26.28, 0.39 -0.99" stroke="#000000" stroke-width="1" fill="none"></path></g><g stroke-linecap="round"><g transform="translate(11.493524514771991 44.70782700699738) rotate(0 29.245233297590175 0.8933200556598422)"><path d="M-0.02 1.18 C9.93 1.33, 50.21 0.29, 59.98 0.15 M-1.49 0.76 C8.34 1.16, 49.59 1.48, 59.43 1.64" stroke="#000000" stroke-width="1" fill="none"></path></g><g transform="translate(11.493524514771991 44.70782700699738) rotate(0 29.245233297590175 0.8933200556598422)"><path d="M33.45 12.69 C40.48 7.27, 49.87 3.2, 58.74 0.01 M30.59 12.39 C39.72 8.61, 49.52 5.52, 59.7 2.51" stroke="#000000" stroke-width="1" fill="none"></path></g><g transform="translate(11.493524514771991 44.70782700699738) rotate(0 29.245233297590175 0.8933200556598422)"><path d="M33.69 -7.57 C40.52 -6.41, 49.83 -3.91, 58.74 0.01 M30.83 -7.87 C40 -4.98, 49.72 -1.4, 59.7 2.51" stroke="#000000" stroke-width="1" fill="none"></path></g></g><g stroke-linecap="round"><g transform="translate(295.03604657719484 243.47014508928623) rotate(0 38.78427183291874 -0.3026419188551017)"><path d="M1.18 0.75 C14.17 0.53, 64.52 -0.91, 77.22 -1.35 M0.34 0.1 C13.23 0.03, 63.51 0.08, 76.23 -0.13" stroke="#000000" stroke-width="1" fill="none"></path></g><g transform="translate(295.03604657719484 243.47014508928623) rotate(0 38.78427183291874 -0.3026419188551017)"><path d="M49.36 10.18 C53.88 7.71, 59.75 4.32, 74.6 0.45 M49.06 9.41 C58.48 6.51, 68.7 3.34, 77.1 0.55" stroke="#000000" stroke-width="1" fill="none"></path></g><g transform="translate(295.03604657719484 243.47014508928623) rotate(0 38.78427183291874 -0.3026419188551017)"><path d="M49.22 -10.34 C53.78 -7.87, 59.68 -6.33, 74.6 0.45 M48.92 -11.11 C58.25 -6.65, 68.53 -2.46, 77.1 0.55" stroke="#000000" stroke-width="1" fill="none"></path></g></g><g transform="translate(382.79832336290923 231.590680803572) rotate(0 57 12.5)"><text x="0" y="18" font-family="Virgil, Segoe UI Emoji" font-size="20px" fill="#000000" text-anchor="start" style="white-space: pre;" direction="ltr">"foobarbaz"</text></g></svg>