<svg version="1.1" xmlns="http://www.w3.org/2000/svg" viewBox="0 0 463.41930435784775 279.33984375" width="463.41930435784775" height="279.33984375">
  <!-- svg-source:excalidraw -->
  
  <defs>
    <style class="style-fonts">
      @font-face {
        font-family: "Virgil";
        src: url("https://excalidraw.com/Virgil.woff2");
      }
      @font-face {
        font-family: "Cascadia";
        src: url("https://excalidraw.com/Cascadia.woff2");
      }
    </style>
  </defs>
  <rect x="0" y="0" width="463.41930435784775" height="279.33984375" fill="#ffffff"></rect><g stroke-linecap="round" transform="translate(84.36384451867832 208.46875) rotate(0 30.92578125 27.623046875)"><path d="M0 0 C0 0, 0 0, 0 0 M0 0 C0 0, 0 0, 0 0 M-0.25 7.14 C0.19 4.56, 2.35 4.53, 5.05 1.14 M-0.56 6.5 C0.86 5.47, 2.03 3.87, 5.22 0.51 M1.23 12.44 C2.33 7.56, 5.42 4.19, 10.96 -1.04 M0.02 12.35 C2.58 9.16, 6.7 5.43, 10.01 -0.3 M1.41 18.68 C2.89 15.91, 5.28 8.24, 14.7 -0.18 M-0.32 19.29 C3.17 13.47, 7.61 10.33, 15.48 -0.53 M0.56 24.77 C3.51 17.41, 8.48 12.73, 20.68 -0.96 M0.29 23.8 C5.37 17.66, 10.69 12.71, 21.3 -0.97 M-1.84 32.2 C6.88 22.16, 17.08 11.5, 27.65 0.17 M-0.23 30.9 C11.11 18.22, 20.89 7.15, 26.44 -0.59 M-1.4 37.02 C8.29 25.35, 18.56 16.56, 30.04 -2.04 M-0.27 37.8 C6.87 28.93, 13.21 19.15, 31.86 0.2 M1.9 42.71 C10.22 32.57, 18.86 23.17, 35.22 0.7 M-0.31 42.48 C8.44 34.03, 16.95 23.82, 36.34 0.72 M0.23 47.02 C14.86 31.04, 31.86 11.68, 41.23 -1.31 M0.45 49.15 C17.25 30.81, 33.31 11.7, 42.07 0.24 M-1.12 55.26 C12.81 40.36, 21.09 31.32, 45.93 -1.08 M0.93 55.2 C15.92 36.43, 30.86 19.65, 46.64 1.2 M4.1 59.88 C19.95 39.75, 34.08 18.17, 52.71 1.55 M2.83 57.44 C21.55 35.94, 40.46 15.61, 52.58 -0.57 M7.55 59.03 C23.42 41.42, 37.52 25.18, 59.67 -1.49 M8.92 58.33 C25.49 37.68, 42.81 17.84, 57.39 -0.65 M11.46 59.13 C28.24 39.52, 44.33 22.95, 64.63 -1.19 M13.09 57.2 C31.19 36.89, 49.4 16.2, 62.43 0.97 M19.59 57.42 C29.03 45.1, 38.19 34.48, 63.75 6.1 M19.08 58.43 C28.96 47.47, 38.11 35.98, 62.31 6.11 M23.78 59.52 C33.37 47.36, 41.92 36.22, 64.31 14.43 M23.93 57.7 C34.86 45.82, 44.67 33.57, 63.58 13.8 M29.65 55.99 C39.47 45.2, 46.81 35.85, 64.07 18.15 M29.5 58.2 C40.89 46.03, 51.68 34.12, 62.92 18.82 M33.77 56.92 C41.95 48.36, 48.21 41.21, 62.38 23.42 M34.49 57.84 C42.68 47.9, 51.74 38.3, 62.05 24.9 M41.35 56.43 C49.06 47.9, 53.27 42.95, 63.13 31.53 M39.99 57.49 C48.27 48.22, 53.77 40.65, 63.59 30.68 M43.45 59.33 C51.76 50.92, 58.3 43.59, 62.02 35.48 M45.5 58.18 C51.75 49.45, 58.37 43.82, 62.12 37.96 M50.66 57.56 C53.91 54.11, 56.64 48.1, 61.63 43.33 M50.47 57.34 C54.72 53.08, 57.56 49.35, 62.08 43.65 M54.92 57.31 C57.97 55.18, 62.15 51.14, 62.13 50.17 M56.03 57.88 C57.93 55.21, 60.48 52.15, 63.45 49.84" stroke="#fa5252" stroke-width="0.5" fill="none"></path><path d="M-0.72 -0.49 C19.91 2.08, 41.02 0.32, 61.53 0.78 M0.52 -0.27 C19.87 -0.71, 38.46 0.51, 61.85 -0.52 M60.24 -1.54 C62.42 21.89, 63.72 43.82, 60.36 53.87 M61.99 0.83 C61.29 13.65, 62.78 29.04, 61.31 55.52 M61.67 57 C40.81 55.7, 19.13 53.48, -1.2 54.13 M61.34 56.17 C44.33 54.75, 28.84 53.9, -0.94 54.77 M-1.96 57.03 C1.65 41.4, 0.34 26.73, 0.81 0 M-0.21 56.04 C0.9 40.17, -0.85 24.93, -0.98 -0.65" stroke="#000000" stroke-width="1" fill="none"></path></g><g stroke-linecap="round" transform="translate(82.64411795617832 144.5537109375) rotate(0 30.92578125 27.623046875)"><path d="M-0.96 1.82 C15.23 0.21, 31.6 0.94, 62.13 -0.16 M0.45 -0.8 C17.22 0.58, 35.19 -0.36, 62.72 0.59 M62.09 0.49 C62.95 13.51, 59.92 23.59, 60.97 55.97 M61.09 -0.48 C62.66 15.61, 61.38 29.95, 62.27 54.75 M61.97 55.62 C42.15 53.95, 22.07 54.67, -0.54 55.97 M61.22 55.12 C47.76 54.84, 31.2 55.35, -0.46 54.32 M1.13 55.41 C0.37 39.53, 1.35 24.79, -0.6 -0.25 M0.83 55.09 C-0.8 38.66, -0.87 22.4, -0.19 -0.87" stroke="#000000" stroke-width="1" fill="none"></path></g><g stroke-linecap="round" transform="translate(76.69587576867832 139.2236328125) rotate(0 37.556640625 65.05810546875)"><path d="M1.82 -0.73 C19.9 0.04, 40.46 0.64, 74.95 -0.31 M-0.8 -0.37 C26.88 -0.34, 52.41 0.53, 75.71 -0.74 M75.61 1.54 C75.13 27.05, 72.74 56.19, 75.83 129.49 M74.63 0.73 C76.96 40.29, 76.46 82.1, 74.62 130.24 M75.49 129.71 C51.42 128.96, 30.29 129.62, 0.73 128.92 M74.98 130.88 C55.43 128.7, 37.24 129.18, -0.93 129.87 M0.16 129.94 C-1.65 104.66, -1.17 76.97, -0.25 -0.17 M-0.16 129.2 C-1.51 92.8, -1.67 57.25, -0.87 0.68" stroke="#000000" stroke-width="1" fill="none"></path></g><g stroke-linecap="round"><g transform="translate(117.46860972704667 234.62527901785734) rotate(0 38.6146768925459 0.6318510957635226)"><path d="M-0.19 0.47 C13.04 0.48, 65.85 0.04, 78.98 0.1 M-1.75 -0.33 C11.38 -0.13, 64.87 1.73, 78.12 1.58" stroke="#000000" stroke-width="1" fill="none"></path></g><g transform="translate(117.46860972704667 234.62527901785734) rotate(0 38.6146768925459 0.6318510957635226)"><path d="M50.56 11.69 C57.08 8.56, 65.75 5.75, 79.03 -0.02 M49.26 12.29 C57.79 8.09, 63.85 5.47, 78.24 1.83" stroke="#000000" stroke-width="1" fill="none"></path></g><g transform="translate(117.46860972704667 234.62527901785734) rotate(0 38.6146768925459 0.6318510957635226)"><path d="M50.87 -8.82 C57.31 -6.55, 65.91 -3.96, 79.03 -0.02 M49.57 -8.23 C58.1 -7.03, 64.08 -4.25, 78.24 1.83" stroke="#000000" stroke-width="1" fill="none"></path></g></g><g transform="translate(208.71860972704667 225.46902901785734) rotate(0 42.5 12.5)"><text x="0" y="18" font-family="Virgil, Segoe UI Emoji" font-size="20px" fill="#000000" text-anchor="start" style="white-space: pre;" direction="ltr">[1, 2, 3]</text></g><g stroke-linecap="round"><g transform="translate(10.38351470269265 174.1474609375) rotate(0 31.637616246566154 0.8899439694764624)"><path d="M-0.38 0.96 C10.4 1.08, 53.17 0.09, 63.66 0.1 M1.62 0.42 C12.39 0.8, 53.12 1.86, 63.12 1.65" stroke="#000000" stroke-width="1" fill="none"></path></g><g transform="translate(10.38351470269265 174.1474609375) rotate(0 31.637616246566154 0.8899439694764624)"><path d="M36.47 13.04 C41.04 9.12, 48.65 5.92, 63.15 0.44 M34.85 11.6 C42.65 7.55, 52.14 4.78, 62.43 1.77" stroke="#000000" stroke-width="1" fill="none"></path></g><g transform="translate(10.38351470269265 174.1474609375) rotate(0 31.637616246566154 0.8899439694764624)"><path d="M36.6 -7.48 C41.04 -6.98, 48.62 -5.76, 63.15 0.44 M34.99 -8.92 C42.92 -6.55, 52.37 -2.88, 62.43 1.77" stroke="#000000" stroke-width="1" fill="none"></path></g></g><g stroke-linecap="round" transform="translate(385.97399185784775 208.46875) rotate(0 30.92578125 27.623046875)"><path d="M0 0 C0 0, 0 0, 0 0 M0 0 C0 0, 0 0, 0 0 M-0.89 6.31 C2.13 3.9, 2.96 2.03, 4.43 -0.02 M-0.53 6.05 C1.61 4.64, 3.9 2.26, 4.73 -0.02 M0.27 12.59 C3.19 7.72, 5.79 6.12, 11.1 -0.07 M-0.62 11.86 C3.61 8.02, 6.5 3.98, 10.22 -0.54 M-1.26 18.7 C4.2 11.17, 10.47 3.81, 13.63 1.8 M0.74 19.09 C4.92 12.56, 10.03 6.55, 15.52 -0.41 M-1.58 24.28 C7.16 17.21, 12.8 9.15, 23.25 0.59 M0.98 23.92 C5.79 17.52, 12.6 10.01, 20.44 0.89 M-1.56 29 C6.2 23.68, 13.13 17.33, 26.63 2.23 M0.93 31.15 C9.9 19.67, 18.84 8.54, 27.09 0.27 M-0.94 35.04 C9.61 24.51, 21.6 11.41, 30.05 -0.42 M-0.75 35.93 C12.43 24.03, 22.97 9.39, 31.48 -0.76 M0.19 44 C11.81 29.74, 23.47 13.59, 36.78 -0.96 M0.54 42.19 C11.12 28.84, 22.39 15.3, 37.46 1.08 M1.84 47.76 C13.08 35.21, 24.69 19.75, 40.72 1.06 M0.66 48.06 C10.62 36.13, 20.42 25.14, 42.27 -1.02 M1.21 53.76 C11.48 42.42, 20.76 33.47, 47.62 -1.25 M-0.42 54.89 C17.74 35.79, 32.87 17.63, 46.58 -0.66 M4.41 56.55 C23.34 36.05, 40.31 17.31, 52.74 -1.61 M2.07 57.42 C20.13 39.8, 35.36 21.33, 53.96 -0.1 M6.97 56.42 C23.49 43.15, 36.45 25.17, 58.04 2.04 M7.97 58.03 C19.44 44.52, 31.54 32.63, 58.99 1.04 M15.01 57.93 C23.93 45.35, 38.35 29.02, 61.24 0.81 M14.22 58.01 C30.95 37.09, 48.29 18.2, 64.1 0.69 M20.15 56.42 C27.92 46.15, 39.68 34.15, 62.36 8.51 M19.63 57.66 C30.3 44.47, 42.29 30.57, 62.94 6.63 M22.12 59.65 C35.16 43.54, 45.99 32.05, 64.54 13.31 M24.3 58.62 C37.55 42.62, 50.9 26.08, 63.13 13.8 M30.41 56.3 C39.89 45.79, 49.32 35.51, 61.45 19.66 M29.16 57.98 C42.82 42.05, 55.25 27.83, 62.42 18.93 M33.45 58.58 C42.7 48.12, 51.37 40.81, 64.29 23.86 M33.96 57.63 C43.32 47.83, 52.02 37.2, 63.58 25.69 M40.34 58.75 C44.44 50.2, 53.35 46.13, 64.83 29.33 M40.85 58.36 C45.49 51.86, 51.15 45.11, 62.31 30.66 M46.02 59.73 C51.44 54.05, 54.03 49.4, 62.65 39.2 M44.4 57.13 C50.65 51.48, 54.81 46.14, 62.24 37.58 M49.11 55.79 C55.23 53.43, 59.04 47.71, 63.95 43.61 M51.07 57.31 C53.47 54.85, 55.34 51.94, 62.8 43.32 M56.02 58.04 C58.37 54.26, 60.08 51.99, 64 48.9 M55.59 57.81 C57.57 54.96, 60.56 52.91, 63.35 49.82" stroke="#228be6" stroke-width="0.5" fill="none"></path><path d="M0.2 -1.03 C21.76 -0.48, 43.65 -1.07, 62.81 1.15 M0.4 -0.47 C16.1 -1.25, 32.16 0.05, 62.1 -0.15 M60.98 0.32 C63.45 20.46, 60.33 41.56, 60.45 54.83 M61.38 0.46 C62.36 11.83, 62.59 23, 61.61 55.09 M61 56.17 C38.69 55.21, 13.15 55.35, -0.67 53.74 M61.64 55.89 C44.35 54.57, 24.82 54.53, 0.38 55.23 M-1.41 54.57 C-1.37 33.65, -0.91 14.41, -0.7 -1.57 M-0.53 56.04 C0.53 43.44, 0.12 29.58, -0.62 0.33" stroke="#000000" stroke-width="1" fill="none"></path></g><g transform="translate(413.39977310784775 223.591796875) rotate(0 3.5 12.5)"><text x="3.5" y="18" font-family="Virgil, Segoe UI Emoji" font-size="20px" fill="#000000" text-anchor="middle" style="white-space: pre;" direction="ltr">1</text></g><g stroke-linecap="round" transform="translate(378.30602310784775 10) rotate(0 37.556640625 129.669921875)"><path d="M0.01 -0.87 C17.97 -1.07, 36.6 1.53, 74.17 0.16 M0.45 -0.72 C29.79 0.93, 58.11 0.2, 75.73 -0.41 M76.58 0.37 C73.17 70.5, 73.09 138.14, 73.61 258.78 M75.68 0.36 C74.87 102.5, 73.93 204.47, 75.8 258.56 M75.82 259.66 C55.95 260.15, 38.04 258.18, -0.06 261.31 M75.99 259.06 C57.14 259.5, 40.1 259.81, 0.82 259.97 M-0.82 258.94 C1.01 200.97, 0.9 139.17, -1.2 -1.42 M0.04 259.83 C0.81 156.4, 0.61 55.05, -0.68 0.14" stroke="#000000" stroke-width="1" fill="none"></path></g><g stroke-linecap="round" transform="translate(385.10714751519265 144.22705078125) rotate(0 30.92578125 27.623046875)"><path d="M0 0 C0 0, 0 0, 0 0 M0 0 C0 0, 0 0, 0 0 M-0.54 6.34 C0.76 4.61, 2.85 3.72, 4.55 0.04 M-0.6 6.59 C1.31 5.2, 2.76 3.12, 4.76 0.56 M-0.7 12.5 C2.3 8.1, 6.04 8.4, 10.45 0.41 M0.43 11.82 C3.49 8.4, 6.67 5.43, 10.59 -0.58 M0.99 17.9 C3.61 13.83, 8.19 11.65, 16.84 -0.13 M0.79 18.93 C6.3 11.37, 11.48 4.57, 15.32 0.47 M1.4 23.76 C5.23 17.41, 9.48 11.54, 22.1 -1.35 M-0.7 24.58 C6.69 17.98, 12.44 9.42, 21.42 0.32 M0.07 28.52 C6.62 22.3, 11.01 17.25, 25.3 -1.5 M0.07 30.88 C6.67 23.06, 15.48 14.43, 27.1 1.23 M-0.93 36.32 C10.1 25.21, 21.39 11.73, 31.55 0.07 M0.43 35.97 C7.77 28.83, 13.44 19.57, 32.51 0.34 M1.35 43.83 C12.6 27.95, 28.88 10.84, 37.3 -0.52 M0.26 42.48 C13.56 25.69, 29.48 9.5, 36.67 0.85 M-0.67 48.94 C15.55 33.69, 31.63 15.96, 44.12 -1.26 M0.22 49.09 C14.2 31.81, 29.49 14.49, 41.98 0.24 M0.07 53.91 C12.47 39.41, 26.2 23.5, 48.04 2.2 M-0.42 55.55 C16.93 34.51, 34.22 14.99, 47.15 -0.38 M1.2 58.86 C13.09 45.18, 25.46 35.13, 53.33 -1.03 M1.8 58.92 C13.33 43.83, 26.73 29.85, 53.67 -0.03 M7.48 58.16 C21.84 40.51, 39.09 22.25, 57.85 -0.61 M7.77 57.93 C18.32 46.63, 30 33.18, 58.81 -0.57 M12.14 56.91 C28.44 36.97, 47.11 19.03, 62.18 2.17 M12.76 58.23 C31.33 36.56, 49.66 15.26, 63.39 0.33 M19.9 59.36 C31.79 46.74, 40.97 31.76, 64.33 5.9 M18.13 56.64 C28.92 44.11, 39.68 33.04, 62.19 7.51 M25.68 56.34 C38.9 41.01, 54.97 23.06, 60.68 14.63 M23.73 57.47 C38.34 43.2, 52.2 26.3, 63.48 13.76 M28.4 55.67 C37.27 47.8, 44.7 40.21, 61.46 17.65 M30.28 56.75 C37.23 49.54, 43.49 42.25, 62.23 18.4 M36.32 58.67 C44.24 44.02, 56.89 30.77, 61.95 26.88 M34.4 57.6 C41.26 50.76, 49.28 41.6, 61.9 24.62 M40.83 58.53 C48.04 47.01, 57.55 38.93, 61.63 30.1 M41.09 58.4 C47.35 49.57, 56.02 40.77, 63.31 31.41 M45.77 56.8 C48.83 53.05, 54.1 50.15, 63.48 37.34 M44.63 58.17 C51.39 51.18, 55.31 44.2, 62.52 37.94 M49.38 57.72 C54.46 55.25, 57.07 50.74, 61.3 42.28 M51.1 56.85 C53.88 53.37, 56.32 49.97, 61.83 43.53 M56.38 57.31 C57.69 54.3, 60.43 51.15, 62.22 48.68 M55.6 58.07 C57.05 56.05, 58.75 53.9, 62.73 49.8" stroke="#228be6" stroke-width="0.5" fill="none"></path><path d="M-1.2 1.72 C13.67 1.48, 28.52 0.91, 63.74 -0.6 M0.04 -0.47 C20.5 0.26, 41.56 0.07, 61.29 0.41 M63.35 0.22 C60.6 17.1, 60.57 34.81, 62.32 53.28 M62.84 -0.36 C62.67 18.46, 61.25 37.54, 62.43 55.88 M60.66 55.65 C41.67 54.96, 17.8 57.01, -1.73 57.25 M62.8 55.21 C43.17 54.85, 24.44 55.12, 0.05 55.27 M1.68 55.03 C-0.96 39.93, 1.47 22.21, 1.23 -1.52 M0.91 54.98 C0.43 35.21, 1.25 14.88, 0.25 -0.15" stroke="#000000" stroke-width="1" fill="none"></path></g><g transform="translate(408.03292876519265 159.35009765625) rotate(0 8 12.5)"><text x="8" y="18" font-family="Virgil, Segoe UI Emoji" font-size="20px" fill="#000000" text-anchor="middle" style="white-space: pre;" direction="ltr">2</text></g><g stroke-linecap="round" transform="translate(385.95187407769265 80.23291015625) rotate(0 30.92578125 27.623046875)"><path d="M0 0 C0 0, 0 0, 0 0 M0 0 C0 0, 0 0, 0 0 M0.26 6.23 C1.3 5.49, 1.73 3.57, 4.77 0.37 M-0.03 6.72 C1.21 4.5, 3.21 2.27, 5.12 0.43 M-1.38 11.18 C3.69 8.13, 5.56 5.73, 10.47 -0.55 M-0.57 12.25 C3.77 9.31, 6.29 5.23, 10.08 0.75 M0.21 17.72 C2.88 11.86, 7.39 10.87, 14.18 1.25 M0.74 18.53 C4 12.46, 9.76 8.42, 14.78 1.31 M-0.44 25.12 C5.26 18.77, 9.93 12.09, 20.47 0.54 M0.34 23.94 C4.13 18.2, 7.99 13.92, 20.75 0.32 M-1.09 31.82 C3.84 24.54, 9.5 17.78, 25.13 -0.7 M-0.29 30.01 C6.52 24.85, 10.26 17.49, 25.74 0.62 M-1.94 37.42 C6.86 27.61, 12.76 19.15, 32.88 1.75 M-0.66 37.61 C10.92 22.54, 22.83 9.75, 31.12 -0.97 M0.56 41.17 C9.23 35.85, 16.11 25.12, 38.66 -1.28 M-0.16 41.56 C12.14 29.62, 21.98 15.62, 36.71 -0.15 M-1.69 50.67 C15.67 29.63, 28.81 11.39, 41.38 -1.95 M0.16 48.15 C11.34 34.4, 23.86 21.83, 43.26 -0.86 M0.73 53.02 C17.92 34.55, 35.9 12.24, 49.3 1.05 M-0.58 54.17 C11.81 41.98, 21.1 29.72, 47.39 -0.02 M2.68 56.28 C12.88 44.46, 25.6 30.27, 53.82 0.92 M2.5 57.19 C17.27 40.85, 32.01 23.7, 54.07 0.78 M9.03 57.9 C21.92 40.58, 34.93 26.68, 58.75 -0.82 M9.27 57.85 C22.03 41.64, 36.83 26.25, 57.61 0.55 M11.97 57.21 C33.52 35.46, 52.33 15.63, 61.55 0.9 M13.53 57.18 C28.65 38.21, 46.38 20.24, 63.46 -0.07 M18.1 55.78 C32.04 43.96, 45.44 27.41, 63.94 6.12 M18.77 56.8 C27.79 46.2, 38.43 35.44, 62.52 7.49 M23.05 56.88 C34.56 48.91, 44.16 37.28, 60.92 11.47 M24.47 57.25 C40.38 40.79, 54.58 22.54, 62.82 13.18 M29.37 55.94 C40.88 45.71, 53.64 32.86, 64.19 17.93 M28.6 58.25 C39.74 45.36, 49.3 35.55, 62.61 18.97 M35.78 56.97 C46.49 47.12, 53.88 32.9, 61.39 24.29 M34.58 58.02 C40.74 52.17, 46.38 44.5, 62.22 26.09 M39.03 59 C48.51 46.92, 58.93 38.17, 63.24 32.25 M39.73 57.51 C47.22 47.14, 55.72 37.73, 62.86 31.01 M43.19 56.53 C47.25 53.26, 52.85 48.63, 62.81 36.95 M44.29 57.73 C51.62 49.52, 58.14 43.23, 62.59 37.84 M49.59 57.88 C55.33 51.77, 60.28 46.82, 62.73 44.05 M49.91 57.91 C54.75 52.13, 59.41 46.56, 63.09 44.18 M56.72 57.86 C56.8 56.93, 59.77 54.68, 62.35 49 M56.02 57.43 C57.63 55.95, 59.5 54.07, 63.1 49.74" stroke="#228be6" stroke-width="0.5" fill="none"></path><path d="M0.41 -0.1 C21.1 -2.07, 44.1 -2.41, 62.97 -0.54 M0.6 0.61 C18.72 0.58, 36.9 -0.3, 62.77 0.49 M62.71 -0.59 C62.19 15.61, 60.44 33.47, 62.98 54.92 M61.37 0.42 C60.96 15.75, 61.65 31.2, 60.88 55.74 M59.88 55.57 C41.36 54.09, 21.05 55.52, 0.07 53.28 M62.38 54.77 C40.33 54.62, 19.8 54.27, 0.06 55.65 M0.5 56.95 C1.52 44.09, 0.46 28.31, -0.67 -0.56 M0.88 55.08 C-0.36 41.56, -0.06 29.36, 0.69 -0.91" stroke="#000000" stroke-width="1" fill="none"></path></g><g transform="translate(408.87765532769265 95.35595703125) rotate(0 8 12.5)"><text x="8" y="18" font-family="Virgil, Segoe UI Emoji" font-size="20px" fill="#000000" text-anchor="middle" style="white-space: pre;" direction="ltr">3</text></g><g stroke-linecap="round" transform="translate(384.15011626519265 17.02001953125) rotate(0 30.92578125 27.623046875)"><path d="M0.53 1.98 C18.57 1.76, 33.69 -0.84, 63.82 -0.72 M-0.36 -0.6 C15.92 -0.53, 34.67 -0.82, 62.31 -0.12 M62.03 -0.86 C61.04 17.5, 63.39 30.11, 63.82 53.71 M62.37 0.14 C62.35 16.12, 61.7 31.57, 62.16 54.31 M61.56 54.45 C39.75 53.57, 20.88 54.27, 0.77 53.54 M62.52 54.49 C37.82 54.16, 13.32 54.35, -0.5 54.32 M-0.94 56.86 C1.26 41.7, -0.94 30.72, 0.65 -1.43 M0.27 55.03 C-0.15 40.79, -0.15 28.72, 0.93 0.73" stroke="#000000" stroke-width="1" fill="none"></path></g><g stroke-linecap="round"><g transform="translate(318.94796782769265 44.83349609375) rotate(0 28.51266541518271 0.4930516838837775)"><path d="M-1.1 0.57 C8.78 0.39, 48.19 -0.13, 58.12 0.02 M0.53 -0.18 C10.4 0.29, 47.91 1.21, 57.54 1.16" stroke="#000000" stroke-width="1" fill="none"></path></g><g transform="translate(318.94796782769265 44.83349609375) rotate(0 28.51266541518271 0.4930516838837775)"><path d="M31.39 11.81 C34.69 10.71, 42.7 6.77, 57.16 1.6 M31.23 10.57 C37.33 8.04, 46.49 6.11, 58.26 1.76" stroke="#000000" stroke-width="1" fill="none"></path></g><g transform="translate(318.94796782769265 44.83349609375) rotate(0 28.51266541518271 0.4930516838837775)"><path d="M31.62 -7.83 C35.06 -4.89, 43.02 -4.77, 57.16 1.6 M31.46 -9.07 C37.57 -6.03, 46.66 -2.37, 58.26 1.76" stroke="#000000" stroke-width="1" fill="none"></path></g></g></svg>