<svg version="1.1" xmlns="http://www.w3.org/2000/svg" viewBox="0 0 622.6155816934315 533.6455069910157" width="622.6155816934315" height="533.6455069910157">
  <!-- svg-source:excalidraw -->
  
  <defs>
    <style class="style-fonts">
      @font-face {
        font-family: "Virgil";
        src: url("https://excalidraw.com/Virgil.woff2");
      }
      @font-face {
        font-family: "Cascadia";
        src: url("https://excalidraw.com/Cascadia.woff2");
      }
    </style>
  </defs>
  <rect x="0" y="0" width="622.6155816934315" height="533.6455069910157" fill="#ffffff"></rect><g stroke-linecap="round" transform="translate(295.4576075744026 10) rotate(0 37.890625 101.01175772897386)"><path d="M-0.17 -0.86 C16.89 -1.66, 36.16 -1.12, 74.12 -1.43 M0.3 -0.07 C17.39 0.14, 35.23 0.23, 76.63 0.36 M74.51 -1.59 C75.68 72.59, 76.19 147.95, 75.74 200.3 M75.78 0.1 C76.21 64.46, 76.13 129.06, 75.47 202.04 M76.13 200.62 C60.16 200.96, 42.57 202.81, 1.8 200.17 M75.68 201.05 C45.6 203.52, 15.65 203.02, -0.84 202.14 M1.77 201.84 C-0.51 136.04, 0.96 69.53, 0.27 -0.31 M-0.8 202.04 C1.01 138.43, 0.91 76.03, -0.2 -0.48" stroke="#000000" stroke-width="1" fill="none"></path></g><g stroke-linecap="round" transform="translate(303.1201331891516 145.3413381760074) rotate(0 30.92578125 27.623046875)"><path d="M0 0 C0 0, 0 0, 0 0 M0 0 C0 0, 0 0, 0 0 M0.12 6.53 C1.22 4.46, 3.24 2.47, 4.2 -0.26 M-0.1 6.72 C0.82 4.94, 2.71 3.17, 5.38 0.18 M-1.34 13.48 C1.58 7.53, 5.49 5.89, 12.19 -0.86 M0.03 11.58 C2.83 8.66, 5.79 6.05, 10.74 0.17 M-0.87 18.84 C3.22 11.14, 8.93 5.43, 13.73 -0.27 M0.09 18.42 C5.27 13.33, 10.92 7.04, 14.81 0.08 M0.13 24.74 C7.35 15.62, 13.14 9.61, 19.83 -0.73 M0.5 23.96 C5.64 17.12, 11.4 11.4, 21.65 0.92 M-1.7 29.09 C10.23 19.48, 20.94 5.38, 26.16 1.36 M0.14 31.18 C6.88 23.89, 13.14 16.47, 26.2 0.29 M0.71 38.39 C7.62 26.03, 20.45 14.48, 30.53 -0.8 M0.12 37.77 C10.33 23.2, 21.69 10.5, 31.9 -0.54 M1.81 44.03 C9.46 31.34, 17.91 20.98, 37.3 1.11 M-0.31 41.92 C14.09 27.13, 27.93 9.6, 36.22 0.16 M-1.25 48.29 C9.65 38.51, 17.18 29.63, 41.96 -1.86 M-0.93 49.23 C14.83 31.78, 28.45 16.21, 41.85 0.14 M-0.69 52.67 C14.3 35.42, 32.2 18.56, 47.19 1.85 M-0.1 55.11 C10.45 43.34, 22.62 30.13, 48.2 -0.13 M4.6 56.68 C14.27 46.26, 21.94 36.41, 51.42 -0.07 M3.45 58.42 C18.58 39.14, 34.41 21.76, 52.57 0.23 M8.35 59.45 C17.95 46.08, 28.82 34.42, 56.9 1.93 M8.5 57.16 C21.43 41.42, 35.2 24.44, 57.69 1.09 M12.98 57.5 C26.8 39.28, 45.08 22.27, 61.59 -0.33 M12.88 57.15 C26.19 40.23, 41.21 24.09, 62.19 -0.2 M19.4 58.34 C30.3 45.47, 42.34 34.12, 64.63 7.96 M19.86 57.62 C33.81 40.25, 49.09 22.78, 63.57 6.8 M24.47 57.24 C35.49 43.95, 45.87 31.02, 62 11.47 M23.08 56.88 C38.65 41.52, 53.26 24.04, 62.41 12.5 M29.56 56.81 C43.6 43.37, 53.21 30.78, 64.81 17.71 M29.69 58.01 C35.99 49.24, 44.09 40.78, 62.18 19.2 M32.59 56.81 C41.86 48.16, 50.57 39.45, 61.18 23.77 M33.9 57.49 C44.49 46.08, 55.14 34.22, 63.65 25.83 M40.61 57.73 C46 51.94, 50.91 43.16, 62.2 30.65 M40.09 56.85 C47.81 48.81, 55.81 38.88, 62.37 31.23 M45.87 58.58 C52.26 50.27, 55.05 46.95, 63.93 39.05 M44.4 57.38 C48.72 53.51, 52.53 49.94, 63.25 37.9 M50.41 56.57 C54.27 53.6, 57.44 53.37, 61.47 43.76 M49.94 57.67 C54.88 52.19, 57.39 47.93, 62.04 43.42 M54.74 57.02 C56.66 55.93, 58.83 53, 62.28 49.5 M55.84 58.17 C57.17 55.53, 59.93 53.16, 62.97 49.81" stroke="#15aabf" stroke-width="0.5" fill="none"></path><path d="M-0.86 -1.24 C14.42 -0.06, 31.27 -1.61, 60.42 -1.39 M-0.07 -0.1 C12.22 0.08, 24.9 0.66, 62.21 0.63 M60.07 0.74 C60.75 15.53, 62.98 28.39, 59.93 55.63 M61.96 -0.69 C61.96 18.98, 62.1 39.17, 61.87 54.47 M60.45 56.45 C40.07 55.78, 20.95 57.15, -1.86 57.07 M60.88 54.73 C39.64 54.38, 16.13 54.35, 0.12 55.56 M-0.21 55.56 C1.19 38.22, 1.73 17.61, -0.34 0.26 M0.01 54.96 C-0.4 42.14, 0.59 29.62, -0.53 -0.76" stroke="#000000" stroke-width="1" fill="none"></path></g><g transform="translate(313.0459144391516 160.4643850510074) rotate(0 21 12.5)"><text x="21" y="18" font-family="Virgil, Segoe UI Emoji" font-size="20px" fill="#000000" text-anchor="middle" style="white-space: pre;" direction="ltr">main</text></g><g stroke-linecap="round" transform="translate(18.430366847826008 171.92722876033986) rotate(0 99 17.5)"><path d="M-1.37 -1.66 C45.67 -1.27, 92.28 -1.25, 198.59 -0.14 M-0.28 0.85 C57.79 0.11, 114.43 -0.94, 197.29 -0.89 M199.36 -0.05 C195.93 12.18, 199 24.06, 198.01 35.23 M198.12 -0.34 C198.01 7.31, 198.38 15.83, 198.17 34.3 M199.05 36.8 C124.84 37.25, 56.84 37.27, -0.19 33.06 M198.29 34.16 C149.03 33.72, 100.26 33.3, 0.99 34.9 M1.67 35.3 C-0.54 24.22, -1.6 13.11, -1.78 0.03 M0.64 34.77 C-0.41 24.74, -0.35 15.45, 0.16 -0.25" stroke="#000000" stroke-width="1" fill="none"></path></g><g transform="translate(85.43036684782601 176.92722876033986) rotate(0 32 12.5)"><text x="32" y="18" font-family="Virgil, Segoe UI Emoji" font-size="20px" fill="#000000" text-anchor="middle" style="white-space: pre;" direction="ltr">&lt;main&gt;</text></g><g stroke-linecap="round" transform="translate(10 120.43521109729772) rotate(0 105.96127717391323 48.08084239130426)"><path d="M-1.26 -1.22 C60.69 0.35, 125.3 1.42, 211.75 -0.66 M0.32 0.56 C68.78 -1.95, 137.69 -2.36, 212.25 -0.38 M210.01 0.38 C213.73 35.61, 212.58 70.53, 210.54 96.11 M211.95 -0.78 C212.43 20.99, 212.21 41.99, 212.52 95.76 M210.29 97.77 C145.07 99.46, 75.51 96.13, -0.92 97.56 M212.03 96.44 C165.77 94.51, 119.72 94.51, 0.14 96.66 M-0.34 96.43 C-2.21 58.17, -2.58 19.81, -0.58 -0.69 M-0.53 95.4 C-1.09 70.64, -0.46 45.98, 0.67 -0.06" stroke="#000000" stroke-width="1" fill="none"></path></g><g stroke-linecap="round" transform="translate(18.060971467391937 131.4699427549058) rotate(0 99 17.5)"><path d="M-1.39 -1.93 C44.51 2.01, 91.6 1.22, 197.25 0.53 M0.63 -0.43 C53.43 -1.43, 106.82 -0.34, 197.57 0.66 M198.38 1.15 C198.45 12.88, 198.22 24.37, 197.95 33.44 M197.22 0.39 C197.53 11.09, 197.18 22.43, 197.6 35.21 M199.83 36.44 C130.06 32.97, 56.49 32.12, 1.59 33.39 M198.32 35.43 C132.69 36.22, 67.49 35.39, 0.56 35.97 M0.26 33.6 C0.14 19.79, -0.03 7.57, -0.69 -0.81 M-0.76 34.53 C-0.48 22.42, -0.17 10.19, -0.06 -0.65" stroke="#000000" stroke-width="1" fill="none"></path></g><g transform="translate(100.06097146739194 136.4699427549058) rotate(0 17 12.5)"><text x="17" y="18" font-family="Virgil, Segoe UI Emoji" font-size="20px" fill="#000000" text-anchor="middle" style="white-space: pre;" direction="ltr">foo</text></g><g stroke-linecap="round"><g transform="translate(216.1079675519777 161.51240199403583) rotate(0 40.75319683972225 -42.38986972847715)"><path d="M-1.16 -0.81 C12.76 -15.03, 68.77 -71.87, 82.66 -86.15 M0.44 1.37 C14.3 -12.58, 68.41 -70.19, 81.9 -84.66" stroke="#000000" stroke-width="1" fill="none"></path></g><g transform="translate(216.1079675519777 161.51240199403583) rotate(0 40.75319683972225 -42.38986972847715)"><path d="M68.76 -56.48 C72.85 -63.46, 74.94 -69.04, 81.34 -82.97 M69.69 -57.79 C73.01 -65.92, 77.43 -74.91, 82.58 -84.69" stroke="#000000" stroke-width="1" fill="none"></path></g><g transform="translate(216.1079675519777 161.51240199403583) rotate(0 40.75319683972225 -42.38986972847715)"><path d="M53.78 -70.51 C61.2 -74.14, 66.71 -76.51, 81.34 -82.97 M54.72 -71.82 C63.16 -75.18, 72.61 -79.45, 82.58 -84.69" stroke="#000000" stroke-width="1" fill="none"></path></g></g><mask></mask><g stroke-linecap="round"><g transform="translate(217.45000009621072 204.5582135649529) rotate(0 38.8523227024823 0.681367389408706)"><path d="M-0.81 0.36 C12.41 0.61, 65.36 0.31, 78.52 0.39 M0.96 -0.5 C14.09 0.05, 64.83 1.4, 77.53 1.87" stroke="#000000" stroke-width="1" fill="none"></path></g><g transform="translate(217.45000009621072 204.5582135649529) rotate(0 38.8523227024823 0.681367389408706)"><path d="M49.62 11.1 C55.49 8.52, 62.8 6.55, 79.22 2.59 M48.32 10.35 C59.79 7.52, 70.42 5.23, 77.5 0.91" stroke="#000000" stroke-width="1" fill="none"></path></g><g transform="translate(217.45000009621072 204.5582135649529) rotate(0 38.8523227024823 0.681367389408706)"><path d="M50.26 -9.41 C55.79 -7.26, 62.94 -4.5, 79.22 2.59 M48.96 -10.16 C60.11 -5.54, 70.51 -0.39, 77.5 0.91" stroke="#000000" stroke-width="1" fill="none"></path></g></g><mask></mask><g stroke-linecap="round"><g transform="translate(218.9804905475994 171.4869245024529) rotate(0 38.65437891761053 15.63898285965115)"><path d="M0.36 -0.08 C13.59 5.24, 65.18 25.93, 78.23 31.15 M-0.92 -1.18 C12.25 4.39, 64.05 26.86, 77.22 32.45" stroke="#000000" stroke-width="1" fill="none"></path></g><g transform="translate(218.9804905475994 171.4869245024529) rotate(0 38.65437891761053 15.63898285965115)"><path d="M47.12 30.55 C52.6 31.53, 58.89 33.05, 77.94 33.72 M46.38 31.12 C54.53 32.05, 63.36 31.81, 76.26 32.64" stroke="#000000" stroke-width="1" fill="none"></path></g><g transform="translate(218.9804905475994 171.4869245024529) rotate(0 38.65437891761053 15.63898285965115)"><path d="M55.23 11.69 C58.93 16.54, 63.56 21.89, 77.94 33.72 M54.48 12.26 C60.47 18, 67.21 22.61, 76.26 32.64" stroke="#000000" stroke-width="1" fill="none"></path></g></g><mask></mask><g stroke-linecap="round" transform="translate(303.2446672157748 18.750216603147237) rotate(0 30.92578125 27.623046875)"><path d="M-0.2 -0.75 C14.89 -0.52, 30.42 0.77, 63.11 -0.85 M0.37 -0.43 C16.61 1.23, 31.89 -0.41, 62.04 0.58 M60.47 -0.05 C60.29 18.09, 61.17 35.75, 60.29 56.03 M62.45 -0.4 C62.16 15.17, 62.85 28.36, 62.77 55.97 M60.81 56.84 C35.97 55.23, 11.64 54.88, 0.63 56.11 M62.01 55.81 C44.92 56.02, 26.21 55.01, 0.13 54.54 M-0.58 54.55 C-0.32 39.41, 0.04 19.95, -1.52 -0.95 M0.67 55.19 C-0.74 41.39, -0.54 29.04, 0.64 -0.88" stroke="#000000" stroke-width="1" fill="none"></path></g><g stroke-linecap="round"><g transform="translate(217.8320530475994 132.25518105672518) rotate(0 38.82093528375117 -28.361556748295243)"><path d="M-0.12 -0.45 C13.04 -9.81, 65.93 -47.1, 79.28 -56.27 M-1.64 -1.73 C11.35 -10.91, 64.94 -45.6, 78.5 -54.91" stroke="#000000" stroke-width="1" fill="none"></path></g><g transform="translate(217.8320530475994 132.25518105672518) rotate(0 38.82093528375117 -28.361556748295243)"><path d="M59.96 -30.23 C66.03 -37.01, 73.18 -45.4, 77.65 -55.75 M60.28 -30.1 C65.68 -36.38, 68.11 -41.69, 79.08 -54.68" stroke="#000000" stroke-width="1" fill="none"></path></g><g transform="translate(217.8320530475994 132.25518105672518) rotate(0 38.82093528375117 -28.361556748295243)"><path d="M48.6 -47.32 C58.4 -48.45, 69.29 -51.21, 77.65 -55.75 M48.91 -47.19 C56.76 -49.6, 61.8 -51, 79.08 -54.68" stroke="#000000" stroke-width="1" fill="none"></path></g></g><mask></mask><g stroke-linecap="round" transform="translate(302.6533421100985 83.82644273161895) rotate(0 30.92578125 27.623046875)"><path d="M0 0 C0 0, 0 0, 0 0 M0 0 C0 0, 0 0, 0 0 M-0.79 6.64 C2.01 4.36, 2.6 2.18, 5.23 0.86 M-0.12 6.6 C1.22 4.54, 2.64 3.54, 4.98 0.42 M-0.35 10.87 C4.48 7.47, 5.34 5.69, 12.13 -0.46 M0.68 11.77 C2.45 9.28, 5.43 5.29, 11.12 -0.03 M0.52 16.5 C4.64 11.82, 10.56 6.52, 16.01 -0.61 M0.28 18.42 C2.57 14.65, 7.06 10.72, 16.04 0.44 M1.78 25.43 C7.56 16.24, 13.42 10.73, 19.54 -0.34 M0.43 24.26 C5.84 17.79, 10.67 12, 21 -0.03 M-0.1 29.52 C8.48 18.59, 18.79 7.81, 26.49 -0.91 M-0.5 29.67 C5.71 23.8, 12.97 16.48, 25.62 -0.27 M-0.43 36.8 C9.68 26.88, 16.4 20.56, 30.85 -1.14 M0.42 36.71 C11.21 23.38, 22.41 10.62, 31.31 0.65 M0.89 41.15 C14.31 27.05, 25.17 12.76, 35.22 2.19 M-0.31 41.95 C10.01 30.93, 20.82 18.37, 36.07 1.13 M0.78 50.25 C10.36 34.38, 23.72 22.32, 41.41 -0.02 M-0.73 48.45 C11.27 35.41, 22.75 22.9, 42.52 -0.37 M-1.17 55.96 C19.42 31.39, 37.4 11.29, 48.46 -1.41 M0 55.07 C18.72 33.96, 35.42 12.85, 48.5 0.4 M2.01 59.07 C16.3 43.01, 26.46 31.47, 51.23 1.42 M2.85 57.18 C20.86 36.09, 40.86 13.51, 53.21 0.06 M9.98 56.93 C21.5 40.17, 39.91 21.53, 58.47 0.69 M7.71 57.31 C20.9 41.45, 36.76 24.49, 57.74 -0.67 M13.15 59.24 C25.48 45.39, 37.34 32.34, 62.7 -0.19 M14.05 58.82 C27.42 41.72, 42.53 23.75, 62.55 0.35 M20.5 55.6 C32.71 39.87, 47.27 24.82, 63.65 8.14 M18.2 56.54 C30.77 43.27, 43.05 29.82, 63.43 7.48 M23.01 58.3 C32.64 47.94, 42.82 34.39, 62.03 13.82 M23.38 57.41 C34.28 44.85, 46.12 34.04, 62.75 13 M28.21 55.95 C39.83 47.7, 49.46 34.51, 63.66 18.77 M29.72 57.16 C39.54 46.89, 46.9 35.9, 62.2 18.17 M34.29 57.21 C43.07 46.08, 53.67 37.93, 63.48 23.43 M34.94 57.95 C42.15 49.18, 48.6 40.36, 62.27 24.87 M40.59 56.42 C47.72 50.92, 53.33 42.07, 61.44 31.09 M40.37 57.04 C47.71 47.95, 57.49 37.85, 62.67 31.94 M45.73 57.38 C51.89 48.41, 60.14 43.55, 62.53 37.68 M45.58 58.44 C51.93 49.37, 59.28 41.2, 61.95 37.91 M50.21 58.78 C54.51 51.4, 59.05 45.98, 60.92 44.1 M50.51 57.55 C55.02 52.84, 58.48 49.7, 62 43.41 M54.87 58.29 C57.06 56.34, 59 53.45, 62.64 49.94 M55.84 57.3 C57.79 54.74, 61.07 52.12, 62.77 49.68" stroke="#ced4da" stroke-width="0.5" fill="none"></path><path d="M-1.18 -1.08 C12.86 0.75, 25.11 -1.69, 59.89 1.16 M0.69 -0.26 C13.59 0.81, 26.39 0.44, 61.33 -0.61 M62.34 -0.76 C63.09 13.62, 63.08 28.65, 62.34 55.2 M61.61 0.08 C62.95 12.52, 62.17 24.86, 62.78 55.69 M63.41 53.48 C49 56.31, 33.3 53.98, -0.85 56.7 M61.63 54.58 C47.22 55.57, 33.08 54.33, -0.26 54.26 M-1.28 54.3 C1.15 33.82, 0.99 14.5, 0.68 -1.61 M-0.38 56.2 C0.8 38.5, -0.19 22.58, -0.54 0.84" stroke="#000000" stroke-width="1" fill="none"></path></g><g stroke-linecap="round"><g transform="translate(333.1277344712089 112.15261460661895) rotate(0 37.64452158059498 -0.9342865657060884)"><path d="M-1.04 0.15 C11.59 -0.07, 63.29 -1.62, 76.33 -2.02 M0.61 -0.81 C13 -0.8, 62.46 -0.59, 75.13 -0.66" stroke="#000000" stroke-width="1" fill="none"></path></g><g transform="translate(333.1277344712089 112.15261460661895) rotate(0 37.64452158059498 -0.9342865657060884)"><path d="M47.19 8.79 C56.12 6.96, 65.43 3.55, 76.54 1.11 M46.72 10.41 C56.01 5.57, 65.03 3.13, 74.87 -1.49" stroke="#000000" stroke-width="1" fill="none"></path></g><g transform="translate(333.1277344712089 112.15261460661895) rotate(0 37.64452158059498 -0.9342865657060884)"><path d="M47.19 -11.73 C56 -6.51, 65.31 -2.86, 76.54 1.11 M46.72 -10.11 C55.9 -8.28, 64.92 -4.06, 74.87 -1.49" stroke="#000000" stroke-width="1" fill="none"></path></g></g><mask></mask><g transform="translate(421.4089844712089 88.10921182884113) rotate(0 94.5 25)"><text x="0" y="18" font-family="Virgil, Segoe UI Emoji" font-size="20px" fill="#000000" text-anchor="start" style="white-space: pre;" direction="ltr">slot allocated for</text><text x="0" y="43" font-family="Virgil, Segoe UI Emoji" font-size="20px" fill="#000000" text-anchor="start" style="white-space: pre;" direction="ltr">reified block object</text></g><g stroke-linecap="round" transform="translate(296.7706067544518 253.93663194444298) rotate(0 37.890625 132.63068134008472)"><path d="M0.32 -1.53 C20.74 -0.97, 42.55 -1.5, 74.98 0.38 M0.69 0.59 C23.21 -0.22, 48.36 -0.28, 76.78 -0.91 M75.49 -0.59 C74.9 62.32, 75.75 123.14, 75.49 264.71 M75.12 -0.02 C75.3 101.79, 76.62 203.1, 75.91 264.99 M75.95 263.73 C49.69 264.79, 25.25 262.71, 1.99 265.25 M75.34 265.6 C55.52 265.93, 34.49 266.74, 0.32 264.56 M-1.38 265.73 C-1.98 178.22, -2.83 90.02, 0.46 1.11 M-0.66 265.27 C-0.73 169.55, -0.55 71.78, 0.73 0.52" stroke="#000000" stroke-width="1" fill="none"></path></g><g stroke-linecap="round" transform="translate(304.5676809803117 452.3899492871169) rotate(0 30.92578125 27.623046875)"><path d="M0 0 C0 0, 0 0, 0 0 M0 0 C0 0, 0 0, 0 0 M-0.13 6.38 C1.31 5.05, 2.38 4.1, 4.69 0.71 M0.06 6 C0.44 5.49, 1.87 3.46, 4.96 0.19 M-0.71 13.56 C2.69 8.42, 6.8 2.91, 10.34 1.17 M0.79 12.07 C3.47 9.22, 4.78 6.82, 11.33 0.76 M-0.31 18.22 C2.66 12.5, 8.85 5.97, 13.65 1.3 M0.06 18.33 C4.11 13.73, 8.25 8.27, 15.57 0.41 M-0.15 24.08 C7.69 18.82, 14.55 11.68, 20.81 0.11 M0.68 24.78 C5.65 15.6, 12.95 8.87, 21.76 0.82 M0.83 29.7 C11.84 16.89, 19.17 8.49, 24.65 -1.56 M0.98 30.21 C11.53 18.43, 21.35 6.11, 27.01 0.47 M-0.56 36.67 C14.03 22.88, 24.33 8.11, 31.45 1.24 M-0.24 36.09 C12.01 24.64, 21.47 12.43, 31.43 0.21 M-0.22 41.49 C8.27 31.66, 17.12 23.9, 35.36 -0.77 M0.13 41.77 C11.81 30.08, 23.06 16.64, 37.76 -0.7 M-1.07 49.17 C15.96 32.92, 28.46 12.82, 41.3 0.19 M0.22 48.49 C7.65 39.13, 16.63 27.59, 42.2 0.28 M1.26 53.3 C18.25 33.23, 35.44 12.5, 47.39 -1.72 M-0.61 55 C18.86 33.58, 38.14 11.52, 47.88 0.8 M3.49 58.31 C21.24 40.05, 39.06 17.07, 51.93 1.35 M2.27 58.42 C17.48 41.78, 31.45 24.02, 53.73 0.44 M8.36 56.85 C29.87 34.47, 46.39 11.21, 59.8 0.25 M8.47 57.05 C26.73 35.33, 44.94 14.45, 57.92 0.6 M15.07 59.07 C32.34 36.88, 49.69 11.85, 64.74 0.89 M13.92 58.3 C26.58 44.07, 38.58 29.3, 64.08 0.07 M19.49 57.94 C28.31 42.63, 41.64 30.4, 61.21 8.59 M19.04 57.4 C33.05 40.95, 48.65 24.08, 62.08 7.89 M21.95 57.56 C36.46 40.01, 51.14 24.26, 62.41 14.57 M23.55 58.37 C38.36 41.05, 52.01 25.7, 62.12 13.37 M30.19 56.44 C38.87 45.14, 49.75 32.89, 64.94 20.53 M29.36 56.76 C42.36 43.84, 53.34 31.1, 62.25 19.26 M33.76 56.86 C45.97 45.53, 54.9 35.24, 61.07 25.03 M33.96 57.57 C44.1 47.41, 53.49 36.2, 62.72 25.6 M39.04 56.17 C47.44 49.58, 54.8 38.65, 63.05 29.5 M39.35 58.04 C46.64 49.64, 53.58 42.38, 63.15 30.27 M43.6 56.09 C49.11 53.94, 51.67 48.84, 63.52 37.55 M45.44 57.54 C49.52 51.8, 53.75 46.93, 62.99 37.86 M51.12 57.97 C54.75 54.49, 57.54 51.43, 63.7 44.92 M50.93 58.28 C54.45 52.82, 59.42 49.29, 62.73 44.21 M54.81 57.01 C56.98 55.41, 60.2 51.71, 62.28 48.47 M55.24 57.72 C58.25 55.42, 60.02 52.86, 63.37 49.61" stroke="#15aabf" stroke-width="0.5" fill="none"></path><path d="M-1.53 -1.29 C19.95 -1.6, 40.53 -0.89, 62.23 0.31 M0.59 -0.7 C12.57 0.11, 25.96 0.57, 60.94 -0.68 M61.1 -0.48 C62.95 15.85, 62.02 30.14, 61.15 56.92 M61.83 -0.74 C61.64 17.79, 61.11 33.87, 61.51 55.58 M60.32 54.39 C45.7 55.23, 27.38 57.29, -0.01 54.59 M62.19 55.23 C46.59 54.16, 32.06 55.29, -0.7 55.54 M0.59 55.32 C0.44 32.31, -0.7 11.95, 1.4 1.28 M0.01 55.79 C1.15 36.39, -0.47 16.92, 0.66 -0.77" stroke="#000000" stroke-width="1" fill="none"></path></g><g transform="translate(314.4934622303117 467.5129961621169) rotate(0 21 12.5)"><text x="21" y="18" font-family="Virgil, Segoe UI Emoji" font-size="20px" fill="#000000" text-anchor="middle" style="white-space: pre;" direction="ltr">main</text></g><g stroke-linecap="round" transform="translate(19.877914638986113 478.97583987144935) rotate(0 99 17.5)"><path d="M-1.17 -1.5 C60.84 0.48, 125.45 1.59, 196.35 -1.78 M-0.89 0.54 C72.17 2.39, 145.35 0.71, 197.76 0.24 M198.97 0.6 C197.91 9.49, 197.17 21.37, 198.1 33.97 M198.07 0.93 C197.54 7.74, 197.65 15.49, 197.63 34.26 M198.09 34.93 C134.9 36.14, 75.75 33.49, -1.04 36.56 M198.08 34.18 C148.22 35.28, 95.97 35.25, 0.97 34.78 M0.32 34 C-0.93 28.14, 1.3 21.39, 1.1 -0.61 M0.99 35.77 C-0.64 28.36, 0.66 19.11, -0.3 0.02" stroke="#000000" stroke-width="1" fill="none"></path></g><g transform="translate(86.87791463898611 483.97583987144935) rotate(0 32 12.5)"><text x="32" y="18" font-family="Virgil, Segoe UI Emoji" font-size="20px" fill="#000000" text-anchor="middle" style="white-space: pre;" direction="ltr">&lt;main&gt;</text></g><g stroke-linecap="round" transform="translate(11.447547791160105 427.4838222084072) rotate(0 105.96127717391323 48.08084239130426)"><path d="M-1.49 -0.7 C50.27 1.67, 98.41 -0.17, 213.14 1.04 M-0.84 0.88 C47.87 -1.6, 97.13 -0.79, 211.76 -0.33 M211.96 -0.37 C211.69 28.19, 212.49 52.01, 210.25 96.12 M211.47 0.16 C211.65 22.04, 211.62 42.69, 212.01 95.4 M210.17 97.91 C157.45 95.52, 102.08 97.47, -0.78 96.76 M212.7 96.44 C148.14 94.89, 86.44 94.45, -0.77 96.42 M-0.82 96.74 C1.25 68.21, 0.95 37.1, -1.68 0.02 M-0.64 97.09 C-0.29 61.27, -1.25 27.93, -0.01 -0.24" stroke="#000000" stroke-width="1" fill="none"></path></g><g stroke-linecap="round" transform="translate(19.50851925855204 438.5185538660153) rotate(0 99 17.5)"><path d="M-0.8 0.38 C48.15 0.03, 93.91 3.06, 199.18 -1.41 M1 -0.91 C41.12 1.65, 83.84 1.71, 197.63 -0.24 M197.63 -0.7 C199.77 12.29, 197.07 22.71, 197.95 33.52 M198.16 -0.34 C198.66 10.38, 197.59 21.59, 197.24 34.57 M199.99 34.99 C137.01 31.99, 78.9 32.15, 0.68 34.96 M198.32 34.3 C137.35 37.72, 75.91 35.88, 0.29 35.04 M0.58 36.4 C1.45 25.05, -0.44 11.21, 0.02 1.1 M0.93 35.66 C-1.04 20.74, -0.25 7.09, -0.24 0.29" stroke="#000000" stroke-width="1" fill="none"></path></g><g transform="translate(101.50851925855204 443.5185538660153) rotate(0 17 12.5)"><text x="17" y="18" font-family="Virgil, Segoe UI Emoji" font-size="20px" fill="#000000" text-anchor="middle" style="white-space: pre;" direction="ltr">foo</text></g><g stroke-linecap="round"><g transform="translate(217.5555153431378 468.5610131051453) rotate(0 41.20096681488144 -43.47388944124532)"><path d="M0.23 0.19 C13.95 -14.26, 67.5 -72.88, 81.32 -87.13 M-1.11 -0.76 C13.07 -15.05, 69.52 -71.73, 83.51 -86.16" stroke="#000000" stroke-width="1" fill="none"></path></g><g transform="translate(217.5555153431378 468.5610131051453) rotate(0 41.20096681488144 -43.47388944124532)"><path d="M71.36 -60.52 C72.06 -63.38, 77.71 -72.06, 81.73 -85.08 M70.37 -59.11 C73.56 -64.52, 75.49 -70.15, 83.99 -85.86" stroke="#000000" stroke-width="1" fill="none"></path></g><g transform="translate(217.5555153431378 468.5610131051453) rotate(0 41.20096681488144 -43.47388944124532)"><path d="M56.73 -74.92 C60.53 -74.71, 69.33 -80.28, 81.73 -85.08 M55.74 -73.51 C62.07 -75.84, 66.99 -78.53, 83.99 -85.86" stroke="#000000" stroke-width="1" fill="none"></path></g></g><mask></mask><g stroke-linecap="round"><g transform="translate(218.89754788737082 511.6068246760624) rotate(0 39.25729086846104 0.17726980799602643)"><path d="M0.19 -0.99 C13.19 -0.8, 64.35 1.23, 77.54 1.34 M-1.17 1.11 C12.23 0.94, 66.34 -0.25, 79.69 -0.34" stroke="#000000" stroke-width="1" fill="none"></path></g><g transform="translate(218.89754788737082 511.6068246760624) rotate(0 39.25729086846104 0.17726980799602643)"><path d="M50.01 8.58 C60.32 8.71, 64.82 2.97, 80.76 -2.25 M51.42 10.6 C62.78 5.89, 73.92 2.48, 79.99 -0.32" stroke="#000000" stroke-width="1" fill="none"></path></g><g transform="translate(218.89754788737082 511.6068246760624) rotate(0 39.25729086846104 0.17726980799602643)"><path d="M49.69 -11.94 C60.12 -6.47, 64.7 -6.88, 80.76 -2.25 M51.1 -9.92 C62.4 -6.42, 73.67 -1.64, 79.99 -0.32" stroke="#000000" stroke-width="1" fill="none"></path></g></g><mask></mask><g stroke-linecap="round"><g transform="translate(220.4280383387595 478.5355356135624) rotate(0 39.09437050244037 15.621847956503416)"><path d="M-0.99 -1.07 C12.17 4.29, 66.1 27.04, 79.18 32.31 M0.69 0.99 C13.75 5.98, 65.46 25.51, 78.67 30.56" stroke="#000000" stroke-width="1" fill="none"></path></g><g transform="translate(220.4280383387595 478.5355356135624) rotate(0 39.09437050244037 15.621847956503416)"><path d="M46.89 31.53 C59.43 29.12, 66.04 31.73, 76.75 32.56 M48.91 29.96 C54.57 30.06, 61.71 30.69, 78.69 30.38" stroke="#000000" stroke-width="1" fill="none"></path></g><g transform="translate(220.4280383387595 478.5355356135624) rotate(0 39.09437050244037 15.621847956503416)"><path d="M54.18 12.35 C64.42 16, 68.7 24.73, 76.75 32.56 M56.2 10.77 C60.2 14.88, 65.81 19.52, 78.69 30.38" stroke="#000000" stroke-width="1" fill="none"></path></g></g><mask></mask><g stroke-linecap="round" transform="translate(304.69221500693493 325.79882771425764) rotate(0 31 27.623046875)"><path d="M0 0 C0 0, 0 0, 0 0 M0 0 C0 0, 0 0, 0 0 M-0.31 7.05 C0.8 3.53, 4.13 2.11, 4.23 0.3 M0.1 6.19 C1.44 4.55, 2.6 3.09, 4.85 0.29 M-1.42 13.35 C4.19 9.05, 8.17 1.97, 11.88 1.36 M-0.25 11.97 C4.25 6.42, 8.29 2.19, 9.95 -0.82 M-0.5 18.82 C5.18 11.62, 11.65 4.67, 15.69 0.23 M-0.74 18.23 C4.74 13.48, 10.49 8.2, 16.5 0.1 M2.22 24.91 C8.15 14.74, 11.33 9.13, 20.52 0.93 M1.21 24.5 C7.84 15.54, 15.55 4.74, 22.02 -0.87 M-0.4 32.43 C4.61 26.25, 10.39 18.77, 25.39 1.81 M0.49 30.33 C7.96 21.59, 16.86 10.73, 26.66 0.07 M-2.21 36.91 C9.8 25.13, 23.73 8.16, 33.73 -1.02 M-0.47 36.7 C10.17 24.68, 20.47 12.85, 31.76 -0.86 M1.48 42.51 C7.72 32.54, 20.22 21.71, 38.1 2.02 M0.94 42.05 C7.57 34.51, 15.67 24.68, 36.12 -0.35 M1.72 49.61 C12.96 31.52, 28.79 16.34, 41.18 -0.79 M-0.86 49.41 C13.43 32.32, 28.07 15.22, 41.88 -0.2 M0.13 52.79 C10.19 42.88, 20.27 32.68, 48.18 0.96 M-0.32 54.99 C17.09 35.91, 34.69 16.71, 46.93 -0.39 M3.98 57.22 C22.68 36.93, 41.95 14.42, 51.74 0.99 M2.23 57.98 C19.93 37.68, 38.34 14.99, 52.82 0.66 M9.88 57.94 C22.02 41.07, 36.32 23.73, 56.44 -0.24 M9.22 58.45 C25.43 38.04, 42.5 17.65, 57.16 1 M12.25 59.22 C30.12 40.95, 45.8 21.72, 63.05 2.46 M12.3 58.2 C26.24 42.07, 37.7 28.4, 62.86 -0.28 M17.45 57.78 C35.34 36.88, 52.09 19.64, 62.3 5.38 M19.43 56.54 C35.81 36.78, 52.38 17.31, 61.96 6.85 M25.61 57.19 C38.61 43.13, 50.68 26.48, 63.06 12.37 M24.73 58.2 C35.01 43.84, 47.29 30.53, 62.62 14.31 M27.6 57.12 C40.54 45.09, 53.29 29.41, 62.83 17.5 M30.33 57.1 C39.74 45.54, 51.1 32.22, 63.74 18.15 M33.43 56.7 C41.85 49.33, 50.71 40.25, 62.16 25.36 M34.8 57.28 C42.85 47.11, 53.08 36.51, 62.22 25.34 M41.21 55.8 C46.54 51.46, 49.94 46.55, 62.86 31.07 M41.07 56.66 C44.67 51.63, 51.07 45.04, 63.21 31.35 M45.58 58.36 C50.13 50.85, 54.77 43.84, 62.44 37.66 M44.81 57.98 C51.63 51.34, 57.75 44.16, 63.5 38.03 M50.65 57.66 C56.77 52, 59.03 49.27, 64.25 44.06 M50.39 56.61 C54.22 51.88, 59.06 48, 61.89 43.23 M55.01 56.69 C57.18 56.48, 59.25 53.71, 63.59 50.2 M55.39 57.39 C58.29 54.8, 60.69 52.42, 63.25 48.98" stroke="#ced4da" stroke-width="0.5" fill="none"></path><path d="M1.39 1.18 C18.16 -1.23, 40.2 -1.36, 63.99 -1.81 M-0.19 -0.37 C14.15 0.33, 29.07 -0.13, 61.82 -0.35 M60.33 -0.05 C60.54 21.33, 63.89 41.47, 62.32 54.56 M62.09 -0.76 C61.36 18.44, 61.76 35.8, 62.99 55.24 M61.12 55.93 C45.4 55.89, 27.25 57.5, 0.64 53.85 M61.13 55.54 C41.64 55.27, 20.69 54.7, 0.29 55.95 M-1.68 55.26 C0.79 37.12, 1.23 13.77, 1.85 1.33 M-0.01 55.01 C0.46 43.05, 0.17 30.61, -0.32 0.59" stroke="#000000" stroke-width="1" fill="none"></path></g><g transform="translate(309.61799625693493 340.92187458925764) rotate(0 26 12.5)"><text x="26" y="18" font-family="Virgil, Segoe UI Emoji" font-size="20px" fill="#000000" text-anchor="middle" style="white-space: pre;" direction="ltr">proxy</text></g><g stroke-linecap="round"><g transform="translate(219.2796008387595 439.3037921678351) rotate(0 39.08099666912403 -58.53152134765605)"><path d="M0.83 0.71 C13.68 -18.74, 63.29 -98.01, 76.08 -117.77 M-0.19 0.04 C13.12 -19.21, 65.46 -97.27, 78.35 -116.8" stroke="#000000" stroke-width="1" fill="none"></path></g><g transform="translate(219.2796008387595 439.3037921678351) rotate(0 39.08099666912403 -58.53152134765605)"><path d="M72.44 -89.05 C71.28 -92.96, 72.69 -98.39, 76.54 -118.15 M70.88 -87.89 C73.63 -95.38, 75.12 -103.91, 78 -115.96" stroke="#000000" stroke-width="1" fill="none"></path></g><g transform="translate(219.2796008387595 439.3037921678351) rotate(0 39.08099666912403 -58.53152134765605)"><path d="M55.36 -100.43 C57.82 -101.99, 62.94 -104.93, 76.54 -118.15 M53.81 -99.27 C61.29 -103.59, 67.5 -108.98, 78 -115.96" stroke="#000000" stroke-width="1" fill="none"></path></g></g><mask></mask><g stroke-linecap="round" transform="translate(304.1008899012577 390.87505384272845) rotate(0 30.92578125 27.623046875)"><path d="M0 0 C0 0, 0 0, 0 0 M0 0 C0 0, 0 0, 0 0 M-1.06 5.64 C2.36 4.08, 2.75 1.97, 4.65 0.77 M0.12 6.13 C1.67 4.18, 3.17 2.18, 5.29 0.14 M0.19 13.62 C3.84 6.96, 8.5 5.31, 12.23 -0.05 M0.05 11.32 C3.8 7.5, 7.19 2.42, 11.02 -0.17 M-0.35 17.86 C4.69 12.57, 8.04 9.04, 15.79 0.25 M-0.13 18.95 C4.42 15.22, 7.97 10.08, 15.71 0.36 M1.67 22.26 C5.01 16.12, 13.07 9.14, 23.05 1.64 M-0.12 24.96 C5.7 15.99, 13.83 8.2, 20.33 0.91 M-0.54 32.39 C6.53 23.24, 12.57 16.37, 26.61 2.25 M-0.1 31.29 C9.04 20.02, 17.76 10.17, 26.92 0.76 M-1.82 38.41 C7.38 27.29, 15.36 20.52, 32.51 -1.74 M-0.77 36.98 C9.19 25.69, 20.15 12.64, 31.38 0 M-1.36 43.04 C12.68 30.1, 23.01 19.05, 34.96 1.24 M0.27 43.08 C10.96 30.07, 19.91 18.08, 37.04 -0.68 M-0.99 47.17 C15.07 31.06, 26.42 15.54, 43.35 1.43 M-0.75 48.78 C9.44 36.99, 19.12 26.19, 41.55 0.86 M1.15 53.83 C15.07 39.67, 27.75 24.92, 48.65 1.11 M0.46 54.92 C11.68 43.22, 20.38 30.32, 48.27 0.05 M3.58 58.56 C16.47 43.14, 26.84 29.37, 54.37 1.83 M2.28 58.92 C20.62 36.57, 38.39 17.51, 53.18 0.48 M7.28 58.73 C23.79 38.23, 41.66 16.14, 58.97 1.79 M8.86 57.57 C22.83 39.68, 35.68 24.63, 58.31 -0.3 M14.04 58.85 C26.42 43.43, 37.9 31.39, 62.17 -0.11 M13.48 56.94 C31.96 35.68, 51.65 13.11, 63.95 0.86 M18.69 55.85 C28.49 46.97, 37.72 34.03, 64.75 8.04 M18.75 57.13 C34.97 38.18, 52.25 18.14, 63.47 7.55 M24.9 59.43 C36.41 43.1, 51.59 25.26, 62.65 13.67 M23.37 57.19 C34.03 45.2, 44.43 34.68, 63.37 13.8 M28.11 59.31 C35.74 49.99, 44.01 39.65, 63.54 20.34 M29.05 57.9 C36.91 48.38, 45.5 38.92, 62.82 19.3 M33.99 58.65 C45.11 47.33, 54.25 34.83, 63.17 26.09 M33.89 57.69 C44.87 46.28, 53.74 35.15, 61.97 25.19 M41.36 57.25 C45.2 51.85, 51.2 44.51, 61.61 29.42 M39.31 57.41 C45.83 50.59, 51.02 45.27, 63.19 30.63 M44.63 56.93 C47.51 51.84, 52.1 49.46, 63.74 36.69 M45.46 58.22 C49.69 53.27, 54.1 48.89, 63.48 37.72 M52.55 56.88 C53.83 55.26, 59.01 50.09, 63.39 44.07 M50.18 56.51 C54.25 53.7, 56.57 49.52, 61.79 43.97 M55.69 58.27 C59.06 54.14, 61.94 52.23, 63.28 49.37 M55.94 57.5 C58.17 55.43, 60.33 52.45, 62.61 49.52" stroke="#ced4da" stroke-width="0.5" fill="none"></path><path d="M-1.41 -1.78 C14.13 -2.28, 28.11 -2.18, 60.49 -0.48 M-0.24 0.48 C20.36 0.25, 39.94 -0.12, 62.69 0.05 M60.37 0.14 C63.25 12.82, 61.71 26.77, 62.51 54.5 M61.42 0.05 C61.87 11.49, 62.89 24.96, 61.52 54.73 M61.81 55.4 C36.84 57.23, 15.73 54.06, 0.58 57.19 M61.89 55.4 C44.13 55.02, 27.69 56.13, 0.64 55.8 M1.1 57.22 C2 39.08, 2.31 26.79, -1.54 -0.61 M0.29 55.38 C0.01 38.62, -0.31 22.51, 0.49 -0.78" stroke="#000000" stroke-width="1" fill="none"></path></g><g stroke-linecap="round" transform="translate(303.9337240545419 260.0504010649506) rotate(0 30.92578125 27.623046875)"><path d="M-0.67 0.09 C15.27 -0.8, 29.44 0.88, 63.57 1.64 M0.89 -0.58 C15.4 -0.24, 29.09 0.47, 61.41 -0.68 M60.21 -1.61 C60.97 20.12, 62.64 36.67, 63.82 54.65 M61.05 -0.08 C61.38 12.87, 62.37 24.23, 62.5 55.97 M63.33 55.23 C48.41 56.77, 36.65 55.53, -0.89 55.78 M62.8 54.56 C47.29 55.5, 32.47 55.76, 0.01 55.17 M-1.6 57.01 C1.1 41.42, -1.12 30.19, -0.37 1.7 M0.01 54.64 C1.1 42.34, 0.08 30.97, 0.31 0.42" stroke="#000000" stroke-width="1" fill="none"></path></g><g stroke-linecap="round"><g transform="translate(334.50794280454284 416.44080905106284) rotate(0 36.63066870213811 0.2119384448544679)"><path d="M0.72 0.87 C12.95 1.13, 61.29 1.14, 73.62 0.87 M-0.36 0.29 C11.67 0.3, 60.09 -0.65, 72.55 -0.65" stroke="#000000" stroke-width="1" fill="none"></path></g><g transform="translate(334.50794280454284 416.44080905106284) rotate(0 36.63066870213811 0.2119384448544679)"><path d="M45.92 9.52 C55.45 7.75, 61.78 3.33, 71.65 0.65 M43.77 9.75 C51.02 8.56, 56.08 5.82, 72.77 0.16" stroke="#000000" stroke-width="1" fill="none"></path></g><g transform="translate(334.50794280454284 416.44080905106284) rotate(0 36.63066870213811 0.2119384448544679)"><path d="M45.71 -11 C55.19 -6.19, 61.59 -4.02, 71.65 0.65 M43.55 -10.77 C50.94 -7.8, 56.04 -6.37, 72.77 0.16" stroke="#000000" stroke-width="1" fill="none"></path></g></g><mask></mask><g transform="translate(417.6155816934315 381.8678923843963) rotate(0 97.5 37.5)"><text x="0" y="18" font-family="Virgil, Segoe UI Emoji" font-size="20px" fill="#000000" text-anchor="start" style="white-space: pre;" direction="ltr">still empty, because</text><text x="0" y="43" font-family="Virgil, Segoe UI Emoji" font-size="20px" fill="#000000" text-anchor="start" style="white-space: pre;" direction="ltr">we didn't have to</text><text x="0" y="68" font-family="Virgil, Segoe UI Emoji" font-size="20px" fill="#000000" text-anchor="start" style="white-space: pre;" direction="ltr">set the flag</text></g></svg>