<svg version="1.1" xmlns="http://www.w3.org/2000/svg" viewBox="0 0 821.4473764233499 638.975531273285" width="821.4473764233499" height="638.975531273285">
  <!-- svg-source:excalidraw -->
  
  <defs>
    <style class="style-fonts">
      @font-face {
        font-family: "Virgil";
        src: url("https://excalidraw.com/Virgil.woff2");
      }
      @font-face {
        font-family: "Cascadia";
        src: url("https://excalidraw.com/Cascadia.woff2");
      }
    </style>
  </defs>
  <rect x="0" y="0" width="821.4473764233499" height="638.975531273285" fill="#ffffff"></rect><g stroke-linecap="round" transform="translate(283.3612534077347 10) rotate(0 37.890625 196.10941397897386)"><path d="M-1.59 0.3 C24.18 1.87, 49.02 0.31, 75.29 1.92 M-0.01 -0.42 C21.96 0.51, 44.84 -0.37, 76.51 -0.68 M74.82 -0.56 C75.56 96.08, 75.59 191.7, 75.96 392.62 M75.29 -0.57 C76.15 104.35, 76.49 208.33, 75.53 392.37 M77.77 391.27 C47.56 394.73, 18.07 393.78, 0.12 392.24 M75.39 392.81 C46.67 392.6, 19.53 392.37, -0.59 391.26 M-0.91 391.08 C0.33 299.33, -0.16 206.98, 0.03 0.88 M-0.02 391.75 C-1.83 290.13, -2.2 187.06, 0.27 0.13" stroke="#000000" stroke-width="1" fill="none"></path></g><g stroke-linecap="round" transform="translate(291.0237790224837 144.42119928711872) rotate(0 30.92578125 27.623046875)"><path d="M0 0 C0 0, 0 0, 0 0 M0 0 C0 0, 0 0, 0 0 M-0.29 6.98 C1.23 3.56, 3.99 2.66, 5.37 -0.43 M-0.17 6.03 C1.24 4.87, 2.43 3.71, 4.7 0.25 M0.63 12.08 C4.36 8.53, 6.97 5.53, 11.97 1.19 M-0.53 12.58 C3.55 7.93, 7.7 2.36, 10.67 0.49 M0.33 20.42 C5.96 10.89, 9.25 5.92, 14.3 -0.93 M0.71 18.59 C6.46 11.14, 11.49 6.26, 15.24 1.14 M1.72 25.57 C6.04 17.64, 12.64 11.24, 20.28 -0.68 M1.18 23.8 C6.01 16.95, 10.8 10.83, 21.61 0.14 M-1.56 29.75 C3.21 22.88, 8.73 16.43, 24.61 1.17 M0.97 31.25 C5.62 23.81, 11.28 17.11, 26.33 0.26 M-1.89 37.04 C10.73 24.22, 25.33 8.26, 30.18 -0.16 M0.04 36.46 C9.79 25.23, 19.51 13.77, 32.84 -1.1 M1.79 43.41 C13.56 26.38, 27.5 8.78, 38.57 -1.38 M0.93 42.5 C10.83 29.93, 23.27 15.42, 36.16 -0.06 M1.33 48.58 C16.93 32.71, 32.14 12.09, 44.48 -1.5 M0.62 49.88 C8.57 38.69, 17.29 28.97, 42.95 0.3 M1.25 54.48 C14.24 40, 25.54 24.49, 45.93 1.87 M0 53.92 C14.39 39.96, 26.54 24.91, 48.08 -0.31 M3.47 57.96 C19.39 37.59, 38.27 17.41, 54.69 -1.79 M3.05 57.48 C16.37 42.38, 30.06 26.44, 52.78 -0.79 M8.57 58.44 C19.95 43.2, 37.24 27.96, 58.46 -0.21 M7.71 57.54 C19.81 44.05, 31.45 31.42, 57.17 1.04 M13.91 57.67 C24.95 45.49, 36.54 28.68, 62.69 0.09 M12.47 56.94 C29.37 39.48, 46.1 19.19, 63.75 -0.19 M17.4 59.32 C30.34 43.45, 43.55 29.12, 62.06 8.54 M19.69 56.97 C30.46 46.21, 39.55 34.93, 63.33 7.33 M24.97 59.75 C32.8 48.25, 41.96 34.82, 62.2 15.32 M23.62 58.05 C38.02 41.49, 53.71 23.68, 62.32 12.35 M29.08 57.61 C41.18 43.01, 52.61 31.87, 63.89 18.44 M30.44 58.37 C42.81 43.69, 54.78 29.26, 63.43 19.6 M34.85 57.65 C39.95 48.93, 46.05 43.79, 62.99 24.38 M34.87 57.56 C44.51 46.25, 55.5 33.88, 63.18 25.42 M38.57 56.26 C46.71 47.81, 56.94 39.21, 62.38 32.51 M40.3 57.34 C47.24 48.98, 56.1 40.64, 62.34 30.14 M45.79 57.29 C49.57 50.09, 57.51 42.81, 64.02 36.81 M45.32 57.21 C48.69 53.51, 52.26 49.09, 63.46 36.75 M49.97 57.63 C54.4 54.89, 57.92 49.11, 60.98 42.42 M49.95 57.08 C55.62 52.93, 59.67 46.95, 63.33 43.35 M54.84 58.49 C57.4 56.29, 60.27 54.81, 63.52 50.23 M55.78 57.24 C58.5 54.68, 60.62 52.93, 62.54 49.65" stroke="#7950f2" stroke-width="0.5" fill="none"></path><path d="M0.3 0.39 C22.83 1.94, 42.28 0, 63.77 -0.17 M-0.42 -0.12 C20.93 0.68, 40.08 0.74, 61.17 -0.55 M60.88 -0.4 C61.95 16.25, 61.39 33.49, 62.54 54.57 M60.87 -0.02 C61.39 18.05, 60.68 34.54, 62.12 56.09 M60.91 56.16 C47.54 56.41, 30.48 55.99, 0.03 56.77 M62.44 54.64 C40.19 55.77, 17.7 54.41, -0.96 54.61 M-1.97 56.79 C-0.08 37.99, 0.5 19.42, 1.52 -0.78 M-0.81 55.28 C0.15 33.58, -1.07 13.59, 0.22 0.22" stroke="#000000" stroke-width="1" fill="none"></path></g><g stroke-linecap="round" transform="translate(18.430366847826008 356.6451107047842) rotate(0 99 17.5)"><path d="M1.82 1.45 C43.88 -0.88, 89.15 -0.56, 198.48 1.03 M0.9 0.67 C59.22 0.97, 117.73 -0.31, 198 -0.26 M198.24 -0.34 C197.51 7.89, 198.52 14.49, 198.33 33.58 M197.93 0.57 C196.88 7.12, 197.93 15.96, 197.6 35.94 M199.8 35.55 C119.73 36.03, 39.79 37.42, 1.2 34.39 M198.61 35.77 C146.82 33.21, 93.92 33.17, 0.25 34.51 M-0.35 35.69 C0.57 27.29, 1.86 18.69, 1.63 1.16 M0.47 34.4 C-0.46 25.07, 0.51 14.42, 0.94 -0.43" stroke="#000000" stroke-width="1" fill="none"></path></g><g transform="translate(85.43036684782601 361.6451107047842) rotate(0 32 12.5)"><text x="32" y="18" font-family="Virgil, Segoe UI Emoji" font-size="20px" fill="#000000" text-anchor="middle" style="white-space: pre;" direction="ltr">&lt;main&gt;</text></g><g stroke-linecap="round" transform="translate(10 348.9595166528534) rotate(0 105.961277173913 26.17763058574883)"><path d="M0.24 -0.43 C69.44 -1.5, 135.91 -0.45, 211.91 -0.74 M0.02 0.64 C60.38 -1.74, 121.96 -1.48, 211.19 -0.43 M211.6 0.3 C212.68 13.98, 212.32 27.88, 210.24 50.39 M211.15 -0.43 C212.15 16.47, 211.49 32.19, 212.92 51.88 M212.67 52.46 C138.72 54.21, 66.54 52.33, -0.7 53.4 M212.26 51.83 C160.32 53.23, 110.62 53.35, -0.69 51.49 M0.22 52.42 C1.61 31.83, 1.72 14.03, -0.06 -1.61 M-0.75 52.83 C-0.02 36.67, 0.69 20.12, -0.15 -0.08" stroke="#000000" stroke-width="1" fill="none"></path></g><g stroke-linecap="round" transform="translate(290.5569879434297 82.90630384273027) rotate(0 30.92578125 27.623046875)"><path d="M0 0 C0 0, 0 0, 0 0 M0 0 C0 0, 0 0, 0 0 M0.15 6.78 C0.33 4.28, 2.21 2.97, 5.17 -0.37 M-0.19 6.11 C1.58 4.25, 3.8 1.87, 5.11 0.37 M1.51 13.38 C5.04 8.96, 8.64 4.38, 9.3 1.04 M-0.46 12.08 C3.18 9.31, 5.41 5.56, 10.81 0.76 M-0.88 17.13 C4.25 13.4, 11.78 4.49, 17.29 0.63 M0.61 18.06 C7.14 10.87, 12.29 3.82, 16.34 1.07 M0.6 23.11 C5.89 16.22, 14.26 9.34, 23.09 -0.64 M0.07 24.44 C7.43 15.44, 14.62 8.36, 20.48 -0.44 M-1.71 28.84 C6.35 23.06, 8.97 17.75, 28.18 1.83 M-0.25 30.56 C6.83 23.44, 13.53 15.51, 25.43 0.37 M-1.57 35.17 C7.75 27.26, 14.15 16.73, 32.49 -0.93 M-0.54 37.82 C7.6 27.88, 16.37 17.21, 32.72 0.34 M-0.75 44.21 C7.22 32.87, 17.8 24.1, 38.46 0.22 M-0.57 41.8 C8.24 32.96, 16.47 21.37, 37.6 0.09 M-1.35 50.88 C13.12 29.7, 30.92 14.46, 44.02 1.78 M0.1 49.34 C14.44 32.22, 28.37 16.96, 43.01 -0.18 M-1.51 52.98 C20.75 32.36, 38.3 11.78, 46.97 -1.05 M1.26 55.13 C18.15 33.49, 37.78 11.9, 47.92 0.23 M3.67 59.48 C13.4 42.94, 26.2 31.01, 53.99 -1.1 M3.2 57.57 C14.8 42.71, 28.79 27.35, 53.3 0.28 M9.81 57.87 C17.92 43.93, 29.11 32.52, 57.01 0.17 M9.25 56.58 C23.13 41.04, 35.55 26.47, 58.46 0.07 M11.67 57.47 C25.98 42.93, 38.87 28.19, 61.53 -1.38 M12.27 58.53 C24.79 43.01, 38.63 29.56, 62.37 1.45 M17.37 56.71 C34.12 40.29, 44.94 24.45, 64.43 5.87 M19.78 57.98 C36.45 37.2, 54.33 17.28, 63.4 7.88 M22.17 57.47 C37.23 46.33, 46.64 29.59, 62.05 13.7 M23.72 57.59 C31.04 48.6, 40.42 39.15, 62.37 13.41 M29.43 58.37 C40.41 46.13, 50.27 30.67, 64.79 20.76 M30.39 57.91 C40.66 44.5, 50.33 33.28, 63.16 18.89 M35.03 58.09 C40.83 51.33, 50.85 42.87, 63.43 24.82 M34.84 58.29 C42.33 49.08, 49.93 38.95, 61.94 24.79 M40.32 56.7 C46.78 52.14, 48.41 45.49, 63.39 30.83 M40.76 56.65 C44.36 51.95, 50.03 45.38, 63.45 30.77 M44.57 58.95 C48.2 51.77, 54.39 51.13, 63.19 36.25 M44.93 58.4 C49.98 51.21, 55.4 45.09, 62.41 37.55 M49.97 55.78 C53.01 54.81, 59.6 48.84, 60.92 43.18 M51.06 58.13 C54.1 52.38, 58.09 49, 61.84 44.41 M56.79 58.29 C58.59 55.4, 59.37 53.23, 63 48.41 M56.08 57.31 C58.79 54.16, 61.7 51.34, 63.17 49.56" stroke="#40c057" stroke-width="0.5" fill="none"></path><path d="M-0.49 1.92 C24.03 0.39, 49.42 -0.1, 61.01 -0.25 M0.73 -0.68 C23.55 -0.01, 47.95 -0.84, 61.36 -0.2 M62.15 0.69 C61.08 17.57, 60.33 32.79, 59.88 55.22 M61.42 0.27 C63.01 15.78, 63.1 33.35, 61.38 55.7 M61.98 55.27 C39.25 56.71, 13 54.72, 1.18 54.04 M61.26 54.29 C38.89 55.73, 16.7 54.7, -0.99 56.02 M0.06 56.76 C-0.97 41.27, 0.97 23.98, -1.61 0.08 M0.47 55.47 C0.56 37.01, -0.09 16.76, -0.08 -0.63" stroke="#000000" stroke-width="1" fill="none"></path></g><g transform="translate(297.9827691934297 98.02935071773027) rotate(0 23.5 12.5)"><text x="23.5" y="18" font-family="Virgil, Segoe UI Emoji" font-size="20px" fill="#000000" text-anchor="middle" style="white-space: pre;" direction="ltr">"foo"</text></g><g stroke-linecap="round"><g transform="translate(322.2357422356017 173.81060071773118) rotate(0 37.93765964065142 -0.9934104096028022)"><path d="M-0.29 1.15 C12.26 0.93, 63.31 -0.73, 76.17 -1.17 M1.75 0.71 C14.06 0.1, 62.72 -3, 75.17 -3.14" stroke="#000000" stroke-width="1" fill="none"></path></g><g transform="translate(322.2357422356017 173.81060071773118) rotate(0 37.93765964065142 -0.9934104096028022)"><path d="M49.34 8.1 C58.22 5.11, 68.05 -1, 74.92 -1.35 M46.74 7.71 C57.61 3.61, 66.97 -0.8, 74.97 -3.02" stroke="#000000" stroke-width="1" fill="none"></path></g><g transform="translate(322.2357422356017 173.81060071773118) rotate(0 37.93765964065142 -0.9934104096028022)"><path d="M48.5 -12.41 C57.72 -7.75, 67.87 -6.23, 74.92 -1.35 M45.9 -12.79 C57.09 -9.36, 66.75 -6.25, 74.97 -3.02" stroke="#000000" stroke-width="1" fill="none"></path></g></g><mask></mask><g transform="translate(407.3572700133809 160.86962849550855) rotate(0 48.5 12.5)"><text x="0" y="18" font-family="Virgil, Segoe UI Emoji" font-size="20px" fill="#000000" text-anchor="start" style="white-space: pre;" direction="ltr">/pattern/</text></g><g stroke-linecap="round" transform="translate(291.19277348560354 207.8629010649538) rotate(0 30.92578125 27.623046875)"><path d="M0 0 C0 0, 0 0, 0 0 M0 0 C0 0, 0 0, 0 0 M-0.82 6.16 C1.2 4.51, 2.67 2.75, 4.67 0.89 M-0.15 6.58 C1.4 4.62, 3.13 2.79, 5.09 0.37 M1.32 13.17 C4.96 5.97, 9.21 1.79, 11.56 -0.43 M0.36 12.2 C1.95 9.43, 5.65 6.91, 9.94 -0.4 M1.07 19.23 C2.71 15.46, 8.57 11.02, 13.82 1.04 M-0.4 18.1 C5.76 12.26, 12.47 4.73, 15.69 0.74 M-0.32 25.59 C6.76 18.32, 13.12 9.33, 20.03 -1.4 M-0.68 24.68 C5.86 16.49, 11.58 9.51, 20.53 -1 M-1.61 28.72 C4.99 25.83, 13.03 16.62, 25.91 -0.71 M0.67 30.34 C7.76 21.37, 14.49 13.46, 26.79 1.27 M-0.05 34.95 C6.79 28.81, 14.31 18.98, 31.29 -1.18 M0.62 35.92 C8.37 27.99, 17.29 16.51, 32.06 -0.86 M0.32 42.69 C10.69 33.6, 18.54 19.96, 38.36 1.19 M0.8 41.69 C7.99 33.66, 17.14 23.74, 37.58 0.55 M-2.01 50.4 C9.64 39, 21.66 26.39, 42.24 0.37 M-0.54 49.23 C13.89 33.43, 27.08 18.12, 42.37 0.39 M-0.12 55.01 C11.27 42.18, 19.35 33.23, 49.08 -0.02 M0.82 54.82 C19.45 33.53, 37.69 10.91, 47.8 0.19 M2.07 56.56 C21.9 38.74, 36.81 16.68, 54.58 -1.02 M2.37 58.13 C20.4 37.69, 39.3 15.92, 53.7 0.74 M7.03 57.97 C26.23 34.92, 45.72 14.05, 58.05 -0.64 M7.65 56.85 C29.51 34.67, 48.31 11.31, 58.95 -0.2 M13.78 56.71 C25.83 43.79, 33.44 31.8, 64.36 0.59 M12.89 58.4 C23.61 46.01, 33.82 35.32, 62.88 1.46 M17.61 56.43 C27.31 47.45, 37.65 36.45, 63.35 6.3 M18.33 58.5 C35.07 38.3, 53.64 18.18, 63.33 6.82 M25.61 57.71 C30.53 47.42, 40.89 36.76, 63.52 13.18 M24.19 57.91 C35.41 45.44, 45.97 33.4, 61.78 13.87 M31.14 55.69 C38.13 48.03, 50.85 35.33, 64.3 17.93 M28.76 57 C42.66 42.6, 55.07 27.09, 62.21 18.39 M35.96 59.81 C44.73 48.12, 52.27 36.52, 63.98 26.04 M35.02 57.5 C43.27 46.27, 52.49 35.52, 62.49 25.69 M40.76 55.49 C47.11 49.4, 54.2 39.49, 63.57 32.08 M40.71 57.08 C48.53 48.46, 56.64 37.68, 62.87 30.9 M43.25 59.77 C51.43 52.66, 53.46 47.03, 62.91 37.53 M44.9 57.04 C49.91 51.8, 55.01 46.73, 63.54 37.72 M52.5 58.89 C53.91 52.36, 56.27 51.16, 64.37 43.16 M50.22 57.01 C55.11 52.23, 59.04 48.43, 63.04 44.67 M55.88 57.23 C58.89 54.47, 60.33 52.12, 61.99 50.15 M55.39 58.11 C58.36 54.97, 61.06 51.6, 63.19 48.94" stroke="#15aabf" stroke-width="0.5" fill="none"></path><path d="M0.48 1.03 C17.02 -0.78, 33.84 1.85, 63.2 0.04 M0 -0.26 C22.23 -0.14, 45.93 0.46, 61.68 -0.16 M62.18 -1.42 C60.36 15.44, 62.01 34.66, 62.99 53.7 M61.46 0.94 C63 13.7, 62.46 29.25, 62.13 55.67 M63.05 54.64 C42.12 56.9, 22.76 56.94, 1.54 56.01 M62.1 54.75 C46.17 53.87, 32.83 54.68, 0.34 55.36 M1.63 56.41 C-0.48 36.89, -0.34 22.71, -1.21 -1.49 M0.94 54.82 C-0.27 35.97, -0.75 17.42, -0.15 -0.8" stroke="#000000" stroke-width="1" fill="none"></path></g><g stroke-linecap="round" transform="translate(290.2596137633809 271.2266163427312) rotate(0 30.92578125 27.623046875)"><path d="M0 0 C0 0, 0 0, 0 0 M0 0 C0 0, 0 0, 0 0 M-0.5 6.05 C1.81 3.6, 4 1.91, 5.51 0.5 M-0.08 6.35 C1.08 5.01, 2.37 3.72, 4.99 0.7 M1.26 12.91 C2.74 8.4, 7.25 3.62, 10.24 -1.23 M0.29 11.49 C3.44 9.13, 6.83 3.97, 10.27 -0.33 M0.66 17.02 C5.35 14.41, 9.36 8.06, 16.33 1.81 M-0.46 18.37 C4.57 14.48, 7.95 9.06, 16.03 0.49 M1.77 23.8 C7.44 17.51, 11.37 10.78, 19.93 -0.46 M0.86 23.88 C6.48 15.81, 13.3 7.35, 20.33 -0.93 M-1.76 29.59 C7.52 25.65, 10.5 17.2, 25.25 -0.21 M-0.14 31.05 C7.28 21.09, 15.75 12.26, 27.22 -0.36 M-2.19 36.07 C7.25 28.08, 12.99 20.37, 30.81 -0.68 M-1.21 37.13 C13.63 22.45, 24.88 7.57, 31.13 -0.55 M0.3 44.03 C16.19 26.2, 27.49 11.47, 37.81 -1.15 M-0.69 41.64 C9.39 32.46, 17.55 23.68, 37.17 -0.36 M1.36 48.98 C18.69 31.71, 34.77 9.97, 43.03 0.3 M0.18 49.41 C14.76 32.25, 29.85 15.34, 43.05 -1.03 M0.72 55.17 C9.73 41.37, 22.68 32.21, 47.27 2.21 M0.53 55.19 C17.85 34.9, 33.8 15.76, 47.47 0.74 M1.26 59.88 C23 35.24, 40.43 15.68, 52.3 0.95 M2.82 57.49 C16.4 43.26, 28.6 28.1, 54.06 0.59 M8.7 56.81 C23.03 39.7, 39.52 21.5, 57.31 2.13 M7.58 58.42 C18.23 46.09, 27.77 35.37, 57.75 -0.61 M12.07 59.36 C25.68 39.89, 40.21 27.09, 63.17 -1.44 M13.75 58.6 C30.99 38.23, 49.87 16.31, 64.03 -0.22 M17.83 55.91 C31.51 43.57, 43.23 31.98, 62.22 8.69 M19.9 56.89 C34.49 41.17, 49.19 23.16, 62.74 6.08 M23.73 56.14 C33.75 45.43, 43.45 33.51, 62.43 13 M23.93 58.32 C34.62 45.73, 45.68 32.75, 63.13 13.29 M27.75 56.39 C42.97 45.73, 53.13 32, 61.94 20.7 M29.06 57.87 C40.95 44.43, 51.77 30.52, 62.4 19.24 M36.5 58.91 C44.2 46.93, 51.97 38.59, 63.39 26.01 M34.19 57.38 C43.44 45.91, 53.18 35.06, 63.04 25.46 M38.21 57.22 C46.26 50.24, 50.51 43.93, 64.19 32.22 M39.8 57.33 C45.79 51.23, 49.57 45.4, 63 30.74 M47.12 59.4 C51.87 49.51, 58.09 43.45, 62.97 36.99 M44.39 57.76 C51.2 50.65, 58.17 43.87, 63.16 36.96 M52.28 57.4 C51.69 53.8, 56.41 53.37, 61.95 44.34 M50.4 57.95 C54.59 52.9, 59.75 47.57, 63.46 44.64 M55.24 58.09 C58.23 53.82, 61.63 50.98, 63.68 50.07 M56.12 57.71 C57.49 56.11, 58.62 54.42, 62.48 49.45" stroke="#15aabf" stroke-width="0.5" fill="none"></path><path d="M1.03 -0.02 C23.66 -0.39, 50.79 1.2, 61.89 1.46 M-0.26 -0.83 C13.84 -0.2, 28.78 -0.17, 61.69 0.15 M60.43 -1.68 C59.7 18.45, 61.52 38.1, 60.3 54.38 M62.79 1 C61.85 18.52, 63.22 36.4, 62.27 55.31 M61.24 54.45 C44.4 54.41, 25.8 57.15, 0.77 54.06 M61.36 54.47 C48.23 56.17, 36.4 55.74, 0.11 55.28 M1.16 55.19 C-1.4 34.56, 1.16 12.51, -1.49 0.95 M-0.43 55.1 C-0.21 36.81, 0.44 19.49, -0.8 0.67" stroke="#000000" stroke-width="1" fill="none"></path></g><g stroke-linecap="round" transform="translate(291.848155430047 336.144151064952) rotate(0 30.92578125 27.623046875)"><path d="M0 0 C0 0, 0 0, 0 0 M0 0 C0 0, 0 0, 0 0 M-0.61 6.58 C0.11 5.74, 1.57 4.51, 5.13 -0.21 M-0.31 6.52 C1.16 4.94, 2.69 3.09, 5.33 0.7 M1 10.71 C5.07 6.57, 8.89 2.47, 9.44 0.04 M-0.41 12.23 C4.73 7.99, 7.08 2.83, 10.33 -0.56 M-1.54 20.12 C3.8 16.08, 5.44 10.5, 17.1 -0.44 M-0.2 19.16 C6.67 11.56, 12 5.09, 15.78 -0.16 M-0.01 25.91 C5.43 17.9, 10.42 9.58, 20.86 0.64 M0.07 23.3 C6.86 15.22, 13.22 7.54, 20.4 -0.89 M-0.88 32.41 C10.8 19.52, 17.95 8.96, 25.75 0.45 M0.57 29.66 C7.67 21.13, 15.92 13.58, 25.59 -0.56 M-1.06 37.47 C8.43 25.63, 18.21 14.13, 31.32 1.79 M0 37.71 C6.32 29.15, 12.49 21.58, 31.45 0.74 M1.65 44.11 C8.09 32.02, 17.62 24.97, 35.47 -1.18 M-0.74 43.25 C9.54 32, 20.26 20.45, 36.26 1.24 M-0.06 50.42 C12.15 37.82, 19.84 26.36, 42.96 0.71 M0.37 49.41 C14.7 32.9, 29.24 15.6, 41.63 -0.93 M0.88 54.03 C17.16 35.66, 38.07 12.67, 49.49 1.37 M0.9 54.98 C11.65 40.51, 23.59 27.57, 48.03 0.99 M4.58 58.78 C12.93 44.79, 26.34 32, 54.28 -0.92 M2.18 58.09 C15.29 43.06, 27.45 31.03, 53.92 -0.01 M7.55 56.42 C22.58 40.98, 36.47 24.49, 60.08 -1.75 M9.15 57.87 C27.75 35.51, 47.9 13.28, 57.34 -0.03 M14.72 56.31 C25.01 41.36, 42 26.44, 61.14 1.79 M13.96 57.15 C25.69 44.73, 35.84 32.56, 62.36 0.15 M17.3 59.08 C34.85 40.41, 53.1 18.7, 64.61 7.88 M18.29 58.05 C35.01 39.95, 49.41 22.73, 62 6.75 M22.17 57.32 C39.32 38.45, 55.32 22.2, 62.25 12.78 M24.34 57.64 C31.59 49.25, 38.45 40.54, 62.55 13.79 M28.45 59.27 C40.14 47.71, 48.79 35.72, 64.71 19.85 M29.93 57.64 C41.82 43.23, 53.21 29.24, 63.25 19.11 M35.6 58.53 C40.78 49.1, 49.64 41.99, 63.37 26.28 M34.06 57.04 C42.34 47.28, 51.25 38.53, 62.81 25.01 M39.95 57.7 C48.48 46.26, 57.72 38.95, 64.32 29.44 M40.06 57.76 C44.62 50.99, 49.46 46.24, 62.84 31.6 M46.75 58.12 C48.94 52.36, 54.93 46.76, 62.43 38.62 M45.11 57.34 C49.44 53.34, 54.11 48.76, 62.41 36.52 M50.79 55.72 C52.65 54.85, 57.69 50.61, 63.12 45.27 M51.34 56.64 C54.39 54, 57.15 51.59, 63.43 44.25 M56.11 57.76 C57.38 55.63, 60.1 52.35, 63.6 48.55 M55.73 57.94 C58.34 54.7, 60.84 51.67, 62.98 49.91" stroke="#15aabf" stroke-width="0.5" fill="none"></path><path d="M-0.02 -0.84 C17.78 1.48, 37.4 -0.28, 63.31 -1.37 M-0.83 -0.49 C14.93 0.28, 30.09 0, 62 0.35 M60.17 -1.97 C61.91 14.56, 63.08 27.86, 60.98 55.78 M62.85 -0.47 C62.09 22.14, 61.91 42.9, 61.91 55.26 M61.06 56.43 C37.37 56.28, 16.85 55.83, -1.18 53.33 M61.07 54.26 C48.01 54.77, 32.96 55.05, 0.03 56 M-0.06 53.63 C-0.37 41.77, -1.66 24.92, 0.95 0.45 M-0.15 55.16 C-1.15 38, -0.66 18.83, 0.67 -0.59" stroke="#000000" stroke-width="1" fill="none"></path></g><g transform="translate(411.05952695782435 355.2081701621746) rotate(0 175 12.5)"><text x="0" y="18" font-family="Virgil, Segoe UI Emoji" font-size="20px" fill="#000000" text-anchor="start" style="white-space: pre;" direction="ltr">VM_ENV_DATA_INDEX_ME_CREF</text></g><g stroke-linecap="round"><g transform="translate(323.4162977911583 365.39480210661986) rotate(0 38.390384649775115 0.2369334361833353)"><path d="M-0.5 -0.15 C12.28 0.15, 64.49 1.42, 77.28 1.75 M1.43 -1.27 C14.1 -1.31, 64.56 -0.15, 76.9 0.05" stroke="#000000" stroke-width="1" fill="none"></path></g><g transform="translate(323.4162977911583 365.39480210661986) rotate(0 38.390384649775115 0.2369334361833353)"><path d="M48.27 11.55 C59.83 6.5, 69.92 1.68, 75.79 0.05 M48.31 9.87 C56.2 7.07, 64.3 4.92, 76.56 0.21" stroke="#000000" stroke-width="1" fill="none"></path></g><g transform="translate(323.4162977911583 365.39480210661986) rotate(0 38.390384649775115 0.2369334361833353)"><path d="M48.67 -8.97 C60.09 -6.81, 70.04 -4.42, 75.79 0.05 M48.72 -10.65 C56.32 -7.83, 64.31 -4.36, 76.56 0.21" stroke="#000000" stroke-width="1" fill="none"></path></g></g><mask></mask><g transform="translate(414.3537977911583 285.9937604399529) rotate(0 170 12.5)"><text x="0" y="18" font-family="Virgil, Segoe UI Emoji" font-size="20px" fill="#000000" text-anchor="start" style="white-space: pre;" direction="ltr">VM_ENV_DATA_INDEX_SPECVAL</text></g><g stroke-linecap="round"><g transform="translate(322.5525825133791 300.2472326621755) rotate(0 42.07077729645425 -0.25792262707818736)"><path d="M1.08 0.81 C15.15 0.89, 70.29 0.66, 83.96 0.32 M0.18 0.19 C14.15 -0.05, 68.79 -1.27, 83.02 -1.34" stroke="#000000" stroke-width="1" fill="none"></path></g><g transform="translate(322.5525825133791 300.2472326621755) rotate(0 42.07077729645425 -0.25792262707818736)"><path d="M56.33 9.37 C63.7 4.96, 68.37 3.58, 82.5 -3 M54.81 9.18 C62.2 6.96, 68.76 4.1, 82.31 -2.18" stroke="#000000" stroke-width="1" fill="none"></path></g><g transform="translate(322.5525825133791 300.2472326621755) rotate(0 42.07077729645425 -0.25792262707818736)"><path d="M56.03 -11.15 C63.45 -10.26, 68.2 -6.35, 82.5 -3 M54.51 -11.34 C61.93 -8.4, 68.57 -6.11, 82.31 -2.18" stroke="#000000" stroke-width="1" fill="none"></path></g></g><mask></mask><g transform="translate(415.3694227911583 224.83490627328683) rotate(0 159 12.5)"><text x="0" y="18" font-family="Virgil, Segoe UI Emoji" font-size="20px" fill="#000000" text-anchor="start" style="white-space: pre;" direction="ltr">VM_ENV_DATA_INDEX_FLAGS</text></g><g stroke-linecap="round"><g transform="translate(322.13157556893566 238.36789238439724) rotate(0 44.15247190944251 -0.26207091444985053)"><path d="M0.02 0.88 C14.42 0.51, 72.74 -1.08, 87.45 -1.4 M-1.42 0.29 C13.26 0, 74.91 -0.18, 89.73 -0.21" stroke="#000000" stroke-width="1" fill="none"></path></g><g transform="translate(322.13157556893566 238.36789238439724) rotate(0 44.15247190944251 -0.26207091444985053)"><path d="M63.03 8.76 C71.37 6.1, 82.93 0.4, 88.76 -0.61 M61.72 10.47 C70.03 7.11, 78.45 2.88, 88.75 -0.23" stroke="#000000" stroke-width="1" fill="none"></path></g><g transform="translate(322.13157556893566 238.36789238439724) rotate(0 44.15247190944251 -0.26207091444985053)"><path d="M62.97 -11.76 C71.47 -6.42, 83.05 -4.13, 88.76 -0.61 M61.66 -10.05 C69.96 -7.01, 78.39 -4.84, 88.75 -0.23" stroke="#000000" stroke-width="1" fill="none"></path></g></g><mask></mask><g stroke-linecap="round"><g transform="translate(218.87636723560172 390.98073960661986) rotate(0 33.124225439627935 -60.87165813760248)"><path d="M0.88 -0.82 C11.41 -21.34, 53.43 -102.56, 64.01 -123.11 M-0.12 1.36 C10.73 -18.95, 55.78 -100.79, 66.37 -121.57" stroke="#000000" stroke-width="1" fill="none"></path></g><g transform="translate(218.87636723560172 390.98073960661986) rotate(0 33.124225439627935 -60.87165813760248)"><path d="M60.81 -92.97 C63.72 -103.32, 63.59 -114.69, 65.97 -121.33 M62.52 -92.2 C63.57 -100.98, 63.75 -109.65, 66.36 -121.64" stroke="#000000" stroke-width="1" fill="none"></path></g><g transform="translate(218.87636723560172 390.98073960661986) rotate(0 33.124225439627935 -60.87165813760248)"><path d="M42.7 -102.62 C52.26 -109.56, 58.78 -117.38, 65.97 -121.33 M44.41 -101.85 C50.57 -107.93, 55.87 -113.87, 66.36 -121.64" stroke="#000000" stroke-width="1" fill="none"></path></g></g><mask></mask><g stroke-linecap="round"><g transform="translate(218.36855473560172 357.54323960661986) rotate(0 31.22865098139505 -137.9189304045642)"><path d="M-0.82 -0.66 C9.72 -47.05, 52.76 -231.26, 63.28 -277.44 M0.95 1.6 C11.33 -44.68, 51.72 -229.68, 62.33 -276.07" stroke="#000000" stroke-width="1" fill="none"></path></g><g transform="translate(218.36855473560172 357.54323960661986) rotate(0 31.22865098139505 -137.9189304045642)"><path d="M65.11 -246.31 C64.3 -256.99, 62.68 -264.71, 62.57 -276.41 M65.88 -246.15 C64.35 -255.6, 62.98 -263.22, 62.26 -275.5" stroke="#000000" stroke-width="1" fill="none"></path></g><g transform="translate(218.36855473560172 357.54323960661986) rotate(0 31.22865098139505 -137.9189304045642)"><path d="M45.08 -250.77 C50.35 -259.97, 54.77 -266.34, 62.57 -276.41 M45.85 -250.62 C50.02 -258.86, 54.34 -265.22, 62.26 -275.5" stroke="#000000" stroke-width="1" fill="none"></path></g></g><mask></mask><g stroke-linecap="round" transform="translate(440.65154084670576 398.220322939952) rotate(0 162.79730902777783 115.37760416666652)"><path d="M0 0 C0 0, 0 0, 0 0 M0 0 C0 0, 0 0, 0 0 M-0.04 6.75 C1.35 4.74, 3.14 3, 5.2 0.37 M0.03 6.68 C1.93 3.69, 4.01 1.48, 5.22 0.26 M0.58 12.36 C1.4 9.62, 6.45 7.3, 9.26 -0.76 M0.61 12.36 C2.4 9.61, 5.85 6.56, 9.91 0.25 M-0.66 17.77 C5.69 12.98, 13.22 4.71, 15.76 1.15 M-0.42 19.19 C4.81 13.66, 9.65 7.25, 15 -0.34 M-1.63 25.28 C5.66 15.7, 11.21 8.51, 19.8 -1.93 M-0.54 23.2 C4.52 19.78, 10.22 13.24, 21.09 -0.57 M1.34 30.19 C8.33 20.55, 14.58 13.03, 27.34 2.24 M0.11 29.51 C6.01 23.71, 12.16 16.05, 25.95 -0.25 M1.49 34.96 C8.63 28.82, 17.73 15.91, 32.23 -1.62 M-0.17 36.96 C8.41 28.47, 15.86 17.6, 32.63 0.36 M1.47 40.86 C7.12 34.39, 16.97 24.25, 38.28 0.84 M-0.81 43.26 C8.52 33.43, 18.22 22.9, 36.74 0.51 M-0.96 49.53 C14.38 33.92, 27.04 19.09, 42.22 0.91 M-0.32 49.14 C9.56 37.95, 17.61 28.87, 43.31 -0.26 M1.37 55.08 C20.08 33.95, 37.7 10.39, 48.1 0.15 M-0.01 53.87 C17.44 36.24, 32.63 16.32, 48.22 -0.2 M-0.53 61.34 C18.27 39.8, 39 15.88, 54.26 1.65 M-0.61 61.17 C19.56 37.48, 39.92 14.83, 53.11 -0.58 M-1.51 65.96 C25.34 40.84, 46.53 12.99, 59.75 -0.58 M0 66.76 C13.49 51.89, 24.66 37.42, 58.76 0.21 M-0.61 73.98 C13.85 57.27, 27.04 44.23, 63.3 1.61 M-0.5 72.46 C13.83 56.94, 28.3 40.75, 64.02 -0.53 M-1.28 81.38 C24.94 49.53, 54.72 17.75, 69.69 -0.09 M0.74 79.32 C13.9 61.5, 29.67 43.99, 69.23 0.07 M0.86 85.11 C22.36 61.22, 42.56 38.21, 72.77 0.81 M1.08 84.15 C21.18 61.03, 44.45 35.23, 75.06 -0.77 M-1.54 90.49 C31 56.07, 60.63 19.54, 77.82 -1.07 M0.73 92.43 C26.25 62.49, 51.24 32.28, 80.02 0.45 M0.75 97.17 C26.67 63.68, 54.68 31.17, 84.55 0.33 M0.05 96.86 C26.26 67.13, 52.52 36.05, 85.26 0.25 M1.23 102.75 C33.08 67.72, 65.12 27.96, 89.51 -0.18 M-0.8 104.46 C24.7 75.91, 47.66 47.84, 90.05 0.14 M-0.62 108.35 C25.77 78.98, 52.74 49.53, 97.02 0.27 M0.83 110.7 C25.19 81.72, 49.14 55, 96.65 -0.68 M-1 114.63 C33.56 76.37, 66.67 39.89, 101.61 1.94 M0.36 115.03 C39.28 69.67, 77.26 25.34, 99.74 0.67 M-1.43 123.15 C38.53 78.84, 76.73 33.93, 106.99 -2.24 M-0.63 122.77 C30.83 84.33, 61.85 48.03, 107.3 -0.54 M1.58 128.4 C31.11 95.77, 56.66 62.09, 112.44 -1.31 M-0.18 128.71 C40 83.69, 77.35 39.5, 112.03 -0.69 M-1.76 135.35 C48.48 80.23, 91.06 28, 115.12 1.72 M0.8 133.15 C31.55 96.59, 63.53 59.98, 115.62 -0.31 M1.2 139.07 C48.46 86.8, 96.39 30.28, 123.77 -0.51 M0.15 141.07 C27.82 108.5, 56.18 76.21, 121.38 0.07 M1.82 146.73 C43.84 98.84, 84.61 49.36, 126.47 -0.17 M-0.24 146.65 C49.65 87.67, 99.74 30.43, 126 0.99 M-1.25 152.91 C34.67 108.92, 70.49 69.02, 131.04 -0.18 M-0.03 152.2 C33.61 115.64, 66.27 76.99, 132.74 0.6 M1.31 158.01 C43.26 110.75, 86.09 62.77, 136.74 0.98 M0.64 158.6 C46.99 102.43, 95.28 46.5, 137.87 -0.1 M-0.29 162.93 C47.46 107.62, 96.88 52.98, 144.27 -0.77 M-0.37 164.54 C33.34 128.02, 67.29 89, 142.72 -0.37 M-0.88 171.16 C54.1 108.67, 108.63 47.7, 148.29 -1.08 M-0.2 170.71 C56.74 104.04, 114.78 38.13, 147.57 0.22 M0.6 177.68 C60.49 109.08, 117.25 45.89, 152.85 -0.89 M1.08 176.91 C52.13 114.8, 104.74 53.42, 154.03 -0.84 M-0.5 181.58 C52.91 121.49, 103.23 60.17, 160.36 0.87 M-0.52 182.79 C40.53 138.25, 80.82 92.06, 157.97 -0.55 M-1.85 188.23 C32.58 151.26, 65.5 112.83, 163.46 0.71 M-0.32 190.06 C58.82 122.22, 119.4 53.87, 163.69 -0.09 M0.05 194.28 C59.28 126.35, 118.75 59.25, 170.99 1.08 M0.2 194.64 C39.18 150.85, 78.55 105.69, 169.93 0.44 M-0.34 201.17 C68.83 120.26, 139.47 40.53, 173.63 0.35 M-0.43 201.1 C66.45 123.81, 135.6 46.48, 175.84 -0.86 M-0.23 205.93 C65.54 129.23, 134.35 52.96, 178.86 -0.01 M-0.29 207.44 C56.75 142.16, 113.43 77.41, 180.33 0.44 M0.91 214.48 C38.76 170.46, 74.1 128.96, 186.93 0.99 M0.33 213.56 C65.77 138.66, 130.8 63.64, 186.08 -0.42 M-0.25 220.35 C46.71 167.72, 95.33 114.27, 190.68 -1.24 M-0.48 220.5 C47.6 163.73, 96.78 107.91, 190.95 0.22 M0.59 226.44 C76.69 139.49, 151.05 51.44, 195.71 0.8 M0.66 225.62 C60.12 155.97, 120.14 87.32, 196.85 -0.97 M1.64 230.76 C42.57 184.35, 83.1 135.67, 201.01 0.61 M0.97 231.59 C54.18 168.92, 110.03 105.09, 201.2 -0.11 M6.02 231.74 C85.79 138.72, 167.19 45.38, 207.2 1.07 M5.41 231.97 C69.33 157.41, 133.97 83.1, 207.1 0.33 M10.51 231.86 C50.97 183.57, 92.66 138.41, 212.5 0.66 M11.71 231.43 C86.52 145.89, 160.72 60.82, 211.96 -0.29 M15.11 231.67 C59.24 182.91, 102.68 131.58, 217.71 -1.31 M15.6 232.01 C95.14 140.89, 174.29 49.62, 217.62 0.29 M22.76 232.11 C100.93 140.92, 178.5 51.17, 222.23 -0.69 M21.38 231.61 C62.83 182.47, 106.38 132.67, 221.93 -0.6 M26.66 229.98 C83.72 166.39, 139.5 99.35, 229.02 -0.75 M26.29 230.63 C97.66 150.42, 167.78 67.56, 228.84 -0.82 M32.65 231.6 C74.89 180.32, 118.27 128.85, 231.98 0.54 M32.01 231.54 C84.27 174.19, 134.05 116.39, 232.75 0.27 M37.83 230.92 C112.43 146.3, 188.14 55.83, 237.55 -1.01 M37.77 231.18 C105.8 153.51, 172.92 75.87, 238.05 0.7 M44.23 231.87 C110.41 152.59, 180.85 72.09, 243.86 -1.06 M43.11 230.42 C83.36 182.74, 124.62 136.22, 243.88 0.22 M49.02 232.26 C118.38 150.97, 187.88 68.76, 249.97 0.6 M48.22 230.71 C109.97 159.41, 172.96 87.06, 248.45 1.02 M52.44 231.62 C116.55 160.73, 178.2 89.6, 253.09 -1.44 M53.84 230.85 C126.2 146.64, 198.61 64.09, 254.8 0.18 M59.53 232.51 C139.58 138.42, 216.61 45.57, 260.45 -1.07 M58.68 230.73 C133.05 146.23, 207.43 59.43, 258.79 -0.13 M64.9 231 C122.1 167.39, 177.94 101.39, 263.92 -0.19 M63.71 230.94 C122.18 164.8, 180.89 97.55, 265.71 0.54 M68.97 232.38 C139.57 151.24, 208.7 69.45, 269.26 -0.32 M69.51 230.77 C117.54 176.06, 165.46 122.35, 269.55 -0.4 M74.33 230.17 C140.13 159.37, 201.36 85.21, 276.58 1 M74.8 230.74 C141.02 155.16, 207.18 79.27, 275.4 0.43 M78.77 230.43 C123.17 183.98, 165.17 134.01, 280.6 1.31 M79.62 230.55 C149.47 153.51, 217.41 75.2, 280.15 -0.49 M85.47 231.53 C136.12 168.46, 189.03 108.72, 285.86 -0.3 M84.57 230.91 C143.15 164.86, 202.4 97.11, 286.26 -0.16 M90.67 230.29 C138.06 177.47, 184.01 123.17, 292.51 -0.56 M90.09 230.65 C159.18 152.63, 227.47 73.72, 291.11 0.87 M95.94 232.36 C151.2 165.2, 212.1 96.93, 297.02 0.03 M94.95 231.76 C169.88 147.92, 243.52 63.4, 296.38 0.39 M102.43 230.58 C143.21 183.29, 185.2 134.51, 301.18 -0.18 M100.59 230.39 C148.4 177.98, 195.77 125.53, 301.84 0.41 M105.37 230.75 C177.91 148.84, 251.68 65.47, 306.98 -0.37 M106.33 231.4 C146.37 184.57, 187.09 136.81, 307.45 0.27 M112.13 232.09 C190.17 144.46, 266.89 54.9, 314.01 -0.44 M111.51 231.42 C153.45 182.76, 195.74 134.15, 312.9 -0.27 M116.52 232.75 C183.91 153.97, 250.44 76.02, 317.32 -0.24 M116.47 231.99 C165.18 172.98, 213.66 116.83, 318.3 -0.73 M122.56 230.56 C198.26 146.45, 271.35 62.67, 322.1 0.12 M121.8 231.24 C169.14 179.12, 213.55 127.77, 323.74 0.25 M127.46 231.42 C186.04 167.4, 241.19 101.33, 328.68 2.51 M127.87 231.22 C207.27 141.02, 286.74 49.83, 327.17 1.02 M133.93 229.72 C175.17 182.18, 216.3 137.38, 326.95 7.63 M132.6 231.11 C176.18 182.89, 218.43 134.8, 326.9 7.12 M138.79 231.41 C206.36 151.71, 274.26 72.06, 327.57 13.17 M138.33 231.62 C199.52 160.34, 261.88 88.4, 326.53 13.27 M142.34 231.25 C203.42 164.88, 259.77 96.58, 328.84 19.1 M143.62 231.03 C193.32 175.23, 241.58 118.18, 327.4 19.05 M149.19 230.06 C212.69 159.76, 274.09 85.79, 328.61 26.19 M148.89 231.14 C185.22 188.6, 223.45 146.14, 327.24 25.75 M153.21 230.03 C214.62 159.72, 275.37 92.64, 328.73 33.23 M153.81 230.38 C202.16 173.32, 252.29 117.28, 326.78 30.92 M159.94 230.86 C211.93 169.18, 264.83 107.91, 328.13 37.74 M158.77 231.29 C219.12 163.16, 278.97 95.59, 327.45 38.24 M164.91 230.9 C214.96 174.15, 263.52 117.51, 327.03 42.94 M165.22 230.32 C212.41 175.5, 259.95 121.75, 326.98 44.19 M170.41 232.79 C222.59 170.42, 274.26 112.61, 326.43 51.74 M170.81 231.87 C228.32 163.72, 286.18 97.54, 326.64 50.63 M175.99 231.79 C211.16 188.88, 249.85 144.87, 325.84 54.83 M175.97 231.48 C228.5 171.35, 278.96 112.45, 326.78 57.13 M179.41 231.27 C235.16 170.54, 285.16 109.61, 325.99 63.23 M180.94 231.59 C211.3 194.96, 244 157.29, 327.71 63.01 M186.93 231.22 C245.23 163.35, 301.26 99.32, 326.67 70.14 M185.69 231.31 C240.48 167.91, 295.76 103.7, 326.6 68.2 M190.48 230.04 C242.01 171.82, 294.52 111.86, 325.84 73.58 M192.11 230.51 C240.46 172.88, 288.57 116.7, 327.04 75.57 M194.93 230.19 C225.93 198.51, 252.44 164.47, 327.95 82.37 M196.66 231.71 C229.93 190.99, 262.65 152.34, 327.19 80.95 M203.57 229.57 C233.4 189.75, 270.76 150.12, 325.34 86.57 M201.69 231.24 C226.86 200.62, 254.06 169.29, 326.23 86.3 M206.68 231.86 C243.1 190.81, 277.99 148.41, 329.15 92.8 M207.22 231.74 C236.06 197.95, 266.28 163.14, 328.16 93.48 M211.86 232.93 C245.96 190.02, 285.97 145.86, 326.47 100.69 M212.99 230.72 C242.85 195.32, 271.64 161.13, 328.14 98.67 M215.64 232.18 C253.46 191.38, 289.59 147.52, 328.43 104.72 M218.3 231.6 C250.55 192.59, 283.96 155.1, 327.66 105.05 M223.77 230.66 C253.38 195.66, 283.72 161.68, 325.96 109.82 M223.2 230.25 C262.14 184.6, 302.83 140.35, 328.31 111.83 M227.66 230.34 C259.6 195.07, 291.91 155.23, 327.48 116.95 M228.95 231.91 C257.82 195.6, 287.09 161.61, 326.4 118.45 M233.31 231.47 C265.86 192.4, 299.93 151.99, 329.18 123.08 M233.9 230.94 C264.06 197.91, 294.09 162.6, 327.27 124.06 M237.75 231.83 C269.45 197.08, 298.98 160.81, 325.49 130.61 M237.9 231.76 C268.95 197.65, 297.91 164.04, 326.66 129.47 M245.96 232.1 C264.86 210.57, 281.48 187.41, 327.3 135.35 M244.22 230.63 C274.77 196.72, 306.65 160.89, 326.94 136.65 M251.34 231.15 C265.63 210.95, 282.4 192.29, 327.76 140.11 M249.91 230.51 C281.8 195.28, 311.4 159.19, 327.86 140.87 M256.64 231.33 C283.47 200.02, 307.99 170.22, 325.93 146.28 M255.77 230.9 C279.34 204.15, 303.37 176.77, 328.19 147.83 M258.37 229.83 C274.66 216.06, 288.76 198.79, 327.09 151.86 M260.72 230.71 C283.33 205.68, 306.63 179.36, 326.98 154.16 M263.77 231.95 C286.07 203.75, 310.85 178.82, 327.18 158.81 M265.71 230.06 C288.41 204.56, 311.52 177.44, 327.96 160.36 M271.22 230.45 C289.93 209.46, 310.64 183.8, 325.07 167.09 M270.13 231.17 C288.72 211.42, 305.49 189.82, 326.82 167.33 M275.22 230.81 C287.91 217.33, 299.52 203.25, 326.29 170.19 M275.7 230.16 C293.19 211.97, 309.19 193.03, 326.85 171.47 M282.77 230.61 C294.28 212.88, 310.6 197.51, 328.73 176.77 M280.91 231.94 C296.87 213.96, 310.76 197.8, 327.68 178.83 M286.34 232.77 C304.42 213.33, 317.6 193.47, 328.96 182.65 M286.9 229.99 C303.11 213.08, 318.37 195.38, 327.49 184.61 M292.32 232.93 C303.52 217.59, 313.9 204.93, 328.61 192.18 M291.88 231.28 C300.62 221.8, 308.02 211.01, 326.42 191.12 M297.94 232.71 C303.67 224.22, 309.49 215.67, 328.7 198.25 M297.02 230.06 C305.1 222.47, 311.21 213.2, 326.84 197.25 M303.7 231.08 C308.53 222.33, 315.8 214.37, 327.36 203.87 M302.86 230.71 C307.5 223.82, 314.73 217, 328.04 202.64 M306.31 229.59 C313.58 227.5, 316.27 219.89, 327.48 209.78 M307.25 231.62 C315.75 222.59, 322.06 216.23, 327.89 208.79 M315.15 231.75 C320.52 222.85, 323.1 218.41, 329.1 216.44 M313.69 231.97 C318.55 226.76, 322.78 221.18, 328.09 213.57 M317.02 232.62 C320.55 228.29, 322.36 227.29, 326.23 219.84 M318.51 232.14 C319.9 229.13, 323 225.98, 326.84 220.4 M324.2 231.51 C325.15 229.67, 326.12 228.68, 327.5 227.32 M323.65 231.35 C324.31 230.28, 325.05 229.32, 327.05 227.4" stroke="#15aabf" stroke-width="0.5" fill="none"></path><path d="M0.01 -0.36 C120.27 0.57, 242.57 1.41, 325.36 -0.22 M0.11 -0.49 C101.98 0.08, 205.11 0.71, 325.99 -0.53 M324.92 1.59 C327.81 58.4, 326.89 119.94, 326.06 231.47 M326.1 -0.26 C325.28 71.17, 325.11 141.85, 326.25 231.08 M325.94 230.07 C246.1 227.96, 169.83 229.08, 0.48 230.91 M326.16 231.16 C226.92 229.32, 128.32 230.2, -0.42 230.24 M1.59 230.03 C-0.69 150.44, -1.51 71.36, -0.25 -1.35 M-0.79 231.54 C1.05 145.59, 0.97 60.84, 0.4 -0.58" stroke="#000000" stroke-width="1" fill="none"></path></g><g stroke-linecap="round"><g transform="translate(324.24963112448313 368.57622571772936) rotate(0 54.82770159556003 21.80195303240589)"><path d="M-0.52 -1.67 C24.42 10.01, 51.28 20.49, 110.37 45.27 M-0.71 -0.84 C35.9 14.85, 73.84 30.47, 109.91 44.54" stroke="#000000" stroke-width="1" fill="none"></path></g><g transform="translate(324.24963112448313 368.57622571772936) rotate(0 54.82770159556003 21.80195303240589)"><path d="M79.4 42.02 C85.89 43.48, 94.05 43.73, 109.59 44.84 M79.21 42.84 C88.97 43.9, 99.91 44.77, 109.14 44.1" stroke="#000000" stroke-width="1" fill="none"></path></g><g transform="translate(324.24963112448313 368.57622571772936) rotate(0 54.82770159556003 21.80195303240589)"><path d="M86.97 22.94 C91.6 28.82, 98.01 33.5, 109.59 44.84 M86.77 23.77 C93.94 31.22, 102.35 38.47, 109.14 44.1" stroke="#000000" stroke-width="1" fill="none"></path></g></g><mask></mask><g stroke-linecap="round" transform="translate(447.27480473559444 403.2507048843954) rotate(0 156.9140625 17.5)"><path d="M-1.02 0.93 L312 -1.53 L313.75 36.45 L-0.96 33.03" stroke="none" stroke-width="0" fill="#ffffff"></path><path d="M-1.18 -0.69 C76.48 0.75, 153.29 0.35, 314.04 0.49 M-0.6 -0.7 C83.51 1.54, 167.45 1.04, 313.52 0.19 M315.82 -0.94 C314.6 15.25, 314.24 27.75, 313.95 35.03 M313.43 0.59 C313.43 13.78, 314.81 26.72, 313.24 34.04 M312.72 33.6 C240.76 33.65, 166 34.06, 0.04 36.08 M313.81 34.43 C231.95 36.63, 149.59 35.77, 0.34 35.16 M-0.3 34.83 C-1.59 24.84, -0.62 10.84, 1.34 -1.18 M-0.12 34.38 C0.11 23.01, 0.8 11.87, -0.14 0.65" stroke="#000000" stroke-width="1" fill="none"></path></g><g transform="translate(578.6888672355963 408.2507048843954) rotate(0 25.5 12.5)"><text x="25.5" y="18" font-family="Virgil, Segoe UI Emoji" font-size="20px" fill="#000000" text-anchor="middle" style="white-space: pre;" direction="ltr">flags</text></g><g stroke-linecap="round" transform="translate(446.6150825133718 449.5397673843954) rotate(0 156.9140625 17.5)"><path d="M-1.83 -1.53 L313.75 1.45 L312.87 33.03 L1.41 36.02" stroke="none" stroke-width="0" fill="#ffffff"></path><path d="M-0.29 0.17 C85.74 0.86, 172.19 1.58, 313.35 0.23 M-0.01 -0.05 C72.2 1.64, 143.29 2.38, 314.43 -0.28 M314.74 1.8 C314.73 14.63, 314.3 27.6, 315.35 36.2 M313.22 0.61 C314.46 9.82, 313.1 17.92, 313.19 35.25 M314.92 34.75 C235.63 32.96, 156.5 33.88, -0.55 36.15 M313.86 35.33 C201 32.67, 89.36 33.36, 0.16 35.66 M-1.26 36.12 C-0.24 24.39, 1.39 15.79, 0.42 -1.86 M-0.22 34.24 C0.52 20.57, -0.1 8.15, -0.51 0.46" stroke="#000000" stroke-width="1" fill="none"></path></g><g transform="translate(544.5291450133736 454.5397673843954) rotate(0 59 12.5)"><text x="59" y="18" font-family="Virgil, Segoe UI Emoji" font-size="20px" fill="#000000" text-anchor="middle" style="white-space: pre;" direction="ltr">cref_or_me</text></g><g stroke-linecap="round" transform="translate(447.01438806892656 496.8661562732841) rotate(0 156.9140625 17.5)"><path d="M-0.08 1.45 L312.87 -1.97 L315.24 36.02 L0.97 33.02" stroke="none" stroke-width="0" fill="#ffffff"></path><path d="M-0.24 -0.23 C79.07 0.22, 157.23 -0.03, 312.82 -1.19 M0.4 -0.55 C62.98 0.35, 127.18 -0.12, 314.49 0.71 M314.38 0.85 C314.11 8.87, 315.51 18.9, 313.22 34.21 M314.6 0.38 C313.02 11.61, 312.98 25.38, 313.34 34.22 M314.32 35.16 C250.65 35.69, 186.83 35.76, 0.83 34.96 M313.4 34.47 C245.35 36.21, 176.36 36.71, -0.3 34.89 M-0.29 33.4 C1.56 23.61, 0.64 12.72, 1.86 -0.25 M0.48 34.32 C-0.07 27.32, -0.43 18.8, -0.92 -0.77" stroke="#000000" stroke-width="1" fill="none"></path></g><g transform="translate(567.4284505689302 501.8661562732841) rotate(0 36.5 12.5)"><text x="36.5" y="18" font-family="Virgil, Segoe UI Emoji" font-size="20px" fill="#000000" text-anchor="middle" style="white-space: pre;" direction="ltr">lastline</text></g><g stroke-linecap="round" transform="translate(446.12463112448313 543.871364606618) rotate(0 156.9140625 17.5)"><path d="M-0.96 -1.97 L315.24 1.02 L314.79 33.02 L-1.4 34.41" stroke="none" stroke-width="0" fill="#ffffff"></path><path d="M0.21 0.49 C97.43 0.59, 194.82 -0.84, 312.43 -0.02 M-0.31 0.19 C92.48 1.45, 184.43 2.43, 313.49 0.32 M313.95 0.03 C315.45 14.85, 313.32 26.51, 315.01 33.79 M313.24 -0.96 C313.46 12.88, 313.6 24.49, 312.84 35.77 M313.87 36.08 C224.63 36.41, 137.38 35.21, -1.15 35.05 M314.16 35.16 C205.09 34, 95.72 33.23, -0.06 34.55 M1.34 33.82 C0.47 20.69, 1.91 9.84, -1.24 -0.44 M-0.14 35.65 C-0.68 27.64, -1.08 18.59, -0.04 0.73" stroke="#000000" stroke-width="1" fill="none"></path></g><g transform="translate(565.538693624485 548.871364606618) rotate(0 37.5 12.5)"><text x="37.5" y="18" font-family="Virgil, Segoe UI Emoji" font-size="20px" fill="#000000" text-anchor="middle" style="white-space: pre;" direction="ltr">backref</text></g><g stroke-linecap="round" transform="translate(444.38417973559444 586.0632048843972) rotate(0 156.9140625 17.5)"><path d="M1.41 1.02 L314.79 -1.98 L312.43 34.41 L-0.88 35.46" stroke="none" stroke-width="0" fill="#ffffff"></path><path d="M-0.48 0.23 C88.14 -1.97, 176.91 -0.79, 313.73 0.81 M0.6 -0.28 C70.51 0.11, 139.35 -0.28, 314.47 0.2 M315.35 1.2 C313.24 11.19, 315.03 22.75, 315.05 36.54 M313.19 0.25 C313.13 11.06, 312.64 24.46, 313.65 35.34 M313.27 36.15 C216.98 36.65, 117.32 36.74, 0.67 34.14 M313.99 35.66 C242.82 35.39, 172.36 35.05, 0.4 34.9 M0.42 33.14 C1.62 27.05, -1.47 19.15, -1.53 0.95 M-0.51 35.46 C-0.87 26.11, 0.01 19.47, -0.48 -0.99" stroke="#000000" stroke-width="1" fill="none"></path></g><g transform="translate(568.7982422355963 591.0632048843972) rotate(0 32.5 12.5)"><text x="32.5" y="18" font-family="Virgil, Segoe UI Emoji" font-size="20px" fill="#000000" text-anchor="middle" style="white-space: pre;" direction="ltr">others</text></g><g stroke-linecap="round" transform="translate(289.99243709001894 18.06697570608776) rotate(0 30.92578125 27.623046875)"><path d="M0.98 1.55 C18.45 -1.5, 35.1 0.53, 63.72 1.17 M0.95 -0.55 C11.71 0.16, 25.75 -0.39, 62 0.19 M61.39 -1.46 C61.84 19.77, 63.73 38.81, 63.85 57.13 M61.16 -0.08 C61.33 17.44, 62.48 34.6, 62.09 54.57 M61.48 57.19 C41.88 56.56, 20.31 52.82, -1.61 55.14 M62.62 55.29 C47.62 54.32, 35.36 54.85, 1 54.41 M-1.03 55.87 C0.48 35.56, -1.17 17.74, -1.77 -1.89 M0.79 54.53 C-0.41 36.79, -1.18 20.24, 0.83 -0.78" stroke="#000000" stroke-width="1" fill="none"></path></g><g stroke-linecap="round"><g transform="translate(765.436447506685 513.8888073033104) rotate(0 -182.18598728838356 -199.52439340297815)"><path d="M1.79 0.1 C14.28 -11.11, 25.4 -21.2, 44.12 -37.14 M0.32 -0.37 C11.44 -8.46, 21.94 -18.33, 44.6 -35.66 M46.01 -35.23 C43.93 -112.34, 43.23 -188.04, 44.69 -371.41 M44.58 -36.1 C45.54 -124.22, 45.09 -212.41, 43.45 -371.12 M44.14 -371.16 C-101.04 -382.24, -246.55 -390.27, -410.38 -399.15 M43.71 -371.06 C-64.97 -376.18, -172.73 -383.03, -409.39 -398.91" stroke="#000000" stroke-width="1" fill="none"></path></g><g transform="translate(765.436447506685 513.8888073033104) rotate(0 -182.18598728838356 -199.52439340297815)"><path d="M-378.79 -407.18 C-387.64 -405, -398.14 -401.9, -410.13 -399.49 M-380.26 -407.65 C-387.45 -404.75, -395.65 -403.21, -409.65 -398.01" stroke="#000000" stroke-width="1" fill="none"></path></g><g transform="translate(765.436447506685 513.8888073033104) rotate(0 -182.18598728838356 -199.52439340297815)"><path d="M-380.15 -386.71 C-388.73 -390.53, -398.83 -393.45, -410.13 -399.49 M-381.62 -387.17 C-388.64 -389.46, -396.49 -393.12, -409.65 -398.01" stroke="#000000" stroke-width="1" fill="none"></path></g></g><mask></mask></svg>