<svg version="1.1" xmlns="http://www.w3.org/2000/svg" viewBox="0 0 676.9626007629938 219.88671875" width="676.9626007629938" height="219.88671875">
  <!-- svg-source:excalidraw -->
  
  <defs>
    <style class="style-fonts">
      @font-face {
        font-family: "Virgil";
        src: url("https://excalidraw.com/Virgil.woff2");
      }
      @font-face {
        font-family: "Cascadia";
        src: url("https://excalidraw.com/Cascadia.woff2");
      }
    </style>
  </defs>
  <rect x="0" y="0" width="676.9626007629938" height="219.88671875" fill="#ffffff"></rect><g stroke-linecap="round" transform="translate(88.60560341176841 149.015625) rotate(0 30.92578125 27.623046875)"><path d="M0 0 C0 0, 0 0, 0 0 M0 0 C0 0, 0 0, 0 0 M-0.12 5.98 C1.49 5.29, 3.49 2.37, 4.92 1.02 M-0.23 6.45 C1.46 4.73, 2.83 3.03, 4.69 0.43 M0.18 12.14 C1.82 10.3, 4.65 7.65, 9.03 -0.45 M0.77 12.81 C3.53 7.06, 7.8 2.72, 10.69 -0.75 M-1.92 17.68 C6.54 11.79, 9.69 7.28, 15.31 2.29 M-0.95 17.98 C6.47 11.19, 11.97 4.68, 14.93 0.6 M0.79 25.41 C5.52 18.11, 9.67 10.61, 20.66 -1.04 M-0.08 23.38 C7.01 14.67, 15.87 5.68, 20.66 -0.02 M0.98 29.06 C7.41 23.69, 11.6 15.93, 27.17 -0.06 M0.51 30.31 C9.51 18.39, 20.47 8.08, 25.78 -0.19 M0.1 37.62 C9.39 26.03, 22.45 11.45, 33.85 0.25 M-0.18 37.09 C12.86 22.01, 25.64 9.39, 32.88 0.66 M-1 42.12 C16.69 27.61, 29.04 11.01, 37.55 -0.13 M0.16 41.81 C7.64 34.32, 14.82 23.63, 36.18 0.42 M-1.52 48.32 C8.74 37.85, 21.33 25.95, 42.71 -1.84 M-0.63 49.84 C14.01 32.57, 28.92 16.24, 41.97 0.54 M0.5 55.83 C11.85 40.31, 25.32 23.94, 46.76 -1.66 M0.65 54.86 C15.21 37.35, 31.48 20.25, 47.65 -0.69 M4.07 59.63 C13.35 42.37, 26.37 29.04, 53.87 -2.13 M2.15 57.15 C17.18 41.85, 31.88 25.34, 52.16 0.15 M9.86 58.44 C21.83 42.33, 39.31 24.79, 56.28 0.96 M8.17 57.87 C27.93 35.52, 47.44 11.73, 58.93 0.91 M13.47 59.24 C23.96 46.25, 34.83 33.83, 63.47 1.66 M14.17 58.37 C30.43 38.35, 46.56 17.62, 63.73 0.85 M20.51 57.62 C29.79 42.41, 42.67 29, 64.83 7.45 M18.45 58.41 C28.47 47.48, 37.99 35.02, 62.99 7.02 M25.31 57.27 C31 48.44, 41.43 40, 62.63 12.72 M24.51 58.5 C38.88 40.33, 54.28 23.45, 63.44 13.64 M28.66 56.39 C43.63 43.08, 57.25 25.55, 63.5 18.6 M29.53 58.13 C42.63 43.93, 54.03 28.68, 63.21 18.74 M35.24 56.15 C43.44 48.09, 52.76 34.35, 61.6 26.42 M35.3 57.08 C43.65 46.84, 54.48 36.37, 63.7 25.44 M39.3 59.09 C47.59 46.53, 57.61 37.53, 61.81 30.77 M40.74 57.71 C48.81 48.31, 57.34 38.9, 62.4 31.95 M46.07 57.62 C51.57 49.36, 56.13 43.07, 63.01 38.07 M44.83 58.22 C49.66 51.16, 55.09 45.18, 62.81 37.85 M49.67 56.49 C54.54 51.68, 57.63 47.7, 61.36 43.68 M51.06 56.98 C54.88 53.8, 56.61 50.34, 63.24 44.12 M56.88 57.23 C57.75 55.34, 59.7 52.7, 63.69 50.07 M56.21 57.68 C58.6 54.97, 61.85 51.93, 62.65 49.64" stroke="#fa5252" stroke-width="0.5" fill="none"></path><path d="M1.91 -0.46 C22.42 0.47, 43.85 0.39, 62.22 0.37 M0.8 0.84 C24.64 -1.51, 48.51 -0.44, 61.84 -0.45 M63.21 -1.12 C62.48 21.02, 63.28 40.56, 61.22 53.46 M61.84 -0.95 C61.58 17.63, 63.04 37.82, 60.91 54.36 M62.74 56.16 C43.23 53.88, 28.3 53.57, 1.58 53.38 M62.72 55.25 C39.64 56.21, 17.36 55.32, 0.27 55.35 M1.37 56.74 C0.88 37.88, 0.93 19.96, 1.34 -0.85 M0.88 55.59 C-0.08 40.91, -0.06 26.81, -0.81 0.49" stroke="#000000" stroke-width="1" fill="none"></path></g><g stroke-linecap="round" transform="translate(87.63294716176841 17.498046875) rotate(0 30.92578125 27.623046875)"><path d="M0.72 0.64 C20.69 0.71, 40.87 0.51, 63.85 1.8 M-0.1 -0.97 C23.03 -0.41, 47.98 -0.97, 62.53 -0.99 M63.02 0.68 C64.2 12.54, 61.59 23.53, 62.59 56.74 M61.17 -0.98 C62.62 17.09, 60.9 32.12, 61.57 56.11 M60.03 53.71 C41.58 53.67, 22.82 53.66, 1.3 53.38 M62.2 55.69 C38.72 54.8, 14.56 55.35, 0.32 54.86 M0.67 56.22 C0.34 36.81, 0.96 14.76, -0.73 -0.3 M-0.16 55.46 C-0.63 42.53, -1.3 29, -0.63 0.05" stroke="#000000" stroke-width="1" fill="none"></path></g><g stroke-linecap="round" transform="translate(80.93763466176841 10) rotate(0 37.556640625 99.943359375)"><path d="M0.64 0.44 C30.28 0.1, 59.81 1.73, 76.91 1.76 M-0.97 -0.96 C28.65 0.07, 56.63 0.75, 74.13 -0.71 M75.79 1.97 C73.88 72.9, 72.21 147.82, 76.61 199.86 M74.13 0.78 C73.81 58.71, 72.33 119.02, 75.98 200.17 M73.58 199.92 C47.38 200.78, 21.47 200.5, -1.87 201.58 M75.55 200.53 C45.62 200.42, 17.13 200.47, -0.38 200.47 M0.97 200.6 C-0.11 127.59, -2.34 51.88, -0.3 -1.16 M0.21 199.74 C-0.03 121.48, -0.2 44.07, 0.05 0.36" stroke="#000000" stroke-width="1" fill="none"></path></g><g stroke-linecap="round" transform="translate(87.50638020700552 80.6484375) rotate(0 30.92578125 27.623046875)"><path d="M0 0 C0 0, 0 0, 0 0 M0 0 C0 0, 0 0, 0 0 M0.15 6.14 C0.97 5.51, 2.09 3.79, 4.66 0.42 M0.05 6.24 C1.03 4.59, 2.75 2.73, 4.74 0.37 M-0.49 13.54 C1.82 7.85, 8.17 4.34, 10.57 1.23 M-0.54 12.28 C4.46 6.57, 8.61 2.93, 9.85 -0.75 M0.15 18.22 C3.51 15.76, 9.81 8.74, 13.93 -1.32 M-0.45 18.79 C3.12 14.15, 7.47 8.33, 16 0.59 M-1.7 23.51 C7.42 14.2, 17.12 6.77, 22.61 -0.76 M0.38 23.7 C4.73 18.65, 9.39 13.34, 21.27 0.42 M-0.03 29.42 C6.68 23.23, 13.52 18.46, 24.95 1.3 M0.39 31.31 C7.09 21.6, 15.25 13.75, 25.84 0.47 M1.48 35.52 C12.69 24.59, 23.26 10.13, 31.21 0.06 M0.58 37.76 C10.91 25.99, 21.19 12.94, 31.06 -0.67 M-0.08 44.02 C10.7 30.03, 18.49 18.67, 38.85 0.31 M-0.48 41.62 C7.9 32.67, 16.32 23.28, 36.25 -0.44 M1.71 48.49 C11.79 33.96, 23.89 20.99, 42.32 -1.15 M-0.34 49.45 C16.36 30.27, 33.27 9.47, 43.13 -0.03 M-0.19 53.01 C17.09 32.82, 35.42 14.55, 46.42 0.98 M1.1 54.82 C16.15 35.76, 31.06 19.38, 46.81 0.94 M1.61 57.59 C23.21 34.02, 41.67 15.16, 52.05 -1.15 M3.21 58.55 C12.55 45.24, 24.69 32.13, 52.26 0.62 M9.51 58.66 C23.99 38.18, 44.95 17.36, 57.59 -0.03 M7.83 57.06 C25.74 38.93, 40.61 19.83, 57.25 0.29 M14.24 57.52 C31.72 38, 50.59 16.86, 64 2.35 M12.27 57.63 C31.04 38.07, 47.47 17.23, 62.21 1.35 M17.91 56.69 C34.73 42.89, 44.52 27.06, 61.55 6.02 M18.98 56.64 C36.15 37.58, 52.36 18.4, 62.56 7.65 M24.7 59.44 C34.63 45.17, 46.79 31.91, 62.76 14.58 M23.93 57.92 C38.97 42.11, 53.17 25.96, 62.28 12.91 M30.68 56.15 C38.1 47.49, 47.22 37.29, 61.87 18.97 M29.08 56.95 C41.77 43.01, 54.23 28.73, 63.12 19.34 M33.11 56.81 C39.64 51.66, 47.61 43.04, 62.06 26.94 M35.32 58.2 C42 50.64, 48.14 43.33, 62.39 24.95 M40.27 57.4 C47.8 47.2, 58.93 35.75, 62.55 32.17 M40.98 57.4 C46.85 49.7, 55.33 40.72, 63.78 31.49 M44.76 56.4 C50.36 52.67, 55.13 44.72, 61.97 36.77 M44.76 56.82 C51.3 51.41, 57.88 44.09, 63.34 36.8 M49.45 57.17 C52.52 53.95, 56.1 50.15, 61.6 44.35 M50.28 57.51 C54.28 54.27, 56.27 50.54, 62.32 44.72 M55.95 56.99 C58.28 56.31, 60.29 53.04, 63.22 50.32 M56.31 58.27 C57.48 55.54, 60.18 52.77, 62.6 49.82" stroke="#fa5252" stroke-width="0.5" fill="none"></path><path d="M0.44 0.56 C17.5 0.17, 36.27 1.6, 63.61 1.6 M-0.96 0.11 C23.72 0.15, 48.14 -0.39, 61.14 0.68 M63.82 -0.11 C61.54 11.7, 62.91 28.46, 61.83 55.21 M62.63 0.59 C60.53 10.46, 61.19 23.56, 62.13 55.69 M61.88 53.39 C42.06 52.9, 20.4 52.9, 1.69 56.98 M62.49 54.8 C43.57 55.62, 25.07 55.14, 0.59 55.93 M0.72 56.63 C1.15 33.71, -0.92 13.57, -1.16 1.76 M-0.14 55.9 C-0.72 37.26, -0.54 18.35, 0.36 0.54" stroke="#000000" stroke-width="1" fill="none"></path></g><g stroke-linecap="round"><g transform="translate(10.94399764323606 45.512101706055546) rotate(0 30.645800454939035 0.22908440057631196)"><path d="M0.34 0.22 C10.65 0.38, 51.78 1.06, 62.24 1.2 M-0.94 -0.71 C9.19 -0.88, 50.76 -0.29, 61.4 -0.29" stroke="#000000" stroke-width="1" fill="none"></path></g><g transform="translate(10.94399764323606 45.512101706055546) rotate(0 30.645800454939035 0.22908440057631196)"><path d="M33.5 10.12 C44.5 8.14, 53.65 4.6, 63.08 -0.49 M33.13 9.31 C39.65 6.7, 44 6.32, 60.84 0.29" stroke="#000000" stroke-width="1" fill="none"></path></g><g transform="translate(10.94399764323606 45.512101706055546) rotate(0 30.645800454939035 0.22908440057631196)"><path d="M33.66 -10.4 C44.65 -5.57, 53.75 -2.29, 63.08 -0.49 M33.28 -11.21 C39.58 -9.65, 43.89 -5.86, 60.84 0.29" stroke="#000000" stroke-width="1" fill="none"></path></g></g><g stroke-linecap="round" transform="translate(405.601162408258 148.89453125) rotate(0 30.92578125 27.623046875)"><path d="M0 0 C0 0, 0 0, 0 0 M0 0 C0 0, 0 0, 0 0 M0.4 6.14 C2.04 3.95, 3.5 2.26, 5.67 0.22 M-0.19 6.18 C1.84 3.91, 3.74 1.9, 4.77 0.65 M-0.28 13.58 C2.53 8.93, 6.76 7.38, 9.07 -0.44 M-0.58 12.09 C2.78 8.65, 3.92 6.51, 11.41 -0.54 M1.84 20.31 C4.52 11.09, 8.13 6.19, 16.38 -0.19 M0.15 18.09 C3.1 14.07, 8.52 9.49, 15.34 0.58 M-0.71 25.49 C5.01 20.62, 8.12 13, 19.32 -0.72 M0.32 23.32 C7.2 16.7, 13.91 8.46, 22.08 -0.09 M-0.35 32.23 C9.78 20.05, 16.83 12.01, 25.44 -0.82 M-0.48 30.75 C8.86 19.96, 17.72 10.51, 25.85 0.85 M0.1 38.58 C10.8 21.57, 25.03 8.37, 32.77 -1.57 M0.5 37.82 C11.36 21.54, 23.52 7.97, 32.84 0.62 M-0.25 40.69 C10.53 32.16, 21.1 16.54, 36.6 2.19 M0.3 41.85 C9.73 32.07, 17.35 22.31, 36.46 0.3 M-1.82 49.7 C15.27 29.46, 32.38 12.28, 41.18 0.34 M0.55 48.57 C10.59 36.1, 23.48 22.46, 41.81 0.08 M-1.61 54.97 C13.39 38.6, 27.62 25.23, 46.91 0.11 M-0.64 54.05 C18.85 32.98, 37.04 13.7, 46.77 -0.51 M0.68 57.7 C16.84 42.2, 26.9 27.26, 54.02 0.59 M2.96 57.93 C20.4 36.76, 39.21 17.31, 52.48 0.58 M9.05 59.47 C25.71 36.71, 43.81 17.16, 57.76 1.33 M9 56.65 C21.99 41.59, 34.16 28.48, 58.43 0.17 M14.38 58.84 C31.78 38.69, 49.96 18.73, 63.45 1.65 M13.57 57.68 C22.74 45.19, 34.22 34.66, 62.29 -0.18 M19.41 55.84 C30.23 43.12, 40.18 33.59, 63 8.22 M18.98 56.71 C33.45 41.63, 47.02 26.13, 62.3 7.06 M23.27 59.61 C34.85 42.87, 51.12 28.82, 61.8 12.76 M24.19 58.86 C35.92 43.72, 46.92 29.99, 63.03 13.77 M29.16 58.87 C40.62 42.53, 53.67 31.21, 64.02 19.98 M29.29 57.93 C37.76 47.75, 47.09 37.02, 62.5 19.73 M35.56 58.59 C40.57 49.87, 49.19 41.6, 61.72 25.12 M34.58 58.61 C45.16 44.89, 55.4 33.73, 62.11 24.88 M39.91 58.47 C45.58 48.95, 55.34 42, 63.85 31.21 M41.09 57.69 C49.51 48.17, 58.17 37.35, 63.52 30.17 M45.8 57.55 C48.89 51.18, 54.58 47.2, 61.42 35.69 M45.58 58.27 C50.05 52.97, 53.98 46.67, 62.68 36.89 M50.66 56.8 C52.93 53.42, 56.66 50.52, 64.39 43.7 M51.09 57.04 C53.63 53.75, 57.4 50.3, 62.68 43.58 M56.39 58.66 C57.54 55.32, 61.24 52.31, 63.05 50.22 M55.96 58.07 C58.32 54.13, 61.76 51.79, 63.07 49.45" stroke="#fa5252" stroke-width="0.5" fill="none"></path><path d="M0.37 2 C21.72 1.64, 41.44 1.56, 61.66 -1.94 M-0.45 0.68 C11.61 -0.71, 25.88 -0.55, 62.44 0.34 M60.07 0.74 C63.31 22, 61.79 42.16, 60.49 53.28 M60.96 -0.29 C63.05 21.14, 62.62 42.17, 60.94 54.48 M59.98 56.54 C41.33 57.42, 26.28 55.73, 0.7 56.13 M61.96 55.57 C38.94 56, 17.48 56.16, 0.33 55.73 M-0.85 54.51 C-0.68 35.54, 1.38 18.83, -0.32 0.42 M0.49 54.62 C-0.31 39.83, 0.18 24.41, 0.36 0.74" stroke="#000000" stroke-width="1" fill="none"></path></g><g stroke-linecap="round" transform="translate(405.483974908258 75.994140625) rotate(0 30.92578125 27.623046875)"><path d="M1.8 1.76 C21.29 1.06, 39.18 -2.56, 59.93 0.22 M-0.99 -0.71 C19.19 -0.98, 37.61 -0.08, 62.84 -0.06 M63.34 -0.03 C61.33 12.92, 60 27.66, 63.4 56.43 M62.72 0.28 C61.81 11.83, 60.45 21.98, 61.87 54.32 M59.98 56.94 C40.14 55.65, 15.66 56.53, 1.29 54.35 M61.47 55.83 C42.31 56.19, 21.73 55.93, 0.36 55.94 M-0.3 54.09 C2 35.67, -0.09 15.13, -0.29 1.31 M0.05 55.61 C0.27 43.87, 0.09 31.79, 0.47 0.62" stroke="#000000" stroke-width="1" fill="none"></path></g><g stroke-linecap="round"><g transform="translate(334.2769436582578 104.5703125) rotate(0 30.190633741980434 0.48953590410224024)"><path d="M1.08 1.05 C11.08 1.06, 50.52 1.56, 60.19 1.23 M0.19 0.56 C10.09 0.76, 50.07 -0.23, 59.75 -0.36" stroke="#000000" stroke-width="1" fill="none"></path></g><g transform="translate(334.2769436582578 104.5703125) rotate(0 30.190633741980434 0.48953590410224024)"><path d="M33.88 11.9 C42.48 6.46, 47.66 1.34, 59.97 -0.38 M31.41 10.98 C38.53 8.44, 46.48 6.12, 59.69 -0.68" stroke="#000000" stroke-width="1" fill="none"></path></g><g transform="translate(334.2769436582578 104.5703125) rotate(0 30.190633741980434 0.48953590410224024)"><path d="M33.49 -8.36 C42.42 -7.35, 47.72 -6.03, 59.97 -0.38 M31.02 -9.28 C38.38 -6.65, 46.43 -3.8, 59.69 -0.68" stroke="#000000" stroke-width="1" fill="none"></path></g></g><g stroke-linecap="round" transform="translate(397.933193658258 68.703125) rotate(0 37.556640625 70.591796875)"><path d="M1.6 1.67 C29.84 -2.6, 58.15 -0.44, 75.1 -0.9 M0.68 -0.56 C28.24 0.87, 56.29 0.48, 74.8 -0.89 M75.08 -1.89 C74.81 45.61, 77.72 96.33, 73.23 139.41 M75.56 0.46 C75.42 37.56, 76.35 75.73, 75.9 140.25 M76.85 141.18 C48.41 142.7, 21.59 140.92, 0.54 141.39 M75.8 141.93 C50.51 142.11, 25.61 142.32, 0.67 140.76 M1.76 141.87 C-0.11 104.43, -0.08 68.15, -1.62 0.98 M0.54 141.9 C0.29 108.46, 0.4 74.88, 0.73 -0.38" stroke="#000000" stroke-width="1" fill="none"></path></g><g stroke-linecap="round"><g transform="translate(121.7103686201367 175.17215401785734) rotate(0 39.22639063293383 0.4709663660739807)"><path d="M-0.56 -0.67 C12.41 -0.26, 65.88 1.35, 79.02 1.41 M1.34 1.6 C14.07 1.79, 65.53 0.05, 78.17 -0.08" stroke="#000000" stroke-width="1" fill="none"></path></g><g transform="translate(121.7103686201367 175.17215401785734) rotate(0 39.22639063293383 0.4709663660739807)"><path d="M49.12 11.16 C63.45 5.71, 71.77 3.99, 76.72 1.86 M49.59 11.68 C58.02 6.66, 65.7 5.32, 77.2 0.61" stroke="#000000" stroke-width="1" fill="none"></path></g><g transform="translate(121.7103686201367 175.17215401785734) rotate(0 39.22639063293383 0.4709663660739807)"><path d="M48.64 -9.35 C62.99 -6.62, 71.5 -0.16, 76.72 1.86 M49.11 -8.84 C57.79 -8.23, 65.6 -3.95, 77.2 0.61" stroke="#000000" stroke-width="1" fill="none"></path></g></g><g transform="translate(212.9603686201367 166.01590401785734) rotate(0 28.5 12.5)"><text x="0" y="18" font-family="Virgil, Segoe UI Emoji" font-size="20px" fill="#000000" text-anchor="start" style="white-space: pre;" direction="ltr">[1, 2]</text></g><g stroke-linecap="round"><g transform="translate(119.76840433442248 106.97460937500045) rotate(0 40.61411268418385 0.029025561841308445)"><path d="M-0.58 1.05 C12.97 0.99, 68.27 -0.65, 81.8 -0.99 M1.32 0.55 C14.67 0.65, 67.32 0.09, 80.94 -0.05" stroke="#000000" stroke-width="1" fill="none"></path></g><g transform="translate(119.76840433442248 106.97460937500045) rotate(0 40.61411268418385 0.029025561841308445)"><path d="M54.6 10.75 C60.76 5.31, 70.5 5.15, 81.87 0.72 M52.17 10.12 C60.74 7.74, 68.32 5.68, 81.12 0.79" stroke="#000000" stroke-width="1" fill="none"></path></g><g transform="translate(119.76840433442248 106.97460937500045) rotate(0 40.61411268418385 0.029025561841308445)"><path d="M54.39 -9.77 C60.52 -8.1, 70.34 -1.14, 81.87 0.72 M51.96 -10.4 C60.52 -7.48, 68.16 -4.24, 81.12 0.79" stroke="#000000" stroke-width="1" fill="none"></path></g></g><g transform="translate(210.47710969156537 96.73018973214312) rotate(0 45.5 12.5)"><text x="0" y="18" font-family="Virgil, Segoe UI Emoji" font-size="20px" fill="#000000" text-anchor="start" style="white-space: pre;" direction="ltr">[3, 4, 5]</text></g><g stroke-linecap="round"><g transform="translate(437.04519004870815 178.54268973214312) rotate(0 37.51264425223428 -0.3279085485290807)"><path d="M-0.39 0.18 C12.16 -0.05, 62.61 -0.9, 75.42 -0.96 M1.61 -0.78 C14 -0.87, 62.07 -0.03, 74.52 0.31" stroke="#000000" stroke-width="1" fill="none"></path></g><g transform="translate(437.04519004870815 178.54268973214312) rotate(0 37.51264425223428 -0.3279085485290807)"><path d="M46.41 10.12 C53.98 8.97, 63.98 4.82, 73.9 -1.37 M45.47 9.11 C56.33 6.64, 67.63 2.96, 74.11 0.56" stroke="#000000" stroke-width="1" fill="none"></path></g><g transform="translate(437.04519004870815 178.54268973214312) rotate(0 37.51264425223428 -0.3279085485290807)"><path d="M46.84 -10.4 C54.34 -5.24, 64.22 -3.09, 73.9 -1.37 M45.91 -11.41 C56.67 -6.04, 67.81 -1.88, 74.11 0.56" stroke="#000000" stroke-width="1" fill="none"></path></g></g><g transform="translate(525.9626007629938 168.426618303572) rotate(0 70.5 12.5)"><text x="0" y="18" font-family="Virgil, Segoe UI Emoji" font-size="20px" fill="#000000" text-anchor="start" style="white-space: pre;" direction="ltr">[1, 2, 3, 4, 5]</text></g></svg>