<svg version="1.1" xmlns="http://www.w3.org/2000/svg" viewBox="0 0 322.1728715895015 150.1162109375" width="322.1728715895015" height="150.1162109375">
  <!-- svg-source:excalidraw -->
  
  <defs>
    <style class="style-fonts">
      @font-face {
        font-family: "Virgil";
        src: url("https://excalidraw.com/Virgil.woff2");
      }
      @font-face {
        font-family: "Cascadia";
        src: url("https://excalidraw.com/Cascadia.woff2");
      }
    </style>
  </defs>
  <rect x="0" y="0" width="322.1728715895015" height="150.1162109375" fill="#ffffff"></rect><g stroke-linecap="round" transform="translate(244.87404346450148 79.2451171875) rotate(0 30.92578125 27.623046875)"><path d="M0 0 C0 0, 0 0, 0 0 M0 0 C0 0, 0 0, 0 0 M-0.88 6.67 C1.35 5.32, 2.65 4, 5.61 0.9 M-0.5 6.48 C1.38 4.69, 2.58 3.8, 4.59 0.18 M-0.56 10.6 C5.45 7.02, 7.78 3.15, 10.34 -0.88 M0.52 11.5 C3.57 7.92, 7.56 3.1, 10.88 0.15 M-1.45 17.2 C3.89 11.55, 9.86 4.9, 16.08 2.17 M-1.08 18.78 C4.76 13.74, 9.86 7.98, 16.48 0.88 M1.85 25.08 C7.02 16.75, 17.22 6.21, 21.81 1.06 M0.43 24.49 C6.82 18.16, 12.01 10.25, 21.27 0.31 M-1.92 30.05 C5.61 24.46, 11.95 14.95, 26.63 0.97 M-0.8 31.19 C8.06 20.88, 16.91 9.79, 27.1 0.99 M-1.42 38.26 C8.69 27.77, 18.07 14.19, 32.93 -0.65 M-1.25 36.73 C11.71 22.69, 24.48 7.53, 32.26 -0.09 M-0.2 42.47 C6.78 32.41, 16.51 23.95, 35.82 0.09 M0.25 42.69 C9.78 32.43, 18.2 22.3, 37.47 -0.09 M0.03 48.61 C16.39 31.72, 31.91 15.31, 40.99 1.77 M-0.32 48.04 C12.25 36.96, 23.51 23.11, 43.26 0.02 M0.69 52.81 C11.58 43.99, 23.19 30.21, 46.22 0.03 M0.62 54.14 C14.12 38.99, 27.06 23.15, 47.94 0.8 M2.37 56.73 C21.53 35.99, 39.03 18.38, 51.29 -0.17 M2.74 57.14 C17.33 39.99, 31.99 23.44, 52.91 0.67 M9.56 57.9 C21.45 39.99, 37.55 23.69, 59.4 1.81 M8 58.31 C23.67 40.44, 39.24 23.61, 58.65 -0.71 M12.04 56 C33.89 33.51, 53.88 12.3, 62.48 -0.68 M12.5 57.44 C24.31 43.86, 35.9 31.14, 63.43 0.61 M20.09 59.2 C35.17 37.37, 53.83 19.37, 63.98 7.79 M19.21 57.06 C29.64 45.94, 38.71 35.93, 62.59 7.3 M23.31 57.42 C35.25 42.99, 48.28 32.73, 63.98 12.15 M23.17 56.92 C33.31 45.95, 44.81 34.11, 63.13 14.16 M28.53 58.68 C37.98 47.9, 42.92 42.54, 62.77 20.55 M28.97 58.21 C41.59 42.2, 54.03 28.94, 63.74 18.92 M33.29 59.43 C42.08 49.41, 54.69 35.32, 64.17 23.6 M34.6 57 C44.45 46.9, 54.77 34.65, 63.6 25.46 M39.74 56.83 C47.4 47.18, 58.64 37.96, 62.81 29.43 M40.89 56.54 C48.05 47.12, 58.43 37.42, 64.12 31.96 M44.09 59.06 C49.51 54, 54.55 49.66, 63.58 36.05 M45.4 58.6 C51.31 51.16, 55.06 45.71, 63.86 37.21 M50.57 57.63 C54.33 53.33, 56.28 51.53, 61.06 42.5 M49.94 57.78 C54.96 53.75, 58.81 48.28, 62.31 44.65 M56.31 57.79 C57.77 55.26, 60.61 50.79, 62.11 49.04 M55.88 57.39 C56.88 56.6, 58.78 53.95, 63.48 49.41" stroke="#15aabf" stroke-width="0.5" fill="none"></path><path d="M0.78 -0.15 C22.24 -0.51, 42.18 0.13, 60.23 0.39 M-1 0.65 C19.45 -0.03, 37.95 0.16, 61.41 0.05 M63.23 1.08 C62.31 13.46, 61.93 29, 63.01 55.47 M61.63 -0.88 C61.96 15.34, 62.39 30.25, 61 54.97 M60.41 55.89 C42.86 57.14, 21.04 55.97, -1.02 55.98 M61.12 54.96 C39.26 56.28, 17.4 55.96, -0.22 54.38 M-1.61 55.29 C0.27 36.13, -1.15 14.07, 1.02 1.79 M-0.78 55.68 C-0.09 34.69, -1.21 14.58, -0.54 0.51" stroke="#000000" stroke-width="1" fill="none"></path></g><g transform="translate(254.79982471450148 94.3681640625) rotate(0 21 12.5)"><text x="21" y="18" font-family="Virgil, Segoe UI Emoji" font-size="20px" fill="#000000" text-anchor="middle" style="white-space: pre;" direction="ltr">main</text></g><g stroke-linecap="round" transform="translate(243.00783252700148 15.330078125) rotate(0 30.92578125 27.623046875)"><path d="M0.56 -0.38 C18.68 0.3, 38.09 0.44, 62.01 0.74 M0.42 -0.55 C13.24 -0.76, 26.27 -0.35, 61.35 0.77 M61.89 -0.34 C61.89 15.71, 63.39 28.84, 61.17 54.65 M62.12 0.65 C62.43 16.88, 60.88 31.76, 62.1 55.54 M62.95 57.08 C42 56.1, 22.39 56.18, 1.1 55.63 M61.21 55.83 C38.27 55.34, 15.56 54.21, 0.75 54.76 M0 56.85 C-0.97 33.78, 1.46 13.58, 1.4 1.94 M0.44 55.14 C-0.24 44.11, -0.11 33.02, -0.74 -0.42" stroke="#000000" stroke-width="1" fill="none"></path></g><g stroke-linecap="round" transform="translate(237.05959033950148 10) rotate(0 37.556640625 65.05810546875)"><path d="M-0.38 -1.18 C25.73 -1.83, 51.34 -0.05, 75.85 -1.68 M-0.55 -0.12 C14.68 -0.76, 30.12 -0.82, 75.88 -0.41 M74.77 -0.35 C77.22 49.16, 76.04 95.32, 74.52 129.91 M75.76 0.7 C74.83 35.32, 73.69 72.59, 75.41 130.22 M76.94 129.49 C58.64 129.51, 41.6 131.63, 0.38 131.57 M75.7 129.57 C58.32 129.41, 40.12 130.38, -0.49 131.05 M1.6 128.7 C0.24 102.59, 1.76 74.44, 1.94 -1.88 M-0.1 129.45 C-0.33 100.64, -0.06 71.5, -0.42 0.97" stroke="#000000" stroke-width="1" fill="none"></path></g><g stroke-linecap="round"><g transform="translate(170.7472292735158 44.923828125) rotate(0 30.610451739169662 0.29256520072726744)"><path d="M-0.23 -0.71 C10.29 -0.91, 52.47 -1.04, 63.03 -0.89 M-1.8 1.54 C8.58 1.43, 51.45 0.13, 62.16 0.14" stroke="#000000" stroke-width="1" fill="none"></path></g><g transform="translate(170.7472292735158 44.923828125) rotate(0 30.610451739169662 0.29256520072726744)"><path d="M32.97 11.13 C40.69 8.18, 50.66 5.38, 60.48 -1.86 M34.02 10.51 C43.89 7.15, 54.07 3.95, 61.75 0.82" stroke="#000000" stroke-width="1" fill="none"></path></g><g transform="translate(170.7472292735158 44.923828125) rotate(0 30.610451739169662 0.29256520072726744)"><path d="M32.62 -9.39 C40.5 -6.34, 50.57 -3.13, 60.48 -1.86 M33.68 -10.01 C43.76 -5.87, 54.06 -1.57, 61.75 0.82" stroke="#000000" stroke-width="1" fill="none"></path></g></g><mask></mask><g stroke-linecap="round" transform="translate(73.11623096450148 79.2451171875) rotate(0 30.92578125 27.623046875)"><path d="M0.26 -1.62 C20.67 0.52, 41.29 -1.32, 59.86 1.31 M-0.36 -0.44 C21.19 -0.43, 43.05 -0.34, 62.54 0.54 M63.26 1.16 C61.98 15.99, 61.16 33.14, 61.41 53.48 M62.71 -0.85 C61.93 18.32, 62.5 36.25, 61.13 55.57 M62.51 54.23 C40.63 56.15, 18.32 56.5, -1.46 54.68 M62.12 55.03 C46.41 55.66, 32.2 55.84, -0.81 55.27 M0.26 56.26 C1.34 40.08, 1.5 20.23, -1.55 0.87 M0.23 54.71 C0.57 35.49, -0.37 18.16, 0.62 0.59" stroke="#000000" stroke-width="1" fill="none"></path></g><g stroke-linecap="round" transform="translate(65.44826221450148 74.5546875) rotate(0 37.556640625 32.78076171875)"><path d="M0.16 0.74 C21.82 -2.14, 48.3 0.69, 74.01 -0.24 M-0.5 0.77 C19.42 0.65, 40.2 -0.02, 74.94 -0.17 M74.43 -0.59 C75.29 23.83, 73.73 49.09, 76.4 66.96 M75.36 0.3 C74.67 24.6, 74.88 51.2, 76.03 65.25 M76.21 65.95 C51.57 64.38, 24.57 64.55, 1.16 64.47 M75.86 65.07 C51.51 64.11, 26.05 64.91, 0.8 64.85 M1.4 67.51 C-2.22 43.48, 0.54 25.39, -0.21 -1.34 M-0.74 65.14 C1.32 44.97, 0.94 23.81, 0.9 -0.83" stroke="#000000" stroke-width="1" fill="none"></path></g><g stroke-linecap="round"><g transform="translate(10.847117194682369 107.65771484374955) rotate(0 26.366393085308346 -0.5025706545845878)"><path d="M0.4 -0.41 C9.27 -0.45, 44.47 0.9, 53.58 0.76 M-0.85 -1.67 C7.79 -2.1, 43.14 -1, 52.42 -0.78" stroke="#000000" stroke-width="1" fill="none"></path></g><g transform="translate(10.847117194682369 107.65771484374955) rotate(0 26.366393085308346 -0.5025706545845878)"><path d="M26.14 7.11 C37.12 6.64, 42.3 1.08, 53.38 -0.74 M26.33 6.97 C31.98 5.2, 38.64 3.96, 52.6 -1.47" stroke="#000000" stroke-width="1" fill="none"></path></g><g transform="translate(10.847117194682369 107.65771484374955) rotate(0 26.366393085308346 -0.5025706545845878)"><path d="M26.62 -11.35 C37.6 -5.67, 42.61 -5.09, 53.38 -0.74 M26.82 -11.49 C32.47 -9.23, 39.03 -6.42, 52.6 -1.47" stroke="#000000" stroke-width="1" fill="none"></path></g></g><mask></mask></svg>