<svg version="1.1" xmlns="http://www.w3.org/2000/svg" viewBox="0 0 974.0993982147638 289.17502087990624" width="974.0993982147638" height="289.17502087990624">
  <!-- svg-source:excalidraw -->
  
  <defs>
    <style class="style-fonts">
      @font-face {
        font-family: "Virgil";
        src: url("https://excalidraw.com/Virgil.woff2");
      }
      @font-face {
        font-family: "Cascadia";
        src: url("https://excalidraw.com/Cascadia.woff2");
      }
    </style>
  </defs>
  <rect x="0" y="0" width="974.0993982147638" height="289.17502087990624" fill="#ffffff"></rect><g stroke-linecap="round" transform="translate(302.68234042172844 141.1217236780558) rotate(0 30.92578125 27.623046875)"><path d="M0 0 C0 0, 0 0, 0 0 M0 0 C0 0, 0 0, 0 0 M-0.32 6.32 C2.38 4.23, 4.31 2.55, 4.54 0.89 M-0.59 6.1 C0.77 5.51, 1.81 3.68, 4.6 0.46 M1.63 12.21 C3.83 8.14, 6.85 4.04, 11.73 0.63 M0.68 12.13 C4.56 8.39, 7.2 3.5, 10.43 -0.6 M-0.19 17.46 C5.23 13.83, 8.56 7.45, 16.3 0.11 M0.72 18.6 C5.31 12.63, 8.81 8.42, 15.41 0.59 M2.18 25.02 C6.71 13.84, 14.82 8.12, 23.04 -0.85 M0.27 24.35 C7.04 15.79, 13.54 9.2, 22.04 -0.78 M0 31.52 C7.89 21.88, 17.65 11.61, 24.39 1.71 M-0.95 31.16 C8.56 21.91, 15.8 11.71, 25.51 0.24 M-0.91 36.03 C6.5 28.15, 12.62 19.84, 30.32 -1.93 M-0.68 36.17 C9.24 27.35, 17.62 14.88, 31.83 0.48 M0.99 42.63 C16.05 24.52, 29.9 8.39, 36.07 1.39 M-0.83 41.59 C8.05 34.16, 14.79 24.98, 36.62 0.91 M1.62 49.03 C15.18 29.3, 33.31 11.54, 42.04 -2.04 M0.78 49.25 C11.6 34.72, 21.6 21.55, 41.58 -0.02 M-1.41 53.56 C16.46 34.25, 33.68 14.42, 49.27 -0.43 M0.09 54.67 C13.23 40.4, 22.91 27.56, 47.33 -0.07 M1.27 56.55 C11.93 44.59, 24.23 35.35, 51.34 1.76 M2.38 58.45 C18.2 39.44, 34.73 22.52, 53.87 0.16 M9.45 56.58 C20.03 45.14, 34.3 27.72, 57.86 0.19 M7.44 57.59 C25.32 37.02, 45.19 15.76, 57.47 -0.42 M12.81 58.88 C30.67 40.93, 44.5 22.19, 61.69 1.68 M12.41 57.86 C28.91 42.92, 42.72 25.91, 62.4 0.69 M20.07 55.55 C31.06 44.36, 40.38 30.31, 63.8 7.54 M19.51 57.1 C29.09 44.92, 41.19 33.59, 63.25 6.95 M23.83 56.93 C37.12 43.76, 47.25 30.31, 64.34 15.04 M24.29 58.62 C37.6 42.97, 51.46 25.89, 62.44 13.29 M28.52 57.88 C41.69 45.17, 50.71 34.85, 64.23 17.11 M30 58.45 C36.65 49.82, 43.86 42.61, 63.35 19.8 M33.79 58.1 C44.92 46.97, 54.32 37.43, 62.49 23.55 M34.57 57.81 C43.09 48.18, 50.26 38.88, 62.03 26.03 M38.49 56.46 C45.38 50.98, 51.25 46.11, 61.52 30.17 M40.96 58.34 C47.33 48.67, 55.82 39.72, 64.01 30.1 M44.1 59.3 C49.6 55, 52.02 50.85, 64.51 37.03 M46.09 58.52 C51.72 50.58, 56.6 43.78, 62.16 38.03 M50.65 58.6 C51.8 53.56, 56.73 50.66, 60.95 45.38 M51.19 57 C54.73 53.42, 58.1 48.29, 63.39 42.94 M55.98 57.34 C58.62 54.64, 60.77 52.41, 62.67 49.24 M55.32 57.23 C57.92 54.43, 61.31 51.72, 62.59 49.84" stroke="#15aabf" stroke-width="0.5" fill="none"></path><path d="M1.88 -0.78 C17.68 1.79, 39.53 2.07, 62.28 0.96 M0.27 0.18 C21.73 0.27, 42.8 0.86, 61.65 0.83 M60.9 -0.58 C63.58 19.14, 62.39 39.44, 62.15 53.32 M61.22 -0.46 C62.42 15.04, 60.95 29.21, 61.54 55.16 M63.35 57.03 C39.85 54.98, 16 56.13, 1.47 56.03 M62.01 55 C39.92 54.96, 17.45 54.45, 0.67 56.05 M-0.15 54.91 C-1.7 35.33, 1.56 20.09, 0.76 -1.3 M-0.4 54.39 C0.72 35.16, 1.15 14.17, -0.08 -0.4" stroke="#000000" stroke-width="1" fill="none"></path></g><g transform="translate(312.60812167172844 156.2447705530558) rotate(0 21 12.5)"><text x="21" y="18" font-family="Virgil, Segoe UI Emoji" font-size="20px" fill="#000000" text-anchor="middle" style="white-space: pre;" direction="ltr">main</text></g><g stroke-linecap="round" transform="translate(295.4576075744026 10) rotate(0 37.890625 132.30082022897386)"><path d="M-1.82 1.22 C16.29 1.79, 31.94 1.26, 76.85 -1.97 M-0.13 -0.22 C15.88 0.24, 33.4 0.7, 76.3 0.05 M77.12 -0.22 C75.19 61.06, 75.02 119.62, 75.21 263.75 M76.46 0.37 C73.97 81.21, 74.2 162.27, 76.34 265.01 M76.73 264.55 C55.73 266.38, 37.06 266.06, 1.02 265.22 M75.58 264.12 C49.62 263.42, 26.04 265.22, 0.34 264.85 M-1.24 263.42 C1.5 197.33, 0.76 126.34, 1.23 -1.24 M0.23 265.21 C1.42 187.87, 0.78 109.82, -0.42 0.11" stroke="#000000" stroke-width="1" fill="none"></path></g><g stroke-linecap="round" transform="translate(303.1201331891516 207.9194631760074) rotate(0 30.92578125 27.623046875)"><path d="M0 0 C0 0, 0 0, 0 0 M0 0 C0 0, 0 0, 0 0 M-0.12 6.92 C2.07 4.15, 3.34 2.1, 4.67 -0.34 M0.07 6.26 C0.69 4.7, 2.18 4.16, 5.38 0.13 M0.98 10.52 C5.8 8.42, 9.05 3.44, 9.9 1.45 M0.86 11.61 C4.12 7.31, 7.3 3.33, 10.5 0.28 M1.39 16.55 C5.84 13.75, 9.09 7.53, 15.23 0.61 M-0.62 18.14 C6.49 11.14, 12.21 4.92, 15.91 0.85 M-1.32 23.85 C9.69 16.4, 15.99 5.2, 19.48 0.11 M-0.59 24.25 C6.48 17.58, 12.1 9.96, 21.67 0.23 M1.75 30.41 C9.44 19.69, 17 12.78, 24.8 -0.88 M0.74 29.61 C5.17 23.53, 10.5 17.3, 25.98 -0.59 M-1.09 35.44 C7.53 25.49, 15.27 16.92, 32.56 -1.29 M0.67 36.37 C7.38 27.18, 17.13 18.55, 31.5 0.31 M-1.54 44 C11.07 26.92, 26.43 11.32, 38.34 0.98 M0.53 42.5 C7.83 33.4, 16.14 25.89, 37.39 0.09 M-0.99 49.88 C16.56 29.61, 30.97 10.42, 43.41 1.71 M-0.88 48.16 C15.49 28.59, 33.1 11.12, 42.98 0.22 M0.36 53.04 C11.25 44.85, 20.31 30.24, 45.83 1.04 M-0.4 53.62 C13.3 38.64, 26.51 22.54, 47.8 0.75 M1.27 59.34 C15.87 42.84, 28.4 31.36, 52.01 0.17 M2.22 58.41 C16.89 42.9, 30.43 25.66, 53.17 -0.65 M9.68 59.16 C24.48 36.8, 44.34 17.8, 59.76 0.06 M8.68 58.48 C19.12 44.85, 29.18 33.25, 58.36 -0.46 M13.84 58.2 C26.51 40.08, 41.76 25.3, 61.22 -1.14 M14.19 58.41 C24.25 44.42, 34.84 32.46, 63.43 0.59 M19.06 56.04 C34.53 40.19, 51.46 20.02, 63.26 5.61 M18.35 58.46 C35.41 39.84, 50.83 21.49, 62.8 6.66 M24.23 55.9 C37.02 46.29, 48.78 32.44, 62.24 12.1 M24.59 57.81 C36.15 42.67, 49.77 27.87, 61.92 13.17 M29.3 57.31 C39.35 48.9, 44.25 36.2, 61.19 18.9 M29.8 57.67 C41.72 44.54, 53.14 31.23, 63.56 18.27 M34.39 58.8 C43.17 48.9, 47.5 40.31, 62.8 27.03 M34.37 57.47 C42.94 47.1, 52.37 37.08, 62.78 24.96 M39.34 58.58 C45.29 50.09, 49.37 46.53, 62.25 29.36 M39.83 57.98 C47.99 48.4, 56.43 36.58, 62.84 32.02 M46.77 57.22 C51.09 54.35, 53.36 48.38, 64.35 39.33 M44.94 57.51 C51.81 48.94, 59.56 40.73, 62.33 37.14 M49.78 58.29 C53.1 51.89, 59.16 50.1, 64.22 42.53 M51.2 57.06 C54.66 53.5, 58.1 47.9, 63.03 43.86 M55.02 58.7 C57.47 54.74, 60.18 53.16, 63.85 49.15 M55.46 58.07 C57.43 55.62, 59.35 54.05, 62.74 49.17" stroke="#228be6" stroke-width="0.5" fill="none"></path><path d="M1.22 0.54 C25.85 0.99, 49.67 1.63, 59.88 -1.57 M-0.22 -0.92 C20.62 -0.12, 41.31 0.59, 61.9 -0.71 M61.57 0.51 C62.3 14.25, 59.77 27.19, 60.78 55.38 M62.31 -0.6 C61.66 12.75, 61.51 26.83, 62.37 54.9 M61.8 55.28 C39.76 57.01, 16.25 56.56, 0.61 55.9 M61.37 54.29 C41.32 55.79, 23.6 55.45, 0.25 54.84 M-1.49 56.94 C1.79 39.84, -1.2 24.48, -1.56 -0.16 M0.77 55.97 C1.1 40.82, 0.07 26.03, 0.14 -0.5" stroke="#000000" stroke-width="1" fill="none"></path></g><g transform="translate(327.0459144391516 223.0425100510074) rotate(0 7 12.5)"><text x="7" y="18" font-family="Virgil, Segoe UI Emoji" font-size="20px" fill="#000000" text-anchor="middle" style="white-space: pre;" direction="ltr">5</text></g><g stroke-linecap="round"><g transform="translate(350.1462732147629 234.5545566420169) rotate(0 26.29454952697165 -0.29176027157086537)"><path d="M0.32 0.9 C9.43 0.83, 44.62 0.72, 53.55 0.34 M-0.97 0.33 C8.1 -0.16, 43.66 -1.31, 52.74 -1.48" stroke="#000000" stroke-width="1" fill="none"></path></g><g transform="translate(350.1462732147629 234.5545566420169) rotate(0 26.29454952697165 -0.29176027157086537)"><path d="M29.46 8.74 C34.05 7.26, 36.3 2.58, 53.29 -1.13 M28.34 8.1 C35.92 6.24, 42.26 2.21, 52.27 -1.78" stroke="#000000" stroke-width="1" fill="none"></path></g><g transform="translate(350.1462732147629 234.5545566420169) rotate(0 26.29454952697165 -0.29176027157086537)"><path d="M28.96 -9.48 C33.77 -7.15, 36.12 -8.02, 53.29 -1.13 M27.84 -10.12 C35.53 -6.75, 42.01 -5.55, 52.27 -1.78" stroke="#000000" stroke-width="1" fill="none"></path></g></g><mask></mask><g transform="translate(416.2676217201988 220.00131275614876) rotate(0 26.5 12.5)"><text x="0" y="18" font-family="Virgil, Segoe UI Emoji" font-size="20px" fill="#000000" text-anchor="start" style="white-space: pre;" direction="ltr">value</text></g><g stroke-linecap="round" transform="translate(18.430366847826008 234.50535376033986) rotate(0 99 17.5)"><path d="M0.54 0.36 C69.73 1.11, 138.13 2.31, 197.59 1.67 M-0.47 -0.29 C70.43 1.27, 139.42 1.71, 198.15 -0.96 M196.73 -0.92 C199.54 10.16, 196.61 18.58, 197.38 34.83 M198.75 0.89 C198.65 12.96, 198.2 26.52, 198.73 35.39 M198.31 34.51 C128.05 34.68, 57 33.65, 1.34 36.61 M197.92 34.83 C131.18 33.45, 66.76 35.04, 0.38 34.35 M-0.81 33.29 C0.85 23.33, 1.72 9.84, -0.16 -0.8 M-0.2 34.61 C-0.24 27.25, 0.47 18.6, 0.01 -0.43" stroke="#000000" stroke-width="1" fill="none"></path></g><g transform="translate(85.43036684782601 239.50535376033986) rotate(0 32 12.5)"><text x="32" y="18" font-family="Virgil, Segoe UI Emoji" font-size="20px" fill="#000000" text-anchor="middle" style="white-space: pre;" direction="ltr">&lt;main&gt;</text></g><g stroke-linecap="round" transform="translate(10 183.01333609729772) rotate(0 105.961277173913 48.08084239130426)"><path d="M-0.23 -0.38 C45.37 0.34, 93.62 1.13, 212.83 0.09 M0.75 -0.12 C48.74 0.81, 97.16 -0.3, 211.6 -0.47 M213.65 0.92 C210.1 29.61, 210.69 58.83, 213.34 97.19 M212.4 -0.03 C212.66 26.05, 213.38 51.38, 212.43 96.47 M211.56 95.31 C139.76 93.95, 72.14 97.12, 0.59 96.6 M211.24 95.51 C157.71 96.59, 102.34 95.28, 0.68 95.47 M0.58 97.7 C1.83 69.35, 0.23 39.23, -1.05 0.27 M-0.19 97.07 C0.7 73.06, 0.2 47.7, -0.4 0.17" stroke="#000000" stroke-width="1" fill="none"></path></g><g stroke-linecap="round" transform="translate(18.060971467391937 194.0480677549058) rotate(0 99 17.5)"><path d="M-0.44 -1.84 C65.54 -0.15, 131.24 1.29, 198.11 -1.42 M-0.14 0.25 C50.32 -1.53, 99.07 -2.04, 197.46 0.07 M198.92 -1.21 C197.95 7.65, 197.67 17.97, 199.03 34.3 M197.97 0.02 C198.86 13.86, 198.7 26.76, 198.31 35.33 M197.03 33.09 C133.49 35.93, 74.57 35.27, 0.5 34.19 M197.25 35.85 C140.94 33.83, 81.53 34.23, -0.78 34.92 M1.54 36.45 C1.56 25.75, -0.5 15.77, 0.27 -1.01 M0.91 35.52 C1.05 25.2, -0.3 14.97, 0.17 0.37" stroke="#000000" stroke-width="1" fill="none"></path></g><g transform="translate(45.06097146739194 199.0480677549058) rotate(0 72 12.5)"><text x="72" y="18" font-family="Virgil, Segoe UI Emoji" font-size="20px" fill="#000000" text-anchor="middle" style="white-space: pre;" direction="ltr">block in &lt;main&gt;</text></g><g stroke-linecap="round"><g transform="translate(215.45325237771794 224.09052699403583) rotate(0 39.87071713813293 -43.27966236793986)"><path d="M-1.11 0.45 C12.39 -13.74, 67.04 -70.95, 80.85 -85.42 M0.51 -0.35 C13.85 -14.84, 66.31 -72.91, 79.77 -87.01" stroke="#000000" stroke-width="1" fill="none"></path></g><g transform="translate(215.45325237771794 224.09052699403583) rotate(0 39.87071713813293 -43.27966236793986)"><path d="M68.92 -59.76 C73.22 -66.15, 74.99 -76.54, 78.82 -87.6 M68.47 -59.2 C71.71 -70.39, 76.6 -80.6, 79.14 -87.47" stroke="#000000" stroke-width="1" fill="none"></path></g><g transform="translate(215.45325237771794 224.09052699403583) rotate(0 39.87071713813293 -43.27966236793986)"><path d="M53.85 -73.69 C62.45 -75.95, 68.54 -82.34, 78.82 -87.6 M53.4 -73.14 C62.42 -79, 73.11 -83.85, 79.14 -87.47" stroke="#000000" stroke-width="1" fill="none"></path></g></g><mask></mask><g stroke-linecap="round"><g transform="translate(216.9548233695641 194.49643732012373) rotate(0 38.18231228813761 -59.93882091377668)"><path d="M0.45 -0.24 C13.35 -19.7, 64.51 -97.99, 77.13 -117.83 M-0.77 -1.42 C12.09 -21.13, 64 -100.13, 76.71 -119.63" stroke="#000000" stroke-width="1" fill="none"></path></g><g transform="translate(216.9548233695641 194.49643732012373) rotate(0 38.18231228813761 -59.93882091377668)"><path d="M69.44 -88.76 C73.06 -98.47, 72.51 -107.65, 76.12 -117.94 M70 -91.39 C71.38 -99.34, 73.77 -107.8, 76.25 -118.77" stroke="#000000" stroke-width="1" fill="none"></path></g><g transform="translate(216.9548233695641 194.49643732012373) rotate(0 38.18231228813761 -59.93882091377668)"><path d="M52.27 -100 C60.56 -106.65, 64.79 -112.7, 76.12 -117.94 M52.83 -102.63 C59.15 -107.42, 66.45 -112.66, 76.25 -118.77" stroke="#000000" stroke-width="1" fill="none"></path></g></g><mask></mask><g stroke-linecap="round" transform="translate(303.0595921100994 76.8082135649529) rotate(0 30.92578125 27.623046875)"><path d="M0 0 C0 0, 0 0, 0 0 M0 0 C0 0, 0 0, 0 0 M-0.05 7.18 C1.96 4.39, 3.31 3.33, 4.81 0.78 M-0.09 6.62 C0.57 5.5, 2.11 3.93, 5.31 0.72 M-1 12.6 C2.43 9.73, 5.22 5.36, 10.67 1.18 M0.05 11.98 C2.06 9.63, 5.06 7.16, 11.27 -0.43 M0.39 19.51 C4.59 14.62, 10.17 9.64, 14.71 -1.26 M-0.52 18.51 C3.42 13.16, 8.85 8.11, 15.73 -0.53 M-1.15 24.88 C7.74 16.87, 13.55 9.68, 20.35 1.67 M0.98 24.22 C5.56 16.53, 11.55 10.63, 21.38 0.67 M-0.1 28.9 C5.06 22.49, 10.52 16.98, 25.8 -0.54 M-0.91 30.36 C6.48 23.2, 11.71 16.19, 26.61 1.21 M0.91 38.53 C7.31 28.5, 16.97 18.55, 33.58 -1.78 M0.31 35.92 C12.8 23.54, 23.13 8.42, 32.63 0.29 M1.45 44.19 C12.19 29.68, 23.85 17.53, 36.07 -0.61 M-0.81 42.18 C13.33 28.83, 26.57 13.53, 37.47 -0.5 M0.11 50.37 C10.79 39.04, 17.76 26.31, 41.37 -0.04 M-0.45 48.37 C8.47 37.96, 18.68 26.67, 43.47 -0.81 M-0.32 52.59 C10.7 44.5, 18.49 30.86, 46.78 -1.14 M1.24 54.66 C16.86 35.06, 34.65 15.31, 47.1 -0.19 M3.29 56.84 C19.83 36.44, 38.49 16.26, 52.71 1.24 M2.64 58.59 C23.25 35.83, 40.82 13.81, 52.44 0.23 M7.06 57.78 C28.29 34, 47.04 13.67, 60.13 0.76 M8.84 57.39 C23.09 39.02, 38.87 21.77, 59.04 1.11 M13.54 57.16 C31.21 38.24, 49.23 16.1, 63.88 0.7 M13.56 57.34 C24.91 44.03, 36.6 31.31, 62.7 -0.01 M18.91 58.05 C35.92 36.81, 53.34 16.47, 63.41 7.28 M19.76 58.07 C27.22 46.32, 36.65 37.49, 62.71 7.64 M23.79 58.17 C34.15 44.51, 45.87 32.16, 63.95 13.1 M22.95 56.93 C33.94 44.6, 46.6 32.63, 62.48 13.6 M31.16 58.22 C40.98 43.63, 49.79 33.05, 64.07 18.85 M28.62 57.33 C40.98 44.93, 52.65 30.68, 63.52 18.83 M35.82 56.17 C42.1 48.65, 47.75 39.98, 62.98 24.55 M34.09 58.1 C44.14 45.65, 55.44 35.81, 62.28 25.05 M38.3 55.61 C47.89 49.88, 55.52 40.06, 63.82 32.65 M39.97 57.8 C46.91 51.04, 53.33 43.65, 63.9 30.81 M46.36 56.02 C48.91 51.85, 54.61 48.23, 61.14 36.29 M46.02 58.09 C52.35 50.14, 58.07 43.3, 63.06 37.87 M49.03 57.12 C54.77 53.83, 57.32 49.51, 63.95 42.57 M50.61 58 C56.11 51.97, 59.19 46.11, 61.89 43.3 M56.53 57.39 C57.83 54.29, 60.44 51.54, 63.15 48.84 M56.19 57.68 C57.9 56.07, 59.29 53.47, 63.38 49.66" stroke="#228be6" stroke-width="0.5" fill="none"></path><path d="M1.67 1.03 C12.96 -1.3, 24.76 -0.46, 63.55 -0.28 M-0.96 -0.36 C19.58 -0.02, 39.6 -0.55, 62.71 0.46 M61.68 1.42 C62.91 12.54, 63.38 28.27, 62.8 55.19 M62.24 0.51 C62.46 17, 62.31 33.11, 61.65 54.76 M63.46 55.92 C49.7 54.85, 36.41 55.32, -1.56 53.76 M61.2 56.02 C37.27 55.4, 13.86 54.63, 0.29 56.02 M-0.8 54.19 C-0.07 33.67, -0.74 13.34, -0.39 1.82 M-0.43 54.85 C-0.33 36.19, -1.11 17.06, 0.2 0.71" stroke="#000000" stroke-width="1" fill="none"></path></g><g transform="translate(323.4853733600994 91.9312604399529) rotate(0 10.5 12.5)"><text x="10.5" y="18" font-family="Virgil, Segoe UI Emoji" font-size="20px" fill="#000000" text-anchor="middle" style="white-space: pre;" direction="ltr">10</text></g><g stroke-linecap="round"><g transform="translate(217.5888889850994 267.1363385649529) rotate(0 40.451471044868185 -30.802002311870638)"><path d="M0.62 0.06 C13.85 -10.38, 65.98 -51.64, 79.16 -61.67 M-0.52 -0.95 C13.11 -10.72, 68.22 -50.27, 81.42 -60.43" stroke="#000000" stroke-width="1" fill="none"></path></g><g transform="translate(217.5888889850994 267.1363385649529) rotate(0 40.451471044868185 -30.802002311870638)"><path d="M64.95 -36.84 C68.33 -43.08, 75.6 -49.77, 81.93 -59.82 M64.31 -35.35 C69.67 -43.69, 76.38 -50.64, 80.82 -60.37" stroke="#000000" stroke-width="1" fill="none"></path></g><g transform="translate(217.5888889850994 267.1363385649529) rotate(0 40.451471044868185 -30.802002311870638)"><path d="M52.76 -53.35 C59.68 -55.03, 70.36 -57.11, 81.93 -59.82 M52.12 -51.86 C61.15 -54.95, 71.7 -56.71, 80.82 -60.37" stroke="#000000" stroke-width="1" fill="none"></path></g></g><mask></mask><g stroke-linecap="round"><g transform="translate(218.9804905475994 234.0650495024529) rotate(0 38.23115786102585 -14.154281038762974)"><path d="M0.06 -0.85 C12.87 -5.89, 64.6 -24.86, 77.82 -29.62 M-1.36 1.31 C11.15 -3.61, 63.15 -23.35, 76.58 -28.27" stroke="#000000" stroke-width="1" fill="none"></path></g><g transform="translate(218.9804905475994 234.0650495024529) rotate(0 38.23115786102585 -14.154281038762974)"><path d="M52.35 -9.73 C61.83 -14.57, 70.88 -23.23, 77.19 -27.97 M53.84 -9.41 C58.03 -11.77, 63.6 -17.21, 76.64 -28.58" stroke="#000000" stroke-width="1" fill="none"></path></g><g transform="translate(218.9804905475994 234.0650495024529) rotate(0 38.23115786102585 -14.154281038762974)"><path d="M45.16 -28.95 C57.49 -26.42, 69.3 -27.72, 77.19 -27.97 M46.65 -28.63 C52.24 -27.03, 59.27 -28.55, 76.64 -28.58" stroke="#000000" stroke-width="1" fill="none"></path></g></g><mask></mask><g stroke-linecap="round" transform="translate(302.4997670421644 15.409287783702894) rotate(0 30.92578125 27.623046875)"><path d="M-0.95 -0.58 C23.43 0.16, 43.98 1.05, 62.15 -1.92 M-0.64 -0.46 C17.18 0.42, 32.03 0.02, 61.54 -0.08 M63.35 1.79 C63.08 20.44, 62.17 42.1, 63.32 56.03 M62.01 -0.25 C61.82 18.92, 61.07 37.81, 62.52 56.05 M61.7 54.91 C39.66 53.5, 22.28 56.69, 0.76 53.95 M61.45 54.39 C38.79 55.97, 15.88 55.83, -0.08 54.85 M-0.39 54.47 C-0.46 43.4, 0.96 29.74, 0.03 -0.87 M-0.6 55.92 C0.1 41.57, -0.26 26.52, 0.81 0.13" stroke="#000000" stroke-width="1" fill="none"></path></g><g stroke-linecap="round" transform="translate(797.5141169162935 141.1217236780558) rotate(0 30.92578125 27.623046875)"><path d="M0 0 C0 0, 0 0, 0 0 M0 0 C0 0, 0 0, 0 0 M-0.68 6.17 C2.3 3.49, 3.68 2.62, 5.22 0.55 M-0.21 6.07 C1.34 4.44, 3.16 2.23, 4.95 0.25 M1.01 12.01 C3.24 8.08, 7.76 2.65, 10.82 1.32 M0.15 11.93 C2.96 9.11, 5.21 5.84, 10.49 0.18 M0.37 20.06 C2.61 14.94, 8.25 8.38, 14.08 -0.42 M0.87 19.06 C4.34 11.96, 10.77 5.11, 15.97 -0.26 M-0.04 23.25 C9.24 15.45, 18.61 6.33, 19.68 0.74 M0.48 23.27 C5.99 19.31, 9.05 12.75, 21.42 -0.18 M1.06 28.75 C6.67 26.05, 12.93 16.06, 25.49 -0.02 M-0.41 30.86 C7.41 22.28, 14.72 13.31, 25.33 -0.11 M-0.83 38.7 C6.96 28.09, 14.27 19.31, 30.67 -0.83 M-0.26 37.33 C6.18 29.1, 12.4 21.96, 31.26 0.86 M0.99 40.77 C11.52 29.74, 23.23 15.77, 35.11 -0.45 M0.58 42.95 C15.09 25.6, 28.8 7.7, 36.6 -0.44 M-0.88 48.73 C9.25 38.1, 19.12 26.3, 43.41 -0.02 M0.06 49.39 C15.22 31.23, 30.1 13.34, 43.1 -0.01 M-0.66 53.52 C11.22 43.17, 21.89 31.02, 48.25 1.34 M0.16 53.77 C17.93 34.52, 35.98 13.39, 47.67 -0.25 M2.69 56.51 C13.67 44.56, 25.93 32.7, 54.42 0.73 M2.47 58.01 C17.7 38.47, 34.24 21.74, 52.84 -0.68 M8.13 57.89 C27.07 37.49, 45.65 16.09, 58.16 -0.09 M7.29 58.2 C25.32 39.3, 40.23 21.63, 57.68 0.46 M12.02 56.95 C22.97 46.05, 33.15 35, 62.54 0.27 M12.57 56.96 C27.2 39.74, 43.22 23.57, 63.5 0.23 M17.24 56.37 C35.4 38.62, 53.38 18.65, 62.17 6.19 M19.57 56.7 C31.16 44.84, 42.01 31.68, 62.16 6.44 M22.08 57.58 C38.02 42.16, 50.31 28.6, 62.38 14.53 M23.1 57.07 C34.67 45.98, 44.26 35.35, 61.65 14.11 M28.12 58.99 C39.51 47.01, 47.76 36.49, 64.78 18.28 M29.99 58.2 C37.55 46.69, 48.09 36.96, 63.11 19.16 M35.7 56.42 C42.05 50.05, 48.34 42.07, 64.55 23.85 M33.93 57.12 C42.83 47.95, 52.93 37.15, 62.65 24.73 M39.83 57.28 C45.31 50.92, 52.24 44.23, 63.75 32.08 M39.94 57.08 C45.98 51.49, 51.4 44.81, 64.08 30.26 M45.67 57.01 C49.97 52.39, 53.93 45.36, 64.77 36.66 M45.2 57.87 C51.06 51.21, 56.45 45.01, 62.8 36.88 M52.24 57.31 C54.82 52.04, 59.57 49.58, 63.47 44.93 M51.48 57.22 C52.76 53.87, 57.07 51.65, 62.61 44.37 M56.31 58.14 C58.23 55.71, 60.24 51.72, 62.68 49.31 M56.08 57.37 C57.52 55.31, 59.26 53.26, 62.91 49.27" stroke="#15aabf" stroke-width="0.5" fill="none"></path><path d="M-1.8 1.14 C23.91 1.58, 45.79 -1.95, 61.68 -1.92 M-0.2 -0.09 C23.51 -0.17, 46.61 -0.54, 61.07 0.97 M60.82 1.58 C60.39 15.04, 61.12 30.8, 59.95 56.74 M62 -0.16 C61.96 16.59, 62.13 35.02, 62.53 54.95 M63.23 55.26 C37.07 53.55, 17.26 53.85, 1.09 53.27 M62.31 54.84 C36.68 54.26, 14.41 55.01, -0.93 55.48 M1.21 56.6 C2.34 41.04, -0.07 29.44, -1.74 1.38 M-0.81 54.84 C0.11 37, 0.9 17.2, -0.62 0.51" stroke="#000000" stroke-width="1" fill="none"></path></g><g transform="translate(807.4398981662935 156.2447705530558) rotate(0 21 12.5)"><text x="21" y="18" font-family="Virgil, Segoe UI Emoji" font-size="20px" fill="#000000" text-anchor="middle" style="white-space: pre;" direction="ltr">main</text></g><g stroke-linecap="round" transform="translate(790.2893840689676 72.578125) rotate(0 37.890625 101.01175772897386)"><path d="M0.88 1.82 C25.44 -2.14, 51.29 -2.35, 77.36 -1.31 M0.06 0.32 C28.46 0.02, 56.7 1.05, 75.65 -0.61 M74.77 -0.7 C74.49 75.09, 73.15 153.05, 75.98 203.51 M75.47 -0.54 C75.9 59.13, 76.67 116.85, 76.46 201.48 M74.27 200.91 C62.13 201.21, 45.66 200.05, 1.83 201.18 M74.83 201.11 C54.92 201.55, 31.18 201.95, -0.69 201.21 M1.7 200.71 C-1.56 145.68, -2.65 91.13, 0.72 0.13 M0.13 202.52 C2.31 151.03, 0.91 101.3, 0.1 0.65" stroke="#000000" stroke-width="1" fill="none"></path></g><g stroke-linecap="round" transform="translate(797.9519096837166 207.9194631760074) rotate(0 30.92578125 27.623046875)"><path d="M0 0 C0 0, 0 0, 0 0 M0 0 C0 0, 0 0, 0 0 M-0.95 6.48 C1.73 5.09, 2.55 3.48, 4.21 0.18 M-0.33 6.46 C1.05 4.49, 2.96 2.89, 5.29 -0.01 M0.46 12.12 C3.16 7.99, 8.94 3.1, 11.88 -1.57 M0.41 11.46 C3.63 8.25, 6.69 4.49, 10.67 -0.41 M1.14 18.4 C4.39 11.14, 9.21 7.57, 15.98 2.04 M-0.34 18.7 C5.14 11.68, 11.77 5.02, 16.01 1.25 M1.35 25.97 C7.83 15.54, 13.13 8.81, 21.25 0.22 M1.04 23.28 C6.93 16.28, 13.85 7.45, 20.93 0.22 M1.94 32.38 C7.76 18.93, 18.47 8.35, 26.88 2.05 M0.06 31.35 C5.77 21.62, 13.06 14.14, 25.26 0.1 M-0.19 35.53 C8.33 25.77, 16.13 15.17, 31.35 -1.22 M-0.42 35.88 C9.7 25.3, 19.82 14.92, 30.98 -0.16 M0.32 42.65 C12.29 26.33, 24.97 15.54, 35.79 2.17 M0.31 41.86 C11.61 27.63, 24.55 12.55, 36.37 -0.12 M-0.34 49.19 C9.85 37, 22.4 24.45, 43.56 1.17 M0.11 48.73 C13.18 33.78, 26.89 16.66, 41.57 -0.73 M-0.26 56.31 C10.96 41.36, 25.61 28.44, 47.3 0.59 M0.97 54.32 C14.57 39.18, 27.53 22.52, 46.69 -0.2 M1.85 58.5 C18.5 41.76, 34.54 23.12, 52.49 1.82 M1.74 57.93 C17.36 41.58, 30.74 26.09, 53.42 -0.79 M9.04 58.35 C23.26 40.63, 37.11 24.12, 56.53 1.49 M8.45 57.57 C18.54 45.12, 28.24 33.15, 59.08 -0.7 M13.11 57.21 C26.34 43.77, 36.95 30.73, 63.63 0.9 M12.4 58.09 C25.49 45.48, 36.51 32.77, 63.59 -0.13 M19.49 57.84 C29.11 45.97, 37.48 34.69, 61.24 7.79 M19.02 58.3 C34.96 37.91, 51 20.48, 62.94 7.89 M23.62 58.14 C33.28 48.13, 41.34 38.23, 62.8 12.1 M23.33 58.16 C33.18 46.8, 42.12 37.85, 61.93 13.81 M30.52 55.79 C38.68 50.46, 43.87 39.37, 64.92 20.07 M29.56 57.93 C41.72 44.59, 52.53 30.39, 62.41 19.05 M33.91 59.01 C43.45 47.85, 53.46 34.84, 64.35 25.91 M35.17 58.32 C41.85 50.09, 47.69 41.58, 62.26 26.18 M39.71 59.16 C45.42 50.59, 54.26 41.27, 62.88 31.14 M40.55 57.65 C46.64 51.01, 52.21 42.32, 63.36 31.74 M45.1 57.52 C49.15 53.04, 56 44.85, 64.38 37.4 M45.03 58 C50.68 51.45, 55.4 45.81, 62.6 37.49 M50.21 57.84 C57.03 53.11, 60.9 45.85, 63.61 45.59 M50.51 58.3 C55.9 52.4, 60.24 47.48, 61.98 43.3 M56.35 57.53 C57.5 54.55, 60.62 51.7, 63.07 49.67 M55.61 57.3 C58.44 54.77, 60.75 52.37, 62.77 49.91" stroke="#228be6" stroke-width="0.5" fill="none"></path><path d="M1.82 -0.29 C11.27 -0.44, 24.03 1.31, 60.54 1.58 M0.32 -0.28 C17.25 -0.82, 35.58 -0.18, 61.24 0.75 M61.07 -0.4 C61.44 11.83, 63.78 27.68, 63.51 55.04 M61.25 -0.18 C62.4 18.1, 61.46 35.6, 61.25 54.3 M60.74 57.19 C38.23 55.86, 14.26 56.61, -0.84 55.01 M60.94 56.22 C40.32 53.73, 19.35 53.96, -0.81 55.02 M-1.47 54.73 C-0.69 33.59, 1 16.2, 0.14 -0.99 M0.55 56.18 C-0.23 42.54, 0.74 31.18, 0.73 0.57" stroke="#000000" stroke-width="1" fill="none"></path></g><g transform="translate(818.3776909337166 223.0425100510074) rotate(0 10.5 12.5)"><text x="10.5" y="18" font-family="Virgil, Segoe UI Emoji" font-size="20px" fill="#000000" text-anchor="middle" style="white-space: pre;" direction="ltr">10</text></g><g stroke-linecap="round"><g transform="translate(844.9780497093279 234.5545566420169) rotate(0 25.73681171039948 -0.162182132854241)"><path d="M-0.17 -1.02 C8.61 -1.44, 44.13 -1.4, 53.19 -1.4 M-1.72 1.05 C6.84 1.26, 42.91 -0.27, 52.19 -0.46" stroke="#000000" stroke-width="1" fill="none"></path></g><g transform="translate(844.9780497093279 234.5545566420169) rotate(0 25.73681171039948 -0.162182132854241)"><path d="M25.75 9.28 C33.95 7.65, 43.07 4.25, 51.79 -0.65 M27.4 8.67 C35.98 6.34, 41.97 4.2, 51.68 0.32" stroke="#000000" stroke-width="1" fill="none"></path></g><g transform="translate(844.9780497093279 234.5545566420169) rotate(0 25.73681171039948 -0.162182132854241)"><path d="M25.17 -8.94 C33.73 -4.3, 43.06 -1.44, 51.79 -0.65 M26.82 -9.55 C35.63 -6.29, 41.81 -2.85, 51.68 0.32" stroke="#000000" stroke-width="1" fill="none"></path></g></g><mask></mask><g transform="translate(911.0993982147638 220.00131275614876) rotate(0 26.5 12.5)"><text x="0" y="18" font-family="Virgil, Segoe UI Emoji" font-size="20px" fill="#000000" text-anchor="start" style="white-space: pre;" direction="ltr">value</text></g><g stroke-linecap="round" transform="translate(513.262143342391 234.50535376033986) rotate(0 99 17.5)"><path d="M-1.92 1.58 C55.26 1.75, 112.73 -0.02, 198.13 0.63 M0.97 -0.14 C53.29 2.29, 107.3 2.33, 197.44 -0.39 M199.49 0.22 C199.51 9.6, 198.16 19.29, 197.31 33.8 M197.7 0.76 C197.62 8.93, 198.91 19.75, 197.25 34.44 M196.02 36.83 C118.47 35.84, 41.52 35.26, -1.91 33.18 M198.23 34.31 C118.41 32.94, 41.05 33.84, 0.95 34.27 M1.38 35.8 C0.2 24.42, -1.57 15, 0.3 1.11 M0.51 35.12 C0.89 21.8, 0.49 7.37, 0.85 -0.93" stroke="#000000" stroke-width="1" fill="none"></path></g><g transform="translate(580.262143342391 239.50535376033986) rotate(0 32 12.5)"><text x="32" y="18" font-family="Virgil, Segoe UI Emoji" font-size="20px" fill="#000000" text-anchor="middle" style="white-space: pre;" direction="ltr">&lt;main&gt;</text></g><g stroke-linecap="round" transform="translate(504.831776494565 183.01333609729772) rotate(0 105.961277173913 48.08084239130426)"><path d="M-1.15 1.39 C61.45 -1.64, 123.72 -0.92, 211.43 -0.1 M-0.54 0.66 C46.67 0.95, 93.74 -0.09, 211.75 -0.37 M213.58 -0.2 C212.95 19.39, 211.95 38.22, 211.56 97.43 M211.32 -0.94 C212.32 35.41, 210.88 70.25, 212.9 95.75 M211.18 95.95 C137.65 97.15, 60.09 96.27, 1.72 95.87 M211.21 95.96 C168.5 95.46, 124.83 94.22, -0.23 96.02 M0.14 95.17 C-2.28 74.84, -0.36 56.26, 1.87 -0.91 M0.73 96.74 C-0.16 73.21, 0.36 49.48, 0.71 -0.42" stroke="#000000" stroke-width="1" fill="none"></path></g><g stroke-linecap="round" transform="translate(512.892747961957 194.0480677549058) rotate(0 99 17.5)"><path d="M1.58 -0.4 C40.18 1.43, 81.37 0.74, 197.89 -1.55 M0.75 -0.51 C79.49 0.66, 157.01 1.02, 197.58 -0.95 M197.8 0.31 C197.71 12.42, 196.84 25.87, 199.27 36.36 M197.06 0.69 C198.27 8.7, 197.71 19.89, 197.59 35.54 M197.76 35.91 C157.35 32.26, 116.51 36.13, -0.33 33.15 M197.78 35.61 C134.65 34.34, 69.21 33.13, -0.16 34.13 M-0.99 33.38 C-0.96 22.39, 0.97 11.06, -0.91 -1.24 M0.57 35.33 C-0.11 23.56, -0.97 11.15, -0.42 -0.16" stroke="#000000" stroke-width="1" fill="none"></path></g><g transform="translate(539.892747961957 199.0480677549058) rotate(0 72 12.5)"><text x="72" y="18" font-family="Virgil, Segoe UI Emoji" font-size="20px" fill="#000000" text-anchor="middle" style="white-space: pre;" direction="ltr">block in &lt;main&gt;</text></g><g stroke-linecap="round"><g transform="translate(710.285028872283 224.09052699403583) rotate(0 39.67042034630367 -44.03610149437168)"><path d="M-0.24 -0.11 C13.42 -14.61, 67.67 -71.64, 81.17 -86.04 M-1.83 -1.22 C11.75 -16.17, 66.65 -73.96, 80.26 -87.96" stroke="#000000" stroke-width="1" fill="none"></path></g><g transform="translate(710.285028872283 224.09052699403583) rotate(0 39.67042034630367 -44.03610149437168)"><path d="M67.97 -60.38 C71.42 -67.48, 73.51 -74.91, 82.21 -88.23 M68.95 -61.07 C70.45 -67.19, 73.31 -74.49, 81.01 -87.85" stroke="#000000" stroke-width="1" fill="none"></path></g><g transform="translate(710.285028872283 224.09052699403583) rotate(0 39.67042034630367 -44.03610149437168)"><path d="M53.16 -74.58 C60.19 -78.32, 65.76 -82.42, 82.21 -88.23 M54.14 -75.27 C59.28 -77.93, 65.67 -81.84, 81.01 -87.85" stroke="#000000" stroke-width="1" fill="none"></path></g></g><mask></mask><g stroke-linecap="round"><g transform="translate(712.4206654796644 267.1363385649529) rotate(0 40.483776714987926 -30.751749405451164)"><path d="M-0.33 -0.07 C12.83 -10.12, 65.71 -49.63, 79.08 -59.93 M1.69 -1.15 C15.22 -11.53, 68.42 -51.48, 81.3 -61.44" stroke="#000000" stroke-width="1" fill="none"></path></g><g transform="translate(712.4206654796644 267.1363385649529) rotate(0 40.483776714987926 -30.751749405451164)"><path d="M64.96 -37.76 C71.91 -44.17, 73.71 -50.12, 80.27 -59.86 M64.65 -37.16 C69.88 -42.22, 73.91 -48.58, 81.45 -61.6" stroke="#000000" stroke-width="1" fill="none"></path></g><g transform="translate(712.4206654796644 267.1363385649529) rotate(0 40.483776714987926 -30.751749405451164)"><path d="M52.54 -54.09 C63.35 -55.46, 68.95 -56.41, 80.27 -59.86 M52.23 -53.49 C60.42 -54.54, 67.49 -56.92, 81.45 -61.6" stroke="#000000" stroke-width="1" fill="none"></path></g></g><mask></mask><g stroke-linecap="round"><g transform="translate(713.8122670421644 234.0650495024529) rotate(0 39.001706907125254 -14.121276784958127)"><path d="M-0.07 -0.93 C13.13 -5.78, 66.61 -24.86, 79.56 -29.44 M-1.56 1.19 C11.55 -3.44, 65.61 -22.75, 79.23 -27.98" stroke="#000000" stroke-width="1" fill="none"></path></g><g transform="translate(713.8122670421644 234.0650495024529) rotate(0 39.001706907125254 -14.121276784958127)"><path d="M54.78 -6.65 C63.71 -16.25, 73.08 -22.48, 80.81 -29.11 M55.38 -7.86 C62.45 -12.73, 68.21 -18.46, 79.07 -28.33" stroke="#000000" stroke-width="1" fill="none"></path></g><g transform="translate(713.8122670421644 234.0650495024529) rotate(0 39.001706907125254 -14.121276784958127)"><path d="M47.68 -25.91 C58.91 -29.11, 70.64 -28.95, 80.81 -29.11 M48.28 -27.11 C57.16 -26.94, 64.77 -27.64, 79.07 -28.33" stroke="#000000" stroke-width="1" fill="none"></path></g></g><mask></mask><g stroke-linecap="round" transform="translate(796.4184575992294 80.1260846587029) rotate(0 30.92578125 27.623046875)"><path d="M1.95 -0.27 C15.61 1.99, 32.65 2.06, 60.73 -0.78 M0.75 0.11 C18.16 0.49, 34.81 0.43, 61.5 -0.6 M61.25 1.53 C60.99 13.7, 63.58 31.18, 60.34 54.13 M60.86 0.91 C61.21 21.84, 62.08 43.51, 60.9 54.34 M62.32 53.86 C35.62 54.22, 13.85 56.03, 1.89 53.78 M62.54 55.65 C44.97 54.21, 27.14 54.3, 0.15 55.8 M1.02 55.48 C1.71 34.65, 0.91 11.6, 1.69 -1.86 M-0.29 54.34 C-0.46 35.6, 0.09 14.82, -0.64 -0.64" stroke="#000000" stroke-width="1" fill="none"></path></g><g stroke-linecap="round"><g transform="translate(712.6638295421644 194.2603620024529) rotate(0 38.81168151542556 -28.09640320379299)"><path d="M0.58 0.34 C13.15 -8.81, 63.13 -45.46, 75.98 -54.84 M-0.58 -0.53 C12.32 -10.02, 65.23 -47.48, 78.2 -56.53" stroke="#000000" stroke-width="1" fill="none"></path></g><g transform="translate(712.6638295421644 194.2603620024529) rotate(0 38.81168151542556 -28.09640320379299)"><path d="M61.62 -33.46 C68.33 -39.24, 72.36 -48.66, 79.23 -54.85 M61.34 -32.57 C66.85 -40.16, 71.38 -47.48, 79.13 -56.27" stroke="#000000" stroke-width="1" fill="none"></path></g><g transform="translate(712.6638295421644 194.2603620024529) rotate(0 38.81168151542556 -28.09640320379299)"><path d="M49.81 -50.24 C60.59 -50.29, 68.69 -53.94, 79.23 -54.85 M49.53 -49.35 C58.79 -51.72, 67.03 -53.77, 79.13 -56.27" stroke="#000000" stroke-width="1" fill="none"></path></g></g><mask></mask></svg>