<svg version="1.1" xmlns="http://www.w3.org/2000/svg" viewBox="0 0 333.4299195786547 150.1162109375" width="333.4299195786547" height="150.1162109375">
  <!-- svg-source:excalidraw -->
  
  <defs>
    <style class="style-fonts">
      @font-face {
        font-family: "Virgil";
        src: url("https://excalidraw.com/Virgil.woff2");
      }
      @font-face {
        font-family: "Cascadia";
        src: url("https://excalidraw.com/Cascadia.woff2");
      }
    </style>
  </defs>
  <rect x="0" y="0" width="333.4299195786547" height="150.1162109375" fill="#ffffff"></rect><g stroke-linecap="round" transform="translate(84.01683364115468 79.2451171875) rotate(0 30.92578125 27.623046875)"><path d="M0 0 C0 0, 0 0, 0 0 M0 0 C0 0, 0 0, 0 0 M-0.45 6.12 C1.68 4.62, 1.4 4.53, 4.72 0.3 M-0.39 6.03 C1.56 4.94, 2.46 3.28, 4.6 0.57 M1 12.26 C1.63 9.86, 6 6.29, 11.78 -0.87 M-0.51 11.85 C3.88 8.29, 6.64 4.88, 11.08 0.5 M1.16 16.72 C4.97 10.63, 10.96 4.93, 14.89 1.97 M0.85 19.08 C3.15 13.17, 6.76 9.95, 15.79 -0.08 M-1.45 22.65 C5.27 15.85, 12.46 8.84, 20.53 1.32 M1.1 23.33 C6.11 18.7, 12.2 10.66, 21.96 0.17 M0.29 30.04 C11.83 18.85, 18.8 5.59, 27.98 -1.61 M-0.18 31.39 C8.45 19.68, 16.97 10.77, 26.08 -0.4 M0.63 35.48 C11.29 24.93, 18.94 12.26, 30.03 1.64 M-0.14 37.38 C6.78 29.24, 13.87 19.92, 32.88 -0.2 M0.52 42.17 C9.97 33.93, 16.37 22.98, 35.36 -1.64 M0 41.52 C10.64 30.93, 19.28 19.93, 35.97 -0.56 M0.93 47.82 C10.56 33.92, 26.12 19.13, 43.1 0.26 M0.84 48.15 C9.4 37.73, 18.98 25.06, 42.03 -1.09 M0.77 55.11 C13.41 38.79, 27.62 22.78, 48.85 -0.75 M0.26 55.05 C13.19 37.19, 27.22 21.25, 47.29 -0.01 M1.59 56.38 C15.99 42.94, 25.82 29.53, 51.31 1.03 M2.61 58.12 C17.95 40.03, 34.45 21.37, 53.71 0.45 M8.87 57.29 C22.92 42.62, 32.24 27.88, 58.27 0.88 M7.59 58.05 C24.06 38.39, 41.23 19.5, 57.56 -0.21 M14.08 56.58 C22.71 47.25, 33.32 33.11, 64.6 2.01 M12.8 57.99 C31.47 35.82, 49.34 15.98, 62.82 0.6 M18.52 57.67 C27.95 44.38, 41.15 34.04, 63.59 6.34 M19.1 58.17 C30.24 45.35, 39.05 34.52, 63.18 7.23 M24.75 59.4 C37.38 40.89, 52.4 24.47, 60.76 15.31 M24.61 58.58 C36.02 43.17, 48.76 29.32, 63.29 13.64 M31.12 57.69 C42.12 43.05, 55.75 30.22, 62.02 20.9 M28.75 57.58 C38.24 45.53, 49.08 34.16, 63.47 18.37 M33.89 57.24 C41.69 47.05, 50.71 37.78, 61.61 26.34 M34.89 57.66 C40.24 51.83, 45.34 44.69, 63.26 26.21 M41.71 57.22 C48.64 47.08, 57.77 38.61, 62.06 30.5 M40.37 57.95 C49.42 48, 58.61 37.24, 63.78 30.54 M45.78 58.95 C50.82 48.63, 59.3 41.03, 62.19 37.59 M45.18 58.02 C49 53.74, 53.23 48.47, 63.34 38.05 M50.4 55.78 C52.63 56.09, 55.47 50.11, 61.2 45.42 M50.08 56.53 C53.72 53.77, 56.32 51.31, 61.99 43.19 M55.23 56.72 C57.8 54.85, 60.31 53.03, 62.02 48.79 M55.24 58.16 C58.54 55.01, 61.1 51.89, 62.45 49.03" stroke="#40c057" stroke-width="0.5" fill="none"></path><path d="M-1.01 -0.32 C19.22 2.16, 39.98 0.82, 60.06 1.46 M-0.64 0.98 C15.12 -0.63, 29.6 -0.62, 62.79 0.09 M61.16 1.38 C61.3 13.6, 62.6 23.22, 61.96 54.26 M61.19 0.43 C61.93 19.33, 62.17 38.05, 61.55 54.48 M60.37 56.42 C38.94 55.81, 18.58 54.34, -0.14 54.94 M60.87 55.55 C45.8 54.69, 28.21 55.34, -0.33 54.96 M0.14 56.77 C0.57 43.46, -1.7 27.79, 0.19 -1.71 M0.53 55.95 C0.61 43.98, 0.39 31.45, -0.92 0.56" stroke="#000000" stroke-width="1" fill="none"></path></g><g transform="translate(101.44261489115468 94.3681640625) rotate(0 13.5 12.5)"><text x="13.5" y="18" font-family="Virgil, Segoe UI Emoji" font-size="20px" fill="#000000" text-anchor="middle" style="white-space: pre;" direction="ltr">"!!"</text></g><g stroke-linecap="round" transform="translate(82.15062270365468 15.330078125) rotate(0 30.92578125 27.623046875)"><path d="M-1.18 1.71 C13.27 0.47, 26.38 1.56, 60.53 -1.13 M0.66 -0.95 C16.01 -1.55, 31.59 -0.52, 61.01 -0.65 M61.66 1.67 C62.77 17.71, 61.77 35.71, 62.58 55.27 M61.92 0.74 C61.8 14.03, 61.18 25.55, 62.26 54.79 M60.04 56.28 C46.92 55.18, 34.03 55.3, -0.51 55.1 M62.78 55.17 C48.37 56, 33.95 55.14, -0.53 55.51 M0.71 57.1 C-1.59 43.72, 0.15 30.84, -1.63 -1.73 M0.13 56.03 C-0.38 39.11, -1.21 22.88, -0.92 -0.66" stroke="#000000" stroke-width="1" fill="none"></path></g><g stroke-linecap="round" transform="translate(76.20238051615468 10) rotate(0 37.556640625 65.05810546875)"><path d="M1.71 -0.81 C19.13 -1.35, 38.97 -0.88, 73.98 -1.04 M-0.95 0.69 C16.75 0.44, 35.48 -1.34, 74.46 0.32 M76.78 1.11 C75.37 34.63, 75.02 69.77, 75.14 128.88 M75.85 0.31 C76.54 30.08, 74.91 61.17, 74.65 129.35 M76.15 129.03 C57.73 129.3, 40.9 128.92, -0.15 128.57 M75.03 130.42 C60.54 130.48, 44.54 130.28, 0.26 129.17 M1.86 128.57 C-1.17 90.38, -2.71 48.64, -1.73 -0.04 M0.79 130.03 C-0.59 83.23, -0.36 37.27, -0.66 -0.35" stroke="#000000" stroke-width="1" fill="none"></path></g><g stroke-linecap="round"><g transform="translate(9.890019450169063 44.923828125) rotate(0 31.60348826115019 -0.9030101460405149)"><path d="M1.03 -0.49 C11.58 -0.53, 52.64 -0.95, 63.1 -0.99 M0.11 -1.79 C10.54 -1.66, 51.71 -0.35, 62.27 -0.02" stroke="#000000" stroke-width="1" fill="none"></path></g><g transform="translate(9.890019450169063 44.923828125) rotate(0 31.60348826115019 -0.9030101460405149)"><path d="M32.96 9.73 C40.13 7.91, 48.7 2.65, 61.22 -1.31 M34.46 8.41 C46 5.98, 55.57 1.51, 62.59 -0.36" stroke="#000000" stroke-width="1" fill="none"></path></g><g transform="translate(9.890019450169063 44.923828125) rotate(0 31.60348826115019 -0.9030101460405149)"><path d="M33.6 -10.78 C40.47 -6.77, 48.85 -6.19, 61.22 -1.31 M35.1 -12.1 C46.52 -6.36, 55.84 -2.67, 62.59 -0.36" stroke="#000000" stroke-width="1" fill="none"></path></g></g><mask></mask><g stroke-linecap="round" transform="translate(255.98460707865468 75.8271484375) rotate(0 30.92578125 27.623046875)"><path d="M0.38 -1.79 C16.37 -1.08, 28.7 -0.79, 60.56 1.97 M-0.94 0.94 C22.75 -1.27, 44.68 -0.1, 61.5 0.69 M61.21 0.11 C61.32 16.79, 62.34 30.88, 60.52 56.11 M62.72 -0.3 C61.49 17.36, 61.8 33.14, 61.11 55.83 M61.42 55.11 C48.6 54.4, 35.82 53.37, -1.97 55.85 M62.42 54.92 C37.29 54.9, 13.57 54.49, 0.07 56.01 M-0.17 55.43 C-2.23 35.06, -2.24 18.11, 1.07 1.41 M0.33 54.33 C0.12 37.04, -1.1 20.31, -0.4 -0.17" stroke="#000000" stroke-width="1" fill="none"></path></g><g stroke-linecap="round" transform="translate(248.31663832865468 71.13671875) rotate(0 37.556640625 32.78076171875)"><path d="M-1.79 1.46 C27.65 -1.27, 56.9 -1.43, 77.08 1.33 M0.94 0.09 C14.52 0.05, 31.04 0.36, 75.8 -0.09 M75.23 -0.99 C76.21 25.18, 74.24 48.97, 75.98 65.7 M74.81 -0.77 C75.73 24.03, 74.56 48.23, 75.7 64.65 M74.98 65.26 C48.17 65.25, 20.71 63.43, 0.6 67.41 M74.79 65.27 C52.64 66.25, 30.29 66.06, 0.76 65.92 M0.19 63.85 C-1.13 38.08, 0.47 15.12, 1.41 0.26 M-0.92 66.12 C-0.86 40.06, -0.29 15.48, -0.17 0.81" stroke="#000000" stroke-width="1" fill="none"></path></g><g stroke-linecap="round"><g transform="translate(193.71549330883556 104.23974609375) rotate(0 27.202488502673816 -0.07752580158421551)"><path d="M-1.07 0.87 C7.87 0.67, 44.11 -0.7, 53.18 -1.03 M0.56 0.29 C9.93 0.2, 46.86 0.24, 55.48 0.15" stroke="#000000" stroke-width="1" fill="none"></path></g><g transform="translate(193.71549330883556 104.23974609375) rotate(0 27.202488502673816 -0.07752580158421551)"><path d="M31.61 8.15 C35.57 6.24, 41.98 6.83, 56.81 -1.76 M30.24 8.64 C38.93 6.12, 48.58 3.05, 55.39 0.99" stroke="#000000" stroke-width="1" fill="none"></path></g><g transform="translate(193.71549330883556 104.23974609375) rotate(0 27.202488502673816 -0.07752580158421551)"><path d="M31.54 -10.31 C35.56 -7.43, 41.99 -2.05, 56.81 -1.76 M30.17 -9.83 C38.71 -5.53, 48.38 -1.8, 55.39 0.99" stroke="#000000" stroke-width="1" fill="none"></path></g></g><mask></mask></svg>