<svg version="1.1" xmlns="http://www.w3.org/2000/svg" viewBox="0 0 321.86176759756074 150.1162109375" width="321.86176759756074" height="150.1162109375">
  <!-- svg-source:excalidraw -->
  
  <defs>
    <style class="style-fonts">
      @font-face {
        font-family: "Virgil";
        src: url("https://excalidraw.com/Virgil.woff2");
      }
      @font-face {
        font-family: "Cascadia";
        src: url("https://excalidraw.com/Cascadia.woff2");
      }
    </style>
  </defs>
  <rect x="0" y="0" width="321.86176759756074" height="150.1162109375" fill="#ffffff"></rect><g stroke-linecap="round" transform="translate(244.56293947256074 79.2451171875) rotate(0 30.92578125 27.623046875)"><path d="M0 0 C0 0, 0 0, 0 0 M0 0 C0 0, 0 0, 0 0 M-0.4 6.82 C1.12 3.95, 3.81 2.63, 4.97 0.68 M-0.55 6.26 C0.78 4.53, 2.3 3.42, 5.37 0.31 M0.82 12.91 C5.46 9.15, 9.18 1.7, 11.75 -0.04 M0.14 11.57 C3.23 8.02, 7.81 3.48, 10.58 -0.54 M-1.92 18.95 C4.92 11.73, 9.03 7.51, 16.58 1.46 M0.7 17.48 C4.88 13.05, 9.6 7.22, 16.22 1.12 M-0.63 24.07 C3.3 20.89, 9.65 13.22, 21.11 0.56 M0.05 23.29 C6.28 17.2, 13.74 8.32, 22.03 -1.05 M0.02 29.82 C7.49 22.15, 14.74 15.18, 24.45 1.47 M0.17 30.44 C8.65 20.91, 16.22 10.45, 26.34 -0.47 M-0.36 38.12 C8.15 26.8, 17.53 14.42, 30.28 1.42 M-0.93 36.26 C8.03 28.12, 15.03 18.35, 31.75 0.47 M-0.44 43.4 C12.68 28.08, 21.66 14.73, 35.26 0.38 M0.71 41.74 C9.53 32.27, 17.99 22.97, 36.79 0.98 M-1.77 50.58 C18.02 28.76, 30.82 9.53, 41.53 0.7 M-0.19 48.53 C8.96 38.25, 17.81 27.93, 42.94 -0.48 M-0.93 55.48 C11.45 42.34, 25.59 25.66, 48.79 0.85 M0.35 55.22 C18.33 34.69, 36.32 14.48, 48.28 0.47 M1.22 59.48 C21.12 37.5, 38.37 16.64, 54.88 -0.95 M1.75 57.06 C19.06 38.83, 35.13 18.85, 52.55 -0.25 M6.81 59.27 C16.86 44.68, 29.27 32.66, 59.81 -0.99 M8.73 57.64 C26.25 36.47, 45.99 14.92, 58.75 -0.46 M13.03 56.53 C30.65 34.97, 48.7 16.14, 61.71 2.32 M12.9 57.53 C25.1 42.91, 39.26 27.95, 63.61 0.6 M17.96 55.55 C35.72 38.38, 50.01 21.63, 62.24 5.24 M19.11 57.9 C30.87 44.52, 43.8 30.6, 62.49 6.03 M21.98 56 C38.41 40.21, 50.91 25.39, 62.29 13.43 M24.39 58.22 C37.06 43.82, 49.94 27.26, 61.71 14.06 M28.36 56.54 C42.7 41.64, 56.11 26.48, 64.24 19.09 M29.09 57.89 C43.55 42.66, 54.9 27.76, 62.23 18.01 M35.3 56.58 C45.49 46.67, 55.07 34.59, 61.88 23.58 M34.43 56.91 C41.13 50, 47.25 43.45, 62.16 24.99 M40.51 55.91 C43.85 49.62, 52.03 46.01, 62.29 31.83 M39.64 57.5 C46.8 49.57, 52.06 43.83, 62.19 31.26 M45.24 56.43 C52.73 51.08, 57.06 44.53, 63.96 36.06 M45.5 56.84 C48.74 52.48, 52.71 48.37, 62.18 37.88 M50.9 57.76 C52.65 55.34, 58.08 51.42, 62.64 42.36 M51.4 56.71 C54.44 53.45, 58.7 48.18, 62.61 44.11 M55.41 58.54 C57.55 56.64, 59.1 53.46, 63.95 49.67 M55.51 57.79 C57.48 55.84, 59.6 53.91, 62.68 49.46" stroke="#228be6" stroke-width="0.5" fill="none"></path><path d="M-0.1 0.42 C14.41 0.91, 26.61 -0.26, 60.96 0.84 M0.9 -0.88 C18.51 -0.85, 37.65 0.83, 61.58 0.7 M61.04 1.29 C62.95 13.89, 64.12 28.63, 62.73 55.12 M61.8 -0.65 C61.38 12.4, 60.83 26.87, 62.36 55.4 M62.63 55.69 C41.4 54.03, 23.16 55.01, -1.06 54.34 M61.62 55.02 C41.05 54.56, 20.34 55.53, 0.8 54.55 M0.08 55.36 C1.39 44.35, 0.03 30.66, -0.52 -1.53 M-0.08 54.27 C0.21 33.19, -0.82 12.22, -0.07 -0.52" stroke="#000000" stroke-width="1" fill="none"></path></g><g transform="translate(268.48872072256074 94.3681640625) rotate(0 7 12.5)"><text x="7" y="18" font-family="Virgil, Segoe UI Emoji" font-size="20px" fill="#000000" text-anchor="middle" style="white-space: pre;" direction="ltr">5</text></g><g stroke-linecap="round" transform="translate(242.69672853506074 15.330078125) rotate(0 30.92578125 27.623046875)"><path d="M1.06 1.16 C20.96 -0.14, 41.23 0.71, 61.94 -1.26 M-0.33 -0.88 C18.26 1.35, 36.31 1.24, 61.43 0.51 M62.67 -0.34 C63.62 21.44, 62.5 42.43, 60.54 54.83 M61.49 -0.54 C60.91 13.69, 62.33 25.55, 61.97 55.75 M60.67 54.51 C47.93 55.63, 33.28 54.48, 0.56 57.22 M61.35 54.73 C44.09 55.56, 28.94 54.41, -0.74 54.4 M0.92 56.85 C-0.46 41.71, -0.54 25.84, 1.8 0.86 M0.44 54.72 C-0.54 38.08, -0.02 20.3, 0.8 -0.85" stroke="#000000" stroke-width="1" fill="none"></path></g><g stroke-linecap="round" transform="translate(236.74848634756074 10) rotate(0 37.556640625 65.05810546875)"><path d="M1.16 -0.1 C22.15 -1.29, 45.17 -0.31, 73.85 -0.09 M-0.88 -0.03 C30.09 -0.02, 59.27 -0.18, 75.62 0.85 M74.77 1.99 C76.12 34.63, 75.83 66.2, 74.69 128.71 M74.57 -0.91 C75.26 38.82, 74.42 76.75, 75.62 129.34 M74.38 129.96 C49.91 128.61, 23.31 130.24, 1.98 129.57 M74.59 129.2 C54.76 130.53, 32.81 129, -0.85 129.64 M1.6 129.68 C0.34 90.03, -1.6 52.77, 0.86 0.23 M-0.52 129.53 C1.32 92.1, 0.75 55.01, -0.85 -0.43" stroke="#000000" stroke-width="1" fill="none"></path></g><g stroke-linecap="round"><g transform="translate(170.4361252815753 44.923828125) rotate(0 31.23518562038427 -0.17003739523852346)"><path d="M0.7 -0.06 C11.13 -0.24, 52.42 -0.49, 62.86 -0.45 M-0.39 -1.14 C9.86 -1.22, 51.37 0.37, 61.91 0.8" stroke="#000000" stroke-width="1" fill="none"></path></g><g transform="translate(170.4361252815753 44.923828125) rotate(0 31.23518562038427 -0.17003739523852346)"><path d="M33.24 9.95 C41.58 7.7, 51.73 2.65, 61.83 2.6 M33.32 10.77 C39.15 8.97, 45.05 6.84, 62.76 0.4" stroke="#000000" stroke-width="1" fill="none"></path></g><g transform="translate(170.4361252815753 44.923828125) rotate(0 31.23518562038427 -0.17003739523852346)"><path d="M34.04 -10.55 C42.22 -6.22, 52.12 -4.68, 61.83 2.6 M34.11 -9.74 C39.71 -7.2, 45.44 -4.98, 62.76 0.4" stroke="#000000" stroke-width="1" fill="none"></path></g></g><mask></mask><g stroke-linecap="round" transform="translate(72.80512697256074 79.2451171875) rotate(0 30.92578125 27.623046875)"><path d="M-0.01 -0.89 C22.67 0.12, 42.38 -0.05, 63.65 -1.77 M0.8 -0.27 C17.23 -0.41, 33.57 0.87, 61.45 0.64 M62.02 0.88 C61.63 17.52, 61.34 36.27, 61.74 53.94 M62.84 0.5 C61.71 14.72, 62.06 28.43, 62.24 55.47 M62.09 54.18 C46.04 55.76, 34.02 54.65, -0.46 54.79 M62.3 56.04 C45.72 53.94, 30.13 54.2, 0.04 55.3 M0.41 54.73 C-1.97 37.93, 0.42 17.24, -0.17 -1.96 M0.05 55.18 C-0.23 37.02, -0.56 16.77, 0.55 0.6" stroke="#000000" stroke-width="1" fill="none"></path></g><g stroke-linecap="round" transform="translate(65.13715822256074 74.5546875) rotate(0 37.556640625 32.78076171875)"><path d="M-0.89 0.84 C27 -1.26, 53.72 1.8, 73.35 -0.66 M-0.27 0.7 C15.52 -0.09, 32.73 -1.01, 75.76 0.41 M75.99 -0.12 C74.45 18.12, 74.36 36.97, 73.81 64.85 M75.62 0.16 C74.63 16.64, 73.74 32.65, 75.34 64.97 M74.05 64.66 C55.9 67.63, 35.01 65.19, -0.46 64.55 M75.91 64.87 C55.74 65.05, 37.37 65.94, 0.06 66.02 M-0.52 64.03 C1.94 41.5, 0.37 15.55, -1.96 0.89 M-0.07 65.04 C1.18 48.47, -0.04 33.63, 0.6 -0.26" stroke="#000000" stroke-width="1" fill="none"></path></g><g stroke-linecap="round"><g transform="translate(10.536013202741742 107.65771484375) rotate(0 26.749664975330234 -0.3016125213173382)"><path d="M-0.54 0.51 C8.48 0.32, 44.96 -1.15, 54.04 -1.11 M1.38 -0.27 C10.25 -0.32, 44.49 0.16, 53.12 0.03" stroke="#000000" stroke-width="1" fill="none"></path></g><g transform="translate(10.536013202741742 107.65771484375) rotate(0 26.749664975330234 -0.3016125213173382)"><path d="M28.59 9.32 C33.96 6.54, 44.5 2.15, 52.46 -1.73 M28.44 8.81 C35.71 7.42, 42.33 4.48, 53.53 -0.14" stroke="#000000" stroke-width="1" fill="none"></path></g><g transform="translate(10.536013202741742 107.65771484375) rotate(0 26.749664975330234 -0.3016125213173382)"><path d="M28.61 -9.14 C33.98 -6.47, 44.51 -5.42, 52.46 -1.73 M28.46 -9.66 C35.88 -5.56, 42.49 -3.02, 53.53 -0.14" stroke="#000000" stroke-width="1" fill="none"></path></g></g><mask></mask></svg>