<svg version="1.1" xmlns="http://www.w3.org/2000/svg" viewBox="0 0 333.1332510341283 231.21484375" width="333.1332510341283" height="231.21484375">
  <!-- svg-source:excalidraw -->
  
  <defs>
    <style class="style-fonts">
      @font-face {
        font-family: "Virgil";
        src: url("https://excalidraw.com/Virgil.woff2");
      }
      @font-face {
        font-family: "Cascadia";
        src: url("https://excalidraw.com/Cascadia.woff2");
      }
    </style>
  </defs>
  <rect x="0" y="0" width="333.1332510341283" height="231.21484375" fill="#ffffff"></rect><g stroke-linecap="round" transform="translate(82.41639029596934 160.22265625) rotate(0 30.92578125 27.623046875)"><path d="M0 0 C0 0, 0 0, 0 0 M0 0 C0 0, 0 0, 0 0 M-0.06 6.44 C2.39 4.3, 3.51 1.82, 4.86 1.06 M-0.5 6.39 C1.5 4.54, 3.47 2.1, 4.89 0.21 M0.56 13.64 C4.68 6.8, 6.87 1.83, 9.52 1.55 M0.01 12.8 C3.65 8.67, 5.38 5.95, 9.84 -0.09 M-1.84 18.13 C3.08 14.06, 5.9 8.88, 14.04 -0.03 M-0.98 19.25 C5.52 12.48, 9.96 6.75, 15.07 -0.51 M1.65 25.07 C7.27 15.89, 13.16 9.97, 21.66 -0.78 M-0.69 24.32 C6.94 17.68, 12.11 10.99, 22.17 -0.84 M-1.22 31.76 C10.59 18.98, 19.52 8.69, 24.81 -0.02 M-0.7 30.46 C5.4 23.29, 12.07 16.49, 26.75 0.05 M0.88 38.07 C9.72 27.76, 16.89 15.78, 31.91 -0.63 M0.18 37.85 C10.68 25.93, 20.49 13.5, 31.34 0.19 M1.36 42.71 C13.59 25.73, 26.76 11.93, 38.22 -1.02 M0.76 43.12 C13.77 26.17, 28.95 8.78, 36.79 0.75 M-1.86 47.12 C15.68 30.24, 31.94 14.69, 43.45 0.49 M0.3 49.76 C15.84 28.44, 33.87 10.75, 42.31 0.18 M-1.4 55.82 C17.96 36.62, 33.49 19.21, 46.91 1.34 M-0.08 55.05 C14.35 39.4, 28.45 23.04, 47.01 0.4 M1.34 57.06 C12.37 45.24, 24.01 34.61, 53.15 -1.74 M2.8 57.23 C12.27 46.47, 23.77 33.25, 54.02 -0.97 M8.52 56.44 C22.94 42.35, 36.11 23.13, 59.01 -1 M8.97 57.73 C23.43 41.78, 37.6 24.63, 57.98 -0.48 M13.05 56.56 C31.63 37.25, 48.42 15.76, 62.68 -1.36 M12.89 57.37 C27.62 42.51, 40.37 26.45, 62.53 0.13 M17.43 58.59 C31.23 42.35, 47.36 27.04, 64.15 6.26 M18.76 58.46 C34.46 37.21, 51.26 18.64, 63.16 7.14 M22.22 56.93 C32.3 47.92, 45.76 36.43, 61.98 11.74 M23.44 58.08 C33.81 47.58, 43.47 34.63, 62.51 14.16 M27.72 58.82 C39.96 45.04, 47.75 34.69, 62.62 20.69 M28.54 58.22 C36.6 47.79, 45.53 38.87, 62.01 19.7 M33.06 55.99 C45.04 45.48, 55.37 31.23, 63.38 25.09 M33.97 57.97 C46.24 45.05, 57.4 33.22, 63.39 26.34 M41.84 56.23 C47.15 49.1, 52.35 41.83, 61.42 31.62 M39.98 57.71 C45.27 50.2, 52.69 43.43, 64.04 31.61 M45.24 59.1 C51.56 51.99, 56.99 44.71, 64.87 37.34 M44.76 57.32 C50.64 52.38, 55.78 44.31, 62.58 38.23 M51.59 55.67 C54.73 50.95, 60.54 49.29, 61.85 42.18 M50.53 58.25 C53.49 54.71, 56.62 51.41, 62.33 43.1 M54.74 58.57 C56.23 55.6, 59.7 55.32, 62.73 48.64 M55.31 57.99 C58.14 54.69, 60.74 51.47, 63.51 49.39" stroke="#228be6" stroke-width="0.5" fill="none"></path><path d="M-1.82 -1.87 C15.89 -0.73, 32.16 1.31, 61.2 1.78 M-0.77 0.4 C20.54 0.45, 38.78 -0.8, 62.15 -0.55 M61.04 1.72 C62.68 14.81, 59.88 28.2, 60.51 54.27 M60.94 0.62 C61.96 12.14, 61.18 25.73, 62.14 55.25 M60.67 54.48 C44.96 56.19, 26.95 54.29, 1.94 54.67 M62.23 55.69 C42.55 55.35, 20.72 55.96, -0.59 54.68 M-0.4 56.09 C-0.84 43.59, 0.7 33.86, 0.54 0.78 M-0.88 54.4 C0.46 37.19, -1.43 18.55, -0.8 -0.21" stroke="#000000" stroke-width="1" fill="none"></path></g><g transform="translate(109.84217154596934 175.345703125) rotate(0 3.5 12.5)"><text x="3.5" y="18" font-family="Virgil, Segoe UI Emoji" font-size="20px" fill="#000000" text-anchor="middle" style="white-space: pre;" direction="ltr">1</text></g><g stroke-linecap="round" transform="translate(82.29920279596934 87.322265625) rotate(0 30.92578125 27.623046875)"><path d="M0.4 -0.58 C21.33 2.05, 39.63 2.36, 62.21 1.13 M0.88 0.28 C16.35 -1.22, 34.07 -0.8, 61.42 -0.95 M63.21 0.6 C60.19 14.76, 60.29 29, 60.42 56.25 M61.68 -0.48 C60.4 15.18, 61.63 29.37, 61.55 55.62 M61.67 56.47 C44.56 54.33, 32.19 54.43, 0.56 57.2 M62.84 55.56 C44.81 56.44, 28.28 54.96, -1 55.35 M-0.78 54.65 C0.86 38.16, 0.65 20.37, 0.71 1.58 M0.9 55.73 C-0.5 38.28, -0.32 20.34, -0.55 -0.09" stroke="#000000" stroke-width="1" fill="none"></path></g><g stroke-linecap="round"><g transform="translate(11.092171545969336 115.8984375) rotate(0 29.42660382767673 -0.23116546628529022)"><path d="M0.24 -0.35 C10.41 0.03, 50.18 0.84, 59.95 1.11 M-1.09 -1.57 C9.08 -1.43, 49.54 -0.73, 59.37 -0.55" stroke="#000000" stroke-width="1" fill="none"></path></g><g transform="translate(11.092171545969336 115.8984375) rotate(0 29.42660382767673 -0.23116546628529022)"><path d="M30.79 10.27 C38.78 6.36, 44.94 5.36, 60.5 -1.09 M31.64 8.54 C36.6 6.99, 43.27 4.11, 58.42 -0.84" stroke="#000000" stroke-width="1" fill="none"></path></g><g transform="translate(11.092171545969336 115.8984375) rotate(0 29.42660382767673 -0.23116546628529022)"><path d="M31.15 -9.98 C38.88 -9.66, 44.96 -6.43, 60.5 -1.09 M32 -11.71 C36.96 -8.75, 43.55 -7.1, 58.42 -0.84" stroke="#000000" stroke-width="1" fill="none"></path></g></g><g stroke-linecap="round" transform="translate(74.74842154596934 80.03125) rotate(0 37.556640625 70.591796875)"><path d="M1.19 1.47 C14.87 2, 31.41 1.34, 74.57 -1.54 M-0.54 -0.97 C25.85 -0.76, 50.67 -1.16, 74.83 -0.4 M73.67 -0.22 C74.73 53.53, 74.64 110.01, 74.43 139.36 M74.17 0.5 C75.16 51.06, 74.58 102.49, 74.67 140.59 M73.62 140.5 C57.41 141.06, 36.38 143.6, -0.67 141.95 M74.56 142.1 C48.66 140.85, 22.39 141.52, 0.23 140.98 M0.75 141.93 C1.09 93.62, 1.26 46.07, 0.28 -1.76 M-0.99 141.57 C-2.07 110.64, -1.82 80.41, -0.53 -0.23" stroke="#000000" stroke-width="1" fill="none"></path></g><g stroke-linecap="round" transform="translate(255.6879385341283 160.22265625) rotate(0 30.92578125 27.623046875)"><path d="M0 0 C0 0, 0 0, 0 0 M0 0 C0 0, 0 0, 0 0 M-0.63 7.13 C1.44 4.65, 3.87 2.82, 5.77 0.2 M-0.44 6.6 C1.31 4.3, 2.77 2.91, 4.99 0.37 M-1.43 11.84 C3.34 6.95, 5.93 2.71, 9.76 -1.35 M-0.04 11.93 C2.44 8.45, 6.33 5.28, 10.52 0.45 M-0.56 18.38 C6.77 11.01, 11.89 3.43, 15.08 -1.42 M-0.13 18.49 C5.74 13.43, 9.38 7.38, 14.92 0.55 M0.11 23.85 C5.63 20.08, 9.19 14.17, 19.99 0.08 M0.64 23.36 C7.25 14.93, 15.1 6.56, 21.17 0.89 M-0.35 31.39 C6.66 22.44, 10.94 18.51, 26.04 0.17 M-0.57 29.91 C9.27 19.54, 17.6 10.29, 27.22 0.5 M0.46 35.93 C7.26 27.52, 17.32 15.79, 29.96 1.74 M0.58 37.12 C6.7 29.44, 14.76 21.01, 32.13 0.85 M-1.74 43.98 C10.79 29.78, 25.77 13.92, 38.59 0.96 M0.43 42.03 C12.75 28.04, 23.4 15.26, 37.65 0.12 M0.56 49.53 C12.35 36.05, 23.91 19.99, 42.47 -1.18 M0.14 48.16 C9.6 36.71, 22.08 24.99, 42.25 -0.58 M-0.46 54.42 C13.45 37.27, 28.23 24.51, 46.98 0.79 M1.12 54.45 C15.45 36.84, 32.74 18.09, 46.72 0.98 M1.88 56.95 C18.91 38.21, 34.48 22.03, 53.97 0.43 M3.19 58.44 C15.77 43.27, 28.51 26.95, 52.2 0.3 M9.06 57.51 C28.06 37.51, 45.9 14.04, 56.87 -0.97 M7.41 58.44 C22.72 41.93, 36.93 24.54, 57.74 0.39 M12.57 58.27 C24.61 46.65, 34.3 34.65, 61.68 1.97 M13.65 57.83 C24.58 45.87, 34.2 32.07, 63.75 0.66 M20.7 56.7 C33.17 41.26, 45.04 26.08, 63.46 5.41 M19.87 57.07 C33.18 40.33, 49.09 22.49, 62.88 6.16 M23.12 56.26 C33.24 48.82, 41.41 35.69, 63.09 15 M23.1 57.04 C35.85 43.73, 46.47 31.85, 63.29 12.93 M28.42 57.99 C38.22 44.55, 49.55 34.87, 64.6 20.92 M29.46 57.11 C42.41 42.86, 54.84 28.44, 62.32 19.52 M35.32 56.16 C43.18 50.65, 47.88 40.76, 62.11 24.47 M33.78 57.44 C44.8 45.7, 55.74 33.08, 61.97 26.16 M38.22 57.9 C47.98 51.9, 54.02 42.06, 64.86 30.37 M39.58 57.04 C48.59 48.45, 56.08 40.32, 62.29 31.65 M46.39 58.8 C49.69 51.86, 51.7 49.19, 64.29 38.48 M44.7 58.1 C52.78 49.58, 59.4 40.71, 62.92 37.64 M49.68 58.42 C56.19 52.54, 58.26 48.94, 62.97 44.09 M51.31 57.99 C52.52 54.1, 56.48 52.32, 62.56 43.51 M56.46 57.09 C57.87 55.56, 60.05 52.57, 62.04 49.73 M55.73 57.81 C58.6 54.4, 61.31 51.13, 63.39 49.04" stroke="#228be6" stroke-width="0.5" fill="none"></path><path d="M-1.83 -1.34 C17.08 -0.85, 33.98 0.64, 61.94 0.35 M-0.27 -0.2 C14.76 -0.06, 27.62 0.36, 61.26 0.42 M62.59 -0.96 C59.87 17.05, 60.99 37.26, 63.23 55.17 M62.43 0.94 C62.1 19.71, 62.64 39.27, 61.44 55.43 M62.51 54.53 C47.87 56.02, 29.38 52.91, 1.01 55.33 M61.46 55.56 C37.65 55.58, 13.44 53.82, 0.04 55.76 M0.79 54.63 C-0.72 44.36, 1.23 31.5, -0.1 -0.81 M-0.62 55.86 C-0.75 43.91, 0.23 32.51, 0.18 -0.5" stroke="#000000" stroke-width="1" fill="none"></path></g><g transform="translate(283.1137197841283 175.345703125) rotate(0 3.5 12.5)"><text x="3.5" y="18" font-family="Virgil, Segoe UI Emoji" font-size="20px" fill="#000000" text-anchor="middle" style="white-space: pre;" direction="ltr">1</text></g><g stroke-linecap="round" transform="translate(255.7504385341283 17.701171875) rotate(0 30.92578125 27.623046875)"><path d="M-0.67 -0.26 C22.96 1.64, 49.06 0.77, 60.37 -1.63 M0.78 0.31 C21.85 0.85, 43.81 0.54, 62.2 -0.89 M60.36 -1.44 C61.69 13.44, 63.44 26.26, 63.14 56.15 M61.85 -0.41 C62.71 16.42, 61.76 34.96, 61.42 54.7 M63.75 56.44 C46.72 53.1, 34.02 55.11, 1.91 55.85 M62.12 56.01 C48.11 54.44, 33.36 55.96, -0.71 54.74 M-1 57.03 C0.74 45.64, -0.32 32.05, -1.9 1.88 M-0.23 55.22 C1.1 33.12, 0.52 10.71, 0.52 -0.18" stroke="#000000" stroke-width="1" fill="none"></path></g><g stroke-linecap="round" transform="translate(248.0199697841283 10) rotate(0 37.556640625 105.607421875)"><path d="M-1.52 1.23 C17.58 0.45, 33.51 -1.53, 76.29 -0.55 M-0.35 0.72 C20.45 0.19, 42.43 -1.12, 74.5 0.37 M74.79 0.24 C74.94 53.17, 74.86 107.27, 75.37 212.23 M75.59 -0.85 C74.75 83.4, 74.73 165.99, 74.52 211.5 M74.4 209.29 C56.26 211.74, 37.3 212.27, -1.39 210.44 M75.64 210.22 C50.23 212.3, 24.56 211.28, -0.97 211.61 M0.84 212.61 C0.84 153.62, -0.75 99.1, 1.74 -1.1 M0.66 211.12 C0.59 134.51, 0.9 58.53, 0.32 -0.57" stroke="#000000" stroke-width="1" fill="none"></path></g><g stroke-linecap="round" transform="translate(255.36255588614358 87.61328125) rotate(0 30.92578125 27.623046875)"><path d="M0 0 C0 0, 0 0, 0 0 M0 0 C0 0, 0 0, 0 0 M0.26 6.7 C0.91 4.51, 2.25 3.49, 5.08 -0.29 M-0.34 6.26 C1.33 4.51, 3.06 3.06, 4.95 0.04 M0.06 10.55 C2.38 10.58, 4.07 6.43, 11.93 0.49 M0.76 11.29 C3.3 8.16, 6.9 4.68, 9.97 0.4 M1.58 17.64 C5.76 11.66, 7.86 5.69, 17.29 -0.42 M0.61 18.42 C2.15 14.04, 6.73 10.88, 15.96 1.04 M-0.13 25.38 C7.55 16.88, 12.7 13.42, 22.32 0.08 M1.05 23.93 C6.75 16.58, 12.39 8.97, 21.76 -0.66 M0.94 28.71 C11.69 18.84, 22.69 5.48, 24.59 0.7 M0.42 31.18 C7.76 20.83, 17.33 10.91, 26.73 0.94 M-0.34 38.79 C7.78 31.12, 14.72 20.79, 30.14 1.71 M0.13 36.26 C7.89 27.7, 16.21 18.08, 31.54 0.83 M2.07 42.5 C13.31 26.39, 24.54 11.95, 37 0.75 M-0.36 42.23 C8.6 33.49, 16.05 25.91, 37.63 -0.31 M-0.15 50.32 C14.84 29.39, 33.32 9.56, 40.8 0.43 M-0.72 49.61 C14.59 33.22, 27.76 16.2, 43.22 0.03 M-0.71 52.7 C10.14 41.74, 20.99 31.2, 45.87 -0.04 M-0.28 55.23 C9.77 43.7, 20.12 30.81, 46.89 0.41 M3 56.67 C15.47 44.4, 25.87 31.89, 54.87 -1.24 M2.08 57.48 C13.05 44.22, 25.44 33.11, 53.66 -0.35 M6.29 59.51 C21.22 44.62, 31.58 27.66, 59.94 0.11 M8.78 58.49 C20.3 42, 33.71 28.2, 58.51 0.96 M12.35 56.35 C22.14 47.32, 32.81 34.62, 63.65 -0.48 M13.13 58.31 C23.75 43.78, 36.34 32.01, 63.85 0.92 M19.05 57.78 C28.58 43.87, 39.67 32.54, 63.51 7.35 M18.59 57.12 C28.19 46.29, 38.17 36.18, 62.38 6.69 M23.48 56.5 C35.72 43.02, 47.94 28.41, 60.73 11.65 M23.74 58.35 C38.81 40.3, 51.93 24.89, 62.37 13.34 M27.6 58.91 C40.17 42.9, 52.8 27.04, 61.52 17.08 M30.32 56.94 C41.9 43.35, 55.17 27.41, 63.36 19.38 M33.29 56.78 C46.6 46.31, 56.92 32.13, 64.11 23.53 M34.83 57.5 C44.22 47.94, 52.87 37.59, 63.58 25.97 M40.05 58.85 C44.21 50.07, 51.39 47.78, 63.65 30.48 M40.55 56.49 C48.73 46.49, 57.53 36.42, 63.39 31.76 M44.08 58.43 C51.14 49.66, 58.41 42.52, 63.43 36.66 M45.14 58.4 C48.48 53.86, 52.67 49.73, 62.82 37.17 M51.83 57.12 C53.17 54.96, 59.11 49.21, 63.64 44.3 M50.66 57.93 C52.76 54.96, 56.38 51.34, 62.92 43.34 M55.7 56.92 C59.31 54.66, 60.92 50.28, 63.78 50.5 M55.44 58.12 C57.81 55.75, 59.95 53.07, 62.92 49.92" stroke="#228be6" stroke-width="0.5" fill="none"></path><path d="M-1.29 -1.29 C20.3 -1.92, 39.33 0.04, 60.19 -0.87 M0.96 -0.4 C21.71 -0.48, 41.01 -0.03, 60.89 -0.42 M60.39 -1.08 C61.86 14.09, 59.54 32.39, 60.58 53.86 M61.22 0.96 C60.46 20.1, 62.08 40.92, 61.13 54.67 M62.85 53.59 C44.57 53.45, 24.59 54, 0.78 53.42 M61.08 54.43 C41.56 54.95, 23.08 55.22, -0.43 54.6 M0.27 55.58 C0.45 42.23, 0.77 25.15, 1.6 0.68 M-0.28 54.71 C0.68 36.03, 0.65 16.76, 0.51 0.43" stroke="#000000" stroke-width="1" fill="none"></path></g><g transform="translate(282.7883371361436 102.736328125) rotate(0 3.5 12.5)"><text x="3.5" y="18" font-family="Virgil, Segoe UI Emoji" font-size="20px" fill="#000000" text-anchor="middle" style="white-space: pre;" direction="ltr">1</text></g><g stroke-linecap="round"><g transform="translate(183.0414208084669 45.15499359128529) rotate(0 29.979573959512663 0.1096703930431886)"><path d="M0.66 1.19 C10.55 1.15, 48.53 0.84, 58.23 0.83 M-0.45 0.77 C9.9 0.9, 50.68 -0.72, 60.41 -0.97" stroke="#000000" stroke-width="1" fill="none"></path></g><g transform="translate(183.0414208084669 45.15499359128529) rotate(0 29.979573959512663 0.1096703930431886)"><path d="M34.92 8.39 C39.52 7.02, 45.7 5.01, 60.72 -1.56 M33.8 9.82 C40.98 6.91, 48.16 3.72, 60.89 -0.95" stroke="#000000" stroke-width="1" fill="none"></path></g><g transform="translate(183.0414208084669 45.15499359128529) rotate(0 29.979573959512663 0.1096703930431886)"><path d="M34.25 -11.86 C39.17 -9.05, 45.49 -6.87, 60.72 -1.56 M33.13 -10.42 C40.39 -8, 47.74 -5.84, 60.89 -0.95" stroke="#000000" stroke-width="1" fill="none"></path></g></g></svg>