<svg version="1.1" xmlns="http://www.w3.org/2000/svg" viewBox="0 0 339.3388333090604 219.88671875" width="339.3388333090604" height="219.88671875">
  <!-- svg-source:excalidraw -->
  
  <defs>
    <style class="style-fonts">
      @font-face {
        font-family: "Virgil";
        src: url("https://excalidraw.com/Virgil.woff2");
      }
      @font-face {
        font-family: "Cascadia";
        src: url("https://excalidraw.com/Cascadia.woff2");
      }
    </style>
  </defs>
  <rect x="0" y="0" width="339.3388333090604" height="219.88671875" fill="#ffffff"></rect><g stroke-linecap="round" transform="translate(87.72968368955196 148.89453125) rotate(0 30.92578125 27.623046875)"><path d="M0 0 C0 0, 0 0, 0 0 M0 0 C0 0, 0 0, 0 0 M-0.75 6.97 C1.88 3.8, 2.72 1.43, 5.06 0.98 M-0.47 6.35 C2.13 3.69, 3.64 2.04, 4.93 0.18 M-1.08 10.97 C2.46 6.34, 6.81 1.98, 9.9 -1.37 M-0.51 12.5 C2.51 8.93, 5.41 6.08, 11.42 -0.83 M-1.74 17.57 C5.76 12.39, 8.38 11.06, 16.88 1.68 M0.85 19.34 C3.63 14.39, 7.04 9.82, 15.93 -0.47 M-1.72 23.64 C7.91 14.6, 15.93 8.73, 19.31 -0.07 M-0.1 23.68 C7.84 16.21, 14.74 9.32, 21.85 -0.87 M-0.65 31.62 C7.69 20.85, 17.36 11.57, 24.85 -1.03 M0.34 30.52 C7.98 23.31, 13.63 13.26, 26.59 0.59 M-1.08 36.04 C8.04 29.91, 16.15 20.41, 30.17 -1.54 M-0.72 37.25 C9.54 24, 19.88 12.37, 32.52 0.22 M1.7 43.13 C11.88 30.89, 21.87 17.67, 35.95 -0.58 M-0.14 42.26 C12.38 27.68, 26.31 10.78, 36.76 0 M-2.01 50.78 C13.92 34.9, 28.4 19.06, 44.41 -0.18 M0.11 49.36 C11.28 35.97, 21.96 22.63, 43.21 -0.23 M0.68 52.79 C13.15 38.82, 25.15 23.93, 46.51 -1.74 M0.36 54.71 C13.73 38.11, 28.8 20.13, 48.16 -0.6 M3.02 59.57 C21.14 37.87, 40 16.76, 51.55 1.53 M3.44 58 C15.75 44.36, 27.45 28.76, 52.28 -1 M6.95 55.78 C26.32 36.31, 43.81 13.81, 58.29 0.28 M7.46 56.67 C21.98 43.14, 35.8 27.44, 58.28 1.12 M14.27 55.93 C22.42 43.87, 37.07 33.37, 63.93 1.39 M13.4 58.1 C26.54 42.39, 38.02 28.87, 62.22 -0.36 M17.49 57.97 C34 39.28, 49.63 18.44, 64.59 6.62 M18.42 57.76 C36.51 37.15, 52.81 18.61, 62.51 7.04 M24.33 57.99 C32.53 49.97, 37.68 38.68, 64.12 11.37 M24.78 58.42 C37.79 42.9, 51.44 26.73, 63.1 13.69 M31.34 57.76 C37.53 49.67, 44.29 41.78, 63.35 19.68 M29.92 58.31 C41.66 42.71, 55.43 29.64, 63.23 19.42 M35.06 56.43 C44.03 48.36, 50.67 39.1, 63.13 26.83 M34.02 57.36 C41.63 49.85, 47.78 42.26, 62.8 24.7 M41.61 58.09 C50.17 46.15, 57.58 37.71, 61.25 31.66 M40.04 57.33 C47.13 48.88, 55.54 41.05, 63.87 31.5 M45.81 59.46 C49.91 53.17, 53.83 47.99, 63.59 36.27 M45.33 58.05 C51.39 50.68, 57.76 44.3, 62.13 37.55 M49.03 57.46 C56.14 52.2, 60 48.39, 61.27 42.49 M51.56 57.55 C53.17 54.07, 57.1 49.98, 62.42 43.3 M56.63 57.28 C57.24 54.27, 59.57 53.5, 63.68 50.32 M56.3 58.09 C58.2 55.43, 60.85 52.53, 63.21 49.8" stroke="#228be6" stroke-width="0.5" fill="none"></path><path d="M1.86 -0.59 C18.5 0.42, 32.48 -1.04, 62.13 0.69 M0.26 -0.56 C24.41 -0.18, 48.49 -0.49, 62.57 0.57 M63 0.3 C61.27 19.61, 62.35 39.59, 60.27 54.87 M61.11 -0.87 C62.6 17, 62.23 34.95, 62.6 55.76 M60.79 54.33 C47.59 55.11, 31.83 56.21, 1.71 54.95 M62.22 54.48 C42.67 55.31, 23.92 55.27, 0.68 55.16 M0.05 53.74 C1.46 35.45, -1.67 15.71, 1.9 -0.85 M0.44 55.54 C-0.14 38.28, -0.17 22.44, 0.78 -0.85" stroke="#000000" stroke-width="1" fill="none"></path></g><g transform="translate(110.65546493955196 164.017578125) rotate(0 8 12.5)"><text x="8" y="18" font-family="Virgil, Segoe UI Emoji" font-size="20px" fill="#000000" text-anchor="middle" style="white-space: pre;" direction="ltr">2</text></g><g stroke-linecap="round" transform="translate(86.75702743955196 17.498046875) rotate(0 30.92578125 27.623046875)"><path d="M1.79 0.72 C20.6 -0.56, 43.34 0.87, 63.66 0.82 M0.27 0.1 C21.58 0.13, 43.43 0.92, 62.48 0.78 M60.84 -0.44 C62.24 19.01, 60.58 38.66, 62.05 56.55 M62.24 -0.12 C61.46 14.14, 62.19 27.37, 61.14 54.89 M61.74 55.21 C42.63 56.03, 28.55 54.67, 0.25 53.84 M62 54.8 C38.88 54.28, 15.13 54.69, 0.44 55.45 M1.57 54.44 C-1.57 38.34, 1.89 23.72, 0.1 1.34 M0.23 55.14 C-0.05 36.22, 0.54 14.5, 0.13 0.16" stroke="#000000" stroke-width="1" fill="none"></path></g><g stroke-linecap="round" transform="translate(80.06171493955196 10) rotate(0 37.556640625 99.943359375)"><path d="M0.72 -0.93 C28.76 -0.39, 59.7 1.13, 75.93 0.9 M0.1 0.22 C24.27 0.51, 49.54 0.42, 75.89 0.53 M74.68 0.07 C74.91 69.85, 75.04 143.06, 76.42 198.75 M75 0.02 C74.08 45.82, 73.88 89.42, 74.75 199.72 M75.08 198.17 C57.63 201.55, 37.71 200.1, -1.41 201.55 M74.67 200.62 C49.33 200.68, 24.44 200.43, 0.2 199.66 M-0.81 198.33 C-0.06 141.34, 0.66 79.08, 1.34 1.22 M-0.11 200.09 C0.34 131.85, -1.43 62.37, 0.16 -0.49" stroke="#000000" stroke-width="1" fill="none"></path></g><g stroke-linecap="round" transform="translate(86.6304604847893 80.6484375) rotate(0 30.92578125 27.623046875)"><path d="M0 0 C0 0, 0 0, 0 0 M0 0 C0 0, 0 0, 0 0 M-1.04 5.74 C1.74 4.8, 4.26 1.4, 5.66 -0.05 M-0.39 6.67 C1.14 4.53, 3.01 3.28, 5.17 0.06 M-0.94 11.06 C1.95 7.96, 3.9 6.7, 9.82 -1.33 M0.75 11.41 C4.67 6.99, 7.29 2.83, 10.59 -0.68 M0.12 20.38 C5.02 15.26, 6.12 9.9, 14.2 2.29 M0.28 17.56 C6.25 10.63, 12.49 5.21, 15.02 -0.67 M1.78 25.13 C4.07 17.5, 12.41 10.71, 20.46 -0.81 M0.98 25.06 C6.15 17.01, 11.02 12.43, 22.09 -0.4 M1.84 29.95 C7.97 18.41, 18.17 7.17, 25.91 0.97 M-0.87 29.59 C8.15 21.34, 15.04 11.22, 27.09 -0.12 M1.44 37.34 C6.17 25.64, 16.77 18.77, 31.16 -1.02 M-1.08 36.63 C11.45 24.97, 21.72 11.46, 31.38 0.68 M-0.83 43.26 C11.3 27.51, 25.79 16.28, 35.02 -0.3 M-0.52 41.76 C10.51 30.5, 20.8 18.19, 35.94 -0.69 M1.52 49.04 C18.43 29.44, 32.63 12.2, 44.14 0.33 M-0.3 49.14 C15.01 31.71, 28.72 15.18, 43.39 0.07 M-0.22 53.7 C9.17 41.28, 20.42 33.52, 48.14 0.41 M-0.36 54.38 C16.28 36.27, 31.11 20.34, 47.62 0.42 M3.87 58.63 C20.16 37.23, 40.02 14.89, 53.25 1.44 M2.72 57.74 C16.66 38.85, 33.75 22.29, 53.82 -0.83 M6.65 57.16 C19.11 45.34, 28.94 32.52, 57.37 -1.45 M8.55 58.39 C19.01 45.81, 28.64 32.21, 58 0.69 M15.08 58.28 C24.67 47.62, 33.06 36.04, 63.12 0.82 M12.47 58.53 C27.95 39, 45.56 22.52, 62.49 -0.16 M17.08 56.17 C35.08 40.74, 49.28 24.8, 62.3 5.97 M18.84 57.58 C32.53 41.58, 46.22 25.42, 62.79 7.16 M22.02 56.85 C37.06 42.05, 48.36 28.62, 60.65 15.12 M24.05 57.4 C38.13 42.35, 50.43 26.16, 62.84 14.25 M30.4 57.82 C40.21 46.03, 51.84 33.72, 63.19 19.75 M30.52 58.44 C42.7 43.28, 55.47 28.67, 62.72 19.26 M32.9 59.68 C41.28 51.72, 46.26 44.7, 61.16 24.37 M34.27 57.94 C41.54 49.04, 49.41 41.64, 62.07 26.1 M40.05 57.74 C45.75 49.45, 55.65 40.99, 65.03 30.77 M41.01 58.12 C47.6 50.26, 52.86 41.6, 63.55 31.35 M45.35 57.69 C52.62 48.82, 59.57 43.51, 63.59 37.78 M45.69 58.41 C50.12 51.31, 57.53 45.39, 62.35 36.44 M50.87 58.96 C52.97 51.96, 57.55 50.42, 61.13 45.34 M50.55 57.53 C54.47 52.54, 58.5 48.78, 61.72 44.51 M55.05 58.63 C58.37 56.56, 59.72 53.46, 62.99 50.5 M56.25 57.8 C58.56 55.08, 60.96 51.96, 63.17 49.35" stroke="#228be6" stroke-width="0.5" fill="none"></path><path d="M-0.93 -0.74 C17.02 0.46, 35.28 0.6, 62.76 0.52 M0.22 -0.21 C15.83 0.51, 30.85 0.72, 62.38 0.57 M61.92 -0.51 C59.99 17.03, 61.77 36.11, 60.71 53.76 M61.87 0.71 C62.82 12.28, 61.35 23.17, 61.68 54.72 M60.14 56.31 C47.83 54.94, 30.65 53.83, 1.66 55.98 M62.58 54.76 C48.7 54.88, 34.62 55.17, -0.22 55.27 M-1.56 53.67 C1.47 41.99, -0.33 31.77, 1.22 0.89 M0.2 56.17 C0.66 36.22, 0 19.05, -0.49 0.94" stroke="#000000" stroke-width="1" fill="none"></path></g><g transform="translate(114.0562417347893 95.771484375) rotate(0 3.5 12.5)"><text x="3.5" y="18" font-family="Virgil, Segoe UI Emoji" font-size="20px" fill="#000000" text-anchor="middle" style="white-space: pre;" direction="ltr">1</text></g><g stroke-linecap="round"><g transform="translate(10.068077921019864 45.512101706055205) rotate(0 31.71718046313734 -0.38330286973990724)"><path d="M0.91 1.01 C11.14 1.17, 51.15 0.26, 61.21 0.22 M-0.07 0.49 C10.55 0.33, 52.86 -1.5, 63.5 -1.79" stroke="#000000" stroke-width="1" fill="none"></path></g><g transform="translate(10.068077921019864 45.512101706055205) rotate(0 31.71718046313734 -0.38330286973990724)"><path d="M37.38 8.13 C44.17 4.79, 53.06 2.49, 63.79 -0.99 M34.7 10.06 C41.4 7.17, 47.03 4.25, 64.23 -1.57" stroke="#000000" stroke-width="1" fill="none"></path></g><g transform="translate(10.068077921019864 45.512101706055205) rotate(0 31.71718046313734 -0.38330286973990724)"><path d="M36.64 -12.37 C43.52 -9.79, 52.62 -6.15, 63.79 -0.99 M33.96 -10.45 C41 -8.98, 46.78 -7.54, 64.23 -1.57" stroke="#000000" stroke-width="1" fill="none"></path></g></g><g stroke-linecap="round" transform="translate(261.8935208090604 149.015625) rotate(0 30.92578125 27.623046875)"><path d="M0 0 C0 0, 0 0, 0 0 M0 0 C0 0, 0 0, 0 0 M-0.82 6.16 C2.12 4.18, 4.07 1.75, 4.49 1.09 M-0.55 6.53 C1.05 4.39, 2.53 2.7, 5.12 0.68 M-1.22 12.31 C3.81 7.15, 6.39 4.79, 10.68 0.28 M-0.61 12.09 C2.57 8.29, 5.96 4.99, 10.36 0.46 M0.32 17.61 C5.14 12.96, 9.11 7.92, 14.82 0.22 M0.49 19.17 C6.26 11.72, 12.02 3.99, 15.32 0.76 M1.68 25.18 C8 19.14, 10.02 10.96, 19.41 0.37 M1.04 23.39 C4.87 18.5, 11.55 11.94, 21.76 0.29 M-0.15 30.52 C8.7 20.66, 15.52 11.66, 26.69 1.71 M-0.99 29.69 C9.18 20.07, 18.68 9.09, 26.15 0.93 M0.69 37.13 C11.48 23.35, 23.09 9.08, 31.52 -0.87 M-0.16 37.42 C10.58 23.92, 22.74 9.79, 32.38 -0.17 M1.04 44.49 C8.74 30.38, 21.31 20.17, 36.42 1.12 M-0.84 42.8 C7.57 33.22, 16.77 22.4, 37.17 -0.34 M-0.91 47.94 C11.18 37.65, 19.5 28.17, 41.31 1.38 M-0.37 49.33 C13.07 34.22, 25.24 19.97, 42.16 0.83 M-0.59 55.02 C10.93 43.01, 21.6 27.7, 46.53 -1.51 M0.3 54.74 C11 41.68, 23.12 26.87, 47.49 -0.33 M2.62 58.12 C17.47 38.09, 33.02 21.18, 54.53 -0.54 M2.88 58.18 C17.57 42, 29.81 25.39, 53.85 0.61 M9.83 56.12 C20.3 42.77, 34.48 23.44, 56.96 -0.57 M8.45 58.41 C27.21 36.98, 44.37 15.82, 58.03 0.4 M13.73 58 C26.46 39.54, 43.29 24.2, 63.67 1.99 M13.12 58.02 C23.11 45.56, 34.08 33.38, 62.35 0.99 M17.47 56.45 C30.43 43.52, 44.07 25.93, 63.19 5.88 M19.28 57.54 C34.73 39.6, 49.63 21.94, 63.57 6.81 M23.17 58.53 C36.17 44.66, 47.67 30.06, 63.51 11.74 M24.55 58.69 C35.07 47.25, 44.66 34.63, 62.14 14.06 M29.55 57.24 C41.16 42.06, 55.55 28.62, 61.36 17.06 M29.87 56.53 C41.04 45.04, 51.09 33.59, 63.9 18.27 M35.02 59.19 C39.77 49.19, 47.21 41.52, 61.23 26.87 M35.01 57.68 C41.45 49.6, 50.62 40.16, 63.51 25.48 M39.36 56.22 C47.86 49.26, 56.26 41.45, 64.32 29.98 M40.7 56.49 C48.71 46.94, 57.61 38.22, 63.86 31.1 M46.79 57.02 C53.84 51.22, 59.96 40.4, 63.67 38.72 M46.14 57.23 C50.83 51.81, 57.36 44.6, 63.67 38.2 M51.55 58.6 C52.97 54.94, 57.34 51.39, 61.26 45.09 M51.03 58.19 C55.51 53.11, 59.5 46.69, 62.81 44.31 M56.69 58.24 C58.17 55.61, 59.58 51.51, 62.3 49.43 M55.53 58.05 C57.35 55.73, 58.43 53.99, 63.17 49.85" stroke="#228be6" stroke-width="0.5" fill="none"></path><path d="M1.82 -0.44 C18.22 -1.65, 33.64 1.44, 60.7 -1.39 M-0.84 0.74 C15.38 0.68, 30.73 -0.14, 61.82 0.09 M62.14 1.26 C63.9 20.04, 63.42 37.81, 60.97 57.24 M61.16 0.24 C62.49 16.4, 61.71 33.04, 61.49 55.97 M61.09 56.13 C47.69 55.38, 33.84 53.89, -1.89 54.57 M62.38 55.86 C40.87 56.58, 21.27 56.04, -0.57 56.05 M1.62 55.62 C0.81 38.46, -1.25 18.99, -0.54 -1.68 M-0.83 54.44 C0.09 42.31, 0.7 29.48, 0.24 0.41" stroke="#000000" stroke-width="1" fill="none"></path></g><g transform="translate(289.3193020590604 164.138671875) rotate(0 3.5 12.5)"><text x="3.5" y="18" font-family="Virgil, Segoe UI Emoji" font-size="20px" fill="#000000" text-anchor="middle" style="white-space: pre;" direction="ltr">1</text></g><g stroke-linecap="round" transform="translate(260.9208645590604 17.498046875) rotate(0 30.92578125 27.623046875)"><path d="M0.61 -1.87 C14.74 1.35, 31.49 -1.26, 60.87 -1.52 M-0.13 0.9 C20.46 -0.38, 41.46 -0.37, 62.17 0.89 M63.41 1.7 C63.01 19.27, 61.06 38.24, 61.73 55.94 M62.3 0.17 C61.13 13.12, 61.1 25.83, 61.08 54.48 M61.48 54.79 C36.88 53.57, 10.91 54.84, 0.65 55.2 M61.44 55.98 C37.9 55.82, 12.26 56.43, 0.2 56.12 M1.29 56.13 C-1.21 35.91, -0.98 16.71, -1.38 -0.85 M-0.15 55.09 C0.92 35.27, 0.7 16.13, 0.27 0.81" stroke="#000000" stroke-width="1" fill="none"></path></g><g stroke-linecap="round" transform="translate(254.22555205906042 10) rotate(0 37.556640625 99.943359375)"><path d="M-1.87 -1.58 C30.59 -1.38, 57.35 -1.21, 73.6 0.71 M0.9 -0.29 C16.29 0.06, 32.51 0.42, 76 0.28 M76.82 1.08 C77.52 62.01, 78.36 125.66, 75.81 198.43 M75.28 -0.34 C76.17 45.73, 76.32 91.42, 74.35 200.85 M74.65 199.44 C53.49 197.86, 35.09 200.4, -0.04 201.81 M75.85 200.45 C48.77 199.01, 22.84 199.78, 0.87 200.22 M0.88 199.12 C-1.28 123.22, -2.06 46.24, -0.85 1.15 M-0.16 200.35 C1.39 156.69, 2.02 113.28, 0.81 0.89" stroke="#000000" stroke-width="1" fill="none"></path></g><g stroke-linecap="round" transform="translate(260.79429760429775 80.6484375) rotate(0 30.92578125 27.623046875)"><path d="M0 0 C0 0, 0 0, 0 0 M0 0 C0 0, 0 0, 0 0 M0.14 6.25 C0.63 5.5, 2.5 2.7, 4.42 -0.22 M-0.6 6.23 C1.66 4.74, 3.24 2.74, 4.89 0.02 M0.38 11.79 C3.46 8.62, 6.31 4.68, 11.23 -1.51 M0.23 11.64 C3.13 8.9, 6.6 5.23, 10.4 0.14 M-0.17 18.69 C3.09 13.67, 9.5 7.29, 14.99 1.55 M-0.03 17.62 C5.4 12.11, 11.41 5.58, 15.33 1.03 M-1.72 24.58 C5.63 15.75, 14.31 7.17, 19.63 1.49 M0.33 24.74 C5.84 18.72, 9.98 13.53, 21.04 -0.15 M1.04 28.52 C8.14 22.96, 16.5 11.18, 27.69 -1.7 M0.44 30.04 C5.72 24.41, 12.15 16.57, 26.9 0.76 M0.13 35.47 C9.39 24.58, 20.94 12.64, 32.44 0.09 M-0.37 36.22 C11.94 23.6, 22.65 10.91, 32.48 0.35 M0.81 44.13 C14.66 26.55, 28.36 10.73, 37.07 -1.69 M0.24 41.92 C12.74 27.9, 23.78 14.69, 37.13 -0.13 M-0.05 50.8 C9 38.11, 20.59 22.38, 44.41 -0.64 M0.54 48.25 C13.75 33.32, 28.06 16.07, 41.98 -0.57 M-1 53.72 C14.69 34.97, 29.82 19.65, 47.95 0.29 M0.07 53.64 C15.66 36.48, 30.83 20.71, 47.51 0.22 M1.76 57.76 C19.78 40, 33.46 20.75, 53.57 0.31 M1.87 57.08 C19.28 39.91, 34.78 20.92, 53.65 0.61 M6.76 55.99 C18.97 43.27, 32.92 29.91, 58.59 0.53 M7.28 58.27 C27.31 35.21, 46.64 13.27, 57.29 0.42 M14.34 57.37 C29.33 42.37, 42.17 24.76, 64.77 0.26 M13.5 57.89 C28.17 40.42, 44.45 21.46, 63.73 -0.17 M17.58 56.3 C30.57 43.66, 42.17 33.64, 62.79 7.68 M18.9 57.68 C32.6 42.09, 45.44 27.48, 63.59 6.58 M22.76 59.28 C37.7 41.14, 48.93 26.18, 61.06 14.65 M23.97 57.69 C37.92 41.31, 53.79 23.28, 62.05 13.35 M31 56.53 C37.67 44.73, 49.4 34.86, 62.98 19.64 M29.35 58.44 C37.08 48.88, 42.53 42.67, 62.54 19.23 M33.39 57.64 C43.64 47.48, 54.79 32.11, 61.96 26.36 M35.46 57.13 C43.59 48.64, 51.22 38.74, 62.22 24.98 M40.62 59.15 C46.87 50.01, 52.63 44.54, 62.35 32.1 M40.47 57.82 C45.62 52.27, 50.46 45.88, 63.34 31.85 M46.08 56.19 C50.41 53.66, 54.63 46.16, 62.6 39.39 M45.94 57.6 C50.28 53.54, 53.24 46.95, 62.83 37.85 M51.43 58.06 C53.84 53.65, 60.79 48.84, 64.07 44.29 M50.85 56.86 C55.5 52.54, 60.12 46.9, 61.79 44.56 M54.84 56.91 C57.56 54.86, 59.74 52.82, 62.57 48.97 M55.45 57.45 C58.47 55.28, 60.84 52.01, 63.49 49.77" stroke="#228be6" stroke-width="0.5" fill="none"></path><path d="M-1.58 1.22 C16.05 -0.81, 33.42 -0.94, 62.56 -1.68 M-0.29 0.08 C23.12 -0.47, 46.62 0.33, 62.13 0.15 M62.93 1.14 C61.41 22.05, 62.16 40.81, 60.4 53.86 M61.52 0.57 C61.73 18.64, 61.33 35.07, 62.82 54.87 M61.41 53.29 C38.68 54.43, 19.93 55.06, 1.92 56.31 M62.41 55.44 C38.95 56.5, 17.4 56.57, 0.34 56.05 M-0.76 54.34 C-0.89 35.95, -1.73 19.16, 1.15 -1.65 M0.46 55.03 C0.33 43.54, 0.36 31.83, 0.89 -0.63" stroke="#000000" stroke-width="1" fill="none"></path></g><g transform="translate(283.72007885429775 95.771484375) rotate(0 8 12.5)"><text x="8" y="18" font-family="Virgil, Segoe UI Emoji" font-size="20px" fill="#000000" text-anchor="middle" style="white-space: pre;" direction="ltr">2</text></g><g stroke-linecap="round"><g transform="translate(184.23191504052835 45.51210170605509) rotate(0 31.55541271241964 0.4689777728049762)"><path d="M0.73 -0.69 C11.12 -0.63, 51.12 -0.78, 61.18 -0.59 M-0.34 1.56 C10.52 1.85, 52.81 1.18, 63.45 0.64" stroke="#000000" stroke-width="1" fill="none"></path></g><g transform="translate(184.23191504052835 45.51210170605509) rotate(0 31.55541271241964 0.4689777728049762)"><path d="M34.43 10.35 C40.44 7.76, 47.89 5.3, 64.94 0.38 M35.55 11.83 C46.81 8.28, 57.65 3.2, 64.09 1.42" stroke="#000000" stroke-width="1" fill="none"></path></g><g transform="translate(184.23191504052835 45.51210170605509) rotate(0 31.55541271241964 0.4689777728049762)"><path d="M33.81 -10.16 C39.79 -8.52, 47.37 -6.74, 64.94 0.38 M34.93 -8.69 C46.38 -4.23, 57.46 -1.3, 64.09 1.42" stroke="#000000" stroke-width="1" fill="none"></path></g></g></svg>