<svg version="1.1" xmlns="http://www.w3.org/2000/svg" viewBox="0 0 381.238857574403 161.48711678508153" width="381.238857574403" height="161.48711678508153">
  <!-- svg-source:excalidraw -->
  
  <defs>
    <style class="style-fonts">
      @font-face {
        font-family: "Virgil";
        src: url("https://excalidraw.com/Virgil.woff2");
      }
      @font-face {
        font-family: "Cascadia";
        src: url("https://excalidraw.com/Cascadia.woff2");
      }
    </style>
  </defs>
  <rect x="0" y="0" width="381.238857574403" height="161.48711678508153" fill="#ffffff"></rect><g stroke-linecap="round" transform="translate(295.457607574403 10) rotate(0 37.890625 68.5409610635038)"><path d="M-0.03 0.21 C29.46 1.21, 61.33 -0.17, 74.36 -1.71 M-0.24 0.6 C22.09 0.27, 41.26 -0.02, 76.37 0.41 M74.98 0.19 C76.5 29.46, 77.77 55.69, 75.22 138.02 M75.66 0.37 C74.27 39.54, 75.22 79.02, 76.29 136.39 M74.14 135.6 C51.23 137.61, 27.89 138.81, -0.16 137.38 M75.5 136.19 C53.57 137.88, 31.63 137.27, -0.82 137.89 M-1.02 136.17 C0.2 108.05, 0.27 78.42, -1.03 -1.74 M0.07 136.1 C-1.47 92.33, 0.22 47.17, -0.07 0.5" stroke="#000000" stroke-width="1" fill="none"></path></g><g stroke-linecap="round" transform="translate(18.430366847826008 106.98563542940155) rotate(0 99 17.5)"><path d="M-1.34 0 C44.83 1.63, 92.62 0.95, 196.1 -0.05 M0.27 -0.29 C70.64 2.03, 142.26 2.8, 198.81 0.11 M196.64 -1.5 C197.93 10.25, 197 19.91, 198.74 36.64 M197.51 0.13 C196.94 11.55, 197.32 24.8, 197.72 35.81 M197.49 35.74 C139.65 33.05, 82.29 35.89, 0.3 34.82 M197.32 35.21 C154.26 32.7, 111.17 32.83, -0.33 34.05 M1 36.66 C0.44 24.33, -1.28 17.54, 1.82 -0.99 M0.14 34.83 C0.2 25.27, -1.02 13.99, 0.87 -0.25" stroke="#000000" stroke-width="1" fill="none"></path></g><g transform="translate(85.43036684782601 111.98563542940155) rotate(0 32 12.5)"><text x="32" y="18" font-family="Virgil, Segoe UI Emoji" font-size="20px" fill="#000000" text-anchor="middle" style="white-space: pre;" direction="ltr">&lt;main&gt;</text></g><g stroke-linecap="round" transform="translate(10 99.63162363321953) rotate(0 105.96127717391312 25.927746575930996)"><path d="M-0.43 1.06 C60.75 0.47, 116.36 -0.04, 212.96 0.73 M-0.35 0.08 C43.04 1.3, 86.48 0.63, 211.67 0.41 M211.69 0.73 C210.41 15.67, 212.31 31.22, 212.95 50.47 M211.1 -0.74 C211.23 16.41, 211.39 33.21, 211.84 52.01 M211.43 50.28 C149.87 53.46, 88.3 52.39, -1.44 53.27 M211.48 51.45 C167.72 51.97, 123.88 51.42, -0.45 51.09 M0.14 49.89 C-1.84 34.87, 1.56 17.04, -0.14 0.99 M0.37 52.39 C-0.92 35.93, 0.79 20.73, -0.39 -0.04" stroke="#000000" stroke-width="1" fill="none"></path></g><g stroke-linecap="round"><g transform="translate(218.992866847826 140.9569117247147) rotate(0 39.36018056260741 -1.0784229732012136)"><path d="M1.19 0.32 C13.94 -0.22, 63.44 -2.1, 76.26 -2.47 M0.35 -0.56 C13.48 -0.96, 65.48 -0.37, 78.37 -0.95" stroke="#000000" stroke-width="1" fill="none"></path></g><g transform="translate(218.992866847826 140.9569117247147) rotate(0 39.36018056260741 -1.0784229732012136)"><path d="M50.85 7.78 C57.94 7.65, 66.54 1.59, 78.91 -1.53 M51.18 10.49 C57.71 6.58, 65.37 3.95, 77.69 -1.7" stroke="#000000" stroke-width="1" fill="none"></path></g><g transform="translate(218.992866847826 140.9569117247147) rotate(0 39.36018056260741 -1.0784229732012136)"><path d="M50.58 -12.74 C57.87 -7.22, 66.54 -7.62, 78.91 -1.53 M50.91 -10.03 C57.53 -8.6, 65.26 -5.89, 77.69 -1.7" stroke="#000000" stroke-width="1" fill="none"></path></g></g><g stroke-linecap="round"><g transform="translate(215.70652377537363 107.81401518483744) rotate(0 38.79068221795865 -14.18152488678652)"><path d="M0.32 -1.14 C13.29 -5.92, 65.43 -22.78, 78.56 -27.49 M-0.98 0.88 C11.77 -3.74, 64.34 -24.32, 77.59 -29.24" stroke="#000000" stroke-width="1" fill="none"></path></g><g transform="translate(215.70652377537363 107.81401518483744) rotate(0 38.79068221795865 -14.18152488678652)"><path d="M53.03 -9.63 C64.08 -15.9, 69.12 -23.27, 77.02 -30.04 M55.74 -9.48 C61.63 -15.39, 68.78 -22.63, 76.84 -29.36" stroke="#000000" stroke-width="1" fill="none"></path></g><g transform="translate(215.70652377537363 107.81401518483744) rotate(0 38.79068221795865 -14.18152488678652)"><path d="M45.7 -28.8 C59.58 -28.18, 67.26 -28.65, 77.02 -30.04 M48.41 -28.65 C56.6 -28.69, 66.02 -29.99, 76.84 -29.36" stroke="#000000" stroke-width="1" fill="none"></path></g></g><g stroke-linecap="round" transform="translate(301.69867588922216 82.86497766337288) rotate(0 30.92578125 27.623046875)"><path d="M0 0 C0 0, 0 0, 0 0 M0 0 C0 0, 0 0, 0 0 M-0.75 5.63 C2.09 4.34, 3.1 1.34, 5.64 0.48 M-0.37 6.74 C0.85 4.92, 1.81 3.35, 4.66 0.53 M0.46 12.04 C2.34 9.78, 7.49 5.99, 11.53 1.44 M0.76 12.83 C3.78 8.37, 6.32 4.05, 10.59 -0.29 M-0.15 18.39 C4.31 12.46, 7.13 10.12, 16.66 -0.77 M-0.82 18.41 C3.46 14.44, 7.36 9.63, 16.41 1.18 M-0.83 24.02 C6.6 18.01, 11.37 9.87, 21.71 -0.57 M-0.55 24.04 C4.64 18.33, 9.67 13.9, 21.37 -0.59 M0.72 31.74 C6.84 24.61, 11.66 14.49, 27.86 -0.87 M0.19 30.67 C7.03 21.59, 14.67 13.17, 25.42 1.03 M1.43 35.79 C11.83 23.45, 22.29 14.17, 30.44 -0.28 M-0.05 37.25 C10.09 24.21, 20.79 12.59, 31.27 -0.35 M-0.56 40.55 C13.26 26.29, 26.99 11.48, 36.48 -0.34 M0.67 43.38 C12.34 28.19, 24.29 14.58, 37.31 1.15 M-1.23 49.26 C10.29 38.34, 22.81 23.9, 42.51 0.93 M-0.14 48.93 C12.31 34.99, 25.31 19.73, 42.08 -0.13 M-1.56 55.17 C12.47 40.64, 21.9 28.7, 47.92 1.48 M0.48 54.98 C15.99 37.53, 32.2 19.12, 47.3 -0.04 M4.43 58.98 C15.74 40.22, 31.22 24.9, 52.68 1.65 M2.46 58.15 C15.94 42.33, 27.47 28.3, 52.26 -0.37 M10.22 57.27 C17.5 43.52, 27.3 31.79, 58.74 0.61 M8 56.91 C27.14 36.49, 45.56 16.79, 58.82 0.45 M14.12 59.03 C25.78 43.04, 38.81 28.37, 63.16 -0.44 M12.47 58.81 C26.1 42.43, 37.55 28.15, 63.26 0.34 M18.3 57.94 C36.53 37.92, 49.91 18.4, 64.77 5.19 M18.18 56.79 C33.61 40.58, 46.41 24.86, 62.56 5.96 M23.54 55.95 C39.34 39.54, 50.43 25.45, 61.17 15.26 M24.67 57.46 C32.21 47.26, 40.8 39.04, 62.06 14.05 M30.97 57.6 C37.61 46.1, 48.79 36.4, 64.18 18.4 M29.25 57.32 C43.4 42.63, 55.11 27.46, 62.59 18.12 M35.44 58.56 C42.35 45.72, 52.87 34.63, 63.06 23.52 M33.89 58.17 C42.13 50.34, 48.93 40.92, 62.28 25.72 M39.31 55.98 C47.35 48.31, 57.15 38.52, 63.61 32.99 M39.76 57.24 C49.08 47.34, 58.82 36.83, 63.42 30.39 M45.75 57.01 C48.04 51.73, 51.47 50.84, 63.54 37.07 M46.13 58.6 C50.66 51.62, 56.06 45.96, 62.4 38.01 M52.38 57.2 C53.92 56.13, 55.16 51.66, 63.49 43.18 M50.89 57.36 C53.88 54.05, 55.8 52.13, 62.53 44.7 M56.73 57.25 C58.3 55.21, 59.65 53.32, 62.52 49.88 M55.65 57.34 C57.53 56.06, 58.56 54.2, 63.14 49.68" stroke="#4c6ef5" stroke-width="0.5" fill="none"></path><path d="M0.83 -1.95 C13.22 -0.94, 24.56 -0.17, 62.2 1.73 M0.47 -0.15 C22.89 -0.58, 47.02 0.54, 61.27 0.44 M60.47 0.25 C61.33 18.87, 60.67 35.74, 60.97 55.68 M62 -0.08 C62.05 15.4, 62.02 29.17, 61.79 55.77 M63.46 53.39 C41.01 55.17, 21.87 53.83, -0.73 54.59 M60.98 55.51 C45.84 55.76, 28.89 53.94, -0.79 55.21 M0.99 55.2 C0.56 33.32, 1.02 13.13, -1.69 -0.99 M-0.04 54.82 C-0.14 34.28, -0.22 11.96, 0.48 -0.79" stroke="#000000" stroke-width="1" fill="none"></path></g><g transform="translate(314.62445713922216 97.98802453837288) rotate(0 18 12.5)"><text x="18" y="18" font-family="Virgil, Segoe UI Emoji" font-size="20px" fill="#000000" text-anchor="middle" style="white-space: pre;" direction="ltr">212</text></g><g stroke-linecap="round" transform="translate(302.1218529725543 19.144274538385616) rotate(0 30.92578125 27.623046875)"><path d="M0.54 -0.58 C21.39 0.79, 44.73 2.33, 63.47 0.21 M-0.68 -0.75 C16.7 0.46, 33.05 0.53, 62.22 0.82 M60.87 0.26 C59.83 17.92, 60.59 39.24, 61.29 56.88 M61.6 0.37 C61.66 15.23, 61.87 32.77, 62 55.16 M60.49 55.67 C47.33 53.76, 34.11 54.02, -0.66 53.35 M62.35 56.08 C46.55 54.42, 30.33 55.37, 0.91 54.75 M0.29 54.91 C0.47 40.12, -1.96 21.87, 1.73 -0.51 M-0.28 55.63 C-0.34 40.27, 0.51 25.64, -0.61 -0.31" stroke="#000000" stroke-width="1" fill="none"></path></g></svg>