<svg version="1.1" xmlns="http://www.w3.org/2000/svg" viewBox="0 0 364.752200069651 238.0078125" width="364.752200069651" height="238.0078125">
  <!-- svg-source:excalidraw -->
  
  <defs>
    <style class="style-fonts">
      @font-face {
        font-family: "Virgil";
        src: url("https://excalidraw.com/Virgil.woff2");
      }
      @font-face {
        font-family: "Cascadia";
        src: url("https://excalidraw.com/Cascadia.woff2");
      }
    </style>
  </defs>
  <rect x="0" y="0" width="364.752200069651" height="238.0078125" fill="#ffffff"></rect><g stroke-linecap="round" transform="translate(82.275637569651 93.19140625) rotate(0 30.92578125 27.623046875)"><path d="M0 0 C0 0, 0 0, 0 0 M0 0 C0 0, 0 0, 0 0 M-0.83 7.09 C2.23 4.15, 2.57 2.76, 5.36 0.37 M-0.54 6.58 C0.92 4.6, 2.55 3.54, 4.62 0.11 M-0.43 11.57 C5.44 7.73, 6.84 3.82, 11.64 0.45 M-0.63 11.89 C2.7 9.33, 4.83 5.71, 9.95 -0.02 M0.67 17 C3.45 12.82, 5.47 8.71, 17.6 2.03 M-0.81 17.87 C3.96 14.3, 8.08 8.85, 15.8 0.83 M-0.3 23.26 C5.74 20.85, 7.25 12.11, 19.96 -1.1 M0.71 24.83 C9.1 14.12, 16.79 5.56, 21.34 0.88 M0.12 29.76 C7.1 19.17, 18.71 8.8, 27.35 1.86 M0.29 30.52 C9.4 17.53, 20.29 6.54, 25.33 -0.62 M-0.82 37.81 C10.28 26.3, 19.39 12.49, 30.04 0 M0.01 36.87 C8.05 27.36, 17.95 16.19, 32.54 0.75 M-1.17 40.63 C14.94 26.54, 28.92 8.68, 37.91 0.8 M0.43 42.7 C8.37 33.33, 17.77 23.33, 36.35 0.1 M-1.19 47.62 C16.68 29.11, 30.06 13.07, 42.81 0.06 M0.63 49.59 C9.64 38.36, 18.66 27.93, 42.95 -0.23 M-1.66 54.96 C17.22 36.03, 31.61 20.61, 48.39 1.85 M-0.26 55.03 C13.75 41.15, 24.96 25.13, 48.08 0.88 M4.54 58.57 C22.17 35.98, 42.91 14.03, 52.35 0.4 M2.32 57.06 C16.68 41.38, 31.83 23.96, 53.21 -0.19 M9.48 58.1 C21.89 44.13, 32.13 31.35, 56.33 0.1 M7.29 56.75 C20.64 43.71, 33.82 29.34, 58.3 -0.2 M12.03 56.83 C30.63 41.79, 46.53 22.13, 63.5 2.15 M12.68 57.78 C32.44 36.56, 50.33 16.14, 63.34 0.18 M17.37 57.61 C33.45 43.32, 43.84 26.93, 61.78 7.55 M19.07 56.9 C33.78 39.49, 49.71 23.07, 62.43 6.97 M24.23 57.79 C36.55 44.37, 48.35 28.87, 61.3 14.14 M23.71 58.53 C35.94 42.26, 48.75 28.66, 63.21 12.5 M31.16 59.13 C37.34 47.7, 43.4 39.71, 62.39 19.96 M28.73 57.23 C41.63 43.36, 53.92 29.7, 63.65 18.37 M34.37 59.84 C42.76 51.96, 45.53 44.21, 63.22 24.1 M33.85 57.27 C42.57 47.37, 51.7 37.36, 61.74 24.9 M42.02 56.37 C50.56 48.03, 55.53 38.41, 63.51 31.43 M40.61 57.14 C46.05 50.78, 51.59 45.04, 63.96 31.43 M44.07 59.49 C49.52 50.75, 56.5 42.9, 64.3 38.48 M45.07 57.12 C51.03 50.32, 59.16 41.8, 63.09 36.83 M50.56 56.25 C53.39 54.67, 55.97 48.1, 63.54 42.35 M50.15 57.72 C54.03 54.33, 58.17 50.27, 62.67 43.81 M56.65 57.53 C58.67 54.87, 61.74 52.44, 63.36 49.78 M55.85 57.59 C58.52 54.33, 61.49 51.79, 62.52 49.57" stroke="#228be6" stroke-width="0.5" fill="none"></path><path d="M-1.71 1.09 C11.89 0.22, 29.65 -1.18, 63.2 -1.56 M-0.89 0.66 C11.9 0.67, 26.54 0.77, 60.97 -0.02 M63.79 -1.78 C59.93 15.89, 62.32 31.84, 62.08 53.35 M61.76 -0.66 C62.92 15.19, 62.6 30.89, 61.16 56.06 M60.16 55.41 C45.44 55.7, 29.97 56.6, 0.74 56.06 M62.11 55.64 C46.5 54.73, 29.54 54.43, -0.87 56.19 M0.75 54.88 C-0.32 37.64, 0.46 20.87, 1.66 -0.26 M-0.84 56.18 C-0.4 35.88, -1.08 15.98, 0.65 -0.75" stroke="#000000" stroke-width="1" fill="none"></path></g><g transform="translate(109.701418819651 108.314453125) rotate(0 3.5 12.5)"><text x="3.5" y="18" font-family="Virgil, Segoe UI Emoji" font-size="20px" fill="#000000" text-anchor="middle" style="white-space: pre;" direction="ltr">1</text></g><g stroke-linecap="round" transform="translate(82.158450069651 20.291015625) rotate(0 30.92578125 27.623046875)"><path d="M-1.24 1.69 C22.34 1.04, 43.9 -0.02, 63.45 0.44 M0.3 -0.49 C13.35 -0.9, 25.62 -0.57, 61.77 0.33 M61.88 -1.54 C61.34 13.59, 62.43 23.98, 61.89 53.74 M62.7 -0.61 C60.47 12.68, 60.74 24.56, 62.02 55.45 M62.85 53.5 C39.84 55.42, 17.64 54.53, 0.98 57.16 M61.34 56.24 C50.32 54.78, 37.44 55.59, 0.66 54.93 M1.89 56.15 C-0.31 38.12, -0.31 21.8, -1.95 -0.99 M0.79 56.15 C-0.29 37.99, 0.55 18.82, -1 -0.93" stroke="#000000" stroke-width="1" fill="none"></path></g><g stroke-linecap="round"><g transform="translate(10.951418819650996 48.8671875) rotate(0 29.736887251903937 -0.2951074556687274)"><path d="M-0.95 0.46 C9.24 0.45, 50.5 0.53, 60.43 0.66 M0.75 -0.34 C10.92 -0.78, 49.84 -1.2, 59.88 -1.25" stroke="#000000" stroke-width="1" fill="none"></path></g><g transform="translate(10.951418819650996 48.8671875) rotate(0 29.736887251903937 -0.2951074556687274)"><path d="M32.7 10.47 C39.23 5.21, 46.81 4.6, 59.63 -1.01 M32.02 9.49 C42.27 4.95, 52.36 1.64, 60.1 -1.16" stroke="#000000" stroke-width="1" fill="none"></path></g><g transform="translate(10.951418819650996 48.8671875) rotate(0 29.736887251903937 -0.2951074556687274)"><path d="M32.53 -9.94 C39.22 -10.34, 46.84 -6.08, 59.63 -1.01 M31.85 -10.92 C42.08 -8.31, 52.23 -4.46, 60.1 -1.16" stroke="#000000" stroke-width="1" fill="none"></path></g></g><g stroke-linecap="round" transform="translate(286.22986260447664 162.4501953125) rotate(0 30.92578125 27.623046875)"><path d="M1.89 -1.05 C18.01 -2, 34.93 1.13, 62.59 -1.81 M-0.66 -0.39 C15.85 0.87, 33.05 1.19, 62.7 0.37 M59.96 -0.29 C60.7 13.08, 60.16 21.9, 59.97 55.22 M61.59 -0.19 C61.77 20.44, 61.41 41.6, 62.64 55.81 M60.96 54.44 C41.52 55.59, 18.55 54.69, 0.01 56.26 M62.53 56 C40.95 56.34, 20.71 55.89, 0.62 56.04 M0.79 54.48 C-0.97 45.46, -1.26 32.91, 0.04 -1.99 M-0.63 54.81 C1.18 43.64, 0.81 33.31, 0.71 -0.98" stroke="#000000" stroke-width="1" fill="none"></path></g><g stroke-linecap="round"><g transform="translate(215.02283135447664 191.0263671875) rotate(0 29.848678283151287 0.4533415184731382)"><path d="M-0.63 0.26 C8.99 0.08, 48.06 0.02, 58.17 0.09 M1.24 -0.65 C11.18 -0.12, 50.58 1.68, 60.33 1.55" stroke="#000000" stroke-width="1" fill="none"></path></g><g transform="translate(215.02283135447664 191.0263671875) rotate(0 29.848678283151287 0.4533415184731382)"><path d="M32.72 9.33 C41.42 9.39, 51.84 3, 59.61 1.34 M31.79 11.74 C40.07 9.66, 47.93 6.56, 59.38 1.22" stroke="#000000" stroke-width="1" fill="none"></path></g><g transform="translate(215.02283135447664 191.0263671875) rotate(0 29.848678283151287 0.4533415184731382)"><path d="M33.15 -10.93 C41.89 -4.04, 52.17 -3.61, 59.61 1.34 M32.22 -8.52 C40.25 -5.28, 48 -3.05, 59.38 1.22" stroke="#000000" stroke-width="1" fill="none"></path></g></g><g stroke-linecap="round" transform="translate(278.970950069651 156.3046875) rotate(0 37.890625 34.412109375)"><path d="M1.64 0.86 C21.85 -0.59, 43.66 -0.91, 76.48 0.9 M-0.31 -0.07 C17.71 0.52, 34.95 0.11, 76.54 0.53 M77.01 -0.13 C75.1 18.4, 76.05 36.54, 74.56 67.97 M75.66 0.19 C74.55 16.42, 74.67 32.52, 76.07 69.09 M77.55 69.52 C53.35 69.94, 34.22 69, -0.08 68.08 M75.74 67.94 C48.68 68.26, 20.42 69.21, -0.3 69.01 M-1.73 70.18 C-0.48 39.94, 0.24 13.13, -1.47 1.7 M0.6 69.49 C0.63 45.16, -0.08 21.42, -0.28 -0.99" stroke="#000000" stroke-width="1" fill="none"></path></g><g stroke-linecap="round" transform="translate(83.564700069651 162.775390625) rotate(0 30.92578125 27.623046875)"><path d="M0 0 C0 0, 0 0, 0 0 M0 0 C0 0, 0 0, 0 0 M-0.56 6.24 C0.9 4.12, 2.93 3.54, 5.48 0.73 M0.01 6.8 C1.43 5.14, 2.91 3.2, 5.34 0.73 M-0.41 13.08 C5.59 7.55, 6.85 3.31, 11.66 0.38 M-0.16 12.44 C2.67 9.34, 4.29 6.19, 10.74 -0.54 M-1.16 20.31 C3.22 15.27, 7.74 10.34, 14.71 1.83 M-0.01 17.97 C5.53 12.49, 11.76 4.3, 16.51 0.6 M-1.01 22.68 C3.96 19.81, 11.78 11.5, 20.51 1.51 M0.61 23.7 C8.36 15.47, 14.6 6.95, 20.5 -0.51 M-0.13 29.5 C8.79 20.86, 15.56 11.2, 24.7 -0.45 M-0.21 30.5 C9.09 21.22, 15.59 12.61, 26.1 0.87 M0.48 35.37 C11.63 22.65, 23.17 10.34, 33.76 -0.57 M-0.2 36.77 C13.55 21.41, 25.35 7.69, 32.75 0.17 M1.31 44.39 C15 27.1, 30.35 10.75, 36.37 -0.23 M-0.18 43.06 C7.7 33.75, 15.86 22.95, 37.46 -0.33 M-1.31 50 C16.93 28.41, 33.1 11.28, 41.08 -2.12 M0.8 48.44 C13.12 35, 25.19 19.95, 42.94 0.57 M1.82 55.36 C16.05 34.97, 37.19 14.35, 47.36 1.42 M0.88 55.46 C15.21 38.78, 27.99 22.06, 47.13 -0.71 M2.47 57.97 C17.63 40.26, 34.35 21.83, 51.32 0.04 M3.53 57.34 C13.26 45.15, 25.76 33.3, 53.27 -0.43 M7.39 59.29 C26.9 39.42, 42.68 20.06, 56.75 0.97 M8.42 58.16 C21.36 42.01, 34.37 27.57, 57.47 0.73 M13.41 56.46 C30.52 40.27, 46.79 18.2, 64.13 1.42 M12.95 57.07 C23.04 45.04, 33.04 34.42, 64.08 0.55 M18.31 55.74 C30.88 44.01, 44.23 27.54, 63.14 7.24 M19.57 58.44 C28.52 45.95, 39.81 33.63, 62.69 6.52 M25.37 59.31 C38.06 40.95, 52.31 24.77, 61.4 11.66 M24.7 57.04 C38.04 41, 54.27 24.06, 63.3 13.16 M28.93 56.78 C39.08 45.33, 49.01 35.4, 61.79 18.32 M28.82 58.27 C39.22 45.29, 49.85 34.05, 62.03 19.58 M33.57 56.88 C46.16 44.91, 54.26 32.76, 61.43 23.82 M34.05 58.32 C44.39 45.71, 53.06 36.44, 62.62 24.62 M39.68 59.05 C45.48 49.67, 55.24 40.12, 64.67 30.1 M40.13 58.34 C47.15 48.27, 55.25 41.47, 63.76 31.79 M46.63 57.08 C49.87 50.94, 53.96 49.6, 62.19 36.08 M46.07 58.69 C50.38 51.66, 56.66 44.1, 62.71 37.45 M50.43 58.6 C54.87 53.33, 59.95 48.38, 63.83 42.22 M50.23 57.08 C53.01 53.29, 57.58 49.72, 62.68 43.79 M55.15 57.55 C58.74 55.47, 59.73 52.06, 62.29 49.46 M55.69 58.25 C57.48 55.01, 60.5 53.07, 63.39 49.3" stroke="#228be6" stroke-width="0.5" fill="none"></path><path d="M-0.09 -0.55 C13.33 -0.87, 28.85 1.85, 62.6 -0.19 M0.62 0.9 C21.66 -0.2, 42.74 0.35, 61.23 0.01 M61.49 -1.73 C61.34 20.2, 62.89 45.2, 62.2 56.91 M62.1 0.04 C61.24 18.64, 61.72 37.78, 61.43 55.71 M63.63 57.16 C39 54.78, 17.04 54.8, -1.14 55.6 M61.33 55.78 C40.37 55.4, 18.98 55.07, -0.32 55.72 M0.93 56.21 C-1.36 36.37, -0.57 17.76, -1.91 1.72 M0.2 55.3 C-0.3 36.93, 0.27 17.43, 0.86 -0.3" stroke="#000000" stroke-width="1" fill="none"></path></g><g transform="translate(106.490481319651 177.8984375) rotate(0 8 12.5)"><text x="8" y="18" font-family="Virgil, Segoe UI Emoji" font-size="20px" fill="#000000" text-anchor="middle" style="white-space: pre;" direction="ltr">2</text></g><g stroke-linecap="round" transform="translate(74.404543819651 10) rotate(0 39.375 109.00390625)"><path d="M0.24 -0.94 C29.46 2.44, 60.22 0.09, 80.53 0.54 M-0.64 -0.7 C18.94 0.26, 39.91 -0.88, 78.38 0.79 M79.34 -0.66 C78.61 73.15, 77.06 146.53, 77.42 217.24 M78.69 -0.43 C79.9 65.42, 79.4 130.77, 78.08 217.68 M78.32 218.04 C56.36 218.5, 29.16 219.78, -0.29 219.16 M79.12 217.25 C50.58 218.14, 22.16 218.65, 0.93 217.78 M0.09 217.83 C2.36 130.14, 0.64 45.14, 1.49 0.48 M0.51 218.82 C0.54 134.35, 1.07 50.35, -0.22 -0.21" stroke="#000000" stroke-width="1" fill="none"></path></g></svg>