<svg version="1.1" xmlns="http://www.w3.org/2000/svg" viewBox="0 0 336.1931699110918 367.6640625" width="336.1931699110918" height="367.6640625">
  <!-- svg-source:excalidraw -->
  
  <defs>
    <style class="style-fonts">
      @font-face {
        font-family: "Virgil";
        src: url("https://excalidraw.com/Virgil.woff2");
      }
      @font-face {
        font-family: "Cascadia";
        src: url("https://excalidraw.com/Cascadia.woff2");
      }
    </style>
  </defs>
  <rect x="0" y="0" width="336.1931699110918" height="367.6640625" fill="#ffffff"></rect><g stroke-linecap="round" transform="translate(84.57253291056963 296.671875) rotate(0 30.92578125 27.623046875)"><path d="M0 0 C0 0, 0 0, 0 0 M0 0 C0 0, 0 0, 0 0 M-0.7 5.95 C2.03 4.99, 2.67 3.57, 4.35 -0.03 M-0.63 6.03 C1.37 4.32, 2.62 2.53, 5.33 0.73 M-0.97 11.67 C2.79 10.64, 5.63 6.56, 10.3 0.38 M0.22 11.32 C3.46 9.6, 5.11 6.83, 10.11 -0.15 M1.03 17.12 C4.77 15.31, 8.38 10.28, 15.15 -1.37 M0.36 18.8 C6.66 11.5, 12.4 4.73, 16.24 0.82 M-1.3 24.9 C7.31 14.37, 13.33 7.5, 23.13 -0.43 M-0.41 23.8 C6.12 17.45, 11.77 11.77, 22.11 -0.19 M1.74 30.49 C5.49 25.21, 11.78 18.75, 27.17 0.28 M0.7 29.53 C8.99 21.54, 16.23 10.82, 26.73 0.1 M-2.22 38.44 C6.79 29.76, 10.86 22.28, 30.01 0.54 M0.23 36.34 C8.57 25.95, 19.58 13.46, 31 0.88 M-1.45 42.16 C12.31 28.79, 20.28 16.88, 35.21 -1.35 M-0.67 42.02 C13.72 26.32, 28.55 11, 37.09 -0.53 M-1.72 47.77 C13.46 34.91, 27.48 16.57, 40.81 -1.03 M0.61 48.22 C13.2 33.78, 25.98 18.62, 42.56 -0.53 M-1.35 54.48 C13.32 42.58, 21.66 29.02, 46.43 -0.38 M-0.46 55.36 C17.96 35.45, 35.4 15.53, 47.87 0.98 M2.58 59.23 C14.79 42.77, 27.5 27.18, 54.91 0.03 M2.63 57.84 C17.45 41.35, 32.57 22.24, 52.48 0.74 M6.56 58.31 C24.15 35.98, 44.96 16.38, 59.43 0.64 M8.25 58.26 C25.1 37.73, 44.24 18.08, 58.4 0.39 M11.8 59 C31.68 35.77, 52.5 16.13, 64.48 -0.79 M14.23 57.57 C27.43 41.04, 43.76 23.25, 63.58 1.33 M19.09 57.16 C35.53 39.75, 50.28 20.84, 62.35 5.51 M19.08 57.27 C31.21 43.94, 42.81 30.95, 62.88 6 M25.34 55.87 C34.98 44.57, 42.57 34.71, 61.94 12.09 M23.03 58.58 C35.24 43.41, 48.62 30.1, 63.27 13.17 M29.14 57.08 C36.34 47.9, 46.69 38.18, 61.99 17.27 M30.03 56.63 C39.9 45.47, 50.97 32.38, 63.53 19.5 M33.94 57.18 C39.9 49.82, 46.81 45.1, 62.13 23.71 M35.31 58.69 C43.19 47.5, 52.54 37.22, 63.72 24.72 M41.65 58.67 C48.31 47, 57.97 37.7, 63.84 30.79 M39.49 58.29 C48.33 48.49, 56.89 37.1, 62.6 30.53 M43.77 57.78 C52.22 48.51, 57.8 44.16, 61.55 38.23 M46.1 57.46 C48.41 54.04, 53.97 48.81, 63.12 36.8 M50.99 56.22 C54.36 53.47, 56.03 51.14, 63.52 42.63 M51.58 56.95 C52.58 54.5, 56.26 52.13, 61.97 44.43 M56.14 56.87 C58.01 55.54, 58.44 54.36, 62.87 49 M55.49 57.99 C58.55 54.93, 60.72 51.45, 62.47 49.84" stroke="#228be6" stroke-width="0.5" fill="none"></path><path d="M-0.32 -0.76 C17.8 -1.34, 36.78 1.49, 60.47 1.8 M0.39 0.2 C23.32 -0.53, 45.95 -0.4, 60.91 0.61 M63.43 0.48 C59.96 17.88, 63.1 34.5, 61.16 55.49 M61.35 -0.99 C63.2 12.88, 62.92 26.7, 62.33 55.55 M61.48 56.15 C43.22 54, 24.57 53.31, 0.31 56.53 M62.68 55.25 C38.87 55.14, 16.88 56.63, -0.09 56.11 M-1.32 56.61 C-1.15 40.6, -0.54 24.68, 1.29 -0.59 M0.72 54.85 C-0.57 35.62, 1.26 14.64, 0.22 0.49" stroke="#000000" stroke-width="1" fill="none"></path></g><g transform="translate(107.99831416056963 311.794921875) rotate(0 7.5 12.5)"><text x="7.5" y="18" font-family="Virgil, Segoe UI Emoji" font-size="20px" fill="#000000" text-anchor="middle" style="white-space: pre;" direction="ltr">4</text></g><g stroke-linecap="round" transform="translate(83.38503291056963 15.115234375) rotate(0 30.92578125 27.623046875)"><path d="M-0.62 -1.42 C17.67 1.65, 34.09 2.03, 63.16 -0.92 M0.7 0 C24.58 0, 46.77 0.48, 62.01 -0.83 M60.42 0.41 C64 14.75, 61.59 30.64, 60.54 56.97 M62.73 -0.06 C62.17 21.07, 62.05 40.82, 61.82 55.21 M61.59 54.24 C45.17 53.83, 29.85 56.81, 1.13 54.18 M60.92 54.72 C38.28 56.22, 16.39 56.11, -0.14 54.87 M-1.36 56.39 C-0.38 38.34, 1.66 18.85, 1.32 -1 M-0.85 55.85 C0.58 41.83, -0.18 29.21, 0.14 0.97" stroke="#000000" stroke-width="1" fill="none"></path></g><g stroke-linecap="round" transform="translate(76.90456416056963 10) rotate(0 37.556640625 173.83203125)"><path d="M-1.42 -0.06 C22.73 -1.15, 44.43 1.55, 74.19 1.71 M0 0.72 C25.56 -1.47, 51.47 -0.37, 74.28 -0.25 M75.38 1.12 C75.37 131.31, 75.82 262.66, 76.24 348.54 M75.07 0.39 C73.39 87.15, 73.05 173.65, 75.09 347.41 M74.11 347.14 C52.27 347.88, 34.1 348.7, -1.07 349 M74.59 346.78 C47.36 346.87, 18.53 346.82, -0.38 347.9 M0.75 347.18 C-0.9 267.09, -1.94 185.69, -0.65 -0.78 M0.39 348.31 C0.79 218.47, 1.21 89.09, 0.64 0.47" stroke="#000000" stroke-width="1" fill="none"></path></g><g stroke-linecap="round" transform="translate(84.24715026258468 224.0625) rotate(0 30.92578125 27.623046875)"><path d="M0 0 C0 0, 0 0, 0 0 M0 0 C0 0, 0 0, 0 0 M-0.32 6.91 C0.33 4.52, 2.2 3.19, 4.29 -0.38 M-0.49 6.05 C1.17 5.55, 1.65 3.95, 4.97 0.09 M0.77 12.16 C2.69 9.02, 5.1 4.97, 10.1 0.13 M-0.14 12.81 C1.71 9.33, 4 6.94, 10.4 0.43 M0.6 19.19 C3 12.4, 9.09 11.74, 16.46 1.3 M0.08 19.17 C5.65 12.8, 10.46 6.72, 16.51 -0.46 M0.25 22.87 C9.22 15.69, 13.54 7.38, 20.31 -1.42 M1.16 23.82 C6.69 17.54, 10.68 11.05, 21.55 0.8 M0.5 31.79 C8.84 21.22, 16.16 11.31, 25.44 1.68 M-0.6 29.92 C5.71 23.96, 9.61 18.16, 26.09 -0.69 M-2.09 37.2 C9.91 23.48, 24.2 10.7, 31.75 0.87 M-0.16 36.54 C7.1 28.55, 15.78 18.94, 31.36 -0.9 M-0.62 40.96 C8.44 29.32, 22.04 20.31, 38.22 -1.36 M0.98 43.28 C9.58 31.13, 18.7 21.13, 36.79 -0.54 M0.53 47.41 C8.49 35.84, 20.77 25.8, 40.54 1.33 M-0.35 48.76 C9.6 37.35, 18.85 27.37, 42.02 -0.95 M-1.27 55.74 C12.67 37.58, 29.13 22.15, 46.26 -1.25 M0.43 55.48 C18.45 34.35, 35.5 13.68, 48.5 0.2 M2.8 56.57 C22.81 37.01, 39.5 14.51, 52.38 -0.19 M1.81 57.06 C17.05 41.62, 32.97 24.08, 53.56 -1.03 M9.4 57.66 C26.96 38.81, 43.62 19.68, 56.5 0.14 M9.04 58.41 C27.44 36.39, 46.47 13.93, 57.92 -0.55 M14.14 59.51 C32.6 36.35, 49.04 18.55, 61.76 2.48 M13.64 57.95 C27.42 43.25, 40.83 26.34, 63.14 0.64 M18.5 56.92 C30.67 41.74, 42.95 27.05, 61.38 7.3 M18.76 57.75 C31.02 42.78, 42.71 29.36, 62.57 7.67 M22.28 57.72 C30.78 48.07, 39.59 41.44, 63.4 11.62 M24.08 58.75 C39.26 41.22, 52.54 25.03, 62.52 13.15 M29.24 58.28 C38.26 44.91, 48.97 36.58, 64 19.96 M29.92 56.92 C37.31 49.59, 43.2 40.67, 62.02 18.7 M34.26 59.22 C41.6 47.66, 49.98 39.72, 62.47 26.95 M34.75 57.46 C46.48 44.74, 57.03 32.16, 62.23 26.13 M40.89 57.01 C49.24 47.76, 58.4 36.91, 62.19 29.67 M39.29 57.01 C48.66 46.57, 58.77 37.11, 63.87 30.34 M44.55 59.58 C49.09 52.65, 54.16 45.3, 61.76 39.33 M46.04 57.79 C50.26 51.63, 54.22 47.26, 62.77 37.53 M50.2 57.91 C54.42 53.07, 54.58 50.05, 63.82 45.39 M51.33 57.79 C53.21 54.63, 55.96 50.2, 63.21 44.11 M55.4 57.85 C57.18 55.52, 59.57 53.24, 62.54 48.88 M55.42 57.43 C57.7 55.3, 61 51.66, 63.05 49.36" stroke="#228be6" stroke-width="0.5" fill="none"></path><path d="M-0.06 1.41 C14.81 2.24, 33.7 -0.48, 63.57 0.77 M0.72 0.13 C18.87 0.61, 39.78 -0.83, 61.6 0.79 M63.56 -0.45 C60.76 18.16, 60.14 37.55, 63.18 54.24 M62.45 0.82 C62.81 11.38, 62.31 22.12, 61.46 55.06 M61.33 53.55 C40.81 56.22, 20.28 53.86, 1.34 56.89 M60.97 56.22 C43.21 55.79, 24.61 54.55, 0.24 54.59 M-0.75 56.25 C1.67 34.31, 1.7 13.56, -1.2 1.44 M0.98 55.09 C0.68 41.33, 0.6 27.4, 0.72 0.53" stroke="#000000" stroke-width="1" fill="none"></path></g><g transform="translate(107.17293151258468 239.185546875) rotate(0 8 12.5)"><text x="8" y="18" font-family="Virgil, Segoe UI Emoji" font-size="20px" fill="#000000" text-anchor="middle" style="white-space: pre;" direction="ltr">3</text></g><g stroke-linecap="round" transform="translate(82.89518470580697 152.125) rotate(0 30.92578125 27.623046875)"><path d="M0 0 C0 0, 0 0, 0 0 M0 0 C0 0, 0 0, 0 0 M-0.89 6.84 C2.07 5.17, 3.19 2.93, 4.63 0.95 M-0.12 6.09 C0.8 4.8, 2.12 3.08, 4.81 0.16 M1.27 10.75 C4.74 6.75, 8.2 5.1, 9.26 -0.76 M0.88 11.61 C2.63 8.68, 6.43 6.5, 10.45 0.08 M0.85 17.64 C6.88 12.71, 11.59 5.72, 13.65 2.23 M0.57 17.7 C4.51 13.64, 9.8 7.89, 16.5 -0.1 M1.15 25.13 C4.03 18.56, 9.37 14.06, 19.85 1.31 M0.89 24.23 C7.83 16.97, 13.22 8.25, 21.83 -0.17 M-0.95 30.74 C5.39 21.15, 14.24 13.92, 27.91 -1.22 M-0.69 30.53 C6.57 24.9, 11.02 16.58, 25.66 -0.37 M-0.45 38.55 C12.91 22.48, 25.08 11.37, 30.65 1.2 M-0.51 36.39 C6.36 28.49, 14.04 20.99, 31.64 0.3 M-1.5 42.68 C13.87 26.9, 27.91 11.57, 36.53 -1.13 M0.34 42.41 C12 28.75, 22.52 16.97, 37.33 0.35 M0.99 47.3 C9.66 37.34, 23.04 23.61, 43.2 1.41 M0.85 48.42 C11.86 35.01, 24.75 20, 42.27 -0.08 M-1.68 54.87 C19.36 31.36, 37.28 14.02, 48.64 1.44 M-0.52 54.39 C17.51 35.43, 33.98 13.71, 47.58 1.07 M1.78 58.82 C20.33 37.59, 38.01 16.78, 52.82 -1.85 M2.39 57.68 C19.77 38.49, 36.02 19.94, 53.96 -0.16 M6.97 57.21 C24.68 38.01, 39.24 21.87, 56.77 0.98 M8.19 57.17 C21.39 43.16, 32.99 28.17, 57.28 0.54 M12.97 56.33 C27.4 44.4, 37.71 28.05, 63.61 1.96 M13.59 57.51 C23.95 45.12, 36.33 30.2, 64.03 0.64 M17.2 56.29 C32.14 43.48, 41.68 31.93, 62.99 6.37 M18.61 57.25 C30.94 41.87, 44.25 27.21, 62.18 6 M23.91 57.69 C31.93 47.61, 39.52 39.89, 63.93 11.52 M23.6 58.05 C36.53 44.31, 46.71 29.95, 62.44 14.22 M29.83 57.22 C37.59 50.58, 44.08 41.7, 64.04 17.72 M29.26 56.85 C38.5 47.15, 50.06 34.51, 62 18.14 M35.28 59.29 C44.54 47.72, 53.78 34.3, 64.57 26.9 M34.22 58.09 C41.13 52.11, 45.66 44.78, 61.91 25.04 M41.76 55.66 C48.91 47.25, 58.61 36.21, 63.36 30.93 M41.09 57.88 C46.76 48.57, 54.63 40.22, 62.54 31.55 M43.17 57.07 C48.45 50.47, 54.77 46.7, 61.95 39.33 M46.03 58.17 C52.13 51.13, 57.47 42.17, 63.12 37.85 M51.26 56.89 C55.75 53.51, 56.42 50.69, 62.59 43.56 M50.81 57.01 C54.69 52.8, 59.27 47.74, 63.08 44.52 M55.42 58.19 C57.98 54.28, 61.23 51.49, 62.77 49.13 M56.12 58.18 C58.61 54.55, 61.76 51.1, 63.11 49.42" stroke="#228be6" stroke-width="0.5" fill="none"></path><path d="M-1.8 -1.69 C16.69 0.8, 31.67 0.51, 61.09 -1.03 M-0.64 0.02 C13.61 0.72, 27.02 0.59, 61.88 -0.01 M62.25 -1.69 C60.64 20.86, 61.58 42.57, 63.78 56.59 M61.03 -0.32 C61.02 13.2, 62.54 24.89, 61.11 55 M60.25 55.49 C39.68 55.16, 13.22 57.49, 0.9 55.89 M60.87 54.28 C39.55 55.81, 16.7 54.75, 0.49 56.05 M-0.81 54.97 C0.17 41.47, -1.23 27.39, -1.32 1.36 M-0.01 55.56 C1.1 43.68, 0.91 31.94, 0.94 -0.49" stroke="#000000" stroke-width="1" fill="none"></path></g><g transform="translate(105.82096595580697 167.248046875) rotate(0 8 12.5)"><text x="8" y="18" font-family="Virgil, Segoe UI Emoji" font-size="20px" fill="#000000" text-anchor="middle" style="white-space: pre;" direction="ltr">2</text></g><g stroke-linecap="round" transform="translate(81.69987220580697 80.3671875) rotate(0 30.92578125 27.623046875)"><path d="M0 0 C0 0, 0 0, 0 0 M0 0 C0 0, 0 0, 0 0 M-0.27 6.59 C2.07 3.88, 3.61 2.32, 5.25 0.04 M-0.41 6.76 C0.78 5.07, 2.05 3.68, 4.64 0.12 M1.06 12.14 C3.8 7.24, 9.04 4.17, 10.15 -0.45 M-0.17 11.49 C1.99 8.33, 5.41 5.49, 10.64 -0.11 M-0.51 19.77 C3.15 12.85, 10.36 8.88, 15.02 0.68 M-0.41 18.28 C6.76 10.57, 11.21 4.01, 15.77 0.2 M-0.19 25.13 C6.29 15.39, 14.94 5.99, 20.7 -1.32 M-0.26 23.08 C3.69 19.28, 8.26 14.35, 21.64 0.66 M-0.45 32.32 C8.93 19.83, 15.55 12.84, 25.63 0.81 M0.02 29.65 C9.89 19.17, 20.97 6.64, 27.05 -0.6 M-1.92 37.11 C9.89 25.58, 20.65 12.71, 33.73 0.77 M0.04 36.29 C6.8 29.44, 12.08 22.84, 30.9 -0.47 M0.51 41.61 C10.11 34.91, 14.19 26.15, 38.62 0.99 M-0.65 42.77 C12.7 28.39, 25.26 13.25, 37.13 -0.03 M1.32 48.9 C15.9 31.56, 33.47 9.69, 42.55 -1.02 M-0.27 49.44 C12.25 35.66, 22.4 22.21, 42.19 0.24 M-1.42 54.14 C13.42 40.72, 26.01 22.74, 48.72 1.72 M-0.04 54.76 C13.73 39.69, 27.88 23.04, 47.91 -0.7 M0.97 55.97 C11.81 46.25, 26.08 32.35, 52.17 0.01 M3.31 57.06 C20.14 37.21, 40.36 14.16, 53.01 0.33 M9.38 56.82 C27.09 34.79, 48.98 12.66, 56.2 -1.1 M7.84 57.47 C22.24 40.54, 38.08 22.63, 57.98 -0.43 M13.32 57.43 C27.17 42.45, 40.82 27.38, 62.51 0.75 M13.24 58.65 C27.45 38.74, 44.28 21.05, 63.9 -0.13 M18.99 57.07 C32.7 44.09, 44.1 26.98, 61.02 6.68 M19.58 57.63 C27.5 46.95, 37.66 35.79, 62.74 6.53 M23.08 58.97 C37.54 41.77, 51.06 25.59, 63.85 14.09 M23.59 57.6 C39.93 39.62, 55.34 22.09, 61.96 13.27 M27.65 56.71 C41.21 43.85, 57.71 27.96, 63.89 18.35 M30.1 56.73 C37.99 48.76, 45.26 39.77, 63.56 18.39 M36.44 56.61 C42.97 50.54, 50.29 42.01, 63.03 26.21 M35.02 57.02 C39.35 51, 46.19 44.68, 62.97 24.57 M41.81 56.03 C44.76 50.38, 50.31 47.54, 62.39 30.86 M40.69 57.03 C48.9 47.94, 55.58 38.64, 63.78 30.4 M45.09 57.84 C52.91 49.33, 55.76 45.11, 62.66 38.32 M44.91 58.8 C52.58 49.53, 60.19 41.19, 62.66 37.2 M51.4 56.78 C56.24 54.08, 57.85 48.53, 62.41 42.73 M50.37 56.64 C54.65 52.04, 59.48 47.58, 62.25 44.53 M54.99 57.66 C58.53 54.79, 60.93 51.96, 62.21 48.83 M55.55 57.68 C57.92 55.64, 60.17 53.21, 63.06 49.54" stroke="#228be6" stroke-width="0.5" fill="none"></path><path d="M0.72 -0.34 C17.51 0.08, 38.81 0.6, 62.27 -0.22 M0.73 0.45 C23.06 -0.27, 45.93 0.55, 62.41 -0.81 M62.71 0.68 C63.84 12.35, 61.42 23.39, 63.8 54.25 M61.83 -0.25 C62.13 12.36, 61.81 23.62, 60.88 55.4 M63.6 56.38 C42.33 56.71, 20.45 56.12, -1.58 54.91 M61.08 55.32 C44.7 55.18, 26.52 54.02, -0.43 55.69 M-0.43 54.91 C-1.64 38.67, -0.25 21.26, -0.5 -0.52 M0.8 56.05 C0.01 37.52, -0.77 19.1, -0.65 -0.17" stroke="#000000" stroke-width="1" fill="none"></path></g><g transform="translate(109.12565345580697 95.490234375) rotate(0 3.5 12.5)"><text x="3.5" y="18" font-family="Virgil, Segoe UI Emoji" font-size="20px" fill="#000000" text-anchor="middle" style="white-space: pre;" direction="ltr">1</text></g><g stroke-linecap="round"><g transform="translate(10.677329496294305 40.946970231956584) rotate(0 29.581970795243933 -0.03527864733302977)"><path d="M-0.68 -0.17 C9.1 -0.11, 49.79 1.27, 59.84 1.31 M1.17 -1.31 C10.73 -1.65, 49.56 -0.68, 59.21 -0.25" stroke="#000000" stroke-width="1" fill="none"></path></g><g transform="translate(10.677329496294305 40.946970231956584) rotate(0 29.581970795243933 -0.03527864733302977)"><path d="M30.78 9.99 C44.03 6.12, 53.16 2.88, 58.49 -0.69 M30.1 8.34 C38.75 7.22, 47.2 3.46, 59.13 -0.68" stroke="#000000" stroke-width="1" fill="none"></path></g><g transform="translate(10.677329496294305 40.946970231956584) rotate(0 29.581970795243933 -0.03527864733302977)"><path d="M31.43 -10.26 C44.58 -6.06, 53.45 -1.21, 58.49 -0.69 M30.75 -11.91 C39.42 -7.42, 47.69 -5.57, 59.13 -0.68" stroke="#000000" stroke-width="1" fill="none"></path></g></g><g stroke-linecap="round" transform="translate(258.7478574110918 296.671875) rotate(0 30.92578125 27.623046875)"><path d="M0 0 C0 0, 0 0, 0 0 M0 0 C0 0, 0 0, 0 0 M-0.12 6.73 C1.57 4.88, 2.85 3.92, 5.18 1.14 M-0.43 6.3 C1.44 4.29, 3.12 2.07, 5.23 0.51 M1.32 13.35 C3.02 8.9, 5.83 6.66, 10.17 -0.25 M-0.55 12.25 C3.25 7.39, 7.68 3.85, 11.37 -0.51 M-2.11 19.11 C3.01 12.49, 8.1 7.47, 14.67 0.38 M0.4 18.14 C3.37 13.36, 8.9 9.02, 14.93 0.93 M-0.83 24.79 C7.79 14.79, 14.54 10.22, 20.4 -0.77 M-0.72 24.64 C7.04 17.36, 11.48 9.36, 20.81 0.18 M-1.39 32.43 C8.53 18.8, 17.48 9.55, 26.57 2.21 M0.83 29.91 C9.97 19.05, 21.02 6.06, 25.9 0.67 M1.14 36.59 C11.3 21.66, 23.81 8.56, 32.33 -1.98 M-0.34 36.09 C6.76 28.44, 14.2 20.55, 32.61 -1.05 M1.92 40.55 C14.8 26.4, 27.15 12.56, 35.81 1.69 M0.91 41.78 C13.35 27.31, 26.11 12.05, 36.56 0.73 M0.73 48.22 C8.81 36.4, 22.99 22.21, 43.71 -1.75 M-0.85 48.54 C15.48 31.19, 31.64 13.01, 42.68 -0.91 M-1.06 56.44 C15.86 33.3, 33.13 14.98, 46.46 -1.69 M-0.28 53.77 C16.91 35.94, 34.16 16.4, 46.75 0.63 M1.24 59.65 C19 38.01, 39.61 17.7, 51.82 1.69 M2.96 57.88 C15.29 44.85, 26.1 31.53, 53.49 -0.3 M8.06 59.53 C27.1 35.24, 47.09 15.26, 60.02 1.09 M8.99 56.55 C25.02 39.68, 41.21 19.58, 58.1 0.58 M14.67 56.63 C29.7 40.67, 45.24 18.52, 64.74 2.41 M13.33 58.9 C32.64 36.21, 51.35 14.77, 63.67 0.38 M18.03 55.93 C35.69 40.89, 51.96 21.14, 61.56 7.43 M18.12 57.63 C28.37 46.21, 36.12 36.25, 62.11 6.32 M25.35 57.55 C34.78 42.18, 46.19 31.64, 60.79 12.6 M23.17 58.24 C33.33 47.48, 43.87 35.14, 63.41 13.01 M27.64 56.29 C35.68 49.49, 46.05 37.94, 64.75 19.98 M29.91 57.2 C39.74 45.52, 50.25 34.4, 63.3 18 M34.91 57.33 C41.92 46.56, 50.94 38.16, 62.74 23.88 M35.05 58.17 C46.36 45.08, 55.98 32.64, 62.71 25.01 M41.73 55.81 C48.05 47.08, 56.05 38.76, 64.02 31.19 M40.57 58.16 C47.69 49.62, 54.37 42.46, 63.21 30.73 M46.42 56.45 C50.36 51.47, 58.34 42.5, 60.97 37.01 M45.32 57.71 C51.01 50.15, 56.19 44.18, 62.52 37.14 M52.43 57.24 C55.04 53.84, 58 50.5, 62.04 44.95 M51.04 57.15 C52.71 54.23, 54.91 52.29, 62.01 44.3 M56.13 57.31 C57.98 54.03, 61.31 52.33, 62.42 48.42 M55.95 58.22 C58.59 54.73, 60.86 51.16, 63.13 49.26" stroke="#228be6" stroke-width="0.5" fill="none"></path><path d="M-1.57 0.82 C20.07 -0.49, 37.29 -1.24, 60.69 0.08 M0.01 0.16 C21.59 0.94, 43.62 0.27, 60.93 0.52 M62.17 1.76 C60.52 19.79, 62.55 39.58, 61.94 56.36 M62.29 0.64 C60.73 21.63, 60.63 42.39, 62.52 56.22 M63.39 55.69 C49.11 52.97, 37.94 54.25, -1.46 54.65 M61.48 55.92 C41.98 54.34, 20.59 54.29, 0.45 55.89 M1.38 55.86 C2.41 40.74, 0.12 22.82, -0.59 -0.78 M0.46 54.27 C-0.05 43.84, 0.41 31.25, -0.78 -0.39" stroke="#000000" stroke-width="1" fill="none"></path></g><g transform="translate(282.1736386610918 311.794921875) rotate(0 7.5 12.5)"><text x="7.5" y="18" font-family="Virgil, Segoe UI Emoji" font-size="20px" fill="#000000" text-anchor="middle" style="white-space: pre;" direction="ltr">4</text></g><g stroke-linecap="round" transform="translate(257.5603574110918 15.115234375) rotate(0 30.92578125 27.623046875)"><path d="M1.24 -0.98 C13.37 -1.98, 26.31 -0.17, 62.75 1.1 M0.24 0.86 C18.67 0.09, 34.59 0.42, 62.38 0.01 M60.51 0.32 C62.63 13.03, 62.03 25.9, 63.53 54.16 M61.03 0.41 C61.18 18.11, 62.76 37.31, 60.91 55.43 M61.86 53.36 C48.71 54.76, 30.9 54.79, 0.58 55 M62.32 54.92 C48.53 55.28, 36.82 56.3, -0.07 54.25 M1.86 56.93 C-0.81 38.29, -0.97 20.63, -1.8 1.3 M0.3 55.43 C0.52 38.55, -1.04 23.11, -0.8 0.4" stroke="#000000" stroke-width="1" fill="none"></path></g><g stroke-linecap="round" transform="translate(251.0798886610918 10) rotate(0 37.556640625 173.83203125)"><path d="M-0.98 -0.37 C14.91 -1.62, 33.34 0.44, 76.21 -0.26 M0.86 0.92 C22.82 -1.1, 45.79 0.35, 75.13 -0.76 M75.32 0.45 C77.54 109.9, 77.84 220.78, 74.4 348.04 M75.38 -0.6 C76.53 119.91, 77.2 238.33, 75.23 347.26 M73.22 349.27 C46.16 346.21, 17.86 348.25, -0.25 345.78 M74.79 347.08 C54.97 348.47, 36.22 347.95, -0.99 347.73 M1.1 347.38 C-0.73 218.96, -1.21 89.85, 0.85 -0.16 M0.12 348.17 C1.68 226.84, 1.96 106.52, 0.26 -0.04" stroke="#000000" stroke-width="1" fill="none"></path></g><g stroke-linecap="round" transform="translate(258.42247476310683 224.0625) rotate(0 30.92578125 27.623046875)"><path d="M0 0 C0 0, 0 0, 0 0 M0 0 C0 0, 0 0, 0 0 M0.14 7.05 C1.69 5.11, 3.64 1.9, 4.68 0.02 M-0.51 6.2 C1.44 4.89, 2.3 3.03, 4.96 0.66 M1.39 11.75 C3.63 7.26, 8.96 3.98, 10.15 -1.4 M0.32 12.37 C4.38 7.68, 7.21 3.98, 10.53 -0.83 M-2.01 19.01 C4.35 12.47, 9.67 6.24, 16.7 1.38 M0.84 18.36 C3.53 14.22, 8.67 8.58, 15.86 -0.22 M1.05 25.74 C6.35 15.44, 14.01 8.7, 22.72 -2.04 M-0.52 23.4 C7.09 15.66, 15.4 6.08, 20.32 -0.77 M-0.56 29.8 C10.85 20.62, 22.73 5.6, 27.07 1.94 M0.43 29.65 C6.17 23.41, 13.59 14.86, 25.71 0.99 M-0.24 35.7 C9.48 24.72, 16.53 16.35, 30.83 -0.28 M0.39 36.33 C7.51 27.96, 14.41 20.13, 32.41 0.79 M1.08 42.45 C6.16 35.63, 15.81 24.54, 36.28 1.8 M-0.48 42.25 C8.21 33.5, 16.4 23.93, 36.9 0.69 M1.34 47.39 C12.81 34.29, 24.21 21.27, 40.55 -1.59 M0.2 48.3 C11.38 35.39, 23.1 23.1, 41.84 -0.8 M-1.68 54.59 C18.33 31.63, 39 10.28, 46.72 -0.88 M0.53 54.32 C10.16 42.87, 21.92 30.53, 47.62 -0.47 M3.4 59.45 C21.28 37.15, 40.69 11.38, 53.47 0.47 M2.43 58.34 C17.47 40.56, 32.76 24.6, 52.43 -0.28 M9.9 58.35 C29.92 35.79, 48.41 10.56, 58.2 1.62 M8.54 56.71 C18.12 46.09, 28.45 34.2, 57.83 0.89 M12.25 56.31 C26.66 45.83, 38.48 32.24, 61.99 0.67 M13.69 58.4 C33.27 34.83, 53.19 12.13, 62.14 0.11 M20.85 56.53 C27 46.64, 36.17 36.59, 62.09 5.38 M18.29 57.07 C31.48 41.56, 45.99 26.48, 63.39 7.67 M22.54 59.08 C33.28 44.85, 45.36 31.98, 60.73 11.89 M23.22 58.29 C38.18 42.16, 49.81 28.42, 62.52 12.39 M30.28 56.47 C39.65 49, 46.04 39.01, 62.38 19.74 M29.93 57.74 C38.92 46.13, 47.68 36.39, 63.14 19.18 M34.22 57.35 C42.45 47.65, 51.92 38.68, 60.77 26.44 M33.95 57.42 C43.69 46.77, 53.77 36.47, 62.9 26.17 M39.36 58.05 C46.13 51.92, 50.02 45.11, 63.82 31.83 M41 57.79 C48.57 47.36, 57.9 38.11, 62.98 31.66 M44.66 58.28 C47.53 52.52, 54.24 50.12, 64.81 37.75 M44.54 57.98 C49.93 51.7, 54.72 45.14, 63.58 38.33 M52.5 56.77 C53.56 54.61, 55.86 47.97, 63.25 44.31 M49.93 57.92 C53.5 54.24, 57.75 50.58, 63.28 44.1 M56.29 58.22 C57.09 54.62, 60.26 54, 63.36 49.8 M55.62 57.25 C58.63 54.39, 61.33 51.3, 62.61 49.07" stroke="#228be6" stroke-width="0.5" fill="none"></path><path d="M-0.37 -1.72 C19.93 0.38, 43.07 1.4, 61.59 0.03 M0.92 0.19 C18.61 -0.02, 39.58 -0.52, 61.09 0.16 M62.54 0.64 C61.57 22.56, 63.16 41.8, 62.43 56.12 M60.93 -0.05 C62.07 21.08, 60.46 40.39, 61.24 56.02 M63.45 54.63 C40.46 54.07, 22.57 54.41, -1.88 54.51 M61.27 54.87 C39.57 55.69, 16.32 54.05, 0.06 55.94 M-0.43 55.21 C-1.1 36.19, -2.32 19.98, -0.25 0.92 M0.77 54.43 C-0.95 43.67, -0.97 33.26, -0.07 -0.65" stroke="#000000" stroke-width="1" fill="none"></path></g><g transform="translate(285.84825601310683 239.185546875) rotate(0 3.5 12.5)"><text x="3.5" y="18" font-family="Virgil, Segoe UI Emoji" font-size="20px" fill="#000000" text-anchor="middle" style="white-space: pre;" direction="ltr">1</text></g><g stroke-linecap="round" transform="translate(257.0705092063289 152.125) rotate(0 30.92578125 27.623046875)"><path d="M0 0 C0 0, 0 0, 0 0 M0 0 C0 0, 0 0, 0 0 M-0.07 7.17 C1.67 4.13, 2.63 2.3, 4.79 0.1 M-0.02 6.55 C0.92 4.65, 2.76 3.26, 5.31 0.52 M-0.32 11.82 C3.66 10.01, 5.07 4.36, 11.05 -1.07 M0.88 11.57 C2.87 8.76, 5.23 5.19, 10.9 -0.81 M-1.08 18.5 C3.73 13.01, 10.27 8.93, 15.01 -0.75 M-0.81 19.05 C4.05 13.53, 8.24 8.35, 15.97 0.71 M-0.59 23.38 C4.64 19.13, 11.07 11.08, 22.38 1.56 M-0.19 24.33 C7.93 15.34, 13.68 7.23, 22.23 -0.37 M0.33 32.4 C7.55 22.93, 12.26 19.17, 25.11 -0.53 M-0.34 30.86 C9.55 19.54, 17.3 10.74, 26.1 -0.02 M0.19 35 C4.92 29.47, 12.41 21.1, 30.31 0.17 M0.46 35.93 C7.62 27.69, 15.24 20.44, 30.91 0.64 M-0.93 43.96 C10.15 31.01, 17.42 23.29, 35.4 -0.16 M-0.18 43 C10.4 31.07, 21.3 19.03, 36.53 -0.63 M1.06 47.31 C13.74 32.74, 23.44 18, 41.77 -0.76 M0.03 48.14 C11.94 35.72, 22.13 21.95, 43.46 -1.07 M-0.78 52.65 C12.16 40.79, 20.71 29.65, 45.92 -0.64 M-0.49 54.97 C16.06 37.07, 30.94 18.67, 48.36 -0.64 M1.3 59.81 C18.61 35.81, 37.94 17.71, 53.03 1.03 M2.97 57.81 C20.48 39.23, 35.93 18.64, 54.14 0.08 M10.16 58.45 C20.89 41.42, 33.09 29.77, 56.14 0.58 M8.24 57.94 C26.94 36.67, 44.83 16.09, 57.5 0.16 M14.88 59.77 C34.13 38.34, 50.26 14.89, 65.12 2.16 M13.81 57.74 C28.45 40.59, 41.81 22.97, 62.33 1.17 M17.6 58 C31.64 42, 47.79 21.48, 63.1 8.44 M18.16 56.89 C28.14 47.58, 37.46 38.05, 62.7 6.49 M22.08 57.13 C31.46 47.47, 38.3 37.8, 63.33 11.36 M24.7 57.53 C39.07 40.83, 55.05 21.18, 62.01 12.56 M31.29 58.48 C41.63 43.95, 53.08 30.45, 62.44 19.12 M29.84 56.49 C38.26 46.88, 47.37 37.05, 62.74 18.48 M34.53 56.34 C42.42 49.32, 44.86 44.87, 63.41 26.77 M34.5 57.46 C42.41 49.99, 48.99 42.51, 61.92 25.16 M41.06 57.6 C46.13 49.49, 53.14 44.18, 64.56 32.59 M40.25 57.14 C47.46 50, 53.07 42.73, 62.45 30.22 M43.25 57.39 C52.57 52, 60.51 42.72, 62.69 37.69 M44.8 57.51 C48.69 52.1, 54.25 49.17, 62.78 38.22 M50.23 58.54 C52.26 52.11, 57.89 50.37, 62.08 42.56 M50.2 57.88 C54.49 54.26, 57.81 50.49, 62.23 43.58 M55.21 56.72 C58.13 56.3, 59.43 54.25, 63.9 49.87 M55.91 57.56 C58.07 55.17, 59.81 52.39, 63.41 49.17" stroke="#228be6" stroke-width="0.5" fill="none"></path><path d="M-1.16 0.08 C16.44 1.63, 30.81 0.56, 62.17 0.48 M-0.92 0.52 C24.43 -0.1, 47.05 0.04, 62.73 -0.67 M61.94 1.11 C63.72 16.37, 62.62 35.79, 63.13 53.61 M62.52 0.98 C60.41 19.02, 60.73 38.45, 62.07 55.25 M60.39 54.65 C49.72 54.81, 34.55 54.32, 1.35 56.19 M62.3 55.89 C45.23 54.02, 28.8 55.7, 0.31 56.18 M-0.59 54.47 C-1.69 35.31, -0.13 13.7, -1.95 0.61 M-0.78 54.86 C-1.22 38.05, -0.49 19.4, -0.3 0.73" stroke="#000000" stroke-width="1" fill="none"></path></g><g transform="translate(279.9962904563289 167.248046875) rotate(0 8 12.5)"><text x="8" y="18" font-family="Virgil, Segoe UI Emoji" font-size="20px" fill="#000000" text-anchor="middle" style="white-space: pre;" direction="ltr">2</text></g><g stroke-linecap="round" transform="translate(255.8751967063289 80.3671875) rotate(0 30.92578125 27.623046875)"><path d="M0 0 C0 0, 0 0, 0 0 M0 0 C0 0, 0 0, 0 0 M0.08 6.03 C1.41 3.71, 3.53 1.49, 4.88 -0.14 M-0.62 6.36 C0.99 5.17, 2.65 3.52, 4.84 0.68 M1 13.16 C2.65 7.29, 6.49 4.22, 9.81 0.35 M0.29 11.8 C3.51 7.18, 7.46 3.07, 10.55 -0.79 M-1.02 18.31 C6.21 13.54, 9.71 5.45, 14.89 2.27 M0.07 18.3 C4.83 12.51, 9.54 8.15, 14.87 0.72 M0.02 24.74 C9.87 12.94, 17.57 7.28, 22.01 -1.63 M0.66 23.34 C4.3 17.73, 11.09 12.52, 20.42 -0.35 M1.79 29.37 C7.76 23.85, 12.78 13.35, 27.09 1.14 M0.7 29.65 C5.28 24.51, 11.38 16.94, 25.38 0.3 M-1.94 37.18 C6.36 28.08, 13.59 19.61, 30.62 1.2 M0.26 36.27 C7.89 29.01, 14.26 19.79, 31.35 0.37 M1.31 41.39 C10.66 31.28, 20.66 16.79, 36.56 -0.99 M-0.3 42.98 C10.33 31.23, 19.99 18.37, 36.91 0.99 M1.16 47.31 C7.15 36.85, 17.9 26.71, 41.94 0.51 M0.55 48.74 C9.28 36.9, 21.06 24.94, 41.71 -1.11 M1.28 52.7 C14 37.54, 27.42 21.41, 48 0.73 M0.86 54.61 C13.85 38.66, 27.64 23.48, 47.99 0.6 M1.23 56.44 C22.3 36.31, 40.82 15.05, 53.86 -0.57 M3.42 58.93 C18.87 38.16, 37.74 18.79, 52.68 0.64 M8.75 56.12 C24.76 39.24, 39.67 18.68, 59.56 0.71 M8.58 57.54 C18.79 45.63, 29.25 32.48, 58.93 -0.32 M14.92 59.71 C22.65 44.93, 36.77 33.78, 63.1 1.4 M13.81 57.97 C29.42 37.48, 47.05 18.47, 63.55 1.52 M17.06 59.13 C29.5 43.14, 41.55 33.5, 60.89 5.71 M18.97 57.58 C31.05 45.59, 41.59 31.48, 61.93 6.27 M23.17 56.9 C36.38 40.51, 52.94 23.93, 64.59 12 M23.3 58.79 C36.67 41.85, 49.38 26.8, 63.23 13.71 M29.63 57.75 C36.95 48.45, 45.36 38.21, 62.33 19.77 M29.49 57.23 C40.49 45.43, 51.02 32.17, 62.17 18.83 M36.25 56.29 C40.34 50.16, 50.75 41.55, 61.74 24.23 M35.17 57.99 C42 50.33, 48.31 40.93, 62.38 24.98 M39.94 56.56 C48.33 49.5, 56.65 41.53, 62.91 32.69 M41.05 57.71 C47.68 49.3, 54.84 39.03, 63.9 30.78 M45.84 59.73 C53.03 51.56, 56.64 44.91, 61.53 36.2 M44.43 56.89 C51.56 52.29, 56.39 45.7, 62.65 38.37 M49.1 55.85 C54.61 54.23, 56.57 48.88, 61.93 42.09 M51.26 57.89 C55.78 52.77, 58.95 47.4, 61.98 44.23 M56.5 58.24 C58.64 55.34, 61.65 52.58, 63.05 49.14 M55.85 57.63 C56.86 55.69, 59.16 54.06, 63.07 49.71" stroke="#228be6" stroke-width="0.5" fill="none"></path><path d="M0.9 1.1 C12.97 0, 26.77 0.45, 63.58 1.84 M0.52 0.01 C18.95 -0.16, 40.3 -0.99, 62.01 0.34 M63.53 -1.09 C62.45 19.22, 63.15 35.06, 62.67 53.41 M60.91 0.19 C61.61 17.04, 62.44 32.55, 60.91 56.05 M62.43 55 C43.33 54.33, 29.92 56.01, -0.65 54.09 M61.78 54.25 C45.7 56.33, 29.74 56.57, 0.84 55.03 M-1.8 56.54 C-0.09 39.71, -1.79 22.93, 0.37 1.54 M-0.8 55.65 C0.37 42.54, 0.13 31.86, -0.71 0.81" stroke="#000000" stroke-width="1" fill="none"></path></g><g transform="translate(283.3009779563289 95.490234375) rotate(0 3.5 12.5)"><text x="3.5" y="18" font-family="Virgil, Segoe UI Emoji" font-size="20px" fill="#000000" text-anchor="middle" style="white-space: pre;" direction="ltr">1</text></g><g stroke-linecap="round"><g transform="translate(184.85265399681634 40.946970231956584) rotate(0 29.398081268253748 0.384521180773163)"><path d="M0.66 -0.16 C10.53 -0.18, 49.44 0.18, 59.25 0.41 M-0.45 -1.28 C9.25 -1.13, 48.42 1.93, 58.31 2.05" stroke="#000000" stroke-width="1" fill="none"></path></g><g transform="translate(184.85265399681634 40.946970231956584) rotate(0 29.398081268253748 0.384521180773163)"><path d="M29.76 10.83 C38.89 8.46, 48.91 7.16, 58.68 0.22 M29.26 10.97 C40.8 7.05, 50.03 4.99, 58.63 2.1" stroke="#000000" stroke-width="1" fill="none"></path></g><g transform="translate(184.85265399681634 40.946970231956584) rotate(0 29.398081268253748 0.384521180773163)"><path d="M30.75 -9.4 C39.68 -5.61, 49.39 -0.76, 58.68 0.22 M30.25 -9.27 C41.55 -6.07, 50.43 -1.01, 58.63 2.1" stroke="#000000" stroke-width="1" fill="none"></path></g></g></svg>