<svg version="1.1" xmlns="http://www.w3.org/2000/svg" viewBox="0 0 346.8199432163035 371.0625" width="346.8199432163035" height="371.0625">
  <!-- svg-source:excalidraw -->
  
  <defs>
    <style class="style-fonts">
      @font-face {
        font-family: "Virgil";
        src: url("https://excalidraw.com/Virgil.woff2");
      }
      @font-face {
        font-family: "Cascadia";
        src: url("https://excalidraw.com/Cascadia.woff2");
      }
    </style>
  </defs>
  <rect x="0" y="0" width="346.8199432163035" height="371.0625" fill="#ffffff"></rect><g stroke-linecap="round" transform="translate(83.09688390952533 300.0703125) rotate(0 30.92578125 27.623046875)"><path d="M0 0 C0 0, 0 0, 0 0 M0 0 C0 0, 0 0, 0 0 M-0.63 7.13 C1.44 4.65, 3.87 2.82, 5.77 0.2 M-0.44 6.6 C1.31 4.3, 2.77 2.91, 4.99 0.37 M-1.43 11.84 C3.34 6.95, 5.93 2.71, 9.76 -1.35 M-0.04 11.93 C2.44 8.45, 6.33 5.28, 10.52 0.45 M-0.56 18.38 C6.77 11.01, 11.89 3.43, 15.08 -1.42 M-0.13 18.49 C5.74 13.43, 9.38 7.38, 14.92 0.55 M0.11 23.85 C5.63 20.08, 9.19 14.17, 19.99 0.08 M0.64 23.36 C7.25 14.93, 15.1 6.56, 21.17 0.89 M-0.35 31.39 C6.66 22.44, 10.94 18.51, 26.04 0.17 M-0.57 29.91 C9.27 19.54, 17.6 10.29, 27.22 0.5 M0.46 35.93 C7.26 27.52, 17.32 15.79, 29.96 1.74 M0.58 37.12 C6.7 29.44, 14.76 21.01, 32.13 0.85 M-1.74 43.98 C10.79 29.78, 25.77 13.92, 38.59 0.96 M0.43 42.03 C12.75 28.04, 23.4 15.26, 37.65 0.12 M0.56 49.53 C12.35 36.05, 23.91 19.99, 42.47 -1.18 M0.14 48.16 C9.6 36.71, 22.08 24.99, 42.25 -0.58 M-0.46 54.42 C13.45 37.27, 28.23 24.51, 46.98 0.79 M1.12 54.45 C15.45 36.84, 32.74 18.09, 46.72 0.98 M1.88 56.95 C18.91 38.21, 34.48 22.03, 53.97 0.43 M3.19 58.44 C15.77 43.27, 28.51 26.95, 52.2 0.3 M9.06 57.51 C28.06 37.51, 45.9 14.04, 56.87 -0.97 M7.41 58.44 C22.72 41.93, 36.93 24.54, 57.74 0.39 M12.57 58.27 C24.61 46.65, 34.3 34.65, 61.68 1.97 M13.65 57.83 C24.58 45.87, 34.2 32.07, 63.75 0.66 M20.7 56.7 C33.17 41.26, 45.04 26.08, 63.46 5.41 M19.87 57.07 C33.18 40.33, 49.09 22.49, 62.88 6.16 M23.12 56.26 C33.24 48.82, 41.41 35.69, 63.09 15 M23.1 57.04 C35.85 43.73, 46.47 31.85, 63.29 12.93 M28.42 57.99 C38.22 44.55, 49.55 34.87, 64.6 20.92 M29.46 57.11 C42.41 42.86, 54.84 28.44, 62.32 19.52 M35.32 56.16 C43.18 50.65, 47.88 40.76, 62.11 24.47 M33.78 57.44 C44.8 45.7, 55.74 33.08, 61.97 26.16 M38.22 57.9 C47.98 51.9, 54.02 42.06, 64.86 30.37 M39.58 57.04 C48.59 48.45, 56.08 40.32, 62.29 31.65 M46.39 58.8 C49.69 51.86, 51.7 49.19, 64.29 38.48 M44.7 58.1 C52.78 49.58, 59.4 40.71, 62.92 37.64 M49.68 58.42 C56.19 52.54, 58.26 48.94, 62.97 44.09 M51.31 57.99 C52.52 54.1, 56.48 52.32, 62.56 43.51 M56.46 57.09 C57.87 55.56, 60.05 52.57, 62.04 49.73 M55.73 57.81 C58.6 54.4, 61.31 51.13, 63.39 49.04" stroke="#228be6" stroke-width="0.5" fill="none"></path><path d="M-1.83 -1.34 C17.08 -0.85, 33.98 0.64, 61.94 0.35 M-0.27 -0.2 C14.76 -0.06, 27.62 0.36, 61.26 0.42 M62.59 -0.96 C59.87 17.05, 60.99 37.26, 63.23 55.17 M62.43 0.94 C62.1 19.71, 62.64 39.27, 61.44 55.43 M62.51 54.53 C47.87 56.02, 29.38 52.91, 1.01 55.33 M61.46 55.56 C37.65 55.58, 13.44 53.82, 0.04 55.76 M0.79 54.63 C-0.72 44.36, 1.23 31.5, -0.1 -0.81 M-0.62 55.86 C-0.75 43.91, 0.23 32.51, 0.18 -0.5" stroke="#000000" stroke-width="1" fill="none"></path></g><g transform="translate(106.02266515952533 315.193359375) rotate(0 8 12.5)"><text x="8" y="18" font-family="Virgil, Segoe UI Emoji" font-size="20px" fill="#000000" text-anchor="middle" style="white-space: pre;" direction="ltr">2</text></g><g stroke-linecap="round" transform="translate(83.15938390952533 157.548828125) rotate(0 30.92578125 27.623046875)"><path d="M-0.67 -0.26 C22.96 1.64, 49.06 0.77, 60.37 -1.63 M0.78 0.31 C21.85 0.85, 43.81 0.54, 62.2 -0.89 M60.36 -1.44 C61.69 13.44, 63.44 26.26, 63.14 56.15 M61.85 -0.41 C62.71 16.42, 61.76 34.96, 61.42 54.7 M63.75 56.44 C46.72 53.1, 34.02 55.11, 1.91 55.85 M62.12 56.01 C48.11 54.44, 33.36 55.96, -0.71 54.74 M-1 57.03 C0.74 45.64, -0.32 32.05, -1.9 1.88 M-0.23 55.22 C1.1 33.12, 0.52 10.71, 0.52 -0.18" stroke="#000000" stroke-width="1" fill="none"></path></g><g stroke-linecap="round" transform="translate(75.42891515952533 149.84765625) rotate(0 37.556640625 105.607421875)"><path d="M-1.52 1.23 C17.58 0.45, 33.51 -1.53, 76.29 -0.55 M-0.35 0.72 C20.45 0.19, 42.43 -1.12, 74.5 0.37 M74.79 0.24 C74.94 53.17, 74.86 107.27, 75.37 212.23 M75.59 -0.85 C74.75 83.4, 74.73 165.99, 74.52 211.5 M74.4 209.29 C56.26 211.74, 37.3 212.27, -1.39 210.44 M75.64 210.22 C50.23 212.3, 24.56 211.28, -0.97 211.61 M0.84 212.61 C0.84 153.62, -0.75 99.1, 1.74 -1.1 M0.66 211.12 C0.59 134.51, 0.9 58.53, 0.32 -0.57" stroke="#000000" stroke-width="1" fill="none"></path></g><g stroke-linecap="round" transform="translate(82.7715012615406 227.4609375) rotate(0 30.92578125 27.623046875)"><path d="M0 0 C0 0, 0 0, 0 0 M0 0 C0 0, 0 0, 0 0 M0.26 6.7 C0.91 4.51, 2.25 3.49, 5.08 -0.29 M-0.34 6.26 C1.33 4.51, 3.06 3.06, 4.95 0.04 M0.06 10.55 C2.38 10.58, 4.07 6.43, 11.93 0.49 M0.76 11.29 C3.3 8.16, 6.9 4.68, 9.97 0.4 M1.58 17.64 C5.76 11.66, 7.86 5.69, 17.29 -0.42 M0.61 18.42 C2.15 14.04, 6.73 10.88, 15.96 1.04 M-0.13 25.38 C7.55 16.88, 12.7 13.42, 22.32 0.08 M1.05 23.93 C6.75 16.58, 12.39 8.97, 21.76 -0.66 M0.94 28.71 C11.69 18.84, 22.69 5.48, 24.59 0.7 M0.42 31.18 C7.76 20.83, 17.33 10.91, 26.73 0.94 M-0.34 38.79 C7.78 31.12, 14.72 20.79, 30.14 1.71 M0.13 36.26 C7.89 27.7, 16.21 18.08, 31.54 0.83 M2.07 42.5 C13.31 26.39, 24.54 11.95, 37 0.75 M-0.36 42.23 C8.6 33.49, 16.05 25.91, 37.63 -0.31 M-0.15 50.32 C14.84 29.39, 33.32 9.56, 40.8 0.43 M-0.72 49.61 C14.59 33.22, 27.76 16.2, 43.22 0.03 M-0.71 52.7 C10.14 41.74, 20.99 31.2, 45.87 -0.04 M-0.28 55.23 C9.77 43.7, 20.12 30.81, 46.89 0.41 M3 56.67 C15.47 44.4, 25.87 31.89, 54.87 -1.24 M2.08 57.48 C13.05 44.22, 25.44 33.11, 53.66 -0.35 M6.29 59.51 C21.22 44.62, 31.58 27.66, 59.94 0.11 M8.78 58.49 C20.3 42, 33.71 28.2, 58.51 0.96 M12.35 56.35 C22.14 47.32, 32.81 34.62, 63.65 -0.48 M13.13 58.31 C23.75 43.78, 36.34 32.01, 63.85 0.92 M19.05 57.78 C28.58 43.87, 39.67 32.54, 63.51 7.35 M18.59 57.12 C28.19 46.29, 38.17 36.18, 62.38 6.69 M23.48 56.5 C35.72 43.02, 47.94 28.41, 60.73 11.65 M23.74 58.35 C38.81 40.3, 51.93 24.89, 62.37 13.34 M27.6 58.91 C40.17 42.9, 52.8 27.04, 61.52 17.08 M30.32 56.94 C41.9 43.35, 55.17 27.41, 63.36 19.38 M33.29 56.78 C46.6 46.31, 56.92 32.13, 64.11 23.53 M34.83 57.5 C44.22 47.94, 52.87 37.59, 63.58 25.97 M40.05 58.85 C44.21 50.07, 51.39 47.78, 63.65 30.48 M40.55 56.49 C48.73 46.49, 57.53 36.42, 63.39 31.76 M44.08 58.43 C51.14 49.66, 58.41 42.52, 63.43 36.66 M45.14 58.4 C48.48 53.86, 52.67 49.73, 62.82 37.17 M51.83 57.12 C53.17 54.96, 59.11 49.21, 63.64 44.3 M50.66 57.93 C52.76 54.96, 56.38 51.34, 62.92 43.34 M55.7 56.92 C59.31 54.66, 60.92 50.28, 63.78 50.5 M55.44 58.12 C57.81 55.75, 59.95 53.07, 62.92 49.92" stroke="#228be6" stroke-width="0.5" fill="none"></path><path d="M-1.29 -1.29 C20.3 -1.92, 39.33 0.04, 60.19 -0.87 M0.96 -0.4 C21.71 -0.48, 41.01 -0.03, 60.89 -0.42 M60.39 -1.08 C61.86 14.09, 59.54 32.39, 60.58 53.86 M61.22 0.96 C60.46 20.1, 62.08 40.92, 61.13 54.67 M62.85 53.59 C44.57 53.45, 24.59 54, 0.78 53.42 M61.08 54.43 C41.56 54.95, 23.08 55.22, -0.43 54.6 M0.27 55.58 C0.45 42.23, 0.77 25.15, 1.6 0.68 M-0.28 54.71 C0.68 36.03, 0.65 16.76, 0.51 0.43" stroke="#000000" stroke-width="1" fill="none"></path></g><g transform="translate(110.1972825115406 242.583984375) rotate(0 3.5 12.5)"><text x="3.5" y="18" font-family="Virgil, Segoe UI Emoji" font-size="20px" fill="#000000" text-anchor="middle" style="white-space: pre;" direction="ltr">1</text></g><g stroke-linecap="round"><g transform="translate(10.450366183863935 185.00264984128535) rotate(0 29.979573959512663 0.10967039304324544)"><path d="M0.66 1.19 C10.55 1.15, 48.53 0.84, 58.23 0.83 M-0.45 0.77 C9.9 0.9, 50.68 -0.72, 60.41 -0.97" stroke="#000000" stroke-width="1" fill="none"></path></g><g transform="translate(10.450366183863935 185.00264984128535) rotate(0 29.979573959512663 0.10967039304324544)"><path d="M34.92 8.39 C39.52 7.02, 45.7 5.01, 60.72 -1.56 M33.8 9.82 C40.98 6.91, 48.16 3.72, 60.89 -0.95" stroke="#000000" stroke-width="1" fill="none"></path></g><g transform="translate(10.450366183863935 185.00264984128535) rotate(0 29.979573959512663 0.10967039304324544)"><path d="M34.25 -11.86 C39.17 -9.05, 45.49 -6.87, 60.72 -1.56 M33.13 -10.42 C40.39 -8, 47.74 -5.84, 60.89 -0.95" stroke="#000000" stroke-width="1" fill="none"></path></g></g><g stroke-linecap="round" transform="translate(269.3746307163035 296.671875) rotate(0 30.92578125 27.623046875)"><path d="M0 0 C0 0, 0 0, 0 0 M0 0 C0 0, 0 0, 0 0 M-0.7 5.95 C2.03 4.99, 2.67 3.57, 4.35 -0.03 M-0.63 6.03 C1.37 4.32, 2.62 2.53, 5.33 0.73 M-0.97 11.67 C2.79 10.64, 5.63 6.56, 10.3 0.38 M0.22 11.32 C3.46 9.6, 5.11 6.83, 10.11 -0.15 M1.03 17.12 C4.77 15.31, 8.38 10.28, 15.15 -1.37 M0.36 18.8 C6.66 11.5, 12.4 4.73, 16.24 0.82 M-1.3 24.9 C7.31 14.37, 13.33 7.5, 23.13 -0.43 M-0.41 23.8 C6.12 17.45, 11.77 11.77, 22.11 -0.19 M1.74 30.49 C5.49 25.21, 11.78 18.75, 27.17 0.28 M0.7 29.53 C8.99 21.54, 16.23 10.82, 26.73 0.1 M-2.22 38.44 C6.79 29.76, 10.86 22.28, 30.01 0.54 M0.23 36.34 C8.57 25.95, 19.58 13.46, 31 0.88 M-1.45 42.16 C12.31 28.79, 20.28 16.88, 35.21 -1.35 M-0.67 42.02 C13.72 26.32, 28.55 11, 37.09 -0.53 M-1.72 47.77 C13.46 34.91, 27.48 16.57, 40.81 -1.03 M0.61 48.22 C13.2 33.78, 25.98 18.62, 42.56 -0.53 M-1.35 54.48 C13.32 42.58, 21.66 29.02, 46.43 -0.38 M-0.46 55.36 C17.96 35.45, 35.4 15.53, 47.87 0.98 M2.58 59.23 C14.79 42.77, 27.5 27.18, 54.91 0.03 M2.63 57.84 C17.45 41.35, 32.57 22.24, 52.48 0.74 M6.56 58.31 C24.15 35.98, 44.96 16.38, 59.43 0.64 M8.25 58.26 C25.1 37.73, 44.24 18.08, 58.4 0.39 M11.8 59 C31.68 35.77, 52.5 16.13, 64.48 -0.79 M14.23 57.57 C27.43 41.04, 43.76 23.25, 63.58 1.33 M19.09 57.16 C35.53 39.75, 50.28 20.84, 62.35 5.51 M19.08 57.27 C31.21 43.94, 42.81 30.95, 62.88 6 M25.34 55.87 C34.98 44.57, 42.57 34.71, 61.94 12.09 M23.03 58.58 C35.24 43.41, 48.62 30.1, 63.27 13.17 M29.14 57.08 C36.34 47.9, 46.69 38.18, 61.99 17.27 M30.03 56.63 C39.9 45.47, 50.97 32.38, 63.53 19.5 M33.94 57.18 C39.9 49.82, 46.81 45.1, 62.13 23.71 M35.31 58.69 C43.19 47.5, 52.54 37.22, 63.72 24.72 M41.65 58.67 C48.31 47, 57.97 37.7, 63.84 30.79 M39.49 58.29 C48.33 48.49, 56.89 37.1, 62.6 30.53 M43.77 57.78 C52.22 48.51, 57.8 44.16, 61.55 38.23 M46.1 57.46 C48.41 54.04, 53.97 48.81, 63.12 36.8 M50.99 56.22 C54.36 53.47, 56.03 51.14, 63.52 42.63 M51.58 56.95 C52.58 54.5, 56.26 52.13, 61.97 44.43 M56.14 56.87 C58.01 55.54, 58.44 54.36, 62.87 49 M55.49 57.99 C58.55 54.93, 60.72 51.45, 62.47 49.84" stroke="#228be6" stroke-width="0.5" fill="none"></path><path d="M-0.32 -0.76 C17.8 -1.34, 36.78 1.49, 60.47 1.8 M0.39 0.2 C23.32 -0.53, 45.95 -0.4, 60.91 0.61 M63.43 0.48 C59.96 17.88, 63.1 34.5, 61.16 55.49 M61.35 -0.99 C63.2 12.88, 62.92 26.7, 62.33 55.55 M61.48 56.15 C43.22 54, 24.57 53.31, 0.31 56.53 M62.68 55.25 C38.87 55.14, 16.88 56.63, -0.09 56.11 M-1.32 56.61 C-1.15 40.6, -0.54 24.68, 1.29 -0.59 M0.72 54.85 C-0.57 35.62, 1.26 14.64, 0.22 0.49" stroke="#000000" stroke-width="1" fill="none"></path></g><g transform="translate(292.3004119663035 311.794921875) rotate(0 8 12.5)"><text x="8" y="18" font-family="Virgil, Segoe UI Emoji" font-size="20px" fill="#000000" text-anchor="middle" style="white-space: pre;" direction="ltr">2</text></g><g stroke-linecap="round" transform="translate(268.1871307163035 15.115234375) rotate(0 30.92578125 27.623046875)"><path d="M-0.62 -1.42 C17.67 1.65, 34.09 2.03, 63.16 -0.92 M0.7 0 C24.58 0, 46.77 0.48, 62.01 -0.83 M60.42 0.41 C64 14.75, 61.59 30.64, 60.54 56.97 M62.73 -0.06 C62.17 21.07, 62.05 40.82, 61.82 55.21 M61.59 54.24 C45.17 53.83, 29.85 56.81, 1.13 54.18 M60.92 54.72 C38.28 56.22, 16.39 56.11, -0.14 54.87 M-1.36 56.39 C-0.38 38.34, 1.66 18.85, 1.32 -1 M-0.85 55.85 C0.58 41.83, -0.18 29.21, 0.14 0.97" stroke="#000000" stroke-width="1" fill="none"></path></g><g stroke-linecap="round" transform="translate(261.7066619663035 10) rotate(0 37.556640625 173.83203125)"><path d="M-1.42 -0.06 C22.73 -1.15, 44.43 1.55, 74.19 1.71 M0 0.72 C25.56 -1.47, 51.47 -0.37, 74.28 -0.25 M75.38 1.12 C75.37 131.31, 75.82 262.66, 76.24 348.54 M75.07 0.39 C73.39 87.15, 73.05 173.65, 75.09 347.41 M74.11 347.14 C52.27 347.88, 34.1 348.7, -1.07 349 M74.59 346.78 C47.36 346.87, 18.53 346.82, -0.38 347.9 M0.75 347.18 C-0.9 267.09, -1.94 185.69, -0.65 -0.78 M0.39 348.31 C0.79 218.47, 1.21 89.09, 0.64 0.47" stroke="#000000" stroke-width="1" fill="none"></path></g><g stroke-linecap="round" transform="translate(269.04924806831855 224.0625) rotate(0 30.92578125 27.623046875)"><path d="M0 0 C0 0, 0 0, 0 0 M0 0 C0 0, 0 0, 0 0 M-0.32 6.91 C0.33 4.52, 2.2 3.19, 4.29 -0.38 M-0.49 6.05 C1.17 5.55, 1.65 3.95, 4.97 0.09 M0.77 12.16 C2.69 9.02, 5.1 4.97, 10.1 0.13 M-0.14 12.81 C1.71 9.33, 4 6.94, 10.4 0.43 M0.6 19.19 C3 12.4, 9.09 11.74, 16.46 1.3 M0.08 19.17 C5.65 12.8, 10.46 6.72, 16.51 -0.46 M0.25 22.87 C9.22 15.69, 13.54 7.38, 20.31 -1.42 M1.16 23.82 C6.69 17.54, 10.68 11.05, 21.55 0.8 M0.5 31.79 C8.84 21.22, 16.16 11.31, 25.44 1.68 M-0.6 29.92 C5.71 23.96, 9.61 18.16, 26.09 -0.69 M-2.09 37.2 C9.91 23.48, 24.2 10.7, 31.75 0.87 M-0.16 36.54 C7.1 28.55, 15.78 18.94, 31.36 -0.9 M-0.62 40.96 C8.44 29.32, 22.04 20.31, 38.22 -1.36 M0.98 43.28 C9.58 31.13, 18.7 21.13, 36.79 -0.54 M0.53 47.41 C8.49 35.84, 20.77 25.8, 40.54 1.33 M-0.35 48.76 C9.6 37.35, 18.85 27.37, 42.02 -0.95 M-1.27 55.74 C12.67 37.58, 29.13 22.15, 46.26 -1.25 M0.43 55.48 C18.45 34.35, 35.5 13.68, 48.5 0.2 M2.8 56.57 C22.81 37.01, 39.5 14.51, 52.38 -0.19 M1.81 57.06 C17.05 41.62, 32.97 24.08, 53.56 -1.03 M9.4 57.66 C26.96 38.81, 43.62 19.68, 56.5 0.14 M9.04 58.41 C27.44 36.39, 46.47 13.93, 57.92 -0.55 M14.14 59.51 C32.6 36.35, 49.04 18.55, 61.76 2.48 M13.64 57.95 C27.42 43.25, 40.83 26.34, 63.14 0.64 M18.5 56.92 C30.67 41.74, 42.95 27.05, 61.38 7.3 M18.76 57.75 C31.02 42.78, 42.71 29.36, 62.57 7.67 M22.28 57.72 C30.78 48.07, 39.59 41.44, 63.4 11.62 M24.08 58.75 C39.26 41.22, 52.54 25.03, 62.52 13.15 M29.24 58.28 C38.26 44.91, 48.97 36.58, 64 19.96 M29.92 56.92 C37.31 49.59, 43.2 40.67, 62.02 18.7 M34.26 59.22 C41.6 47.66, 49.98 39.72, 62.47 26.95 M34.75 57.46 C46.48 44.74, 57.03 32.16, 62.23 26.13 M40.89 57.01 C49.24 47.76, 58.4 36.91, 62.19 29.67 M39.29 57.01 C48.66 46.57, 58.77 37.11, 63.87 30.34 M44.55 59.58 C49.09 52.65, 54.16 45.3, 61.76 39.33 M46.04 57.79 C50.26 51.63, 54.22 47.26, 62.77 37.53 M50.2 57.91 C54.42 53.07, 54.58 50.05, 63.82 45.39 M51.33 57.79 C53.21 54.63, 55.96 50.2, 63.21 44.11 M55.4 57.85 C57.18 55.52, 59.57 53.24, 62.54 48.88 M55.42 57.43 C57.7 55.3, 61 51.66, 63.05 49.36" stroke="#228be6" stroke-width="0.5" fill="none"></path><path d="M-0.06 1.41 C14.81 2.24, 33.7 -0.48, 63.57 0.77 M0.72 0.13 C18.87 0.61, 39.78 -0.83, 61.6 0.79 M63.56 -0.45 C60.76 18.16, 60.14 37.55, 63.18 54.24 M62.45 0.82 C62.81 11.38, 62.31 22.12, 61.46 55.06 M61.33 53.55 C40.81 56.22, 20.28 53.86, 1.34 56.89 M60.97 56.22 C43.21 55.79, 24.61 54.55, 0.24 54.59 M-0.75 56.25 C1.67 34.31, 1.7 13.56, -1.2 1.44 M0.98 55.09 C0.68 41.33, 0.6 27.4, 0.72 0.53" stroke="#000000" stroke-width="1" fill="none"></path></g><g transform="translate(296.47502931831855 239.185546875) rotate(0 3.5 12.5)"><text x="3.5" y="18" font-family="Virgil, Segoe UI Emoji" font-size="20px" fill="#000000" text-anchor="middle" style="white-space: pre;" direction="ltr">1</text></g><g stroke-linecap="round" transform="translate(267.69728251154083 152.125) rotate(0 30.92578125 27.623046875)"><path d="M0 0 C0 0, 0 0, 0 0 M0 0 C0 0, 0 0, 0 0 M-0.89 6.84 C2.07 5.17, 3.19 2.93, 4.63 0.95 M-0.12 6.09 C0.8 4.8, 2.12 3.08, 4.81 0.16 M1.27 10.75 C4.74 6.75, 8.2 5.1, 9.26 -0.76 M0.88 11.61 C2.63 8.68, 6.43 6.5, 10.45 0.08 M0.85 17.64 C6.88 12.71, 11.59 5.72, 13.65 2.23 M0.57 17.7 C4.51 13.64, 9.8 7.89, 16.5 -0.1 M1.15 25.13 C4.03 18.56, 9.37 14.06, 19.85 1.31 M0.89 24.23 C7.83 16.97, 13.22 8.25, 21.83 -0.17 M-0.95 30.74 C5.39 21.15, 14.24 13.92, 27.91 -1.22 M-0.69 30.53 C6.57 24.9, 11.02 16.58, 25.66 -0.37 M-0.45 38.55 C12.91 22.48, 25.08 11.37, 30.65 1.2 M-0.51 36.39 C6.36 28.49, 14.04 20.99, 31.64 0.3 M-1.5 42.68 C13.87 26.9, 27.91 11.57, 36.53 -1.13 M0.34 42.41 C12 28.75, 22.52 16.97, 37.33 0.35 M0.99 47.3 C9.66 37.34, 23.04 23.61, 43.2 1.41 M0.85 48.42 C11.86 35.01, 24.75 20, 42.27 -0.08 M-1.68 54.87 C19.36 31.36, 37.28 14.02, 48.64 1.44 M-0.52 54.39 C17.51 35.43, 33.98 13.71, 47.58 1.07 M1.78 58.82 C20.33 37.59, 38.01 16.78, 52.82 -1.85 M2.39 57.68 C19.77 38.49, 36.02 19.94, 53.96 -0.16 M6.97 57.21 C24.68 38.01, 39.24 21.87, 56.77 0.98 M8.19 57.17 C21.39 43.16, 32.99 28.17, 57.28 0.54 M12.97 56.33 C27.4 44.4, 37.71 28.05, 63.61 1.96 M13.59 57.51 C23.95 45.12, 36.33 30.2, 64.03 0.64 M17.2 56.29 C32.14 43.48, 41.68 31.93, 62.99 6.37 M18.61 57.25 C30.94 41.87, 44.25 27.21, 62.18 6 M23.91 57.69 C31.93 47.61, 39.52 39.89, 63.93 11.52 M23.6 58.05 C36.53 44.31, 46.71 29.95, 62.44 14.22 M29.83 57.22 C37.59 50.58, 44.08 41.7, 64.04 17.72 M29.26 56.85 C38.5 47.15, 50.06 34.51, 62 18.14 M35.28 59.29 C44.54 47.72, 53.78 34.3, 64.57 26.9 M34.22 58.09 C41.13 52.11, 45.66 44.78, 61.91 25.04 M41.76 55.66 C48.91 47.25, 58.61 36.21, 63.36 30.93 M41.09 57.88 C46.76 48.57, 54.63 40.22, 62.54 31.55 M43.17 57.07 C48.45 50.47, 54.77 46.7, 61.95 39.33 M46.03 58.17 C52.13 51.13, 57.47 42.17, 63.12 37.85 M51.26 56.89 C55.75 53.51, 56.42 50.69, 62.59 43.56 M50.81 57.01 C54.69 52.8, 59.27 47.74, 63.08 44.52 M55.42 58.19 C57.98 54.28, 61.23 51.49, 62.77 49.13 M56.12 58.18 C58.61 54.55, 61.76 51.1, 63.11 49.42" stroke="#228be6" stroke-width="0.5" fill="none"></path><path d="M-1.8 -1.69 C16.69 0.8, 31.67 0.51, 61.09 -1.03 M-0.64 0.02 C13.61 0.72, 27.02 0.59, 61.88 -0.01 M62.25 -1.69 C60.64 20.86, 61.58 42.57, 63.78 56.59 M61.03 -0.32 C61.02 13.2, 62.54 24.89, 61.11 55 M60.25 55.49 C39.68 55.16, 13.22 57.49, 0.9 55.89 M60.87 54.28 C39.55 55.81, 16.7 54.75, 0.49 56.05 M-0.81 54.97 C0.17 41.47, -1.23 27.39, -1.32 1.36 M-0.01 55.56 C1.1 43.68, 0.91 31.94, 0.94 -0.49" stroke="#000000" stroke-width="1" fill="none"></path></g><g transform="translate(290.62306376154083 167.248046875) rotate(0 8 12.5)"><text x="8" y="18" font-family="Virgil, Segoe UI Emoji" font-size="20px" fill="#000000" text-anchor="middle" style="white-space: pre;" direction="ltr">2</text></g><g stroke-linecap="round" transform="translate(266.50197001154083 80.3671875) rotate(0 30.92578125 27.623046875)"><path d="M0 0 C0 0, 0 0, 0 0 M0 0 C0 0, 0 0, 0 0 M-0.27 6.59 C2.07 3.88, 3.61 2.32, 5.25 0.04 M-0.41 6.76 C0.78 5.07, 2.05 3.68, 4.64 0.12 M1.06 12.14 C3.8 7.24, 9.04 4.17, 10.15 -0.45 M-0.17 11.49 C1.99 8.33, 5.41 5.49, 10.64 -0.11 M-0.51 19.77 C3.15 12.85, 10.36 8.88, 15.02 0.68 M-0.41 18.28 C6.76 10.57, 11.21 4.01, 15.77 0.2 M-0.19 25.13 C6.29 15.39, 14.94 5.99, 20.7 -1.32 M-0.26 23.08 C3.69 19.28, 8.26 14.35, 21.64 0.66 M-0.45 32.32 C8.93 19.83, 15.55 12.84, 25.63 0.81 M0.02 29.65 C9.89 19.17, 20.97 6.64, 27.05 -0.6 M-1.92 37.11 C9.89 25.58, 20.65 12.71, 33.73 0.77 M0.04 36.29 C6.8 29.44, 12.08 22.84, 30.9 -0.47 M0.51 41.61 C10.11 34.91, 14.19 26.15, 38.62 0.99 M-0.65 42.77 C12.7 28.39, 25.26 13.25, 37.13 -0.03 M1.32 48.9 C15.9 31.56, 33.47 9.69, 42.55 -1.02 M-0.27 49.44 C12.25 35.66, 22.4 22.21, 42.19 0.24 M-1.42 54.14 C13.42 40.72, 26.01 22.74, 48.72 1.72 M-0.04 54.76 C13.73 39.69, 27.88 23.04, 47.91 -0.7 M0.97 55.97 C11.81 46.25, 26.08 32.35, 52.17 0.01 M3.31 57.06 C20.14 37.21, 40.36 14.16, 53.01 0.33 M9.38 56.82 C27.09 34.79, 48.98 12.66, 56.2 -1.1 M7.84 57.47 C22.24 40.54, 38.08 22.63, 57.98 -0.43 M13.32 57.43 C27.17 42.45, 40.82 27.38, 62.51 0.75 M13.24 58.65 C27.45 38.74, 44.28 21.05, 63.9 -0.13 M18.99 57.07 C32.7 44.09, 44.1 26.98, 61.02 6.68 M19.58 57.63 C27.5 46.95, 37.66 35.79, 62.74 6.53 M23.08 58.97 C37.54 41.77, 51.06 25.59, 63.85 14.09 M23.59 57.6 C39.93 39.62, 55.34 22.09, 61.96 13.27 M27.65 56.71 C41.21 43.85, 57.71 27.96, 63.89 18.35 M30.1 56.73 C37.99 48.76, 45.26 39.77, 63.56 18.39 M36.44 56.61 C42.97 50.54, 50.29 42.01, 63.03 26.21 M35.02 57.02 C39.35 51, 46.19 44.68, 62.97 24.57 M41.81 56.03 C44.76 50.38, 50.31 47.54, 62.39 30.86 M40.69 57.03 C48.9 47.94, 55.58 38.64, 63.78 30.4 M45.09 57.84 C52.91 49.33, 55.76 45.11, 62.66 38.32 M44.91 58.8 C52.58 49.53, 60.19 41.19, 62.66 37.2 M51.4 56.78 C56.24 54.08, 57.85 48.53, 62.41 42.73 M50.37 56.64 C54.65 52.04, 59.48 47.58, 62.25 44.53 M54.99 57.66 C58.53 54.79, 60.93 51.96, 62.21 48.83 M55.55 57.68 C57.92 55.64, 60.17 53.21, 63.06 49.54" stroke="#228be6" stroke-width="0.5" fill="none"></path><path d="M0.72 -0.34 C17.51 0.08, 38.81 0.6, 62.27 -0.22 M0.73 0.45 C23.06 -0.27, 45.93 0.55, 62.41 -0.81 M62.71 0.68 C63.84 12.35, 61.42 23.39, 63.8 54.25 M61.83 -0.25 C62.13 12.36, 61.81 23.62, 60.88 55.4 M63.6 56.38 C42.33 56.71, 20.45 56.12, -1.58 54.91 M61.08 55.32 C44.7 55.18, 26.52 54.02, -0.43 55.69 M-0.43 54.91 C-1.64 38.67, -0.25 21.26, -0.5 -0.52 M0.8 56.05 C0.01 37.52, -0.77 19.1, -0.65 -0.17" stroke="#000000" stroke-width="1" fill="none"></path></g><g transform="translate(293.92775126154083 95.490234375) rotate(0 3.5 12.5)"><text x="3.5" y="18" font-family="Virgil, Segoe UI Emoji" font-size="20px" fill="#000000" text-anchor="middle" style="white-space: pre;" direction="ltr">1</text></g><g stroke-linecap="round"><g transform="translate(195.47942730202817 40.946970231956584) rotate(0 29.581970795243933 -0.03527864733302977)"><path d="M-0.68 -0.17 C9.1 -0.11, 49.79 1.27, 59.84 1.31 M1.17 -1.31 C10.73 -1.65, 49.56 -0.68, 59.21 -0.25" stroke="#000000" stroke-width="1" fill="none"></path></g><g transform="translate(195.47942730202817 40.946970231956584) rotate(0 29.581970795243933 -0.03527864733302977)"><path d="M30.78 9.99 C44.03 6.12, 53.16 2.88, 58.49 -0.69 M30.1 8.34 C38.75 7.22, 47.2 3.46, 59.13 -0.68" stroke="#000000" stroke-width="1" fill="none"></path></g><g transform="translate(195.47942730202817 40.946970231956584) rotate(0 29.581970795243933 -0.03527864733302977)"><path d="M31.43 -10.26 C44.58 -6.06, 53.45 -1.21, 58.49 -0.69 M30.75 -11.91 C39.42 -7.42, 47.69 -5.57, 59.13 -0.68" stroke="#000000" stroke-width="1" fill="none"></path></g></g></svg>