<svg version="1.1" xmlns="http://www.w3.org/2000/svg" viewBox="0 0 1123.275179464763 357.54416150490624" width="1123.275179464763" height="357.54416150490624">
  <!-- svg-source:excalidraw -->
  
  <defs>
    <style class="style-fonts">
      @font-face {
        font-family: "Virgil";
        src: url("https://excalidraw.com/Virgil.woff2");
      }
      @font-face {
        font-family: "Cascadia";
        src: url("https://excalidraw.com/Cascadia.woff2");
      }
    </style>
  </defs>
  <rect x="0" y="0" width="1123.275179464763" height="357.54416150490624" fill="#ffffff"></rect><g stroke-linecap="round" transform="translate(302.68234042172753 209.4908643030558) rotate(0 30.92578125 27.623046875)"><path d="M0 0 C0 0, 0 0, 0 0 M0 0 C0 0, 0 0, 0 0 M0.18 5.73 C1.5 5.45, 1.99 3.21, 4.8 0.03 M-0.35 6.67 C0.67 5.48, 1.85 3.84, 4.73 0.53 M-0.27 13.06 C4.27 6.29, 7.19 1.98, 10.16 1.19 M0.61 12.2 C2.57 8.56, 6.29 5.27, 9.91 -0.01 M-1.72 19 C4.63 13.27, 9.19 7.92, 14.2 0.74 M0.57 18.84 C5.21 12.68, 11.47 5.5, 14.99 -0.02 M-1.28 23.13 C5.19 20.35, 10.65 10.85, 20.06 -0.07 M-0.46 23.7 C6.72 16.69, 14.97 7.9, 21.41 0.8 M-1.9 31.93 C6.03 22.64, 12.13 16.74, 28.17 -0.6 M0.81 30.76 C7.91 21.27, 17.34 9.41, 26.3 0.77 M0.11 35.52 C9.06 28.33, 14.83 18, 30.39 1.42 M-0.06 37.18 C6.38 28.53, 13.52 21.27, 32.42 0.76 M1.7 44.47 C8.3 35.5, 14.99 24.72, 35.44 0.59 M1.07 41.91 C8.1 34.08, 16.11 24.48, 35.92 -0.46 M1.77 48.41 C10.95 37.15, 21.33 25.3, 42.78 0.04 M0.1 49.34 C9.54 36.75, 20.17 26.23, 41.69 0.13 M-1.53 53.05 C17.57 34.47, 38.08 12.35, 48.03 1.89 M-0.56 54.33 C12.38 42.33, 23.02 29.32, 47.29 1.15 M1.28 59.5 C20.76 35.18, 37.97 15.36, 52.95 -0.6 M2.57 58.59 C18.57 41.01, 34.23 23.24, 52.37 -0.87 M7.65 58.6 C22.9 41.1, 33.58 26.95, 58.88 -0.57 M8.16 57.01 C26.42 37.4, 44.51 16, 58.56 -0.07 M12.48 57.26 C26.12 44.25, 38.44 32.46, 63.96 -0.61 M13.98 57.04 C29.21 40.27, 44.33 22.68, 62.24 -0.27 M19.29 56.69 C31.56 43.72, 38.85 33.3, 62.02 8.65 M19.59 57 C36.25 37.65, 52.01 20.87, 63.79 7.5 M23.05 57.77 C36.82 41.16, 49.9 25.56, 63.62 11.99 M23.58 58.4 C35.7 44.29, 49.38 28.68, 62.18 12.43 M28.07 57.36 C40.14 44.67, 50.79 34.81, 63.67 19.24 M29 58.32 C39.12 45.78, 48.16 35.85, 63 18.66 M33.51 58.6 C41.37 47.53, 49.64 39.29, 64.72 24.59 M35.27 58.77 C42.34 48.9, 50.29 39.75, 63.29 24.59 M39.25 59.2 C46.53 49.91, 53.03 41.63, 64.28 29.63 M39.55 56.98 C48.51 48.19, 58.16 37.48, 63.25 30.93 M43.37 57.83 C51.43 54.14, 54.91 46.48, 62.21 35.67 M44.71 58.78 C49.46 54.08, 52.07 48.11, 63.16 37.11 M51.93 58.23 C56.28 51.28, 59.57 45.81, 63.89 42.92 M50.68 56.98 C53.49 54.93, 55.21 50.97, 63.08 43.38 M56.49 56.84 C58.05 55.56, 58.39 54.31, 63.36 50.04 M56.09 58.17 C57.55 56.09, 59.33 53.53, 63.16 49.29" stroke="#15aabf" stroke-width="0.5" fill="none"></path><path d="M0.4 -1.51 C16.3 1.34, 29.89 0.59, 62.82 0.62 M-0.73 -0.12 C12.69 -0.33, 25.9 0.17, 61.76 0.94 M61.63 -0.09 C61.36 18.18, 61.45 36.03, 62.87 54.77 M62.38 0.36 C62.07 20.41, 62.45 39.05, 61.46 54.99 M60.55 55.35 C47.22 55.26, 34.71 54.71, 0.33 56.33 M61.37 56.05 C41.97 54.41, 22.31 56.28, 0.72 56.1 M-1.29 54.65 C-2.09 35.12, -1.99 16.54, 0.7 0.89 M-0.52 55.28 C1.09 36.82, -0.38 19.48, -0.85 -0.07" stroke="#000000" stroke-width="1" fill="none"></path></g><g transform="translate(312.60812167172753 224.6139111780558) rotate(0 21 12.5)"><text x="21" y="18" font-family="Virgil, Segoe UI Emoji" font-size="20px" fill="#000000" text-anchor="middle" style="white-space: pre;" direction="ltr">main</text></g><g stroke-linecap="round" transform="translate(295.45760757440166 72.8662109375) rotate(0 37.890625 135.05228507272386)"><path d="M1.75 0.89 C17.98 0.71, 35.36 1.2, 73.85 0.69 M0.11 -0.59 C20.31 0.01, 39.04 1.03, 75.93 0.36 M75.24 0.61 C75.08 76.74, 76.34 151.18, 76.65 269.49 M76.12 0.61 C77.53 103.22, 76.59 206.59, 75.21 269.47 M75.17 270.33 C56.58 269.82, 35.87 271.23, 0.33 271.75 M75.49 269.16 C51.33 271.63, 28.33 271.56, 0.49 270.43 M-1.49 269.43 C-0.06 173.13, 1.91 77.11, 0.51 -0.34 M0.76 270.06 C0.7 196.97, 0.43 122.28, 0.62 0.43" stroke="#000000" stroke-width="1" fill="none"></path></g><g stroke-linecap="round" transform="translate(303.1201331891507 276.2886038010074) rotate(0 30.92578125 27.623046875)"><path d="M0 0 C0 0, 0 0, 0 0 M0 0 C0 0, 0 0, 0 0 M0.33 5.95 C1.53 4.04, 3.19 1.39, 5.28 -0.36 M0.06 6.3 C1.12 4.49, 2.78 3.29, 5.13 0.18 M-1.38 11.68 C1.41 8.22, 7.05 5, 11.11 -1.05 M-0.08 12.44 C3.73 7.03, 7.7 2.92, 11.04 0.19 M-0.9 20.29 C1.52 12.94, 7.18 11.58, 15.4 1.18 M0.71 18.66 C5.81 11.17, 11.09 4.55, 16.22 -0.54 M2.24 24.39 C3.4 17.52, 9.73 13.87, 20.45 -0.67 M0.69 24.98 C4.64 18.85, 10.76 12.22, 20.75 0.2 M-1.71 31.93 C3.59 26.14, 9.63 18.84, 27.53 -0.33 M0.96 30.19 C9.25 19.25, 20.37 7.32, 26.54 0.73 M0.94 35.37 C10.71 23.43, 21.99 11.3, 30.35 0.56 M-0.84 37.06 C9.73 25.68, 21.06 12.32, 31.6 -0.92 M1.28 42.53 C12.45 24.98, 27.83 8.65, 36.21 0.96 M0.73 42.88 C14.73 24.91, 28.58 8.71, 37.26 0.19 M0.15 49.57 C17.33 29.65, 33.84 8.86, 43.57 -0.95 M-0.63 48.9 C14.21 32.44, 27.41 18.3, 42.77 0.08 M1.06 56.38 C10.07 43.81, 22.2 30.54, 47.09 0.96 M0.91 55.13 C10.97 42.09, 21.83 31.23, 48.36 1.03 M1.85 56.26 C14.89 44.28, 25.22 30.99, 51.25 -0.57 M3.06 58.62 C17.22 39.99, 31.23 23.36, 53.85 -0.33 M7.04 56.67 C21.26 42.45, 33.99 27.65, 59.34 -1.46 M8.76 57.54 C23.07 41.37, 37.03 23.74, 57.76 0.23 M12.84 59.9 C27.44 43.5, 38.28 27.81, 62.42 1.07 M13.25 58.37 C32.15 35.45, 49.97 14.51, 63.23 1.35 M18.02 55.69 C34.39 40.13, 48.88 26.18, 61.75 8.32 M17.91 58.05 C36.14 39.44, 52.06 20.35, 62.49 6.34 M22.31 56.99 C32.07 47.53, 42.51 35.5, 61.47 13.86 M24.78 58.12 C33.69 45.86, 43.52 34.34, 62.61 12.43 M27.98 58.63 C37.3 49.32, 44.99 39.72, 63.86 19.6 M29.09 56.88 C38.23 47.98, 45.37 38.14, 62.77 19.33 M32.88 57.98 C40.13 51.82, 47.68 41.17, 64.29 25.49 M34.4 58.57 C44.3 46.13, 54.54 33.15, 62.19 26.34 M40.04 57.67 C44.56 51.88, 50.21 45.77, 62.05 30.88 M41.14 57.48 C46.28 51.42, 51.15 44.62, 63.1 30.22 M46.69 58.26 C48.1 52.71, 50.86 47.37, 63.5 37.25 M45.79 57.17 C48.53 52.78, 53.7 48.17, 62.81 37.38 M49.95 56.99 C53.98 53.71, 58.4 45.94, 61.1 45.46 M51.33 56.65 C53.73 53.97, 57.2 49.07, 62.68 43.79 M55.57 56.91 C59.02 55.07, 61.68 51.33, 62.96 48.44 M56.27 57.43 C58.44 55, 60.68 52.19, 63.26 49.39" stroke="#228be6" stroke-width="0.5" fill="none"></path><path d="M0.89 0.78 C19.94 0.43, 40.24 -2.47, 62.54 -0.84 M-0.59 0.74 C13.96 -0.16, 29.03 0.08, 62.21 -0.19 M62.64 -0.6 C63.05 16.97, 61.35 33.03, 61.07 56.9 M62.63 0.81 C61.83 19.08, 61.79 38.21, 61.04 54.9 M62.08 56.17 C47 55.39, 33.88 55.39, 1.65 55.6 M60.91 54.88 C47.18 55.78, 31.51 55.55, 0.32 55.83 M-0.86 53.44 C0 42.92, 1.05 29.85, -0.43 -0.53 M-0.06 54.74 C0.94 40.68, -0.09 28.6, 0.55 -0.96" stroke="#000000" stroke-width="1" fill="none"></path></g><g transform="translate(327.0459144391507 291.4116506760074) rotate(0 7 12.5)"><text x="7" y="18" font-family="Virgil, Segoe UI Emoji" font-size="20px" fill="#000000" text-anchor="middle" style="white-space: pre;" direction="ltr">5</text></g><g stroke-linecap="round"><g transform="translate(350.146273214762 302.9236972670178) rotate(0 26.83429913312102 -0.6770762568708051)"><path d="M0.58 0.37 C9.19 0.39, 43.43 0.42, 52.14 0.17 M-0.57 -0.47 C8.35 -0.84, 45.52 -1.77, 54.24 -1.74" stroke="#000000" stroke-width="1" fill="none"></path></g><g transform="translate(350.146273214762 302.9236972670178) rotate(0 26.83429913312102 -0.6770762568708051)"><path d="M29.95 5.78 C38.45 3.55, 44.76 0.94, 54.45 -2.92 M30.26 7.86 C39 4.01, 47.85 0.62, 53.9 -1.34" stroke="#000000" stroke-width="1" fill="none"></path></g><g transform="translate(350.146273214762 302.9236972670178) rotate(0 26.83429913312102 -0.6770762568708051)"><path d="M29.7 -12.45 C38.3 -8.49, 44.69 -4.92, 54.45 -2.92 M30.02 -10.36 C38.83 -7.4, 47.77 -3.97, 53.9 -1.34" stroke="#000000" stroke-width="1" fill="none"></path></g></g><mask></mask><g transform="translate(416.2676217201979 288.37045338114876) rotate(0 26.5 12.5)"><text x="0" y="18" font-family="Virgil, Segoe UI Emoji" font-size="20px" fill="#000000" text-anchor="start" style="white-space: pre;" direction="ltr">value</text></g><g stroke-linecap="round"><g transform="translate(353.138375796284 176.17480120723485) rotate(0 26.789567223240056 -0.07324594842111765)"><path d="M-1.16 0.41 C7.87 0.25, 45.36 -0.61, 54.74 -0.61 M0.43 -0.42 C9.21 -0.49, 44.56 0.1, 53.53 0.47" stroke="#000000" stroke-width="1" fill="none"></path></g><g transform="translate(353.138375796284 176.17480120723485) rotate(0 26.789567223240056 -0.07324594842111765)"><path d="M28.02 8.39 C34.98 6.18, 45.78 2.19, 55 0.29 M27.69 9.03 C34.75 6.59, 42.12 4.49, 53.23 1.08" stroke="#000000" stroke-width="1" fill="none"></path></g><g transform="translate(353.138375796284 176.17480120723485) rotate(0 26.789567223240056 -0.07324594842111765)"><path d="M28.52 -10.5 C35.36 -6.13, 45.99 -3.54, 55 0.29 M28.19 -9.86 C35.28 -6.81, 42.51 -3.43, 53.23 1.08" stroke="#000000" stroke-width="1" fill="none"></path></g></g><mask></mask><g transform="translate(418.32179970932793 165.8628107181048) rotate(0 60.5 12.5)"><text x="0" y="18" font-family="Virgil, Segoe UI Emoji" font-size="20px" fill="#000000" text-anchor="start" style="white-space: pre;" direction="ltr">factor local</text></g><g stroke-linecap="round" transform="translate(303.5116233583158 78.85470100343082) rotate(0 30.92578125 27.623046875)"><path d="M-1.46 -0.24 C12.79 -0.93, 26.64 0.09, 61.66 1.88 M-0.11 -0.05 C19.14 0.51, 38.66 0.73, 62.36 -0.24 M62.9 0.73 C62.51 21.18, 63.26 38.83, 61.07 54.73 M61.2 0.05 C61.1 12.64, 61.86 24.9, 62.02 55.79 M60.89 56.84 C41.68 53.47, 21.94 57.2, 1.43 56.95 M61.21 54.95 C39.32 55.18, 17.8 55.53, 0.35 55.69 M-1.03 55.32 C2.05 36.76, -0.89 20.43, -1.7 -0.14 M-0.09 55.46 C-0.3 33.63, 0.01 13.43, -0.74 -0.22" stroke="#000000" stroke-width="1" fill="none"></path></g><g stroke-linecap="round" transform="translate(18.430366847826008 302.87449438533986) rotate(0 99 17.5)"><path d="M-1.18 1.48 C44.78 -0.4, 91.79 0.09, 198.71 -0.39 M0.39 -0.3 C57.81 1.19, 114.15 1.23, 197.61 0.83 M199.55 1.62 C197.69 11.56, 197.61 23.21, 196.37 34.31 M198.11 0.46 C197.86 8.39, 198.56 16.61, 198.82 35.18 M196.11 34.27 C149.92 35.85, 99.86 35.4, 0.65 36.17 M197.57 34.1 C151.25 33.46, 105.1 33.43, -0.22 34.74 M-0.12 33.99 C1.9 24.61, -0.16 19.2, 1.1 -1.93 M-0.66 35.31 C0.02 24.09, -0.29 15.47, -0.7 -0.02" stroke="#000000" stroke-width="1" fill="none"></path></g><g transform="translate(85.4303668478251 307.87449438533986) rotate(0 32 12.5)"><text x="32" y="18" font-family="Virgil, Segoe UI Emoji" font-size="20px" fill="#000000" text-anchor="middle" style="white-space: pre;" direction="ltr">&lt;main&gt;</text></g><g stroke-linecap="round" transform="translate(10 251.38247672229772) rotate(0 105.961277173913 48.08084239130426)"><path d="M-0.15 -0.17 C67.47 -1.11, 132.25 -1.72, 211.73 -0.08 M0.54 0.45 C56.1 1.05, 112.28 1.29, 212.38 0.32 M211.48 -0.78 C212.15 31.6, 211.04 65.43, 210.62 96.27 M211.76 0.17 C212.58 26.1, 212.85 52.04, 211.44 96.96 M213.54 97.42 C156.06 96.34, 97.76 96.51, -1.13 95.64 M211.85 96.47 C168.96 94.76, 125.02 94.24, -0.45 96.19 M1.91 94.46 C-0.09 59.61, 1.16 17.96, -0.19 0.42 M0.09 95.42 C0.42 68.06, -0.06 38.3, 0.12 -0.67" stroke="#000000" stroke-width="1" fill="none"></path></g><g stroke-linecap="round" transform="translate(18.060971467391028 262.4172083799058) rotate(0 99 17.5)"><path d="M-0.19 1.88 C47.98 0.88, 94.98 -0.05, 197.91 -0.69 M0.51 -0.24 C67.71 -1.6, 135.15 -0.69, 198.36 0.44 M197.22 -0.52 C196.82 11.59, 197.6 25.13, 198.1 34.39 M198.17 0.54 C198.33 11.72, 198.34 21.32, 198.8 34.71 M199.43 36.7 C158.29 37.47, 117.79 35.54, -0.59 33.09 M198.35 35.44 C147.41 34.62, 95.9 34.32, 0.04 35.97 M-1.7 34.86 C1.76 25.81, -1.75 14.24, 0.42 0.01 M-0.74 34.78 C0.71 26.13, -0.13 18.77, -0.67 0.22" stroke="#000000" stroke-width="1" fill="none"></path></g><g transform="translate(45.06097146739103 267.4172083799058) rotate(0 72 12.5)"><text x="72" y="18" font-family="Virgil, Segoe UI Emoji" font-size="20px" fill="#000000" text-anchor="middle" style="white-space: pre;" direction="ltr">block in &lt;main&gt;</text></g><g stroke-linecap="round"><g transform="translate(215.45325237771704 292.4596676190358) rotate(0 40.07510473755838 -75.95781280649453)"><path d="M0.43 -0.23 C13.73 -25.54, 67.58 -126.53, 80.96 -151.68 M-0.81 -1.4 C12.23 -26.53, 66.52 -124.87, 79.94 -150.17" stroke="#000000" stroke-width="1" fill="none"></path></g><g transform="translate(215.45325237771704 292.4596676190358) rotate(0 40.07510473755838 -75.95781280649453)"><path d="M75.14 -120.72 C77.13 -132.89, 79.74 -144.5, 81.17 -149.16 M76.35 -119.98 C76.95 -128.24, 78.57 -136.05, 79.72 -150.56" stroke="#000000" stroke-width="1" fill="none"></path></g><g transform="translate(215.45325237771704 292.4596676190358) rotate(0 40.07510473755838 -75.95781280649453)"><path d="M57.1 -130.5 C66.21 -138.88, 75.93 -146.64, 81.17 -149.16 M58.31 -129.76 C63.94 -135.25, 70.55 -140.36, 79.72 -150.56" stroke="#000000" stroke-width="1" fill="none"></path></g></g><mask></mask><g stroke-linecap="round"><g transform="translate(216.9548233695641 262.86557794512373) rotate(0 39.27551707393695 -61.81488965645235)"><path d="M-0.23 -0.13 C13.13 -20.79, 66.84 -102.94, 80.37 -123.5 M-1.81 -1.25 C11.37 -21.77, 65.69 -102, 79.39 -122.17" stroke="#000000" stroke-width="1" fill="none"></path></g><g transform="translate(216.9548233695641 262.86557794512373) rotate(0 39.27551707393695 -61.81488965645235)"><path d="M71.85 -93.17 C73.59 -101.45, 75.98 -110.17, 80.4 -122.65 M72.6 -92.71 C75.23 -102.7, 78.2 -114.04, 79 -122.43" stroke="#000000" stroke-width="1" fill="none"></path></g><g transform="translate(216.9548233695641 262.86557794512373) rotate(0 39.27551707393695 -61.81488965645235)"><path d="M54.86 -104.68 C61.99 -109.3, 69.73 -114.39, 80.4 -122.65 M55.61 -104.22 C64.23 -110.26, 73.24 -117.51, 79 -122.43" stroke="#000000" stroke-width="1" fill="none"></path></g></g><mask></mask><g stroke-linecap="round" transform="translate(303.0595921100985 145.1773541899538) rotate(0 30.92578125 27.623046875)"><path d="M0 0 C0 0, 0 0, 0 0 M0 0 C0 0, 0 0, 0 0 M0.38 6.93 C1.03 5.4, 2.22 3.28, 5.12 0.22 M-0.26 6.6 C0.77 5.29, 1.51 3.71, 5.12 0.23 M-0.92 10.6 C4.76 7.06, 6.63 5.97, 9.38 -1.33 M0.69 11.32 C4.5 7.47, 7.83 3.85, 10.8 0.51 M-1.41 18.27 C3.64 13.99, 10.45 6.34, 15.72 -0.81 M0.78 19.02 C5.94 11.84, 12.16 4.65, 15.01 -0.63 M0.33 25.03 C6.91 17.94, 10.7 12.61, 22.38 0.78 M1.14 24.47 C4.84 20.14, 9.35 14.78, 22.01 -0.44 M1.26 30.32 C7.52 22.66, 17.51 10.27, 25.86 0.78 M1 29.72 C9.27 20.54, 17.37 11.22, 26.93 -0.07 M-0.65 35.58 C8.86 25.94, 15.52 16.74, 32.6 0.55 M0.71 37.32 C8.63 29, 15.12 19.84, 31.23 0.86 M0.09 44.49 C7.59 34.39, 15.2 25.67, 36.08 -0.49 M0.08 42.74 C14.11 26.56, 30.3 8.42, 36.57 -0.24 M1.15 49.51 C8.3 36.12, 19.72 28.38, 42.8 -0.59 M-0.45 48.02 C14.62 31.74, 29.74 12.18, 42.26 -0.57 M1.75 52.93 C18.03 33.81, 34.62 15.56, 45.69 -1.32 M0.96 54.78 C14.3 39.55, 27.84 23.65, 47.17 -0.62 M2.63 58.2 C24.49 33.35, 42.66 11.87, 54.03 0.67 M2.06 58.62 C22.16 34.7, 41.83 13.33, 53.11 0.16 M6.8 56.25 C19.43 45.04, 34.52 30.65, 58.95 0.08 M8.71 57.47 C20.88 45.32, 31.11 31.17, 58.76 0.76 M12.95 59.81 C27.59 43.33, 37.36 27.33, 62.64 -0.1 M12.72 56.91 C22.49 46.04, 34.73 34.19, 62.4 -0.34 M18.62 57.69 C29.95 43.94, 40.78 29.65, 61.21 8.85 M18.55 56.53 C28.5 45.68, 39.17 33.35, 63.22 7.2 M23.08 56.11 C30.32 47.86, 39.47 39.83, 61.76 12.78 M24.61 58.23 C33.36 45.82, 43.86 35.23, 61.85 13.11 M29.19 59 C39.47 42.92, 52.14 29.75, 61.99 20.36 M28.6 56.63 C38.3 47.61, 47.32 38.84, 62.43 19.15 M32.88 58.35 C45.52 48.26, 51.42 38.05, 61.5 26.37 M35.48 58.37 C40.44 51.62, 47.65 44.47, 63.41 24.5 M41.08 58.45 C46.35 47.78, 57.91 39.83, 65.07 30.74 M40.85 58.43 C49.97 46.76, 57.91 37.47, 63.29 31.77 M45.14 58.3 C48.88 51.86, 57 43.77, 62.11 38.85 M44.84 57.57 C50.24 51.04, 55.87 44.63, 63.51 37.41 M50.82 55.99 C55.84 53.93, 59.16 48.48, 62 44.57 M51.48 56.64 C53.09 54.8, 56.19 49.98, 62.26 43.76 M55.71 58.05 C58.33 55.53, 60.77 52.21, 63.81 50.4 M55.33 57.67 C58.17 55.1, 59.53 53.51, 62.72 49.56" stroke="#228be6" stroke-width="0.5" fill="none"></path><path d="M-1.56 -1.28 C24.73 1.41, 45.21 1.69, 62.54 -1.71 M0.47 -0.32 C19.98 -0.04, 40.33 -0.98, 62.3 -0.08 M62.4 0.15 C61.92 18.24, 59.8 34.68, 63.33 55.3 M61.27 0.14 C61.92 15.08, 61.64 29.08, 61.56 56.23 M63.27 55.12 C47.7 56.13, 35.42 53.04, 1.37 53.28 M62.12 55.13 C39.45 54.77, 15.48 55.32, -0.35 55.5 M1.14 56.54 C-0.45 39.77, -1.02 25.53, 0.92 -1.4 M0.89 54.52 C1.05 34, -0.49 14.79, 0.75 -0.98" stroke="#000000" stroke-width="1" fill="none"></path></g><g transform="translate(325.9853733600985 160.3004010649538) rotate(0 8 12.5)"><text x="8" y="18" font-family="Virgil, Segoe UI Emoji" font-size="20px" fill="#000000" text-anchor="middle" style="white-space: pre;" direction="ltr">2</text></g><g stroke-linecap="round"><g transform="translate(217.5888889850985 335.5054791899538) rotate(0 39.75527969487007 -30.74418008473708)"><path d="M-0.67 0.23 C12.6 -9.88, 66.91 -50.04, 80.18 -60.11 M1.17 -0.69 C14.25 -11.18, 65.97 -51.48, 79.33 -61.72" stroke="#000000" stroke-width="1" fill="none"></path></g><g transform="translate(217.5888889850985 335.5054791899538) rotate(0 39.75527969487007 -30.74418008473708)"><path d="M63.7 -36.06 C70.38 -46.76, 75.72 -52.04, 79.23 -61.06 M63.76 -36.57 C68.38 -43.97, 72.64 -52.59, 79.27 -60.78" stroke="#000000" stroke-width="1" fill="none"></path></g><g transform="translate(217.5888889850985 335.5054791899538) rotate(0 39.75527969487007 -30.74418008473708)"><path d="M51.14 -52.28 C62.24 -57.3, 71.93 -56.96, 79.23 -61.06 M51.19 -52.79 C59.92 -54.96, 68.22 -58.36, 79.27 -60.78" stroke="#000000" stroke-width="1" fill="none"></path></g></g><mask></mask><g stroke-linecap="round"><g transform="translate(218.9804905475985 302.4341901274538) rotate(0 39.19662519541589 -14.411617163242909)"><path d="M0.82 0.79 C13.86 -3.91, 65.74 -23.27, 78.61 -28.11 M-0.22 0.17 C12.65 -4.85, 64.9 -24.59, 77.77 -29.62" stroke="#000000" stroke-width="1" fill="none"></path></g><g transform="translate(218.9804905475985 302.4341901274538) rotate(0 39.19662519541589 -14.411617163242909)"><path d="M56.45 -9.59 C64.54 -17.23, 71.85 -23.91, 77.5 -30.91 M54.69 -10.89 C61.69 -15.93, 68.37 -21.84, 78.13 -28.67" stroke="#000000" stroke-width="1" fill="none"></path></g><g transform="translate(218.9804905475985 302.4341901274538) rotate(0 39.19662519541589 -14.411617163242909)"><path d="M49.1 -28.75 C59.64 -30.11, 69.38 -30.45, 77.5 -30.91 M47.35 -30.06 C56.49 -29.45, 65.32 -29.76, 78.13 -28.67" stroke="#000000" stroke-width="1" fill="none"></path></g></g><mask></mask><g stroke-linecap="round" transform="translate(876.6357201771625 209.4908643030558) rotate(0 30.92578125 27.623046875)"><path d="M0 0 C0 0, 0 0, 0 0 M0 0 C0 0, 0 0, 0 0 M-0.52 6.23 C1.75 5.35, 2.68 2.94, 5.33 1.09 M-0.2 6.12 C1.41 4.8, 2.21 2.82, 5.21 0.72 M0.58 11.65 C5 7.27, 8.93 2.33, 12.08 -1.38 M-0.33 12.09 C3.94 7.09, 7.48 4.07, 11.3 -0.31 M-0.07 19.82 C6.04 14.07, 10.24 8.6, 15.3 -0.44 M-0.22 19.3 C5.89 12.82, 11.86 5.56, 16.01 1.25 M-0.24 24.26 C5.24 18.78, 6.99 15.36, 21.74 1.56 M-0.25 23.85 C5.87 17.09, 11.48 9.28, 21.46 -0.4 M-0.4 29.94 C6.01 22.11, 12.81 15.63, 25.79 0.22 M0.69 30.07 C5.29 24.91, 10.86 17.61, 25.58 0.99 M-1.36 36.61 C12 23.94, 20.39 12.1, 30.1 0.19 M-0.41 36.13 C7.65 28.24, 14.15 18.9, 30.95 -1.09 M-1.42 43.21 C13.43 27.14, 25.72 12.11, 35.39 1.17 M-0.59 42.61 C9.86 32.39, 17.89 22.55, 36.88 -0.61 M0.34 50.49 C7.7 36.97, 16.38 29.34, 42.37 -1.82 M0.22 48.16 C17.21 31.29, 32.31 11.24, 42.82 -0.67 M1.33 54.02 C17.42 36.61, 32.4 17.92, 49.18 -0.06 M0 54.51 C14.05 38.18, 27.22 23.3, 48.28 -0.15 M3.52 59.53 C19.22 37.76, 39.27 15.64, 53.33 1.09 M3.15 58.87 C15.3 43.36, 27.8 28.63, 52.21 0.62 M10.13 57.23 C18.59 45.25, 29.58 29.71, 57.16 0.59 M8.65 58.26 C21.74 44.29, 33.97 29.04, 58.93 -0.77 M15.07 56.13 C23.48 45.54, 34.33 35.6, 65.09 -1.26 M13.98 56.91 C26.02 44.14, 36.71 32.04, 62.86 0.27 M18.11 58.32 C30.92 41.79, 44.16 30.29, 62.44 6.52 M19.73 58.47 C28.59 46.97, 38.73 35.72, 63.84 7.69 M23.73 56.31 C33.5 46.16, 42.38 32.7, 64.53 13.06 M22.93 58.5 C32.92 49.14, 41.05 38.36, 61.62 14.32 M31.01 57.31 C40.95 41.75, 54.98 29.19, 64.27 19.32 M30.45 56.69 C36.95 49.61, 44.48 39.26, 62 18.54 M35.1 57.57 C40.74 49.37, 48.63 41.71, 63.5 25.36 M34.87 58.3 C46.6 45.6, 57.42 31.17, 63.56 25.64 M41.15 58.7 C47.53 51.37, 54.94 40.78, 64.2 29.38 M39.94 58.43 C45.25 51.04, 52.78 42.68, 63.44 31.84 M45.73 57.95 C48.87 51.6, 56.08 44.56, 64.01 36.07 M44.44 57.44 C50.96 51.81, 55.6 46.44, 62.24 36.7 M50.81 56.63 C54.05 54.37, 58.88 49, 63.37 43.65 M51.52 57.23 C53.01 54.04, 56.82 50.73, 61.82 43.22 M56.54 57.89 C57.68 56.01, 60.17 53.81, 63.93 48.87 M55.37 58.2 C57.9 55.5, 59.51 53.55, 63.06 49.84" stroke="#15aabf" stroke-width="0.5" fill="none"></path><path d="M-0.14 -0.83 C13.62 0.64, 24.94 0.25, 61.49 1.31 M0.59 0.78 C18.7 0.9, 38.16 1.21, 61.89 0.73 M62.27 -0.91 C61.31 17.08, 63.37 30.99, 62.65 54.83 M62.64 0.23 C61.31 19.68, 61.42 40.07, 62.39 56.21 M61.88 55.3 C45.82 54.12, 31.37 56.53, 0.3 56.59 M61.72 54.82 C47.02 54.42, 34.54 54.83, 0.47 55.74 M-1 56 C1.64 39.99, -0.84 22.15, 1.94 1.26 M0.86 55.55 C-0.24 41.77, 0.2 27.66, -0.04 -0.77" stroke="#000000" stroke-width="1" fill="none"></path></g><g transform="translate(886.5615014271625 224.6139111780558) rotate(0 21 12.5)"><text x="21" y="18" font-family="Virgil, Segoe UI Emoji" font-size="20px" fill="#000000" text-anchor="middle" style="white-space: pre;" direction="ltr">main</text></g><g stroke-linecap="round" transform="translate(869.4109873298366 10) rotate(0 37.890625 166.48539054147386)"><path d="M1.25 0.89 C25.93 0.81, 51.1 1.63, 75.82 -0.67 M0.03 0.42 C17.66 0.13, 33.71 0.13, 75.72 0.4 M75.26 0.58 C77.13 96.46, 76.79 194.64, 76.55 332.61 M75.51 -0.03 C77.37 100.64, 77.93 201.08, 75.34 333.3 M74.3 331.7 C49.92 334.14, 27.17 334.33, -1.47 331.64 M74.96 332.71 C60.66 332.8, 44.6 333.15, -0.05 333.09 M1.16 333.69 C0.6 228.71, 2.45 125.91, -0.77 -0.07 M-0.18 332.95 C-1.82 255.35, -1.97 178.16, -0.65 0.14" stroke="#000000" stroke-width="1" fill="none"></path></g><g stroke-linecap="round" transform="translate(877.0735129445857 276.2886038010074) rotate(0 30.92578125 27.623046875)"><path d="M0 0 C0 0, 0 0, 0 0 M0 0 C0 0, 0 0, 0 0 M0.3 6.63 C0.9 5.08, 3.3 2.86, 4.4 1.15 M-0.19 6 C1.14 4.69, 3.44 2.84, 4.79 0.47 M-0.19 13.09 C2.76 9.48, 5.69 5.1, 11.44 -0.81 M-0.47 11.8 C3.46 9.78, 4.94 6.24, 11.18 0.05 M1.1 19.23 C5.85 12.52, 8.52 8.36, 13.94 -1.57 M0.46 19.23 C3.98 13.51, 9.79 6.92, 15.55 0.83 M0.07 22.11 C7.39 17.85, 13.41 10.5, 21.73 1.7 M0.42 23.25 C4.84 18.37, 10.41 11.33, 20.63 0.85 M-1.61 31.78 C5.84 21.55, 14.69 11.68, 28.05 0.34 M0.65 30.81 C9.36 18.65, 20.16 8.58, 26.24 1.09 M-0.39 35.72 C8.22 25.82, 15.83 17.27, 33.22 -1.04 M-0.32 36.36 C8.5 25.21, 17.37 16.1, 30.9 -0.38 M-0.57 42 C7.2 31.64, 17.23 22.69, 37.9 0.04 M0.45 42.26 C9.4 32.62, 15.92 22.05, 37.07 0.83 M-1.92 48.3 C13.75 33.06, 25.38 19.02, 40.66 -1.49 M0.79 48.16 C14.18 32.62, 28.2 16.43, 41.74 -0.45 M1.16 53.25 C18.29 37, 33.48 15.97, 47.05 -1.48 M-0.72 53.92 C13.09 40.56, 25.68 25.58, 47.53 0.23 M3.4 58.18 C19.16 38.53, 38.21 17.48, 55.14 0.05 M3.02 57.75 C20.43 36.43, 38.41 16.26, 53.27 -0.92 M8.92 55.79 C26.34 34.35, 47.91 11.71, 56.62 -0.31 M8.94 58.38 C24.17 38.56, 40.59 17.46, 59.1 -0.75 M12.31 58.87 C34.2 37.39, 50.86 11.6, 61.64 1.99 M12.92 58.23 C32.97 35.85, 50.6 14.7, 62.41 -0.32 M17.45 56.94 C31.84 44.16, 41.15 29.85, 61.34 7.25 M19.59 57.55 C35.81 39.34, 52.75 18.66, 62.32 7.37 M23.94 55.96 C33.71 46.94, 46.55 30.38, 64.47 13.29 M24.86 58.55 C31.41 47.43, 40.36 40.27, 63.41 12.62 M28.66 56.99 C43.73 44.6, 54.91 27.47, 64.69 19.56 M30.48 57.6 C42.23 41.37, 55.57 26.96, 62.96 19.57 M34.84 56.94 C45.12 48.11, 53.1 38.64, 63.46 24.73 M35.12 58.37 C42.92 47.52, 53.54 35.68, 62.96 25.32 M41.62 59.17 C46.41 49.19, 54.39 38.27, 64.97 32.17 M40.99 57.97 C45.84 50.62, 53.47 42.91, 63.02 31.81 M45.09 58.27 C49.87 52.37, 55.44 44.26, 63.18 36.63 M44.93 58.13 C49.52 52.38, 52.6 48.27, 62.47 38.02 M51.8 58.54 C54 54.1, 57.79 48.39, 60.94 45.46 M50.96 57.34 C55.61 51.57, 59.21 46.7, 63.21 43.84 M56.07 58.66 C58.55 55.63, 60.5 51.09, 63.21 50.05 M55.63 57.9 C57.3 55.93, 59.33 53.51, 63.25 48.93" stroke="#228be6" stroke-width="0.5" fill="none"></path><path d="M0.89 0.2 C18.63 -0.75, 37.58 -0.35, 61.18 -1.56 M0.42 0.82 C22.93 0.02, 45.14 -0.08, 62.26 -0.07 M62.7 1.3 C60.13 18.52, 61.18 36.6, 61.32 55.27 M61.81 -0.29 C62.61 21.48, 62.95 41.24, 62.33 55.47 M60.58 53.85 C44.36 55.09, 25.91 53.32, -1.33 53.42 M61.59 55.96 C44.25 55.21, 26.84 54.69, 0.11 55.37 M1.07 54.47 C-0.66 43.39, 1.05 26.5, -0.1 -1.37 M-0.03 55.42 C-0.87 33.89, -0.94 11.65, 0.21 0.48" stroke="#000000" stroke-width="1" fill="none"></path></g><g transform="translate(900.9992941945857 291.4116506760074) rotate(0 7 12.5)"><text x="7" y="18" font-family="Virgil, Segoe UI Emoji" font-size="20px" fill="#000000" text-anchor="middle" style="white-space: pre;" direction="ltr">5</text></g><g stroke-linecap="round"><g transform="translate(924.099652970197 302.9236972670169) rotate(0 25.900053766024257 -0.3155670024655137)"><path d="M0.12 0.3 C8.84 0.3, 44.21 0.7, 53.08 0.54 M-1.28 -0.59 C7.2 -0.97, 43.04 -1.34, 52.02 -1.17" stroke="#000000" stroke-width="1" fill="none"></path></g><g transform="translate(924.099652970197 302.9236972670169) rotate(0 25.900053766024257 -0.3155670024655137)"><path d="M27.46 7.54 C37.31 4.63, 44.42 -0.25, 53.2 0.4 M27.68 7.94 C35.23 4.89, 42.49 2.13, 52.23 -1.62" stroke="#000000" stroke-width="1" fill="none"></path></g><g transform="translate(924.099652970197 302.9236972670169) rotate(0 25.900053766024257 -0.3155670024655137)"><path d="M27.49 -10.69 C37.42 -6.99, 44.51 -5.27, 53.2 0.4 M27.72 -10.29 C35.33 -7.82, 42.58 -5.06, 52.23 -1.62" stroke="#000000" stroke-width="1" fill="none"></path></g></g><mask></mask><g transform="translate(990.2210014756329 288.37045338114876) rotate(0 26.5 12.5)"><text x="0" y="18" font-family="Virgil, Segoe UI Emoji" font-size="20px" fill="#000000" text-anchor="start" style="white-space: pre;" direction="ltr">value</text></g><g stroke-linecap="round"><g transform="translate(927.091755551719 176.17480120723485) rotate(0 26.736034825986735 0.535066494464445)"><path d="M-0.22 0.79 C8.97 0.71, 46.17 -0.17, 55.26 -0.14 M-1.79 0.15 C7.23 0.22, 44.58 1.38, 54.32 1.19" stroke="#000000" stroke-width="1" fill="none"></path></g><g transform="translate(927.091755551719 176.17480120723485) rotate(0 26.736034825986735 0.535066494464445)"><path d="M29.6 10.45 C35.67 6.05, 45.58 6.31, 54.38 2.02 M29.02 10.35 C38.58 6.8, 48.33 2.9, 53.94 1.61" stroke="#000000" stroke-width="1" fill="none"></path></g><g transform="translate(927.091755551719 176.17480120723485) rotate(0 26.736034825986735 0.535066494464445)"><path d="M29.76 -8.44 C35.82 -6.99, 45.69 -0.87, 54.38 2.02 M29.18 -8.54 C38.81 -4.87, 48.5 -1.56, 53.94 1.61" stroke="#000000" stroke-width="1" fill="none"></path></g></g><mask></mask><g transform="translate(992.2751794647629 165.8628107181048) rotate(0 60.5 12.5)"><text x="0" y="18" font-family="Virgil, Segoe UI Emoji" font-size="20px" fill="#000000" text-anchor="start" style="white-space: pre;" direction="ltr">factor local</text></g><g stroke-linecap="round" transform="translate(877.2257453012498 83.65938850343082) rotate(0 30.92578125 27.623046875)"><path d="M0 0 C0 0, 0 0, 0 0 M0 0 C0 0, 0 0, 0 0 M-0.85 7.19 C1.6 3.79, 3.72 2.42, 4.19 -0.21 M-0.46 6.51 C1.66 4.12, 3.65 2, 5.25 0.15 M0.94 11.27 C3.42 7.36, 8.53 1.33, 10.15 1.53 M0.68 12.13 C4.23 7.95, 8.82 3.24, 10.95 0.5 M-1.81 16.54 C4.23 14.94, 9.57 9.25, 17.19 -0.31 M-0.19 18.94 C4.79 12.54, 10.68 6.21, 14.63 1.01 M0.74 25.85 C5.83 15.82, 12.88 8.77, 19.6 -1.46 M-0.36 25 C6.86 16.27, 13.86 8, 21.91 -0.86 M1.81 30.52 C8.65 21.55, 14.87 15.3, 26.91 -0.59 M0 31.28 C5.37 23.2, 12.72 16.22, 25.67 0.57 M1.07 35.94 C6.16 27.8, 14.37 21.37, 30.86 -1.47 M-1.25 36.6 C5.95 29.45, 13.37 21.13, 31.63 -0.58 M1.16 42.31 C6.78 33.35, 18.19 24.24, 36.35 2.17 M0.33 43.09 C11.76 30.99, 22.2 16.62, 36.57 0.49 M-1.99 47.57 C13.44 32.69, 26.26 21.68, 41.01 -0.76 M-0.9 48.61 C14.73 32.25, 28.38 16.78, 41.86 0.46 M-0.19 52.86 C17.91 33.65, 36.43 10.95, 46.23 0.06 M0.3 54.57 C18.72 34.59, 35.28 13.69, 47.63 0.02 M4.63 58.16 C18.91 42.05, 34.05 23.02, 52.78 0.98 M2.75 57.2 C13.49 46.17, 22.36 34.69, 52.27 -0.97 M6.76 57.05 C21.44 44.85, 34.83 30.34, 59.8 -0.89 M9.24 56.6 C28.62 35.38, 46.84 14.05, 58.62 0.68 M11.78 59.35 C35.06 33.43, 55.45 11.9, 63.78 1.76 M12.55 57.04 C26.69 42.65, 40.21 25.8, 62.84 1.4 M17.38 57.81 C32.9 45.69, 42.7 31.05, 62.93 8.14 M18.37 57.94 C35.92 36.81, 53.11 17.52, 61.91 6.03 M25.76 57.82 C37.37 41.8, 56.61 24.85, 63.96 13.17 M24.7 57.15 C32.01 48.45, 38.38 39.12, 62.36 14.17 M31.23 58.05 C43.47 42.14, 54.15 31.61, 63.25 17.59 M29.5 58.06 C36.69 49.76, 42.45 42.35, 62.55 19.63 M35.25 57.18 C44.77 47.51, 55.5 36.81, 63.81 23.57 M34.75 57.77 C45.72 46.09, 56.46 33.77, 63.6 24.58 M42.01 58.58 C48.05 50.16, 54.94 40.49, 64.18 30.14 M40.06 58.22 C47.85 48.77, 54.42 39.91, 63.36 30.48 M45.47 57 C50.19 49.83, 59.47 42.83, 63.52 37.91 M44.75 58.39 C49.51 52.55, 53.56 48.71, 63.5 37.2 M49.13 59.05 C56.3 52.46, 57.11 48.49, 62.47 44.4 M51.4 57.42 C54.02 54.68, 56.05 51.92, 63.33 43.92 M55.99 58.35 C57.77 55.47, 62.04 51.11, 63.27 49.4 M56.03 57.23 C58.21 54.98, 59.71 52.72, 62.8 48.99" stroke="#228be6" stroke-width="0.5" fill="none"></path><path d="M-0.67 -1.56 C18.62 1.56, 34.93 0.82, 63.49 1.45 M0.4 -0.07 C19.01 -0.42, 37.22 0.46, 62.5 -0.73 M61.32 0.02 C63.32 19.23, 60.94 37.45, 61.27 56.5 M62.33 0.23 C62.4 19.58, 61.64 38.47, 61.15 55.82 M60.52 53.42 C42.11 53.95, 21.23 54.27, 1.42 55.54 M61.97 55.37 C39.87 55.6, 19.75 55.75, -0.39 55.02 M-0.1 53.88 C1.37 33.91, -0.88 11.29, 0.34 -1.41 M0.21 55.73 C1.09 39.36, 1.01 21.74, 0.04 0.92" stroke="#000000" stroke-width="1" fill="none"></path></g><g transform="translate(901.1515265512498 98.78243537843082) rotate(0 7 12.5)"><text x="7" y="18" font-family="Virgil, Segoe UI Emoji" font-size="20px" fill="#000000" text-anchor="middle" style="white-space: pre;" direction="ltr">5</text></g><g stroke-linecap="round" transform="translate(592.3837466032601 302.87449438533986) rotate(0 99 17.5)"><path d="M-1.56 1.18 C73.95 0.72, 145.6 2.31, 199.45 0.08 M-0.07 0.21 C73.38 -1.18, 148.09 -0.15, 197.27 0.4 M198.02 1.58 C198.66 8.97, 198.11 18.96, 199.25 36.08 M198.23 0.01 C197.8 13.14, 197.14 27.06, 198.57 35.15 M196.18 34.74 C124.48 32.03, 52.12 35.11, 0.3 35.95 M198.12 34.5 C129.13 36.08, 60.04 34.84, -0.23 35.97 M-1.37 36.72 C0.81 21.75, 0.13 9.92, -1.41 -0.08 M0.48 35.66 C0.79 27.77, -0.48 19.42, 0.92 0.69" stroke="#000000" stroke-width="1" fill="none"></path></g><g transform="translate(659.3837466032601 307.87449438533986) rotate(0 32 12.5)"><text x="32" y="18" font-family="Virgil, Segoe UI Emoji" font-size="20px" fill="#000000" text-anchor="middle" style="white-space: pre;" direction="ltr">&lt;main&gt;</text></g><g stroke-linecap="round" transform="translate(583.9533797554341 251.38247672229772) rotate(0 105.961277173913 48.08084239130426)"><path d="M1.38 0.05 C57.22 0.34, 114.24 -1.03, 213.21 -0.11 M-0.4 -0.34 C72.51 0.18, 143.63 -0.04, 211.74 0.5 M212.39 -0.8 C211.84 25.71, 213.19 53.65, 213.85 94.86 M211.95 -0.74 C211.51 32.78, 212.72 67.12, 212.59 95.43 M211.18 94.71 C161.98 97.17, 113.21 96.75, 0.88 96.08 M212.26 96.91 C146.39 94.88, 79.73 96.08, 0.56 95.66 M0.61 95.63 C0.59 68.13, -0.76 39.33, -1.54 -1.92 M0.46 96.74 C-1.29 65.36, 0.45 35.19, 0.93 0.37" stroke="#000000" stroke-width="1" fill="none"></path></g><g stroke-linecap="round" transform="translate(592.014351222826 262.4172083799058) rotate(0 99 17.5)"><path d="M0.05 0.84 C45.63 -0.1, 88.06 -0.1, 197.88 0.81 M-0.38 0.43 C58.6 0.17, 116.31 0.69, 198.57 -0.27 M197.2 -0.09 C197.7 11.79, 199.35 23, 196.7 35.96 M197.26 -0.63 C197.31 11.87, 198.15 23.26, 197.27 34.34 M196.35 34.48 C158.06 34.46, 116.23 35.16, -0.09 35.23 M198.85 35.53 C135.79 35.52, 75.34 36.38, -0.57 34.95 M-0.53 34.93 C0.04 25.48, -0.38 17.24, -1.92 0.41 M0.58 34.18 C-0.2 23.72, 0.46 11.54, 0.37 -0.55" stroke="#000000" stroke-width="1" fill="none"></path></g><g transform="translate(619.014351222826 267.4172083799058) rotate(0 72 12.5)"><text x="72" y="18" font-family="Virgil, Segoe UI Emoji" font-size="20px" fill="#000000" text-anchor="middle" style="white-space: pre;" direction="ltr">block in &lt;main&gt;</text></g><g stroke-linecap="round"><g transform="translate(789.406632133152 292.4596676190358) rotate(0 40.63437451613777 -75.29622417343398)"><path d="M0.5 0.99 C14.01 -24.28, 68.39 -126.13, 81.96 -151.58 M-0.69 0.46 C12.65 -24.61, 67.75 -124.87, 81.47 -150.02" stroke="#000000" stroke-width="1" fill="none"></path></g><g transform="translate(789.406632133152 292.4596676190358) rotate(0 40.63437451613777 -75.29622417343398)"><path d="M78.57 -118.91 C78.72 -130.14, 80.23 -142.02, 81.33 -149.6 M77.58 -121.1 C78.6 -128.14, 79.93 -135.74, 81.48 -149.22" stroke="#000000" stroke-width="1" fill="none"></path></g><g transform="translate(789.406632133152 292.4596676190358) rotate(0 40.63437451613777 -75.29622417343398)"><path d="M60.57 -128.77 C67.54 -136.35, 75.86 -144.49, 81.33 -149.6 M59.58 -130.95 C65.14 -135.56, 71.05 -140.66, 81.48 -149.22" stroke="#000000" stroke-width="1" fill="none"></path></g></g><mask></mask><g stroke-linecap="round"><g transform="translate(790.9082031249982 262.86557794512373) rotate(0 38.91910825870218 -89.81954334553143)"><path d="M0.99 0.87 C13.95 -29.02, 65.01 -148.83, 77.79 -178.85 M0.04 0.28 C12.85 -29.98, 64.07 -150.24, 76.87 -180.51" stroke="#000000" stroke-width="1" fill="none"></path></g><g transform="translate(790.9082031249982 262.86557794512373) rotate(0 38.91910825870218 -89.81954334553143)"><path d="M76.75 -150.47 C77.11 -159.76, 76.93 -168.84, 77.29 -181.42 M74.56 -150.15 C75.37 -157.83, 75.73 -166.24, 77.66 -180.28" stroke="#000000" stroke-width="1" fill="none"></path></g><g transform="translate(790.9082031249982 262.86557794512373) rotate(0 38.91910825870218 -89.81954334553143)"><path d="M57.86 -158.49 C63.97 -165.5, 69.51 -172.17, 77.29 -181.42 M55.67 -158.17 C61.46 -163.88, 66.76 -170.18, 77.66 -180.28" stroke="#000000" stroke-width="1" fill="none"></path></g></g><mask></mask><g stroke-linecap="round" transform="translate(877.0129718655335 145.1773541899529) rotate(0 30.92578125 27.623046875)"><path d="M0 0 C0 0, 0 0, 0 0 M0 0 C0 0, 0 0, 0 0 M0.18 7.12 C2 4.12, 3.37 2.81, 4.79 0.84 M0.1 6.06 C1.43 4.94, 2.44 2.82, 5.01 0.38 M1.48 11.49 C2.66 10.32, 5.07 6.56, 11.74 1.12 M0.01 11.73 C4.28 6.94, 6.91 3.17, 11.32 0.24 M0.65 20.28 C3.52 11.85, 12.04 4.98, 15.79 0.94 M0.11 19.25 C4.5 13.31, 10.07 7.3, 15.38 -0.07 M0.66 23.41 C5.39 15.36, 15.53 8.61, 20.72 0.09 M0.04 24.04 C3.77 19.86, 9.34 14.34, 20.85 0.09 M-1.33 31.87 C10.26 19.57, 20.65 7.46, 25.98 1.64 M-0.89 30.62 C7.23 22.22, 15.1 12.55, 25.5 0.86 M-2.14 34.9 C10.35 24.27, 18.22 13.86, 32.58 -0.07 M-1 37.33 C7.83 27.75, 16.76 16.72, 31.98 0.72 M0.14 40.8 C10.45 28.56, 25.72 14.65, 38.45 -0.43 M0.06 41.68 C8.83 32.62, 15.03 25.01, 36.12 0.77 M0.47 47.86 C17.92 28.31, 32.98 11.73, 41.98 0.07 M0.71 48.78 C14.8 31.53, 28.73 14.58, 42.46 -0.21 M1.81 53.82 C11.33 43.72, 19.64 33.63, 49.1 -1.39 M0.36 55.19 C15.76 37.27, 32.28 18.4, 48.43 0.5 M0.75 59.53 C18.5 38.19, 35.5 20.11, 52.83 -1.36 M2.15 58.14 C19.37 38.29, 36.44 20.13, 53.87 0.64 M9.86 55.64 C24.23 38.7, 42.49 17.54, 56.36 0.63 M9.26 56.64 C19.85 42.09, 33.87 29.08, 57.14 1.17 M12.74 57.34 C26.1 40.96, 37.79 26.38, 63.93 -0.53 M13.05 57.69 C23.96 43.69, 36.23 32.25, 64.09 0.15 M20.86 58.99 C34.29 37.55, 52.12 19.84, 61.3 6.23 M19.87 57.37 C31.86 43.56, 45.94 26.38, 63.49 7.94 M21.93 59.81 C40.8 41.83, 52.89 24.02, 62.43 11.95 M24.53 58.04 C33.18 46.99, 44.12 35.64, 61.81 13.51 M27.54 56.59 C42 42.45, 57.06 27.92, 62.73 17.7 M29.92 57.47 C41.26 45.47, 50.52 33.29, 63.46 19.94 M36.18 58.35 C44.21 46.87, 54.52 35.72, 63.99 26.26 M35.06 57.01 C44.44 46.89, 55.83 33.66, 63.73 24.55 M40.8 59.07 C48.71 47.22, 59.16 37.91, 63.27 29.5 M40.74 56.76 C46.79 49.88, 53.34 41.17, 62.77 31.79 M43.89 56.35 C49.84 51.3, 56.1 46.47, 62 37.15 M45.58 57.71 C50.85 49.67, 58.53 44.16, 62.67 36.43 M49.23 56.2 C53.59 54.25, 58.35 49.96, 62.81 44.11 M51.56 56.92 C54.08 53.14, 58.86 47.86, 63.31 44.36 M55.91 58.53 C56.75 56.01, 58.62 53.71, 62.47 48.44 M56.19 57.61 C57.96 55.62, 60.14 53.02, 63.08 49.94" stroke="#228be6" stroke-width="0.5" fill="none"></path><path d="M0.08 1.46 C21.02 0.36, 42.14 -0.03, 60.94 -0.76 M0.4 -0.21 C21.76 0.19, 42.39 1.25, 62.08 -0.4 M62.93 1.93 C60.39 17.28, 62.15 32.67, 61.91 53.76 M62 0.67 C60.73 12.41, 60.55 26.02, 61.43 54.42 M62.8 56.24 C44.82 55.57, 28.22 54.34, 0.76 56.95 M62.82 55.88 C39.43 55.06, 17.46 55.96, 0.3 54.98 M-0.08 53.71 C-2.01 39.27, 0.87 23.8, 0.91 1.16 M0.69 56.18 C0.35 42.65, 0.53 31.8, 0.92 0.59" stroke="#000000" stroke-width="1" fill="none"></path></g><g transform="translate(899.9387531155335 160.3004010649529) rotate(0 8 12.5)"><text x="8" y="18" font-family="Virgil, Segoe UI Emoji" font-size="20px" fill="#000000" text-anchor="middle" style="white-space: pre;" direction="ltr">2</text></g><g stroke-linecap="round"><g transform="translate(791.5422687405335 335.5054791899529) rotate(0 40.184647401245456 -30.630450670793607)"><path d="M0.87 -0.07 C14.15 -10.28, 67.26 -50.92, 80.49 -61.19 M-0.13 -1.16 C12.95 -11.17, 66.51 -49.79, 79.8 -59.69" stroke="#000000" stroke-width="1" fill="none"></path></g><g transform="translate(791.5422687405335 335.5054791899529) rotate(0 40.184647401245456 -30.630450670793607)"><path d="M62.99 -33.95 C69.18 -43.75, 74.63 -54.23, 80.65 -58.4 M63.69 -35.03 C66.81 -39.58, 70.81 -46.42, 79.76 -59.98" stroke="#000000" stroke-width="1" fill="none"></path></g><g transform="translate(791.5422687405335 335.5054791899529) rotate(0 40.184647401245456 -30.630450670793607)"><path d="M50.87 -50.51 C61.58 -54.23, 71.54 -58.53, 80.65 -58.4 M51.56 -51.59 C57.5 -52.37, 64.24 -55.45, 79.76 -59.98" stroke="#000000" stroke-width="1" fill="none"></path></g></g><mask></mask><g stroke-linecap="round"><g transform="translate(792.9338703030335 302.4341901274529) rotate(0 38.366473276652414 -15.263708508647824)"><path d="M-0.07 0.48 C12.97 -4.5, 65.32 -23.99, 78.31 -29.02 M-1.57 -0.31 C11.3 -5.75, 64.25 -26.29, 77.31 -31.01" stroke="#000000" stroke-width="1" fill="none"></path></g><g transform="translate(792.9338703030335 302.4341901274529) rotate(0 38.366473276652414 -15.263708508647824)"><path d="M55.37 -11.6 C61.75 -18.3, 67.49 -22.48, 78.61 -32.48 M54.29 -11.45 C63.12 -18, 69.66 -24.92, 77.02 -30.39" stroke="#000000" stroke-width="1" fill="none"></path></g><g transform="translate(792.9338703030335 302.4341901274529) rotate(0 38.366473276652414 -15.263708508647824)"><path d="M48.12 -30.8 C56.85 -31.65, 64.78 -30, 78.61 -32.48 M47.05 -30.65 C58.3 -30.72, 67.3 -31.11, 77.02 -30.39" stroke="#000000" stroke-width="1" fill="none"></path></g></g><mask></mask><g stroke-linecap="round" transform="translate(876.0039280475985 20.677842471202894) rotate(0 30.92578125 27.623046875)"><path d="M0.45 -1.88 C14.34 1.04, 28.95 -0.64, 61.87 -1.92 M-0.78 -0.65 C13.57 0.28, 27.76 -0.95, 61.14 -0.78 M62.31 0.28 C63.28 14.98, 63.51 34.84, 60.81 57.19 M60.99 -0.55 C61.74 15.37, 62.19 30.29, 61.32 55.88 M63.32 54.48 C38.24 55.28, 15.22 54.83, -1.04 56.1 M62.39 54.77 C46.33 55.96, 29.57 56.03, -0.46 56.01 M1.1 55.77 C1.52 35.61, -0.02 17.14, 0.38 1.64 M0.75 56.01 C-0.04 37.39, 0.68 18.39, -0.13 0.5" stroke="#000000" stroke-width="1" fill="none"></path></g></svg>