<svg version="1.1" xmlns="http://www.w3.org/2000/svg" viewBox="0 0 501.78813039507406 216.7470703125" width="501.78813039507406" height="216.7470703125">
  <!-- svg-source:excalidraw -->
  
  <defs>
    <style class="style-fonts">
      @font-face {
        font-family: "Virgil";
        src: url("https://excalidraw.com/Virgil.woff2");
      }
      @font-face {
        font-family: "Cascadia";
        src: url("https://excalidraw.com/Cascadia.woff2");
      }
    </style>
  </defs>
  <rect x="0" y="0" width="501.78813039507406" height="216.7470703125" fill="#ffffff"></rect><g stroke-linecap="round" transform="translate(82.22103003745985 145.8759765625) rotate(0 30.92578125 27.623046875)"><path d="M0 0 C0 0, 0 0, 0 0 M0 0 C0 0, 0 0, 0 0 M-0.97 6.72 C1.33 4.35, 1.89 3.79, 4.83 0.2 M-0.06 6.04 C1.66 4.02, 3.54 1.91, 4.62 -0.03 M-0.12 12.13 C1.58 9.12, 4.69 5.9, 11.74 -1.12 M-0.64 12.62 C2.96 8.77, 4.74 5.75, 10.07 0.68 M0.23 19.88 C2.48 13.82, 7.96 9.96, 17.24 0.36 M0.73 18.34 C4.58 14.39, 7.97 9.51, 16.37 -0.38 M1.17 24.85 C5.7 16.53, 12.73 7.96, 21.94 0.67 M0.03 23.19 C5.24 18.08, 10.42 13.37, 21.94 -0.65 M0.72 31.04 C10.14 18.56, 20.08 6.84, 25.74 0.62 M0.24 30.51 C6.63 22.79, 14.2 15.34, 25.28 0.92 M0.49 37.74 C9.69 26.12, 19.27 15.67, 30.4 -0.02 M0.69 35.93 C8.41 25.99, 18.51 16.01, 31.95 -0.21 M-1.4 40.91 C8.94 34.77, 14.04 26.01, 37.36 -1.64 M0.54 43.19 C9.6 31.29, 20 19.41, 36.76 -0.49 M-1.44 50.66 C15.65 32.52, 26.89 19.24, 43.97 0.31 M0.31 49.83 C10.83 35.45, 21.73 22.34, 42.53 -0.93 M0.72 53 C14.25 39.65, 24.55 23.23, 49.04 0.49 M0.07 55.39 C15.81 35.97, 31.67 17.27, 48.45 0.44 M2.54 56.04 C14.6 44.07, 26.53 28.68, 52.96 0.74 M2.36 57.81 C19.8 37.63, 38.67 17.09, 52.88 -0.07 M9.48 57.09 C24.16 37.09, 44.45 17.54, 59.38 -0.75 M7.78 56.91 C22.28 41.01, 36.52 24.1, 57.64 -0.36 M12.57 59.82 C30.6 35.6, 48.21 15.42, 62.66 0.42 M13.26 57.85 C31.67 37.04, 51.02 14.5, 62.21 -0.32 M17.84 57.34 C33.23 40.1, 48.43 23.2, 62.81 6.99 M18.16 58.49 C32.22 42.36, 47.43 26.47, 63.37 6.63 M25.32 56.35 C33.85 45.48, 43.52 36.16, 60.88 12.36 M23.95 57.89 C34.95 44.51, 46.5 30.55, 63.21 14.09 M29.1 58.24 C42.04 45.69, 50.38 35.63, 62.64 17.05 M29 57.7 C37.77 46.81, 45.71 36.85, 63.56 19.5 M35.04 56.24 C44.28 46.32, 55.85 33.22, 64.13 24.77 M34.91 57.64 C43.63 48.42, 53.05 37.4, 62.2 24.57 M40.84 56.55 C46.74 48.9, 55.29 41.08, 63.14 32.32 M39.34 56.93 C45.85 49.76, 52.81 42.55, 63.05 31.41 M45.68 59.42 C53.12 50.92, 59.5 42.59, 64.78 38.71 M44.28 57.68 C52.04 50.17, 56.96 42.98, 62.38 38 M50.39 56.45 C56.35 50.84, 59.22 46.42, 61.19 43.12 M50.89 58.3 C55.49 53.14, 59.3 48.25, 63.05 44.33 M55.27 58.52 C58.27 56.38, 60.06 54.04, 63.3 49.67 M55.82 57.57 C58.71 54.2, 61.03 51.35, 62.58 49.94" stroke="#15aabf" stroke-width="0.5" fill="none"></path><path d="M1.94 0.87 C17.6 -0.93, 35.02 0.39, 61.91 -0.09 M-0.16 0.17 C17.02 0.18, 33.07 -0.92, 61.34 -0.25 M60.38 -1.2 C60.96 16.5, 63.43 30.35, 60.49 53.68 M60.87 0.04 C62.25 13.35, 62.14 27.5, 61.75 54.29 M61.33 53.49 C46.21 54.08, 31.56 55.44, -1.55 54.97 M61.63 54.73 C41.66 55.84, 20.37 55.78, -0.38 54.58 M-1.11 57.04 C2.15 33.85, -0.09 13.52, -0.09 -1.28 M0.04 55.56 C-0.03 38.43, 0.4 20.96, -0.32 0.46" stroke="#000000" stroke-width="1" fill="none"></path></g><g stroke-linecap="round" transform="translate(74.55306128745985 10) rotate(0 37.556640625 98.37353515625)"><path d="M0.35 -0.41 C29.34 0.58, 57.68 -0.41, 74.44 -0.91 M0.55 0.22 C23.17 -1, 45.56 -0.38, 74.77 0.22 M74.1 1.84 C75.13 50.24, 72.31 96.84, 74 197.36 M75.34 -0.14 C73.3 67.82, 73.08 133.66, 74.57 196.95 M74.64 196.16 C59.56 196.86, 42.36 195.81, 0.69 196.05 M75.6 197.38 C52.87 196.93, 30.5 195.69, 0.67 195.83 M1.64 195.63 C0.49 118.41, 1.01 41.16, 0.36 -1.53 M-0.45 197.5 C-0.1 119.21, -0.4 40.41, 0.83 -0.06" stroke="#000000" stroke-width="1" fill="none"></path></g><g stroke-linecap="round" transform="translate(81.35418569480464 81.63427734375) rotate(0 30.92578125 27.623046875)"><path d="M0 0 C0 0, 0 0, 0 0 M0 0 C0 0, 0 0, 0 0 M-1.06 6.33 C0.71 4.93, 1.78 4.21, 5.12 -0.32 M-0.57 6.53 C1.33 3.91, 3.07 2.03, 4.93 0.34 M0.43 10.97 C3.41 9.81, 5 4.49, 10.48 -0.95 M-0.17 11.36 C1.9 9, 5.02 6.84, 10.1 0.32 M0.15 18.02 C5.98 14.44, 9.78 5.8, 15.26 1.11 M0.18 19.04 C5.68 12.06, 11.32 4.68, 16.11 0.5 M0.87 22.54 C7.59 16.58, 15.41 6.37, 21.3 -1.12 M-0.03 24.14 C7.1 18.09, 11.52 11.67, 20.58 0.24 M0.06 29.67 C8.94 19.9, 17.86 9.41, 27.43 -1.67 M-0.19 31.38 C8.59 19.73, 17.6 10.9, 26.49 0.41 M0.01 37.39 C11.23 22.84, 21.34 11.56, 30.25 -0.6 M-0.68 37.01 C12.93 22.58, 25.39 6.93, 31.56 0.42 M1.13 41.41 C9.46 33.35, 14.97 22.92, 37.9 0.63 M0.56 42.46 C12.49 28.15, 24.13 14.08, 36.22 -0.04 M-0.94 48.31 C11.04 38.51, 19.86 24.88, 42.53 0.04 M-0.53 48.13 C13.59 32.23, 27.94 15.08, 42.33 0.46 M0.37 53.13 C14.34 38.32, 31.42 20.02, 46.07 0.01 M-0.05 53.7 C12.36 40.66, 26.49 23.94, 47.37 0.76 M3.12 57.27 C17.3 40.67, 33.96 24.64, 52.69 0.14 M2.61 58.71 C16.14 42.07, 30.38 26.93, 53.12 0.56 M7.94 59.36 C26.21 38.47, 43.38 16.16, 58.64 2.16 M8.25 58.1 C20.19 42.58, 33.04 29.39, 57.86 0.07 M11.9 56.18 C25.39 42.5, 39.03 29.39, 63.94 -0.51 M14.02 57.84 C28.34 40, 42.31 24.05, 62.38 0.29 M18.19 57.44 C28.99 45.13, 40.7 33.03, 63.71 5.24 M19.4 58.39 C28.96 46.78, 37.94 34.45, 63.56 7.59 M23.3 57.72 C40.24 39.58, 51.99 24.81, 63.61 12.13 M23.72 57.36 C35.03 45.01, 48.3 30.9, 62.2 12.47 M29.44 57.34 C40.52 46.09, 46.07 34.77, 63.94 20.8 M28.86 56.98 C36.75 48.56, 46.45 39.08, 63.38 18.39 M34.39 59.2 C42.29 48.68, 52.55 37.23, 61.34 23.63 M35.45 57.73 C44.63 46.39, 52.91 36.14, 62.52 24.42 M39.91 57.71 C48.38 48.74, 56.9 39.32, 64.55 30.32 M39.53 57.87 C44.58 51.69, 50.67 46.58, 63.38 31.42 M45.57 59.63 C50.09 52.92, 57.83 45.53, 64.27 36.84 M44.78 57.04 C48.68 52.86, 53.3 49.73, 62.3 37.7 M49.32 56.96 C53.3 52.15, 56.71 50.56, 61.03 43.06 M51.12 57.73 C54.4 53.56, 58.5 48.19, 62.23 43.35 M56.2 58.82 C57.47 55.91, 59.59 54.46, 62.18 49.5 M55.43 57.38 C58.02 54.8, 60.71 52.31, 62.46 49.63" stroke="#15aabf" stroke-width="0.5" fill="none"></path><path d="M-0.41 0.53 C25.46 -0.05, 49.02 -0.78, 60.94 0.13 M0.22 0.13 C16.71 -0.86, 34.92 -0.69, 62.07 -0.5 M63.69 1.46 C62.55 11.15, 59.95 23.91, 62.46 56.09 M61.71 0.12 C62.39 11.05, 60.92 21.77, 62.05 54.32 M61.26 55.29 C45.69 53.54, 27.71 55.78, -0.7 55.13 M62.48 55.11 C45.22 55.16, 26.77 56.22, -0.92 56.17 M-1.12 54.65 C-1.67 41.66, -1.77 28.61, -1.53 1.97 M0.75 55.22 C0.69 38.14, 0.28 22.5, -0.06 -0.88" stroke="#000000" stroke-width="1" fill="none"></path></g><g transform="translate(90.27996694480464 96.75732421875) rotate(0 22 12.5)"><text x="22" y="18" font-family="Virgil, Segoe UI Emoji" font-size="20px" fill="#000000" text-anchor="middle" style="white-space: pre;" direction="ltr">true</text></g><g stroke-linecap="round" transform="translate(81.58367788230464 17.54736328125) rotate(0 30.92578125 27.623046875)"><path d="M-0.09 -0.68 C19.28 0.12, 40.07 0.31, 62.96 0.43 M-0.25 -0.35 C19.59 -0.18, 38 -0.28, 61.35 0.92 M60.28 -1.12 C62.75 21.45, 60.18 41.3, 62.31 54.97 M60.9 -0.55 C62.34 16.3, 61.87 33.57, 61.61 54.95 M61.57 55.93 C42.46 54.65, 24.04 53.73, 0.97 56.51 M61.18 55.92 C43.19 55.93, 25.81 55.9, 0.82 54.69 M-1.28 55.61 C-1.21 42.3, 0.4 26.04, -0.91 1.51 M0.46 56.08 C-0.54 37.93, -0.86 21.81, -0.99 -0.48" stroke="#000000" stroke-width="1" fill="none"></path></g><g stroke-linecap="round"><g transform="translate(11.537020642170773 42.42138671875) rotate(0 28.640294155758568 -0.0014699575210670446)"><path d="M-0.05 -0.41 C9.66 -0.4, 48.95 -0.02, 58.82 0.08 M-1.54 -1.66 C7.92 -1.45, 47.61 1.11, 57.58 1.66" stroke="#000000" stroke-width="1" fill="none"></path></g><g transform="translate(11.537020642170773 42.42138671875) rotate(0 28.640294155758568 -0.0014699575210670446)"><path d="M28.46 9.22 C39.1 6.9, 49.12 5.4, 58.02 1.92 M28.79 10.35 C34.72 7.67, 40.65 6.1, 58.5 2.39" stroke="#000000" stroke-width="1" fill="none"></path></g><g transform="translate(11.537020642170773 42.42138671875) rotate(0 28.640294155758568 -0.0014699575210670446)"><path d="M29.67 -11.05 C39.89 -6.36, 49.5 -0.87, 58.02 1.92 M30 -9.92 C35.57 -8.3, 41.25 -5.57, 58.5 2.39" stroke="#000000" stroke-width="1" fill="none"></path></g></g><mask></mask><g stroke-linecap="round"><g transform="translate(114.7188388239889 173.27388139204504) rotate(0 34.60484712291509 0.525329452008009)"><path d="M-1.06 1.83 C18.46 1.48, 38.07 2.23, 70.2 -0.78 M-0.3 0.89 C27.5 0.34, 55.6 -0.56, 70.27 0.22" stroke="#000000" stroke-width="1" fill="none"></path></g><g transform="translate(114.7188388239889 173.27388139204504) rotate(0 34.60484712291509 0.525329452008009)"><path d="M40.83 11.79 C48.35 8.48, 56.05 6.46, 70.2 -0.56 M41.6 10.85 C52.84 6.72, 64.44 1.98, 70.26 0.44" stroke="#000000" stroke-width="1" fill="none"></path></g><g transform="translate(114.7188388239889 173.27388139204504) rotate(0 34.60484712291509 0.525329452008009)"><path d="M41.21 -8.73 C48.82 -6.21, 56.41 -2.4, 70.2 -0.56 M41.98 -9.67 C53.19 -5.72, 64.64 -2.38, 70.26 0.44" stroke="#000000" stroke-width="1" fill="none"></path></g></g><mask></mask><g transform="translate(193.5221058694434 161.51109730113603) rotate(0 33 12.5)"><text x="0" y="18" font-family="Virgil, Segoe UI Emoji" font-size="20px" fill="#000000" text-anchor="start" style="white-space: pre;" direction="ltr">Object</text></g><g stroke-linecap="round" transform="translate(344.48705456309085 145.8759765625) rotate(0 30.92578125 27.623046875)"><path d="M0 0 C0 0, 0 0, 0 0 M0 0 C0 0, 0 0, 0 0 M0.33 5.98 C1.22 5.21, 2.72 2.34, 5.63 1.14 M-0.65 6.39 C1.89 4.27, 3.94 1.62, 5.13 0.45 M1.08 12.33 C3.17 8.26, 4.95 5.91, 11.43 -0.37 M0.7 12.22 C4.63 8.12, 8.19 2.85, 10.65 -0.1 M-2.12 20.1 C5.73 12.13, 13.64 6.27, 14.03 0.36 M-0.26 18.33 C4.9 12.74, 9.43 7.36, 15.3 -0.35 M0.9 25.18 C5.95 16.83, 14.97 7.17, 21.97 -0.03 M0.95 24 C9.47 14.25, 16.75 5.49, 20.93 -0.69 M-1.04 31.32 C7.44 22.22, 14.24 13.79, 28.08 0.68 M0.74 30.26 C6.9 22.85, 16.12 12.53, 26.08 0.73 M-1.31 35.06 C10.53 24.53, 22.09 9.17, 33.63 0.99 M0.33 37.74 C10.92 25.38, 20.72 13.42, 30.92 -0.36 M1.73 43.1 C13.51 27.1, 27.95 9.79, 38.11 0.75 M-0.51 42.42 C13.49 28.88, 25.81 14.32, 37.61 1.09 M1.6 49.77 C10.94 34.38, 25.84 18.38, 43.35 -1.74 M0.1 49.37 C14.45 32.43, 30.19 15.76, 43.11 0.84 M-0.83 54.82 C11.93 42.92, 18.68 29.12, 47.19 -0.61 M0.35 54.88 C18.94 34.45, 35.95 13.01, 47.47 0.86 M2.92 57.6 C14.77 47.39, 23.61 34.67, 51.53 -1.27 M1.66 58.89 C19.06 39.29, 36.86 20.13, 52.65 0.71 M7.8 56.14 C27.11 35.61, 43.63 14.3, 60.06 0.69 M8.23 58.5 C27.4 36.31, 45.16 15.54, 58.87 1.01 M12.89 56.36 C32.83 35.96, 49.25 17.8, 61.61 1.41 M13.37 57.35 C24.12 43.89, 35.78 31.2, 62.7 -0.37 M18.73 59.1 C32.44 41.53, 46.63 23.29, 61.25 8.88 M19.55 57.08 C29.24 45.75, 37.77 33.58, 62.8 6.14 M22.34 56.29 C36.7 45.64, 46.54 29.07, 63.52 15.22 M24.11 57.75 C36 44.38, 46.33 32.09, 61.87 12.41 M29.35 56.05 C39.84 44.82, 53.42 28.84, 64.22 17.18 M30.03 57.26 C38.29 46.61, 46.46 37.47, 63.11 19.4 M35.63 55.87 C44.39 47.75, 53.56 37.96, 63.89 24.21 M34.3 56.86 C40.98 50.26, 47.72 42.55, 62.44 25.55 M39.39 55.64 C49.12 48.65, 53.37 41.75, 63.35 32.35 M40.66 56.49 C49.25 47.84, 57.33 37.42, 62.59 31 M46.83 58.89 C49.87 53.85, 52.03 49.28, 61.22 37.34 M46 58.3 C49.61 52.84, 54.88 46.16, 63.51 36.98 M52.1 57.78 C56.01 50.65, 59.36 46.27, 61.6 44.44 M51.06 57.99 C53.82 55.47, 56.5 51.81, 62.45 44.02 M55.73 58.16 C58.5 56.13, 60 54.44, 62.64 49.83 M55.32 58.2 C58.53 54.82, 60.93 51.73, 63.29 49.6" stroke="#15aabf" stroke-width="0.5" fill="none"></path><path d="M0.98 -0.43 C18.38 -1.28, 32.1 0.26, 59.91 -0.89 M-0.64 -0.76 C19.2 -0.39, 39.13 -0.02, 62.13 -0.82 M60.88 -0.81 C62.78 11.27, 61 24.39, 60.63 56.5 M61.78 0.4 C61.41 13.4, 62.02 26.36, 62.71 54.36 M62.61 56.79 C46.75 54.68, 35.72 55.58, 1.18 53.72 M61.55 54.43 C42.42 55.73, 23.05 54.56, -0.82 54.41 M-0.2 55.19 C-0.39 37.69, -0.13 21.66, -0.27 1.98 M-0.81 54.91 C0.23 35.24, -1.22 14.75, -0.38 0.68" stroke="#000000" stroke-width="1" fill="none"></path></g><g stroke-linecap="round" transform="translate(336.81908581309085 77.28693181818198) rotate(0 37.556640625 64.73006924715901)"><path d="M1.51 -1.77 C14.87 -0.07, 31.08 -0.73, 75.52 0.06 M-0.61 -0.04 C26.26 0.9, 53.78 -0.25, 74.27 -0.16 M76.13 -0.63 C73.71 41.56, 73.26 83.19, 74.05 131.2 M74.19 -0.23 C74.71 36.52, 75.88 73.97, 74.28 129.01 M73.42 128.71 C51.01 130.19, 26.76 128.52, 0.23 129.06 M74.93 129.99 C52.88 128.21, 30.42 128.01, 0.12 130.27 M0.06 129.14 C0.45 90.59, -0.14 51.95, 1.42 1.7 M0.7 129.95 C0.3 97.49, 0.67 65.25, -0.85 -0.04" stroke="#000000" stroke-width="1" fill="none"></path></g><g stroke-linecap="round" transform="translate(343.8497024079354 83.22207919034099) rotate(0 30.92578125 27.623046875)"><path d="M-0.23 -1.94 C22.33 0.91, 46.51 1.63, 60.56 -1.52 M0.33 0.28 C13.96 -0.54, 29.41 0.47, 61.37 -0.4 M62.45 -1.22 C62.93 18.32, 63.41 38.56, 61.7 56.05 M60.94 0.86 C60.84 10.66, 61.28 23.29, 62.23 56.02 M62 56.43 C47.02 55.68, 34.82 55.29, -0.61 53.62 M61.22 54.43 C43.57 55.18, 27.77 55.13, -0.1 55.22 M0.88 54.98 C2.07 39.91, 1.79 20.76, -1.62 -0.67 M0.48 54.87 C0.41 33.98, -0.31 13.84, 0.32 0.02" stroke="#000000" stroke-width="1" fill="none"></path></g><g stroke-linecap="round"><g transform="translate(376.9848633496197 173.27388139204413) rotate(0 34.94633622933179 -0.012859617492267716)"><path d="M-0.89 0.41 C15.4 1.8, 29.39 -0.84, 69.05 -0.09 M-0.82 -0.85 C17.46 -0.03, 34.75 -0.6, 70.78 -0.31" stroke="#000000" stroke-width="1" fill="none"></path></g><g transform="translate(376.9848633496197 173.27388139204413) rotate(0 34.94633622933179 -0.012859617492267716)"><path d="M41.67 10.27 C48.8 9.04, 53.6 4.17, 69.56 -0.4 M41.74 9.01 C49.45 7.4, 56.19 4.28, 71.29 -0.63" stroke="#000000" stroke-width="1" fill="none"></path></g><g transform="translate(376.9848633496197 173.27388139204413) rotate(0 34.94633622933179 -0.012859617492267716)"><path d="M41.73 -10.26 C48.82 -7.01, 53.62 -7.39, 69.56 -0.4 M41.8 -11.51 C49.56 -7.98, 56.29 -5.95, 71.29 -0.63" stroke="#000000" stroke-width="1" fill="none"></path></g></g><mask></mask><g transform="translate(455.7881303950742 161.51109730113603) rotate(0 18 12.5)"><text x="0" y="18" font-family="Virgil, Segoe UI Emoji" font-size="20px" fill="#000000" text-anchor="start" style="white-space: pre;" direction="ltr">Foo</text></g><g stroke-linecap="round"><g transform="translate(278.69611155126165 111.49831321022702) rotate(0 26.85775333448231 0.3397022220731287)"><path d="M0.17 -0.83 C16.67 0.63, 36.77 2.42, 54.08 0.25 M-0.37 -0.44 C12.85 -0.2, 27.48 -0.12, 52.97 1.51" stroke="#000000" stroke-width="1" fill="none"></path></g><g transform="translate(278.69611155126165 111.49831321022702) rotate(0 26.85775333448231 0.3397022220731287)"><path d="M28.2 8.26 C35.47 6.75, 46.27 5.7, 54.92 1.02 M27.66 8.65 C33.9 6.74, 41.6 4.69, 53.8 2.28" stroke="#000000" stroke-width="1" fill="none"></path></g><g transform="translate(278.69611155126165 111.49831321022702) rotate(0 26.85775333448231 0.3397022220731287)"><path d="M29.16 -9.54 C35.95 -4.97, 46.42 0.07, 54.92 1.02 M28.62 -9.15 C34.68 -6.52, 42.13 -4.03, 53.8 2.28" stroke="#000000" stroke-width="1" fill="none"></path></g></g><mask></mask></svg>