<svg version="1.1" xmlns="http://www.w3.org/2000/svg" viewBox="0 0 579.1816842201988 357.6730976878598" width="579.1816842201988" height="357.6730976878598">
  <!-- svg-source:excalidraw -->
  
  <defs>
    <style class="style-fonts">
      @font-face {
        font-family: "Virgil";
        src: url("https://excalidraw.com/Virgil.woff2");
      }
      @font-face {
        font-family: "Cascadia";
        src: url("https://excalidraw.com/Cascadia.woff2");
      }
    </style>
  </defs>
  <rect x="0" y="0" width="579.1816842201988" height="357.6730976878598" fill="#ffffff"></rect><g stroke-linecap="round" transform="translate(302.71652010922844 280.2936286110107) rotate(0 30.92578125 27.623046875)"><path d="M0 0 C0 0, 0 0, 0 0 M0 0 C0 0, 0 0, 0 0 M-0.66 6.05 C1.58 4.84, 2.18 4.03, 5.65 0.93 M-0.56 6.5 C1.6 4.82, 3.04 2.96, 5.3 0.72 M-1.04 10.6 C4.89 5.86, 7.54 2.03, 10.41 1.54 M0.79 11.68 C3.24 7.72, 7.34 2.43, 11.21 -0.56 M1.7 18.63 C2.59 14.52, 10.46 9.32, 13.92 2.1 M0.79 18.93 C5.24 13.34, 10.47 6.9, 15.49 1.21 M0.53 25.39 C5.25 20.45, 10.29 12.06, 20.92 1.74 M0.39 23.53 C8.35 15.17, 17.36 5.94, 21.95 -0.16 M-1.43 32.25 C11.16 17.45, 20.3 8.15, 26.76 -0.73 M-0.68 30.02 C7.06 22.52, 14.59 14.73, 27.17 0.36 M1.17 37.12 C12.63 24.27, 22.76 11.18, 32.45 -1.5 M-0.41 36.8 C10.98 23.68, 23.04 10.42, 32.69 0.48 M-1.8 40.84 C12.94 27.7, 27.98 10.35, 37.97 1.08 M0.98 42.57 C8.32 33.09, 16.78 23.75, 36.11 -0.21 M0.6 47.82 C14.36 34.14, 28.43 15.62, 44.06 0.91 M-0.78 49.91 C14.07 31.32, 29.34 14.8, 41.58 -0.01 M1.61 53.22 C17.6 38.34, 32.55 17.59, 45.52 0.61 M-0.17 54.27 C13.53 38.89, 28.5 23.27, 46.76 0.21 M4.63 56.43 C16.77 42.11, 30.05 22.18, 53.06 -2.03 M1.75 58.24 C17.58 40.57, 32.54 24.78, 53.3 -0.76 M7.85 57.48 C25.02 37.7, 43.98 17.22, 58.55 -1.68 M8.5 57.87 C21.38 42.69, 33.09 28.05, 57.77 0.87 M13.51 57.51 C29.78 40.12, 43.7 22, 64.24 1.8 M13.16 57.95 C27.51 40.22, 43.73 24.72, 63.53 0.89 M19 59.15 C28.94 44.7, 38.97 36.51, 61.42 6.78 M18.13 58.26 C34.6 40.57, 49.75 23.42, 63.04 7.41 M23.52 58 C35.95 46.6, 46.44 33.93, 63.38 11.46 M23.43 57.87 C35.37 42.91, 48.11 29.09, 63.47 14.28 M29.92 57.07 C37.27 49.02, 44.57 37.41, 64.89 17.62 M29.18 57.41 C39.22 47.28, 48.53 34.96, 63.86 19.74 M33.98 59.18 C43.02 49.36, 48.45 39.75, 61.39 24.14 M34.6 58.37 C41.19 49.13, 48.98 42.18, 62.94 25.67 M38.25 57.44 C46.71 48.12, 55.22 38.22, 64.14 32.04 M40.42 57.35 C49.07 46.93, 57.07 38.06, 63.97 31.59 M45.35 59.65 C53.63 48.7, 57.03 40.85, 63.54 39.01 M45.89 57.38 C50.63 51.88, 56.55 46.81, 62.67 36.98 M51.69 58.63 C53.22 52.95, 56.7 50.29, 64.11 44.51 M51.21 58.1 C54.65 53.29, 58.33 48.71, 62.1 43.33 M56.6 57.53 C58.97 55.53, 61.44 52.65, 63.5 49.11 M56.28 57.58 C58.39 54.67, 60.35 51.76, 63.37 50" stroke="#15aabf" stroke-width="0.5" fill="none"></path><path d="M-1.52 -0.78 C24.54 -0.79, 47.08 -2.34, 62.37 0.53 M0.37 -0.62 C19.33 -0.24, 38.51 -0.6, 62.62 0.67 M62.28 0.47 C62.34 20.52, 60.39 41.18, 61.43 54.29 M62.77 -0.92 C61.5 13.06, 62.2 26.67, 61.01 55.14 M62.29 53.93 C45.45 56.12, 29.22 55.83, 0.9 55.39 M61.72 54.36 C42.86 55.56, 21.2 55.78, 0.59 55.04 M-0.61 55.74 C0.07 34.36, -1.41 13.02, 0.92 1.54 M0.6 55.52 C0.05 34.08, 0.24 11.85, 0.52 -0.46" stroke="#000000" stroke-width="1" fill="none"></path></g><g transform="translate(312.64230135922844 295.4166754860071) rotate(0 21 12.5)"><text x="21" y="18" font-family="Virgil, Segoe UI Emoji" font-size="20px" fill="#000000" text-anchor="middle" style="white-space: pre;" direction="ltr">main</text></g><g stroke-linecap="round" transform="translate(295.4576075744026 10) rotate(0 37.890625 166.5498586329486)"><path d="M0.58 -0.23 C28.77 -1.49, 59.74 0.82, 76.09 0.24 M-0.19 -0.16 C23.15 -0.05, 48.14 1.14, 76.5 -0.48 M76.3 -0.02 C75.46 100.56, 75.98 200.38, 75.1 331.82 M75.9 -0.5 C78.44 75.72, 77.28 152.64, 75.44 332.88 M74.8 334.14 C53.28 333.35, 35.25 332.74, 0.46 335.07 M76.76 332.97 C46.9 332.51, 20.03 332.22, 0.67 332.43 M-0.2 332.69 C-0.52 249.58, 1.31 169.34, 1.23 0.73 M0.23 333.38 C-1 205.79, -1.01 78.52, 0.23 0.11" stroke="#000000" stroke-width="1" fill="none"></path></g><g stroke-linecap="round" transform="translate(301.5771644391516 213.34625092146052) rotate(0 30.92578125 27.623046875)"><path d="M0 0 C0 0, 0 0, 0 0 M0 0 C0 0, 0 0, 0 0 M-0.35 6.34 C1.64 5.51, 2.96 3.26, 4.21 -0.04 M-0.11 6.59 C0.95 5.31, 2.45 3.97, 4.95 0.46 M-1.39 11.39 C1.89 9.03, 6.57 7.76, 11.96 0.89 M0.43 11.42 C3.76 8.11, 7.67 2.78, 10.57 -0.21 M1.02 20.15 C7.05 9.78, 13.96 4.88, 14.5 2.01 M0.78 18.73 C6.29 11.19, 13 3.27, 16.48 1.03 M1.73 25.73 C4.68 16.09, 15.06 10.84, 20.06 -1.95 M0.78 24.3 C7.87 17.3, 13.44 9.98, 22.09 0.24 M-1.12 30.46 C7.12 23.96, 10.69 16.04, 26 0.07 M0.29 30.65 C6.97 24.46, 12.35 17.29, 26.31 -0.29 M0.75 35.91 C13.36 23.55, 22.18 10.47, 31.7 0.28 M-0.07 36.98 C9.19 27.26, 18.68 16.86, 32.09 -0.44 M1.83 41.52 C8.94 35.33, 16.22 24.25, 38.05 0.84 M0.51 42.56 C14.95 25.52, 27.88 10.38, 37.48 -0.06 M1.27 49.43 C13.65 33.83, 29.87 16.69, 43.16 0.41 M-0.7 49.16 C9.16 36.65, 19.47 26.38, 42.08 0.22 M1.94 55.79 C16.6 32.24, 35.69 14.05, 45.52 -1.25 M-0.09 55.04 C12.21 40.31, 24.63 27.03, 48.17 1.21 M4.23 56.32 C21.87 34.65, 41.62 11.3, 51.73 -0.78 M1.97 58.13 C13.56 45.82, 23.29 33.8, 53.15 0.41 M8.5 58.87 C21.71 42.08, 34.22 24.8, 59.63 1.39 M8.38 57.3 C24.28 38.32, 40.88 20.49, 58.63 0.18 M14.23 56.02 C30.55 40.98, 45.79 21.82, 61.39 0.37 M12.38 58.57 C28.15 42.16, 42.45 24.38, 62.31 -0.25 M17.01 57.59 C33.05 40.7, 45.12 27.64, 64.02 6.32 M19.3 58.29 C28.99 46.11, 38.51 34.54, 62.31 6.46 M25.06 58.22 C35.88 45.95, 43.77 32.86, 64.27 14.26 M22.95 58.4 C32.76 47.54, 44.43 34.89, 62.97 14.11 M30.95 55.93 C39.72 47.17, 49.61 32.56, 61.91 19.92 M30.21 57.63 C37.49 48.1, 48.02 36.78, 63.93 18.54 M34.76 56.69 C41.47 47.48, 48.45 39.04, 60.84 25.31 M34.02 57.7 C43.79 48.29, 51.99 38.44, 62.11 25.84 M39.77 56.99 C43.39 53.21, 50.55 48.48, 62.12 31.98 M39.9 56.59 C48.65 49.71, 55.68 41, 62.56 31.29 M43.68 56.38 C48.71 52.01, 57.53 44.85, 61.12 35.65 M45.02 58.7 C52.59 49.96, 58.04 42.54, 62.49 36.59 M50.31 56.18 C55.76 54.24, 59.65 47.95, 64.39 43.51 M50.7 58.04 C54.15 52.14, 58.37 48.2, 62.18 42.92 M56.2 58.65 C58.76 55.11, 60.84 52.1, 63.06 49.12 M55.6 57.23 C58.48 54.89, 61.99 51.76, 62.5 49.71" stroke="#228be6" stroke-width="0.5" fill="none"></path><path d="M-0.23 -0.84 C12.07 0.34, 28.22 0.13, 62.09 0.25 M-0.16 -0.53 C20.34 0.89, 42.38 0.84, 61.37 0.02 M61.82 -1.19 C62.06 17.34, 61.03 34.5, 59.97 53.83 M61.11 0.87 C60.4 20.8, 61.23 42.78, 61.53 54.98 M62.89 53.45 C42.69 55.84, 22.16 55.4, 1.97 56.68 M61.72 54.54 C44.23 56.44, 26.22 56.52, -0.66 54.72 M-0.6 53.46 C-1.79 41.28, 1.41 27.28, 1.08 1.63 M0.41 55.79 C-0.41 35.86, -0.61 15.76, 0.16 -0.08" stroke="#000000" stroke-width="1" fill="none"></path></g><g transform="translate(315.0029456891516 228.46929779646052) rotate(0 17.5 12.5)"><text x="17.5" y="18" font-family="Virgil, Segoe UI Emoji" font-size="20px" fill="#000000" text-anchor="middle" style="white-space: pre;" direction="ltr">100</text></g><g stroke-linecap="round" transform="translate(302.04463370145095 146.85000125556508) rotate(0 30.92578125 27.623046875)"><path d="M0 0 C0 0, 0 0, 0 0 M0 0 C0 0, 0 0, 0 0 M0.3 7.06 C2.29 4.05, 2.92 1.46, 4.39 0.56 M-0.22 6.71 C2.01 4.47, 3.56 2.01, 4.69 0 M-0.6 11.82 C5.44 9.16, 8.82 4.67, 11.94 -0.76 M-0.3 12.62 C1.72 9.49, 4.34 6.98, 11.36 0.04 M0.91 16.74 C4.9 14.92, 5.38 12.25, 17.45 1.31 M0.21 18.31 C5.56 11.72, 10.51 7.67, 15.75 0.98 M-1.73 23.74 C9.14 17.54, 13.37 5.36, 21.52 -1.16 M1.17 24.77 C5.46 18.73, 11.78 11.91, 20.54 0.81 M1.41 30.99 C8.5 19.21, 18.62 8.76, 24.87 -0.62 M0.76 31.4 C7.42 22.62, 14.84 12.75, 26.96 0.41 M1.47 37.43 C9.27 25.46, 21.58 11.86, 31.59 -0.26 M0 37.67 C8.67 28.11, 16.7 17.16, 30.92 -0.94 M1.13 43.61 C8.74 31.94, 17.22 24.58, 38.56 0.35 M0.86 41.75 C10.54 30.15, 22.63 16.83, 37.24 -0.29 M-0.96 50.46 C14.66 33.5, 28.33 16.97, 41.2 1.85 M-0.33 47.98 C11.65 36.01, 22.45 23.03, 43.19 -0.81 M-1.09 52.58 C18.36 33.16, 34.13 11.05, 46.63 -0.36 M-0.06 53.82 C10.42 42.78, 21.06 32.4, 48.51 -0.53 M1.23 57.85 C14.97 41.28, 30.07 24, 51.39 0.43 M3.02 58.09 C16.98 41.55, 32.12 24.95, 52.94 -0.2 M7.79 57.96 C20.18 40.42, 37.37 26.6, 58.58 0.83 M8.41 57.18 C27.75 36.25, 46.42 14.29, 58.26 -0.01 M14.86 59.02 C30.46 39.6, 43.68 20.89, 62.91 0.63 M13.74 58.31 C24.56 44.78, 33.86 32.73, 63.17 1.37 M20.07 56.07 C32.05 43.65, 46.2 27.36, 61.3 8.44 M19.61 57.69 C35.91 37.75, 51.64 18.17, 62.68 7.01 M25.02 58.65 C34.98 42.79, 51.77 28.27, 61.67 13.34 M22.96 58.74 C36.15 44.63, 46.48 33.35, 62.79 13.14 M28.96 59.37 C37.13 46.7, 46.62 37.45, 62.29 18.86 M28.61 58.34 C40.59 45.01, 51.32 32.69, 62.72 19.66 M33.99 56.49 C43.27 45.53, 52.65 34.85, 62.88 26.45 M35.29 58.05 C41.22 51.03, 46.56 43.96, 61.78 25.38 M38.7 58.46 C46.63 52.95, 50.02 46.02, 63.63 30.85 M41.16 58.28 C47.59 50.55, 53.25 42.28, 63.23 31.95 M43.41 58.48 C53.77 49.84, 57.32 40.33, 64.34 36.59 M45.88 57.6 C50.3 51.24, 55.92 44.02, 63.36 38.1 M51.72 58.91 C54.3 54.26, 58.17 50.79, 63.43 45.21 M50.17 56.9 C54.48 52.79, 58.71 46.85, 63.27 43.63 M56.04 58.27 C58.07 55.22, 61.17 51.21, 64 49.09 M55.63 58.14 C58.59 55.74, 59.8 52.92, 63.29 49.62" stroke="#4c6ef5" stroke-width="0.5" fill="none"></path><path d="M-1.78 0.51 C20.88 0.57, 40.93 0.51, 62.6 -1.24 M-0.52 0.77 C18.05 1.05, 34.28 0.35, 62.07 0.24 M61.92 -0.42 C60.89 17.67, 59.96 35.94, 63.69 53.4 M60.91 -0.84 C61.33 17.02, 61.12 34.79, 62.07 54.59 M62.6 56.14 C46.47 55.15, 32.76 56.13, -0.27 53.47 M61.94 55.84 C37.03 55.48, 11.95 54.28, -0.31 55.49 M-1.65 56.16 C1.71 41.31, 1.24 25.39, 1.21 0.55 M-0.26 55.77 C-0.68 37.1, -0.07 18.19, 0.36 -0.8" stroke="#000000" stroke-width="1" fill="none"></path></g><g transform="translate(318.97041495145095 161.97304813056508) rotate(0 14 12.5)"><text x="14" y="18" font-family="Virgil, Segoe UI Emoji" font-size="20px" fill="#000000" text-anchor="middle" style="white-space: pre;" direction="ltr">1.8</text></g><g stroke-linecap="round"><g transform="translate(356.3865075897629 238.96083657497184) rotate(0 26.24725339151837 0.5282665785862264)"><path d="M0.31 0.32 C9.31 0.49, 44.63 -0.01, 53.48 -0.01 M-0.99 -0.56 C7.91 -0.07, 43.68 1.81, 52.63 1.6" stroke="#000000" stroke-width="1" fill="none"></path></g><g transform="translate(356.3865075897629 238.96083657497184) rotate(0 26.24725339151837 0.5282665785862264)"><path d="M27.94 10.52 C34.23 8.17, 41.24 4.46, 52.25 1.28 M28.08 10.92 C33.19 7.9, 40.11 6, 53.01 1.58" stroke="#000000" stroke-width="1" fill="none"></path></g><g transform="translate(356.3865075897629 238.96083657497184) rotate(0 26.24725339151837 0.5282665785862264)"><path d="M28.31 -7.71 C34.34 -5.35, 41.26 -4.37, 52.25 1.28 M28.45 -7.3 C33.37 -5.82, 40.2 -3.23, 53.01 1.58" stroke="#000000" stroke-width="1" fill="none"></path></g></g><g transform="translate(418.1816842201988 226.58532706410006) rotate(0 75.5 12.5)"><text x="0" y="18" font-family="Virgil, Segoe UI Emoji" font-size="20px" fill="#000000" text-anchor="start" style="white-space: pre;" direction="ltr">value argument</text></g><g stroke-linecap="round"><g transform="translate(353.1383757962849 176.30373739018796) rotate(0 27.108662151463705 -0.3029151186524359)"><path d="M0.19 0.14 C9.37 0.21, 46.34 0.73, 55.39 0.71 M-1.17 -0.83 C7.84 -1.16, 44.83 -1.52, 54.52 -1.18" stroke="#000000" stroke-width="1" fill="none"></path></g><g transform="translate(353.1383757962849 176.30373739018796) rotate(0 27.108662151463705 -0.3029151186524359)"><path d="M28.72 8.27 C37.68 3.74, 45.04 1.66, 53.45 -2.22 M27.99 8.04 C38.45 4.6, 48.44 0.88, 53.93 -1.14" stroke="#000000" stroke-width="1" fill="none"></path></g><g transform="translate(353.1383757962849 176.30373739018796) rotate(0 27.108662151463705 -0.3029151186524359)"><path d="M28.9 -10.62 C37.85 -9, 45.15 -4.92, 53.45 -2.22 M28.17 -10.85 C38.69 -7.16, 48.61 -3.76, 53.93 -1.14" stroke="#000000" stroke-width="1" fill="none"></path></g></g><g transform="translate(418.32179970932884 165.9917469010561) rotate(0 60.5 12.5)"><text x="0" y="18" font-family="Virgil, Segoe UI Emoji" font-size="20px" fill="#000000" text-anchor="start" style="white-space: pre;" direction="ltr">factor local</text></g><g stroke-linecap="round" transform="translate(18.430366847826008 303.00343056829115) rotate(0 99 17.5)"><path d="M-0.38 -0.32 C60.82 0.19, 125.31 2.56, 199.44 -0.97 M0.38 -0.02 C59.15 -0.43, 119.28 -0.95, 197.5 -0.94 M198.35 -1.48 C200.05 6.14, 196.64 15.83, 196.99 34.36 M197.51 0.52 C197.18 9.94, 198.53 19.21, 198.23 35.99 M199.96 34.75 C122.98 33.41, 51.97 32.83, 1.34 33.67 M197.85 34.7 C148.13 34.66, 100.5 36.26, 0.9 35.54 M0.69 35.81 C0.87 21.12, 0.83 7.37, 0.69 0.31 M-0.3 34.3 C-0.3 25.49, 0.74 14.94, 0.74 -0.1" stroke="#000000" stroke-width="1" fill="none"></path></g><g transform="translate(85.43036684782601 308.00343056829115) rotate(0 32 12.5)"><text x="32" y="18" font-family="Virgil, Segoe UI Emoji" font-size="20px" fill="#000000" text-anchor="middle" style="white-space: pre;" direction="ltr">&lt;main&gt;</text></g><g stroke-linecap="round" transform="translate(10 256.6791496748865) rotate(0 105.96127717391312 45.49697400648665)"><path d="M-0.94 -0.92 C51.77 1.48, 102.09 -0.55, 211.95 0.38 M-0.52 0.03 C68.43 -0.39, 136.78 -0.79, 211.3 0.81 M213.66 -1.88 C210.4 18.7, 211.07 37.2, 211.39 91.43 M211.03 0.38 C211.93 21.37, 211.71 43.58, 212.64 90.86 M210.68 91.15 C168.26 90.4, 123.69 89.59, -0.93 90.46 M211.14 90.27 C143.54 91.12, 75.15 90.91, 0.72 91.53 M1.08 90.48 C0.73 60.28, 0.37 31.72, -0.16 0.72 M-0.17 91.7 C1.15 71.38, 1.02 50.93, -0.49 0.73" stroke="#000000" stroke-width="1" fill="none"></path></g><g stroke-linecap="round" transform="translate(18.060971467391028 262.5461445628589) rotate(0 99 17.5)"><path d="M-1.04 1.54 C56.97 2.5, 110.31 1.09, 198.43 0.47 M0.04 -0.21 C66.46 0.68, 132.93 0.47, 198.92 -0.92 M196.12 -1.68 C197.52 10.09, 197.1 21.68, 198.44 33.68 M198.38 0.45 C198.25 9.02, 199.17 18.29, 197.86 34.11 M198.18 36.18 C118.78 34.94, 39.05 32.54, -0.61 35.49 M197.17 35.46 C142.35 34.14, 85.69 34.05, 0.6 35.27 M-0.52 36.05 C-1.06 23.97, 0.17 11.41, 0.72 -1.61 M0.71 35.87 C0.61 26.3, 0.15 15.63, 0.73 0.73" stroke="#000000" stroke-width="1" fill="none"></path></g><g transform="translate(28.060971467391028 267.5461445628589) rotate(0 89 12.5)"><text x="89" y="18" font-family="Virgil, Segoe UI Emoji" font-size="20px" fill="#000000" text-anchor="middle" style="white-space: pre;" direction="ltr">celsius2fahrenheit</text></g><g stroke-linecap="round"><g transform="translate(218.992866847826 336.9747068636043) rotate(0 39.10816881555456 -1.113187942550212)"><path d="M0.93 0.8 C14.08 0.4, 65.51 -2.53, 78.26 -3.03 M-0.05 0.18 C13.08 -0.02, 64.98 -1.64, 77.77 -1.8" stroke="#000000" stroke-width="1" fill="none"></path></g><g transform="translate(218.992866847826 336.9747068636043) rotate(0 39.10816881555456 -1.113187942550212)"><path d="M51.16 10.55 C55.8 6.24, 64.08 3.99, 78.53 -1.83 M49.34 8.61 C55.6 5.84, 64.18 3, 77.94 -2.54" stroke="#000000" stroke-width="1" fill="none"></path></g><g transform="translate(218.992866847826 336.9747068636043) rotate(0 39.10816881555456 -1.113187942550212)"><path d="M50.69 -9.97 C55.34 -9.22, 63.74 -6.41, 78.53 -1.83 M48.87 -11.91 C55.25 -9.74, 63.94 -7.65, 77.94 -2.54" stroke="#000000" stroke-width="1" fill="none"></path></g></g><g stroke-linecap="round"><g transform="translate(215.7065237753734 303.83181032372704) rotate(0 40.15672395764307 17.670433209931616)"><path d="M0.8 0.86 C13.93 6.3, 65.11 28.03, 78.14 33.52 M-0.24 0.27 C13.35 5.83, 67.45 29.24, 80.55 35.07" stroke="#000000" stroke-width="1" fill="none"></path></g><g transform="translate(215.7065237753734 303.83181032372704) rotate(0 40.15672395764307 17.670433209931616)"><path d="M52.05 32.2 C58.08 33.87, 65.94 34.67, 80.52 33.88 M50.11 32.23 C58.99 34.81, 67.87 34.64, 79.81 35.93" stroke="#000000" stroke-width="1" fill="none"></path></g><g transform="translate(215.7065237753734 303.83181032372704) rotate(0 40.15672395764307 17.670433209931616)"><path d="M60.28 13.4 C64.41 19.78, 70.23 25.24, 80.52 33.88 M58.33 13.43 C64.68 21.68, 71.06 27.22, 79.81 35.93" stroke="#000000" stroke-width="1" fill="none"></path></g></g><g stroke-linecap="round"><g transform="translate(215.60461956521794 292.58860380199076) rotate(0 37.444584052038294 -73.9619983066209)"><path d="M0.86 -0.58 C13.22 -25.33, 62.62 -123.18, 75.03 -147.66 M-0.14 1.73 C11.97 -23.47, 61.62 -124.44, 74.09 -149.65" stroke="#000000" stroke-width="1" fill="none"></path></g><g transform="translate(215.60461956521794 292.58860380199076) rotate(0 37.444584052038294 -73.9619983066209)"><path d="M69.87 -119.79 C72.29 -130.63, 73.85 -142.38, 72.9 -149.58 M69.9 -120.54 C72.8 -129.06, 72.97 -137.2, 74.96 -150.59" stroke="#000000" stroke-width="1" fill="none"></path></g><g transform="translate(215.60461956521794 292.58860380199076) rotate(0 37.444584052038294 -73.9619983066209)"><path d="M51.46 -128.86 C60.89 -136.41, 69.39 -144.74, 72.9 -149.58 M51.49 -129.61 C59.49 -135.5, 64.79 -141.12, 74.96 -150.59" stroke="#000000" stroke-width="1" fill="none"></path></g></g><g stroke-linecap="round"><g transform="translate(216.9548233695641 262.994514128075) rotate(0 38.10969459053126 -92.50106589654933)"><path d="M-0.58 0.02 C12.09 -30.63, 63.87 -152.49, 76.8 -183.05 M1.31 -1.01 C13.77 -32.12, 63.46 -154.85, 75.99 -185.02" stroke="#000000" stroke-width="1" fill="none"></path></g><g transform="translate(216.9548233695641 262.994514128075) rotate(0 38.10969459053126 -92.50106589654933)"><path d="M74.84 -154.62 C75.5 -165.27, 75.42 -178.22, 76.06 -185.44 M74.1 -154.13 C74.34 -162.42, 74.81 -169.29, 75.05 -185.86" stroke="#000000" stroke-width="1" fill="none"></path></g><g transform="translate(216.9548233695641 262.994514128075) rotate(0 38.10969459053126 -92.50106589654933)"><path d="M55.85 -162.39 C63.53 -170.1, 70.42 -180.2, 76.06 -185.44 M55.11 -161.9 C60.1 -168.06, 65.36 -172.96, 75.05 -185.86" stroke="#000000" stroke-width="1" fill="none"></path></g></g><g stroke-linecap="round" transform="translate(302.6047088753335 80.14145335781632) rotate(0 30.92578125 27.623046875)"><path d="M0 0 C0 0, 0 0, 0 0 M0 0 C0 0, 0 0, 0 0 M0.44 6.11 C1.21 4.24, 3.95 2.01, 5.42 -0.2 M-0.23 6.41 C1.08 4.32, 2.53 2.87, 5.03 0.18 M-0.29 10.96 C4.24 9.4, 6.8 5.44, 9.98 -1.45 M0.85 12.22 C3.96 8.55, 8.04 4.46, 9.87 0.14 M-0.86 20.09 C2.37 14.44, 7.75 12.56, 15.39 1.02 M-0.31 17.81 C5.18 11.89, 9.71 6.18, 16.28 0.45 M2.17 25.67 C6.42 19.93, 8.77 15.4, 20.76 -1.03 M0.72 23.63 C8.52 16.13, 13.95 7.51, 21.23 -0.22 M-1.46 29.24 C5.99 20.25, 15.55 12.14, 24.73 1.55 M0.22 30.55 C5.46 24.72, 10.99 17.11, 27.02 0.04 M0.99 35.83 C9.46 28.13, 18.49 17.49, 32.74 -1.34 M0.26 37.67 C10.04 24.38, 20.47 12.24, 32.72 0.15 M-0.2 44.34 C12.1 28.09, 24.4 13.68, 38.18 1.04 M0.17 42.91 C10.07 31.75, 19.66 20.03, 37 -0.6 M-0.67 48.29 C16.81 32.92, 28.5 15.06, 44.17 -1.3 M0.71 48.55 C14.12 31.44, 29.31 15.75, 42.54 -0.3 M-0.8 54.94 C15.94 36.92, 33.85 17.4, 48.93 1.36 M-0.02 54.23 C13.59 39.62, 28.1 23.29, 47.05 0.86 M2.24 58.76 C17.73 37.71, 37.13 17.35, 51.58 0.86 M2.94 57.26 C17.17 41.79, 33.51 23.74, 53.72 -1.11 M7.02 57.88 C25.29 35.19, 46.33 11.35, 57.39 -0.32 M8.65 56.87 C23.62 41.07, 38.25 23.04, 58.19 -0.7 M13.21 58.53 C30 37.88, 43.68 19.62, 63.02 2.02 M13.26 57.58 C24.87 42.94, 37.29 30.21, 62.35 0.05 M20.6 59.44 C30.3 46.53, 39.72 34.58, 63.16 5.35 M19.71 57.35 C28.89 44.57, 40.44 33.52, 62.69 5.97 M23.79 59.31 C37.54 40.98, 53.42 21.44, 63.51 13.96 M24.06 57.98 C35.21 43.96, 48.43 30.75, 61.96 14.12 M30.04 59.23 C40.76 43.72, 56.57 29.12, 64.25 18.74 M29.99 57.27 C43.23 41.56, 56.65 27.25, 62.23 18.43 M32.54 59.12 C41.98 48.98, 51.27 36.14, 63.22 26.64 M33.74 58.44 C45.23 47.14, 55.1 34.23, 62.79 24.99 M40.25 56.17 C43.68 51.75, 51.06 46.13, 63.09 29.79 M40.61 58.28 C45.33 51.03, 52.36 42.16, 62.92 32.02 M43.18 57.3 C52.74 51.87, 57.67 42.85, 62.67 35.98 M45.9 58.52 C51.28 50.55, 56.06 43.54, 61.91 38.2 M50.31 57.53 C52.22 52.7, 57.71 49.42, 63.9 45.62 M51.33 58.02 C53.19 53.49, 57.83 49.46, 61.89 44.59 M55.12 57.1 C58.18 53.98, 61.55 51.22, 63.1 50.56 M56.07 58.1 C58.1 55.55, 59.68 52.23, 62.85 49.55" stroke="#4c6ef5" stroke-width="0.5" fill="none"></path><path d="M1.63 0.19 C16.9 2.06, 37.36 -0.77, 60.83 -1.79 M0.63 -0.28 C14.01 0.84, 26.9 1.37, 61.1 0.16 M62.19 1.61 C61.77 19.8, 59.79 39.36, 63.21 53.71 M61.7 -0.18 C63.04 17.37, 62.59 36.15, 62.78 55.71 M61.23 55.47 C37.14 55.08, 14.69 55.18, -1.07 56.64 M62.14 55.78 C48.41 54.92, 34.5 54.93, 0.89 55.32 M0.04 56.02 C-1.11 40.53, -1.26 24.53, 1.54 1.79 M0.9 55.13 C-0.27 43.24, -0.89 33.31, -0.35 -0.15" stroke="#000000" stroke-width="1" fill="none"></path></g><g transform="translate(315.5304901253335 95.26450023281632) rotate(0 18 12.5)"><text x="18" y="18" font-family="Virgil, Segoe UI Emoji" font-size="20px" fill="#000000" text-anchor="middle" style="white-space: pre;" direction="ltr">212</text></g><g stroke-linecap="round" transform="translate(303.73318109755473 15.959595718940363) rotate(0 30.92578125 27.623046875)"><path d="M1.01 -1.28 C16.6 1.52, 30.58 -1.74, 62.36 1.75 M0.79 0.63 C12.87 0.7, 26.99 -1.05, 62.3 -0.2 M62.18 -1.53 C60.28 20.96, 60.76 42.58, 59.87 56.53 M61.17 0.24 C62.86 13.32, 62.64 24.49, 61.07 55.85 M61.21 55.36 C38.74 54.23, 18.99 53.96, 0.08 53.98 M62.49 55.23 C48.25 55.02, 36.61 54.32, 0.44 56.08 M-1.78 54.84 C1.61 45.72, -0.77 31.82, -1.97 -0.5 M0.14 55.15 C-1.17 36.55, -0.59 16.6, 0.75 0.72" stroke="#000000" stroke-width="1" fill="none"></path></g></svg>