<svg version="1.1" xmlns="http://www.w3.org/2000/svg" viewBox="0 0 332.6827587896381 150.1162109375" width="332.6827587896381" height="150.1162109375">
  <!-- svg-source:excalidraw -->
  
  <defs>
    <style class="style-fonts">
      @font-face {
        font-family: "Virgil";
        src: url("https://excalidraw.com/Virgil.woff2");
      }
      @font-face {
        font-family: "Cascadia";
        src: url("https://excalidraw.com/Cascadia.woff2");
      }
    </style>
  </defs>
  <rect x="0" y="0" width="332.6827587896381" height="150.1162109375" fill="#ffffff"></rect><g stroke-linecap="round" transform="translate(255.38393066463811 79.2451171875) rotate(0 30.92578125 27.623046875)"><path d="M0 0 C0 0, 0 0, 0 0 M0 0 C0 0, 0 0, 0 0 M-0.62 6.42 C0.21 4.55, 2.27 3.96, 4.88 -0.35 M-0.38 6.09 C1.18 4.47, 2.55 3.55, 4.93 0.55 M-1.07 11.7 C0.85 9.8, 4.49 5.44, 9.99 -0.17 M-0.24 11.86 C1.99 8.88, 5.47 7.7, 10.48 -0.73 M1.59 18.17 C5.06 12.02, 7.92 8.85, 16.31 -0.26 M-0.62 19.05 C5.1 12, 11.4 5.36, 16.33 0.98 M-0.49 22.65 C4.71 17.51, 7.84 11.74, 22.2 -1.66 M-0.45 23.13 C6.17 17.3, 10.45 11.39, 20.76 -0.05 M-0.72 30.27 C8.17 22.04, 12.22 15.59, 25.74 0.12 M-0.33 29.78 C6.54 22.59, 12.64 14.61, 25.38 -0.05 M-1.91 36.03 C10.77 22.75, 20.92 10.39, 31.16 0.6 M0.49 36.7 C7.53 28.53, 14.05 20.03, 31.78 -0.3 M2 43.48 C11.41 30.77, 23.83 17.12, 38.03 -1.22 M-0.67 42.08 C14.47 26.33, 28.17 8.79, 36.44 -0.06 M-1.42 49.39 C10.47 39.2, 20.14 25.3, 43.06 -0.46 M0.3 48.17 C10.44 35.82, 21.37 23.6, 43.16 -0.26 M1.99 54.9 C9.81 42.66, 21.43 29.24, 49.39 2.1 M0.08 54.26 C12.6 39.43, 26.7 24.73, 48.11 -0.25 M1 58.98 C18.05 40.28, 34.08 19.32, 52.42 -1.54 M3.6 57 C20.23 35.75, 39.9 15.2, 52.21 0.52 M7.51 58.89 C25.61 36.2, 44.22 13.1, 57.15 1.81 M9.17 56.67 C26.71 36.12, 44.09 15.29, 58.17 -0.24 M13.84 58.62 C29.36 40.78, 42.32 23.21, 63.27 1.76 M13.5 58.48 C27.1 41.45, 42.4 25.01, 62.26 1.36 M19.85 57.27 C30.33 45.09, 41.12 34.48, 63.91 7.77 M19.39 56.82 C29.42 44.23, 39.87 31.53, 62.67 7.71 M23.58 56.55 C30.26 47.44, 42.45 37.64, 62.58 14.76 M24.12 57.55 C36.04 44.7, 46.37 33.53, 63.13 13.17 M31.1 59.17 C39.76 47.23, 49.67 35.53, 64.64 18.89 M29.85 58.28 C38.48 45.19, 48.26 34.56, 62.04 18.63 M33.77 57.31 C40.66 51.8, 47.76 40.93, 64.49 26.96 M34.65 57.68 C41.42 49.48, 50.31 39.81, 62.3 24.83 M42.12 59.05 C46.89 51.56, 48.93 46.97, 64.74 29.63 M40.94 57.69 C49.84 46.94, 58.81 36.82, 62.16 30.33 M47.09 56.79 C50.57 49.1, 59.22 43.49, 63.5 35.8 M44.45 56.91 C50.2 50.71, 57.57 45.25, 63.13 37.86 M50.01 57.68 C55.26 53.52, 57.3 50.08, 61.65 42.05 M50.73 56.83 C53.96 54.26, 56.47 50.62, 62.82 44.23 M55.57 56.91 C58.73 55.3, 60.81 53.98, 64.04 49.92 M55.92 57.28 C59.13 54.6, 61.73 51.13, 62.6 49.28" stroke="#fa5252" stroke-width="0.5" fill="none"></path><path d="M-1.41 0.55 C24.15 0.93, 46.07 1.06, 60.11 1.94 M-0.82 -0.98 C22.96 -0.87, 47.37 -0.67, 62.47 -0.73 M63.08 0.56 C63.56 19.56, 63.01 37.2, 60.87 53.41 M62.16 -0.11 C61.46 18.84, 62.48 39.41, 61.88 55.75 M62.03 53.61 C38.31 56.25, 14.3 56.99, 0.83 56.94 M61.9 55.21 C47.77 56.06, 34.43 54.91, 0.33 55.2 M1.54 53.59 C-0.7 43.29, -1.18 31.94, 0.76 -1.4 M0.86 55.27 C0.21 36.85, 0.46 19.37, -0.66 0.43" stroke="#000000" stroke-width="1" fill="none"></path></g><g transform="translate(269.3097119146381 94.3681640625) rotate(0 17 12.5)"><text x="17" y="18" font-family="Virgil, Segoe UI Emoji" font-size="20px" fill="#000000" text-anchor="middle" style="white-space: pre;" direction="ltr">[5]</text></g><g stroke-linecap="round" transform="translate(253.51771972713811 15.330078125) rotate(0 30.92578125 27.623046875)"><path d="M0.55 1.26 C15.81 0.72, 30.48 -1.31, 63.79 1.52 M-0.98 -0.3 C14.97 1.34, 30.75 1.12, 61.12 0.41 M62.41 1.15 C62.09 22.68, 60.91 43.15, 60.01 56.35 M61.74 -0.47 C60.96 17.92, 61.92 34.77, 62.36 55.98 M60.22 54.77 C46.14 53.9, 30.58 56.13, 1.69 53.78 M61.82 55.18 C47.42 55.89, 31.5 55.61, -0.05 54.39 M-1.66 54.3 C0.4 39.7, 0.86 27.76, -1.4 0.65 M0.03 55.73 C0.41 36.63, 1.31 15.86, 0.43 0.52" stroke="#000000" stroke-width="1" fill="none"></path></g><g stroke-linecap="round" transform="translate(247.56947753963811 10) rotate(0 37.556640625 65.05810546875)"><path d="M1.26 1.27 C27.03 1.2, 51.75 1.73, 76.64 -0.96 M-0.3 -0.61 C26.49 0.33, 51.91 0.01, 75.52 0.99 M76.27 0.74 C76.52 26.88, 74.92 52.81, 76.21 130.4 M74.65 -0.77 C76.07 36.38, 75.55 72.9, 75.84 129.75 M74.64 130.72 C46.32 130.85, 21.17 131.19, -1.47 128.89 M75.04 130.45 C47.4 129.27, 18.8 130.04, -0.86 129.67 M-0.95 129.98 C-2.42 103.87, -0.25 75.56, 0.65 1.01 M0.49 130.1 C-0.37 102.15, -1.78 72.86, 0.52 0.66" stroke="#000000" stroke-width="1" fill="none"></path></g><g stroke-linecap="round"><g transform="translate(181.25711647365247 44.923828125) rotate(0 31.392744227014475 0.5116750013471574)"><path d="M0.17 0.84 C10.35 0.92, 51.22 1.47, 61.83 1.24 M-1.2 0.24 C9.27 -0.05, 53.2 -0.32, 63.99 -0.27" stroke="#000000" stroke-width="1" fill="none"></path></g><g transform="translate(181.25711647365247 44.923828125) rotate(0 31.392744227014475 0.5116750013471574)"><path d="M37.22 8.31 C47.91 7.79, 55.24 3.35, 62.36 -2.24 M35.41 10.67 C42.74 7.44, 52.06 3.35, 64.6 0.01" stroke="#000000" stroke-width="1" fill="none"></path></g><g transform="translate(181.25711647365247 44.923828125) rotate(0 31.392744227014475 0.5116750013471574)"><path d="M37.18 -12.22 C48.02 -5.29, 55.36 -2.28, 62.36 -2.24 M35.36 -9.85 C42.59 -7.55, 51.92 -6.11, 64.6 0.01" stroke="#000000" stroke-width="1" fill="none"></path></g></g><g stroke-linecap="round" transform="translate(83.62611816463811 79.2451171875) rotate(0 30.92578125 27.623046875)"><path d="M0 0 C0 0, 0 0, 0 0 M0 0 C0 0, 0 0, 0 0 M-0.63 5.82 C1.55 3.7, 3.89 0.97, 5.09 -0.06 M-0.64 6.14 C0.57 4.98, 1.68 3.93, 5.19 0.33 M-0.17 10.91 C3.93 6.9, 7.92 3.59, 10.02 -1.31 M0.33 11.64 C3.08 9.29, 5.79 6.4, 10.4 0 M0.51 20.38 C1.15 14.8, 5.12 10.34, 16.27 1.32 M0.42 18.07 C5.3 10.66, 12.73 4.01, 16.55 1.11 M0.93 24.11 C5.68 15.33, 10.36 9.46, 22.27 0.73 M-0.3 23.85 C8.21 15.93, 15.5 5.41, 20.79 -0.37 M0.22 31.19 C9.7 19.55, 15.59 12.13, 28.09 -1.39 M-0.13 31.47 C11.1 18.82, 20.47 6.51, 26.54 1.21 M-1.96 37.63 C11.28 26.48, 22.71 11.79, 32.12 -1.23 M-0.72 36.53 C9.84 24.05, 20.08 12.14, 31.64 0.33 M-0.87 42.78 C8.21 29.62, 17.88 19.3, 38.31 1.33 M-0.77 43.27 C8.76 31.97, 17.13 22.8, 36.2 0.6 M-0.1 47.99 C17.91 29.02, 31.84 11.82, 43.88 -0.91 M-0.76 49.03 C14.95 31.76, 30.72 13.05, 42.11 0.04 M-0.42 53.86 C15.74 40.85, 27.27 24.09, 46.73 0.02 M-0.2 54.33 C15.82 37.06, 32.05 16.65, 46.97 -0.63 M2.17 59.58 C17.62 42.88, 30.16 28.31, 53.18 -0.36 M3.03 58.11 C22.49 36.38, 40.75 12.54, 53.59 -0.73 M6.96 57.45 C28.34 34.29, 44.7 12.76, 57.32 -0.46 M8.87 57.06 C27.21 35.53, 46.4 14.75, 57.94 0.71 M11.91 59.33 C22.99 44.49, 32.71 31.57, 64.15 0.47 M13.06 57.87 C29.84 37.29, 46.94 16.6, 63.98 0.89 M18.66 59 C28.76 45.79, 41.05 33, 62.28 7.89 M19.84 56.52 C37.06 38.21, 54.55 16.53, 62.98 6.66 M25.24 57.65 C37.52 40.73, 54.06 22.08, 62.88 11.51 M23.3 57.55 C35.16 45.63, 47.4 31.21, 62.17 12.88 M29.88 56.29 C39.76 45.65, 48.52 36.36, 61.18 19.12 M28.87 57.34 C37.62 47.8, 45.41 37.79, 62.84 18.07 M34.3 58.21 C40.97 50.02, 46.81 42.5, 61.62 23.93 M35.25 58.42 C43.08 48.2, 51.1 38.98, 63.21 24.66 M39.58 57.41 C44.39 50.5, 49.69 47.05, 63.04 31.84 M39.92 56.71 C44.52 51.74, 49.88 45.75, 62.22 30.04 M45.4 57.05 C53.2 49.21, 56.94 45.69, 63.96 37.8 M45.08 57.84 C49.31 52.72, 54.28 46.57, 62.52 37.82 M49.98 57.78 C52.56 52.55, 58.95 49.36, 63.66 44.92 M51.09 58.3 C55.11 52.09, 59.67 47.66, 62.29 42.94 M56.44 57.08 C59.04 54.38, 60.95 51.98, 63.18 49.63 M56.25 58.02 C57.36 55.25, 59.22 53.85, 63.19 49.07" stroke="#228be6" stroke-width="0.5" fill="none"></path><path d="M-0.79 -1.92 C12.65 -0.89, 28.72 0.14, 61.1 -0.53 M-0.98 0.88 C19.17 -0.48, 36.85 0.22, 61.98 -0.16 M60.86 -0.87 C60.99 11.55, 60.7 27.88, 63.8 56.85 M62.78 0.81 C61.26 21.02, 61.26 40.11, 62.62 55.5 M61.87 53.3 C38.76 57.21, 17.39 56.1, 1.94 54.23 M62.52 55.56 C47.04 55.59, 33.8 56.28, -0.71 54.35 M1.49 55.76 C1.07 40.99, -0.11 30.74, -0.88 0.3 M-0.57 54.71 C-0.77 32.79, 0.12 12.01, -0.08 -0.64" stroke="#000000" stroke-width="1" fill="none"></path></g><g transform="translate(107.55189941463811 94.3681640625) rotate(0 7 12.5)"><text x="7" y="18" font-family="Virgil, Segoe UI Emoji" font-size="20px" fill="#000000" text-anchor="middle" style="white-space: pre;" direction="ltr">5</text></g><g stroke-linecap="round" transform="translate(81.90639160213811 15.330078125) rotate(0 30.92578125 27.623046875)"><path d="M-1.92 -0.72 C11.12 2.23, 24.64 -0.51, 61.33 -0.06 M0.88 0.79 C22.58 0.7, 46.16 0.73, 61.69 -0.65 M60.99 -1.11 C60.8 17.71, 64.16 40.19, 63.46 56.53 M62.66 -0.7 C62.23 16.95, 61.2 36.06, 62.1 55.76 M59.91 53.86 C46.15 54.2, 27.67 57.19, -1.01 53.77 M62.17 54.43 C46.16 55.6, 30.94 54.95, -0.89 54.57 M0.52 56.12 C-1.96 40.36, 0.64 25.2, 0.3 1.93 M-0.53 54.26 C-0.88 40.72, 0.23 26.3, -0.64 0.3" stroke="#000000" stroke-width="1" fill="none"></path></g><g stroke-linecap="round" transform="translate(75.95814941463811 10) rotate(0 37.556640625 65.05810546875)"><path d="M-0.72 -1.38 C18.53 0.37, 32.34 0.2, 75.06 1.4 M0.79 -0.31 C24.61 -0.28, 49.16 -0.82, 74.46 0.46 M74 -1.42 C73.06 49.63, 76.42 96.98, 76.39 130.51 M74.41 0.91 C75.62 26.29, 77.09 53.06, 75.62 129.92 M73.73 131.77 C47.76 129.93, 24.44 128.37, -1.47 129.26 M74.3 130.34 C51.05 131.26, 26.39 129.46, -0.67 129.76 M0.88 128.7 C-1.27 79.41, -1.85 26.63, 1.93 -0.77 M-0.99 129.56 C0.65 83.95, 0.66 36.02, 0.3 0.27" stroke="#000000" stroke-width="1" fill="none"></path></g><g stroke-linecap="round"><g transform="translate(9.64578834865242 44.923828125) rotate(0 31.387147580925372 -0.11486631657930957)"><path d="M1.19 -0.21 C11.66 -0.11, 52.15 -0.42, 62.42 -0.23 M0.35 -1.37 C10.67 -1.02, 50.95 1.07, 61.24 1.14" stroke="#000000" stroke-width="1" fill="none"></path></g><g transform="translate(9.64578834865242 44.923828125) rotate(0 31.387147580925372 -0.11486631657930957)"><path d="M32.38 9.74 C39.8 7.68, 49.26 5.8, 59.27 2.9 M33.11 10.62 C43.4 6.27, 54.83 4.04, 60.74 0.71" stroke="#000000" stroke-width="1" fill="none"></path></g><g transform="translate(9.64578834865242 44.923828125) rotate(0 31.387147580925372 -0.11486631657930957)"><path d="M33.03 -10.77 C40.14 -7.41, 49.43 -3.87, 59.27 2.9 M33.77 -9.89 C43.75 -6.47, 54.92 -0.92, 60.74 0.71" stroke="#000000" stroke-width="1" fill="none"></path></g></g></svg>