<svg version="1.1" xmlns="http://www.w3.org/2000/svg" viewBox="0 0 412.5986173057988 216.7470703125" width="412.5986173057988" height="216.7470703125">
  <!-- svg-source:excalidraw -->
  
  <defs>
    <style class="style-fonts">
      @font-face {
        font-family: "Virgil";
        src: url("https://excalidraw.com/Virgil.woff2");
      }
      @font-face {
        font-family: "Cascadia";
        src: url("https://excalidraw.com/Cascadia.woff2");
      }
    </style>
  </defs>
  <rect x="0" y="0" width="412.5986173057988" height="216.7470703125" fill="#ffffff"></rect><g stroke-linecap="round" transform="translate(79.962567376744 81.61106178977298) rotate(0 30.92578125 27.623046875)"><path d="M0 0 C0 0, 0 0, 0 0 M0 0 C0 0, 0 0, 0 0 M0.54 6.46 C2.18 4.52, 4.63 0.99, 4.65 0.89 M-0.36 6.6 C1.36 5.1, 1.93 3.17, 4.71 0.63 M1.03 11.11 C3.05 9.45, 5.19 7.41, 10.18 -1.33 M-0.1 11.59 C2.97 8.31, 7.21 3.43, 10.86 0.29 M-1.5 18.71 C5.05 12.21, 11.29 6.26, 15.29 0.88 M0.49 18.15 C5.72 13.07, 10.38 6.56, 15.71 -0.3 M-1.67 22.98 C4.7 19.78, 9.38 11.33, 22.12 1.46 M-0.31 25.07 C7.9 15.74, 13.45 8.02, 21.44 0.79 M1.45 30.41 C5.97 24.88, 12.13 17.98, 26.59 2.15 M-0.19 30.53 C9.26 18.62, 19.18 8.82, 27.12 0.43 M-0.11 35.23 C9.71 22.38, 24.29 10, 30.58 -0.07 M-0.41 37.1 C12.91 23.09, 23.71 8.1, 32.81 -0.07 M1.92 40.66 C11.93 28.75, 22.27 16.75, 35.47 -0.11 M-0.35 43.33 C11.1 29.54, 21.05 18.88, 35.91 0.53 M0.93 48.27 C15.01 33.78, 27.54 16.83, 42.24 0.33 M0.13 49.48 C11.47 35.54, 22.73 22.51, 42 0.8 M-1.06 55.8 C12.42 42.94, 22.76 27.89, 49.07 1.86 M0.84 53.65 C15.68 37.93, 30.94 18.9, 47.12 0.15 M2.81 59.34 C15.69 41.54, 31.01 27.13, 51.55 0.56 M2.19 58.24 C14.69 43.49, 28.66 29.07, 52.62 0.21 M7.12 56.41 C25.64 39.65, 39.75 22.67, 56.2 1.09 M8.75 57.39 C23.01 38.47, 38.71 20.67, 57.44 0.3 M11.82 59.19 C27.79 39.01, 43.37 21.23, 64.02 -1.43 M13.58 58.46 C27.44 41.58, 42.2 24.54, 62.29 -0.41 M19.59 57.48 C29.98 47.09, 39.01 36.91, 61.45 6.74 M18.28 57.39 C33.08 41.21, 45.84 26.36, 63.32 7.6 M22.84 58.98 C34.94 46.34, 44.01 37.48, 63.66 14.21 M24.66 57.17 C32.53 46.57, 42.3 36.48, 62.1 12.77 M27.84 58.3 C42.08 44.4, 50.8 29.69, 62.32 20.97 M29.6 57.3 C39.3 46.06, 47.58 35.47, 62.08 19.25 M36.32 58.16 C43.32 46.98, 55.83 33, 63.14 26.47 M35.32 57.18 C41.92 50.85, 47.53 43.03, 62.79 25.29 M41.64 58.45 C47.4 51.69, 53.45 43.04, 61.28 31.48 M40.19 57.6 C46.55 51.07, 52.99 43.44, 63.98 31.48 M46.37 57.43 C50.53 53.25, 51.43 47.77, 63.02 39.25 M45.08 58.14 C50.6 51.63, 54.03 46.16, 61.95 38.11 M50.49 56.87 C55.47 53.23, 60.62 48, 61.36 45.18 M50.22 56.71 C54.83 52.57, 59.93 46.18, 61.77 43.46 M56.35 58.37 C58.38 55.58, 60.93 51.38, 63.67 50.31 M55.44 58.2 C57.78 55.35, 59.79 53.38, 62.71 49.35" stroke="#15aabf" stroke-width="0.5" fill="none"></path><path d="M1.6 0.91 C21.97 1.19, 48.2 -0.52, 63.01 0.99 M-0.86 -0.88 C17.08 0.61, 34.35 0.12, 61.83 -0.73 M62.2 -0.98 C62.57 20.12, 63.9 42.27, 63.15 57.12 M61.48 -0.27 C60.79 15.08, 60.98 31.88, 62.31 55.65 M62.21 53.98 C45.96 54.98, 34.71 56.54, 1.15 55.66 M61.54 55.08 C45.05 55.47, 27.63 55.84, 0.51 56.23 M-0.11 55.11 C-0.08 38.13, -1.2 21.72, -0.94 -0.98 M-0.28 54.3 C-0.68 41.01, 0.29 25.48, 0.78 -0.44" stroke="#000000" stroke-width="1" fill="none"></path></g><g stroke-linecap="round" transform="translate(74.13763839947126 10) rotate(0 37.556640625 98.37353515625)"><path d="M0.91 -1.95 C17.06 -0.23, 31.67 0.55, 76.1 -0.44 M-0.88 -0.11 C21.04 0.61, 41.01 0.62, 74.38 0.77 M74.13 0.22 C72.7 78.14, 74.01 154.47, 76.99 196.56 M74.85 -0.73 C73.66 46.86, 74.41 95.26, 75.52 196.1 M73.85 195.4 C45.66 198.82, 17.85 198.03, 0.41 196.24 M74.94 196.94 C54.36 196.27, 33.49 197.03, 0.99 196.7 M-0.14 197.16 C-2.09 119.62, -2.2 42.97, -0.98 -0.61 M-0.95 196.49 C0.88 123.52, 0.23 49.67, -0.44 0.09" stroke="#000000" stroke-width="1" fill="none"></path></g><g stroke-linecap="round" transform="translate(79.58933098863429 143.5341352982955) rotate(0 30.92578125 27.623046875)"><path d="M0 0 C0 0, 0 0, 0 0 M0 0 C0 0, 0 0, 0 0 M0.05 6.92 C1.76 4.16, 2.19 3.65, 4.52 0.56 M0.11 6.55 C0.92 4.32, 2.48 3.19, 4.68 0.32 M0.71 12.08 C3.13 9.7, 4.99 4.63, 11.01 0.08 M-0.41 12.26 C4.06 7.22, 7.59 4.16, 10.74 0.5 M0.23 17.94 C6.83 11.7, 10.03 7.05, 15.86 0.38 M0.81 18.76 C5.55 12.08, 10.05 6.13, 15.18 0.9 M-0.54 25.84 C4.01 17.91, 11.39 14.19, 21.96 1.88 M1.1 23.89 C6.7 16.07, 14.47 8.76, 20.52 -0.82 M-0.19 31.45 C5.09 25.32, 10.67 20.21, 27.63 0.03 M-0.47 29.87 C8.81 20.86, 18.92 9.92, 26.82 1.03 M-1.49 35.42 C9.75 27.13, 14.7 18.43, 33.58 -1.42 M0.31 37.52 C10.52 23.19, 24.14 9.9, 31.79 0.77 M1.64 40.7 C8.79 32.28, 14.07 24.43, 36.61 -1.28 M0.25 41.9 C13.37 27.53, 26.38 11.43, 37.24 0.98 M1.04 49.98 C9 38.13, 19.35 26.49, 41.77 0.24 M0.36 48.14 C10.36 36.19, 19.33 26.5, 41.78 -0.09 M1.78 55.5 C18.85 32.82, 36.27 16.71, 47.95 -1.36 M0.03 55.48 C14.28 37.68, 28.63 21.49, 47.22 0.93 M2.42 57.2 C18.32 41.7, 29.64 25.35, 52.04 -1.77 M1.89 57.79 C19.99 38.76, 34.8 20.85, 53.33 -0.06 M9.85 57.89 C23.41 42.2, 36.6 24.31, 58.5 1.31 M7.47 57 C24.82 37.07, 42.88 16.81, 58.18 0.87 M12.98 56.32 C27.09 40.41, 41.17 25.02, 62.9 1.98 M13.44 58.57 C32.63 35.93, 50.29 12.9, 62.3 -0.2 M20.05 58.33 C35.01 41.13, 48.66 21.26, 62.88 6.35 M19.71 56.83 C36.83 37.38, 54.22 18.49, 62.32 7.47 M25.65 56.97 C33.78 49.25, 41.89 39.31, 61.41 12.78 M23.1 57.52 C37.24 42.27, 51.09 25.32, 63.01 13.85 M30.87 57.59 C39.21 43.56, 50.58 34.71, 62.62 20.39 M30.16 57.14 C41.69 42.86, 53.93 28.65, 63.69 18.93 M32.88 59.04 C43.97 46.33, 53.19 37.54, 61.26 25.12 M35.49 58.46 C45.53 45.43, 56.48 32.44, 62.44 25.13 M41.12 58.71 C46.4 50.61, 49.38 44.83, 62.21 29.62 M40.53 57.92 C49.4 47.45, 57.58 38.8, 62.27 31.49 M46.84 57.73 C50.36 49.12, 58.26 44.62, 62.06 36.36 M45.89 57.08 C51.6 48.95, 57.97 42.64, 63.4 37.11 M51.25 57.98 C55.25 54.14, 55.58 51.89, 64.41 45.36 M50.22 57.97 C53.88 53.43, 56.44 49.79, 63.38 43.36 M55.55 58.76 C57.19 55.52, 60.24 54.17, 62.31 48.88 M56.02 57.28 C58.14 55.19, 59.06 53.54, 63.02 49.4" stroke="#228be6" stroke-width="0.5" fill="none"></path><path d="M-1.95 0.75 C14.55 -1.24, 29.51 0.71, 61.41 -0.55 M-0.11 0.57 C18.17 0.63, 36.38 -0.19, 62.62 0.89 M62.07 -0.71 C63.5 12.41, 63.24 25.5, 61.66 54.06 M61.12 -0.97 C61.1 15, 62.1 30.84, 61.2 56.16 M60.5 55.16 C46.95 56.32, 29.31 55.27, -0.51 54.9 M62.04 55.74 C45.82 56.01, 30.79 56.13, -0.05 56.13 M0.41 54.43 C-0.68 34.18, -0.91 13.99, -0.61 1.52 M-0.26 55.9 C0.86 39.31, 0.94 22.92, 0.09 0.22" stroke="#000000" stroke-width="1" fill="none"></path></g><g transform="translate(107.01511223863429 158.6571821732955) rotate(0 3.5 12.5)"><text x="3.5" y="18" font-family="Virgil, Segoe UI Emoji" font-size="20px" fill="#000000" text-anchor="middle" style="white-space: pre;" direction="ltr">1</text></g><g stroke-linecap="round" transform="translate(81.16825499431604 17.54736328125) rotate(0 30.92578125 27.623046875)"><path d="M0.37 -0.96 C22.52 0.76, 42.29 -0.78, 61.74 -1.71 M-0.03 0.08 C13.09 -1.08, 27 0.54, 60.99 0.18 M63.41 0.6 C63.21 15.74, 61.72 26.55, 61.36 54.5 M61.31 -0.22 C61.91 15.51, 60.8 31.12, 61.57 55.43 M63.79 56.71 C48.36 55.63, 32.07 54.88, -0.89 54.62 M61.61 56.12 C44.87 56.54, 26.81 56.44, 0.64 55.19 M-0.71 54.32 C-1.06 38.07, -0.72 24.38, -0.23 -0.55 M0.71 55.26 C0.93 43.48, 0.23 32.82, 0.35 0.66" stroke="#000000" stroke-width="1" fill="none"></path></g><g stroke-linecap="round"><g transform="translate(11.12159775418229 42.42138671875) rotate(0 29.468159653470593 0.2585417832156054)"><path d="M0.22 -0.58 C10.43 -0.55, 50.24 0.55, 60.06 0.59 M-1.12 1.73 C9.09 1.37, 49.59 -1.06, 59.47 -1.22" stroke="#000000" stroke-width="1" fill="none"></path></g><g transform="translate(11.12159775418229 42.42138671875) rotate(0 29.468159653470593 0.2585417832156054)"><path d="M31.06 11.22 C38.53 7.29, 42.55 5.33, 57.76 -2.98 M32.11 10.05 C39.15 7.59, 48.7 2.7, 59.65 -1.71" stroke="#000000" stroke-width="1" fill="none"></path></g><g transform="translate(11.12159775418229 42.42138671875) rotate(0 29.468159653470593 0.2585417832156054)"><path d="M30.23 -9.06 C37.94 -8.89, 42.13 -6.74, 57.76 -2.98 M31.27 -10.24 C38.68 -6.84, 48.47 -5.88, 59.65 -1.71" stroke="#000000" stroke-width="1" fill="none"></path></g></g><mask></mask><g stroke-linecap="round"><g transform="translate(112.46037616327305 109.0089666193171) rotate(0 34.88233599998057 0.1292735831812024)"><path d="M1.16 0.99 C23.27 -0.21, 47.3 -1.37, 68.51 -0.23 M-0.02 -0.73 C25.88 0.83, 49.36 0.12, 69.78 0.11" stroke="#000000" stroke-width="1" fill="none"></path></g><g transform="translate(112.46037616327305 109.0089666193171) rotate(0 34.88233599998057 0.1292735831812024)"><path d="M42.81 11.53 C50.68 6.61, 60.5 1.93, 68.02 -0.12 M41.64 9.81 C52.48 7.68, 60.9 3.24, 69.29 0.22" stroke="#000000" stroke-width="1" fill="none"></path></g><g transform="translate(112.46037616327305 109.0089666193171) rotate(0 34.88233599998057 0.1292735831812024)"><path d="M42.69 -8.99 C50.64 -6.99, 60.5 -4.75, 68.02 -0.12 M41.51 -10.71 C52.39 -5.5, 60.85 -2.62, 69.29 0.22" stroke="#000000" stroke-width="1" fill="none"></path></g></g><mask></mask><g transform="translate(191.26364320872756 97.24618252840901) rotate(0 33 12.5)"><text x="0" y="18" font-family="Virgil, Segoe UI Emoji" font-size="20px" fill="#000000" text-anchor="start" style="white-space: pre;" direction="ltr">Object</text></g><g stroke-linecap="round" transform="translate(335.1533048057988 145.8759765625) rotate(0 30.92578125 27.623046875)"><path d="M-1.42 -1.87 C10.79 -0.03, 23.38 -1.3, 63.17 -0.16 M0.97 -0.35 C24.29 -0.97, 48.35 -1.27, 61.36 0.54 M63.63 0.51 C63.05 15.14, 63.04 28.7, 61.63 54.3 M61.37 0.84 C62.25 15.19, 62.68 30.74, 61.07 55.28 M61.99 55.43 C46.48 55.03, 30.78 56.18, 0.38 53.71 M61.01 55.11 C43.15 54.67, 24.74 54.01, -0.68 54.57 M1.51 54.99 C1.46 44.88, -1.47 32.19, -1.21 -0.48 M0.55 56.14 C-0.31 41.92, 0.09 28.58, 0.84 -0.62" stroke="#000000" stroke-width="1" fill="none"></path></g><g stroke-linecap="round" transform="translate(327.4853360557988 141.185546875) rotate(0 37.556640625 32.78076171875)"><path d="M-1.87 -1.7 C16.55 -1.07, 32.22 1.85, 74.95 1.76 M-0.35 0.28 C20.01 -0.39, 40.28 -1.22, 75.66 -0.46 M75.62 1.52 C75.72 17.32, 75.25 31.4, 74.17 65.07 M75.95 0.57 C74.99 18.69, 75.32 34.6, 75.15 65.15 M75.29 66.21 C53.72 66.6, 33.77 65.99, -1.54 65.68 M74.97 65.78 C54.65 65.65, 33.53 64.25, -0.68 64.72 M-0.25 67.18 C1.84 42.74, 1.09 21.35, -0.48 -1.05 M0.9 65.52 C-0.21 43.08, 0.12 20.72, -0.62 -0.47" stroke="#000000" stroke-width="1" fill="none"></path></g><g stroke-linecap="round"><g transform="translate(272.8841910359797 174.28857421875) rotate(0 26.314354657381777 -0.15736192905728785)"><path d="M-1.12 -1.02 C7.95 -1.1, 44.73 -1.55, 53.75 -1.31 M0.49 1.06 C9.44 1.17, 43.54 0.15, 52.68 -0.28" stroke="#000000" stroke-width="1" fill="none"></path></g><g transform="translate(272.8841910359797 174.28857421875) rotate(0 26.314354657381777 -0.15736192905728785)"><path d="M25.97 9.49 C32.26 5.98, 41.28 4.99, 54.45 -0.8 M27.96 9.32 C37.12 5.38, 45.5 3.03, 52.23 -0.86" stroke="#000000" stroke-width="1" fill="none"></path></g><g transform="translate(272.8841910359797 174.28857421875) rotate(0 26.314354657381777 -0.15736192905728785)"><path d="M25.3 -8.96 C31.62 -7.96, 40.8 -4.45, 54.45 -0.8 M27.29 -9.13 C36.88 -6.27, 45.5 -1.83, 52.23 -0.86" stroke="#000000" stroke-width="1" fill="none"></path></g></g><mask></mask></svg>