<svg version="1.1" xmlns="http://www.w3.org/2000/svg" viewBox="0 0 603.2131691154093 153.939453125" width="603.2131691154093" height="153.939453125">
  <!-- svg-source:excalidraw -->
  
  <defs>
    <style class="style-fonts">
      @font-face {
        font-family: "Virgil";
        src: url("https://excalidraw.com/Virgil.woff2");
      }
      @font-face {
        font-family: "Cascadia";
        src: url("https://excalidraw.com/Cascadia.woff2");
      }
    </style>
  </defs>
  <rect x="0" y="0" width="603.2131691154093" height="153.939453125" fill="#ffffff"></rect><g stroke-linecap="round" transform="translate(83.26013667490201 83.068359375) rotate(0 30.92578125 27.623046875)"><path d="M0 0 C0 0, 0 0, 0 0 M0 0 C0 0, 0 0, 0 0 M0.35 6.57 C1.41 4.96, 2.11 2.55, 5.73 0.78 M0.09 6.7 C1.46 5.13, 2.76 2.88, 4.91 0.08 M0.4 13.47 C4.3 5.73, 7.76 1.25, 9.75 -0.06 M0.55 11.71 C4.68 8.38, 8.15 4.09, 10.64 0.28 M-0.73 19.72 C5.04 11.84, 7.38 6.42, 15.01 1.6 M-0.93 19.08 C3.49 14.33, 7.11 9.74, 16.33 0.47 M0.37 24.53 C8.16 15.63, 16.99 5.35, 22.65 1.46 M0.29 23.13 C5.54 20, 8.47 13.16, 21.34 0.51 M0.96 31.6 C6.45 19.63, 15.05 11.89, 27.36 1.79 M0.55 31.05 C5.84 24.11, 11.19 18.03, 25.92 1.13 M-0.09 36.69 C6.93 25.53, 18.71 16.43, 33.43 -1.52 M0.67 37.73 C7.25 29.82, 12.73 20.7, 31.51 -0.55 M0.37 42.73 C11.14 31.01, 21.03 15.05, 35.88 1.53 M-0.66 42.28 C9.55 30.87, 20.8 18.73, 37.77 0.32 M-1.7 48.49 C15.67 31.71, 26.23 17.14, 42.2 1.46 M-0.64 49.55 C14.84 30.78, 31.79 11.94, 43.04 0.57 M-0.29 55.74 C17.28 34.98, 32.49 17.05, 45.74 1.75 M-0.58 55.1 C9.47 43.67, 19.92 32.12, 47.26 0.33 M4.53 58.71 C21.19 39.79, 38.38 19.78, 51.45 1.26 M1.75 57.54 C14.43 43.82, 26.71 29.27, 52.51 -0.7 M7.21 56.53 C25.18 40.71, 36.56 23.39, 57.24 -1.3 M7.3 56.81 C20.65 42.62, 34.23 27.42, 57.93 0.02 M14.03 57.69 C32.73 36.36, 50.41 18.61, 63.14 -0.21 M12.71 57.48 C25.88 43.26, 37.83 30.96, 63.54 0.92 M18.14 56.44 C28.81 47.61, 37.38 36.6, 61.96 8.77 M18.05 56.93 C33.42 40.62, 47.89 23.82, 62.59 6.62 M22.28 56.22 C34.04 47.23, 42.72 37.73, 64.26 13.92 M23.14 57.78 C35.68 46.65, 46.84 33.16, 63.2 13.35 M28.56 56.13 C40.59 46.26, 50.28 36.7, 61.83 19.4 M30.04 58.01 C42.17 43.49, 55.04 28.61, 63.44 19.63 M35.78 59.35 C44.27 49.23, 50.77 40.87, 62.89 26.66 M33.99 58.4 C40.61 49.62, 47.87 41.63, 63.23 25.45 M41.28 55.59 C47.78 48.16, 55.39 41.34, 63.22 31.59 M39.92 56.67 C45.34 52.12, 50.09 46.33, 63.12 30.36 M46.19 57.52 C52.32 52.26, 58.45 45.83, 61.5 38.99 M45.38 56.88 C49.68 52.72, 54.94 46.35, 62.26 37.73 M49.44 59 C54.57 54.24, 57.17 52.7, 62.44 43.74 M51 57.58 C55.05 54.14, 57.98 49.09, 63.16 44.66 M56.08 57.05 C57.76 53.92, 60.99 51.49, 63.19 49.46 M55.68 57.52 C56.86 56.03, 58.46 54.33, 63.13 49.22" stroke="#15aabf" stroke-width="0.5" fill="none"></path><path d="M-0.5 -0.79 C14.97 2.03, 31.4 -1.48, 62.28 -1.62 M0.31 -0.52 C23.76 -0.99, 45.93 0.47, 62.36 -0.86 M63.28 -1.72 C63.38 18.51, 61.39 34.08, 62.96 56.22 M62.25 -0.38 C61.35 21.96, 60.97 43.91, 61.15 55.4 M61.88 53.74 C42.89 55.12, 25.66 54.1, 0.35 54.26 M62.35 56.24 C38.82 53.96, 14.79 54, -0.05 54.6 M-0.55 53.86 C-0.41 41.82, 1.95 25.11, -0.34 0.57 M-0.08 55.03 C0.43 32.91, -1.21 11.57, 0.97 0.14" stroke="#000000" stroke-width="1" fill="none"></path></g><g transform="translate(97.18591792490201 98.19140625) rotate(0 17 12.5)"><text x="17" y="18" font-family="Virgil, Segoe UI Emoji" font-size="20px" fill="#000000" text-anchor="middle" style="white-space: pre;" direction="ltr">foo</text></g><g stroke-linecap="round" transform="translate(81.80408198740201 17.13671875) rotate(0 30.92578125 27.623046875)"><path d="M-0.37 2 C18.89 -1.27, 36.79 -1.38, 63.42 -0.79 M0.34 -0.76 C19.9 1.02, 42.1 -0.53, 62.03 -0.48 M63.64 0.93 C62.05 13.16, 63.35 29.47, 63.85 54.34 M61.59 -0.14 C61.44 16.7, 61.37 34.12, 61.83 55.8 M61.31 55.49 C47.7 54.01, 32.61 53.8, 1.6 55.11 M62.33 54.48 C48.49 55.14, 35.18 55.21, -0.35 55.1 M-0.49 56.45 C2.03 35.15, -0.19 17.4, 1.76 1.89 M0.95 54.34 C-0.64 39.12, 1.01 24.75, 0.7 0.99" stroke="#000000" stroke-width="1" fill="none"></path></g><g stroke-linecap="round" transform="translate(75.59216792490201 10) rotate(0 37.556640625 66.9697265625)"><path d="M2 0.71 C19.14 0.57, 39.7 1.71, 74.33 0.73 M-0.76 -0.9 C25.58 0.25, 48.93 -0.07, 74.64 -0.42 M76.04 -0.2 C72.88 50.82, 74.94 101.44, 74.21 134.09 M74.98 -0.63 C74.33 44.84, 74.77 91.05, 75.67 133.33 M75.36 134.58 C51.71 134.09, 28.87 135.34, -0.14 132.24 M74.35 133.89 C48.14 134.25, 21.95 133.94, -0.14 134.42 M1.2 135.81 C0.04 97.09, 1.5 62.69, 1.89 -0.45 M-0.9 133.25 C-0.51 95.8, 0.44 56.42, 0.99 -0.69" stroke="#000000" stroke-width="1" fill="none"></path></g><g stroke-linecap="round"><g transform="translate(10.6770363029093 46.427734375) rotate(0 29.87763736285268 -1.1875608626753547)"><path d="M-0.68 -0.42 C9.57 -0.59, 50.14 -1.74, 60.43 -1.96 M1.17 -1.69 C11.37 -1.59, 49.67 -0.76, 59.6 -0.54" stroke="#000000" stroke-width="1" fill="none"></path></g><g transform="translate(10.6770363029093 46.427734375) rotate(0 29.87763736285268 -1.1875608626753547)"><path d="M30.49 9.47 C36.93 8.65, 43.43 6.44, 61.04 -0.64 M31.84 9.91 C41.15 4.98, 51.97 2.54, 60.5 -1.38" stroke="#000000" stroke-width="1" fill="none"></path></g><g transform="translate(10.6770363029093 46.427734375) rotate(0 29.87763736285268 -1.1875608626753547)"><path d="M30.94 -11.05 C37.12 -7.5, 43.52 -5.33, 61.04 -0.64 M32.29 -10.61 C41.47 -7.93, 52.13 -2.76, 60.5 -1.38" stroke="#000000" stroke-width="1" fill="none"></path></g></g><g stroke-linecap="round" transform="translate(262.2563233903602 83.068359375) rotate(0 30.92578125 27.623046875)"><path d="M0 0 C0 0, 0 0, 0 0 M0 0 C0 0, 0 0, 0 0 M-0.44 6.5 C1.93 4.11, 3.71 1.72, 4.46 -0.29 M-0.37 6.56 C2.14 4.05, 3.7 2.01, 5.08 0.16 M-0.77 12.9 C3.63 7.72, 7.43 2.77, 9.34 -0.98 M-0.41 12.61 C4.34 7.89, 7.57 3.38, 10.33 -0.04 M0.09 18.05 C5.02 14.07, 9.98 5.23, 13.98 -1.06 M0.65 18.81 C2.77 15.29, 6.88 9.96, 16.35 0.5 M0.95 24.71 C3.66 18.07, 10.52 13.88, 21.02 0.1 M-0.72 23.84 C7.81 15.98, 14.26 8.13, 22.09 0.91 M-1.12 29.28 C5.18 23.87, 15.98 12.96, 24.52 0.01 M0.2 30.5 C10.41 20.17, 18.96 8.49, 25.64 0.97 M1.22 38 C6.49 25.77, 15.53 18.39, 32.6 -0.35 M-0.36 37.33 C8.74 25.36, 19.76 14.81, 31.19 -0.91 M-0.07 41.88 C13.41 30.64, 22.75 16.73, 36.49 -0.24 M0.55 43.21 C10.88 29.16, 24.04 16.01, 35.95 -0.4 M0.22 49.43 C9.44 37, 17.92 26.31, 44.28 -0.8 M0.75 48.97 C9.93 37.3, 20.75 26.28, 42.6 -1.01 M1.66 53.76 C10.97 41.05, 22.84 26.69, 46.28 -0.59 M0.81 54.35 C12.7 42.25, 22.98 27.03, 48.28 -0.73 M2.16 58.08 C17.51 39.13, 35.08 21.6, 52.78 -1.14 M1.64 58.33 C22.59 35.07, 39.5 14.19, 53.04 0.16 M6.51 56.1 C22.49 41.86, 36.22 23.06, 59.42 1.48 M7.66 57.37 C23.02 40.46, 38.77 20.88, 58.82 0.45 M11.7 56.55 C23.61 43.74, 32.97 35.17, 64.29 -0.16 M13.81 58.77 C24.43 46.15, 35.63 32.92, 63.25 0.98 M17.98 55.52 C35.9 36.55, 51.17 19.26, 62.69 6.65 M19.28 56.86 C29.65 46.79, 37.99 35.11, 62.01 6.98 M23.54 55.93 C33.1 47.78, 39.7 36.38, 64 12.29 M23.81 57.34 C33 46.61, 42.81 34.04, 62.45 13.49 M30.33 57.97 C35.1 47.88, 45.59 39.15, 63.25 20.64 M30.19 57.5 C38.02 48.9, 45.31 39.02, 62.71 19.98 M33.39 59.55 C41.58 48.31, 52.35 39, 64.23 26.51 M35.22 57.59 C40.9 49.83, 47.25 43.93, 63.54 25.65 M38.62 58.72 C46.62 49.49, 55.1 42.17, 62.69 32.74 M40.19 57.02 C49.4 46.37, 58.26 37.39, 63.19 31.37 M44.13 58.11 C53.78 48.25, 57.25 42.39, 61.64 36.74 M45.81 57.68 C49.03 53.15, 51.53 48.8, 63.28 38.07 M50.11 59.19 C55.77 53.16, 58.45 50.12, 62.52 43.63 M50.75 58.13 C53.94 53.47, 57.25 50.59, 61.77 44.6 M55.78 58.81 C57.04 55.16, 60.24 52.85, 63.4 49.12 M56.18 57.52 C57.88 55.06, 60.78 51.63, 63.4 49.05" stroke="#15aabf" stroke-width="0.5" fill="none"></path><path d="M1.72 0.38 C23.27 -1.99, 49.73 1.11, 60.34 -0.47 M-0.1 0.69 C12.52 -0.26, 26.07 -0.54, 60.98 0.87 M63.76 0.48 C61.54 13.36, 60.23 29.95, 60.76 56.94 M62.15 0.59 C62.08 16.55, 62.71 31.6, 61.14 54.58 M61.45 56.81 C39.61 56.35, 17.98 53.14, 0.9 54.65 M62.58 54.73 C39.34 55.37, 15.36 55.26, -0.86 54.47 M0.77 56.73 C-0.91 43.53, 1 31.66, -0.83 -1.55 M0.26 55.12 C-0.87 39.63, 0.16 25.77, 0.26 -0.05" stroke="#000000" stroke-width="1" fill="none"></path></g><g stroke-linecap="round" transform="translate(260.8002687028602 17.13671875) rotate(0 30.92578125 27.623046875)"><path d="M-1.23 -1.71 C22.07 1.27, 41.17 -0.59, 60.22 1.99 M-0.98 -0.6 C14.15 -1.31, 29.29 0.44, 61.58 0.49 M61.27 -1.74 C60.48 11.35, 61.28 24.88, 61.66 54.96 M62.16 0.49 C62.95 11.99, 61.3 24.33, 62.52 54.6 M62.27 56.5 C46.24 53.78, 28.63 55.14, 1.58 56.33 M62.77 55.5 C44.98 55.08, 26.51 54.15, -0.79 56.17 M-0.4 55.73 C1.3 35.97, -1.04 13.5, -0.61 1.09 M-0.57 54.52 C0.32 33.88, 0.11 11.85, 0.36 -0.68" stroke="#000000" stroke-width="1" fill="none"></path></g><g stroke-linecap="round" transform="translate(254.5883546403602 10) rotate(0 37.556640625 66.9697265625)"><path d="M-1.71 0.73 C30.37 -1.05, 57.48 -1.17, 77.1 -1.12 M-0.6 -0.93 C20.89 -0.14, 44.42 0.47, 75.61 -0.9 M73.38 -1.9 C75.19 51.85, 77.13 105.7, 74.83 132.46 M75.61 0.94 C75.39 43.44, 75.23 88.97, 74.46 133.7 M76.36 135.39 C52.15 135, 32.5 135.67, 1.09 133.51 M75.37 134.31 C47.23 133.77, 18.27 133.84, 0.92 134.58 M0.49 135.45 C-0.18 87.79, -2.55 42.7, 1.09 1.85 M-0.72 134.41 C0.47 90.51, 0.11 46.93, -0.68 0.14" stroke="#000000" stroke-width="1" fill="none"></path></g><g stroke-linecap="round"><g transform="translate(189.67322301836748 46.427734375) rotate(0 30.01235374249518 -1.0931991402060248)"><path d="M-1.02 0.44 C9.11 0.13, 50.89 -2.1, 61.05 -2.63 M0.64 -0.37 C10.67 -0.5, 50.81 -1.31, 60.54 -1.57" stroke="#000000" stroke-width="1" fill="none"></path></g><g transform="translate(189.67322301836748 46.427734375) rotate(0 30.01235374249518 -1.0931991402060248)"><path d="M33.32 10.72 C40.05 5.62, 48.84 4.61, 59.41 -1.77 M31.66 8.44 C42.14 6.35, 53.07 1.95, 59.64 -0.61" stroke="#000000" stroke-width="1" fill="none"></path></g><g transform="translate(189.67322301836748 46.427734375) rotate(0 30.01235374249518 -1.0931991402060248)"><path d="M32.86 -9.8 C39.61 -8.35, 48.55 -2.82, 59.41 -1.77 M31.2 -12.07 C41.65 -6.59, 52.74 -3.42, 59.64 -0.61" stroke="#000000" stroke-width="1" fill="none"></path></g></g><g stroke-linecap="round"><g transform="translate(293.1672706779093 112.7265625) rotate(0 38.68332762235775 1.0835213198464544)"><path d="M0.71 -0.91 C13.49 -0.46, 64.96 1.19, 77.74 1.88 M-0.38 1.22 C12.22 1.89, 64.34 3.07, 77.21 3.08" stroke="#000000" stroke-width="1" fill="none"></path></g><g transform="translate(293.1672706779093 112.7265625) rotate(0 38.68332762235775 1.0835213198464544)"><path d="M47.36 14.28 C58.95 9.71, 72.33 5.49, 78.43 3.24 M49.36 12.03 C56.27 10.96, 64.22 8.6, 77.73 2.13" stroke="#000000" stroke-width="1" fill="none"></path></g><g transform="translate(293.1672706779093 112.7265625) rotate(0 38.68332762235775 1.0835213198464544)"><path d="M47.65 -6.24 C58.98 -2.79, 72.25 1.01, 78.43 3.24 M49.65 -8.49 C56.64 -3.88, 64.52 -0.55, 77.73 2.13" stroke="#000000" stroke-width="1" fill="none"></path></g></g><g transform="translate(380.2131691154093 103.833984375) rotate(0 106.5 12.5)"><text x="0" y="18" font-family="Virgil, Segoe UI Emoji" font-size="20px" fill="#000000" text-anchor="start" style="white-space: pre;" direction="ltr">"#&lt;foo:0x065b5bd8&gt;"</text></g></svg>