<svg version="1.1" xmlns="http://www.w3.org/2000/svg" viewBox="0 0 1916.4620535714287 1445.801243747253" width="1916.4620535714287" height="1445.801243747253">
  <!-- svg-source:excalidraw -->
  
  <defs>
    <style class="style-fonts">
      @font-face {
        font-family: "Virgil";
        src: url("https://excalidraw.com/Virgil.woff2");
      }
      @font-face {
        font-family: "Cascadia";
        src: url("https://excalidraw.com/Cascadia.woff2");
      }
    </style>
  </defs>
  <rect x="0" y="0" width="1916.4620535714287" height="1445.801243747253" fill="#ffffff"></rect><g transform="translate(23.543526785711492 99.42289553297132) rotate(0 376 10)"><text x="0" y="16" font-family="Cascadia, Segoe UI Emoji" font-size="16px" fill="#000000" text-anchor="start" style="white-space: pre;" direction="ltr">0000 putnil                                                           (   1)[Li]</text></g><g transform="translate(23.543526785711492 129.42289553297132) rotate(0 52.5 10)"><text x="0" y="16" font-family="Cascadia, Segoe UI Emoji" font-size="16px" fill="#000000" text-anchor="start" style="white-space: pre;" direction="ltr">0001 putnil</text></g><g transform="translate(23.543526785711492 159.42289553297132) rotate(0 230.5 10)"><text x="0" y="16" font-family="Cascadia, Segoe UI Emoji" font-size="16px" fill="#000000" text-anchor="start" style="white-space: pre;" direction="ltr">0002 putobject                              false</text></g><g transform="translate(23.543526785711492 189.42289553297132) rotate(0 52.5 10)"><text x="0" y="16" font-family="Cascadia, Segoe UI Emoji" font-size="16px" fill="#000000" text-anchor="start" style="white-space: pre;" direction="ltr">0004 putnil</text></g><g transform="translate(23.543526785711492 219.42289553297132) rotate(0 52.5 10)"><text x="0" y="16" font-family="Cascadia, Segoe UI Emoji" font-size="16px" fill="#000000" text-anchor="start" style="white-space: pre;" direction="ltr">0005 putnil</text></g><g transform="translate(23.543526785711492 249.42289553297132) rotate(0 57.5 10)"><text x="0" y="16" font-family="Cascadia, Segoe UI Emoji" font-size="16px" fill="#000000" text-anchor="start" style="white-space: pre;" direction="ltr">0006 putself</text></g><g transform="translate(23.543526785711492 279.4228955329713) rotate(0 446.5 10)"><text x="0" y="16" font-family="Cascadia, Segoe UI Emoji" font-size="16px" fill="#000000" text-anchor="start" style="white-space: pre;" direction="ltr">0007 opt_send_without_block                 &lt;calldata!mid:foo, argc:0, FCALL|VCALL|ARGS_SIMPLE&gt;</text></g><g transform="translate(23.543526785711492 309.4228955329713) rotate(0 38.5 10)"><text x="0" y="16" font-family="Cascadia, Segoe UI Emoji" font-size="16px" fill="#000000" text-anchor="start" style="white-space: pre;" direction="ltr">0009 dup</text></g><g transform="translate(23.543526785711492 339.4228955329713) rotate(0 230.5 10)"><text x="0" y="16" font-family="Cascadia, Segoe UI Emoji" font-size="16px" fill="#000000" text-anchor="start" style="white-space: pre;" direction="ltr">0010 putstring                              "bar"</text></g><g transform="translate(23.543526785711492 369.4228955329713) rotate(0 212 10)"><text x="0" y="16" font-family="Cascadia, Segoe UI Emoji" font-size="16px" fill="#000000" text-anchor="start" style="white-space: pre;" direction="ltr">0012 dupn                                   2</text></g><g transform="translate(23.543526785711492 399.4228955329713) rotate(0 212 10)"><text x="0" y="16" font-family="Cascadia, Segoe UI Emoji" font-size="16px" fill="#000000" text-anchor="start" style="white-space: pre;" direction="ltr">0014 checkmatch                             2</text></g><g transform="translate(23.543526785711492 429.4228955329713) rotate(0 38.5 10)"><text x="0" y="16" font-family="Cascadia, Segoe UI Emoji" font-size="16px" fill="#000000" text-anchor="start" style="white-space: pre;" direction="ltr">0016 dup</text></g><g transform="translate(23.543526785711492 459.4228955329713) rotate(0 216.5 10)"><text x="0" y="16" font-family="Cascadia, Segoe UI Emoji" font-size="16px" fill="#000000" text-anchor="start" style="white-space: pre;" direction="ltr">0017 branchif                               37</text></g><g stroke-linecap="round" transform="translate(10 84.65727053297223) rotate(0 456.4006696428572 204.50892857142867)"><path d="M32 0 M32 0 C205.63 1.52, 381.06 0.83, 880.8 0 M32 0 C327 -0.81, 621.81 -0.65, 880.8 0 M880.8 0 C900.33 1.9, 911.58 10.45, 912.8 32 M880.8 0 C901.84 -2.1, 914.19 12.5, 912.8 32 M912.8 32 C913.37 108.57, 912.91 183.15, 912.8 377.02 M912.8 32 C912.97 154.37, 913.3 276.36, 912.8 377.02 M912.8 377.02 C911.95 399.68, 904.12 407.07, 880.8 409.02 M912.8 377.02 C912.92 400.28, 904.24 408.39, 880.8 409.02 M880.8 409.02 C638.45 405.66, 394.68 405.36, 32 409.02 M880.8 409.02 C602.8 405.84, 324.63 405.72, 32 409.02 M32 409.02 C9.37 410.57, 1.05 399.9, 0 377.02 M32 409.02 C12.75 410.07, 2.18 397.48, 0 377.02 M0 377.02 C-0.26 280.75, -0.32 184.91, 0 32 M0 377.02 C1.84 269.37, 1.49 161.8, 0 32 M0 32 C1.6 12.16, 10.62 1.38, 32 0 M0 32 C0.25 11.88, 10.97 -2.22, 32 0" stroke="#000000" stroke-width="1" fill="none"></path></g><g transform="translate(24.508928571427077 559.3838330329722) rotate(0 212 10)"><text x="0" y="16" font-family="Cascadia, Segoe UI Emoji" font-size="16px" fill="#000000" text-anchor="start" style="white-space: pre;" direction="ltr">0019 putspecialobject                       1</text></g><g transform="translate(24.508928571427077 589.3838330329722) rotate(0 357.5 10)"><text x="0" y="16" font-family="Cascadia, Segoe UI Emoji" font-size="16px" fill="#000000" text-anchor="start" style="white-space: pre;" direction="ltr">0021 putobject                              "%p === %p does not return true"</text></g><g transform="translate(24.508928571427077 619.3838330329722) rotate(0 212 10)"><text x="0" y="16" font-family="Cascadia, Segoe UI Emoji" font-size="16px" fill="#000000" text-anchor="start" style="white-space: pre;" direction="ltr">0023 topn                                   3</text></g><g transform="translate(24.508928571427077 649.3838330329722) rotate(0 212 10)"><text x="0" y="16" font-family="Cascadia, Segoe UI Emoji" font-size="16px" fill="#000000" text-anchor="start" style="white-space: pre;" direction="ltr">0025 topn                                   5</text></g><g transform="translate(24.508928571427077 679.3838330329722) rotate(0 432.5 10)"><text x="0" y="16" font-family="Cascadia, Segoe UI Emoji" font-size="16px" fill="#000000" text-anchor="start" style="white-space: pre;" direction="ltr">0027 opt_send_without_block                 &lt;calldata!mid:core#sprintf, argc:3, ARGS_SIMPLE&gt;</text></g><g transform="translate(24.508928571427077 709.3838330329722) rotate(0 212 10)"><text x="0" y="16" font-family="Cascadia, Segoe UI Emoji" font-size="16px" fill="#000000" text-anchor="start" style="white-space: pre;" direction="ltr">0029 setn                                   6</text></g><g transform="translate(24.508928571427077 739.3838330329722) rotate(0 230.5 10)"><text x="0" y="16" font-family="Cascadia, Segoe UI Emoji" font-size="16px" fill="#000000" text-anchor="start" style="white-space: pre;" direction="ltr">0031 putobject                              false</text></g><g transform="translate(24.508928571427077 769.3838330329722) rotate(0 212 10)"><text x="0" y="16" font-family="Cascadia, Segoe UI Emoji" font-size="16px" fill="#000000" text-anchor="start" style="white-space: pre;" direction="ltr">0033 setn                                   8</text></g><g transform="translate(24.508928571427077 799.3838330329722) rotate(0 38.5 10)"><text x="0" y="16" font-family="Cascadia, Segoe UI Emoji" font-size="16px" fill="#000000" text-anchor="start" style="white-space: pre;" direction="ltr">0035 pop</text></g><g transform="translate(24.508928571427077 829.3838330329722) rotate(0 38.5 10)"><text x="0" y="16" font-family="Cascadia, Segoe UI Emoji" font-size="16px" fill="#000000" text-anchor="start" style="white-space: pre;" direction="ltr">0036 pop</text></g><g stroke-linecap="round" transform="translate(10.172991071428442 548.1561544615429) rotate(0 445.03627232142844 157.86551339285734)"><path d="M32 0 M32 0 C301.15 1.55, 570.76 1.93, 858.07 0 M32 0 C289.65 2.24, 546.92 1.82, 858.07 0 M858.07 0 C879 1.45, 891.09 11.55, 890.07 32 M858.07 0 C877.96 -1.45, 890.67 12.76, 890.07 32 M890.07 32 C891.63 113.66, 890 193.32, 890.07 283.73 M890.07 32 C891.95 109.8, 891.55 186.37, 890.07 283.73 M890.07 283.73 C888.78 305.66, 881.3 315.62, 858.07 315.73 M890.07 283.73 C890.44 304.22, 879.8 315.56, 858.07 315.73 M858.07 315.73 C623.28 313.98, 389.84 314.08, 32 315.73 M858.07 315.73 C535.26 314.5, 211.92 314.25, 32 315.73 M32 315.73 C12.32 316.97, -0.96 305.14, 0 283.73 M32 315.73 C11.8 314.11, 0.89 307.25, 0 283.73 M0 283.73 C-0.29 205.4, 0.02 127.79, 0 32 M0 283.73 C0.74 201.09, 1.63 118.11, 0 32 M0 32 C1.08 9.87, 10.39 0.07, 32 0 M0 32 C-1.48 10.73, 9.16 2.13, 32 0" stroke="#000000" stroke-width="1" fill="none"></path></g><g transform="translate(969.1238839285688 567.6036991043989) rotate(0 212 10)"><text x="0" y="16" font-family="Cascadia, Segoe UI Emoji" font-size="16px" fill="#000000" text-anchor="start" style="white-space: pre;" direction="ltr">0037 setn                                   2</text></g><g transform="translate(969.1238839285688 597.6036991043989) rotate(0 38.5 10)"><text x="0" y="16" font-family="Cascadia, Segoe UI Emoji" font-size="16px" fill="#000000" text-anchor="start" style="white-space: pre;" direction="ltr">0039 pop</text></g><g transform="translate(969.1238839285688 627.6036991043989) rotate(0 38.5 10)"><text x="0" y="16" font-family="Cascadia, Segoe UI Emoji" font-size="16px" fill="#000000" text-anchor="start" style="white-space: pre;" direction="ltr">0040 pop</text></g><g transform="translate(969.1238839285688 657.6036991043989) rotate(0 216.5 10)"><text x="0" y="16" font-family="Cascadia, Segoe UI Emoji" font-size="16px" fill="#000000" text-anchor="start" style="white-space: pre;" direction="ltr">0041 branchif                               89</text></g><g stroke-linecap="round" transform="translate(949.6372767857117 548.1561544615429) rotate(0 233.0915178571429 69.97209821428532)"><path d="M32 0 M32 0 C157.48 -0.8, 285.1 -1.77, 434.18 0 M32 0 C138.83 -1.57, 244.29 -1.7, 434.18 0 M434.18 0 C455.89 1.14, 466.29 10.96, 466.18 32 M434.18 0 C455.16 1.59, 464.95 12.2, 466.18 32 M466.18 32 C466.33 47.16, 464.77 64.49, 466.18 107.94 M466.18 32 C466.12 58.18, 465.79 82.45, 466.18 107.94 M466.18 107.94 C467.84 130.81, 457.24 141.86, 434.18 139.94 M466.18 107.94 C467.84 128.23, 455.59 141.63, 434.18 139.94 M434.18 139.94 C335.26 140.79, 238.26 139.56, 32 139.94 M434.18 139.94 C273.13 139.58, 112.69 140.57, 32 139.94 M32 139.94 C8.77 138.77, 0.4 128.63, 0 107.94 M32 139.94 C8.5 142.08, -1.88 129.11, 0 107.94 M0 107.94 C-0.89 88.17, -1.59 66.6, 0 32 M0 107.94 C0.25 90.59, 1.25 75.79, 0 32 M0 32 C-0.34 11.76, 9.23 -0.39, 32 0 M0 32 C0.9 12.4, 12.54 -1.13, 32 0" stroke="#000000" stroke-width="1" fill="none"></path></g><g transform="translate(25.27901785714448 954.9139669615429) rotate(0 310.5 10)"><text x="0" y="16" font-family="Cascadia, Segoe UI Emoji" font-size="16px" fill="#000000" text-anchor="start" style="white-space: pre;" direction="ltr">0049 putobject                              NoMatchingPatternError</text></g><g transform="translate(25.27901785714448 984.9139669615429) rotate(0 212 10)"><text x="0" y="16" font-family="Cascadia, Segoe UI Emoji" font-size="16px" fill="#000000" text-anchor="start" style="white-space: pre;" direction="ltr">0051 putspecialobject                       1</text></g><g transform="translate(25.27901785714448 1014.9139669615429) rotate(0 245 10)"><text x="0" y="16" font-family="Cascadia, Segoe UI Emoji" font-size="16px" fill="#000000" text-anchor="start" style="white-space: pre;" direction="ltr">0053 putobject                              "%p: %s"</text></g><g transform="translate(25.27901785714448 1044.9139669615429) rotate(0 212 10)"><text x="0" y="16" font-family="Cascadia, Segoe UI Emoji" font-size="16px" fill="#000000" text-anchor="start" style="white-space: pre;" direction="ltr">0055 topn                                   4</text></g><g transform="translate(25.27901785714448 1074.9139669615429) rotate(0 212 10)"><text x="0" y="16" font-family="Cascadia, Segoe UI Emoji" font-size="16px" fill="#000000" text-anchor="start" style="white-space: pre;" direction="ltr">0057 topn                                   7</text></g><g transform="translate(25.27901785714448 1104.9139669615429) rotate(0 432.5 10)"><text x="0" y="16" font-family="Cascadia, Segoe UI Emoji" font-size="16px" fill="#000000" text-anchor="start" style="white-space: pre;" direction="ltr">0059 opt_send_without_block                 &lt;calldata!mid:core#sprintf, argc:3, ARGS_SIMPLE&gt;</text></g><g transform="translate(25.27901785714448 1134.9139669615429) rotate(0 423 10)"><text x="0" y="16" font-family="Cascadia, Segoe UI Emoji" font-size="16px" fill="#000000" text-anchor="start" style="white-space: pre;" direction="ltr">0061 opt_send_without_block                 &lt;calldata!mid:core#raise, argc:2, ARGS_SIMPLE&gt;</text></g><g transform="translate(25.27901785714448 1164.9139669615429) rotate(0 216.5 10)"><text x="0" y="16" font-family="Cascadia, Segoe UI Emoji" font-size="16px" fill="#000000" text-anchor="start" style="white-space: pre;" direction="ltr">0063 jump                                   85</text></g><g stroke-linecap="round" transform="translate(10 939.0824937472585) rotate(0 443.41796875 131.18582589285688)"><path d="M32 0 M32 0 C212.11 -1.71, 393.44 -1.29, 854.84 0 M32 0 C196.91 -1.92, 362.75 -1.43, 854.84 0 M854.84 0 C875.53 -0.53, 886.98 11.82, 886.84 32 M854.84 0 C877.36 -0.15, 888.52 10.79, 886.84 32 M886.84 32 C887.19 101.03, 886.91 173.77, 886.84 230.37 M886.84 32 C887.31 88.6, 887.44 146.88, 886.84 230.37 M886.84 230.37 C886.71 250.66, 876.75 260.7, 854.84 262.37 M886.84 230.37 C887.15 253.34, 878.42 261.46, 854.84 262.37 M854.84 262.37 C533.61 261.47, 211.4 262.5, 32 262.37 M854.84 262.37 C551.94 263.9, 249.08 264.47, 32 262.37 M32 262.37 C10.18 261.64, 1.91 250.89, 0 230.37 M32 262.37 C12.79 260.65, -0.51 250.6, 0 230.37 M0 230.37 C0.36 157.78, 1.77 84.48, 0 32 M0 230.37 C-0.81 155.4, -1.18 78.59, 0 32 M0 32 C1.13 10.67, 11.7 -1.19, 32 0 M0 32 C-1.6 12.75, 11.75 -2.24, 32 0" stroke="#000000" stroke-width="1" fill="none"></path></g><g transform="translate(949.8939732142858 960.7566008901172) rotate(0 324.5 10)"><text x="0" y="16" font-family="Cascadia, Segoe UI Emoji" font-size="16px" fill="#000000" text-anchor="start" style="white-space: pre;" direction="ltr">0065 putobject                              NoMatchingPatternKeyError</text></g><g transform="translate(949.8939732142858 990.7566008901172) rotate(0 212 10)"><text x="0" y="16" font-family="Cascadia, Segoe UI Emoji" font-size="16px" fill="#000000" text-anchor="start" style="white-space: pre;" direction="ltr">0067 putspecialobject                       1</text></g><g transform="translate(949.8939732142858 1020.7566008901172) rotate(0 245 10)"><text x="0" y="16" font-family="Cascadia, Segoe UI Emoji" font-size="16px" fill="#000000" text-anchor="start" style="white-space: pre;" direction="ltr">0069 putobject                              "%p: %s"</text></g><g transform="translate(949.8939732142858 1050.7566008901172) rotate(0 212 10)"><text x="0" y="16" font-family="Cascadia, Segoe UI Emoji" font-size="16px" fill="#000000" text-anchor="start" style="white-space: pre;" direction="ltr">0071 topn                                   4</text></g><g transform="translate(949.8939732142858 1080.7566008901172) rotate(0 212 10)"><text x="0" y="16" font-family="Cascadia, Segoe UI Emoji" font-size="16px" fill="#000000" text-anchor="start" style="white-space: pre;" direction="ltr">0073 topn                                   7</text></g><g transform="translate(949.8939732142858 1110.7566008901172) rotate(0 432.5 10)"><text x="0" y="16" font-family="Cascadia, Segoe UI Emoji" font-size="16px" fill="#000000" text-anchor="start" style="white-space: pre;" direction="ltr">0075 opt_send_without_block                 &lt;calldata!mid:core#sprintf, argc:3, ARGS_SIMPLE&gt;</text></g><g transform="translate(949.8939732142858 1140.7566008901172) rotate(0 212 10)"><text x="0" y="16" font-family="Cascadia, Segoe UI Emoji" font-size="16px" fill="#000000" text-anchor="start" style="white-space: pre;" direction="ltr">0077 topn                                   7</text></g><g transform="translate(949.8939732142858 1170.7566008901172) rotate(0 212 10)"><text x="0" y="16" font-family="Cascadia, Segoe UI Emoji" font-size="16px" fill="#000000" text-anchor="start" style="white-space: pre;" direction="ltr">0079 topn                                   9</text></g><g transform="translate(949.8939732142858 1200.7566008901172) rotate(0 446.5 10)"><text x="0" y="16" font-family="Cascadia, Segoe UI Emoji" font-size="16px" fill="#000000" text-anchor="start" style="white-space: pre;" direction="ltr">0081 opt_send_without_block                 &lt;calldata!mid:new, argc:3, kw:[matchee,key], KWARG&gt;</text></g><g transform="translate(949.8939732142858 1230.7566008901172) rotate(0 423 10)"><text x="0" y="16" font-family="Cascadia, Segoe UI Emoji" font-size="16px" fill="#000000" text-anchor="start" style="white-space: pre;" direction="ltr">0083 opt_send_without_block                 &lt;calldata!mid:core#raise, argc:1, ARGS_SIMPLE&gt;</text></g><g stroke-linecap="round" transform="translate(933.3370535714284 939.0824937472585) rotate(0 457.24888392857144 164.46707589285734)"><path d="M32 0 M32 0 C275.75 -3.37, 521 -2.86, 882.5 0 M32 0 C265.93 0.95, 499 0.3, 882.5 0 M882.5 0 C903.31 -0.72, 915.22 12.05, 914.5 32 M882.5 0 C905.88 1.07, 914.28 11.45, 914.5 32 M914.5 32 C916.45 114.82, 917.06 197.06, 914.5 296.93 M914.5 32 C916.29 87.46, 915.1 144.76, 914.5 296.93 M914.5 296.93 C915.57 316.41, 902.98 327.34, 882.5 328.93 M914.5 296.93 C913.51 317.77, 905.93 327.61, 882.5 328.93 M882.5 328.93 C578.65 326.47, 275.17 326.42, 32 328.93 M882.5 328.93 C700.59 326.45, 518.8 326.32, 32 328.93 M32 328.93 C9.09 329.26, -1.17 320.12, 0 296.93 M32 328.93 C9.49 329.75, 0.97 319.38, 0 296.93 M0 296.93 C-0.33 210.6, 2.17 125.72, 0 32 M0 296.93 C0.26 200.9, 0.27 105.77, 0 32 M0 32 C-0.36 10.84, 12.62 1.56, 32 0 M0 32 C-0.72 12.78, 11.55 0.31, 32 0" stroke="#000000" stroke-width="1" fill="none"></path></g><g transform="translate(953.9676339285688 1351.2030294615383) rotate(0 212 10)"><text x="0" y="16" font-family="Cascadia, Segoe UI Emoji" font-size="16px" fill="#000000" text-anchor="start" style="white-space: pre;" direction="ltr">0085 adjuststack                            7</text></g><g transform="translate(953.9676339285688 1381.2030294615383) rotate(0 52.5 10)"><text x="0" y="16" font-family="Cascadia, Segoe UI Emoji" font-size="16px" fill="#000000" text-anchor="start" style="white-space: pre;" direction="ltr">0087 putnil</text></g><g transform="translate(953.9676339285688 1411.2030294615383) rotate(0 48 10)"><text x="0" y="16" font-family="Cascadia, Segoe UI Emoji" font-size="16px" fill="#000000" text-anchor="start" style="white-space: pre;" direction="ltr">0088 leave</text></g><g stroke-linecap="round" transform="translate(935.9933035714262 1338.4463330329668) rotate(0 229.07366071428567 48.67745535714312)"><path d="M24.34 0 M24.34 0 C115.46 2.8, 207.3 3.06, 433.81 0 M24.34 0 C107.08 -2.39, 190.04 -1.93, 433.81 0 M433.81 0 C451.89 -0.98, 458 6.9, 458.15 24.34 M433.81 0 C448.41 -1.01, 456.08 7.95, 458.15 24.34 M458.15 24.34 C458.69 41.53, 457.09 57.89, 458.15 73.02 M458.15 24.34 C457.66 38.51, 457.41 53.28, 458.15 73.02 M458.15 73.02 C456.57 91.03, 450.19 98.24, 433.81 97.35 M458.15 73.02 C458.77 90.45, 449.65 98.63, 433.81 97.35 M433.81 97.35 C287.5 96.35, 140.89 96.32, 24.34 97.35 M433.81 97.35 C328.21 97.38, 221.57 97.88, 24.34 97.35 M24.34 97.35 C6.21 97.7, 0.16 89.48, 0 73.02 M24.34 97.35 C8.42 95.66, -1.34 87.67, 0 73.02 M0 73.02 C1.45 55.63, -1.62 38.93, 0 24.34 M0 73.02 C-0.27 61.96, -0.71 49.07, 0 24.34 M0 24.34 C-0.93 8.39, 7.16 0.87, 24.34 0 M0 24.34 C-2.23 7.98, 9.57 -1.17, 24.34 0" stroke="#000000" stroke-width="4" fill="none"></path></g><g transform="translate(1468.2533482142858 783.5970026758255) rotate(0 212 10)"><text x="0" y="16" font-family="Cascadia, Segoe UI Emoji" font-size="16px" fill="#000000" text-anchor="start" style="white-space: pre;" direction="ltr">0089 adjuststack                            6</text></g><g transform="translate(1468.2533482142858 813.5970026758255) rotate(0 52.5 10)"><text x="0" y="16" font-family="Cascadia, Segoe UI Emoji" font-size="16px" fill="#000000" text-anchor="start" style="white-space: pre;" direction="ltr">0091 putnil</text></g><g transform="translate(1468.2533482142858 843.5970026758255) rotate(0 48 10)"><text x="0" y="16" font-family="Cascadia, Segoe UI Emoji" font-size="16px" fill="#000000" text-anchor="start" style="white-space: pre;" direction="ltr">0092 leave</text></g><g stroke-linecap="round" transform="translate(1453.1026785714287 772.2744580329677) rotate(0 226.6796875 49.34988839285688)"><path d="M24.67 0 M24.67 0 C174.26 1.52, 321.59 2.06, 428.68 0 M24.67 0 C116.91 -0.63, 208.68 -1.09, 428.68 0 M428.68 0 C446.68 0.84, 452.99 6.73, 453.36 24.67 M428.68 0 C443.49 0.74, 453.7 6.39, 453.36 24.67 M453.36 24.67 C453 38.36, 454.69 46.56, 453.36 74.02 M453.36 24.67 C454.11 34.51, 452.91 44.62, 453.36 74.02 M453.36 74.02 C454.18 91.41, 444.9 98.3, 428.68 98.7 M453.36 74.02 C453.66 90.45, 446.39 96.89, 428.68 98.7 M428.68 98.7 C267.18 95.91, 106.61 95.73, 24.67 98.7 M428.68 98.7 C286.58 98.37, 144.96 97.93, 24.67 98.7 M24.67 98.7 C8.88 98.38, -0.85 91.85, 0 74.02 M24.67 98.7 C9.78 100.15, 0.58 91.94, 0 74.02 M0 74.02 C-1.17 58.91, -0.36 47.64, 0 24.67 M0 74.02 C-0.64 54.03, 0.45 35.12, 0 24.67 M0 24.67 C-1.46 7.63, 8.82 -1.6, 24.67 0 M0 24.67 C-0.19 7.57, 10.08 -1.85, 24.67 0" stroke="#000000" stroke-width="4" fill="none"></path></g><g stroke-linecap="round"><g transform="translate(467.9404133704911 494.6751276758296) rotate(0 0.9897157237476222 26.09730557980197)"><path d="M-0.46 -0.79 C-0.27 8.01, 0.03 44.14, 0.07 52.98 M1.5 1.41 C2.18 9.83, 2.32 42.45, 2.44 51.12" stroke="#000000" stroke-width="1" fill="none"></path></g><g transform="translate(467.9404133704911 494.6751276758296) rotate(0 0.9897157237476222 26.09730557980197)"><path d="M-8.09 25.47 C-3.97 30.19, -3.27 38.04, 2.41 50.12 M-7.35 27.15 C-4.97 31.28, -3.45 36.66, 1.71 52.06" stroke="#000000" stroke-width="1" fill="none"></path></g><g transform="translate(467.9404133704911 494.6751276758296) rotate(0 0.9897157237476222 26.09730557980197)"><path d="M9.86 25.29 C10.23 29.99, 7.17 37.87, 2.41 50.12 M10.6 26.97 C9.04 30.98, 6.62 36.41, 1.71 52.06" stroke="#000000" stroke-width="1" fill="none"></path></g></g><mask></mask><g stroke-linecap="round"><g transform="translate(814.7600446428605 493.82579731868054) rotate(0 188.54764869440157 26.205940555071948)"><path d="M-1.09 -0.43 C6.1 3.62, -14.11 19.37, 41.97 23.33 C98.06 27.29, 279.42 18.31, 335.44 23.34 C391.46 28.37, 371.13 48.36, 378.09 53.5 M0.54 -1.7 C7.68 2.06, -14.62 17.55, 41.01 21.42 C96.64 25.29, 278.13 16.08, 334.32 21.52 C390.52 26.97, 370.77 48.61, 378.18 54.11" stroke="#000000" stroke-width="1" fill="none"></path></g><g transform="translate(814.7600446428605 493.82579731868054) rotate(0 188.54764869440157 26.205940555071948)"><path d="M362.58 32.1 C366.81 35.58, 370.79 40.64, 376.59 52.19 M363.33 32.67 C368.56 38.01, 371.7 43.46, 378.05 53.45" stroke="#000000" stroke-width="1" fill="none"></path></g><g transform="translate(814.7600446428605 493.82579731868054) rotate(0 188.54764869440157 26.205940555071948)"><path d="M380.19 27.66 C380.83 31.88, 381.26 37.84, 376.59 52.19 M380.93 28.24 C381.25 34.99, 379.44 41.69, 378.05 53.45" stroke="#000000" stroke-width="1" fill="none"></path></g></g><mask></mask><g stroke-linecap="round"><g transform="translate(459.2945653222432 869.043431247253) rotate(0 -0.28080147358605245 33.79474401383777)"><path d="M0.25 0.38 C0.15 11.29, -1.4 55.52, -1.38 66.64 M-1.07 -0.47 C-0.74 11.13, 0.64 56.57, 0.82 68.06" stroke="#000000" stroke-width="1" fill="none"></path></g><g transform="translate(459.2945653222432 869.043431247253) rotate(0 -0.28080147358605245 33.79474401383777)"><path d="M-9.49 38.48 C-7.63 47.97, -4.32 54.08, 2.27 66.07 M-9.12 40.03 C-8.8 46.58, -5.05 52.5, 0.17 68.39" stroke="#000000" stroke-width="1" fill="none"></path></g><g transform="translate(459.2945653222432 869.043431247253) rotate(0 -0.28080147358605245 33.79474401383777)"><path d="M11.03 37.99 C8.03 47.64, 6.48 53.86, 2.27 66.07 M11.4 39.54 C7.33 46, 6.69 52.03, 0.17 68.39" stroke="#000000" stroke-width="1" fill="none"></path></g></g><mask></mask><g transform="translate(964.3191964285718 777.7543687472557) rotate(0 212 10)"><text x="0" y="16" font-family="Cascadia, Segoe UI Emoji" font-size="16px" fill="#000000" text-anchor="start" style="white-space: pre;" direction="ltr">0043 putspecialobject                       1</text></g><g transform="translate(964.3191964285718 807.7543687472557) rotate(0 212 10)"><text x="0" y="16" font-family="Cascadia, Segoe UI Emoji" font-size="16px" fill="#000000" text-anchor="start" style="white-space: pre;" direction="ltr">0045 topn                                   4</text></g><g transform="translate(964.3191964285718 837.7543687472557) rotate(0 216.5 10)"><text x="0" y="16" font-family="Cascadia, Segoe UI Emoji" font-size="16px" fill="#000000" text-anchor="start" style="white-space: pre;" direction="ltr">0047 branchif                               65</text></g><g stroke-linecap="round" transform="translate(949.6372767857117 769.6070473186696) rotate(0 233.7890625 49.16294642857156)"><path d="M24.58 0 M24.58 0 C179.81 0.3, 334.8 -0.7, 443 0 M24.58 0 C156.23 0.28, 288.02 0.37, 443 0 M443 0 C458.11 0.5, 465.98 9.66, 467.58 24.58 M443 0 C457.22 2.05, 467.74 6.34, 467.58 24.58 M467.58 24.58 C469.25 41.74, 469.13 54.69, 467.58 73.74 M467.58 24.58 C467.18 36.43, 468.41 48.24, 467.58 73.74 M467.58 73.74 C469.04 88.99, 458.86 97.17, 443 98.33 M467.58 73.74 C465.3 89.02, 458.74 96.37, 443 98.33 M443 98.33 C302.24 98.69, 160.05 99.28, 24.58 98.33 M443 98.33 C311.72 100.73, 181.38 100.44, 24.58 98.33 M24.58 98.33 C9.13 98.32, 0.26 92.05, 0 73.74 M24.58 98.33 C10.24 98.73, 1.81 90.75, 0 73.74 M0 73.74 C0.12 60.99, 0.31 47.9, 0 24.58 M0 73.74 C0.49 60.59, -0.53 49.57, 0 24.58 M0 24.58 C-0.25 9.75, 10.09 -0.7, 24.58 0 M0 24.58 C-1.16 9.91, 6.41 0.1, 24.58 0" stroke="#000000" stroke-width="1" fill="none"></path></g><g stroke-linecap="round"><g transform="translate(1181.6796874999945 693.6583866043843) rotate(0 0.36965837897764686 35.45240588523848)"><path d="M0.68 0.54 C0.98 12.22, 1.22 58.43, 1.16 70.02 M-0.43 -0.22 C-0.23 11.6, -0.39 59.25, 0.13 71.12" stroke="#000000" stroke-width="1" fill="none"></path></g><g transform="translate(1181.6796874999945 693.6583866043843) rotate(0 0.36965837897764686 35.45240588523848)"><path d="M-9.7 42.86 C-9.38 48.2, -6.67 55.82, 0.49 72.83 M-10.28 43.05 C-8.27 50.86, -3.75 57.85, -0.33 72.09" stroke="#000000" stroke-width="1" fill="none"></path></g><g transform="translate(1181.6796874999945 693.6583866043843) rotate(0 0.36965837897764686 35.45240588523848)"><path d="M10.82 42.51 C6.14 48.05, 3.86 55.76, 0.49 72.83 M10.24 42.7 C6.51 50.69, 5.27 57.78, -0.33 72.09" stroke="#000000" stroke-width="1" fill="none"></path></g></g><mask></mask><g stroke-linecap="round"><g transform="translate(1176.3225446428532 870.1092794615247) rotate(0 -0.35430189677049384 28.439036872450743)"><path d="M-1.15 -0.91 C-1.12 8.77, -0.17 48.03, 0 57.78 M0.44 1.23 C0.34 10.59, -0.71 47, -0.94 56.05" stroke="#000000" stroke-width="1" fill="none"></path></g><g transform="translate(1176.3225446428532 870.1092794615247) rotate(0 -0.35430189677049384 28.439036872450743)"><path d="M-11.47 29 C-6.23 36.49, -3.96 43.46, -0.74 54.54 M-9.16 29.48 C-7.19 39.33, -2.67 49.82, -0.31 56.4" stroke="#000000" stroke-width="1" fill="none"></path></g><g transform="translate(1176.3225446428532 870.1092794615247) rotate(0 -0.35430189677049384 28.439036872450743)"><path d="M8.03 29.54 C7.76 36.69, 4.52 43.51, -0.74 54.54 M10.34 30.02 C4.93 39.5, 2.09 49.78, -0.31 56.4" stroke="#000000" stroke-width="1" fill="none"></path></g></g><mask></mask><g stroke-linecap="round"><g transform="translate(994.9218749999959 872.7655294615247) rotate(0 -132.809556499373 29.685499394178805)"><path d="M-1.04 -1.13 C-6.47 4.03, 5.73 25.45, -33.69 30.18 C-73.11 34.91, -198.82 22.29, -237.58 27.24 C-276.34 32.19, -261.5 54.36, -266.24 59.87 M0.62 0.89 C-4.31 5.76, 8.46 23.7, -31.28 28.28 C-71.03 32.87, -198.79 23.03, -237.86 28.4 C-276.93 33.77, -260.85 55.16, -265.72 60.5" stroke="#000000" stroke-width="1" fill="none"></path></g><g transform="translate(994.9218749999959 872.7655294615247) rotate(0 -132.809556499373 29.685499394178805)"><path d="M-273.11 38.43 C-269.53 45.36, -269.59 49.04, -267.22 61.76 M-270.65 39.25 C-268.83 45.88, -267.74 50.43, -265.57 59.7" stroke="#000000" stroke-width="1" fill="none"></path></g><g transform="translate(994.9218749999959 872.7655294615247) rotate(0 -132.809556499373 29.685499394178805)"><path d="M-258.26 39.82 C-257.74 46.34, -260.88 49.73, -267.22 61.76 M-255.8 40.65 C-257.88 46.87, -260.69 51.05, -265.57 59.7" stroke="#000000" stroke-width="1" fill="none"></path></g></g><mask></mask><g stroke-linecap="round"><g transform="translate(1270.6640624999984 690.0255741043816) rotate(0 185.31822146389197 38.79049653431912)"><path d="M-0.17 -1.12 C6.31 5.39, -13.84 32.61, 39.26 39.67 C92.36 46.74, 262.92 34.95, 318.4 41.27 C373.89 47.58, 363.39 71.32, 372.19 77.55 M-1.72 0.91 C4.52 7.04, -15.68 31.14, 38.06 37.99 C91.8 44.85, 264.99 35.25, 320.71 42.03 C376.43 48.81, 363.68 73.04, 372.36 78.7" stroke="#000000" stroke-width="1" fill="none"></path></g><g transform="translate(1270.6640624999984 690.0255741043816) rotate(0 185.31822146389197 38.79049653431912)"><path d="M348.92 57.04 C359.46 62.94, 363.48 71.49, 372.5 76.75 M350.03 58.82 C358.52 66.59, 367.54 74.9, 372.61 78.95" stroke="#000000" stroke-width="1" fill="none"></path></g><g transform="translate(1270.6640624999984 690.0255741043816) rotate(0 185.31822146389197 38.79049653431912)"><path d="M367.37 48.05 C371.82 56.91, 369.71 68.45, 372.5 76.75 M368.47 49.83 C369.65 61.29, 371.34 73.17, 372.61 78.95" stroke="#000000" stroke-width="1" fill="none"></path></g></g><mask></mask><g stroke-linecap="round"><g transform="translate(468.0301339285693 10.583609818667355) rotate(0 1.2366620428708757 36.53900967085406)"><path d="M0.86 -0.58 C1.36 11.63, 2.27 60.09, 2.63 72.2 M-0.15 1.72 C0.2 14.23, 1.15 61.74, 1.56 73.66" stroke="#000000" stroke-width="1" fill="none"></path></g><g transform="translate(468.0301339285693 10.583609818667355) rotate(0 1.2366620428708757 36.53900967085406)"><path d="M-10.41 45.37 C-6.97 53.38, -4.23 60.62, 3.38 75.12 M-10.29 46.66 C-6.13 54.69, -2.62 64.81, 1.07 73.87" stroke="#000000" stroke-width="1" fill="none"></path></g><g transform="translate(468.0301339285693 10.583609818667355) rotate(0 1.2366620428708757 36.53900967085406)"><path d="M10.11 44.83 C8.02 53.13, 5.24 60.52, 3.38 75.12 M10.22 46.13 C7.23 54.44, 3.56 64.75, 1.07 73.87" stroke="#000000" stroke-width="1" fill="none"></path></g></g><mask></mask><g stroke-linecap="round"><g transform="translate(446.7075892857092 1206.6494580329495) rotate(0 288.62991430149134 64.1493725130349)"><path d="M0.47 -1.19 C11.48 13.98, -17.94 74.66, 65.99 91.73 C149.92 108.79, 418.77 95, 504.07 101.2 C589.36 107.4, 565.51 123.98, 577.76 128.91 M-0.75 0.79 C10.15 16.11, -19.28 76.83, 65.24 93.23 C149.76 109.64, 420.92 93.18, 506.38 99.23 C591.84 105.27, 566.41 124.09, 578.01 129.49" stroke="#000000" stroke-width="1" fill="none"></path></g><g transform="translate(446.7075892857092 1206.6494580329495) rotate(0 288.62991430149134 64.1493725130349)"><path d="M553.15 110.72 C561.86 113.84, 569.85 121.41, 576.36 129.13 M554.52 110.9 C562.69 117.54, 572.13 124.76, 577.06 130.28" stroke="#000000" stroke-width="1" fill="none"></path></g><g transform="translate(446.7075892857092 1206.6494580329495) rotate(0 288.62991430149134 64.1493725130349)"><path d="M570.98 100.56 C574.51 106.73, 577.27 117.29, 576.36 129.13 M572.35 100.74 C573.82 111.32, 576.58 122.35, 577.06 130.28" stroke="#000000" stroke-width="1" fill="none"></path></g></g><mask></mask><g stroke-linecap="round"><g transform="translate(1135.3627232142805 1272.765529461521) rotate(0 0.3977183913546014 29.195049434793418)"><path d="M-0.77 -0.72 C-0.41 9.13, 1.03 49.37, 1.57 59.11 M1.02 1.52 C1.27 11.03, 0.35 47.89, 0.53 57.43" stroke="#000000" stroke-width="1" fill="none"></path></g><g transform="translate(1135.3627232142805 1272.765529461521) rotate(0 0.3977183913546014 29.195049434793418)"><path d="M-10.49 29.69 C-5.44 38.01, -5.32 43.42, -0.96 58.49 M-8.68 29.74 C-5.79 38.56, -2.92 46.44, 0.48 58.11" stroke="#000000" stroke-width="1" fill="none"></path></g><g transform="translate(1135.3627232142805 1272.765529461521) rotate(0 0.3977183913546014 29.195049434793418)"><path d="M9.44 29.79 C9.57 37.96, 4.76 43.35, -0.96 58.49 M11.25 29.84 C7.89 38.81, 4.51 46.65, 0.48 58.11" stroke="#000000" stroke-width="1" fill="none"></path></g></g><mask></mask></svg>