<svg version="1.1" xmlns="http://www.w3.org/2000/svg" viewBox="0 0 488.2359232462943 291.1796875" width="488.2359232462943" height="291.1796875">
  <!-- svg-source:excalidraw -->
  
  <defs>
    <style class="style-fonts">
      @font-face {
        font-family: "Virgil";
        src: url("https://excalidraw.com/Virgil.woff2");
      }
      @font-face {
        font-family: "Cascadia";
        src: url("https://excalidraw.com/Cascadia.woff2");
      }
    </style>
  </defs>
  <rect x="0" y="0" width="488.2359232462943" height="291.1796875" fill="#ffffff"></rect><g stroke-linecap="round" transform="translate(101.77264645105708 220.1875) rotate(0 30.92578125 27.623046875)"><path d="M0 0 C0 0, 0 0, 0 0 M0 0 C0 0, 0 0, 0 0 M-0.7 5.95 C2.03 4.99, 2.67 3.57, 4.35 -0.03 M-0.63 6.03 C1.37 4.32, 2.62 2.53, 5.33 0.73 M-0.97 11.67 C2.79 10.64, 5.63 6.56, 10.3 0.38 M0.22 11.32 C3.46 9.6, 5.11 6.83, 10.11 -0.15 M1.03 17.12 C4.77 15.31, 8.38 10.28, 15.15 -1.37 M0.36 18.8 C6.66 11.5, 12.4 4.73, 16.24 0.82 M-1.3 24.9 C7.31 14.37, 13.33 7.5, 23.13 -0.43 M-0.41 23.8 C6.12 17.45, 11.77 11.77, 22.11 -0.19 M1.74 30.49 C5.49 25.21, 11.78 18.75, 27.17 0.28 M0.7 29.53 C8.99 21.54, 16.23 10.82, 26.73 0.1 M-2.22 38.44 C6.79 29.76, 10.86 22.28, 30.01 0.54 M0.23 36.34 C8.57 25.95, 19.58 13.46, 31 0.88 M-1.45 42.16 C12.31 28.79, 20.28 16.88, 35.21 -1.35 M-0.67 42.02 C13.72 26.32, 28.55 11, 37.09 -0.53 M-1.72 47.77 C13.46 34.91, 27.48 16.57, 40.81 -1.03 M0.61 48.22 C13.2 33.78, 25.98 18.62, 42.56 -0.53 M-1.35 54.48 C13.32 42.58, 21.66 29.02, 46.43 -0.38 M-0.46 55.36 C17.96 35.45, 35.4 15.53, 47.87 0.98 M2.58 59.23 C14.79 42.77, 27.5 27.18, 54.91 0.03 M2.63 57.84 C17.45 41.35, 32.57 22.24, 52.48 0.74 M6.56 58.31 C24.15 35.98, 44.96 16.38, 59.43 0.64 M8.25 58.26 C25.1 37.73, 44.24 18.08, 58.4 0.39 M11.8 59 C31.68 35.77, 52.5 16.13, 64.48 -0.79 M14.23 57.57 C27.43 41.04, 43.76 23.25, 63.58 1.33 M19.09 57.16 C35.53 39.75, 50.28 20.84, 62.35 5.51 M19.08 57.27 C31.21 43.94, 42.81 30.95, 62.88 6 M25.34 55.87 C34.98 44.57, 42.57 34.71, 61.94 12.09 M23.03 58.58 C35.24 43.41, 48.62 30.1, 63.27 13.17 M29.14 57.08 C36.34 47.9, 46.69 38.18, 61.99 17.27 M30.03 56.63 C39.9 45.47, 50.97 32.38, 63.53 19.5 M33.94 57.18 C39.9 49.82, 46.81 45.1, 62.13 23.71 M35.31 58.69 C43.19 47.5, 52.54 37.22, 63.72 24.72 M41.65 58.67 C48.31 47, 57.97 37.7, 63.84 30.79 M39.49 58.29 C48.33 48.49, 56.89 37.1, 62.6 30.53 M43.77 57.78 C52.22 48.51, 57.8 44.16, 61.55 38.23 M46.1 57.46 C48.41 54.04, 53.97 48.81, 63.12 36.8 M50.99 56.22 C54.36 53.47, 56.03 51.14, 63.52 42.63 M51.58 56.95 C52.58 54.5, 56.26 52.13, 61.97 44.43 M56.14 56.87 C58.01 55.54, 58.44 54.36, 62.87 49 M55.49 57.99 C58.55 54.93, 60.72 51.45, 62.47 49.84" stroke="#228be6" stroke-width="0.5" fill="none"></path><path d="M-0.32 -0.76 C17.8 -1.34, 36.78 1.49, 60.47 1.8 M0.39 0.2 C23.32 -0.53, 45.95 -0.4, 60.91 0.61 M63.43 0.48 C59.96 17.88, 63.1 34.5, 61.16 55.49 M61.35 -0.99 C63.2 12.88, 62.92 26.7, 62.33 55.55 M61.48 56.15 C43.22 54, 24.57 53.31, 0.31 56.53 M62.68 55.25 C38.87 55.14, 16.88 56.63, -0.09 56.11 M-1.32 56.61 C-1.15 40.6, -0.54 24.68, 1.29 -0.59 M0.72 54.85 C-0.57 35.62, 1.26 14.64, 0.22 0.49" stroke="#000000" stroke-width="1" fill="none"></path></g><g transform="translate(124.69842770105708 235.310546875) rotate(0 8 12.5)"><text x="8" y="18" font-family="Virgil, Segoe UI Emoji" font-size="20px" fill="#000000" text-anchor="middle" style="white-space: pre;" direction="ltr">3</text></g><g stroke-linecap="round" transform="translate(100.58514645105708 18.021484375) rotate(0 30.92578125 27.623046875)"><path d="M-0.62 -1.42 C17.67 1.65, 34.09 2.03, 63.16 -0.92 M0.7 0 C24.58 0, 46.77 0.48, 62.01 -0.83 M60.42 0.41 C64 14.75, 61.59 30.64, 60.54 56.97 M62.73 -0.06 C62.17 21.07, 62.05 40.82, 61.82 55.21 M61.59 54.24 C45.17 53.83, 29.85 56.81, 1.13 54.18 M60.92 54.72 C38.28 56.22, 16.39 56.11, -0.14 54.87 M-1.36 56.39 C-0.38 38.34, 1.66 18.85, 1.32 -1 M-0.85 55.85 C0.58 41.83, -0.18 29.21, 0.14 0.97" stroke="#000000" stroke-width="1" fill="none"></path></g><g stroke-linecap="round" transform="translate(94.10467770105708 10) rotate(0 37.556640625 135.58984375)"><path d="M-1.42 -0.06 C22.73 -1.15, 44.43 1.55, 74.19 1.71 M0 0.72 C25.56 -1.47, 51.47 -0.37, 74.28 -0.25 M75.43 1.34 C75.28 102.23, 75.82 204.52, 76.46 272.22 M75.07 0.47 C73.64 68.1, 73.24 135.44, 75.09 270.88 M74.11 270.66 C52.27 271.39, 34.1 272.21, -1.07 272.52 M74.59 270.29 C47.36 270.39, 18.53 270.33, -0.38 271.42 M0.89 270.6 C-0.67 208.68, -1.91 145.2, -0.78 -0.94 M0.47 271.95 C0.71 170.47, 1.22 69.53, 0.76 0.56" stroke="#000000" stroke-width="1" fill="none"></path></g><g stroke-linecap="round" transform="translate(100.67342324629442 151.94140625) rotate(0 30.92578125 27.623046875)"><path d="M0 0 C0 0, 0 0, 0 0 M0 0 C0 0, 0 0, 0 0 M-0.89 6.84 C2.07 5.17, 3.19 2.93, 4.63 0.95 M-0.12 6.09 C0.8 4.8, 2.12 3.08, 4.81 0.16 M1.27 10.75 C4.74 6.75, 8.2 5.1, 9.26 -0.76 M0.88 11.61 C2.63 8.68, 6.43 6.5, 10.45 0.08 M0.85 17.64 C6.88 12.71, 11.59 5.72, 13.65 2.23 M0.57 17.7 C4.51 13.64, 9.8 7.89, 16.5 -0.1 M1.15 25.13 C4.03 18.56, 9.37 14.06, 19.85 1.31 M0.89 24.23 C7.83 16.97, 13.22 8.25, 21.83 -0.17 M-0.95 30.74 C5.39 21.15, 14.24 13.92, 27.91 -1.22 M-0.69 30.53 C6.57 24.9, 11.02 16.58, 25.66 -0.37 M-0.45 38.55 C12.91 22.48, 25.08 11.37, 30.65 1.2 M-0.51 36.39 C6.36 28.49, 14.04 20.99, 31.64 0.3 M-1.5 42.68 C13.87 26.9, 27.91 11.57, 36.53 -1.13 M0.34 42.41 C12 28.75, 22.52 16.97, 37.33 0.35 M0.99 47.3 C9.66 37.34, 23.04 23.61, 43.2 1.41 M0.85 48.42 C11.86 35.01, 24.75 20, 42.27 -0.08 M-1.68 54.87 C19.36 31.36, 37.28 14.02, 48.64 1.44 M-0.52 54.39 C17.51 35.43, 33.98 13.71, 47.58 1.07 M1.78 58.82 C20.33 37.59, 38.01 16.78, 52.82 -1.85 M2.39 57.68 C19.77 38.49, 36.02 19.94, 53.96 -0.16 M6.97 57.21 C24.68 38.01, 39.24 21.87, 56.77 0.98 M8.19 57.17 C21.39 43.16, 32.99 28.17, 57.28 0.54 M12.97 56.33 C27.4 44.4, 37.71 28.05, 63.61 1.96 M13.59 57.51 C23.95 45.12, 36.33 30.2, 64.03 0.64 M17.2 56.29 C32.14 43.48, 41.68 31.93, 62.99 6.37 M18.61 57.25 C30.94 41.87, 44.25 27.21, 62.18 6 M23.91 57.69 C31.93 47.61, 39.52 39.89, 63.93 11.52 M23.6 58.05 C36.53 44.31, 46.71 29.95, 62.44 14.22 M29.83 57.22 C37.59 50.58, 44.08 41.7, 64.04 17.72 M29.26 56.85 C38.5 47.15, 50.06 34.51, 62 18.14 M35.28 59.29 C44.54 47.72, 53.78 34.3, 64.57 26.9 M34.22 58.09 C41.13 52.11, 45.66 44.78, 61.91 25.04 M41.76 55.66 C48.91 47.25, 58.61 36.21, 63.36 30.93 M41.09 57.88 C46.76 48.57, 54.63 40.22, 62.54 31.55 M43.17 57.07 C48.45 50.47, 54.77 46.7, 61.95 39.33 M46.03 58.17 C52.13 51.13, 57.47 42.17, 63.12 37.85 M51.26 56.89 C55.75 53.51, 56.42 50.69, 62.59 43.56 M50.81 57.01 C54.69 52.8, 59.27 47.74, 63.08 44.52 M55.42 58.19 C57.98 54.28, 61.23 51.49, 62.77 49.13 M56.12 58.18 C58.61 54.55, 61.76 51.1, 63.11 49.42" stroke="#228be6" stroke-width="0.5" fill="none"></path><path d="M-1.8 -1.69 C16.69 0.8, 31.67 0.51, 61.09 -1.03 M-0.64 0.02 C13.61 0.72, 27.02 0.59, 61.88 -0.01 M62.25 -1.69 C60.64 20.86, 61.58 42.57, 63.78 56.59 M61.03 -0.32 C61.02 13.2, 62.54 24.89, 61.11 55 M60.25 55.49 C39.68 55.16, 13.22 57.49, 0.9 55.89 M60.87 54.28 C39.55 55.81, 16.7 54.75, 0.49 56.05 M-0.81 54.97 C0.17 41.47, -1.23 27.39, -1.32 1.36 M-0.01 55.56 C1.1 43.68, 0.91 31.94, 0.94 -0.49" stroke="#000000" stroke-width="1" fill="none"></path></g><g transform="translate(123.59920449629442 167.064453125) rotate(0 8 12.5)"><text x="8" y="18" font-family="Virgil, Segoe UI Emoji" font-size="20px" fill="#000000" text-anchor="middle" style="white-space: pre;" direction="ltr">2</text></g><g stroke-linecap="round" transform="translate(101.32576699629442 83.83203125) rotate(0 30.92578125 27.623046875)"><path d="M0 0 C0 0, 0 0, 0 0 M0 0 C0 0, 0 0, 0 0 M-0.27 6.59 C2.07 3.88, 3.61 2.32, 5.25 0.04 M-0.41 6.76 C0.78 5.07, 2.05 3.68, 4.64 0.12 M1.06 12.14 C3.8 7.24, 9.04 4.17, 10.15 -0.45 M-0.17 11.49 C1.99 8.33, 5.41 5.49, 10.64 -0.11 M-0.51 19.77 C3.15 12.85, 10.36 8.88, 15.02 0.68 M-0.41 18.28 C6.76 10.57, 11.21 4.01, 15.77 0.2 M-0.19 25.13 C6.29 15.39, 14.94 5.99, 20.7 -1.32 M-0.26 23.08 C3.69 19.28, 8.26 14.35, 21.64 0.66 M-0.45 32.32 C8.93 19.83, 15.55 12.84, 25.63 0.81 M0.02 29.65 C9.89 19.17, 20.97 6.64, 27.05 -0.6 M-1.92 37.11 C9.89 25.58, 20.65 12.71, 33.73 0.77 M0.04 36.29 C6.8 29.44, 12.08 22.84, 30.9 -0.47 M0.51 41.61 C10.11 34.91, 14.19 26.15, 38.62 0.99 M-0.65 42.77 C12.7 28.39, 25.26 13.25, 37.13 -0.03 M1.32 48.9 C15.9 31.56, 33.47 9.69, 42.55 -1.02 M-0.27 49.44 C12.25 35.66, 22.4 22.21, 42.19 0.24 M-1.42 54.14 C13.42 40.72, 26.01 22.74, 48.72 1.72 M-0.04 54.76 C13.73 39.69, 27.88 23.04, 47.91 -0.7 M0.97 55.97 C11.81 46.25, 26.08 32.35, 52.17 0.01 M3.31 57.06 C20.14 37.21, 40.36 14.16, 53.01 0.33 M9.38 56.82 C27.09 34.79, 48.98 12.66, 56.2 -1.1 M7.84 57.47 C22.24 40.54, 38.08 22.63, 57.98 -0.43 M13.32 57.43 C27.17 42.45, 40.82 27.38, 62.51 0.75 M13.24 58.65 C27.45 38.74, 44.28 21.05, 63.9 -0.13 M18.99 57.07 C32.7 44.09, 44.1 26.98, 61.02 6.68 M19.58 57.63 C27.5 46.95, 37.66 35.79, 62.74 6.53 M23.08 58.97 C37.54 41.77, 51.06 25.59, 63.85 14.09 M23.59 57.6 C39.93 39.62, 55.34 22.09, 61.96 13.27 M27.65 56.71 C41.21 43.85, 57.71 27.96, 63.89 18.35 M30.1 56.73 C37.99 48.76, 45.26 39.77, 63.56 18.39 M36.44 56.61 C42.97 50.54, 50.29 42.01, 63.03 26.21 M35.02 57.02 C39.35 51, 46.19 44.68, 62.97 24.57 M41.81 56.03 C44.76 50.38, 50.31 47.54, 62.39 30.86 M40.69 57.03 C48.9 47.94, 55.58 38.64, 63.78 30.4 M45.09 57.84 C52.91 49.33, 55.76 45.11, 62.66 38.32 M44.91 58.8 C52.58 49.53, 60.19 41.19, 62.66 37.2 M51.4 56.78 C56.24 54.08, 57.85 48.53, 62.41 42.73 M50.37 56.64 C54.65 52.04, 59.48 47.58, 62.25 44.53 M54.99 57.66 C58.53 54.79, 60.93 51.96, 62.21 48.83 M55.55 57.68 C57.92 55.64, 60.17 53.21, 63.06 49.54" stroke="#228be6" stroke-width="0.5" fill="none"></path><path d="M0.72 -0.34 C17.51 0.08, 38.81 0.6, 62.27 -0.22 M0.73 0.45 C23.06 -0.27, 45.93 0.55, 62.41 -0.81 M62.71 0.68 C63.84 12.35, 61.42 23.39, 63.8 54.25 M61.83 -0.25 C62.13 12.36, 61.81 23.62, 60.88 55.4 M63.6 56.38 C42.33 56.71, 20.45 56.12, -1.58 54.91 M61.08 55.32 C44.7 55.18, 26.52 54.02, -0.43 55.69 M-0.43 54.91 C-1.64 38.67, -0.25 21.26, -0.5 -0.52 M0.8 56.05 C0.01 37.52, -0.77 19.1, -0.65 -0.17" stroke="#000000" stroke-width="1" fill="none"></path></g><g transform="translate(128.75154824629442 98.955078125) rotate(0 3.5 12.5)"><text x="3.5" y="18" font-family="Virgil, Segoe UI Emoji" font-size="20px" fill="#000000" text-anchor="middle" style="white-space: pre;" direction="ltr">1</text></g><g stroke-linecap="round"><g transform="translate(10.677329496294305 46.72198408572467) rotate(0 38.571197955267735 -0.1616031524098389)"><path d="M-0.68 -0.17 C12.09 -0.15, 64.77 1.08, 77.82 1.08 M1.17 -1.31 C13.73 -1.68, 64.54 -0.87, 77.19 -0.47" stroke="#000000" stroke-width="1" fill="none"></path></g><g transform="translate(10.677329496294305 46.72198408572467) rotate(0 38.571197955267735 -0.1616031524098389)"><path d="M48.5 10.19 C61.84 6.14, 71.08 2.74, 76.47 -0.92 M47.82 8.53 C56.54 7.3, 65.06 3.42, 77.11 -0.91" stroke="#000000" stroke-width="1" fill="none"></path></g><g transform="translate(10.677329496294305 46.72198408572467) rotate(0 38.571197955267735 -0.1616031524098389)"><path d="M48.94 -10.33 C62.28 -6.19, 71.33 -1.4, 76.47 -0.92 M48.26 -11.99 C57.06 -7.54, 65.46 -5.73, 77.11 -0.91" stroke="#000000" stroke-width="1" fill="none"></path></g></g><g stroke-linecap="round" transform="translate(277.54171078111995 220.1875) rotate(0 30.92578125 27.623046875)"><path d="M0 0 C0 0, 0 0, 0 0 M0 0 C0 0, 0 0, 0 0 M-0.01 6.01 C1.32 4.5, 3.59 2.7, 5.41 1.04 M-0.43 6.1 C1.47 4.13, 3.62 2.12, 4.67 0.62 M-0.97 13.19 C1.33 10.66, 4.09 6.07, 10.55 1.53 M-0.3 11.92 C4.47 7.97, 7.39 2.43, 9.89 -0.04 M1.8 20.31 C6.42 12.1, 12.96 4.95, 16.64 -1.39 M0.07 18.01 C3.9 13.63, 8.52 8.65, 16.08 0.62 M-0.01 24.38 C6.8 20.1, 10.81 13.44, 21.48 -1.46 M1.08 23.53 C7.07 16.72, 14.43 7.41, 20.92 -0.56 M-0.37 28.75 C7.7 24.79, 12.92 14.62, 24.59 0.06 M-0.03 30.84 C6.6 22.95, 12.75 18.05, 26.55 1.06 M1.09 36.18 C8.08 25.99, 19.59 13.15, 30.9 -0.12 M-0.18 36.72 C8.7 26.68, 18.24 14.64, 31.34 -0.93 M-1.51 43.79 C12.15 25.31, 27.09 11.06, 35.04 -0.56 M-0.3 43.47 C11.66 29.5, 22.21 17.1, 36.76 0.92 M-0.7 49.67 C14.25 30.34, 31.79 12.26, 44.25 -0.77 M-1.1 47.92 C13.52 30.93, 29.16 15.26, 42.73 0.61 M-1.42 55.96 C17.23 34.59, 30.77 16.49, 46.73 1.23 M-0.34 55.03 C18.32 33.37, 36.47 13.05, 46.61 -0.39 M2.03 56.3 C20.43 37.77, 34.72 21.91, 54.52 -0.74 M2.79 57.65 C13.99 45.29, 26.7 31.02, 52.58 -0.41 M7.54 56.15 C18.93 44.72, 32.84 27.93, 59.92 1.36 M7.83 57.38 C24.44 38.81, 41.68 18.69, 58.67 -0.7 M13.59 59.21 C30.5 37.41, 46.86 16.77, 61.63 0.88 M13.97 57.4 C33.38 35.82, 51.56 15.04, 63.45 0.08 M19.42 55.77 C27.5 44.34, 40.86 32.93, 62.58 5.96 M18.79 57.24 C35.52 36.57, 53.41 16.42, 62.38 7.73 M22.7 56.07 C36.97 43.38, 50.99 27.62, 63.87 12.98 M24.51 58.58 C34.87 46.81, 44.25 33.33, 62.41 12.49 M30.48 56.67 C40.46 45.2, 52.15 32.77, 63.41 20.32 M29.47 58.11 C41.62 43.25, 55.09 27.82, 63.08 19.14 M35.51 58.9 C41.94 52.01, 44.69 44.01, 64.08 25.73 M35.07 58.29 C42.52 49.09, 51.54 40.01, 63.28 24.87 M39.16 59.12 C44.81 51.5, 49.31 46.97, 64 29.39 M41.15 58.23 C45.87 50.17, 51.67 43.05, 64.11 30.76 M43.76 59.19 C50.97 49.66, 58.3 43.65, 64.86 36.35 M45.02 58.43 C49.38 51.05, 55.99 46.25, 63.75 36.64 M51.41 56.87 C53.91 52.66, 58.94 51.17, 62.25 43.62 M50.82 57.62 C53.17 54.75, 55.74 50.51, 62.32 44.55 M56.3 56.72 C57.45 54.73, 59.39 53.33, 61.92 50.15 M56.17 57.71 C57.11 56.63, 58.63 54.32, 63.5 49.89" stroke="#fa5252" stroke-width="0.5" fill="none"></path><path d="M-1.2 -1.61 C16.14 -1.65, 33.29 -0.51, 62.69 1.37 M-0.31 -0.4 C14.8 -0.5, 27.56 0.23, 62.43 -0.45 M60.43 0.84 C60.52 15.63, 61.31 30.02, 62.16 55.47 M61.52 -0.49 C61.45 19.57, 63.2 39.43, 61.24 54.5 M60.01 55.43 C47.08 56.98, 30.81 56.83, -1.25 56.25 M62.73 56.2 C43.42 54.64, 24.42 54.97, -0.99 54.56 M-1.31 53.32 C-0.48 42.69, 1.31 33.1, -1.18 0.41 M-0.86 55.07 C1.2 33.41, 0.4 12, 0.09 -0.02" stroke="#000000" stroke-width="1" fill="none"></path></g><g stroke-linecap="round" transform="translate(277.30342953111995 147.287109375) rotate(0 30.92578125 27.623046875)"><path d="M-1.48 -1.68 C16.26 -0.04, 37.28 1.87, 60.38 -1.49 M0.79 0.06 C23.64 1.03, 48.78 -0.2, 61.7 0.84 M60.05 -0.09 C60.45 15.59, 61.76 34.23, 63.14 56.71 M61.05 -0.57 C62.61 15.03, 61.06 31.03, 61.34 56.13 M62.5 56.85 C41.77 56.75, 20.83 56.31, 0.01 56.45 M62 54.52 C41.77 55.44, 21.25 55.15, -0.96 55.32 M-0.44 53.93 C1.71 38.77, -0.81 22, 1.77 -1.79 M0.71 54.86 C0.38 33.13, 0.56 11.69, -0.56 0.79" stroke="#000000" stroke-width="1" fill="none"></path></g><g stroke-linecap="round"><g transform="translate(206.09639828111995 175.86328125) rotate(0 29.634776665600953 0.22387197024846728)"><path d="M-0.89 -1.01 C8.91 -0.86, 47.96 -0.44, 58.06 -0.1 M0.85 1.08 C11.06 1.48, 50.43 1.59, 60.16 1.27" stroke="#000000" stroke-width="1" fill="none"></path></g><g transform="translate(206.09639828111995 175.86328125) rotate(0 29.634776665600953 0.22387197024846728)"><path d="M30.76 9.77 C38.64 10.26, 47.2 5.44, 58.67 3.06 M32.5 11.26 C40.71 9.28, 46.92 5.73, 61 1.35" stroke="#000000" stroke-width="1" fill="none"></path></g><g transform="translate(206.09639828111995 175.86328125) rotate(0 29.634776665600953 0.22387197024846728)"><path d="M30.53 -10.49 C38.29 -5.14, 46.91 -5.09, 58.67 3.06 M32.27 -9 C40.46 -5.54, 46.73 -3.65, 61 1.35" stroke="#000000" stroke-width="1" fill="none"></path></g></g><g stroke-linecap="round" transform="translate(269.75264828111995 139.99609375) rotate(0 37.556640625 70.591796875)"><path d="M-1.96 -0.54 C17.32 2, 31.5 -0.86, 76.91 -0.63 M-0.46 0.78 C20.11 -0.5, 38.91 0.8, 75.19 -0.71 M74.1 -1.41 C74.15 48.48, 75.13 97.97, 74.86 140.51 M76.05 -0.85 C73.37 34.73, 73.48 71.83, 75.33 140.26 M74.91 142.64 C50.63 142.79, 28.67 142.99, 0.4 142.95 M74.84 140.79 C44.41 139.95, 14.72 140.71, 0.05 140.53 M1.35 141.53 C-0.87 112.81, 2.07 81.83, 1.88 -1.71 M-0.1 140.84 C-0.92 101.25, -1.56 62.14, 0.55 -0.15" stroke="#000000" stroke-width="1" fill="none"></path></g><g transform="translate(393.2359232462943 238.720703125) rotate(0 42.5 12.5)"><text x="0" y="18" font-family="Virgil, Segoe UI Emoji" font-size="20px" fill="#000000" text-anchor="start" style="white-space: pre;" direction="ltr">[1, 2, 3]</text></g><g stroke-linecap="round"><g transform="translate(308.5327982462943 247.607421875) rotate(0 39.46369351792612 1.2594846231513088)"><path d="M1.1 1.05 C14.12 1.33, 65.94 2.22, 78.71 2.11 M0.22 0.56 C13.12 0.47, 65.5 0.33, 78.28 0.45" stroke="#000000" stroke-width="1" fill="none"></path></g><g transform="translate(308.5327982462943 247.607421875) rotate(0 39.46369351792612 1.2594846231513088)"><path d="M51.83 12.29 C61.32 6.8, 68.29 1.29, 79.6 1.94 M49.94 10.07 C55.38 7.51, 62.43 5.53, 79.07 -0.49" stroke="#000000" stroke-width="1" fill="none"></path></g><g transform="translate(308.5327982462943 247.607421875) rotate(0 39.46369351792612 1.2594846231513088)"><path d="M51.87 -8.23 C61.43 -6.57, 68.38 -4.94, 79.6 1.94 M49.99 -10.45 C55.37 -8.63, 62.42 -6.25, 79.07 -0.49" stroke="#000000" stroke-width="1" fill="none"></path></g></g></svg>