<svg version="1.1" xmlns="http://www.w3.org/2000/svg" viewBox="0 0 560.7285528552679 517.5695423006712" width="560.7285528552679" height="517.5695423006712">
  <!-- svg-source:excalidraw -->
  
  <defs>
    <style class="style-fonts">
      @font-face {
        font-family: "Virgil";
        src: url("https://excalidraw.com/Virgil.woff2");
      }
      @font-face {
        font-family: "Cascadia";
        src: url("https://excalidraw.com/Cascadia.woff2");
      }
    </style>
  </defs>
  <rect x="0" y="0" width="560.7285528552679" height="517.5695423006712" fill="#ffffff"></rect><g stroke-linecap="round" transform="translate(313.1573199311524 16.1455078125) rotate(0 30.92578125 27.623046875)"><path d="M-0.81 0.84 C18.69 0.39, 36.04 -1.66, 63.16 -1.11 M0.59 0.13 C21.2 -0.64, 44.1 -0.49, 61.65 0.71 M62.01 0.06 C62.85 14.67, 60.11 28.27, 60.46 55.84 M61.75 0.32 C62.56 20.27, 62.48 41.7, 62.53 55.75 M62.59 54.11 C38.72 55.71, 15.33 56.97, 0.32 54.31 M62.33 55.43 C46.66 54.11, 34.09 54.42, 0.7 55.19 M-0.73 56.34 C0.61 41.39, -1.27 31.74, 0.46 -1.34 M0.18 55.76 C-1.2 34.77, -0.84 14.07, 0.39 -0.47" stroke="#000000" stroke-width="1" fill="none"></path></g><g stroke-linecap="round" transform="translate(305.89840739632655 10) rotate(0 37.890625 34.412109375)"><path d="M-0.15 0.95 C27.9 -1.42, 60.37 -1.43, 76.89 -1.07 M-0.8 -0.72 C21.82 -0.67, 43.23 0.61, 75.37 -0.93 M77.3 0.38 C74.61 25.92, 74.44 53.07, 77.25 70.5 M76.02 -0.36 C75.88 25.2, 76.39 50.05, 76.46 68.26 M75.43 69.18 C50.74 70, 27.96 67.46, -1.4 68.03 M74.81 68.24 C60.52 68.7, 44.57 68.91, -0.78 69.4 M0.93 67.26 C-0.7 45.01, 0.71 17.69, 1.48 0.97 M-0.93 69.02 C-0.7 49.73, 0.26 29.85, -0.89 -0.91" stroke="#000000" stroke-width="1" fill="none"></path></g><g stroke-linecap="round" transform="translate(313.7150675533885 198.60463988333782) rotate(0 30.92578125 27.623046875)"><path d="M0 0 C0 0, 0 0, 0 0 M0 0 C0 0, 0 0, 0 0 M-0.66 6.21 C1.04 4.37, 3.32 2.23, 5.51 1.05 M-0.59 6.62 C1.5 4.68, 2.68 3, 5.13 0.22 M0.43 11.7 C4.7 7.49, 7.28 2.59, 9.25 -0.72 M0.04 11.34 C3.26 8.45, 6.03 4.8, 10.03 0.48 M0.38 16.94 C3.57 14.38, 10.13 7.3, 14.04 2.22 M0.22 19.37 C3.59 14.36, 7.35 9.38, 15.4 -0.27 M-1.05 25.19 C7.33 18.99, 10.88 10.93, 20.71 0.46 M-0.47 24.06 C8.47 16.07, 14.09 7.92, 21.21 -1.05 M-1.15 30.64 C7.14 23.47, 13.86 16.05, 26.86 -1 M0.25 29.96 C7.48 21.57, 15.31 14.16, 25.51 0.52 M-0.7 37.45 C11.39 24.61, 24.62 9.38, 32.5 1.26 M-0.35 37.68 C12.42 22.7, 25.16 7.72, 32.67 0.26 M-0.05 41.98 C13.05 30.63, 22.98 16.39, 36.37 -0.99 M0.05 42.96 C8.34 33.62, 14.45 25.87, 36.03 0.56 M0.79 47.24 C13.77 32.18, 28.44 16.14, 43.01 -1.48 M-1.08 49.81 C10.53 36.3, 21.48 24.15, 43.28 -0.75 M0.65 53.69 C10.56 40.18, 21.89 27.47, 47.42 -1.34 M-0.47 54.21 C11.27 40.77, 22.66 28.7, 47.19 0.61 M4.45 58.43 C19.36 40.76, 31.41 22.26, 54.17 1.03 M2.41 58.06 C14.42 42.53, 28.79 26.88, 52.99 0.23 M9.03 59.27 C23.03 41.92, 37.11 27.31, 58.02 0.14 M7.38 58.09 C25.36 37.19, 42.83 17, 57.15 0.02 M11.81 56.94 C28.49 44.14, 38.18 25.74, 62.43 2.18 M12.4 58.87 C31.19 36.97, 50.17 15.4, 64.02 -0.15 M19.18 59.12 C27.86 45.09, 40.44 32.23, 61.49 6.28 M18.1 57.66 C29.58 43.61, 41.58 31.75, 62.06 7.54 M24.46 57.62 C37.55 40.26, 52.35 25.04, 62.27 13.71 M23.96 58.39 C31.41 47.67, 39.44 38.99, 62.27 12.94 M31.05 58.46 C37.5 50.73, 43.03 40.58, 63.53 17.41 M29.68 56.57 C37.71 47.67, 47.06 37.67, 63.19 18.2 M33.04 56.04 C45.18 46.81, 58.6 33.3, 64.32 27.04 M33.93 58.27 C42.48 48.83, 49.92 41.89, 63.57 25.74 M38.37 59.26 C50.39 49.16, 55.51 37.96, 62.33 31.89 M39.68 57.02 C47.93 47.27, 57.55 38.32, 63.03 31.85 M45.4 57.61 C50.3 50.51, 54.06 47.49, 62.61 38.97 M45.05 58.77 C51.13 52.28, 56.2 45.56, 62.85 37.7 M50.15 59.14 C56.45 50.4, 59.5 48.69, 63.85 43.92 M50.57 56.88 C53.26 54.41, 56.08 50.85, 62.67 43.06 M55.1 57.64 C58.45 53.97, 60.75 52.27, 63 49.42 M55.89 58.31 C58.2 55.37, 60.58 53.14, 62.76 49.26" stroke="#15aabf" stroke-width="0.5" fill="none"></path><path d="M-0.28 -1.6 C14.31 1.15, 29.02 -0.78, 60.85 -0.97 M-0.22 0.32 C17.95 0.35, 37.8 1.25, 62.83 0.06 M60.99 1.02 C62.01 19.12, 61.68 36.47, 63.4 53.27 M61.46 -0.72 C60.72 18.21, 61.75 38.69, 61.69 54.95 M63.68 53.27 C47.32 57.35, 30.13 55.82, 0.82 57.11 M61.44 54.34 C38.87 55.15, 17.9 55.79, 0.53 55.13 M-0.32 55.38 C1.85 35.5, 0.95 13.88, -1.24 1.42 M0.68 54.94 C-0.72 39.74, -0.14 22.25, 0.55 -0.58" stroke="#000000" stroke-width="1" fill="none"></path></g><g transform="translate(323.6408488033885 213.72768675833782) rotate(0 21 12.5)"><text x="21" y="18" font-family="Virgil, Segoe UI Emoji" font-size="20px" fill="#000000" text-anchor="middle" style="white-space: pre;" direction="ltr">main</text></g><g stroke-linecap="round" transform="translate(306.45615501856264 123.31850707083782) rotate(0 37.890625 68.982421875)"><path d="M-1.6 0.64 C18.06 1.79, 32.93 -0.9, 74.81 -0.02 M0.32 -0.56 C27.37 0.95, 55.62 1.14, 75.84 0.31 M76.8 -0.38 C75.85 54.26, 74.94 111.48, 73.8 138.88 M75.06 -0.96 C73.99 37.13, 75.37 73.95, 75.49 137.62 M73.8 139.86 C58.61 139.79, 37.98 139.47, 1.86 139.2 M74.88 137.35 C47.23 138.43, 19.83 138.19, -0.11 138.68 M0.13 139.8 C1.02 97.84, -0.05 54.6, 1.42 -0.03 M-0.31 137.01 C1.17 102.13, 0.16 67.6, -0.58 0.26" stroke="#000000" stroke-width="1" fill="none"></path></g><g stroke-linecap="round" transform="translate(312.5757118833121 131.65726219378865) rotate(0 30.92578125 27.623046875)"><path d="M-0.32 0.28 C20.92 1.19, 44.11 -1.06, 63.66 -0.58 M0.43 0.84 C19.86 0.61, 40.69 -0.25, 62.1 1 M63.32 -1.78 C60.23 17.89, 62.69 37.96, 63.67 56.58 M61.12 -0.85 C62.23 16.37, 62.51 33.77, 62.49 55.71 M63.22 55.44 C44.78 54.68, 24.92 56.86, -1.77 53.48 M62.53 55.58 C47.47 54.93, 33.77 55.63, -0.36 55.8 M-0.04 57.14 C1.45 39.42, 0.36 24.58, 1.64 -1.4 M0.7 54.99 C-1.2 36.4, -0.46 19.85, 0.26 -0.22" stroke="#000000" stroke-width="1" fill="none"></path></g><g stroke-linecap="round" transform="translate(313.4890516539417 436.5950366375827) rotate(0 30.92578125 27.623046875)"><path d="M0 0 C0 0, 0 0, 0 0 M0 0 C0 0, 0 0, 0 0 M0.16 6.99 C0.88 4.48, 2.07 4.35, 4.37 0.74 M-0.54 6.77 C0.83 4.99, 2.81 2.97, 4.86 0.29 M1.49 12.59 C4.38 7.46, 7.17 5.25, 9.33 1.54 M-0.57 12.45 C3.84 7.75, 5.66 4.8, 10.18 0.7 M1.45 18.8 C1.5 13.18, 5.9 11.96, 13.89 1.53 M0.03 18.66 C4.52 13.89, 9.07 8.65, 15.72 -0.04 M1.87 23.22 C6.63 16.45, 14.55 10.66, 22.83 1.5 M0.41 24.19 C6.72 15.03, 14.88 8.64, 21.39 -0.7 M1.42 29.68 C10.24 20.73, 21.42 6.69, 25.82 -1.28 M0.69 31.16 C5.55 23.59, 11.39 17.71, 26.5 0.92 M-0.73 37.09 C7.62 25.53, 18.56 16.46, 31.43 1.39 M-0.1 35.93 C8.81 26.63, 16.85 15.21, 32.35 0.9 M1.57 43.66 C8.81 33.86, 16.48 24.46, 37.74 0.89 M0.81 43.43 C10.94 28.57, 22.59 16.57, 37.73 -0.49 M-0.38 47.07 C10.13 35.78, 22.54 22.54, 41.71 -0.31 M0.87 49.56 C11.75 34.43, 24.42 20.75, 43.19 -0.71 M-1.42 53.07 C12.57 38.11, 26.68 23.79, 46.01 -0.79 M-0.24 53.95 C14.37 39.12, 28.82 22.2, 46.68 1.05 M2.98 56.33 C22.46 34.77, 40.55 13.39, 52.43 -0.32 M1.7 57.02 C14.05 46.51, 24.86 33.78, 53.75 0 M8.82 58.38 C25.41 37.19, 43.22 17.78, 56.75 0.04 M8.37 58.07 C27.64 36.17, 45.6 13.44, 57.24 -0.22 M14.48 59.45 C26.87 42.55, 42.2 24.06, 61.48 -1.43 M12.65 57.38 C33.95 35.12, 53.67 13.27, 62.8 1.24 M19.33 56.34 C29.34 44.73, 41.39 31.48, 64.04 7.75 M17.96 58.15 C32.52 41.29, 45.07 25.62, 61.99 7.61 M23.97 57.29 C32.62 47.28, 39.77 37.56, 61.39 13.33 M23.45 57.7 C34.02 47.03, 43.79 36.21, 63.55 13.65 M27.62 57.86 C40.62 41.33, 55.89 28.26, 62.96 17.54 M30.06 57.41 C36.9 48.01, 44.72 39.39, 63.31 19.08 M34.98 56.83 C41.37 48.02, 50 40.01, 61.49 25.96 M34.3 56.9 C43.24 48.23, 51.76 37.13, 61.75 25.65 M41.62 56.03 C45.07 49.48, 51.96 44.75, 61.69 32.08 M40.4 57.98 C46.75 50.63, 52.34 42.71, 63.47 31.87 M44.84 56.26 C50.64 51.07, 56.25 44.98, 63.13 37.25 M45.99 56.81 C51.97 49.94, 59.14 41.8, 62.96 37.15 M49.24 57.15 C52.93 52.93, 56.04 49.99, 61.13 43.29 M50.37 57.84 C53.92 53.78, 55.82 51.59, 62.12 44.5 M56.29 57.31 C57.38 55.77, 60.47 53.11, 63.61 48.88 M55.86 57.98 C57.99 54.25, 60.73 51.46, 63 49.33" stroke="#15aabf" stroke-width="0.5" fill="none"></path><path d="M-1.49 -1.5 C16.55 -0.76, 35.59 -0.92, 63.06 -1.87 M0.71 0.51 C13.64 0.14, 25.1 0.31, 62.47 -0.98 M63.35 0.91 C62.46 19.42, 62.39 43.67, 60.04 54.63 M61.37 -0.96 C62.8 18.35, 61.48 37.05, 62.06 55.97 M61.74 53.89 C38.69 55.37, 11.36 56.11, -0.41 56.62 M61.6 55.99 C39.36 55.04, 17.64 55.65, -0.06 55.85 M-1.23 55.83 C-1.04 33.89, -0.22 12.72, -0.61 0.89 M-0.04 55.38 C1.15 42.9, -0.15 29.36, 0.88 -0.27" stroke="#000000" stroke-width="1" fill="none"></path></g><g transform="translate(323.4148329039417 451.7180835125827) rotate(0 21 12.5)"><text x="21" y="18" font-family="Virgil, Segoe UI Emoji" font-size="20px" fill="#000000" text-anchor="middle" style="white-space: pre;" direction="ltr">main</text></g><g stroke-linecap="round" transform="translate(306.23013911911585 294.0445595627876) rotate(0 37.890625 102.61459400614757)"><path d="M-0.71 -0.52 C26.72 -0.11, 52.5 -1.3, 73.98 0.16 M0.65 -0.43 C14.8 -0.65, 31.99 -1.37, 76.6 -0.85 M76.74 -1.49 C78.05 69.29, 75.54 135.38, 76.52 206.14 M76.37 -0.46 C74.31 48.79, 75.09 99.43, 76.65 205.79 M77.24 205.19 C49.88 205.42, 26.07 206.09, 1.25 203.56 M75.72 204.77 C50.64 205.95, 24.16 206.39, 0.93 205.95 M-0.57 205.56 C1.29 154.02, 0.58 101.94, -1.19 -1.22 M0.69 205.72 C-0.4 126.63, 0.86 47.97, 0.72 0.43" stroke="#000000" stroke-width="1" fill="none"></path></g><g stroke-linecap="round" transform="translate(312.3496959838658 369.64765894803355) rotate(0 30.92578125 27.623046875)"><path d="M0 0 C0 0, 0 0, 0 0 M0 0 C0 0, 0 0, 0 0 M-0.9 6.47 C2.07 3.65, 3.77 1.93, 4.82 -0.38 M-0.06 6.59 C0.72 4.92, 2.04 3.59, 4.97 0.62 M-0.97 13.14 C4.24 6.01, 9.74 2.54, 10.86 1.01 M-0.57 11.46 C2.18 8.93, 5.27 6.06, 11.19 0.29 M-1.62 18.16 C6.79 9.97, 12.97 4.21, 15.42 -1.05 M0.08 19.16 C4.63 12.76, 9.4 7.13, 14.9 -0.49 M0.18 24.78 C10.19 16.53, 17.9 6.38, 20.13 0.76 M-0.72 24.69 C7.44 16.74, 12.82 9.86, 21.3 0.06 M1.89 31.73 C9.31 18.84, 18.02 6.36, 26.59 -0.45 M-0.51 30.67 C9.55 19.62, 19.78 7.89, 26.81 0.54 M-1.7 38.83 C7.89 26.27, 18.96 16.05, 30.91 1.89 M0.06 36 C9.39 25.65, 21.41 12.84, 31.63 -0.67 M1.12 41.62 C14.99 27.68, 27.84 11.07, 36.38 2.24 M-0.85 42.95 C12.87 27.94, 26 11.11, 36.71 -0.41 M-1.05 49.77 C10.91 34.16, 24.66 20.67, 40.63 1.03 M-0.18 48.33 C17.05 30.38, 33.05 10.02, 43.06 0.2 M-0.31 53.94 C11.67 41.6, 20.02 31.35, 48.23 -1.19 M0.69 55.16 C12.04 40.1, 24.95 28.21, 46.54 0.72 M1.82 56.87 C19.03 38.78, 34.99 19.38, 53.84 -1.64 M3.35 58.61 C14.09 46.17, 24.19 34.09, 53.22 0.29 M8.27 57.56 C25.03 37.49, 40.5 21.76, 58.81 -1.15 M8.47 56.98 C22.79 38.63, 38.45 21.71, 58.14 0.61 M15.04 57.42 C31.02 35.84, 46.82 18.67, 61.64 -1.36 M12.59 58.6 C25.51 43.62, 38 30.03, 63.99 -0.42 M19.6 56.28 C34.66 42.72, 48.24 25.48, 64.02 8.54 M18.68 56.79 C27.35 46.1, 37.32 35.68, 63.34 7.31 M22.84 57.62 C34.41 42.97, 47.54 29.74, 61.1 12.99 M24.31 57.75 C34.76 47.47, 44.03 35.95, 63 14.19 M28.24 58.65 C36.5 49.82, 41.69 40.58, 64.22 19.59 M29 57.54 C41.02 44.28, 53.2 30.41, 63.11 19.16 M34.48 56.44 C45.47 46.34, 53.48 37.43, 61.49 24.19 M35.02 57.02 C42.31 47.97, 50.74 39.33, 61.74 25.68 M38.56 58.05 C48.85 46.25, 58.52 37.51, 64.2 29.74 M40.68 56.76 C47.51 49.2, 55.69 40.25, 63.61 31.34 M44.42 58.66 C49.46 52.23, 55.21 47.99, 63.47 36.44 M45.17 58 C52 50.08, 58.68 42.05, 62.83 36.83 M50.17 55.84 C53.68 53.12, 55.33 49.91, 60.9 44.51 M49.94 57.56 C53.4 53.41, 57.38 50.26, 61.73 43.65 M56.07 58.37 C58.25 55.53, 60.22 52.93, 63.29 49.19 M55.4 57.27 C57.98 55.23, 60.14 52.22, 62.69 49.32" stroke="#228be6" stroke-width="0.5" fill="none"></path><path d="M-0.52 1.08 C13.28 1.42, 26.04 -1.58, 62.01 -1.86 M-0.43 -0.89 C22.67 0.21, 44.89 0.41, 61 0.31 M60.18 1.01 C63.59 18.91, 61.49 42.28, 62.87 54.06 M61.33 -0.66 C60.64 14.12, 62.04 28.79, 62.48 55.5 M61.81 53.99 C44.34 55.28, 26.79 56.95, -1.66 56.05 M61.39 55.89 C45.02 55.15, 28.47 56.14, 0.72 54.78 M0.37 55.43 C0.77 41.46, 0.73 27.57, -1.37 1.65 M0.55 54.71 C-0.17 39.79, -0.34 23.36, 0.48 -0.22" stroke="#000000" stroke-width="1" fill="none"></path></g><g transform="translate(325.7754772338658 384.77070582303355) rotate(0 17.5 12.5)"><text x="17.5" y="18" font-family="Virgil, Segoe UI Emoji" font-size="20px" fill="#000000" text-anchor="middle" style="white-space: pre;" direction="ltr">100</text></g><g stroke-linecap="round" transform="translate(312.8171652461647 303.2830329234433) rotate(0 30.92578125 27.623046875)"><path d="M-1.23 1.33 C16.1 0.59, 30.03 0.94, 63.45 -1.89 M-0.72 -0.27 C21.64 0.8, 44.14 0.62, 62.21 0.04 M61.6 -1.38 C60.85 14.94, 61.15 28.41, 61.5 54.35 M61.73 0.91 C62.77 15.91, 62.61 31.62, 62.69 54.29 M63.02 55.45 C42.08 53.4, 20.97 56.07, 0.6 56.28 M61.91 54.93 C44.01 55.01, 25.53 55.03, 0.18 55.47 M-1.39 56.92 C-0.81 42.03, 0.76 26.42, -1.19 -0.45 M-0.81 54.9 C-0.76 44.12, -0.39 31.47, 0.3 0.73" stroke="#000000" stroke-width="1" fill="none"></path></g><g stroke-linecap="round" transform="translate(18.1649116847816 42.67127463762722) rotate(0 99 17.5)"><path d="M-0.04 0.07 C74.73 -1.54, 151.36 -2.39, 196.43 1.13 M-0.57 -0.25 C79.77 1.2, 157.77 -0.09, 198.36 -0.59 M198.75 0.77 C196.71 8.85, 197.28 18.21, 197.76 34.27 M198.79 0.75 C197.37 14.41, 197.83 26.68, 197.56 35.65 M196.1 36.41 C155.01 34.35, 112.61 36.56, -1.04 36.36 M198.5 35.69 C124.78 34.11, 51.31 33.99, 0.11 35.63 M-1.16 36.14 C0.28 28.14, 0.89 19.51, -0.05 1.33 M-0.23 34.77 C0.1 26.65, -0.04 20.01, 0.59 0.53" stroke="#000000" stroke-width="1" fill="none"></path></g><g transform="translate(85.1649116847816 47.67127463762722) rotate(0 32 12.5)"><text x="32" y="18" font-family="Virgil, Segoe UI Emoji" font-size="20px" fill="#000000" text-anchor="middle" style="white-space: pre;" direction="ltr">&lt;main&gt;</text></g><g stroke-linecap="round"><g transform="translate(217.89741847826008 77.11353007241001) rotate(0 42.258911785726355 0.07924629490332791)"><path d="M-0.38 0.84 C13.58 0.77, 70.7 -0.59, 84.9 -0.68 M1.62 0.23 C15.37 0.36, 70.44 1.01, 84.21 0.69" stroke="#000000" stroke-width="1" fill="none"></path></g><g transform="translate(217.89741847826008 77.11353007241001) rotate(0 42.258911785726355 0.07924629490332791)"><path d="M57.45 11.87 C66.58 7.74, 79.24 1.63, 86.06 -1.29 M56.29 10.24 C65.74 6.89, 74.71 4.29, 83.26 -0.03" stroke="#000000" stroke-width="1" fill="none"></path></g><g transform="translate(217.89741847826008 77.11353007241001) rotate(0 42.258911785726355 0.07924629490332791)"><path d="M57.38 -8.65 C66.49 -4.73, 79.18 -2.79, 86.06 -1.29 M56.22 -10.28 C65.51 -7.04, 74.5 -3.05, 83.26 -0.03" stroke="#000000" stroke-width="1" fill="none"></path></g></g><g stroke-linecap="round"><g transform="translate(218.25407608695582 42.92110480067083) rotate(0 43.387567208442306 14.938496136998253)"><path d="M0.58 0.51 C14.98 5.46, 73.09 24.19, 87.35 29.16 M-0.58 -0.27 C13.61 4.84, 71.75 24.81, 86.61 30.15" stroke="#000000" stroke-width="1" fill="none"></path></g><g transform="translate(218.25407608695582 42.92110480067083) rotate(0 43.387567208442306 14.938496136998253)"><path d="M57.45 31.15 C66.29 28.82, 79.68 31.05, 85.67 30.52 M57.18 31.03 C67.79 29.65, 78.75 30.98, 86.96 30.65" stroke="#000000" stroke-width="1" fill="none"></path></g><g transform="translate(218.25407608695582 42.92110480067083) rotate(0 43.387567208442306 14.938496136998253)"><path d="M64.24 11.78 C70.41 16.85, 81.22 26.45, 85.67 30.52 M63.97 11.66 C72.19 17.15, 80.74 25.37, 86.96 30.65" stroke="#000000" stroke-width="1" fill="none"></path></g></g><g stroke-linecap="round" transform="translate(19.576766304347302 225.69284393110576) rotate(0 99 17.5)"><path d="M0.02 -0.33 C71.3 0.35, 139.56 1.72, 196.12 -0.42 M-0.9 -0.59 C50.84 0.45, 103.57 0.58, 198.5 0.72 M199.67 1.2 C198.39 9.64, 196.61 17.11, 199.56 33.8 M197.93 -0.72 C197.06 7.1, 198.4 14.82, 198.03 35.58 M196.87 33.27 C130.24 36.53, 62.91 35.84, 0.38 33.59 M197.9 35.2 C138.35 33.44, 79.35 33.64, 0.85 35.29 M-1.25 34.85 C1.01 22.65, 0.42 11.57, 0.94 1.36 M0.87 34.72 C0.62 24.41, 0.23 15.55, 0.08 -0.43" stroke="#000000" stroke-width="1" fill="none"></path></g><g transform="translate(86.5767663043473 230.69284393110576) rotate(0 32 12.5)"><text x="32" y="18" font-family="Virgil, Segoe UI Emoji" font-size="20px" fill="#000000" text-anchor="middle" style="white-space: pre;" direction="ltr">&lt;main&gt;</text></g><g stroke-linecap="round"><g transform="translate(218.53006114130403 260.7879526267579) rotate(0 42.45478112752187 0.36663249885663163)"><path d="M0.09 -0.45 C14.13 0.01, 69.71 1.96, 83.91 2.46 M-1.33 -1.73 C13.14 -1.57, 71.86 0.4, 86.24 0.81" stroke="#000000" stroke-width="1" fill="none"></path></g><g transform="translate(218.53006114130403 260.7879526267579) rotate(0 42.45478112752187 0.36663249885663163)"><path d="M56.99 8.96 C66.94 8.77, 74.75 5.55, 86.84 2.76 M57.25 9.31 C64.93 8.06, 72.4 5.59, 86.48 0.36" stroke="#000000" stroke-width="1" fill="none"></path></g><g transform="translate(218.53006114130403 260.7879526267579) rotate(0 42.45478112752187 0.36663249885663163)"><path d="M57.63 -11.55 C67.35 -6.22, 74.99 -3.91, 86.84 2.76 M57.89 -11.2 C65.57 -7.04, 72.87 -4.1, 86.48 0.36" stroke="#000000" stroke-width="1" fill="none"></path></g></g><g stroke-linecap="round"><g transform="translate(220.29211956521704 227.304596648497) rotate(0 43.132201692813396 -17.243253662329494)"><path d="M-0.03 0.34 C14.39 -5.19, 71.2 -27.44, 85.4 -32.99 M-1.5 -0.52 C13.41 -6.43, 72.91 -29.08, 87.77 -34.83" stroke="#000000" stroke-width="1" fill="none"></path></g><g transform="translate(220.29211956521704 227.304596648497) rotate(0 43.132201692813396 -17.243253662329494)"><path d="M65.69 -16.25 C70.7 -20.69, 75.44 -22.87, 85.96 -35.88 M65.43 -14.6 C72.3 -21.02, 79.74 -28.6, 86.87 -35.55" stroke="#000000" stroke-width="1" fill="none"></path></g><g transform="translate(220.29211956521704 227.304596648497) rotate(0 43.132201692813396 -17.243253662329494)"><path d="M58.34 -35.41 C64.91 -35.86, 71.18 -34.05, 85.96 -35.88 M58.08 -33.76 C67.46 -34.06, 77.24 -35.53, 86.87 -35.55" stroke="#000000" stroke-width="1" fill="none"></path></g></g><g stroke-linecap="round" transform="translate(23.372622282608518 462.89987518110576) rotate(0 99 17.5)"><path d="M-0.14 -1.83 C45.09 0.57, 91.69 -0.23, 196.84 1.64 M0.04 0.65 C58.1 0.24, 115.97 0.68, 197.75 -0.51 M197.24 1.26 C197.37 9.9, 196.16 22.45, 197.32 33.12 M198.1 -0.43 C197.43 7.63, 198.89 15.24, 198.01 34.97 M197.61 33.71 C145.12 38.73, 88.24 36.98, 1 36.8 M198.38 34.96 C147.87 35.03, 97.61 33.74, -0.17 35.05 M-1.79 34.47 C0.31 24.17, -1.39 8.1, -1.94 -1.52 M-0.58 34.11 C1 23.21, 0.67 11.06, 0.18 -0.08" stroke="#000000" stroke-width="1" fill="none"></path></g><g transform="translate(90.37262228260852 467.89987518110576) rotate(0 32 12.5)"><text x="32" y="18" font-family="Virgil, Segoe UI Emoji" font-size="20px" fill="#000000" text-anchor="middle" style="white-space: pre;" direction="ltr">&lt;main&gt;</text></g><g stroke-linecap="round"><g transform="translate(222.00747282608654 496.86132219197526) rotate(0 41.83866595048676 -0.6373208171484066)"><path d="M-1.06 0.12 C12.64 -0.22, 68.42 -1.1, 82.45 -1.4 M0.59 -0.86 C14.64 -1.06, 71.12 0.05, 84.73 0.1" stroke="#000000" stroke-width="1" fill="none"></path></g><g transform="translate(222.00747282608654 496.86132219197526) rotate(0 41.83866595048676 -0.6373208171484066)"><path d="M56.62 8.65 C65.35 6.79, 74.01 3.52, 84.38 -0.98 M57.01 9.32 C68.17 6.79, 78 2.22, 84.72 -0.6" stroke="#000000" stroke-width="1" fill="none"></path></g><g transform="translate(222.00747282608654 496.86132219197526) rotate(0 41.83866595048676 -0.6373208171484066)"><path d="M56.88 -11.87 C65.64 -7.12, 74.21 -3.77, 84.38 -0.98 M57.27 -11.2 C68.4 -5.86, 78.13 -2.55, 84.72 -0.6" stroke="#000000" stroke-width="1" fill="none"></path></g></g><g stroke-linecap="round"><g transform="translate(222.26222826086928 464.29508577893176) rotate(0 42.03042304765518 -52.02323994470282)"><path d="M0.39 -0.12 C14.6 -17.01, 71.01 -85.04, 84.92 -102.11 M-0.86 -1.22 C13.23 -18.41, 69.52 -87.29, 84.04 -103.93" stroke="#000000" stroke-width="1" fill="none"></path></g><g transform="translate(222.26222826086928 464.29508577893176) rotate(0 42.03042304765518 -52.02323994470282)"><path d="M73.56 -75.53 C77.69 -84.99, 79.84 -91.4, 82.95 -102.94 M74.25 -76.12 C76.16 -83.48, 79.08 -89.12, 83.78 -103.24" stroke="#000000" stroke-width="1" fill="none"></path></g><g transform="translate(222.26222826086928 464.29508577893176) rotate(0 42.03042304765518 -52.02323994470282)"><path d="M57.85 -88.73 C66.17 -94.65, 72.6 -97.47, 82.95 -102.94 M58.54 -89.33 C64.34 -93.38, 71.23 -95.68, 83.78 -103.24" stroke="#000000" stroke-width="1" fill="none"></path></g></g><g stroke-linecap="round" transform="translate(10 35.987511050671) rotate(0 106.303074048913 25.12100883152175)"><path d="M0.25 -1.35 C80.58 0.48, 159.61 -0.52, 213.69 -0.34 M-0.84 0.27 C58.28 -1.17, 117.1 -1.09, 212.7 0.46 M213.52 -0.68 C211.81 12.65, 213.82 24.5, 214.17 51.66 M213.23 -0.43 C213.15 13.15, 212.3 26.95, 212.52 49.49 M210.86 48.77 C151.63 47.02, 89.23 47.99, -1.38 51.01 M213.47 50.02 C154.05 48.92, 96.82 49.09, 0.43 50.73 M-1.47 48.98 C-0.14 39.82, -0.06 25.74, -1.63 1.51 M0.63 49.83 C-0.25 36.19, -0.38 21.66, 0.48 -0.55" stroke="#000000" stroke-width="1" fill="none"></path></g><g stroke-linecap="round" transform="translate(12.199388586956502 218.03149882241024) rotate(0 106.64911684782612 26.159137228260875)"><path d="M-0.58 1.45 C50.21 -2.12, 99.92 -1.23, 211.88 0.07 M-0.25 -0.4 C67.17 0.45, 135.79 -0.25, 212.71 0.5 M213 1.03 C215.15 19.43, 213.09 40.19, 214.93 50.34 M213.71 -0.63 C214.17 16.01, 213.93 30.22, 213.83 51.91 M211.56 53.56 C163.32 54.81, 115.06 53.91, -1.7 52.38 M214.11 51.45 C133.59 52.07, 54.23 50.96, -0.49 51.69 M0.95 52.51 C0.49 42.33, 0.12 31.85, -1.09 1.66 M0.52 51.46 C-0.19 36.17, 0.91 21.56, 0.85 -0.79" stroke="#000000" stroke-width="1" fill="none"></path></g><g stroke-linecap="round" transform="translate(14.94225543478251 454.31291865936697) rotate(0 105.96127717391312 26.62831182065213)"><path d="M0.53 0.92 C64.62 0.75, 131.15 -2.38, 211.67 0.91 M0.36 0.55 C46.16 0.15, 90.73 0.57, 212.05 -0.56 M210.62 -1.43 C210.42 15.78, 213.05 27.69, 212.74 53.53 M212.55 -0.85 C211.32 18.02, 212.13 34.91, 210.99 54.1 M213.22 52.85 C158.09 54.58, 106.47 54.61, -1.34 52.63 M211.2 53.73 C163.66 52.6, 116.55 52.96, -0.36 52.78 M0.1 51.71 C1.03 33.29, -1.85 14.59, 0.03 0.09 M-0.59 53.57 C-0.18 36.76, -0.36 21.79, 0.35 -0.64" stroke="#000000" stroke-width="1" fill="none"></path></g><g transform="translate(418.72855285526794 137.41344875146075) rotate(0 49.5 18)"><text x="0" y="25" font-family="Virgil, Segoe UI Emoji" font-size="28px" fill="#000000" text-anchor="start" style="white-space: pre;" direction="ltr">putself</text></g><g transform="translate(418.72855285526794 307.98187547559877) rotate(0 66 18)"><text x="0" y="25" font-family="Virgil, Segoe UI Emoji" font-size="28px" fill="#000000" text-anchor="start" style="white-space: pre;" direction="ltr">putobject</text></g></svg>