<svg version="1.1" xmlns="http://www.w3.org/2000/svg" viewBox="0 0 349.69230186195773 219.88671875" width="349.69230186195773" height="219.88671875">
  <!-- svg-source:excalidraw -->
  
  <defs>
    <style class="style-fonts">
      @font-face {
        font-family: "Virgil";
        src: url("https://excalidraw.com/Virgil.woff2");
      }
      @font-face {
        font-family: "Cascadia";
        src: url("https://excalidraw.com/Cascadia.woff2");
      }
    </style>
  </defs>
  <rect x="0" y="0" width="349.69230186195773" height="219.88671875" fill="#ffffff"></rect><g stroke-linecap="round" transform="translate(88.56058215118253 149.015625) rotate(0 30.92578125 27.623046875)"><path d="M0 0 C0 0, 0 0, 0 0 M0 0 C0 0, 0 0, 0 0 M0.43 7.14 C1.26 4.89, 1.53 4, 5.09 0.5 M-0.17 6.01 C1.17 4.51, 2.71 3.52, 5.05 0.12 M0.2 12.62 C2.79 6.76, 9.02 3.9, 10.84 -1.49 M0.49 11.71 C2.42 9.91, 3.93 7, 10.4 0.23 M-0.37 16.95 C5.62 13.15, 12.74 3.68, 15.4 0.95 M-0.46 18.57 C5.82 12.27, 10.38 7.57, 15.07 -0.53 M-1.43 23.8 C3.18 19.32, 7.99 12.98, 21.33 -1.74 M0.88 24.96 C8.29 15.14, 15.59 7.58, 20.38 0.23 M-1.25 29.96 C5.64 25.37, 12.21 16.85, 28.02 1.94 M0.51 30.16 C4.84 23.5, 11.12 16.26, 26.76 1.22 M1.74 34.99 C9.72 24.84, 25.52 10.39, 31.27 1.07 M-0.86 37.16 C7.76 27.88, 14.57 17.93, 32.67 -0.12 M1.46 44.22 C10.73 31.58, 18.38 20.58, 38.52 -1.43 M-0.44 42.07 C12.48 28.05, 25.95 13.42, 37.6 0.77 M-1.4 49.57 C10.79 35.03, 21.84 25.56, 40.56 1.75 M-1.01 48.55 C8.15 38.55, 17.44 29.18, 42.54 0.71 M-0.27 52.81 C11.81 42.98, 23.44 32.25, 46.68 -1.13 M0.93 53.83 C14.47 38.17, 26.14 22.49, 47.07 1.06 M3.02 59.17 C14.15 47.28, 22.98 34.23, 52.39 1.68 M2.83 57.86 C18.46 38.54, 36.11 19.69, 53.87 -1.13 M8.75 57.9 C27.49 35.89, 46.96 15.88, 58.6 2.03 M7.34 56.59 C18.46 44.69, 28.83 33.34, 57.74 1.18 M14.48 58.84 C28.87 38.75, 45.03 20.52, 62.65 -0.87 M13.39 58.21 C25.21 46.35, 35.18 33.8, 63.48 0.93 M19.95 56.93 C34.74 43.21, 48.89 26.65, 62.86 7.18 M17.93 58.28 C34.26 39.21, 48.69 23.77, 62.32 6.22 M23.7 59.83 C37.85 42.74, 48.82 31.8, 61.38 13.08 M24.37 57 C35.22 45.35, 47.23 30.88, 63.58 12.7 M30.7 58.46 C39.11 47.8, 47.34 39.3, 61.55 20.32 M29.07 58.45 C38.66 46.79, 48.96 35.93, 63.85 19.11 M35.6 59.54 C41.03 48.06, 47.8 40.59, 60.95 26.54 M34.41 58.75 C43.94 45.92, 54.59 34.86, 62.94 25.5 M38.36 56.19 C47.77 51.09, 55.22 43.08, 64.43 32.81 M39.31 57.33 C47.91 49.26, 56.42 40.06, 62.7 30.18 M43.46 56.48 C53.19 49.38, 57.33 42.52, 61.29 38.24 M44.26 57.14 C51.51 51.94, 56.65 45.15, 63.11 36.93 M51.53 57.93 C56.44 53.35, 58.24 47.58, 62.36 45.1 M49.91 57.78 C54.73 53.73, 57.98 48.86, 63.04 43.97 M55.3 56.99 C58.56 54.43, 59.82 51.56, 63.72 49.94 M55.74 57.91 C58.15 54.96, 60.48 52.59, 63.48 49.48" stroke="#228be6" stroke-width="0.5" fill="none"></path><path d="M1.91 -0.08 C22.67 -1.84, 46 0.51, 61.32 0.09 M0.37 0.73 C17.1 0.77, 32.14 -0.15, 61.48 -0.95 M62.56 -1.35 C59.97 15.25, 61.71 29.04, 62.38 55.63 M62.64 -0.87 C60.43 12.17, 60.51 23.08, 61.51 56.09 M61.43 54.93 C43.88 54.81, 21.5 54.46, 0.45 55.12 M62.81 55.15 C46.28 55.53, 29.54 54, -0.66 54.25 M1.35 54.03 C1.07 37.92, 1.24 17.13, -1.92 1.13 M0.11 54.46 C-0.26 35.66, -0.76 18.29, 0.31 0.1" stroke="#000000" stroke-width="1" fill="none"></path></g><g transform="translate(115.98636340118253 164.138671875) rotate(0 3.5 12.5)"><text x="3.5" y="18" font-family="Virgil, Segoe UI Emoji" font-size="20px" fill="#000000" text-anchor="middle" style="white-space: pre;" direction="ltr">1</text></g><g stroke-linecap="round" transform="translate(87.58792590118253 17.498046875) rotate(0 30.92578125 27.623046875)"><path d="M-0.66 -1.73 C18.97 0.64, 38.71 0.12, 61.07 0.46 M0.98 0.89 C19.69 -0.48, 39.22 -1.4, 61.58 0.15 M59.89 0.18 C61.82 15.97, 62.58 34.53, 60.19 53.66 M60.87 0.2 C61.38 18.37, 61.94 39.34, 62 55.18 M63.38 55.31 C46.98 54.87, 35.26 55.02, -0.69 56.72 M62.69 55.91 C47.68 54.33, 31.83 54.19, 0.3 54.56 M0.69 56.14 C0.49 41.07, -2.3 31.37, 0.84 0.66 M-0.08 54.54 C-0.64 38.74, 0.25 20.72, -0.36 -0.37" stroke="#000000" stroke-width="1" fill="none"></path></g><g stroke-linecap="round" transform="translate(80.89261340118253 10) rotate(0 37.556640625 99.943359375)"><path d="M-1.73 -0.65 C30.31 -0.28, 59.48 -0.54, 75.57 0.4 M0.89 -0.11 C25.29 -1.1, 49.68 -1.01, 75.26 0.09 M75.29 -0.22 C72.66 67.57, 74.15 132.41, 73.52 200.85 M75.31 -0.91 C72.49 75.39, 74.21 151.62, 75.05 199.07 M75.18 198.53 C53.87 200.91, 33.07 199.76, 1.48 198.63 M75.78 200.39 C44.51 199.86, 14.63 200.81, -0.68 199.15 M0.9 200.75 C-0.45 124.46, 2.35 53.71, 0.66 0.27 M-0.71 199.31 C2.38 137.94, 1.68 75.01, -0.37 0.19" stroke="#000000" stroke-width="1" fill="none"></path></g><g stroke-linecap="round" transform="translate(87.46135894641986 80.6484375) rotate(0 30.92578125 27.623046875)"><path d="M0 0 C0 0, 0 0, 0 0 M0 0 C0 0, 0 0, 0 0 M-0.73 6.58 C1.87 4.18, 3.63 1.97, 4.29 0.55 M-0.14 6.78 C0.87 4.96, 2.14 4.19, 4.62 0.38 M1.43 12.62 C3.95 6.59, 5.97 4.62, 11.17 0.67 M-0.61 12.31 C2.61 9.12, 6.28 6.29, 10.34 -0.13 M0.54 17.81 C3.23 14.84, 7.26 8.41, 17.29 -0.34 M0.36 19.05 C4.1 11.97, 8.73 7.42, 15.44 -0.52 M-0.99 23.35 C6.53 15.47, 13.32 8.91, 22.57 1.16 M1.03 24.27 C7.36 15.13, 15.57 5.23, 20.3 -0.7 M0.68 29.78 C8.99 23.7, 12.96 14.67, 25.92 1.3 M-0.68 29.95 C7.84 23.36, 15.09 14.33, 25.73 1.29 M1.58 37.77 C6.1 30.19, 12.23 21.14, 31.21 -1.32 M-1.21 35.92 C11.05 24.73, 20.53 12.86, 31.25 0.56 M-1.33 43.15 C15.76 24.52, 29.29 8.43, 38.57 -0.9 M-0.19 43.44 C10.59 32.02, 18.72 20.36, 36.08 -0.38 M0.36 49.71 C12.07 34.93, 26.31 16.33, 44.11 -1.91 M-0.16 49.66 C11.41 36.83, 21.89 22.11, 41.65 -0.41 M1.5 56.48 C9.38 41.6, 19.98 32.48, 47.06 1.55 M-0.68 53.57 C10.03 43.51, 20.36 31.08, 46.68 0.42 M1.24 59.3 C19.89 38.36, 39.36 14.64, 53.5 0.22 M3.32 57.23 C18.5 40.33, 33.29 24.48, 53.64 0.07 M9.42 59.41 C24.44 41.11, 37.88 21.85, 59.53 -1.69 M8.8 57 C17.91 47.24, 28.62 34.02, 57.84 0.8 M13.76 56.02 C30.12 36.98, 46.09 16.89, 62.3 0.79 M13.69 57.78 C29.54 39.17, 45.83 19.6, 63.26 1.07 M20.85 58.84 C30.36 43.65, 43 27.76, 64.57 4.99 M18.62 58.16 C34.88 38.15, 52.08 19.77, 63.01 6.85 M24.65 59.63 C37.67 40.11, 54.37 21.08, 61.57 14.29 M23.38 57.72 C33.47 47.42, 40.27 37.84, 62.95 13.93 M30.21 58.8 C39.6 45.36, 52.52 29.82, 62.32 18.05 M29.39 58.15 C43.97 42.18, 56.08 27.32, 62.95 19.52 M32.87 57.96 C43.75 46.65, 57.39 32.65, 62.72 25.16 M34.79 57.58 C45.95 45.4, 56.7 32.78, 62.73 24.48 M41.9 58.46 C46.79 52.81, 51.64 43.8, 62.56 29.32 M40.91 57.7 C46.4 48.82, 54.29 41.64, 62.77 30.18 M43.73 58.01 C47.6 53.92, 53.66 47.81, 62.7 35.63 M45.36 58.05 C49.39 52.44, 53.85 47.46, 62.37 37.83 M49.74 57.19 C54.33 54.17, 58.62 46.86, 62.19 42.05 M50.57 57.23 C55.24 52.85, 58.98 48.12, 62.45 43.42 M55.28 56.77 C58.12 56.39, 58.93 53.21, 62.71 49.37 M56.26 57.35 C58.57 55.14, 60.29 52.09, 62.94 49.21" stroke="#228be6" stroke-width="0.5" fill="none"></path><path d="M-0.65 0.61 C17.78 0.63, 35.84 0.99, 62.25 0.74 M-0.11 -0.03 C22.73 -1.5, 45.92 -0.4, 61.94 0.35 M61.63 -1.1 C61.84 13.22, 59.65 24.08, 62.82 56.82 M60.94 -0.88 C60.96 12.6, 61.46 23.44, 61.04 55.04 M60.5 54.96 C44.74 55.14, 26.02 56.74, -1.25 57.17 M62.36 54.38 C43.22 54.66, 26.2 54.98, -0.74 55.92 M0.86 53.57 C-2.12 43.17, 0.64 29.49, 0.27 0.23 M-0.58 56.05 C0.35 43.14, -0.31 30.45, 0.19 -0.93" stroke="#000000" stroke-width="1" fill="none"></path></g><g transform="translate(110.38714019641986 95.771484375) rotate(0 8 12.5)"><text x="8" y="18" font-family="Virgil, Segoe UI Emoji" font-size="20px" fill="#000000" text-anchor="middle" style="white-space: pre;" direction="ltr">2</text></g><g stroke-linecap="round"><g transform="translate(10.898976382650403 45.512101706055546) rotate(0 30.586704425566154 -0.35523822482684864)"><path d="M0.37 -0.32 C10.89 -0.33, 51.75 -0.56, 62.07 -0.47 M-0.9 -1.53 C9.56 -1.35, 50.73 0.28, 61.15 0.82" stroke="#000000" stroke-width="1" fill="none"></path></g><g transform="translate(10.898976382650403 45.512101706055546) rotate(0 30.586704425566154 -0.35523822482684864)"><path d="M32.01 9.92 C37.89 8.27, 45.18 6.63, 62.62 2.77 M32.17 8.88 C43.41 6.48, 54.9 3.18, 60.48 -0.16" stroke="#000000" stroke-width="1" fill="none"></path></g><g transform="translate(10.898976382650403 45.512101706055546) rotate(0 30.586704425566154 -0.35523822482684864)"><path d="M32.92 -10.58 C38.53 -7.85, 45.64 -5.11, 62.62 2.77 M33.07 -11.63 C43.94 -6.05, 55.08 -1.37, 60.48 -0.16" stroke="#000000" stroke-width="1" fill="none"></path></g></g><g stroke-linecap="round" transform="translate(272.24698936195773 148.89453125) rotate(0 30.92578125 27.623046875)"><path d="M0 0 C0 0, 0 0, 0 0 M0 0 C0 0, 0 0, 0 0 M-0.21 6.67 C2.12 3.63, 4 1.97, 4.68 0.09 M-0.11 6.34 C1.28 5.25, 2.38 3.25, 5.21 0.34 M-0.75 10.72 C3.84 6.39, 8.38 4.34, 10.35 -0.05 M-0.31 12.25 C2.85 8.77, 6.18 5.05, 10.8 -0.04 M1.21 20.17 C4.3 15.87, 8.37 11.48, 14.66 -0.25 M0.47 19.18 C3.53 14.13, 5.81 11.49, 15.24 -0.03 M-0.44 22.65 C5.16 17.18, 10.29 13.9, 20.74 -0.23 M0.85 24.29 C5.09 19.1, 8.76 14.35, 20.55 -0.57 M0.8 29.31 C8.61 19.72, 19.21 9.9, 24.51 -0.17 M0.55 30.23 C4.97 24.83, 10.63 18.41, 26.32 0.12 M-1.6 35.96 C6.41 28.58, 17.31 17.58, 30.44 -0.64 M-1.05 37.75 C8.27 26.84, 18.41 14.92, 31.29 -0.22 M1.14 43.56 C8.79 33.41, 20.28 21.37, 38.73 -0.21 M-0.71 43.34 C11.4 31.26, 21.61 18.53, 37.37 0.43 M-0.29 48.8 C12.79 35.53, 24.69 23.34, 41.16 1.01 M-0.14 49.77 C14.01 33.72, 27.77 17.3, 43.11 -0.39 M1.89 53.33 C11.35 44.14, 22.43 29.65, 48.42 -0.17 M0.83 54.06 C20.2 32.59, 38.25 12.05, 47.67 0.68 M2.44 59.22 C19.61 36.79, 40.21 14.44, 53.85 -1.63 M2.86 58.8 C22.74 35.68, 43.48 11.92, 52.26 0.09 M9.72 59.34 C26.66 37.62, 44.07 17.15, 56.85 -1.48 M7.32 57.44 C19.91 45.08, 31.06 31.27, 58.15 -0.31 M12.97 59.88 C29.85 39.31, 46.38 22.44, 61.94 -0.86 M14.22 58.58 C24.53 46.35, 34.39 33.36, 63.47 0.72 M19.37 58.71 C28.98 44.58, 35.56 35.94, 63.54 5.53 M18.98 57.2 C32.71 40.97, 45.6 26.23, 62.53 7.16 M22.74 58.85 C36.96 44.51, 50.21 31.21, 60.85 12.99 M23.73 58 C32.23 49.31, 39.4 41.08, 62.48 14.15 M31.34 56.91 C38.33 46.61, 52 34.09, 63.38 20.62 M28.82 56.62 C41.96 43.82, 52.98 30, 63.4 19.59 M35.19 57.51 C41.2 49.67, 50.97 41.05, 64.12 26.74 M34.74 58 C44.1 46.01, 55.46 35.01, 63.18 24.46 M41.89 57.73 C47.06 50.09, 51.09 45.01, 64.69 32.06 M39.65 57.56 C47.6 49.18, 54.83 39.38, 63.31 31.76 M43.93 57.56 C51.29 49.91, 58.28 43.19, 64.67 36.15 M45.28 57.58 C49.25 52.6, 53.14 49.11, 63.85 37.88 M50.52 56.41 C54.88 53.94, 57.32 47.28, 62.7 44.48 M50.49 56.52 C54.22 52.35, 58.25 47.7, 63.17 43.6 M55.21 58.47 C58.61 54.59, 61.12 51.84, 62.02 49.52 M55.37 57.26 C57.77 55.41, 61.07 52.05, 62.76 49.48" stroke="#be4bdb" stroke-width="0.5" fill="none"></path><path d="M1.66 -1.39 C21.11 -1.03, 41.36 0.18, 61 0.35 M-0.59 0.68 C19.04 1.15, 38.56 1.2, 62 0.49 M62.08 1.14 C63.81 18.36, 63.79 33.85, 62.66 56.64 M60.99 0.52 C60.78 10.99, 62.32 22.89, 61.36 54.95 M60.37 55.74 C37.65 54.72, 15.8 53.41, -1.63 54.42 M62.19 55.67 C42.41 56.2, 23.6 56.02, -0.23 55.38 M1.82 57.19 C1.49 35.78, 0.4 17.06, -1.97 1.7 M-0.91 54.96 C0.23 43.54, -1.15 33.02, -0.07 0.14" stroke="#000000" stroke-width="1" fill="none"></path></g><g transform="translate(286.67277061195773 164.017578125) rotate(0 16.5 12.5)"><text x="16.5" y="18" font-family="Virgil, Segoe UI Emoji" font-size="20px" fill="#000000" text-anchor="middle" style="white-space: pre;" direction="ltr">1..2</text></g><g stroke-linecap="round" transform="translate(272.12980186195773 75.994140625) rotate(0 30.92578125 27.623046875)"><path d="M1.36 -0.76 C23.05 0.87, 41.54 0.78, 62.24 -0.17 M-0.71 0.72 C13.3 0.35, 28.66 0.07, 62.09 0.18 M63.72 0.47 C63.76 15.99, 62.72 37.25, 59.97 53.34 M61.3 -0.4 C62.37 18.26, 60.89 36.01, 62.46 55.71 M59.97 54.77 C42.41 53.62, 24.17 54.57, 0.25 55.85 M61.72 55.6 C37.69 55.68, 12.53 55.64, 0.52 54.95 M1.33 55.24 C-0.27 34.56, -2.47 14.12, -1.96 1.53 M0.65 54.71 C-0.22 38.39, 0.44 21.45, -0.1 0.98" stroke="#000000" stroke-width="1" fill="none"></path></g><g stroke-linecap="round"><g transform="translate(200.92277061195773 104.5703125) rotate(0 30.067044806871536 -0.691065618683524)"><path d="M0.82 -0.46 C10.71 -0.24, 50.7 0.34, 60.35 0.49 M-0.21 -1.74 C9.53 -1.83, 50.33 -2.09, 59.98 -1.49" stroke="#000000" stroke-width="1" fill="none"></path></g><g transform="translate(200.92277061195773 104.5703125) rotate(0 30.067044806871536 -0.691065618683524)"><path d="M31.18 9.89 C43.19 3.34, 53.84 0.94, 59.82 -2.88 M32.66 7.07 C39.4 6.09, 45.87 3.89, 60.16 -1.25" stroke="#000000" stroke-width="1" fill="none"></path></g><g transform="translate(200.92277061195773 104.5703125) rotate(0 30.067044806871536 -0.691065618683524)"><path d="M31.62 -10.37 C43.32 -9.16, 53.8 -3.8, 59.82 -2.88 M33.1 -13.18 C39.87 -9.29, 46.23 -6.62, 60.16 -1.25" stroke="#000000" stroke-width="1" fill="none"></path></g></g><g stroke-linecap="round" transform="translate(264.57902061195773 68.703125) rotate(0 37.556640625 70.591796875)"><path d="M1.86 0.44 C16.46 0.64, 35.01 0.12, 73.72 -1.19 M-0.96 0.77 C27.81 -0.05, 55.55 -0.36, 75.36 0.12 M76.96 -1.94 C77.24 51.79, 74.55 98.88, 75.69 139.47 M76.11 0.11 C73.85 49.4, 74.95 99.86, 75.03 140.44 M73.69 139.4 C49.09 140.18, 26.57 141.61, 1.94 141.85 M75.5 141.36 C49.18 141.59, 24.24 141.16, 0.88 142.09 M0.24 141.91 C-2.9 86.84, -2.89 30.61, 0.14 -1.82 M-0.72 141.3 C-0.99 102.99, -1.02 65.49, 0.93 -0.59" stroke="#000000" stroke-width="1" fill="none"></path></g></svg>