<svg version="1.1" xmlns="http://www.w3.org/2000/svg" viewBox="0 0 366.14406532731437 219.88671875" width="366.14406532731437" height="219.88671875">
  <!-- svg-source:excalidraw -->
  
  <defs>
    <style class="style-fonts">
      @font-face {
        font-family: "Virgil";
        src: url("https://excalidraw.com/Virgil.woff2");
      }
      @font-face {
        font-family: "Cascadia";
        src: url("https://excalidraw.com/Cascadia.woff2");
      }
    </style>
  </defs>
  <rect x="0" y="0" width="366.14406532731437" height="219.88671875" fill="#ffffff"></rect><g stroke-linecap="round" transform="translate(89.23260699398128 149.015625) rotate(0 30.92578125 27.623046875)"><path d="M0 0 C0 0, 0 0, 0 0 M0 0 C0 0, 0 0, 0 0 M-0.11 6.47 C0.67 4.49, 2.27 2.95, 4.82 -0.02 M-0.46 6.17 C0.99 4.35, 2.44 3, 5.36 0.7 M-0.34 11.01 C2.98 8.03, 6.9 3.38, 11.12 0.41 M0.32 12.38 C3.51 8.06, 7.6 4.41, 10.91 -0.57 M1.14 20.01 C3.37 13.38, 5.13 9.12, 14.31 -1.39 M-0.69 18.25 C6.13 12.52, 12.53 4.06, 15 0.6 M2.16 24.45 C6.77 14.31, 12.23 7.34, 22.4 1.22 M0.76 23.74 C5.15 17.81, 9.28 13.23, 20.31 -0.21 M-1.16 30.63 C6.04 24.25, 13.47 17.52, 27.07 -0.56 M-0.32 30.24 C6.9 23.44, 13.93 15.08, 26.13 0.31 M1.49 36.85 C9.35 24.92, 17.37 14.02, 32.56 0.41 M-0.77 37.82 C10.25 26.92, 17.69 14.73, 32.02 0.51 M0.95 41.99 C9.47 31.95, 21.68 19.97, 36.91 1.92 M1.08 41.71 C8.56 32.32, 16 23.87, 36 0.92 M1.02 48.33 C12.09 37.9, 20.34 23.39, 41.7 0.93 M0.73 49.84 C7.8 37.54, 17.07 28.08, 42 0.46 M-0.44 54.82 C13.44 41.08, 24.07 25.26, 49.21 0.21 M0.35 53.74 C18.55 33.9, 37.39 11.73, 47.93 -0.34 M4.22 56.68 C15.58 41.96, 31.07 24.32, 52.12 0.79 M3.46 58.82 C17.55 42, 31.39 24.73, 53.2 -1.15 M8.97 55.93 C24.3 36.09, 42.98 19.33, 58.69 0.64 M9.24 58.54 C27.23 36.66, 44.91 16.29, 58.78 -0.57 M15.19 56.05 C24.81 43.54, 35.23 30.13, 61.81 -0.11 M12.5 57.7 C26.06 45.49, 38.32 31.58, 64.01 0.8 M18.7 56.4 C30.63 44.83, 45.13 28.18, 61.52 6.49 M18.5 56.58 C36.04 37.71, 54.14 17.98, 62.1 6.62 M24.25 57.88 C36.94 43.4, 50.88 25.31, 61.92 11.88 M24.35 57.19 C40.2 39.7, 55.16 22.74, 62.71 14.18 M31.25 59.43 C38.24 46.94, 44.09 40.3, 62.43 20.9 M28.55 57.48 C38.43 48.39, 46.53 38.2, 62.23 18.96 M34.94 56.66 C44.07 45.52, 56.05 31.55, 60.94 27.38 M34.99 58.59 C43.53 46.3, 54.99 35.54, 62.64 25.87 M40.09 58.36 C47.42 46.99, 58.02 36, 64.76 29.38 M40.53 57.02 C45.94 49.19, 53.19 42.34, 63.39 31.11 M46.15 57.08 C48.81 51.37, 55.24 46.47, 61.89 37.78 M44.97 57.9 C50.13 54.22, 53.38 48.9, 62.42 36.51 M49.18 57.67 C54.76 53.35, 56.01 51.06, 63.83 43.65 M50.65 57.18 C54.13 54.89, 56.65 50.73, 62.14 43.45 M54.85 56.78 C58.43 54.57, 62 50.69, 63.98 50.24 M56.12 57.22 C57.07 56.06, 58.85 54.17, 63.23 49.3" stroke="#228be6" stroke-width="0.5" fill="none"></path><path d="M-1.27 0.83 C23.8 -0.14, 46.7 -0.25, 60.52 -1.8 M0.87 -0.15 C16.49 0.02, 31.26 -0.06, 62.74 0.3 M61.22 0.47 C60.17 12.26, 61.49 21.91, 60.93 55.4 M61.82 -0.51 C61.52 11.16, 61.08 22.81, 61.95 55.31 M60.48 55.69 C39.76 53.15, 17.72 54.1, 0.48 54.21 M61.98 56.22 C38.68 54.77, 14.3 54.54, -0.04 54.89 M-1.24 54.8 C-1.39 36.96, 2.14 18.91, -1.16 1.57 M0.22 56.08 C-0.23 44.36, -0.32 31.37, -0.65 0.85" stroke="#000000" stroke-width="1" fill="none"></path></g><g transform="translate(116.65838824398128 164.138671875) rotate(0 3.5 12.5)"><text x="3.5" y="18" font-family="Virgil, Segoe UI Emoji" font-size="20px" fill="#000000" text-anchor="middle" style="white-space: pre;" direction="ltr">1</text></g><g stroke-linecap="round" transform="translate(88.25995074398128 17.498046875) rotate(0 30.92578125 27.623046875)"><path d="M-0.33 -0.01 C18.29 -0.38, 38.35 -2.06, 60.98 1.08 M0.61 0.05 C18.42 0.06, 38.71 0.39, 60.86 -0.76 M60.6 1.15 C61.74 13.01, 60.75 26.82, 60.01 53.91 M61.89 -0.33 C61.43 12.58, 61.94 25.54, 62.53 54.9 M62.52 53.45 C47.63 54.53, 31.14 54.35, 1.74 54.1 M62.63 54.99 C45.82 55.36, 29.07 55.49, 0.24 54.7 M-1.69 54.86 C2.18 40.14, -0.82 27.66, -1.72 1.44 M0.17 56.16 C-0.04 35.86, -0.77 17.85, -0.33 -0.51" stroke="#000000" stroke-width="1" fill="none"></path></g><g stroke-linecap="round" transform="translate(81.56463824398128 10) rotate(0 37.556640625 99.943359375)"><path d="M-0.01 -1.55 C17.62 -1.2, 33.69 -0.74, 76.19 0.12 M0.05 -0.49 C29.07 0.43, 58.49 -1.45, 74.35 -0.59 M76.26 0.06 C75.26 52.7, 75.74 105.41, 73.77 198.5 M74.79 -0.4 C73.93 59.39, 74.15 119.26, 74.76 199.41 M73.32 201.26 C56.88 200.62, 39.31 201.88, -1.15 199.18 M74.86 200.23 C51.12 200.43, 27.73 200.71, -0.55 199.53 M-0.38 201.73 C-0.09 151.12, 2.01 102.95, 1.44 0.92 M0.92 199.96 C-1.93 134.97, -0.82 71.02, -0.51 0.34" stroke="#000000" stroke-width="1" fill="none"></path></g><g stroke-linecap="round" transform="translate(88.13338378921861 80.6484375) rotate(0 30.92578125 27.623046875)"><path d="M0 0 C0 0, 0 0, 0 0 M0 0 C0 0, 0 0, 0 0 M-0.73 6.38 C1.24 4.16, 2.9 2.88, 4.43 -0.03 M-0.53 6.4 C1.41 5.32, 2.65 3.68, 4.95 0.24 M-1.14 12.67 C3.18 9.6, 5.67 7.71, 9.06 0.33 M0.75 12.31 C4.01 7.38, 6.7 3.22, 11.27 0.47 M-2.01 17.32 C4.54 9.94, 13.32 2.83, 15.66 -0.79 M0.52 17.67 C3.66 13.47, 8.98 8.05, 15.59 1.27 M-1.55 23.17 C8.13 17.88, 12.32 8.63, 23.13 0.92 M-0.49 24.63 C4.9 17.63, 10.76 11.23, 20.84 -0.65 M1.13 31.56 C8.92 20.25, 15.37 13.19, 25.21 -0.36 M0.47 30.67 C7.06 21.97, 14.52 14.55, 26.19 1.17 M-2.1 36.8 C10 26.44, 18.69 13.14, 33.32 -1.14 M-1.13 36.24 C12.21 22.61, 24.5 8.07, 31.74 0.3 M1.77 43.14 C10.33 32.44, 18.92 20.24, 37.31 2.14 M-0.62 43.32 C7.22 34.09, 15.61 24.5, 36.65 0.83 M-0.61 47.58 C10.15 36.49, 20.71 22.31, 43.22 1.56 M-0.82 48.85 C16.55 30.69, 33.34 11.18, 42.75 -0.5 M0.03 53.22 C16.42 37.41, 31.28 21.06, 46.38 0.37 M0.81 53.73 C10.94 42.06, 20.56 31.01, 48.49 1.02 M3.43 56.76 C13.8 45.02, 26.35 28.71, 53.17 1.49 M2.88 57.01 C22.03 34.33, 42.05 12.93, 52.56 0.17 M8.24 59.11 C20.15 45.84, 31.82 31.84, 58.16 2.12 M8.27 58.13 C28.54 33.87, 47.07 12.64, 57.83 1.15 M13.16 55.97 C22.06 45.74, 32.44 32.67, 61.19 -0.98 M14.25 58.17 C27.8 41.81, 40.66 24.73, 62.29 0.44 M19.94 56.33 C28.59 44.43, 42.63 32.7, 61.87 6.13 M19.21 58 C27.37 46.7, 37.69 36.45, 62.45 7.13 M23.92 56.09 C34.93 42.87, 49.2 29.68, 64.47 14.26 M24.07 58.54 C32.68 48.43, 40.93 36.42, 61.96 14.2 M27.68 58.57 C42.21 44.34, 55.03 26.33, 61.25 17.02 M29.81 56.97 C38.64 45.85, 50.34 35.05, 63.92 19.2 M34.28 57.12 C39.73 51.92, 49.21 41.6, 63.52 26.32 M35.52 57.96 C45.26 46.22, 56.62 32.82, 63.65 25.34 M40.93 55.64 C49.93 46.71, 56.04 39.62, 64.68 31.75 M39.92 57.85 C46.56 50.81, 52.37 44.21, 62.68 31.52 M44.17 59.19 C49.04 52.79, 53.1 45.21, 63.4 37.05 M45.39 57.93 C50.01 50.41, 55.61 44.65, 63.7 36.53 M49.67 58.4 C55.67 52.98, 56.7 48.14, 62.65 43.54 M51.43 56.67 C53.47 53.24, 57.97 49.49, 62.51 43.06 M56.36 57.13 C58.3 56.79, 58.2 54.51, 63.64 50.14 M55.38 58.24 C57.52 55.89, 58.72 54.36, 62.57 49.66" stroke="#228be6" stroke-width="0.5" fill="none"></path><path d="M-1.55 -0.12 C19.8 -1.8, 41.39 1.08, 61.97 1.75 M-0.49 -0.03 C18.53 0.26, 34.31 -0.8, 61.26 -0.32 M61.91 -0.32 C60.58 18.02, 59.66 34.38, 60.46 55.18 M61.45 -0.16 C61.97 13.81, 62.55 27.15, 61.37 54.56 M63.23 54.4 C42.42 53.65, 23.76 53.54, -0.71 55.51 M62.19 54.76 C37.25 54.73, 12.98 54.54, -0.36 54.63 M1.84 54.72 C-0.69 41.46, -1.26 25.98, 0.92 0.43 M0.08 54.98 C-0.75 34.91, -0.42 12.36, 0.34 0.74" stroke="#000000" stroke-width="1" fill="none"></path></g><g transform="translate(111.05916503921861 95.771484375) rotate(0 8 12.5)"><text x="8" y="18" font-family="Virgil, Segoe UI Emoji" font-size="20px" fill="#000000" text-anchor="middle" style="white-space: pre;" direction="ltr">2</text></g><g stroke-linecap="round"><g transform="translate(11.571001225449152 45.512101706055546) rotate(0 30.75397447041817 0.3320693508971999)"><path d="M-0.07 -0.8 C10.08 -0.73, 50.48 -0.66, 60.93 -0.52 M-1.57 1.4 C8.94 1.71, 52.44 0.74, 63.08 0.74" stroke="#000000" stroke-width="1" fill="none"></path></g><g transform="translate(11.571001225449152 45.512101706055546) rotate(0 30.75397447041817 0.3320693508971999)"><path d="M33.68 9.54 C42.64 9.26, 52.03 6.76, 62.79 1.97 M35.9 11.64 C42.65 7.35, 51.62 4.56, 63.31 0.12" stroke="#000000" stroke-width="1" fill="none"></path></g><g transform="translate(11.571001225449152 45.512101706055546) rotate(0 30.75397447041817 0.3320693508971999)"><path d="M33.44 -10.98 C42.31 -5.11, 51.77 -1.47, 62.79 1.97 M35.65 -8.88 C42.38 -6.91, 51.42 -3.43, 63.31 0.12" stroke="#000000" stroke-width="1" fill="none"></path></g></g><g stroke-linecap="round" transform="translate(288.69875282731437 149.0156250000001) rotate(0 30.92578125 27.623046875)"><path d="M0 0 C0 0, 0 0, 0 0 M0 0 C0 0, 0 0, 0 0 M-0.49 7.13 C0.24 5.42, 2.18 3.11, 4.99 -0.19 M0.13 6.65 C1.36 4.36, 2.8 3.11, 4.69 0.69 M-0.93 11.38 C2.5 7.96, 6.62 2.7, 11.53 1.05 M0.26 11.96 C1.93 9.33, 4.21 6.65, 10.37 0.57 M1.49 17.34 C5.98 12.11, 10.72 4.47, 15.44 0.59 M-0.22 18.15 C3.71 13.63, 7.81 7.64, 14.95 1.21 M0.85 24.38 C5.28 16.61, 13.94 9.63, 23.2 -1.33 M-0.59 23.64 C7.09 15.97, 15.03 8.11, 22.02 -0.07 M-1.09 29.52 C8.37 21.65, 20.02 8.37, 27.66 0.84 M-0.71 30.95 C6.05 25.32, 11.52 18.32, 26.18 1.28 M1.25 38.54 C6.85 28.07, 17.03 14.97, 32.69 -1.89 M0.18 37.21 C8.62 27.36, 16.57 17.93, 31.39 -0.96 M-0.44 44.45 C8.33 35.28, 14.29 26.96, 38.73 -0.28 M0.75 42.69 C13.59 27.55, 25.06 13.91, 37.86 -0.34 M0.29 48.28 C16.61 32.12, 31.54 15.03, 40.63 -0.45 M-0.13 48.32 C13.1 35.74, 24.62 21.31, 42.54 0.49 M1.74 54.15 C10.67 42.05, 17.67 34.31, 48.91 0.55 M0.35 54.73 C12.36 39.22, 25.12 25.86, 48.07 1.15 M2.07 58.78 C14.56 46.14, 24.82 31.98, 51.61 1.21 M2.6 58.48 C15.26 43.8, 26.75 30.05, 53.25 -0.25 M7.78 55.92 C20.31 42.77, 33.79 26.6, 59.6 -0.01 M7.81 58.43 C24.13 39.2, 40.28 19.62, 58.04 0.18 M15.11 56.8 C21.61 47.98, 32.2 32.63, 63.71 2.45 M12.92 57 C27.63 40.7, 41.49 25.85, 63.32 1.16 M17.03 58.52 C28.3 47.31, 37.22 33.23, 61.46 8.83 M18.38 58.36 C28.13 45.82, 36.55 36.08, 63.29 6.52 M21.98 59.53 C31.56 50.34, 38.51 41.36, 61.98 11.52 M24.44 58.84 C34.06 46.16, 42.76 36.53, 63.04 12.68 M27.64 58.02 C41.08 45.34, 52.96 33.28, 61.51 18.92 M29.65 57.11 C42.4 41.48, 56.14 27.3, 63.72 19.22 M34.27 56.43 C39.72 48.63, 46.42 43.54, 62.61 24.85 M33.81 57.51 C42.13 48.91, 50.06 40.73, 62.37 26.21 M38.52 55.82 C47.73 48.44, 55.33 40.2, 61.24 29.68 M40.46 58.34 C47.73 49.4, 54.34 42.43, 62.7 30.14 M46.74 56.34 C51.5 50.67, 57.51 44.48, 62.16 38.82 M45.85 57.1 C50.15 53.86, 53.48 47.33, 63.11 38.3 M52.57 55.83 C53.54 55, 56.83 50.62, 62.07 43.88 M51.31 56.86 C54.67 53.26, 57.2 50.61, 63.39 44.66 M55.51 57.57 C58.41 56.13, 59.98 54.01, 63.54 49.42 M56.21 57.48 C58.31 55.2, 60.42 53.44, 62.68 49.13" stroke="#228be6" stroke-width="0.5" fill="none"></path><path d="M-1.3 0.36 C22.42 0.81, 40.39 1.25, 60.87 -0.04 M0.99 -0.63 C13 -1.2, 26.98 -0.13, 61.2 -0.48 M60.36 -0.13 C60.88 21.68, 61.63 44.29, 62.87 55.34 M61.68 0.78 C61.37 21.23, 61 39.48, 61.89 55.96 M61.66 57.19 C41.77 56.32, 24.13 57.71, 0.7 56.25 M61.97 55.29 C48.09 54.62, 35.39 55.02, 0.41 54.98 M0.33 53.72 C1.79 34.64, 0.69 13.77, 1.99 0.99 M0.67 54.27 C0.43 42.53, 0.34 27.98, -0.98 0.12" stroke="#000000" stroke-width="1" fill="none"></path></g><g transform="translate(316.12453407731437 164.1386718750001) rotate(0 3.5 12.5)"><text x="3.5" y="18" font-family="Virgil, Segoe UI Emoji" font-size="20px" fill="#000000" text-anchor="middle" style="white-space: pre;" direction="ltr">1</text></g><g stroke-linecap="round" transform="translate(287.72609657731437 17.498046875000114) rotate(0 30.92578125 27.623046875)"><path d="M1.34 0.66 C15.34 0.99, 33.26 -0.16, 60.28 1.44 M-0.7 -0.97 C20.53 0.5, 41.24 -0.09, 62.73 -0.22 M61 0.25 C61.34 14.31, 62.46 25.84, 63.18 53.51 M61.84 0.99 C61.38 17.93, 61.79 38.57, 61.86 55.62 M60.37 55.74 C37.02 57.74, 13.96 56.85, -1.65 54.77 M61.54 54.82 C45.77 55.25, 29.2 55.01, 0.76 54.69 M1.49 55.39 C0.29 38.56, 1.9 22.83, -1.04 0.21 M0.48 56.24 C0.02 43.51, -1.35 31.61, 0.88 -0.52" stroke="#000000" stroke-width="1" fill="none"></path></g><g stroke-linecap="round" transform="translate(281.03078407731437 10.000000000000114) rotate(0 37.556640625 99.94335937499994)"><path d="M0.66 -1.78 C18.75 -1.48, 35.25 -2.07, 76.55 0.77 M-0.97 -0.42 C30.09 -0.12, 59.5 1.4, 74.89 -0.67 M75.36 -0.1 C76.42 46.09, 75.08 91.46, 73.38 200.74 M76.11 -0.38 C75.67 56.61, 77.38 113.15, 75.49 200.81 M75.61 199.35 C55.17 200.03, 32.46 197.68, -0.48 199.23 M74.69 200.33 C51.66 200.06, 27.99 200.41, -0.55 199.91 M0.14 200.27 C1.54 138.64, 2.52 72.37, 0.21 -1.7 M0.99 200.28 C2.09 125.48, 2.07 53.9, -0.52 -0.47" stroke="#000000" stroke-width="1" fill="none"></path></g><g stroke-linecap="round" transform="translate(287.5995296225517 80.64843750000011) rotate(0 30.92578125 27.623046875)"><path d="M0 0 C0 0, 0 0, 0 0 M0 0 C0 0, 0 0, 0 0 M-0.04 5.65 C1.84 3.47, 3.93 2.29, 4.81 1.14 M-0.35 6.78 C1.34 4.56, 3.76 2.15, 5.38 0.1 M-0.79 11.37 C3.85 9.99, 4.48 6.84, 11.74 0.22 M-0.46 12.18 C2.99 9.14, 6.71 4.87, 10.6 0.61 M-0.44 17.26 C3.51 14.26, 7.03 11.02, 17.48 0.13 M-0.7 17.73 C3.53 14.36, 8.68 7.9, 16.47 0.62 M0.33 25.28 C9.05 15.17, 14.52 7.48, 21.11 -1.79 M0.58 24.54 C6.51 17.88, 11.68 11.6, 21.36 -0.61 M1.28 29.92 C8.19 23.16, 11.46 14.22, 25.89 -1.14 M0.72 30.56 C8.86 20.76, 17.73 8.65, 26.13 1.04 M-0.63 34.98 C13.19 20.74, 23.88 9.94, 31.43 0.76 M0.22 36.99 C9.64 23.71, 19.91 12.1, 31.29 -0.39 M-0.96 44.21 C16.45 24.99, 30.08 9.38, 35.32 1.49 M-0.22 42.85 C12.39 28.77, 23.64 16.03, 35.88 0.46 M0.85 49.93 C9.07 35.36, 21.92 20.78, 42.87 -0.15 M0.61 48.51 C9.66 37.56, 18.92 25.47, 42.02 0.6 M-1.39 56.21 C14.61 40.11, 25.66 24.33, 48.5 0.39 M0.19 54.69 C16 38.69, 29.47 19.79, 47.81 -0.06 M3.33 56.33 C18.1 39.33, 35.86 18.25, 53.48 -0.24 M1.88 58.81 C20.5 37.14, 37.93 17.2, 53.84 -0.42 M7.78 57.24 C20.88 44.61, 30.83 33.26, 59.3 -0.75 M8.17 57.19 C27.6 34.95, 46.12 12.47, 58.16 1.11 M11.81 55.98 C26.61 45.33, 37.84 29.62, 64.79 -0.14 M13.59 58.44 C23.62 46.88, 33.06 33.66, 64.07 -0.39 M17.39 56.09 C33.08 41.35, 48.07 22.92, 64.85 5.89 M18.5 57.62 C36.08 37.94, 51.57 19.69, 62.48 5.99 M23.33 59.08 C38.03 38.76, 52.4 22.14, 63.34 14.44 M23.37 58.61 C39.55 39.77, 54.75 22.9, 63.52 12.39 M31.05 58.86 C38.89 44.68, 53.31 31.54, 64.65 19.2 M29.28 58.33 C39.31 47.7, 46.6 37.54, 63.68 18.86 M33.94 58.15 C41.05 50.1, 47.08 44, 60.79 23.95 M34.89 58.07 C41.68 50.08, 50.12 40.39, 63.65 24.56 M39.15 58.98 C43.38 50.26, 50.1 44.93, 62.63 31.62 M40.89 57.71 C48.48 46.36, 58.44 37.11, 63.13 31.82 M44.87 59.05 C48.46 54.56, 51.97 48.32, 63.16 38.82 M44.98 57.11 C49.32 53.83, 52.92 48.24, 62.8 38.41 M50.28 58.14 C52.81 54.5, 55.53 49.86, 60.84 44.85 M50.4 58.16 C54.35 55.05, 56.06 50.88, 63.08 43.6 M56.18 58.42 C58.3 55.35, 59.72 53.97, 62.05 50.32 M56.27 58.24 C57.18 55.39, 58.79 53.53, 63.34 48.97" stroke="#40c057" stroke-width="0.5" fill="none"></path><path d="M-1.78 1.1 C18.7 -0.25, 37.79 1.23, 62.62 1.98 M-0.42 0.11 C14.02 0.12, 30.21 0.38, 61.18 -0.75 M61.75 1.44 C62.64 16.3, 62.94 30.67, 62.71 54.91 M61.48 -1 C61.88 21.58, 61.85 42.11, 62.78 55.15 M61.32 57.14 C37.97 56.41, 11.05 54.92, -0.66 55.49 M62.3 55.22 C43.43 54.72, 24.95 54.43, 0.02 55.41 M0.38 55.26 C1.58 43.88, -1.45 30.73, -1.7 1.35 M0.4 55.39 C-1.24 44.19, 0.61 32.36, -0.47 0.99" stroke="#000000" stroke-width="1" fill="none"></path></g><g transform="translate(304.0253108725517 95.77148437500011) rotate(0 14.5 12.5)"><text x="14.5" y="18" font-family="Virgil, Segoe UI Emoji" font-size="20px" fill="#000000" text-anchor="middle" style="white-space: pre;" direction="ltr">"2"</text></g><g stroke-linecap="round"><g transform="translate(211.03714705878224 45.51210170605566) rotate(0 30.770109772408617 0.38644107203975864)"><path d="M0.66 -0.59 C10.93 -0.56, 51.62 -1.12, 61.99 -0.94 M-0.45 1.72 C9.62 1.96, 50.53 0.66, 61.03 0.1" stroke="#000000" stroke-width="1" fill="none"></path></g><g transform="translate(211.03714705878224 45.51210170605566) rotate(0 30.770109772408617 0.38644107203975864)"><path d="M32.29 11.44 C41.05 8.97, 52.65 5.73, 59.77 -1.29 M32.62 11.01 C39.84 8.92, 43.94 6.08, 60.96 -0.32" stroke="#000000" stroke-width="1" fill="none"></path></g><g transform="translate(211.03714705878224 45.51210170605566) rotate(0 30.770109772408617 0.38644107203975864)"><path d="M31.47 -9.07 C40.32 -4.7, 52.19 -1.11, 59.77 -1.29 M31.8 -9.5 C39.1 -7.42, 43.37 -6.09, 60.96 -0.32" stroke="#000000" stroke-width="1" fill="none"></path></g></g></svg>