<svg version="1.1" xmlns="http://www.w3.org/2000/svg" viewBox="0 0 776.246158902261 572.4911562732846" width="776.246158902261" height="572.4911562732846">
  <!-- svg-source:excalidraw -->
  
  <defs>
    <style class="style-fonts">
      @font-face {
        font-family: "Virgil";
        src: url("https://excalidraw.com/Virgil.woff2");
      }
      @font-face {
        font-family: "Cascadia";
        src: url("https://excalidraw.com/Cascadia.woff2");
      }
    </style>
  </defs>
  <rect x="0" y="0" width="776.246158902261" height="572.4911562732846" fill="#ffffff"></rect><g stroke-linecap="round" transform="translate(283.36125340773606 10) rotate(0 37.890625 162.86722647897363)"><path d="M-1.41 -0.36 C21.15 -0.57, 42.39 0.63, 77.38 0.1 M-0.76 0.36 C17.14 0.57, 34.56 0.68, 75.4 0.9 M76.43 1.09 C73.48 87.2, 73.95 173.41, 76.79 325.89 M75.7 0.14 C77.41 127.73, 78.21 257.22, 76.13 325.35 M77.14 325.27 C57.77 327.06, 39.05 324.28, -1.31 325.42 M76.24 325.26 C45.18 325.94, 16.53 326.57, 0.11 326.54 M-0.24 326.64 C2.47 225.82, 2.24 124.79, 0.39 -1.15 M0.62 326.32 C0.27 202.98, -0.33 80.91, 0.21 0.38" stroke="#000000" stroke-width="1" fill="none"></path></g><g stroke-linecap="round" transform="translate(291.0237790224851 77.93682428711827) rotate(0 30.92578125 27.623046875)"><path d="M0 0 C0 0, 0 0, 0 0 M0 0 C0 0, 0 0, 0 0 M0.46 6.73 C0.46 4.76, 2.04 3.1, 5.36 -0.05 M0 6.13 C1.09 4.45, 2.6 2.91, 5 0.46 M-0.28 11.01 C4.26 7.03, 8.73 1.35, 10.6 0.81 M0.32 11.44 C3.25 9.02, 6 5.85, 10.2 0.1 M0.19 16.54 C4.5 11.27, 10.61 5.6, 17.3 -0.03 M0.19 17.7 C5.2 12.87, 9.54 6.62, 14.64 0.32 M-0.13 22.48 C6.05 17.07, 9.76 13.86, 22.69 -1.96 M0.69 23.46 C8.14 14.74, 16.57 6.54, 21.04 -0.64 M-0.38 31.72 C8.83 17.14, 21.54 5.52, 24.93 0.14 M-0.94 29.77 C9.41 19.51, 18.35 8.82, 25.96 0.74 M-0.96 36.7 C9.18 26, 22.69 13.03, 32.65 -0.46 M-0.94 36.08 C6.91 28.71, 11.47 22.08, 32.2 -0.97 M2.05 40.75 C9.32 34.37, 15.24 24.78, 37.4 1.22 M-0.25 42.18 C10.94 28.81, 23.26 14.91, 37.15 0.78 M0.65 49.65 C13.58 35.12, 25.84 20.36, 42.54 -0.86 M-0.85 49.34 C7.56 39.3, 15.64 29.8, 42.65 0.29 M-0.82 53.66 C16.8 37.06, 29.94 21.12, 47.74 -0.38 M-0.49 54.87 C10.87 40.57, 23.44 26.09, 47.41 0.56 M1.36 59.86 C18.89 37.05, 38.69 16.83, 53.88 -1.45 M2.32 57.93 C15.72 42.38, 27.64 28.19, 52.95 -0.99 M10.02 59.45 C26.47 36.6, 44.57 12.91, 59.48 0.79 M8.99 57.47 C25.88 37.4, 43.41 17.31, 57.96 0.45 M11.53 59.11 C27.62 43.12, 37.96 30.59, 65.02 2.21 M13.22 57 C31.03 36.74, 47.63 17.12, 63.57 -0.44 M17.97 56.24 C28.29 44.29, 38.25 33.54, 62.71 8 M18.21 58.44 C32.2 43.03, 45.14 28.34, 63.12 6.84 M24.93 57.31 C34.43 47.53, 45.06 36.53, 64.59 13.18 M24.39 58 C36.13 42.43, 48.97 28.89, 63.26 13.59 M28.48 59.16 C37.64 46.06, 44.88 36.18, 61.18 17.24 M29.36 57.96 C40.91 46.02, 51.7 33.22, 62.45 18.07 M33.61 56.34 C43.11 47.83, 55.72 33.55, 63.69 24.42 M34.27 57.59 C42.94 47.22, 51.64 36.95, 62.31 26.37 M39.13 58.36 C49.13 50.14, 55.65 38.93, 62.41 31.78 M39.74 56.93 C49.03 47.82, 55.81 39.49, 63.8 31.93 M46.14 57.1 C47.46 54.38, 51.21 51.2, 61.06 38.48 M44.3 57.66 C50.95 51.08, 56.17 45.76, 62.7 37.45 M50.93 56.16 C54.17 54.3, 54.81 52.76, 63.08 42.11 M50.26 57 C54.62 52.68, 58.04 50.35, 61.87 44.4 M56.74 57.65 C59.05 54.36, 61.68 52.49, 62.22 50.42 M55.87 58.07 C57.78 54.92, 60.82 52.22, 63.33 49.42" stroke="#7950f2" stroke-width="0.5" fill="none"></path><path d="M-0.36 -0.06 C14.83 0.4, 31.39 2.04, 61.95 -1.31 M0.36 -0.62 C20.17 -0.5, 40.3 0.09, 62.75 -0.35 M63.43 -1.92 C63.07 12.93, 62.99 29.79, 62.08 57.12 M62.05 -0.4 C61.59 22.02, 63.36 43.05, 61.29 54.71 M61.39 55.9 C39.18 56.27, 12.16 54.36, -0.31 57.16 M61.38 54.62 C48.88 56.23, 37 55.64, 0.8 55.33 M1.31 56.71 C0.24 43.38, -0.64 29.81, -1.67 1.5 M0.85 55.27 C-0.51 38.44, -0.45 23.61, 0.55 0.55" stroke="#000000" stroke-width="1" fill="none"></path></g><g stroke-linecap="round" transform="translate(18.430366847826008 290.16073570478375) rotate(0 99 17.5)"><path d="M-0.53 -0.04 C46.11 1.67, 90.97 -1.25, 198.47 -1.1 M0.15 -0.97 C44.53 0.84, 89.45 0.88, 197.56 -0.23 M199.35 -1.24 C199.54 13.6, 198.5 26.15, 199.7 36.87 M197.23 0.75 C199.07 10.59, 197.51 19.64, 198.92 34.7 M199.56 35.61 C123.96 34.34, 52.06 37.56, -1.95 36.74 M197.55 35.69 C129.65 33.87, 61.73 33.84, -0.65 35.89 M0.74 36.14 C-0.38 25.67, -1.9 16.71, -0.22 -1.54 M-0.94 34.17 C-1.17 21.65, 0.25 8.25, 0.58 0.17" stroke="#000000" stroke-width="1" fill="none"></path></g><g transform="translate(85.43036684782601 295.16073570478375) rotate(0 32 12.5)"><text x="32" y="18" font-family="Virgil, Segoe UI Emoji" font-size="20px" fill="#000000" text-anchor="middle" style="white-space: pre;" direction="ltr">&lt;main&gt;</text></g><g stroke-linecap="round" transform="translate(10 282.4751416528529) rotate(0 105.96127717391323 26.177630585748602)"><path d="M0.59 1.41 C62.99 -1.12, 126.22 -0.93, 210.58 0.63 M0.23 -0.34 C51.23 1.5, 100.48 1.61, 212.33 0.69 M213.19 1.46 C212.5 12.56, 213.98 23.24, 211.69 52.76 M212.92 0.5 C210.96 13.05, 212.44 26.87, 212.6 52.12 M210.84 51.21 C141.14 54.6, 69.19 54.45, 0.81 51.52 M212.08 52.45 C162.35 53.72, 110.79 54.43, -0.15 52.93 M-0.15 52.92 C-1.86 34.31, -0.41 11.73, 1.8 1.7 M-0.88 52.66 C1.04 37.05, 1.07 20.82, 0.7 -0.39" stroke="#000000" stroke-width="1" fill="none"></path></g><g stroke-linecap="round" transform="translate(290.55698794343107 16.421928842729812) rotate(0 30.92578125 27.623046875)"><path d="M-1.24 0.3 C13.22 0.3, 29.55 1.58, 61.15 -0.87 M-0.96 0.67 C16.54 0.15, 35.04 -0.37, 62.79 0.85 M61.04 -1.55 C63.28 23.73, 62.79 42.36, 60.78 57.08 M62.18 0.78 C62.53 14.28, 61.57 29.63, 62.81 54.27 M60.6 54.34 C39.32 55.32, 14.23 56.56, 0.17 53.95 M62.58 55.61 C38.34 55.58, 13.98 54.82, 0.75 55.14 M0.05 53.38 C-2.17 41.18, 0.11 31.7, 1.09 1.17 M0.01 54.8 C-0.58 37.66, 0.57 20.14, 0.42 0.97" stroke="#000000" stroke-width="1" fill="none"></path></g><g stroke-linecap="round"><g transform="translate(322.2357422356031 107.32622571773072) rotate(0 37.58738655228558 -1.2396026668864124)"><path d="M-0.74 -0.1 C11.77 -0.59, 63.02 -2.27, 75.91 -2.38 M1.08 -1.19 C13.31 -1.62, 62.28 -1.07, 74.77 -1.33" stroke="#000000" stroke-width="1" fill="none"></path></g><g transform="translate(322.2357422356031 107.32622571773072) rotate(0 37.58738655228558 -1.2396026668864124)"><path d="M46.46 8.42 C55.58 5.88, 68.81 3.43, 75.14 -0.44 M46.03 10 C55.5 4.62, 65.85 2.58, 74.85 -0.87" stroke="#000000" stroke-width="1" fill="none"></path></g><g transform="translate(322.2357422356031 107.32622571773072) rotate(0 37.58738655228558 -1.2396026668864124)"><path d="M46.38 -12.1 C55.64 -6.94, 68.89 -1.7, 75.14 -0.44 M45.96 -10.52 C55.54 -8.68, 65.92 -3.5, 74.85 -0.87" stroke="#000000" stroke-width="1" fill="none"></path></g></g><mask></mask><g transform="translate(407.3572700133809 94.38525349550855) rotate(0 48.49999999999977 12.5)"><text x="0" y="18" font-family="Virgil, Segoe UI Emoji" font-size="20px" fill="#000000" text-anchor="start" style="white-space: pre;" direction="ltr">/pattern/</text></g><g stroke-linecap="round" transform="translate(291.19277348560354 141.37852606495335) rotate(0 30.92578125 27.623046875)"><path d="M0 0 C0 0, 0 0, 0 0 M0 0 C0 0, 0 0, 0 0 M0.05 5.83 C1.17 5.19, 2.1 2.85, 4.58 -0.36 M-0.55 6.29 C2.09 4.45, 3.55 1.72, 5.37 0.4 M-0.6 13.14 C1.33 7.71, 4.91 5.86, 10.04 0.74 M-0.47 12.46 C3.33 8.64, 6.25 3.61, 10.68 0.26 M-1.59 19.96 C6.67 9.99, 12.68 3.36, 16.13 -1.58 M-0.4 18.38 C5.99 12.98, 10.8 6.71, 15.15 0.01 M0.36 25.12 C8.14 15.75, 13.03 10.4, 19.45 0.95 M1.05 23.39 C7.6 13.6, 16.69 5.32, 21 0.27 M-1.84 32.14 C9.78 19.94, 18.59 8.56, 24.67 -0.93 M0.22 31.35 C6.77 20.48, 14.49 11.68, 26.97 0.4 M-1.94 35.08 C10.73 25.21, 21.6 8.9, 33.56 1.14 M-1.07 37.53 C7.29 29.14, 13.02 21.09, 32.67 0.06 M1.11 44.38 C9.79 28.95, 22.28 17.16, 37.3 0.78 M1.04 42.81 C12.36 29.19, 24.26 14.52, 37.02 0.1 M-1.04 50.42 C14.52 30.02, 33.35 12.17, 41.41 -1.96 M0.13 48.77 C8.36 38.88, 16.79 28.55, 42.19 0.41 M2.08 53.58 C13.01 39.05, 23.84 25.87, 46.2 -1.17 M0.75 54.27 C11.17 40.5, 23.73 27.92, 47.94 0.79 M2.83 56.55 C20.37 40.73, 34.64 23.04, 51.67 0.18 M3.45 57.33 C22.24 36.23, 39.63 15.44, 53.58 0.75 M7.21 55.62 C28.2 33.92, 46.08 12.89, 58.01 1.55 M7.44 56.93 C28.42 35.15, 45.76 14.32, 58.36 0.41 M15.19 56.11 C28.9 39.28, 44.16 22, 61.8 -1.08 M12.98 57.93 C27.31 43, 40.44 25.93, 62.73 1.02 M19.01 59.5 C36.85 36.7, 53.08 18.39, 61.93 7.09 M18.58 56.82 C35.66 39.29, 51.26 20.65, 62.07 6.92 M24.9 57.88 C36.71 41.31, 51.99 28.69, 63.57 12.18 M24.7 57.61 C35.23 44.33, 46.07 32.69, 61.83 12.45 M30.08 59.21 C39.18 48.43, 43.89 41.31, 64.85 18.3 M29.77 57.66 C36.49 49.02, 44.6 41.05, 62.05 18.2 M35.16 58.63 C43.46 44.9, 54.2 33.95, 63.17 23.79 M34.48 58.56 C43.96 46.4, 52.8 37.31, 62.62 25.84 M41.11 55.79 C47.8 47.86, 55.05 39.41, 61.43 29.32 M39.78 57.92 C44.27 50.87, 50.34 46.36, 63.59 31.62 M45.65 58.15 C51.61 51.73, 54.68 43.22, 62.5 39.18 M45.21 58.25 C51.27 51.26, 56.74 45.2, 62.52 38.32 M52.1 58.2 C56.56 53.81, 58.29 48.96, 63.42 45.2 M50.86 56.85 C54.84 51.48, 58.72 46.77, 62.74 44.68 M55.08 57.48 C58.63 55.6, 60.13 51.64, 62.2 49.24 M55.78 58.09 C57.46 55.14, 59.88 53.27, 62.52 49.76" stroke="#15aabf" stroke-width="0.5" fill="none"></path><path d="M-0.88 0.57 C14.8 1.64, 27.16 -0.1, 61.83 -0.86 M-0.02 0.38 C21.46 -0.41, 43.68 -1.16, 61.7 0.57 M62.63 -0.99 C61.07 19.51, 61.29 38.1, 62.49 54.23 M62.17 0.95 C61.57 18.69, 61.23 39.47, 62.05 55.03 M63.61 54.44 C40.45 54.25, 18.83 53.69, -0.32 54.72 M62.47 55 C44.13 55.95, 24.08 55.69, 0.33 56.1 M-1 53.27 C-1.46 37.2, -0.58 17.44, 0.62 -0.09 M0.18 54.41 C-0.36 41.12, -0.3 25.28, -0.64 -0.87" stroke="#000000" stroke-width="1" fill="none"></path></g><g stroke-linecap="round" transform="translate(290.2596137633809 204.74224134273072) rotate(0 30.92578125 27.623046875)"><path d="M0 0 C0 0, 0 0, 0 0 M0 0 C0 0, 0 0, 0 0 M0.12 6.17 C0.71 4.4, 2.89 3.38, 5.33 0.81 M-0.22 6.12 C1.71 4.68, 3.03 2.9, 4.69 0.43 M1.44 11.06 C5.41 6.72, 7.52 3.04, 11.32 1.45 M-0.29 11.27 C4.46 6.75, 7.98 2.52, 10.58 0.51 M-1.8 17.21 C7.57 10.73, 10.35 5.77, 16.07 0.77 M0.84 17.54 C4.71 12.43, 9.46 7.1, 14.96 -0.49 M-0.29 24.14 C7.66 19.27, 12.8 9.43, 20.46 0.89 M0.32 25.07 C8.88 14.1, 16.62 5.37, 20.79 0 M-0.66 29.09 C11.02 20.31, 19.15 9.57, 24.66 0.24 M0.51 30.49 C8.8 19.48, 18.83 10.41, 26.73 -0.29 M1.36 36.35 C9.36 25.12, 18.04 16.79, 30.35 -1.89 M0.01 37.74 C8.22 28.23, 14.09 20.62, 32.82 -0.45 M0.6 42.89 C7.38 33.42, 16.79 25.33, 34.98 -1.31 M0.46 42.92 C12.62 26.86, 25.96 12.22, 37.1 -0.54 M-0.2 50.37 C14.19 31.27, 27.4 18.22, 42.3 0.77 M0.35 48.09 C13.76 32.55, 27.59 16.59, 41.67 -0.99 M-0.51 55.52 C8.74 41.09, 21.16 31.75, 48.43 1.4 M0.52 54.73 C15.07 37.81, 28.57 19.8, 47.32 1.1 M2.74 58.84 C19.47 39.53, 34.95 22.19, 52.45 1.61 M3.36 58.38 C22.71 37.16, 40.12 15.55, 53.6 0.59 M8.42 56.3 C26.01 34.26, 43.5 13.6, 58.44 2.1 M7.64 57.28 C26.08 37.48, 43.15 15.81, 57.41 -0.02 M13.26 59.06 C25.55 40.99, 40.68 26.92, 61.36 1.62 M13.11 58.11 C26.12 42.32, 39.18 27.23, 62.45 0.79 M19.7 57.11 C28.5 44.13, 40.44 33.09, 62.55 7.78 M19.87 56.52 C32.74 41.72, 44.14 26.93, 63.19 6.27 M23.3 57.94 C36.61 45.07, 46.76 30.08, 63.4 13.8 M24.29 57.9 C31.58 47.42, 40.86 39.57, 62.11 13.19 M31.31 56.28 C40.6 46.15, 51.13 34.01, 61.58 17.61 M29.13 57.92 C37 48.9, 46.46 39.84, 62.45 18.84 M32.74 57.77 C45.05 44, 56.61 31.45, 62.98 26.48 M34.16 58.32 C39.9 50.58, 46.7 44.18, 63.68 24.72 M40.89 56.6 C47.22 48.69, 55.96 37.46, 61.64 29.46 M40.2 57.44 C48.76 47.53, 57.95 36.89, 63.97 30.82 M43.47 59.3 C49.35 49.22, 56.41 46.32, 63.74 39.05 M45.75 57.96 C51.18 51.29, 57.57 42.4, 63.72 38.41 M49.27 58.23 C53.39 53.76, 56.41 47.98, 63.51 43.69 M51.05 57.52 C54.72 53.06, 57.83 49.5, 62.1 44.31 M56.68 56.68 C57.77 56.3, 59.54 52.5, 63 49.53 M55.25 58.13 C58.31 54.71, 60.75 51.21, 63.36 49.8" stroke="#15aabf" stroke-width="0.5" fill="none"></path><path d="M1.57 -1.38 C22.96 -1.88, 49.07 0.84, 61.34 0.67 M-0.92 0.83 C23.32 0.55, 46.25 0.6, 61.06 -0.61 M62.27 1.75 C60.67 14.43, 60.69 30.79, 63.3 55.47 M61.01 -0.9 C61.89 20.76, 61.56 39.09, 62.69 55.87 M60.22 56.56 C49.45 57.06, 32.77 57.46, 1.55 55.57 M62.34 56.18 C44.26 54.96, 28.26 54.93, 0.21 55.51 M1.8 55.82 C0.19 38.47, -0.37 18.84, 0.29 -0.32 M-0.46 56 C-0.88 34.22, 0.54 13.79, -0.55 -0.91" stroke="#000000" stroke-width="1" fill="none"></path></g><g stroke-linecap="round" transform="translate(291.8481554300474 269.65977606495244) rotate(0 30.92578125 27.623046875)"><path d="M0 0 C0 0, 0 0, 0 0 M0 0 C0 0, 0 0, 0 0 M-0.52 6.77 C2.06 4.41, 2.94 3.58, 5.73 0.91 M0.06 6.79 C0.7 5.04, 2.52 4.01, 4.61 0.62 M1.32 13.37 C2.1 8.48, 4.34 7.14, 11.44 -0.23 M0.51 12.13 C3.86 7.88, 8.18 2.67, 10.12 0.47 M-0.38 18.23 C7.37 13.29, 11.18 5.16, 14.75 0.11 M-0.84 17.7 C6.29 12.14, 12.55 6, 15.57 -0.29 M-1.21 25.01 C7.81 15.47, 16.32 4.99, 21.68 0.17 M0.79 23.87 C8.89 15.05, 17.43 4.69, 20.52 -0.19 M0.47 29.08 C7.98 23.08, 14.48 15.82, 24.78 -0.1 M0.28 30.85 C9.17 19.74, 18.48 8.3, 25.72 0.27 M-2.05 38.5 C9.84 26.86, 17.56 17.09, 30.21 1.35 M-0.14 37.75 C9.75 25.08, 20.35 13.54, 32.02 -0.77 M0.16 41.86 C9.12 33.65, 16.16 26.32, 36.3 1.97 M0.88 41.69 C10.22 31.12, 21.23 19.29, 37.68 -0.55 M1.4 49.91 C15.52 29.42, 31.98 9.25, 40.57 -2.12 M0.5 49.89 C10.45 35.73, 20.65 24.51, 43.3 -0.87 M-0.37 55.56 C15.08 38.83, 29.33 22.24, 46.12 1.22 M-0.04 55.3 C14.33 38.15, 28.78 22.18, 47.15 -0.22 M1.53 56.24 C19.94 41.38, 32.57 21.77, 52.56 -0.57 M2.56 57.36 C19.8 39.09, 35.82 19.19, 52.18 -0.97 M8.18 59.18 C18.54 45.51, 28.64 35.98, 58.51 0.58 M7.39 56.94 C19.87 44.89, 30.57 30.78, 57.33 0.5 M13.5 58.77 C32.25 38.16, 49.89 15.59, 63.79 1.44 M12.68 58.17 C29.94 39.14, 46.64 20.32, 63.85 1.41 M20.45 57.82 C37 35.74, 53.96 17.42, 61.32 7.81 M17.97 57.22 C27.07 46.42, 37.55 35.78, 62.04 7.41 M24.82 55.88 C34.38 47.92, 41.65 35.1, 63.15 12.97 M24.89 57.19 C33.2 48.27, 41.51 37.52, 63.32 12.58 M30.18 56.59 C40.4 41.84, 55.09 27.72, 61.09 18.38 M30.1 56.94 C43.15 42.47, 56.19 26.15, 63.82 18.69 M34.33 56.94 C39.52 48.8, 47.44 42.45, 63.01 23.93 M34.62 56.95 C40.63 51.27, 46.43 44.27, 62.62 24.93 M40.2 58.63 C49.93 49.41, 54.93 37.98, 65.1 30.03 M40.84 58.12 C45.93 49.03, 53.74 42.46, 63.02 30.53 M46.35 57.35 C49.09 53.66, 52.16 49.04, 64.37 36.88 M45.82 57.7 C50.41 51.22, 58.13 42.75, 62.97 37.64 M49.91 58.03 C52.55 53.63, 58.75 50.26, 62.82 42.69 M50.32 57.97 C55.74 52.86, 58.83 48.25, 62.3 43.86 M56.26 57.09 C57.89 55.33, 59.58 54.82, 63.21 50.1 M55.86 58.15 C57.44 55.82, 59.88 52.92, 62.6 49.43" stroke="#15aabf" stroke-width="0.5" fill="none"></path><path d="M0.63 0.54 C14.02 1.64, 27.61 0.18, 63.38 -0.22 M0.75 0.69 C18.88 -0.36, 39.08 -0.4, 61.53 0.92 M59.89 0.32 C61.41 16.82, 61.24 32.51, 61.53 54.78 M61.33 0.71 C62.09 14.24, 61.18 27.37, 60.94 55.5 M60.69 55.88 C49.18 55.78, 33.56 54.12, -1.28 56.82 M62.01 54.57 C42.88 55.7, 25.03 56.29, 0.35 55.09 M1.31 54.32 C-0.06 36.53, -0.81 16.26, -1.16 -0.43 M0.85 55.18 C-0.48 38.82, -1.2 23.83, -0.84 -0.29" stroke="#000000" stroke-width="1" fill="none"></path></g><g transform="translate(411.0595269578257 288.72379516217507) rotate(0 175 12.5)"><text x="0" y="18" font-family="Virgil, Segoe UI Emoji" font-size="20px" fill="#000000" text-anchor="start" style="white-space: pre;" direction="ltr">VM_ENV_DATA_INDEX_ME_CREF</text></g><g stroke-linecap="round"><g transform="translate(323.4162977911583 298.9104271066194) rotate(0 38.33864253341312 0.35522344596688527)"><path d="M-0.4 -0.83 C12.28 -0.49, 64.33 1.09, 77.08 1.54 M1.59 1.34 C14.1 1.39, 64.31 -0.04, 76.58 -0.26" stroke="#000000" stroke-width="1" fill="none"></path></g><g transform="translate(323.4162977911583 298.9104271066194) rotate(0 38.33864253341312 0.35522344596688527)"><path d="M47.25 12.11 C60.41 6.32, 71.67 0.8, 76.53 0.68 M48.65 10.37 C56.76 7.75, 66.88 4.2, 76 -0.39" stroke="#000000" stroke-width="1" fill="none"></path></g><g transform="translate(323.4162977911583 298.9104271066194) rotate(0 38.33864253341312 0.35522344596688527)"><path d="M46.77 -8.41 C60.02 -6.33, 71.47 -4, 76.53 0.68 M48.17 -10.14 C56.34 -6.38, 66.61 -3.54, 76 -0.39" stroke="#000000" stroke-width="1" fill="none"></path></g></g><mask></mask><g transform="translate(414.35379779115874 219.50938543995244) rotate(0 170 12.5)"><text x="0" y="18" font-family="Virgil, Segoe UI Emoji" font-size="20px" fill="#000000" text-anchor="start" style="white-space: pre;" direction="ltr">VM_ENV_DATA_INDEX_SPECVAL</text></g><g stroke-linecap="round"><g transform="translate(322.55258251338046 233.76285766217507) rotate(0 42.38507570031334 -0.18190825419674184)"><path d="M1.14 -0.8 C15.13 -0.98, 70.55 -1.86, 84.49 -1.74 M0.28 1.39 C14.11 1.37, 69.81 -0.23, 83.83 -0.83" stroke="#000000" stroke-width="1" fill="none"></path></g><g transform="translate(322.55258251338046 233.76285766217507) rotate(0 42.38507570031334 -0.18190825419674184)"><path d="M54.67 11.31 C63.71 7.64, 76.05 1.52, 82.67 -0.28 M55.23 11.39 C63.25 7.76, 71.79 4.28, 83.07 -0.11" stroke="#000000" stroke-width="1" fill="none"></path></g><g transform="translate(322.55258251338046 233.76285766217507) rotate(0 42.38507570031334 -0.18190825419674184)"><path d="M53.97 -9.2 C63.14 -5.78, 75.72 -4.8, 82.67 -0.28 M54.52 -9.12 C62.59 -6.97, 71.32 -4.69, 83.07 -0.11" stroke="#000000" stroke-width="1" fill="none"></path></g></g><mask></mask><g transform="translate(415.3694227911583 158.35053127328638) rotate(0 158.99999999999977 12.5)"><text x="0" y="18" font-family="Virgil, Segoe UI Emoji" font-size="20px" fill="#000000" text-anchor="start" style="white-space: pre;" direction="ltr">VM_ENV_DATA_INDEX_FLAGS</text></g><g stroke-linecap="round"><g transform="translate(322.1315755689361 171.88351738439724) rotate(0 44.11688255158583 -0.5747724258330891)"><path d="M-0.26 0.71 C14.65 0.42, 73.78 -1.56, 88.49 -1.86 M1.81 0.04 C16.66 -0.14, 73.45 -0.91, 87.66 -0.91" stroke="#000000" stroke-width="1" fill="none"></path></g><g transform="translate(322.1315755689361 171.88351738439724) rotate(0 44.11688255158583 -0.5747724258330891)"><path d="M60.74 9.94 C63.86 6.88, 71.29 6.14, 85.87 -2.55 M58.61 10.06 C68.88 5.13, 79.79 2.88, 88.44 -0.95" stroke="#000000" stroke-width="1" fill="none"></path></g><g transform="translate(322.1315755689361 171.88351738439724) rotate(0 44.11688255158583 -0.5747724258330891)"><path d="M60.58 -10.58 C63.71 -9.14, 71.18 -5.37, 85.87 -2.55 M58.45 -10.46 C68.77 -7.99, 79.74 -2.84, 88.44 -0.95" stroke="#000000" stroke-width="1" fill="none"></path></g></g><mask></mask><g stroke-linecap="round"><g transform="translate(218.87636723560308 324.4963646066194) rotate(0 32.34003524453692 -62.46666305871054)"><path d="M0.2 -0.38 C11.37 -20.92, 54.98 -102.34, 65.83 -122.66 M-1.15 -1.63 C10.06 -22.58, 54.49 -104.12, 65.48 -124.55" stroke="#000000" stroke-width="1" fill="none"></path></g><g transform="translate(218.87636723560308 324.4963646066194) rotate(0 32.34003524453692 -62.46666305871054)"><path d="M60.44 -92.96 C62.59 -99.89, 64.09 -105.65, 66.36 -125.88 M60.14 -95.05 C62.45 -101.76, 63.15 -108.44, 65.62 -125.44" stroke="#000000" stroke-width="1" fill="none"></path></g><g transform="translate(218.87636723560308 324.4963646066194) rotate(0 32.34003524453692 -62.46666305871054)"><path d="M42.39 -102.73 C48.25 -107.71, 53.42 -111.49, 66.36 -125.88 M42.1 -104.83 C48.32 -109.25, 53.02 -113.76, 65.62 -125.44" stroke="#000000" stroke-width="1" fill="none"></path></g></g><mask></mask><g stroke-linecap="round"><g transform="translate(218.36855473560308 291.0588646066194) rotate(0 32.29432749565785 -106.93060188775462)"><path d="M-0.14 -0.95 C10.92 -36.71, 55.2 -177.63, 66.25 -213.36 M-1.67 1.16 C9.25 -34.42, 54.17 -179.07, 65.35 -215.02" stroke="#000000" stroke-width="1" fill="none"></path></g><g transform="translate(218.36855473560308 291.0588646066194) rotate(0 32.29432749565785 -106.93060188775462)"><path d="M65.2 -184.91 C67.54 -193.76, 63.87 -201.56, 63.37 -214.03 M66.39 -185.44 C65.85 -193.58, 66.82 -201.27, 65.75 -214.62" stroke="#000000" stroke-width="1" fill="none"></path></g><g transform="translate(218.36855473560308 291.0588646066194) rotate(0 32.29432749565785 -106.93060188775462)"><path d="M45.6 -191 C53.71 -198.05, 55.76 -204.07, 63.37 -214.03 M46.79 -191.53 C51.55 -197.94, 57.85 -203.96, 65.75 -214.62" stroke="#000000" stroke-width="1" fill="none"></path></g></g><mask></mask><g stroke-linecap="round" transform="translate(440.6515408467053 331.73594793995153) rotate(0 162.79730902777783 115.37760416666652)"><path d="M0 0 C0 0, 0 0, 0 0 M0 0 C0 0, 0 0, 0 0 M-0.35 5.97 C1.3 4.2, 3.23 1.96, 5.3 0.96 M-0.55 6.23 C0.68 4.86, 1.72 3.33, 4.9 0.26 M-0.11 11.65 C2.55 8.9, 5.76 6, 11.58 0.16 M-0.26 12.32 C3.68 8.04, 7.07 3.91, 10.47 0.53 M-0.77 20.23 C3.43 14.03, 5.99 9.72, 15.97 0.01 M-1 17.79 C2.98 14.1, 5.36 10.96, 16.14 -0.17 M-0.28 22.65 C5.83 16.33, 9.2 11.92, 21.11 1.25 M0.05 25.02 C4.67 18.34, 11.88 10.79, 21.12 0.13 M0.84 29.32 C6.69 23.87, 12.09 13.81, 25.39 -1.69 M0.84 30.82 C8.4 21.42, 15.89 12.62, 26.27 0.94 M1.51 36.29 C9.12 27.31, 18.06 13.38, 30.87 -0.41 M-0.02 37.16 C12.48 23.32, 26 8.14, 31.29 0.04 M1.42 41.18 C9.06 31.04, 20.48 16.95, 35.51 1.21 M0.47 43.25 C8.7 34, 16.33 25.6, 36.26 0.33 M0.35 49.05 C10.1 36.73, 17.92 29.29, 41.82 -1.32 M0.65 48.36 C14.77 31.58, 27.92 15.98, 42.76 -0.57 M2.08 52.86 C14.7 36.69, 31.62 18.97, 48.84 0.61 M0.55 54.28 C18.16 33.9, 34.75 14.49, 47.45 0.39 M-1.53 59.19 C15.43 41.12, 28.81 23.74, 52.74 0.39 M-0.44 61.95 C15.49 42.83, 33.31 23.84, 53.14 -0.69 M1.32 68.63 C17.06 45.24, 36.94 25.47, 58.9 1.89 M-1.18 67.88 C20.75 42.67, 43.26 17.79, 58.41 0.03 M1.78 73.73 C12.07 58.03, 26.85 42.14, 62.44 -0.9 M0.1 73.04 C22.02 47.88, 44.44 23.99, 64.71 -0.27 M-0.37 78.97 C20.87 55.61, 40.13 30.73, 68.28 1.89 M-0.3 78.78 C24.79 51.11, 49 23.28, 67.95 -0.33 M1.23 83.14 C25.43 54.69, 50.13 26.6, 75.74 -0.37 M-0.12 84.23 C21.95 60.12, 43.46 35.2, 73.55 0.75 M1.56 91.08 C16.27 68.93, 35.22 51.72, 78.56 -1.07 M-0.59 91.97 C15.81 71.8, 31 54.2, 80.1 0.26 M-1.86 96.1 C34.29 58.28, 67.13 19.82, 85.51 -0.72 M-0.91 97.4 C31.3 63.55, 61.46 28.78, 84.41 -0.56 M0.35 103.89 C27.51 72.02, 54.14 43.66, 88.39 -1.21 M-0.46 102.71 C34 61.95, 69.82 22.28, 89.14 0.25 M0.82 110.52 C35.25 69.52, 72.94 27.21, 94.65 -2.19 M0.14 109.7 C19.27 87.35, 38.95 65.6, 95.83 -1.11 M-0.73 114.8 C38.04 75.12, 74.7 30.77, 99.42 0.71 M-0.58 116.28 C28.43 82.1, 58.94 48.16, 100.58 0.61 M-1.35 120.03 C24.82 89.89, 51.44 58.36, 106.09 -0.53 M0.69 121.04 C25.45 90.92, 51.46 62.19, 107.06 -0.79 M0.98 126.41 C42.5 78.58, 88.53 27.59, 110.36 -0.57 M0.46 127.72 C29.34 92.38, 60.38 57.86, 112.16 -0.17 M-1.29 132.97 C32.61 94.38, 65.07 58.36, 116.13 -0.29 M-0.7 134.09 C38.97 88.7, 77.36 43.91, 116.41 1.27 M0.11 141.55 C25.78 112.07, 48.97 82, 122.91 -0.87 M-0.24 139.84 C26.68 107.92, 55.09 78.13, 122.86 0.92 M-0.9 147.16 C35.84 106.3, 67.49 67.5, 127.08 0.2 M-0.25 146.04 C37.25 103.31, 74.59 60.71, 126.93 0.69 M1.23 153.63 C40.13 108.51, 79.79 64.71, 131.92 -0.48 M-0.72 152.69 C26.6 120.15, 54.57 88.22, 131.96 0.34 M-1.55 160.43 C47.32 104.53, 92.74 52.38, 137.32 -0.56 M-0.54 158.4 C53.86 97.99, 107.56 36.7, 137.43 -0.51 M0.17 166.09 C29.84 130.01, 61.76 93.18, 142.98 1.35 M0.93 163.78 C28.66 129.14, 57.68 95.82, 143.63 -0.65 M-0.24 170.67 C46.52 115.9, 94.23 63.1, 149.59 -0.64 M0.73 170.75 C33.38 132.03, 68.92 91.74, 148.06 -0.37 M-0.01 175.22 C36.04 136.71, 71.67 93.07, 154.84 -1.68 M0.3 177 C31.03 140.75, 62.91 105.27, 153.09 0.08 M1.68 183.93 C57.39 115.81, 116.04 47.67, 157.95 0.38 M0.79 182.72 C45.52 128.1, 93.08 74.27, 158.75 -0.56 M1.15 190.42 C35.63 145.4, 73.97 101.43, 165.68 -0.91 M-0.82 189.94 C48.87 134.76, 95.38 79.85, 163.75 -0.02 M-0.51 196.47 C35.26 154.93, 72.55 116.94, 170.09 0.05 M0.33 195.36 C35.75 152.89, 69.99 113.97, 170.03 -0.08 M-0.37 202.31 C40.86 154.23, 80.69 108.57, 174.7 1.34 M0.03 200.69 C57.36 133.45, 115.71 66.27, 175.6 -0.43 M-0.77 207.68 C38.8 162.99, 76.64 119.69, 178.76 1.2 M0.15 207.64 C40.81 159.43, 82.22 113.54, 180.58 0.4 M0.84 212.77 C53.43 152.83, 104.26 94.71, 186.6 1.13 M-0.07 212.75 C60.9 145.26, 121.93 75.41, 185.02 -0.27 M-1.21 218.94 C69.69 139.99, 137.98 63.21, 189.71 0.69 M-0.29 219.81 C73.93 135.76, 147.38 51.19, 191.32 -0.45 M1.22 226.06 C60.4 155.27, 121.69 86.99, 197.36 0.5 M0.4 224.83 C50.54 167.29, 100.5 108.67, 196.37 -0.62 M-0.42 231.01 C53 168.73, 107.85 107.36, 200.67 0.46 M1.26 231.72 C72.34 150.73, 143.79 67.6, 201.4 0.57 M4.39 230.23 C69.96 155.39, 135.22 82.13, 205.64 -0.54 M4.97 231.18 C49.96 180.37, 93.1 130.05, 207.24 -0.63 M11.8 232.19 C79.95 152.42, 149.37 71.28, 212.54 -0.29 M11.63 231.59 C83.98 145.62, 156.83 61.09, 212.01 -0.05 M17.28 231.5 C62.84 179.26, 107.64 129.08, 216.5 0.44 M16.84 231.42 C73.67 163.45, 132.08 96.67, 216.99 0.14 M22.31 231.69 C76.79 167.89, 134.99 102.41, 221.93 -0.57 M22.37 231.32 C79.95 162.26, 138.77 94.42, 222.65 0.09 M25.73 232.31 C97.26 151.11, 165.95 72.13, 228.51 -1.72 M26.52 231.2 C82.95 167.8, 137.24 105, 228.75 -0.35 M32.86 231.31 C98.45 153.71, 165.23 76.44, 234.12 0.97 M32.84 230.46 C104.65 147.08, 179.45 60.64, 233.35 -0.24 M38.16 232.29 C103.29 155.32, 170.15 78.21, 237.46 -0.25 M37.54 230.88 C108.85 149.98, 180.67 68.07, 237.94 0.59 M43.03 229.58 C86.67 180.2, 129.66 128.98, 244.29 -1.21 M42.59 231.06 C98.57 168.05, 153.61 104.99, 243.97 0.62 M47.13 229.95 C105.2 170.05, 159.7 104.08, 249.06 -1.11 M47.45 230.79 C94.32 177.13, 141.29 123.76, 248.59 0.86 M54.62 231.89 C102.68 175.08, 151.71 118.41, 253.43 -0.76 M53.51 231.24 C103.39 174.46, 152.6 119.05, 254.9 -0.71 M59.7 229.94 C130.59 147.31, 203.62 62.08, 259.13 0.27 M58.67 230.61 C98.7 184.92, 139.38 138.34, 260.08 0.28 M64.39 231.65 C140.89 142.97, 218.85 53.26, 264 -1.1 M64.74 230.19 C134.87 147.7, 206.64 66.19, 264.88 -0.37 M69.9 230.02 C118.01 176.32, 162.7 123.84, 269.25 0.09 M69.08 231.42 C122.58 170.88, 175.67 109.72, 270.42 -0.26 M74.15 232.04 C151.71 139.33, 231.19 48.84, 275.58 0.47 M74.89 230.37 C127.77 171.25, 179.62 112.22, 276.08 0.45 M80.49 231.17 C121.86 180.71, 166.8 131.9, 281.72 -0.05 M80 230.73 C123.89 180.86, 165.83 131.07, 280.68 -0.24 M85.85 230.8 C144.5 164.28, 202.2 99.61, 286.33 -0.23 M84.98 231.77 C132.89 179.42, 178.45 127.07, 286.14 -0.87 M89.9 230.36 C150.34 160.89, 211.66 93.33, 292.36 -0.36 M91.09 231.83 C161.7 148.15, 233.51 65.34, 291.41 -0.18 M96.89 230.27 C147.59 171.92, 197.8 112.42, 297.34 -1.28 M95.99 231.03 C156.53 160.63, 218.5 89.37, 297.58 -0.45 M102.38 230.72 C173.11 145.13, 247.1 61.42, 300.64 1.43 M101.12 231.53 C181.68 139.51, 259.06 49.69, 301.83 0.45 M106.34 231.76 C183.89 142.73, 261.73 52.56, 308.25 1.04 M105.65 231.04 C184.57 141.6, 264.22 51.03, 306.91 -0.15 M112.07 231.34 C181.45 154.83, 248.51 74.99, 313.99 -0.01 M111.55 230.97 C176.66 156.76, 241.05 82, 312.11 -0.29 M116.13 231.13 C177.95 162.78, 238.04 93.64, 318.75 -0.77 M116.13 231.4 C181.72 159.72, 244.96 85.66, 318.44 0.33 M121.8 231.68 C174.5 169.82, 226.1 109.36, 323.25 1.18 M122.91 230.58 C195.71 149, 267.83 64.86, 322.54 -0.38 M126.04 232.5 C193.03 158.25, 258.43 83.03, 328.66 0.63 M126.88 231.41 C203.14 143.21, 278.55 56.22, 327.73 1.36 M132.99 230.05 C211.06 143.07, 285.47 56.36, 326.43 7.9 M132.65 230.82 C171.22 185.25, 211.5 138.53, 327.79 7.21 M138.04 232.44 C204.33 155.65, 271.57 82.61, 327.77 12.5 M138.27 230.66 C182.55 181.69, 225.98 132.13, 326.51 13.78 M144.22 230.99 C203.93 162.4, 263.24 94.16, 328.72 20.81 M143.1 231.47 C210.87 151.62, 279.77 71.59, 327.47 20.13 M149.09 232.86 C207.66 163.63, 264.7 97.08, 326.15 25.05 M149.38 231.43 C213.06 157.75, 276.75 85.19, 326.88 26.66 M155.52 232.1 C202.18 176.7, 250.19 122.42, 326.8 31.19 M155.09 230.69 C200.3 176.64, 246.5 122.99, 327.85 31.84 M158.09 230.69 C191.26 190.75, 225.81 150.92, 325.98 38.78 M160.14 231.9 C197.23 189.38, 233.97 146.95, 327.37 38.04 M163.66 231.02 C223.96 162.64, 285.7 92.3, 325.64 44.42 M165.25 230.54 C216.52 173.34, 266.59 115.52, 327.82 43.65 M171.37 231.99 C231.44 160.99, 292.21 89.78, 328.85 48.75 M170.65 231.23 C217.99 174.91, 267.54 117.75, 326.84 49.85 M176.86 230.56 C233.29 169.24, 288.49 103.09, 328.85 55.35 M176.26 231.66 C205.92 194.87, 237.02 159.36, 327.54 56.88 M181.46 231.14 C219.77 186.68, 256.95 141.77, 326.22 63.57 M180.39 230.66 C222.38 184.06, 262.67 136.8, 328.07 61.7 M186.99 230.83 C235.06 172.96, 285.96 115.77, 328.66 67.13 M186.63 230.41 C225.22 186.16, 263.51 141.94, 326.99 68.01 M191.51 231.97 C226.45 190.02, 266.82 147.71, 327.34 74.59 M190.75 231.17 C223.06 194.43, 255.16 158.19, 326.19 75.71 M197.54 230.54 C228.36 195.65, 259.07 156.83, 327.01 80.14 M196.09 229.82 C239.83 181.54, 282.84 131.02, 328.07 79.86 M200.37 232.95 C234.21 191.94, 268.78 153.05, 326.39 88.58 M202.66 230.6 C233.08 198.46, 261.32 165.17, 327.65 87.37 M207.94 233.37 C234.69 199.55, 263.7 163.28, 327.18 94.61 M206.59 231.68 C252.69 179.44, 300.01 125.25, 327.29 91.64 M212.05 231.24 C250.9 185.47, 289.11 143.52, 328.21 98.49 M213.41 231.99 C257.53 182.2, 300.41 132.22, 327.75 99.64 M217.82 231.27 C241.46 201.42, 265.65 175.46, 327.31 104.43 M217.84 231.18 C256.79 184.66, 298 137.52, 327.51 105.47 M221.54 229.89 C258.46 189.06, 297.16 147.71, 326.71 112.56 M223.27 230.97 C257.95 191.84, 293.63 152.64, 326.66 110.18 M228.76 230.92 C261.68 190.68, 298.41 150.28, 328.34 116.85 M228.29 230.84 C247.4 207.32, 267.64 183.73, 327.79 116.79 M232.85 231.29 C260.66 202.76, 286.75 170.82, 325.77 121.56 M232.83 230.68 C270.19 189.46, 306.51 146.21, 328.39 122.59 M237.04 232.7 C259.88 207.78, 282.89 184.6, 328.27 130.9 M238.75 230.43 C267.38 198.8, 294.5 168.84, 326.49 129.84 M245.02 231.33 C261.67 210.14, 279.52 187.76, 328.69 137.49 M243.92 230.77 C262.5 209.41, 282.26 185.69, 327.04 136.21 M250.97 229.49 C281.58 196.62, 309.09 161.32, 326.81 140.28 M248.8 230.75 C272.95 203.84, 296.22 176.5, 326.85 141.61 M254.12 229.34 C268.84 212.22, 285.32 195.88, 326.72 148.53 M254.59 230.43 C281.55 200.55, 307.66 171.79, 326.41 148.16 M260.86 232.6 C283.69 204.62, 309.43 172.97, 326.68 152.19 M259.74 230.59 C281.35 206.07, 303.6 181.61, 327.36 153.59 M267.25 230.16 C289.5 203.52, 311.34 179.16, 329.2 161.62 M266.12 231.34 C281.45 212.14, 296.4 195.16, 327.07 160.84 M269.1 229.84 C283.15 215.19, 296.16 200.96, 326.97 166.04 M271.59 231.79 C287.37 212.03, 304.66 192.86, 326.07 165.55 M276.53 230.05 C298.11 207.4, 316.98 186.46, 328.16 173.41 M276.05 230.71 C295.95 207.96, 316.88 184.44, 327.95 171.9 M280.07 231.47 C294.61 218.17, 306.16 201.08, 327.79 176.44 M282.12 232.18 C292.33 217.97, 302.88 206.47, 326.23 177.53 M285.14 230.77 C296.34 219.32, 305.96 209.05, 327.64 184.99 M287.14 230.26 C299.53 217.05, 310.42 204.98, 326.76 183.99 M290.2 232.24 C304.61 216.79, 313.27 205.83, 328.3 191.75 M291.83 230.62 C304.85 215.56, 318.74 199.55, 327.37 191.33 M297.26 229.53 C303.88 223.47, 314.41 211.45, 325.07 196.71 M298.37 231.23 C304.35 222.07, 310.42 214.14, 326.26 196.56 M301.96 229.34 C306.57 224.45, 313.79 221.11, 327.34 201.03 M302.96 231.98 C309.93 222.14, 316.74 215.3, 326.91 202.52 M308.13 229.04 C315.55 226.49, 320.5 216.77, 327.89 207.09 M307.97 231.37 C313.8 224.68, 320.15 218.37, 327.92 209.81 M313.84 232.44 C318.75 224.59, 322.09 223.43, 328.81 212.82 M312.48 232.15 C317.29 227.92, 319.83 223.4, 328.49 214.17 M317.58 231.99 C321.31 227.68, 322.94 226.18, 327.51 219.89 M317.87 230.95 C320.59 229.43, 322.46 226.11, 327.08 220.41 M323.43 230.77 C325.03 230.16, 326.51 228.66, 327.05 226.98 M323.62 231.09 C324.78 229.96, 325.95 228.41, 326.89 227.17" stroke="#15aabf" stroke-width="0.5" fill="none"></path><path d="M-0.91 -1.01 C64.42 0.64, 129.75 0.19, 326.27 1.2 M-0.62 0.09 C109.07 -1.13, 219.46 -0.94, 326.28 0.09 M323.95 -0.16 C327.32 76.12, 327.9 153.63, 324.39 231.75 M324.91 0.06 C327.57 53.62, 327.38 105.88, 325.05 231.19 M326.69 230.68 C227.03 233.51, 129.1 231.18, 0.28 231.25 M326.28 231.25 C231.92 231.99, 139.81 231.57, -0.44 230.17 M-0.84 230.88 C0.21 178.28, -1.7 129.44, 1.7 0.42 M-0.74 231.5 C-0.73 179.37, -1.26 127.9, -0.05 -0.82" stroke="#000000" stroke-width="1" fill="none"></path></g><g stroke-linecap="round"><g transform="translate(324.2496311244836 302.09185071772936) rotate(0 55.44680647127734 22.882113539872307)"><path d="M1.92 -0.12 C30.91 15.49, 64.99 27.02, 110.36 46.63 M-0.52 -0.87 C32.57 13.11, 63.98 25.38, 111.41 44.92" stroke="#000000" stroke-width="1" fill="none"></path></g><g transform="translate(324.2496311244836 302.09185071772936) rotate(0 55.44680647127734 22.882113539872307)"><path d="M83.36 43.64 C88.34 45.79, 98.66 44.43, 111.08 46.59 M80.92 42.89 C90.89 44.35, 98.9 43.92, 112.14 44.87" stroke="#000000" stroke-width="1" fill="none"></path></g><g transform="translate(324.2496311244836 302.09185071772936) rotate(0 55.44680647127734 22.882113539872307)"><path d="M91.12 24.65 C93.92 32.34, 101.96 36.57, 111.08 46.59 M88.68 23.89 C96.27 30.89, 102.03 35.96, 112.14 44.87" stroke="#000000" stroke-width="1" fill="none"></path></g></g><mask></mask><g stroke-linecap="round" transform="translate(447.2748047355949 336.7663298843959) rotate(0 156.9140625 17.5)"><path d="M-1.75 1.63 L313.56 1.21 L315.1 34.84 L-1.93 36.3" stroke="none" stroke-width="0" fill="#ffffff"></path><path d="M-0.84 1.12 C89.57 -1.34, 178.85 -0.18, 312.93 -0.19 M-0.35 0.3 C69.71 -1.09, 140.48 -1.41, 313.8 -0.52 M314.53 1.89 C314.63 8.75, 315.17 13.79, 311.89 34.97 M313.3 -0.05 C312.96 11.59, 313.89 22.02, 313.45 35.56 M315.22 35.85 C203.64 37.95, 92.73 36.68, -0.72 34.43 M313.23 35.46 C194.99 36.41, 76.38 37.2, -0.53 35.05 M-1.26 36.54 C-0.9 22.91, -0.91 9.17, -0.65 1.32 M-0.26 34.47 C-0.91 22.57, -0.34 9.6, 0.88 0.91" stroke="#000000" stroke-width="1" fill="none"></path></g><g transform="translate(578.6888672355949 341.7663298843959) rotate(0 25.5 12.5)"><text x="25.5" y="18" font-family="Virgil, Segoe UI Emoji" font-size="20px" fill="#000000" text-anchor="middle" style="white-space: pre;" direction="ltr">flags</text></g><g stroke-linecap="round" transform="translate(446.61508251337136 383.0553923843954) rotate(0 156.9140625 17.5)"><path d="M-1.24 0.56 L314.06 0.53 L314.13 33.36 L-0.96 35.88" stroke="none" stroke-width="0" fill="#ffffff"></path><path d="M-0.95 0.68 C85.18 1.29, 170.42 2.36, 314.72 -1.1 M-0.61 -0.39 C66.25 2, 132.84 1.77, 314.07 -0.32 M315.09 1.24 C313.49 12.94, 313.77 28.81, 311.83 36.57 M314.33 -0.25 C314.1 13.58, 314.37 24.48, 314.15 34.07 M314.13 34.54 C203.58 34.85, 91.4 36.39, 0.42 36.16 M313.69 35.45 C207.74 36.07, 102.92 36.56, -0.39 34.97 M1.91 36.58 C1.75 24.25, 0.06 14.9, 1.89 -0.25 M-0.91 35.46 C-0.28 26.12, 0.48 15, 0.77 -0.18" stroke="#000000" stroke-width="1" fill="none"></path></g><g transform="translate(544.5291450133723 388.0553923843954) rotate(0 59 12.5)"><text x="59" y="18" font-family="Virgil, Segoe UI Emoji" font-size="20px" fill="#000000" text-anchor="middle" style="white-space: pre;" direction="ltr">cref_or_me</text></g><g stroke-linecap="round" transform="translate(447.01438806892793 430.38178127328456) rotate(0 156.9140625 17.5)"><path d="M1.78 -1.93 L314.82 0.74 L314.04 36.19 L1.73 35.76" stroke="none" stroke-width="0" fill="#ffffff"></path><path d="M-0.22 -0.72 C68.69 1.78, 139.34 1.98, 312.98 -0.88 M-0.02 -0.61 C105.12 -2, 209.42 -1.21, 313.99 -0.06 M314.48 -1.37 C311.78 11.23, 313.11 23.25, 312.87 34.79 M314.5 0.67 C312.75 10.66, 312.9 21.14, 313.94 35.76 M313.22 35.87 C232.27 33.62, 154.17 34.66, 0.94 34.34 M314 35.5 C228.39 35.78, 143.69 35.9, 0.62 35.62 M1.3 33.56 C-0.92 25.77, -1.19 15.72, 0.3 -0.14 M0.69 34.15 C0.01 25.4, -0.02 15.74, -0.16 0.14" stroke="#000000" stroke-width="1" fill="none"></path></g><g transform="translate(567.4284505689288 435.38178127328456) rotate(0 36.5 12.5)"><text x="36.5" y="18" font-family="Virgil, Segoe UI Emoji" font-size="20px" fill="#000000" text-anchor="middle" style="white-space: pre;" direction="ltr">lastline</text></g><g stroke-linecap="round" transform="translate(446.1246311244836 477.38698960661804) rotate(0 156.9140625 17.5)"><path d="M1.27 -0.46 L315.77 0.61 L313.9 36.52 L0.33 33.41" stroke="none" stroke-width="0" fill="#ffffff"></path><path d="M-1.34 1.22 C64.42 2.08, 132.43 2.84, 312.72 1.33 M0.49 -0.07 C100.05 0.16, 201.06 -1.17, 313.81 -0.64 M313.8 1.68 C313.53 10.87, 313.27 16.47, 313.11 33.74 M313.17 0.8 C313.65 13.15, 314.51 23.75, 313.96 34.04 M313.63 33.66 C210.4 32.94, 106.22 35, 0.89 35.09 M313.17 34.63 C229.42 35.07, 146.91 35.04, -0.38 35.67 M-1.88 34.03 C1.75 21.77, 0.95 7.56, -1.53 -1.76 M-0.64 35.8 C-1.19 21.69, 0.37 9.32, -0.54 -0.34" stroke="#000000" stroke-width="1" fill="none"></path></g><g transform="translate(565.5386936244836 482.38698960661804) rotate(0 37.5 12.5)"><text x="37.5" y="18" font-family="Virgil, Segoe UI Emoji" font-size="20px" fill="#000000" text-anchor="middle" style="white-space: pre;" direction="ltr">backref</text></g><g stroke-linecap="round" transform="translate(444.3841797355949 519.5788298843963) rotate(0 156.9140625 17.5)"><path d="M0.41 -1.6 L314.22 -0.65 L314.55 36.87 L-1.24 36" stroke="none" stroke-width="0" fill="#ffffff"></path><path d="M-0.22 -1.06 C64.91 -1.29, 132.66 -0.08, 314.11 -1.05 M0.38 -0.07 C89.54 2.13, 178.54 1.74, 314.32 0.15 M315.12 -0.35 C315.22 11.46, 314.77 27.13, 312.71 36.39 M313.41 -0.06 C314.25 12.45, 314.77 24.69, 313.16 34.53 M313.95 35.63 C247.44 35.57, 181.64 36.18, 0.07 35 M313.16 34.8 C233.5 35.75, 154.2 35.33, -0.11 35.01 M0.04 35.61 C0.57 27.96, 0.5 19.41, 0.2 -0.19 M0.68 35.7 C1.22 22.42, 0.79 10.64, -0.59 0.65" stroke="#000000" stroke-width="1" fill="none"></path></g><g transform="translate(568.7982422355949 524.5788298843963) rotate(0 32.5 12.5)"><text x="32.5" y="18" font-family="Virgil, Segoe UI Emoji" font-size="20px" fill="#000000" text-anchor="middle" style="white-space: pre;" direction="ltr">others</text></g></svg>