<svg version="1.1" xmlns="http://www.w3.org/2000/svg" viewBox="0 0 308.9952029728788 150.1162109375" width="308.9952029728788" height="150.1162109375">
  <!-- svg-source:excalidraw -->
  
  <defs>
    <style class="style-fonts">
      @font-face {
        font-family: "Virgil";
        src: url("https://excalidraw.com/Virgil.woff2");
      }
      @font-face {
        font-family: "Cascadia";
        src: url("https://excalidraw.com/Cascadia.woff2");
      }
    </style>
  </defs>
  <rect x="0" y="0" width="308.9952029728788" height="150.1162109375" fill="#ffffff"></rect><g stroke-linecap="round" transform="translate(231.69637484787881 79.2451171875) rotate(0 30.92578125 27.623046875)"><path d="M0 0 C0 0, 0 0, 0 0 M0 0 C0 0, 0 0, 0 0 M0.08 6 C2.27 4.66, 4.45 1.25, 4.95 -0.44 M-0.54 6.36 C1.79 3.82, 4.08 1.91, 5.08 0.34 M-1.26 10.54 C2.91 8.14, 6.17 4.54, 11.11 -0.23 M-0.43 11.64 C3.63 7.62, 8.33 2.05, 11.24 -0.2 M0.92 19.19 C2.28 13.17, 8.32 10.23, 14.29 0 M0.72 18.36 C4.46 13.63, 7.82 7.87, 16.15 -0.59 M-0.85 25.23 C7.23 15.3, 14.03 9, 20.95 -1.37 M-0.12 24.12 C6.12 17.17, 9.67 12.05, 20.69 -0.11 M-1.9 28.69 C8.72 23.07, 17.02 14.78, 27.95 -0.17 M0.17 30.35 C9.11 21.25, 15.91 10.16, 26.12 -0.09 M0.78 37.96 C7.73 30.13, 12.54 21.84, 32.47 -1.76 M-0.34 37.16 C9.84 26.15, 17.53 15.34, 31.55 0.87 M-0.48 43.41 C8.45 33.51, 14.24 23.15, 38.19 -1.28 M0.03 42.11 C8.11 32.3, 15.84 23.88, 36.71 0.6 M1.29 49.32 C15.07 28.65, 32.17 12.28, 41.85 -2.1 M0.48 48.15 C15.6 30.59, 33.27 12.06, 42.02 -0.11 M1.63 56.31 C16.98 35.94, 33.17 18.29, 47.33 0 M1.16 55.01 C14.68 37.21, 31.55 19.74, 47.21 0.29 M1.35 58.01 C22.01 36.47, 43.72 12.57, 52.2 -1.59 M2.41 57.82 C16.07 44.02, 28.35 29.52, 53.39 0.63 M7.79 56.78 C24.4 42.51, 37.84 23.62, 57.76 -0.53 M7.55 57.85 C22.67 40.22, 36.2 23.43, 57.66 0.8 M12.94 59.42 C25.33 42.27, 38.41 28.77, 62.99 0.82 M13.54 58.14 C26.16 43.75, 37.63 29.64, 62.53 1.05 M17.23 56.77 C29.83 44.35, 37.87 33.74, 63.95 6.19 M18.27 58.08 C29.89 44.35, 43.63 29.74, 61.92 6.77 M24.97 58.49 C37.46 44.54, 48.19 31.82, 63.54 14.19 M24.58 58.18 C31.48 47.06, 40.69 37.4, 62.36 14.2 M30.9 58.66 C35.3 48.55, 41.78 43.08, 63.66 17.39 M30.28 56.63 C40.51 45.45, 53.35 31.18, 63.8 19.53 M34.25 59.57 C42.34 51.5, 50.03 41.23, 61.2 26.92 M34.84 57 C40.57 50.22, 46.26 44.73, 63.02 24.48 M41.33 57.31 C44.17 52.09, 50.82 45.67, 63.93 32.98 M39.39 56.91 C45.04 51.34, 51.7 45.5, 64.12 30.69 M43.6 57.52 C48.14 51.19, 52.07 47.09, 62.54 38.45 M45.37 57.66 C52.01 49.45, 58.37 42.78, 62.09 38.41 M52.02 57.07 C53.98 52.98, 54.98 50.29, 62.59 43.44 M50.64 56.93 C53.79 53.52, 57.63 50.7, 63.15 42.97 M55.84 58.78 C57.3 55.2, 58.7 53.69, 63.45 50.28 M55.88 58.01 C58.41 55.58, 59.73 53, 62.46 49.34" stroke="#40c057" stroke-width="0.5" fill="none"></path><path d="M-0.69 0.66 C22.97 1.32, 48.7 -0.43, 62.74 1.67 M-0.38 -0.34 C22.73 0.6, 44.78 0.76, 60.88 -0.57 M60.3 1.99 C60.83 11.72, 62.56 27.93, 62.02 53.44 M62.04 -0.2 C61.8 17.57, 61.87 36.64, 61.09 56.04 M62.93 56.44 C35.79 56.51, 11.69 54.86, -1.31 57.15 M61.7 55 C38.66 55.78, 14.79 54.98, 0.03 55.16 M1.09 56.18 C-0.24 37.76, -0.29 14.49, 1.16 -1.84 M0.14 55.71 C0.39 33.61, 0.55 13.54, 0.18 0.44" stroke="#000000" stroke-width="1" fill="none"></path></g><g transform="translate(245.62215609787881 94.3681640625) rotate(0 17 12.5)"><text x="17" y="18" font-family="Virgil, Segoe UI Emoji" font-size="20px" fill="#000000" text-anchor="middle" style="white-space: pre;" direction="ltr">"-e"</text></g><g stroke-linecap="round" transform="translate(229.83016391037881 15.330078125) rotate(0 30.92578125 27.623046875)"><path d="M-0.52 1.85 C25.61 -0.1, 48.65 1.46, 62.96 -1.72 M0.75 0.22 C15.5 0.58, 28.37 -0.36, 61.3 -0.85 M61.3 -1.81 C62.6 18.04, 61.59 32.52, 62.4 53.74 M62.22 -0.53 C62.39 14.21, 61.2 28.33, 62.75 55.48 M59.88 56.02 C36.49 54.75, 13.77 57.52, 1.6 54.86 M62.15 56.05 C45.88 55.09, 30.08 55.01, 0.52 56.15 M0.26 57.21 C-0.09 31.63, 0.86 9.88, 1.53 -1.75 M-0.09 54.41 C-0.01 41.63, 0.1 28.67, 0.73 -0.47" stroke="#000000" stroke-width="1" fill="none"></path></g><g stroke-linecap="round" transform="translate(223.88192172287881 10) rotate(0 37.556640625 65.05810546875)"><path d="M1.85 1.72 C20.05 1.08, 41.55 1.3, 73.39 -1.26 M0.22 0.82 C20.08 -1.53, 38.84 -1.11, 74.26 0.11 M73.31 1.18 C77.28 29.1, 74.6 58.4, 73.6 129.1 M74.58 0.44 C75.29 40.7, 75.65 83.8, 75.35 130.9 M75.89 128.13 C47.68 128.06, 23.88 130.97, -0.39 129.26 M75.92 130.04 C53.73 130.37, 32.28 130.86, 0.9 131.05 M1.96 130.33 C-2.47 85.13, -2.45 39.34, -1.75 -1.11 M-0.84 130.18 C-0.71 89.41, -0.15 49.08, -0.47 -0.82" stroke="#000000" stroke-width="1" fill="none"></path></g><g stroke-linecap="round"><g transform="translate(157.56956065689315 44.923828125) rotate(0 31.586451605306937 -0.08268013079964476)"><path d="M1.11 1.03 C11.54 1.19, 52.48 0.66, 62.94 0.61 M0.24 0.53 C10.47 0.35, 51.46 -0.93, 62.02 -1.23" stroke="#000000" stroke-width="1" fill="none"></path></g><g transform="translate(157.56956065689315 44.923828125) rotate(0 31.586451605306937 -0.08268013079964476)"><path d="M35.87 9.97 C44.35 7.58, 53.85 0.49, 60.76 -1.98 M34.97 10.23 C40.5 6.28, 48.33 3.06, 62.13 -2.01" stroke="#000000" stroke-width="1" fill="none"></path></g><g transform="translate(157.56956065689315 44.923828125) rotate(0 31.586451605306937 -0.08268013079964476)"><path d="M35.26 -10.54 C43.89 -6.11, 53.6 -6.36, 60.76 -1.98 M34.36 -10.28 C40.21 -8.78, 48.19 -6.55, 62.13 -2.01" stroke="#000000" stroke-width="1" fill="none"></path></g></g><mask></mask><g stroke-linecap="round" transform="translate(72.91707797287879 78.95703125) rotate(0 30.92578125 27.623046875)"><path d="M0.11 0.89 C18.63 0.57, 32.2 -1.79, 61.1 -0.69 M0.37 -0.97 C22.62 -1.06, 45.54 -0.4, 61.07 0.99 M62.72 0.17 C59.54 15.6, 59.84 29.08, 62.22 54.84 M62.29 -0.76 C62.35 19.51, 61.79 38.01, 62.39 55.84 M60.99 53.93 C51.3 56.23, 36.54 53.77, -0.31 54.75 M61.85 55.27 C41.35 55.72, 21.93 56.14, 0.55 55.71 M-1.86 56.41 C-2.38 39.49, -2.29 19.57, 0.28 0.92 M-0.11 55.42 C0.91 39.92, -0.01 22.32, -0.73 1" stroke="#000000" stroke-width="1" fill="none"></path></g><g stroke-linecap="round" transform="translate(65.24910922287879 74.2666015625) rotate(0 37.556640625 32.78076171875)"><path d="M0.89 1.67 C30.6 -1.76, 57.74 -0.79, 74.43 1.5 M-0.97 -0.57 C23.6 -1.13, 48.41 -1.05, 76.11 -0.28 M75.29 -1.81 C76.05 12.23, 74.48 27.86, 74.71 66.3 M74.35 0.8 C76.29 16.41, 76.18 32.87, 75.71 64.58 M73.8 67.47 C51.25 64.85, 23.34 64.93, -0.49 66.16 M75.14 65.48 C47.08 66.46, 18.94 66.11, 0.47 65.69 M1.16 63.72 C1.46 37.71, -1.18 13.64, 0.92 -0.19 M0.18 66 C0.69 50.92, -0.86 36.48, 1 0.61" stroke="#000000" stroke-width="1" fill="none"></path></g><g stroke-linecap="round"><g transform="translate(10.647964203059672 107.36962890625) rotate(0 26.99829187761992 -0.19186636917288524)"><path d="M0.53 1 C9.47 0.76, 45.86 -1.08, 54.64 -1.38 M-0.65 0.48 C8.1 0.35, 44.65 -0.35, 54.05 -0.39" stroke="#000000" stroke-width="1" fill="none"></path></g><g transform="translate(10.647964203059672 107.36962890625) rotate(0 26.99829187761992 -0.19186636917288524)"><path d="M30.47 10.26 C36.82 4.1, 47.54 0.99, 55.54 0.04 M28.22 8.61 C37.57 5.86, 47.3 3.09, 53.77 -1.29" stroke="#000000" stroke-width="1" fill="none"></path></g><g transform="translate(10.647964203059672 107.36962890625) rotate(0 26.99829187761992 -0.19186636917288524)"><path d="M30.24 -8.2 C36.69 -7.23, 47.5 -3.22, 55.54 0.04 M28 -9.86 C37.5 -5.54, 47.31 -1.24, 53.77 -1.29" stroke="#000000" stroke-width="1" fill="none"></path></g></g><mask></mask></svg>