<?xml version="1.0" encoding="UTF-8" standalone="no"?>
<!DOCTYPE svg PUBLIC "-//W3C//DTD SVG 1.1//EN"
 "http://www.w3.org/Graphics/SVG/1.1/DTD/svg11.dtd">
<!-- Generated by graphviz version 2.50.0 (20211204.2007)
 -->
<!-- Pages: 1 -->
<svg width="256pt" height="260pt"
 viewBox="0.00 0.00 255.75 260.00" xmlns="http://www.w3.org/2000/svg" xmlns:xlink="http://www.w3.org/1999/xlink">
<g id="graph0" class="graph" transform="scale(1 1) rotate(0) translate(4 256)">
<polygon fill="white" stroke="transparent" points="-4,4 -4,-256 251.75,-256 251.75,4 -4,4"/>
<!-- left -->
<g id="node1" class="node">
<title>left</title>
<polygon fill="none" stroke="black" points="103.75,-36 49.75,-36 49.75,0 103.75,0 103.75,-36"/>
<text text-anchor="middle" x="76.75" y="-14.3" font-family="Times,serif" font-size="14.00">int (1)</text>
</g>
<!-- oper -->
<g id="node2" class="node">
<title>oper</title>
<ellipse fill="none" stroke="black" cx="148.75" cy="-18" rx="27" ry="18"/>
<text text-anchor="middle" x="148.75" y="-14.3" font-family="Times,serif" font-size="14.00">+</text>
</g>
<!-- right -->
<g id="node3" class="node">
<title>right</title>
<polygon fill="none" stroke="black" points="247.75,-36 193.75,-36 193.75,0 247.75,0 247.75,-36"/>
<text text-anchor="middle" x="220.75" y="-14.3" font-family="Times,serif" font-size="14.00">int (2)</text>
</g>
<!-- program -->
<g id="node4" class="node">
<title>program</title>
<ellipse fill="none" stroke="black" cx="98.75" cy="-234" rx="40.89" ry="18"/>
<text text-anchor="middle" x="98.75" y="-230.3" font-family="Times,serif" font-size="14.00">program</text>
</g>
<!-- stmts_add -->
<g id="node5" class="node">
<title>stmts_add</title>
<ellipse fill="none" stroke="black" cx="98.75" cy="-162" rx="46.59" ry="18"/>
<text text-anchor="middle" x="98.75" y="-158.3" font-family="Times,serif" font-size="14.00">stmts_add</text>
</g>
<!-- program&#45;&gt;stmts_add -->
<g id="edge1" class="edge">
<title>program&#45;&gt;stmts_add</title>
<path fill="none" stroke="black" d="M98.75,-215.7C98.75,-207.98 98.75,-198.71 98.75,-190.11"/>
<polygon fill="black" stroke="black" points="102.25,-190.1 98.75,-180.1 95.25,-190.1 102.25,-190.1"/>
</g>
<!-- stmts_new -->
<g id="node6" class="node">
<title>stmts_new</title>
<ellipse fill="none" stroke="black" cx="48.75" cy="-90" rx="48.99" ry="18"/>
<text text-anchor="middle" x="48.75" y="-86.3" font-family="Times,serif" font-size="14.00">stmts_new</text>
</g>
<!-- stmts_add&#45;&gt;stmts_new -->
<g id="edge2" class="edge">
<title>stmts_add&#45;&gt;stmts_new</title>
<path fill="none" stroke="black" d="M86.9,-144.41C80.79,-135.87 73.23,-125.28 66.45,-115.79"/>
<polygon fill="black" stroke="black" points="69.17,-113.57 60.51,-107.47 63.47,-117.64 69.17,-113.57"/>
</g>
<!-- binary -->
<g id="node7" class="node">
<title>binary</title>
<ellipse fill="none" stroke="black" cx="148.75" cy="-90" rx="33.29" ry="18"/>
<text text-anchor="middle" x="148.75" y="-86.3" font-family="Times,serif" font-size="14.00">binary</text>
</g>
<!-- stmts_add&#45;&gt;binary -->
<g id="edge3" class="edge">
<title>stmts_add&#45;&gt;binary</title>
<path fill="none" stroke="black" d="M110.59,-144.41C116.79,-135.74 124.48,-124.97 131.33,-115.38"/>
<polygon fill="black" stroke="black" points="134.36,-117.16 137.33,-106.99 128.67,-113.09 134.36,-117.16"/>
</g>
<!-- binary&#45;&gt;left -->
<g id="edge4" class="edge">
<title>binary&#45;&gt;left</title>
<path fill="none" stroke="black" d="M133.12,-73.81C123.94,-64.88 112.11,-53.38 101.67,-43.23"/>
<polygon fill="black" stroke="black" points="103.97,-40.59 94.36,-36.13 99.09,-45.61 103.97,-40.59"/>
</g>
<!-- binary&#45;&gt;oper -->
<g id="edge5" class="edge">
<title>binary&#45;&gt;oper</title>
<path fill="none" stroke="black" d="M148.75,-71.7C148.75,-63.98 148.75,-54.71 148.75,-46.11"/>
<polygon fill="black" stroke="black" points="152.25,-46.1 148.75,-36.1 145.25,-46.1 152.25,-46.1"/>
</g>
<!-- binary&#45;&gt;right -->
<g id="edge6" class="edge">
<title>binary&#45;&gt;right</title>
<path fill="none" stroke="black" d="M164.37,-73.81C173.55,-64.88 185.38,-53.38 195.82,-43.23"/>
<polygon fill="black" stroke="black" points="198.4,-45.61 203.13,-36.13 193.52,-40.59 198.4,-45.61"/>
</g>
</g>
</svg>
